<svg width="512" height="512" viewBox="0 0 512 512" fill="none" xmlns="http://www.w3.org/2000/svg">
<path d="M397.88 103.496V94.64C397.862 87.8454 395.155 81.3342 390.35 76.5296C385.546 71.7251 379.035 69.0179 372.24 69C365.442 69.0074 358.925 71.7111 354.118 76.518C349.311 81.3248 346.607 87.8421 346.6 94.64V103.08H320.36V94.64C320.36 87.8468 317.664 81.3312 312.864 76.5239C308.065 71.7166 301.553 69.0106 294.76 69C287.962 69.0085 281.446 71.7125 276.639 76.5191C271.833 81.3257 269.128 87.8424 269.12 94.64V103.08H242.88V94.64C242.88 91.2755 242.217 87.944 240.93 84.8356C239.642 81.7273 237.755 78.903 235.376 76.5239C232.997 74.1449 230.173 72.2577 227.064 70.9702C223.956 69.6827 220.624 69.02 217.26 69.02C213.896 69.02 210.564 69.6827 207.456 70.9702C204.347 72.2577 201.523 74.1449 199.144 76.5239C196.765 78.903 194.878 81.7273 193.59 84.8356C192.303 87.944 191.64 91.2755 191.64 94.64V103.08H165.4V94.64C165.382 87.8454 162.675 81.3342 157.87 76.5296C153.066 71.7251 146.555 69.0179 139.76 69C132.962 69.0085 126.446 71.7125 121.639 76.5191C116.833 81.3257 114.128 87.8424 114.12 94.64V103.496C101.683 105.03 90.2336 111.053 81.9248 120.434C73.6161 129.816 69.0199 141.908 69 154.44V391.64C69.0159 405.257 74.4321 418.311 84.0605 427.939C93.689 437.568 106.743 442.984 120.36 443H391.64C405.257 442.984 418.311 437.568 427.939 427.939C437.568 418.311 442.984 405.257 443 391.64V154.44C442.98 141.908 438.384 129.816 430.075 120.434C421.766 111.053 410.317 105.03 397.88 103.496ZM360.6 94.64C360.604 91.5542 361.832 88.596 364.014 86.414C366.196 84.2319 369.154 83.0042 372.24 83C375.321 83.0189 378.271 84.2513 380.45 86.4301C382.629 88.609 383.861 91.5587 383.88 94.64V125.52C383.88 128.607 382.654 131.568 380.471 133.751C378.288 135.934 375.327 137.16 372.24 137.16C369.153 137.16 366.192 135.934 364.009 133.751C361.826 131.568 360.6 128.607 360.6 125.52V94.64ZM283.12 94.64C283.123 91.5539 284.351 88.595 286.533 86.4128C288.715 84.2306 291.674 83.0032 294.76 83C297.841 83.0095 300.792 84.2402 302.966 86.4222C305.141 88.6042 306.361 91.5595 306.36 94.64V125.52C306.36 128.602 305.136 131.557 302.957 133.737C300.777 135.916 297.822 137.14 294.74 137.14C291.658 137.14 288.703 135.916 286.523 133.737C284.344 131.557 283.12 128.602 283.12 125.52V94.64ZM205.64 94.64C205.64 91.5582 206.864 88.6026 209.043 86.4234C211.223 84.2442 214.178 83.02 217.26 83.02C220.342 83.02 223.297 84.2442 225.477 86.4234C227.656 88.6026 228.88 91.5582 228.88 94.64V125.52C228.88 128.602 227.656 131.557 225.477 133.737C223.297 135.916 220.342 137.14 217.26 137.14C214.178 137.14 211.223 135.916 209.043 133.737C206.864 131.557 205.64 128.602 205.64 125.52V94.64ZM128.12 94.64C128.123 91.5539 129.351 88.595 131.533 86.4128C133.715 84.2306 136.674 83.0032 139.76 83C142.841 83.0189 145.791 84.2513 147.97 86.4301C150.149 88.609 151.381 91.5587 151.4 94.64V125.52C151.4 128.607 150.174 131.568 147.991 133.751C145.808 135.934 142.847 137.16 139.76 137.16C136.673 137.16 133.712 135.934 131.529 133.751C129.346 131.568 128.12 128.607 128.12 125.52V94.64ZM114.12 117.644V125.52C114.12 132.32 116.821 138.842 121.63 143.65C126.438 148.459 132.96 151.16 139.76 151.16C146.56 151.16 153.082 148.459 157.89 143.65C162.699 138.842 165.4 132.32 165.4 125.52V117.08H191.64V125.52C191.64 132.315 194.339 138.831 199.144 143.636C203.949 148.441 210.465 151.14 217.26 151.14C224.055 151.14 230.571 148.441 235.376 143.636C240.181 138.831 242.88 132.315 242.88 125.52V117.08H269.12V125.52C269.12 132.315 271.819 138.831 276.624 143.636C281.429 148.441 287.945 151.14 294.74 151.14C301.535 151.14 308.051 148.441 312.856 143.636C317.661 138.831 320.36 132.315 320.36 125.52V117.08H346.6V125.52C346.6 132.32 349.301 138.842 354.11 143.65C358.918 148.459 365.44 151.16 372.24 151.16C379.04 151.16 385.562 148.459 390.37 143.65C395.179 138.842 397.88 132.32 397.88 125.52V117.644C406.574 119.123 414.465 123.628 420.16 130.362C425.854 137.095 428.985 145.625 429 154.444V175.512H83V154.44C83.0156 145.622 86.1472 137.093 91.8416 130.36C97.536 123.627 105.427 119.123 114.12 117.644ZM391.64 429H120.36C110.455 428.988 100.959 425.048 93.9554 418.045C86.9515 411.041 83.0116 401.545 83 391.64V189.52H429V391.64C428.988 401.545 425.048 411.041 418.045 418.045C411.041 425.048 401.545 428.988 391.64 429Z" fill="white"/>
<path d="M166.736 224.54H138.472C133.552 224.546 128.835 226.504 125.355 229.983C121.876 233.462 119.918 238.18 119.912 243.1V271.364C119.918 276.284 121.876 281.002 125.355 284.481C128.835 287.96 133.552 289.918 138.472 289.924H166.736C171.657 289.918 176.374 287.96 179.853 284.481C183.332 281.002 185.29 276.284 185.296 271.364V243.1C185.29 238.18 183.332 233.462 179.853 229.983C176.374 226.504 171.657 224.546 166.736 224.54ZM171.296 271.364C171.295 272.573 170.814 273.732 169.959 274.587C169.104 275.442 167.945 275.923 166.736 275.924H138.472C137.263 275.923 136.104 275.442 135.249 274.587C134.394 273.732 133.913 272.573 133.912 271.364V243.1C133.913 241.891 134.394 240.732 135.249 239.877C136.104 239.022 137.263 238.541 138.472 238.54H166.736C167.945 238.541 169.104 239.022 169.959 239.877C170.814 240.732 171.295 241.891 171.296 243.1V271.364Z" fill="white"/>
<path d="M270.132 224.54H241.868C236.947 224.546 232.23 226.504 228.751 229.983C225.271 233.462 223.314 238.18 223.308 243.1V271.364C223.314 276.284 225.271 281.002 228.751 284.481C232.23 287.96 236.947 289.918 241.868 289.924H270.132C275.052 289.918 279.769 287.96 283.249 284.481C286.728 281.002 288.685 276.284 288.692 271.364V243.1C288.685 238.18 286.728 233.462 283.249 229.983C279.769 226.504 275.052 224.546 270.132 224.54ZM274.692 271.364C274.691 272.573 274.21 273.732 273.355 274.587C272.5 275.442 271.341 275.923 270.132 275.924H241.868C240.659 275.923 239.499 275.442 238.644 274.587C237.789 273.732 237.309 272.573 237.308 271.364V243.1C237.309 241.891 237.789 240.732 238.644 239.877C239.499 239.022 240.659 238.541 241.868 238.54H270.132C271.341 238.541 272.5 239.022 273.355 239.877C274.21 240.732 274.691 241.891 274.692 243.1V271.364Z" fill="white"/>
<path d="M382.6 234.116L351.2 265.5L336.176 250.476C334.856 249.201 333.088 248.496 331.252 248.512C329.417 248.529 327.661 249.265 326.364 250.563C325.066 251.861 324.33 253.617 324.315 255.453C324.299 257.288 325.005 259.056 326.28 260.376L346.252 280.348C346.902 280.999 347.674 281.515 348.523 281.867C349.373 282.219 350.283 282.4 351.202 282.4C352.122 282.4 353.032 282.219 353.882 281.867C354.731 281.515 355.503 280.999 356.152 280.348L392.5 244C393.813 242.687 394.551 240.907 394.551 239.05C394.551 237.193 393.813 235.413 392.5 234.1C391.188 232.787 389.407 232.05 387.55 232.05C385.694 232.05 383.913 232.787 382.6 234.1V234.116Z" fill="white"/>
<path d="M166.736 320.964H138.472C133.552 320.97 128.835 322.928 125.355 326.407C121.876 329.886 119.918 334.604 119.912 339.524V367.788C119.918 372.708 121.876 377.426 125.355 380.905C128.835 384.384 133.552 386.342 138.472 386.348H166.736C171.657 386.342 176.374 384.384 179.853 380.905C183.332 377.426 185.29 372.708 185.296 367.788V339.524C185.29 334.604 183.332 329.886 179.853 326.407C176.374 322.928 171.657 320.97 166.736 320.964ZM171.296 367.788C171.295 368.997 170.814 370.156 169.959 371.011C169.104 371.866 167.945 372.347 166.736 372.348H138.472C137.263 372.347 136.104 371.866 135.249 371.011C134.394 370.156 133.913 368.997 133.912 367.788V339.524C133.913 338.315 134.394 337.156 135.249 336.301C136.104 335.446 137.263 334.965 138.472 334.964H166.736C167.945 334.965 169.104 335.446 169.959 336.301C170.814 337.156 171.295 338.315 171.296 339.524V367.788Z" fill="white"/>
<path d="M270.132 320.964H241.868C236.947 320.97 232.23 322.928 228.751 326.407C225.271 329.886 223.314 334.604 223.308 339.524V367.788C223.314 372.708 225.271 377.426 228.751 380.905C232.23 384.384 236.947 386.342 241.868 386.348H270.132C275.052 386.342 279.769 384.384 283.249 380.905C286.728 377.426 288.685 372.708 288.692 367.788V339.524C288.685 334.604 286.728 329.886 283.249 326.407C279.769 322.928 275.052 320.97 270.132 320.964ZM274.692 367.788C274.691 368.997 274.21 370.156 273.355 371.011C272.5 371.866 271.341 372.347 270.132 372.348H241.868C240.659 372.347 239.499 371.866 238.644 371.011C237.789 370.156 237.309 368.997 237.308 367.788V339.524C237.309 338.315 237.789 337.156 238.644 336.301C239.499 335.446 240.659 334.965 241.868 334.964H270.132C271.341 334.965 272.5 335.446 273.355 336.301C274.21 337.156 274.691 338.315 274.692 339.524V367.788Z" fill="white"/>
<path d="M373.528 320.964H345.264C340.344 320.97 335.627 322.928 332.147 326.407C328.668 329.886 326.71 334.604 326.704 339.524V367.788C326.71 372.708 328.668 377.426 332.147 380.905C335.627 384.384 340.344 386.342 345.264 386.348H373.528C378.449 386.342 383.166 384.384 386.645 380.905C390.124 377.426 392.082 372.708 392.088 367.788V339.524C392.082 334.604 390.124 329.886 386.645 326.407C383.166 322.928 378.449 320.97 373.528 320.964ZM378.088 367.788C378.087 368.997 377.606 370.156 376.751 371.011C375.896 371.866 374.737 372.347 373.528 372.348H345.264C344.055 372.347 342.896 371.866 342.041 371.011C341.186 370.156 340.705 368.997 340.704 367.788V339.524C340.705 338.315 341.186 337.156 342.041 336.301C342.896 335.446 344.055 334.965 345.264 334.964H373.528C374.737 334.965 375.896 335.446 376.751 336.301C377.606 337.156 378.087 338.315 378.088 339.524V367.788Z" fill="white"/>
</svg>
