<svg width="22" height="18" viewBox="0 0 22 18" fill="none" xmlns="http://www.w3.org/2000/svg">
<path d="M20.1668 6.67969H20.9307C21.3523 6.67969 21.6946 6.33319 21.6946 5.90625C21.6946 5.47931 21.3523 5.13281 20.9307 5.13281H19.0714L17.6696 2.76764C17.1173 1.83565 16.1227 1.26562 15.0495 1.26562H6.95073C5.87747 1.26562 4.88289 1.83565 4.33059 2.76764L2.92886 5.13281H1.06955C0.647886 5.13281 0.305664 5.47931 0.305664 5.90625C0.305664 6.33319 0.647886 6.67969 1.06955 6.67969H1.83344L0.916775 7.91796C0.520317 8.45318 0.305664 9.10441 0.305664 9.77421V12.868C0.305664 13.7226 0.989345 14.4148 1.83344 14.4148V15.1883C1.83344 16.0429 2.51712 16.7351 3.36122 16.7351H4.889C5.73309 16.7351 6.41678 16.0429 6.41678 15.1883V14.4148H15.5834V15.1883C15.5834 16.0429 16.2671 16.7351 17.1112 16.7351H18.639C19.4831 16.7351 20.1668 16.0429 20.1668 15.1883V14.4148C21.0109 14.4148 21.6946 13.7226 21.6946 12.868V9.77421C21.6946 9.10519 21.4799 8.45318 21.0834 7.91796L20.1668 6.67969ZM3.74316 12.0938C3.11066 12.0938 2.59733 11.574 2.59733 10.9336C2.59733 10.2932 3.11066 9.77344 3.74316 9.77344C4.37566 9.77344 4.889 10.2932 4.889 10.9336C4.889 11.574 4.37566 12.0938 3.74316 12.0938ZM17.0784 6.03C16.4505 6.45384 15.7133 6.67969 14.9593 6.67969H7.04011C6.28615 6.67969 5.549 6.45384 4.92184 6.03077L4.39094 5.67267L5.64066 3.56428C5.91643 3.09867 6.41372 2.81327 6.95073 2.81327H15.0502C15.5873 2.81327 16.0846 3.09867 16.3603 3.56428L17.61 5.67267L17.0791 6.03077L17.0784 6.03ZM18.2571 12.0938C17.6246 12.0938 17.1112 11.574 17.1112 10.9336C17.1112 10.2932 17.6246 9.77344 18.2571 9.77344C18.8896 9.77344 19.4029 10.2932 19.4029 10.9336C19.4029 11.574 18.8896 12.0938 18.2571 12.0938Z" fill="#5B6573"/>
</svg>
