<svg width="25" height="25" viewBox="0 0 25 25" fill="none" xmlns="http://www.w3.org/2000/svg">
<path d="M24.3325 17.4444H20.9944C21.3221 17.1199 21.5438 16.6927 21.6145 16.2139H22.5815C23.7221 16.2139 24.6506 15.2855 24.6506 14.1418V11.623C24.6506 11.1539 24.3485 10.7459 23.902 10.611C23.4458 10.4728 21.1937 9.87847 21.0042 9.43825C20.9978 9.42537 20.9946 9.41574 20.9882 9.40611L20.1978 8.01503C19.899 7.34681 19.2339 6.91309 18.4983 6.91309H12.8921C12.3395 6.91309 11.8029 7.16696 11.4752 7.57167L9.39967 9.71463C8.85352 10.3861 8.03099 10.7555 7.20218 10.7555H4.13724C4.07621 10.7555 4.00868 10.7588 3.94127 10.7652V9.97488C3.94127 9.83994 3.94127 9.59257 4.59985 9.59257C4.77981 9.59257 4.92114 9.44799 4.92114 9.27128C4.92114 9.09132 4.77981 8.94999 4.59985 8.94999C3.42714 8.94999 3.29869 9.66647 3.29869 9.97488V10.8777C2.41199 11.1091 1.45776 11.6712 1.16548 12.4326H0.847437C0.670724 12.4326 0.526151 12.5772 0.526151 12.7539V14.3089C0.526151 14.4857 0.670724 14.6302 0.847437 14.6302H1.05943V15.0351C1.05943 15.684 1.58632 16.2142 2.23528 16.2142H3.665C3.73566 16.6929 3.95739 17.1201 4.28506 17.4447H0.667478C0.490765 17.4447 0.346191 17.5892 0.346191 17.7659C0.346191 17.9459 0.490765 18.0872 0.667478 18.0872H24.3326C24.5093 18.0872 24.6539 17.9459 24.6539 17.7659C24.6538 17.589 24.5092 17.4444 24.3325 17.4444ZM2.20952 13.6855C2.20952 13.8526 2.07458 13.9876 1.91074 13.9876H1.16862V13.0751H1.91074C2.07458 13.0751 2.20952 13.21 2.20952 13.3739V13.6855ZM15.2694 7.55566H18.4982C18.98 7.55566 19.417 7.83842 19.6259 8.30428L20.4226 9.70824C20.4837 9.84319 20.5865 9.9685 20.7407 10.0906L18.6267 11.3274C18.3568 11.4753 18.0548 11.5523 17.7464 11.5523H15.2694V7.55566ZM9.88166 10.1419L11.9571 7.99901C12.182 7.72274 12.5321 7.55566 12.8919 7.55566H14.6268V11.5523H11.112C9.93933 11.5523 9.20683 11.0287 8.95307 10.9259C9.31299 10.7202 9.62779 10.4535 9.88166 10.1419ZM13.9875 13.1875C13.9875 13.3642 13.8558 13.5088 13.6791 13.5088H13.6502C13.4735 13.5088 13.3289 13.3642 13.3289 13.1875C13.3289 13.0076 13.4735 12.8662 13.6502 12.8662C13.83 12.8664 13.9875 13.0077 13.9875 13.1875ZM5.8336 17.4444C4.97904 17.4444 4.28181 16.7472 4.28181 15.8927C4.28181 15.0348 4.97893 14.3376 5.8336 14.3376C6.69141 14.3376 7.38852 15.0348 7.38852 15.8927C7.38852 16.7473 6.6913 17.4444 5.8336 17.4444ZM7.38528 17.4444C7.71295 17.1199 7.93468 16.6927 8.00534 16.2139H17.2709C17.3416 16.6927 17.5633 17.1199 17.891 17.4444H7.38528ZM19.4428 17.4444C18.585 17.4444 17.8877 16.7472 17.8877 15.8927C17.8877 15.0348 18.5849 14.3376 19.4428 14.3376C20.3006 14.3376 20.9977 15.0348 20.9977 15.8927C20.9977 16.7473 20.3006 17.4444 19.4428 17.4444Z" fill="#0C2453"/>
</svg>
