<svg width="74" height="74" viewBox="0 0 74 74" fill="none" xmlns="http://www.w3.org/2000/svg">
<path d="M67.4598 37.47L59.2798 35.93C56.8998 32.47 56.2998 27.75 51.8298 27.75H43.8398C42.0798 27.75 43.1698 30.19 42.8398 36.91C42.7698 37.74 43.0698 38.52 42.3998 39.08C5.89983 39.51 4.56982 38.15 4.56982 40.08V46.62C4.56982 47.17 5.01982 47.62 5.56982 47.62H8.42982C8.09982 50.88 10.6698 53.69 13.9198 53.69C16.9598 53.69 19.4398 51.21 19.4398 48.17C19.4398 47.98 19.4298 47.8 19.4098 47.62C23.0098 47.63 6.37983 47.6 54.5698 47.68C54.2798 50.95 56.8698 53.69 60.0698 53.69C63.2498 53.69 65.8398 50.98 65.5698 47.7C67.1398 47.52 69.4298 48.27 69.4298 46.7V39.86C69.4298 38.69 68.5998 37.69 67.4598 37.47ZM54.4598 31.3L57.1998 36.29C52.4998 37.64 48.4398 37.62 44.8398 36.22V29.74C50.2898 30.1 53.0798 28.78 54.4598 31.3ZM10.4098 48.17C10.4098 43.51 17.4498 43.51 17.4498 48.17C17.4498 52.82 10.4098 52.82 10.4098 48.17ZM9.03982 45.61H6.56982V41.07H41.7198V45.61H18.8198C16.7398 41.66 11.1098 41.66 9.03982 45.61ZM60.0798 51.69C55.4198 51.69 55.4298 44.65 60.0798 44.65C64.7398 44.65 64.7298 51.69 60.0798 51.69ZM67.4298 45.69H65.0098C62.9698 41.64 57.2098 41.63 55.1598 45.68L43.7198 45.62V40.59C44.3698 40.03 44.7598 39.23 44.8198 38.36C49.4898 39.95 54.2198 39.41 58.8798 37.89C67.0198 39.56 67.4298 39.2 67.4298 39.86V45.69Z" fill="white"/>
<path d="M8.00984 33.9999C8.34984 38.9599 14.3898 39.8599 15.8998 35.0499C20.7298 35.3699 25.0598 35.2699 30.1198 35.5799C30.8598 38.9299 36.3298 39.6199 37.8198 36.5099C41.7298 36.4099 42.4198 32.1499 41.6398 31.2899C39.6898 29.1599 36.4698 28.4799 33.0298 27.8999C31.1298 27.6499 17.2398 12.6599 6.70984 25.4999C6.39984 25.8799 6.51984 26.1499 6.28984 27.7399C5.42984 28.0299 5.64984 28.8699 5.42984 30.1899C5.21984 31.9099 6.37984 33.6199 8.00984 33.9999ZM11.7898 36.2399C10.6998 36.0799 9.85984 34.6899 10.0198 33.3199C10.3898 30.1499 14.4998 30.5799 14.1198 33.8999C13.9698 35.1399 12.9698 36.3899 11.7898 36.2399ZM33.9198 36.4799C31.0298 36.1299 31.7398 33.0599 34.2898 33.3599C36.8198 33.6399 36.8098 36.8599 33.9198 36.4799ZM38.0698 34.4899C37.3698 30.7799 31.7798 30.1999 30.3098 33.5999C25.2698 33.2899 20.8898 33.3899 16.0998 33.0699C15.6498 28.4299 9.87984 27.6999 8.29984 31.9999C7.00984 31.4699 7.49984 29.8399 7.48984 29.7099C8.37984 29.3999 8.10984 28.5999 8.42984 26.5499C8.46984 26.5099 8.50984 26.4699 8.54984 26.4299C16.4498 28.2799 24.4998 29.8899 32.5798 29.8899C33.8398 29.8899 38.1698 30.7699 39.8798 32.3599C39.8398 32.4599 39.9198 34.2999 38.0698 34.4899ZM28.9198 27.7799C26.5098 27.6399 24.0798 27.3799 21.5898 27.0099L21.9998 23.4399C25.0098 24.6499 26.4198 25.7799 28.9198 27.7799ZM20.0598 22.8299L19.6098 26.6799C16.6698 26.1799 13.6098 25.5399 10.3898 24.7999C12.9398 22.9999 16.4498 22.0299 20.0598 22.8299Z" fill="white"/>
</svg>
