<svg width="61" height="61" viewBox="0 0 61 61" fill="none" xmlns="http://www.w3.org/2000/svg">
<g clip-path="url(#clip0_813_1896)">
<path d="M18.7837 12.2254C18.2563 12.2254 17.8286 12.653 17.8286 13.1805C17.8286 14.3392 16.8859 15.2818 15.7273 15.2818C14.5686 15.2818 13.626 14.3392 13.626 13.1805C13.626 12.0219 14.5686 11.0792 15.7273 11.0792C16.2547 11.0792 16.6824 10.6517 16.6824 10.1241C16.6824 9.59654 16.2548 9.16895 15.7273 9.16895C13.5153 9.16895 11.7158 10.9686 11.7158 13.1804C11.7158 15.3923 13.5154 17.1919 15.7273 17.1919C17.9391 17.1919 19.7387 15.3923 19.7387 13.1804C19.7389 12.653 19.3112 12.2254 18.7837 12.2254Z" fill="white"/>
<path d="M18.7837 23.4322C18.2563 23.4322 17.8286 23.8598 17.8286 24.3873C17.8286 25.546 16.8859 26.4886 15.7273 26.4886C14.5686 26.4886 13.626 25.546 13.626 24.3873C13.626 23.2287 14.5686 22.286 15.7273 22.286C16.2547 22.286 16.6824 21.8584 16.6824 21.3309C16.6824 20.8033 16.2548 20.3757 15.7273 20.3757C13.5153 20.3757 11.7158 22.1754 11.7158 24.3872C11.7158 26.599 13.5154 28.3987 15.7273 28.3987C17.9391 28.3987 19.7387 26.599 19.7387 24.3872C19.7389 23.8599 19.3112 23.4322 18.7837 23.4322Z" fill="white"/>
<path d="M29.9905 25.4697H22.859C22.3315 25.4697 21.9038 25.8973 21.9038 26.4249C21.9038 26.9524 22.3314 27.38 22.859 27.38H29.9905C30.5179 27.38 30.9456 26.9524 30.9456 26.4249C30.9456 25.8973 30.518 25.4697 29.9905 25.4697Z" fill="white"/>
<path d="M29.9905 21.3945H22.859C22.3315 21.3945 21.9038 21.8221 21.9038 22.3497C21.9038 22.8772 22.3314 23.3048 22.859 23.3048H29.9905C30.5179 23.3048 30.9456 22.8772 30.9456 22.3497C30.9456 21.8221 30.518 21.3945 29.9905 21.3945Z" fill="white"/>
<path d="M27.9529 36.6763H22.859C22.3315 36.6763 21.9038 37.1039 21.9038 37.6314C21.9038 38.159 22.3314 38.5866 22.859 38.5866H27.9529C28.4804 38.5866 28.9081 38.159 28.9081 37.6314C28.9081 37.1039 28.4804 36.6763 27.9529 36.6763Z" fill="white"/>
<path d="M29.9905 32.6013H22.859C22.3315 32.6013 21.9038 33.0289 21.9038 33.5565C21.9038 34.084 22.3314 34.5116 22.859 34.5116H29.9905C30.5179 34.5116 30.9456 34.084 30.9456 33.5565C30.9456 33.0289 30.518 32.6013 29.9905 32.6013Z" fill="white"/>
<path d="M39.1597 14.2629H22.859C22.3315 14.2629 21.9038 14.6905 21.9038 15.2181C21.9038 15.7456 22.3314 16.1732 22.859 16.1732H39.1595C39.687 16.1732 40.1147 15.7456 40.1147 15.2181C40.1147 14.6905 39.6871 14.2629 39.1597 14.2629Z" fill="white"/>
<path d="M35.0845 10.1877H22.859C22.3315 10.1877 21.9038 10.6153 21.9038 11.1429C21.9038 11.6704 22.3314 12.098 22.859 12.098H35.0845C35.6119 12.098 36.0396 11.6704 36.0396 11.1429C36.0396 10.6153 35.612 10.1877 35.0845 10.1877Z" fill="white"/>
<path d="M18.7837 34.6387C18.2563 34.6387 17.8286 35.0663 17.8286 35.5939C17.8286 36.7525 16.8859 37.6951 15.7273 37.6951C14.5686 37.6951 13.626 36.7525 13.626 35.5939C13.626 34.4352 14.5686 33.4926 15.7273 33.4926C16.2547 33.4926 16.6824 33.065 16.6824 32.5374C16.6824 32.0099 16.2548 31.5823 15.7273 31.5823C13.5153 31.5823 11.7158 33.3819 11.7158 35.5937C11.7158 37.8056 13.5154 39.6052 15.7273 39.6052C17.9391 39.6052 19.7387 37.8056 19.7387 35.5937C19.7389 35.0663 19.3112 34.6387 18.7837 34.6387Z" fill="white"/>
<path d="M43.235 0H8.59621C6.94611 0 5.60352 1.34248 5.60352 2.99269V45.7818C5.60352 47.432 6.94599 48.7745 8.59621 48.7745H25.9157C26.4431 48.7745 26.8708 48.3469 26.8708 47.8194C26.8708 47.2919 26.4432 46.8642 25.9157 46.8642H8.59621C7.99931 46.8642 7.5137 46.3786 7.5137 45.7817V2.99269C7.5137 2.3958 7.99931 1.91018 8.59621 1.91018H43.235C43.8319 1.91018 44.3175 2.3958 44.3175 2.99269V34.5753C44.3175 35.1028 44.7451 35.5305 45.2727 35.5305C45.8001 35.5305 46.2278 35.1029 46.2278 34.5753V2.99269C46.2277 1.34248 44.8853 0 43.235 0Z" fill="white"/>
<path d="M52.2524 38.7319C51.3647 38.6434 50.4774 38.895 49.7752 39.4281C49.2158 38.4895 48.262 37.8237 47.1584 37.7131C46.2704 37.6247 45.3833 37.8763 44.6812 38.4094C44.1219 37.4708 43.168 36.8049 42.0644 36.6943C41.3865 36.6267 40.7095 36.7572 40.1147 37.06V24.8967C40.1147 23.9091 39.6946 22.9624 38.9618 22.2994C38.2296 21.637 37.243 21.3136 36.2548 21.4125C34.4916 21.5891 33.1105 23.1833 33.1105 25.042V37.2361L30.3029 40.0437C28.8109 41.5357 28.2086 43.6526 28.692 45.7066L30.8235 54.7657C31.6872 58.4365 34.9241 61.0002 38.6951 61.0002H47.3098C51.7688 61.0002 55.3965 57.3726 55.3965 52.9135V42.3616C55.3966 40.5027 54.0155 38.9084 52.2524 38.7319ZM53.4863 52.9133C53.4863 56.3189 50.7156 59.0897 47.3099 59.0897H38.6952C35.815 59.0897 33.3426 57.1316 32.6829 54.3279L30.5514 45.2688C30.2206 43.8635 30.6328 42.415 31.6536 41.3942L33.1105 39.9372V43.2348C33.1105 43.7622 33.5381 44.1899 34.0657 44.1899C34.5932 44.1899 35.0208 43.7624 35.0208 43.2348V25.0419C35.0208 24.1525 35.6464 23.3931 36.4453 23.3133C36.9041 23.2672 37.3429 23.4104 37.6803 23.7159C38.0135 24.0174 38.2046 24.4479 38.2046 24.8968V41.7068C38.2046 42.2343 38.6322 42.662 39.1598 42.662C39.6873 42.662 40.1149 42.2344 40.1149 41.7068V40.1786C40.1149 39.7297 40.3059 39.2992 40.6393 38.9977C40.9769 38.6922 41.4155 38.5489 41.8743 38.5951C42.673 38.675 43.2987 39.4344 43.2987 40.3238V42.7254C43.2987 43.2528 43.7263 43.6805 44.2539 43.6805C44.7813 43.6805 45.209 43.2529 45.209 42.7254V41.1971C45.209 40.7482 45.4 40.3178 45.7334 40.0162C46.071 39.7107 46.5097 39.5675 46.9684 39.6136C47.7671 39.6936 48.3928 40.453 48.3928 41.3424V43.744C48.3928 44.2714 48.8204 44.6992 49.348 44.6992C49.8754 44.6992 50.3031 44.2716 50.3031 43.744V42.2158C50.3031 41.7669 50.4941 41.3364 50.8274 41.0349C51.1651 40.7295 51.6034 40.5861 52.0625 40.6324C52.8612 40.7122 53.4869 41.4716 53.4869 42.361V52.9133H53.4863Z" fill="white"/>
</g>
<defs>
<clipPath id="clip0_813_1896">
<rect width="61" height="61" fill="white"/>
</clipPath>
</defs>
</svg>
