<svg width="512" height="512" viewBox="0 0 512 512" fill="none" xmlns="http://www.w3.org/2000/svg">
<g clip-path="url(#clip0_132_22)">
<path d="M214.784 422.644H355.862C362.463 422.735 369.013 421.48 375.112 418.953C381.21 416.427 386.73 412.683 391.332 407.951L495 304.287C498.616 300.671 501.485 296.378 503.442 291.653C505.399 286.929 506.406 281.865 506.406 276.751C506.406 271.637 505.399 266.573 503.442 261.848C501.484 257.124 498.616 252.831 495 249.214C491.384 245.598 487.091 242.73 482.366 240.773C477.641 238.816 472.577 237.809 467.463 237.809C462.35 237.809 457.286 238.816 452.561 240.773C447.836 242.73 443.543 245.599 439.927 249.215L382.9 306.239C380.321 298.844 375.506 292.433 369.124 287.893C362.741 283.354 355.106 280.909 347.273 280.899H253.856C231.692 267.288 185.568 265.347 147.393 276.637C128.186 282.317 103.813 293.458 90.6013 314.832L89.0134 312.673C87.2967 310.346 84.7273 308.795 81.8687 308.36C79.0101 307.925 76.0956 308.641 73.7644 310.352L10.0794 357.208C7.75197 358.924 6.20041 361.494 5.7651 364.352C5.32979 367.211 6.04627 370.126 7.75735 372.457L107.157 507.557C108.004 508.713 109.071 509.689 110.298 510.43C111.524 511.17 112.885 511.66 114.302 511.871C114.854 511.955 115.412 511.998 115.97 511.998C118.287 511.999 120.543 511.256 122.406 509.878L186.092 463.021C188.42 461.305 189.971 458.735 190.406 455.876C190.841 453.018 190.125 450.103 188.413 447.772L183.452 441.03L203.887 426.181C207.019 423.81 210.858 422.564 214.784 422.644ZM116.177 499.568L18.0704 366.227L80.0004 320.665L178.1 454.008L116.177 499.568ZM176.343 431.368L98.4184 325.456C108.746 304.444 132.4 293.585 150.796 288.145C189.272 276.765 232.496 280.882 248.73 291.868C249.723 292.54 250.895 292.899 252.093 292.899H347.271C354.094 292.899 360.638 295.609 365.462 300.434C370.287 305.259 372.997 311.802 372.997 318.625C372.997 325.448 370.287 331.991 365.462 336.816C360.638 341.641 354.094 344.351 347.271 344.351H252.093C250.502 344.351 248.976 344.983 247.851 346.108C246.725 347.234 246.093 348.76 246.093 350.351C246.093 351.942 246.725 353.468 247.851 354.594C248.976 355.719 250.502 356.351 252.093 356.351H347.271C356.825 356.339 366.02 352.707 373.003 346.186C379.985 339.664 384.237 330.739 384.9 321.208L448.407 257.7C453.482 252.755 460.3 250.007 467.386 250.053C474.471 250.098 481.253 252.933 486.264 257.944C491.274 262.954 494.109 269.736 494.155 276.822C494.2 283.907 491.453 290.726 486.507 295.8L382.846 399.467C379.362 403.089 375.166 405.952 370.522 407.876C365.879 409.799 360.888 410.742 355.862 410.644H214.784C208.324 410.573 202.018 412.622 196.833 416.478L176.343 431.368ZM60.1584 361.848C60.1582 365.199 61.1517 368.475 63.0133 371.261C64.875 374.048 67.5211 376.22 70.6171 377.502C73.7131 378.785 77.1198 379.12 80.4065 378.466C83.6932 377.813 86.7123 376.199 89.0819 373.829C91.4514 371.46 93.0651 368.441 93.7188 365.154C94.3726 361.867 94.0369 358.461 92.7544 355.365C91.4719 352.269 89.3002 349.623 86.5138 347.761C83.7273 345.899 80.4514 344.906 77.1003 344.906C72.6087 344.911 68.3025 346.698 65.1264 349.874C61.9503 353.05 60.1636 357.356 60.1584 361.848ZM82.0434 361.848C82.0435 362.826 81.7538 363.782 81.2107 364.595C80.6677 365.408 79.8957 366.041 78.9924 366.416C78.0892 366.79 77.0952 366.888 76.1363 366.697C75.1773 366.506 74.2965 366.036 73.6051 365.344C72.9138 364.653 72.443 363.772 72.2523 362.813C72.0616 361.854 72.1596 360.86 72.5338 359.957C72.9081 359.054 73.5418 358.282 74.3548 357.739C75.1678 357.196 76.1236 356.906 77.1013 356.906C78.4116 356.908 79.6677 357.429 80.5941 358.355C81.5206 359.282 82.0418 360.538 82.0434 361.848ZM187.377 98.721C186.074 99.0415 184.916 99.7896 184.088 100.846C183.26 101.902 182.81 103.205 182.81 104.547V148.482C182.81 149.824 183.26 151.128 184.088 152.184C184.916 153.24 186.074 153.988 187.377 154.309L211.526 160.246C212.891 164.194 214.494 168.055 216.326 171.808L203.44 193.091C202.746 194.239 202.456 195.587 202.618 196.919C202.779 198.251 203.383 199.49 204.331 200.439L235.4 231.507C236.35 232.456 237.589 233.059 238.922 233.22C240.254 233.381 241.602 233.091 242.75 232.396L264.032 219.514C267.786 221.346 271.646 222.949 275.593 224.314L281.532 248.464C281.853 249.767 282.601 250.925 283.657 251.753C284.713 252.581 286.016 253.031 287.358 253.031H331.293C332.635 253.031 333.938 252.581 334.995 251.753C336.051 250.925 336.799 249.767 337.119 248.464L343.057 224.315C347.005 222.95 350.866 221.347 354.619 219.515L375.9 232.4C377.048 233.095 378.397 233.385 379.729 233.224C381.061 233.062 382.301 232.459 383.25 231.51L414.317 200.443C415.266 199.494 415.869 198.255 416.03 196.923C416.192 195.591 415.902 194.243 415.207 193.095L402.325 171.812C404.158 168.059 405.76 164.197 407.125 160.25L431.275 154.313C432.579 153.992 433.737 153.244 434.565 152.188C435.393 151.132 435.842 149.828 435.842 148.486V104.547C435.842 103.205 435.392 101.902 434.564 100.846C433.736 99.7896 432.578 99.0415 431.275 98.721L407.126 92.782C405.761 88.8352 404.158 84.9745 402.326 81.221L415.208 59.938C415.903 58.7899 416.194 57.4418 416.032 56.1094C415.871 54.7769 415.267 53.5371 414.318 52.588L383.249 21.522C382.3 20.5729 381.06 19.9695 379.728 19.8082C378.396 19.6468 377.047 19.9369 375.899 20.632L354.617 33.514C350.864 31.6814 347.003 30.0785 343.055 28.714L337.117 4.564C336.796 3.26144 336.048 2.10406 334.992 1.27675C333.936 0.449435 332.633 -8.3885e-05 331.291 1.17415e-08L287.356 1.17415e-08C286.014 8.13e-05 284.711 0.45003 283.655 1.27793C282.599 2.10583 281.851 3.26389 281.53 4.567L275.592 28.717C271.645 30.0811 267.783 31.6841 264.03 33.517L242.748 20.632C241.6 19.9369 240.252 19.6468 238.92 19.8082C237.587 19.9695 236.347 20.5729 235.398 21.522L204.331 52.588C203.382 53.5369 202.779 54.7767 202.617 56.1092C202.455 57.4416 202.745 58.7897 203.44 59.938L216.323 81.221C214.491 84.9742 212.888 88.8349 211.523 92.782L187.377 98.721ZM228.315 77.859L216.142 57.748L240.557 33.333L260.669 45.507C261.557 46.0441 262.568 46.3421 263.605 46.3717C264.642 46.4013 265.669 46.1616 266.585 45.676C271.634 42.9989 276.924 40.8036 282.385 39.119C283.376 38.8141 284.271 38.2577 284.982 37.5042C285.694 36.7506 286.199 35.8255 286.446 34.819L292.06 12H326.587L332.2 34.817C332.448 35.8235 332.952 36.7486 333.664 37.5022C334.376 38.2557 335.271 38.8121 336.261 39.117C341.722 40.802 347.012 42.9974 352.061 45.674C352.978 46.1592 354.005 46.3987 355.042 46.3691C356.079 46.3395 357.091 46.0418 357.978 45.505L378.089 33.331L402.505 57.746L390.331 77.859C389.794 78.7464 389.496 79.7579 389.467 80.7947C389.437 81.8316 389.677 82.8584 390.162 83.775C392.838 88.8244 395.033 94.1144 396.718 99.575C397.023 100.566 397.58 101.46 398.333 102.172C399.087 102.884 400.012 103.388 401.018 103.636L423.835 109.246V143.775L401.018 149.385C400.012 149.633 399.087 150.137 398.333 150.848C397.58 151.56 397.023 152.455 396.718 153.445C395.033 158.906 392.838 164.195 390.162 169.245C389.677 170.162 389.437 171.189 389.466 172.226C389.496 173.263 389.794 174.275 390.331 175.162L402.505 195.273L378.089 219.7L357.978 207.526C357.091 206.989 356.079 206.691 355.042 206.662C354.006 206.632 352.979 206.872 352.062 207.358C347.013 210.034 341.723 212.229 336.262 213.914C335.272 214.219 334.377 214.775 333.665 215.529C332.953 216.282 332.449 217.208 332.201 218.214L326.59 241.031H292.06L286.449 218.214C286.202 217.208 285.698 216.283 284.986 215.529C284.275 214.776 283.381 214.219 282.39 213.914C276.93 212.228 271.64 210.033 266.59 207.357C265.674 206.871 264.647 206.631 263.61 206.661C262.573 206.69 261.561 206.988 260.673 207.525L240.557 219.7L216.142 195.28L228.315 175.169C228.853 174.282 229.15 173.27 229.18 172.233C229.21 171.196 228.97 170.17 228.484 169.253C225.809 164.204 223.614 158.914 221.929 153.453C221.624 152.463 221.068 151.568 220.314 150.856C219.561 150.145 218.636 149.641 217.629 149.393L194.812 143.783V109.25L217.629 103.64C218.636 103.392 219.561 102.888 220.314 102.177C221.068 101.465 221.624 100.57 221.929 99.58C223.614 94.1195 225.809 88.8296 228.484 83.78C228.971 82.8628 229.211 81.835 229.181 80.7972C229.152 79.7594 228.853 78.747 228.315 77.859ZM309.323 194.864C325.13 194.852 340.444 189.361 352.656 179.325C364.868 169.289 373.223 155.329 376.297 139.824C379.372 124.319 376.975 108.227 369.516 94.2912C362.057 80.3549 349.997 69.4358 335.39 63.3941C320.783 57.3524 304.533 56.5618 289.409 61.1571C274.285 65.7523 261.222 75.4491 252.445 88.5954C243.668 101.742 239.721 117.525 241.275 133.255C242.83 148.985 249.79 163.69 260.97 174.864C267.316 181.218 274.854 186.256 283.152 189.688C291.449 193.12 300.344 194.879 309.323 194.864ZM273.007 169.625C274.927 161.434 279.559 154.133 286.152 148.906C292.745 143.68 300.91 140.836 309.323 140.836C317.736 140.836 325.902 143.68 332.495 148.906C339.087 154.133 343.72 161.434 345.639 169.625C335.468 178.171 322.608 182.855 309.323 182.855C296.038 182.855 283.179 178.171 273.007 169.625ZM319.357 124.692C318.042 126.019 316.477 127.073 314.753 127.794C313.029 128.515 311.179 128.888 309.311 128.892C307.442 128.896 305.591 128.531 303.864 127.817C302.137 127.104 300.567 126.057 299.246 124.735C297.925 123.414 296.877 121.845 296.164 120.117C295.451 118.39 295.086 116.539 295.09 114.67C295.094 112.802 295.467 110.952 296.188 109.228C296.909 107.504 297.963 105.94 299.29 104.624C300.608 103.306 302.172 102.261 303.894 101.548C305.616 100.835 307.461 100.468 309.325 100.468C311.188 100.468 313.033 100.836 314.755 101.549C316.476 102.262 318.041 103.307 319.358 104.625C320.676 105.943 321.721 107.507 322.434 109.229C323.147 110.95 323.514 112.796 323.514 114.659C323.514 116.523 323.147 118.368 322.434 120.09C321.72 121.811 320.675 123.374 319.357 124.692ZM269.457 86.646C279.483 76.6217 292.917 70.7422 307.083 70.1788C321.249 69.6154 335.108 74.4094 345.898 83.6058C356.688 92.8022 363.617 105.726 365.305 119.802C366.994 133.879 363.317 148.075 355.008 159.562C350.035 147.415 340.45 137.736 328.352 132.644C331.869 128.926 334.22 124.259 335.114 119.219C336.007 114.18 335.405 108.989 333.38 104.288C331.356 99.5871 327.999 95.5823 323.724 92.7685C319.449 89.9547 314.443 88.4551 309.325 88.4551C304.207 88.4551 299.201 89.9547 294.926 92.7685C290.65 95.5823 287.293 99.5871 285.269 104.288C283.245 108.989 282.643 114.18 283.536 119.219C284.43 124.259 286.78 128.926 290.297 132.644C278.199 137.735 268.614 147.415 263.641 159.562C255.785 148.701 252.055 135.395 253.121 122.033C254.187 108.67 259.978 96.1247 269.457 86.646Z" fill="white"/>
</g>
<defs>
<clipPath id="clip0_132_22">
<rect width="512" height="512" fill="white"/>
</clipPath>
</defs>
</svg>
