<svg width="169" height="82" viewBox="0 0 169 82" fill="none" xmlns="http://www.w3.org/2000/svg">
<g clip-path="url(#clip0_813_1852)">
<path d="M160.153 57.4526C160.365 58.1404 160.471 58.9339 160.471 59.7804C160.471 62.3197 159.464 64.383 158.14 64.383C157.451 64.383 156.815 63.6952 156.391 62.6901C156.55 62.0023 156.603 61.2617 156.603 60.4681C156.603 59.4101 156.444 58.352 156.179 57.5055C156.179 57.4703 156.179 57.4526 156.179 57.4526H155.279C155.65 58.2462 155.914 59.3043 155.914 60.4681C155.914 63.0075 154.855 65.0707 153.583 65.0707C152.259 65.0707 151.252 63.0075 151.252 60.4681C151.252 59.3043 151.464 58.2462 151.835 57.4526H146.325C146.008 58.2991 145.849 59.3572 145.849 60.4681C145.849 63.6423 147.173 66.1817 148.868 66.1817H153.583C154.113 66.1817 154.59 65.9172 155.014 65.441H158.14C159.835 65.441 161.212 62.9017 161.212 59.7804C161.212 58.9339 161.106 58.1404 160.947 57.4526H160.153Z" fill="white"/>
<path d="M115.015 60.627H113.797C113.903 61.2618 113.956 61.9143 113.956 62.5844C113.956 66.8166 112.207 70.2553 110.088 70.2553C108.87 70.2553 107.81 69.1444 107.068 67.5044C107.333 66.3405 107.492 65.0708 107.492 63.8011C107.492 62.6373 107.386 61.5792 107.174 60.627H105.956C106.168 61.5792 106.274 62.6373 106.274 63.8011C106.274 67.9805 104.578 71.4192 102.406 71.4192C100.287 71.4192 98.539 67.9805 98.539 63.8011C98.539 62.6373 98.6979 61.5792 98.9098 60.627H97.6384H97.3205H90.8572C90.6453 61.5792 89.5327 62.6373 89.5327 63.8011C89.5327 68.9857 91.8108 73.2708 94.6186 73.2708H102.406C103.307 73.2708 104.155 72.7947 104.896 72.054H110.088C112.896 72.054 115.174 67.8218 115.174 62.5844C115.139 61.9143 115.086 61.2618 115.015 60.627Z" fill="white"/>
<path d="M92.4468 51.7925V57.9293L98.2744 54.226L99.122 53.2738L150.829 54.4376L149.663 55.7602L92.4468 57.9293V62.5847L162.325 58.7228L163.808 53.2209L92.4468 51.7925Z" fill="white"/>
<path d="M9.48291 67.4517C9.90673 73.1652 12.5556 77.5562 15.7343 77.5562C18.913 77.5562 21.5089 73.271 21.9857 67.6104C17.9064 68.5626 13.6152 68.2981 9.48291 67.4517Z" fill="white"/>
<path d="M5.35059 66.4463C5.5625 72.636 8.31736 77.556 11.655 77.556H15.7343V74.8579C16.7938 73.165 17.5885 70.8373 17.8534 68.1921C13.7211 68.4037 9.48287 67.6102 5.35059 66.4463Z" fill="white"/>
<path fill-rule="evenodd" clip-rule="evenodd" d="M59.1236 69.1973C59.1236 75.7573 56.3158 81.0476 52.8192 81.0476H48.7399C45.2434 81.0476 42.4355 75.7573 42.4355 69.1973C42.4355 62.6902 45.2434 57.3999 48.7399 57.3999H52.8192C56.3158 57.3999 59.1236 62.6902 59.1236 69.1973ZM57.6932 69.1973C57.6932 64.2244 55.733 60.1509 53.2431 60.1509C50.7531 60.1509 48.7929 64.2244 48.7929 69.1973C48.7929 74.2231 50.7531 78.2967 53.2431 78.2967C55.733 78.2967 57.6932 74.2231 57.6932 69.1973Z" fill="white"/>
<path d="M138.908 62.8493L122.273 64.0661C120.472 64.2248 118.989 62.8493 118.883 61.0506C118.777 59.3048 120.154 57.7706 121.955 57.6119L138.538 56.3951C140.339 56.2893 141.822 57.6119 141.928 59.4106C142.034 61.2093 140.657 62.7435 138.908 62.8493Z" fill="white"/>
<path d="M27.1778 45.5493H11.6023L10.3838 46.6603H27.1778V45.5493Z" fill="white"/>
<path d="M7.20506 45.5493V46.6603H27.1778V45.5493H7.20506ZM6.62231 50.7338H26.5421V49.57H6.62231V50.7338ZM6.03955 54.8074H25.9593V53.6435H6.03955V54.8074ZM5.40381 58.8809H25.3765V57.7171H5.40381V58.8809Z" fill="white"/>
<path d="M26.0123 53.644H6.03955V54.755H26.0123V53.644Z" fill="white"/>
<path fill-rule="evenodd" clip-rule="evenodd" d="M95.2016 54.2258H98.2743V69.1974L60.448 72.4245H57.4282C57.5871 71.4722 57.6931 70.3613 57.6931 69.1974C57.6931 64.2245 55.7329 60.1509 53.2429 60.1509C50.753 60.1509 48.7928 64.2245 48.7928 69.1974C48.7928 70.3613 48.8987 71.4722 49.0577 72.4245H44.1837V71.578C30.1975 73.8529 0.105957 70.8374 0.105957 70.8374V60.9974L1.58934 59.8864L0.529783 58.7225C0.635739 58.2993 0.741694 57.8937 0.847651 57.5058C0.882969 57.4 0.91829 57.2942 0.953609 57.1883C1.02425 56.9415 1.11254 56.6946 1.2185 56.4477C1.25382 56.3419 1.28914 56.2185 1.32445 56.0774C1.43041 55.8658 1.51871 55.6718 1.58934 55.4954C1.65998 55.3896 1.71296 55.2838 1.74828 55.178C1.85424 55.0017 1.94253 54.8253 2.01317 54.649C2.08381 54.5785 2.13678 54.5079 2.1721 54.4374C2.27806 54.2258 2.38401 54.0318 2.48997 53.8554C2.52529 53.8202 2.56061 53.7849 2.59593 53.7496C2.70188 53.538 2.8255 53.3617 2.96677 53.2206C3.00209 53.1853 3.01975 53.1501 3.01975 53.1148C3.16102 52.9385 3.3023 52.7797 3.44358 52.6387C3.44358 52.6387 3.44358 52.621 3.44358 52.5858C3.69081 52.3389 3.93804 52.1096 4.18527 51.898C3.8674 54.649 3.65549 57.929 3.92038 61.5264C3.92038 61.5264 9.37712 63.1135 27.9194 61.738C28.1313 59.3045 31.2571 42.2696 31.2571 42.2696C31.2571 42.2696 18.5953 40.1006 6.0395 42.9045C9.4301 41.0529 14.1451 39.0954 18.3304 37.8787V30.7367L19.39 29.6787H21.0323V34.0167L23.0984 26.9277L21.1382 27.0335L23.9991 19.4683C23.9991 19.4683 25.3235 19.1509 27.6545 18.6748C29.2439 15.6593 34.0119 8.19996 43.7069 4.91996C43.7422 4.91996 43.7952 4.90233 43.8658 4.86706C41.005 6.82448 38.621 9.15222 36.7138 11.1625C42.3824 9.62835 51.8125 8.67609 60.5009 8.729C62.779 4.54964 67.494 1.79867 72.7389 0.370287C73.5865 0.264481 74.3812 0.264481 75.0699 0.211578C75.0699 0.211578 76.3414 -0.0529384 79.3081 0.846416H84.1821L92.4997 3.06835L89.5329 3.43867V53.2735H95.2016V54.2258ZM68.8185 11.6916C68.8185 11.6916 78.9903 -0.158745 84.8179 11.6916C84.8179 11.6916 84.394 5.76642 79.8909 4.81416C75.3878 3.9148 70.8316 8.04125 68.8185 11.6916ZM61.1897 41.8993C61.1897 42.0051 61.2426 42.1109 61.3486 42.1109C61.5075 42.058 61.6665 42.058 61.9313 42.0051C62.673 41.8464 63.2028 41.4232 63.4147 40.8413L67.494 35.9742L72.368 35.7096V25.658L63.4147 24.8116L61.1897 36.2916L66.1166 36.0271L63.4677 39.2542C63.2028 38.4606 62.5141 37.8258 61.4545 37.8258C61.4192 37.8258 61.3839 37.8258 61.3486 37.8258C61.2426 37.8787 61.1897 37.9316 61.1897 38.0374V41.8993ZM38.8859 23.8064L35.2304 36.3974C43.2831 36.1858 50.5411 36.2916 50.5411 36.2916C55.521 36.5561 56.3686 34.44 56.3686 34.44L59.1235 22.1664L38.8859 23.8064ZM33.1113 36.4503L36.7668 23.9651L24.7937 24.9174L21.1912 37.138C24.6348 36.7677 28.926 36.5561 33.1113 36.4503ZM40.6342 53.4322C39.4157 52.48 34.5947 54.4374 31.8398 56.1303C30.1975 57.8232 30.1975 60.68 30.1975 60.68C34.7006 59.9922 39.0448 59.3045 39.9454 59.0929C40.7931 58.9342 41.8527 54.3845 40.6342 53.4322ZM70.6197 45.2851C64.4743 43.9625 57.0574 44.4387 57.0574 44.4387C34.9655 47.1367 30.8862 55.8129 30.8862 55.8129C39.0448 48.6709 70.6197 45.2851 70.6197 45.2851ZM90.3806 61.3677L86.99 59.6748L59.5473 61.7909L60.448 63.0606L90.3806 61.3677Z" fill="white"/>
<path fill-rule="evenodd" clip-rule="evenodd" d="M99.1217 53.2735H89.5327V3.43862L99.1217 2.16895V53.2735ZM91.6518 5.34314V51.1573H97.0026V4.6554L91.6518 5.34314Z" fill="white"/>
<path d="M26.5948 50.7342V49.5703H7.20483L6.62207 50.0993V50.7342H26.5948Z" fill="white"/>
<path d="M25.3763 57.6646H5.45654V58.7755H25.3763V57.6646Z" fill="white"/>
<path d="M69.5603 35.7626H65.6929V25.7109H69.5603V35.7626Z" fill="white"/>
<path d="M64.4214 35.1277L65.6929 35.7626V25.7109L64.4214 26.3458V35.1277Z" fill="white"/>
<path d="M165.238 45.3909L166.192 39.9948L148.232 34.7044L166.722 37.1909L167.093 35.1277L103.572 11.6915L168.788 25.6051L169.212 23.1186L168.258 22.8541L99.1218 2.16895L98.5391 50.1522L162.378 50.9457L160.788 58.7754L162.854 58.6696L165.238 45.3909Z" fill="white"/>
<path d="M160.894 71.2075L74.9639 81.0475H107.492L160.841 71.2075H160.894Z" fill="white"/>
</g>
<defs>
<clipPath id="clip0_813_1852">
<rect width="169" height="82" fill="white"/>
</clipPath>
</defs>
</svg>
