<svg width="392" height="392" viewBox="0 0 392 392" fill="none" xmlns="http://www.w3.org/2000/svg">
<g clip-path="url(#clip0_1016_21)">
<path d="M277.013 155.493C279.836 157.612 283.831 157.105 286.036 154.35L338.303 89.0166C340.558 86.1986 340.101 82.0859 337.283 79.8308C334.465 77.5756 330.353 78.0319 328.098 80.85L279.751 141.244L258.72 125.44C256.853 124.04 254.38 123.742 252.234 124.659C250.087 125.575 248.593 127.568 248.314 129.885C248.034 132.203 249.013 134.493 250.88 135.893L277.013 155.493Z" fill="#017EF6"/>
<path d="M13.0667 346.267H19.6V372.4C19.6 383.225 28.3752 392 39.2 392H78.4C89.2248 392 98 383.225 98 372.4V346.267H254.8V372.4C254.8 383.225 263.575 392 274.4 392H313.6C324.425 392 333.2 383.225 333.2 372.4V346.267H339.733C346.95 346.267 352.8 340.417 352.8 333.2V235.2C352.824 225.732 348.695 216.729 341.504 210.57L363.978 194.576C381.494 182.137 391.929 162.009 392 140.526V46.0474C392.004 43.446 390.464 41.0903 388.08 40.0498L296.613 0.536172C294.962 -0.175957 293.09 -0.175957 291.439 0.536172L199.92 40.0498C197.536 41.0903 195.996 43.446 196 46.0474V71.8671H97.1507C83.2993 71.8718 70.9567 80.6116 66.3525 93.6754L27.8712 203.017C11.8959 205.368 0.0446042 219.053 0 235.2V333.2C0 340.417 5.85014 346.267 13.0667 346.267ZM84.9333 372.4C84.9333 376.009 82.0083 378.934 78.4 378.934H39.2C35.5917 378.934 32.6667 376.009 32.6667 372.4V346.267H84.9333V372.4ZM58.8 333.2H45.7333V320.134H58.8V333.2ZM320.133 372.4C320.133 376.009 317.208 378.934 313.6 378.934H274.4C270.792 378.934 267.867 376.009 267.867 372.4V346.267H320.133V372.4ZM307.067 333.2H294V320.134H307.067V333.2ZM209.067 50.3398L294 13.6486L378.933 50.3398V140.5C378.869 157.758 370.477 173.923 356.4 183.907L294 228.353L231.6 183.927C217.525 173.944 209.133 157.782 209.067 140.526V50.3398ZM307.067 241.734C310.675 241.734 313.6 244.659 313.6 248.267V261.334C313.6 264.942 310.675 267.867 307.067 267.867H267.867C264.258 267.867 261.333 264.942 261.333 261.334C261.333 250.509 270.109 241.734 280.933 241.734H307.067ZM196 111.067V124.134H150.267V111.067H196ZM196 98.0004H182.933V84.9338H196V98.0004ZM78.6809 98.0004C81.4485 90.1725 88.8479 84.9377 97.1507 84.9338H169.867V98.0004H150.267C143.05 98.0004 137.2 103.851 137.2 111.067V124.134C137.2 131.35 143.05 137.2 150.267 137.2H196V140.526C196.071 162.009 206.506 182.137 224.021 194.576L235.2 202.534H41.8917L78.6809 98.0004ZM13.0667 235.2C13.0667 224.376 21.8419 215.6 32.6667 215.6H253.559L273.302 229.66C258.651 233.18 248.308 246.265 248.267 261.334C248.267 272.159 257.042 280.934 267.867 280.934H307.067C317.891 280.934 326.667 272.159 326.667 261.334V248.267C326.645 240.197 321.679 232.964 314.155 230.046L330.332 218.527C336.191 222.034 339.765 228.372 339.733 235.2L339.733 333.2H320.133V320.134C320.133 312.917 314.283 307.067 307.067 307.067H294C286.783 307.067 280.933 312.917 280.933 320.134V333.2H71.8667V320.134C71.8667 312.917 66.0165 307.067 58.8 307.067H45.7333C38.5168 307.067 32.6667 312.917 32.6667 320.134V333.2H13.0667V235.2Z" fill="#017EF6"/>
<path d="M45.7338 280.933H84.9338C95.7586 280.933 104.534 272.158 104.534 261.333C104.512 243.301 89.8995 228.688 71.8671 228.667H45.7338C34.909 228.667 26.1338 237.442 26.1338 248.267V261.333C26.1338 272.158 34.909 280.933 45.7338 280.933ZM39.2005 248.267C39.2005 244.658 42.1255 241.733 45.7338 241.733H71.8671C82.6919 241.733 91.4671 250.509 91.4671 261.333C91.4671 264.942 88.5421 267.867 84.9338 267.867H45.7338C42.1255 267.867 39.2005 264.942 39.2005 261.333V248.267Z" fill="#017EF6"/>
<path d="M130.666 320.133H222.133C229.349 320.133 235.2 314.283 235.2 307.067V280.933C235.2 273.717 229.349 267.867 222.133 267.867H130.666C123.45 267.867 117.6 273.717 117.6 280.933V307.067C117.6 314.283 123.45 320.133 130.666 320.133ZM130.666 280.933H222.133V307.067H130.666V280.933Z" fill="#017EF6"/>
</g>
<defs>
<clipPath id="clip0_1016_21">
<rect width="392" height="392" fill="white"/>
</clipPath>
</defs>
</svg>
