<svg width="22" height="22" viewBox="0 0 22 22" fill="none" xmlns="http://www.w3.org/2000/svg">
<path fill-rule="evenodd" clip-rule="evenodd" d="M12.956 17.2886C15.984 17.5735 18.2021 18.5007 18.2021 19.599C18.2021 20.9259 14.9781 22.0001 11.0001 22.0001C7.02333 22.0001 3.7981 20.9259 3.7981 19.5994C3.7981 18.5007 6.01743 17.5739 9.04415 17.289L11.0001 20.1924L12.956 17.2886Z" fill="#5B6573"/>
<path fill-rule="evenodd" clip-rule="evenodd" d="M13.5275 9.14848C12.1379 10.5381 9.86355 10.5381 8.47395 9.14848C7.08434 7.75887 7.08434 5.48453 8.47395 4.09492C9.86355 2.70531 12.1379 2.70531 13.5275 4.09492C14.9171 5.48453 14.9171 7.75887 13.5275 9.14848ZM16.0197 2.06938C14.6395 0.689648 12.8198 0 11.0001 0C9.18035 0 7.36062 0.689219 5.98047 2.06938C4.68797 3.36188 4.13281 4.93797 4.13281 6.5798C4.13281 8.45453 4.85039 10.4204 6.0243 12.1619L9.45535 17.2545L11.0001 19.5482L12.5457 17.2545L15.9754 12.1619C17.1498 10.4199 17.8682 8.4541 17.8682 6.5798C17.8686 4.93797 17.3118 3.36188 16.0197 2.06938Z" fill="#5B6573"/>
</svg>
