<svg width="22" height="22" viewBox="0 0 22 22" fill="none" xmlns="http://www.w3.org/2000/svg">
<g clip-path="url(#clip0_813_164)">
<path d="M11 0C6.4515 0 2.75 3.72717 2.75 8.30958C2.75 14.8207 10.2245 21.5435 10.5426 21.8258C10.6737 21.9422 10.8368 22 11 22C11.1632 22 11.3263 21.9423 11.4574 21.8268C11.7755 21.5435 19.25 14.8207 19.25 8.30958C19.25 3.72717 15.5485 0 11 0ZM11 12.8333C8.47275 12.8333 6.41667 10.7773 6.41667 8.25C6.41667 5.72275 8.47275 3.66667 11 3.66667C13.5273 3.66667 15.5833 5.72275 15.5833 8.25C15.5833 10.7773 13.5273 12.8333 11 12.8333Z" fill="#5B6573"/>
</g>
<defs>
<clipPath id="clip0_813_164">
<rect width="22" height="22" fill="white"/>
</clipPath>
</defs>
</svg>
