<svg width="123" height="60" viewBox="0 0 123 60" fill="none" xmlns="http://www.w3.org/2000/svg">
<g clip-path="url(#clip0_813_438)">
<path d="M116.561 42.0386C116.715 42.5418 116.792 43.1224 116.792 43.7418C116.792 45.5999 116.06 47.1095 115.096 47.1095C114.595 47.1095 114.132 46.6063 113.823 45.8708C113.939 45.3676 113.978 44.8257 113.978 44.245C113.978 43.4708 113.862 42.6966 113.669 42.0773C113.669 42.0515 113.669 42.0386 113.669 42.0386H113.014C113.284 42.6192 113.476 43.3934 113.476 44.245C113.476 46.1031 112.705 47.6128 111.78 47.6128C110.816 47.6128 110.083 46.1031 110.083 44.245C110.083 43.3934 110.238 42.6192 110.507 42.0386H106.497C106.266 42.6579 106.15 43.4321 106.15 44.245C106.15 46.5676 107.114 48.4257 108.348 48.4257H111.78C112.165 48.4257 112.512 48.2321 112.821 47.8837H115.096C116.33 47.8837 117.332 46.0257 117.332 43.7418C117.332 43.1224 117.255 42.5418 117.139 42.0386H116.561Z" fill="#0C2453"/>
<path d="M83.7095 44.3613H82.8226C82.8998 44.8258 82.9383 45.3033 82.9383 45.7936C82.9383 48.8904 81.6659 51.4065 80.1236 51.4065C79.2367 51.4065 78.4656 50.5936 77.9258 49.3936C78.1186 48.542 78.2342 47.6129 78.2342 46.6839C78.2342 45.8323 78.1571 45.0581 78.0029 44.3613H77.1161C77.2703 45.0581 77.3474 45.8323 77.3474 46.6839C77.3474 49.742 76.1136 52.2581 74.5327 52.2581C72.9904 52.2581 71.7179 49.742 71.7179 46.6839C71.7179 45.8323 71.8336 45.0581 71.9879 44.3613H71.0625H70.8311H66.127C65.9728 45.0581 65.1631 45.8323 65.1631 46.6839C65.1631 50.4775 66.8211 53.6129 68.8647 53.6129H74.5327C75.1882 53.6129 75.8051 53.2646 76.3449 52.7226H80.1236C82.1672 52.7226 83.8252 49.6258 83.8252 45.7936C83.7994 45.3033 83.7609 44.8258 83.7095 44.3613Z" fill="#0C2453"/>
<path d="M67.2837 37.897V42.3873L71.5251 39.6776L72.142 38.9808L109.775 39.8325L108.926 40.8002L67.2837 42.3873V45.7937L118.142 42.9679L119.221 38.9421L67.2837 37.897Z" fill="#0C2453"/>
<path d="M6.90186 49.355C7.21032 53.5356 9.13822 56.7485 11.4517 56.7485C13.7652 56.7485 15.6545 53.613 16.0015 49.4711C13.0326 50.1679 9.90938 49.9743 6.90186 49.355Z" fill="#0C2453"/>
<path d="M3.89453 48.6191C4.04876 53.1482 6.05378 56.7482 8.48293 56.7482H11.4519V54.774C12.2231 53.5353 12.8014 51.832 12.9942 49.8966C9.98669 50.0514 6.90205 49.4708 3.89453 48.6191Z" fill="#0C2453"/>
<path fill-rule="evenodd" clip-rule="evenodd" d="M43.0305 50.6323C43.0305 55.4323 40.987 59.3032 38.4421 59.3032H35.4732C32.9283 59.3032 30.8848 55.4323 30.8848 50.6323C30.8848 45.871 32.9283 42 35.4732 42H38.4421C40.987 42 43.0305 45.871 43.0305 50.6323ZM41.9895 50.6323C41.9895 46.9935 40.5628 44.0129 38.7506 44.0129C36.9384 44.0129 35.5117 46.9935 35.5117 50.6323C35.5117 54.3097 36.9384 57.2903 38.7506 57.2903C40.5628 57.2903 41.9895 54.3097 41.9895 50.6323Z" fill="#0C2453"/>
<path d="M101.099 45.9872L88.9919 46.8775C87.6809 46.9936 86.6013 45.9872 86.5242 44.671C86.4471 43.3936 87.4496 42.271 88.7606 42.1549L100.829 41.2646C102.14 41.1872 103.22 42.1549 103.297 43.471C103.374 44.7872 102.372 45.9098 101.099 45.9872Z" fill="#0C2453"/>
<path d="M19.78 33.3291H8.44396L7.55713 34.142H19.78V33.3291Z" fill="#0C2453"/>
<path d="M5.24408 33.3291V34.142H19.7804V33.3291H5.24408ZM4.81994 37.1227H19.3177V36.271H4.81994V37.1227ZM4.3958 40.1033H18.8936V39.2517H4.3958V40.1033ZM3.93311 43.0839H18.4695V42.2323H3.93311V43.0839Z" fill="#0C2453"/>
<path d="M18.9319 39.252H4.39551V40.0649H18.9319V39.252Z" fill="#0C2453"/>
<path fill-rule="evenodd" clip-rule="evenodd" d="M69.2887 39.6771H71.5251V50.6319L43.9947 52.9932H41.7969C41.9126 52.2964 41.9897 51.4835 41.9897 50.6319C41.9897 46.9932 40.563 44.0125 38.7508 44.0125C36.9386 44.0125 35.5119 46.9932 35.5119 50.6319C35.5119 51.4835 35.5891 52.2964 35.7047 52.9932H32.1574V52.3738C21.9781 54.0384 0.0771484 51.8319 0.0771484 51.8319V44.6319L1.15677 43.819L0.385614 42.9674C0.46273 42.6577 0.539845 42.3609 0.616961 42.0771C0.642666 41.9996 0.668373 41.9222 0.694079 41.8448C0.745489 41.6642 0.809753 41.4835 0.886869 41.3029C0.912574 41.2254 0.938278 41.1351 0.963983 41.0319C1.0411 40.8771 1.10536 40.7351 1.15677 40.6061C1.20818 40.5287 1.24674 40.4513 1.27245 40.3738C1.34956 40.2448 1.41383 40.1158 1.46524 39.9867C1.51665 39.9351 1.55521 39.8835 1.58091 39.8319C1.65803 39.6771 1.73514 39.5351 1.81226 39.4061C1.83796 39.3803 1.86367 39.3545 1.88938 39.3287C1.96649 39.1738 2.05646 39.0448 2.15928 38.9416C2.18499 38.9158 2.19784 38.89 2.19784 38.8642C2.30066 38.7351 2.40348 38.619 2.5063 38.5158C2.5063 38.5158 2.5063 38.5029 2.5063 38.4771C2.68624 38.2964 2.86618 38.1287 3.04612 37.9738C2.81477 39.9867 2.66054 42.3867 2.85333 45.019C2.85333 45.019 6.8248 46.1803 20.3201 45.1738C20.4743 43.3932 22.7492 30.9287 22.7492 30.9287C22.7492 30.9287 13.5339 29.3416 4.39565 31.3932C6.86336 30.0383 10.295 28.6061 13.3411 27.7158V22.49L14.1123 21.7158H15.3076V24.89L16.8113 19.7029L15.3847 19.7803L17.4668 14.2448C17.4668 14.2448 18.4308 14.0125 20.1273 13.6642C21.284 11.4577 24.7543 5.99964 31.8104 3.59964C31.8361 3.59964 31.8746 3.58674 31.9261 3.56093C29.8439 4.99319 28.1088 6.69641 26.7207 8.16738C30.8464 7.0448 37.7097 6.34803 44.0333 6.38674C45.6913 3.32867 49.1229 1.31577 52.9402 0.270609C53.5571 0.193189 54.1355 0.193189 54.6367 0.15448C54.6367 0.15448 55.5621 -0.0390689 57.7213 0.618996H61.2687L67.3223 2.2448L65.163 2.51577V38.9803H69.2887V39.6771ZM50.0869 8.55448C50.0869 8.55448 57.49 -0.116488 61.7314 8.55448C61.7314 8.55448 61.4229 4.219 58.1455 3.52222C54.8681 2.86416 51.5521 5.88351 50.0869 8.55448ZM44.5345 30.6577C44.5345 30.7351 44.5731 30.8125 44.6502 30.8125C44.7659 30.7738 44.8815 30.7738 45.0743 30.7351C45.6141 30.619 45.9997 30.3093 46.1539 29.8835L49.1229 26.3222L52.6703 26.1287V18.7738L46.1539 18.1545L44.5345 26.5545L48.1204 26.3609L46.1925 28.7222C45.9997 28.1416 45.4985 27.6771 44.7273 27.6771C44.7016 27.6771 44.6759 27.6771 44.6502 27.6771C44.5731 27.7158 44.5345 27.7545 44.5345 27.8319V30.6577ZM28.3016 17.419L25.6411 26.6319C31.5019 26.4771 36.7844 26.5545 36.7844 26.5545C40.4088 26.748 41.0257 25.1996 41.0257 25.1996L43.0308 16.219L28.3016 17.419ZM24.0988 26.6706L26.7593 17.5351L18.0452 18.2319L15.4232 27.1738C17.9295 26.9029 21.0527 26.748 24.0988 26.6706ZM29.574 39.0964C28.6872 38.3996 25.1784 39.8319 23.1734 41.0706C21.9781 42.3093 21.9781 44.3996 21.9781 44.3996C25.2555 43.8964 28.4173 43.3932 29.0728 43.2383C29.6897 43.1222 30.4608 39.7932 29.574 39.0964ZM51.3978 33.1351C46.9251 32.1674 41.527 32.5158 41.527 32.5158C25.4483 34.49 22.4793 40.8383 22.4793 40.8383C28.4173 35.6125 51.3978 33.1351 51.3978 33.1351ZM65.78 44.9029L63.3123 43.6642L43.3392 45.2125L43.9947 46.1416L65.78 44.9029Z" fill="#0C2453"/>
<path fill-rule="evenodd" clip-rule="evenodd" d="M72.1421 38.9805H65.1631V2.51595L72.1421 1.58691V38.9805ZM66.7054 3.90949V37.4321H70.5998V3.40627L66.7054 3.90949Z" fill="#0C2453"/>
<path d="M19.3562 37.1226V36.271H5.24396L4.81982 36.6581V37.1226H19.3562Z" fill="#0C2453"/>
<path d="M18.4695 42.1934H3.97168V43.0063H18.4695V42.1934Z" fill="#0C2453"/>
<path d="M50.6267 26.1678H47.812V18.813H50.6267V26.1678Z" fill="#0C2453"/>
<path d="M46.8867 25.7033L47.8121 26.1678V18.813L46.8867 19.2775V25.7033Z" fill="#0C2453"/>
<path d="M120.262 33.2127L120.956 29.2643L107.885 25.3934L121.342 27.2127L121.612 25.703L75.3808 8.55466L122.846 18.7353L123.154 16.9159L122.46 16.7224L72.1419 1.58691L71.7178 36.6966L118.18 37.2772L117.023 43.0063L118.527 42.9288L120.262 33.2127Z" fill="#0C2453"/>
<path d="M117.101 52.103L54.5596 59.303H78.2342L117.062 52.103H117.101Z" fill="#0C2453"/>
</g>
<defs>
<clipPath id="clip0_813_438">
<rect width="123" height="60" fill="white"/>
</clipPath>
</defs>
</svg>
