<svg width="512" height="512" viewBox="0 0 512 512" fill="none" xmlns="http://www.w3.org/2000/svg">
<path fill-rule="evenodd" clip-rule="evenodd" d="M413.18 48.5239C378.959 48.5239 351.115 76.3678 351.115 110.597C351.115 144.817 378.958 172.661 413.18 172.661C447.409 172.661 475.252 144.817 475.252 110.597C475.253 76.3675 447.409 48.5239 413.18 48.5239ZM413.18 183.184C373.156 183.184 340.592 150.618 340.592 110.597C340.592 70.5668 373.156 38.0002 413.18 38.0002C453.21 38.0002 485.776 70.5668 485.776 110.597C485.776 150.618 453.21 183.185 413.18 183.184Z" fill="white"/>
<path fill-rule="evenodd" clip-rule="evenodd" d="M438.951 285.342C437.828 285.342 436.722 284.986 435.79 284.292L413.546 267.565L390.516 284.338C388.916 285.497 386.795 285.662 385.032 284.767C383.268 283.871 382.156 282.063 382.156 280.08L382.157 172.816C382.157 169.902 384.512 167.554 387.418 167.554C390.324 167.554 392.682 169.902 392.682 172.816L392.682 269.739L410.495 256.768C412.368 255.406 414.908 255.425 416.753 256.813L433.69 269.548V172.816C433.69 169.902 436.046 167.554 438.951 167.554C441.857 167.554 444.213 169.902 444.213 172.816L444.213 280.08C444.213 282.072 443.089 283.899 441.299 284.785C440.559 285.16 439.755 285.342 438.951 285.342Z" fill="white"/>
<path fill-rule="evenodd" clip-rule="evenodd" d="M413.18 131.206C413.865 131.206 414.55 131.333 415.189 131.598L430.253 137.82L428.993 121.578C428.883 120.189 429.33 118.819 430.235 117.759L440.804 105.353L424.964 101.535C423.612 101.206 422.443 100.356 421.712 99.1688L413.18 85.2834L404.657 99.1688C403.926 100.356 402.756 101.206 401.404 101.535L385.562 105.353L396.134 117.759C397.038 118.819 397.476 120.189 397.376 121.578L396.115 137.82L411.179 131.598C411.819 131.333 412.504 131.206 413.18 131.206ZM436.164 151.22C435.488 151.22 434.802 151.084 434.154 150.819L413.18 142.159L392.215 150.819C390.523 151.513 388.591 151.285 387.112 150.216C385.632 149.138 384.817 147.375 384.958 145.548L386.712 122.929L371.997 105.655C370.811 104.266 370.433 102.357 370.997 100.622C371.563 98.8764 372.991 97.561 374.768 97.1316L396.828 91.8061L408.704 72.4761C409.654 70.9232 411.353 69.9733 413.18 69.9733C415.016 69.973 416.706 70.9232 417.665 72.4764L429.541 91.8061L451.602 97.1316C453.374 97.561 454.808 98.8764 455.365 100.622C455.932 102.357 455.557 104.266 454.37 105.655L439.653 122.929L441.407 145.548C441.554 147.375 440.731 149.138 439.251 150.216C438.347 150.873 437.26 151.221 436.164 151.22Z" fill="white"/>
<path fill-rule="evenodd" clip-rule="evenodd" d="M275.704 474.001C266.793 474.001 257.869 472.302 249.452 468.876L150.628 428.718C138.94 423.968 126.261 422.936 113.958 425.731L93.3643 430.408C90.5299 431.057 87.7115 429.275 87.0675 426.444C86.4235 423.612 88.1993 420.789 91.0328 420.14L111.626 415.463C126.042 412.193 140.9 413.399 154.591 418.971L253.415 459.129C268.913 465.432 286.436 464.866 301.49 457.585L428.071 396.38C431.478 394.727 434.026 391.849 435.251 388.259C436.475 384.669 436.219 380.832 434.52 377.443C432.117 372.647 427.294 369.669 421.941 369.669C420.689 369.669 419.42 369.843 418.159 370.199L311.912 399.787C309.112 400.573 306.211 398.938 305.431 396.134C304.651 393.338 306.288 390.433 309.088 389.656L415.346 360.059C417.529 359.447 419.739 359.146 421.941 359.146C431.305 359.146 439.727 364.352 443.929 372.729C446.898 378.667 447.355 385.382 445.217 391.657C443.08 397.924 438.613 402.967 432.647 405.853L306.072 467.058C296.518 471.681 286.118 474.001 275.704 474.001Z" fill="white"/>
<path fill-rule="evenodd" clip-rule="evenodd" d="M293.561 419.035C291.362 419.035 289.126 418.716 286.913 418.03L208.264 393.895C205.486 393.037 203.924 390.095 204.777 387.318C205.63 384.541 208.572 382.979 211.351 383.829L290.011 407.973C296.105 409.855 302.537 406.621 304.663 400.61C305.124 399.331 305.353 397.997 305.353 396.627C305.353 396.207 305.328 395.777 305.276 395.357C304.863 391.658 302.769 388.387 299.649 386.506L203.126 347.224C181.788 338.537 158.399 335.13 135.487 337.349L92.6309 341.506C89.7475 341.78 87.1668 339.669 86.8863 336.774C86.6058 333.887 88.7223 331.311 91.6154 331.028L134.471 326.871C159.07 324.487 184.182 328.15 207.092 337.477L303.964 376.895C304.176 376.986 304.382 377.087 304.58 377.197C310.768 380.714 314.936 387.044 315.729 394.142C315.826 394.928 315.877 395.787 315.877 396.627C315.877 399.212 315.439 401.734 314.577 404.145C311.339 413.289 302.787 419.035 293.561 419.035Z" fill="white"/>
<path fill-rule="evenodd" clip-rule="evenodd" d="M84.3363 445.746H66.6117C63.7056 445.746 61.3496 443.389 61.3496 440.484C61.3499 437.579 63.7053 435.222 66.6114 435.222H84.3363C85.771 435.222 86.9371 434.053 86.9371 432.619L86.9374 331.685C86.9374 330.25 85.7704 329.081 84.3363 329.081H66.6117C63.7056 329.081 61.3496 326.725 61.3496 323.82C61.3499 320.915 63.7053 318.558 66.6114 318.558H84.3363C91.5735 318.558 97.4607 324.45 97.4607 331.685L97.461 432.619C97.461 439.863 91.5732 445.746 84.3363 445.746Z" fill="white"/>
<path fill-rule="evenodd" clip-rule="evenodd" d="M36.746 444.896H59.0261C60.307 444.896 61.3499 443.854 61.3499 442.575L61.3502 321.736C61.3502 320.448 60.3067 319.406 59.0261 319.406H36.746V444.896ZM59.0261 455.419H31.4845C28.5787 455.419 26.2227 453.062 26.2227 450.157V314.145C26.2227 311.24 28.5787 308.883 31.4845 308.883H59.0261C66.1092 308.883 71.8735 314.647 71.8735 321.736L71.8738 442.575C71.8738 449.654 66.1092 455.419 59.0261 455.419Z" fill="white"/>
<path fill-rule="evenodd" clip-rule="evenodd" d="M217.283 246.536C216.087 246.536 214.886 246.381 213.701 246.061C209.802 245.02 206.618 242.38 204.735 238.625C202.958 235.09 202.565 230.952 203.63 226.969C204.382 224.164 207.265 222.502 210.075 223.251C212.881 224 214.547 226.887 213.795 229.691C213.404 231.153 213.529 232.688 214.14 233.912C214.439 234.505 215.134 235.556 216.424 235.903C217.718 236.25 218.843 235.684 219.4 235.319C220.537 234.569 221.414 233.3 221.806 231.838C222.55 229.061 221.346 226.22 219.176 225.635C211.361 223.543 206.843 214.975 209.103 206.543C211.365 198.111 219.561 192.95 227.373 195.042C231.272 196.092 234.456 198.732 236.339 202.478C238.117 206.022 238.508 210.16 237.444 214.143C236.691 216.948 233.809 218.61 230.999 217.861C228.192 217.103 226.527 214.225 227.279 211.412C227.67 209.95 227.544 208.416 226.933 207.201C226.635 206.606 225.94 205.556 224.648 205.209C222.475 204.633 220.013 206.488 219.268 209.265C218.523 212.051 219.727 214.892 221.899 215.477C229.711 217.569 234.23 226.129 231.97 234.569C230.905 238.543 228.494 241.932 225.184 244.106C222.744 245.714 220.025 246.537 217.283 246.536Z" fill="white"/>
<path fill-rule="evenodd" clip-rule="evenodd" d="M226.024 205.383C225.574 205.383 225.115 205.328 224.659 205.2C221.852 204.451 220.186 201.564 220.939 198.76L223.02 190.995C223.772 188.19 226.657 186.519 229.463 187.277C232.271 188.026 233.937 190.913 233.184 193.717L231.104 201.482C230.473 203.839 228.347 205.383 226.024 205.383Z" fill="white"/>
<path fill-rule="evenodd" clip-rule="evenodd" d="M212.991 254.027C212.54 254.027 212.083 253.963 211.627 253.844C208.82 253.086 207.153 250.209 207.905 247.395L209.988 239.621C210.74 236.817 213.624 235.154 216.432 235.903C219.239 236.652 220.905 239.539 220.153 242.343L218.071 250.117C217.441 252.474 215.315 254.027 212.991 254.027Z" fill="white"/>
<path fill-rule="evenodd" clip-rule="evenodd" d="M220.546 181.951C203.506 181.951 187.872 193.343 183.256 210.562C180.588 220.529 181.958 230.925 187.112 239.85C192.267 248.784 200.589 255.169 210.548 257.837C220.505 260.504 230.906 259.133 239.835 253.981C248.763 248.829 255.149 240.498 257.816 230.541C260.485 220.583 259.116 210.188 253.961 201.254C248.808 192.328 240.484 185.943 230.526 183.276C227.194 182.381 223.843 181.951 220.546 181.951ZM220.618 269.694C216.35 269.694 212.057 269.137 207.824 268.004C195.151 264.606 184.558 256.475 177.998 245.111C171.439 233.757 169.696 220.52 173.091 207.84C180.102 181.677 207.086 166.093 233.249 173.108C245.923 176.506 256.516 184.637 263.075 195.992C269.635 207.356 271.378 220.593 267.982 233.272L267.982 233.263C264.587 245.943 256.459 256.53 245.097 263.089C237.53 267.465 229.128 269.694 220.618 269.694Z" fill="white"/>
<path fill-rule="evenodd" clip-rule="evenodd" d="M129.473 190.054C128.417 190.054 127.373 190.328 126.433 190.876C125.021 191.689 124.012 193.005 123.591 194.576C123.169 196.156 123.385 197.8 124.2 199.207C125.015 200.623 126.33 201.628 127.905 202.048C129.479 202.468 131.123 202.259 132.534 201.445C133.946 200.623 134.956 199.308 135.377 197.737C136.247 194.485 134.312 191.132 131.063 190.264C130.537 190.127 130.003 190.054 129.473 190.054ZM129.511 212.791C128.067 212.791 126.613 212.599 125.181 212.216C120.891 211.065 117.306 208.315 115.086 204.469C112.866 200.623 112.276 196.147 113.425 191.854C114.574 187.569 117.325 183.979 121.171 181.759C125.018 179.539 129.498 178.946 133.786 180.097C142.641 182.472 147.915 191.607 145.542 200.459C144.393 204.752 141.642 208.334 137.796 210.553C135.235 212.033 132.391 212.791 129.511 212.791Z" fill="white"/>
<path fill-rule="evenodd" clip-rule="evenodd" d="M353.032 347.469C352.073 347.469 351.108 347.341 350.158 347.086L45.0222 265.326C42.1787 264.559 39.8006 262.741 38.3286 260.193C36.8572 257.644 36.466 254.666 37.2278 251.825L77.419 101.826C78.9938 95.9618 85.0457 92.4628 90.9188 94.0342L388.779 173.847C391.586 174.596 393.256 177.483 392.497 180.288C391.748 183.092 388.864 184.764 386.055 184.006L88.1954 104.201C87.9273 104.128 87.6557 104.284 87.5842 104.548L47.3936 254.547C47.3573 254.684 47.3744 254.812 47.442 254.931C47.5111 255.049 47.6121 255.122 47.7453 255.159L352.881 336.918C353.013 336.955 353.141 336.936 353.259 336.873C353.378 336.799 353.456 336.699 353.491 336.571L382.335 228.923C383.087 226.118 385.969 224.456 388.778 225.205C391.586 225.954 393.256 228.841 392.497 231.645L363.656 339.293C362.894 342.134 361.07 344.51 358.52 345.989C356.823 346.967 354.941 347.469 353.032 347.469Z" fill="white"/>
<path fill-rule="evenodd" clip-rule="evenodd" d="M102.536 250.327L307.855 305.339C311.054 297.912 316.66 291.764 324.022 287.736C331.366 283.716 339.738 282.191 348.05 283.305L362.342 229.965C354.587 226.777 348.098 221.269 343.748 214.116C339.389 206.945 337.606 198.814 338.551 190.776L133.239 135.764C130.051 143.255 124.497 149.448 117.223 153.523C109.811 157.679 101.378 159.177 93.0055 157.907L78.7705 211.037C86.5708 214.097 93.0928 219.615 97.4615 226.95C101.753 234.149 103.493 242.289 102.536 250.327ZM311.208 316.95C310.752 316.95 310.295 316.886 309.846 316.767L95.0939 259.225C93.7457 258.86 92.5959 257.983 91.8982 256.777C91.2016 255.562 91.012 254.128 91.3729 252.785C93.2201 245.888 92.1713 238.625 88.4213 232.332C84.5868 225.9 78.4578 221.397 71.1633 219.651C69.7811 219.323 68.5917 218.446 67.8648 217.231C67.1375 216.007 66.9349 214.545 67.302 213.175L84.143 150.326C84.5098 148.955 85.4142 147.786 86.652 147.092C87.8898 146.397 89.355 146.233 90.7141 146.635C98.0116 148.791 105.599 147.978 112.076 144.342C118.415 140.789 122.931 135.006 124.793 128.054C125.546 125.25 128.428 123.587 131.238 124.336L345.99 181.878C347.339 182.244 348.488 183.121 349.186 184.326C349.884 185.541 350.073 186.975 349.712 188.328C347.871 195.188 348.948 202.405 352.742 208.653C356.582 214.965 362.731 219.524 370.059 221.488C371.408 221.844 372.557 222.73 373.256 223.936C373.954 225.151 374.144 226.585 373.782 227.928L356.942 290.778C356.189 293.591 353.307 295.254 350.497 294.505C343.169 292.541 335.562 293.409 329.078 296.962C322.671 300.47 318.13 306.179 316.291 313.049C315.931 314.392 315.048 315.543 313.839 316.246C313.033 316.712 312.124 316.95 311.208 316.95Z" fill="white"/>
<path fill-rule="evenodd" clip-rule="evenodd" d="M311.588 238.854C310.531 238.854 309.486 239.128 308.546 239.667C307.135 240.489 306.126 241.804 305.704 243.375C304.833 246.628 306.769 249.98 310.018 250.848C311.592 251.268 313.236 251.058 314.648 250.236C316.059 249.423 317.069 248.108 317.49 246.537C317.912 244.956 317.696 243.312 316.881 241.905C316.067 240.489 314.751 239.484 313.177 239.064C312.651 238.918 312.117 238.854 311.588 238.854ZM311.624 261.591C310.18 261.591 308.726 261.399 307.294 261.015C298.44 258.64 293.167 249.505 295.539 240.653C296.688 236.36 299.439 232.779 303.284 230.559C307.13 228.339 311.61 227.746 315.9 228.897C320.19 230.048 323.775 232.797 325.995 236.643C328.215 240.489 328.805 244.965 327.656 249.259C326.507 253.543 323.756 257.133 319.911 259.353C317.348 260.833 314.505 261.591 311.624 261.591Z" fill="white"/>
</svg>
