<svg width="104" height="85" viewBox="0 0 104 85" fill="none" xmlns="http://www.w3.org/2000/svg">
<g opacity="0.3" clip-path="url(#clip0_813_621)">
<path fill-rule="evenodd" clip-rule="evenodd" d="M62.8567 58.6678H35.7273L3.38574 23.1267H30.5152L62.8567 58.6678ZM37.2864 55.1537H54.9273L28.956 26.6408H11.3598L37.2864 55.1537Z" fill="white"/>
<path d="M57.8229 0.351807L30.5152 21.7476H3.38574L9.35512 17.077C23.1649 6.22342 40.2711 0.351807 57.8229 0.351807Z" fill="white"/>
<path fill-rule="evenodd" clip-rule="evenodd" d="M103.573 58.5787H76.4436L44.1021 22.9932H71.2315L103.573 58.5787ZM78.0028 55.0647H95.6436L69.6724 26.5517H52.0761L78.0028 55.0647Z" fill="white"/>
<path d="M103.573 59.9133L97.6035 64.6284C90.6986 70.0552 82.9919 74.2365 74.7951 77.0389C66.5984 79.8857 57.9562 81.3536 49.1357 81.3536L76.4434 59.9133H103.573Z" fill="white"/>
</g>
<defs>
<clipPath id="clip0_813_621">
<rect width="104" height="85" fill="white"/>
</clipPath>
</defs>
</svg>
