<svg width="79" height="89" viewBox="0 0 79 89" fill="none" xmlns="http://www.w3.org/2000/svg">
<g opacity="0.3" clip-path="url(#clip0_813_1506)">
<path fill-rule="evenodd" clip-rule="evenodd" d="M12.365 33.406C8.75665 33.406 5.10375 32.0271 2.3418 29.2692L10.6722 20.9066C18.1116 13.4781 27.5557 8.18476 38.7817 5.1155L49.5177 2.17969L22.4327 29.2692C19.6708 32.0271 16.0179 33.406 12.365 33.406ZM8.22207 28.7354C9.51395 29.3137 10.9395 29.5806 12.365 29.5806C15.1715 29.5806 17.7553 28.513 19.7153 26.5558L36.5543 9.74162C27.3775 12.7219 19.6262 17.3925 13.3896 23.62L8.22207 28.7354Z" fill="white"/>
<path fill-rule="evenodd" clip-rule="evenodd" d="M2.9211 42.3914L-0.019043 31.6267L27.1104 58.6718C29.8724 61.4741 31.2534 65.0772 31.2534 68.7247C31.2534 72.3722 29.8724 75.9752 27.1104 78.7776L18.7355 70.415C11.3406 62.9865 5.99488 53.5563 2.9211 42.3914ZM7.59859 44.6154C10.5833 53.7343 15.2162 61.5186 21.4529 67.7016L26.5759 72.8615C28.2241 69.0805 27.5114 64.4989 24.393 61.3852L7.59859 44.6154Z" fill="white"/>
<path fill-rule="evenodd" clip-rule="evenodd" d="M72.0145 50.9765C73.7518 51.6882 75.3556 52.7113 76.7365 54.0902L68.3616 62.4528C60.9667 69.8368 51.4781 75.1747 40.2966 78.2439L29.5161 81.1797L56.601 54.0902C59.4075 51.3323 63.0159 49.9534 66.6688 49.9534C68.4952 49.9534 70.3217 50.2647 72.0145 50.9765ZM70.8117 54.624C69.5198 54.0457 68.1388 53.7343 66.6688 53.7343C63.9068 53.7343 61.2785 54.8464 59.3184 56.8036L42.524 73.5733C51.6562 70.593 59.4521 65.9669 65.6442 59.7394L70.8117 54.624Z" fill="white"/>
<path fill-rule="evenodd" clip-rule="evenodd" d="M51.9678 4.58154L60.2982 12.9442C67.7377 20.3282 73.0388 29.7583 76.1126 40.9678L79.0528 51.7324L51.9678 24.6429C46.3994 19.1272 46.3994 10.1418 51.9678 4.58154ZM54.6407 21.974L71.4797 38.7437C68.495 29.6249 63.8175 21.8406 57.6254 15.6131L52.4579 10.4976C50.8096 14.2786 51.5669 18.8603 54.6407 21.974Z" fill="white"/>
</g>
<defs>
<clipPath id="clip0_813_1506">
<rect width="79" height="89" fill="white"/>
</clipPath>
</defs>
</svg>
