<svg width="77" height="89" viewBox="0 0 77 89" fill="none" xmlns="http://www.w3.org/2000/svg">
<g opacity="0.3" clip-path="url(#clip0_813_1211)">
<path fill-rule="evenodd" clip-rule="evenodd" d="M33.4248 37.4093C29.4601 37.9431 25.6736 38.6104 22.1543 39.4555L42.6016 4.04785L61.2225 36.2528C58.8169 36.1342 56.3817 36.0749 53.9167 36.0749C52.9664 36.0749 52.016 36.0897 51.0657 36.1194L42.6016 21.5293L33.4248 37.4093ZM31.7766 34.9183L40.2852 20.1503L42.6462 16.1025L44.9626 20.1503L52.6248 33.3615C53.0703 33.3615 53.5158 33.3615 53.9613 33.3615C54.7928 33.3615 55.6392 33.3763 56.5005 33.406L42.6462 9.38569L27.4555 35.5856C28.881 35.3483 30.3214 35.1259 31.7766 34.9183Z" fill="white"/>
<path fill-rule="evenodd" clip-rule="evenodd" d="M-0.297852 62.9864C-0.297852 55.9137 7.09704 49.5083 18.9467 44.9712C22.1541 43.7257 25.6734 42.6581 29.5045 41.724C30.039 41.5757 30.5885 41.4423 31.1527 41.3236C37.5676 39.8557 44.7397 38.8327 52.3128 38.3434C53.1147 38.284 53.9165 38.2396 54.7184 38.2099C57.124 38.0913 59.5741 38.032 62.0687 38.032C62.1281 38.032 62.1875 38.032 62.2469 38.032C73.1611 38.032 83.407 39.1885 92.3165 41.1902C93.3263 41.3978 94.3063 41.6202 95.2567 41.8574C94.9003 41.8278 94.5439 41.7833 94.1875 41.724C88.7082 41.1457 82.9615 40.7899 77.0367 40.7899C72.6265 40.7899 68.3054 40.9678 64.1625 41.3236L75.0766 60.2285H15.1156C13.7792 62.3191 13.0664 64.4988 13.0664 66.7673C13.0664 73.6176 19.4813 79.8006 30.039 84.4267C11.8636 80.0675 -0.297852 72.1052 -0.297852 62.9864ZM25.317 51.4655H59.9305L54.7184 42.4357C42.8242 44.215 32.6228 47.4177 25.317 51.4655Z" fill="white"/>
</g>
<defs>
<clipPath id="clip0_813_1211">
<rect width="77" height="89" fill="white"/>
</clipPath>
</defs>
</svg>
