<svg width="103" height="85" viewBox="0 0 103 85" fill="none" xmlns="http://www.w3.org/2000/svg">
<g opacity="0.3" clip-path="url(#clip0_813_916)">
<path d="M29.622 75.2151V75.1706L26.9492 70.5445L5.78907 33.8914H0.443359L24.2763 75.1706V75.2151H29.622Z" fill="white"/>
<path d="M51.0048 75.2151V75.1706L48.332 70.5445L45.6591 65.9629L42.9863 61.3367L40.3134 56.7106L37.6406 52.0845L27.1719 33.8914H21.8262L34.9677 56.7106L37.6406 61.3367L40.3134 65.9629L42.9863 70.5445L45.6591 75.1706V75.2151H51.0048Z" fill="white"/>
<path d="M59.0234 70.5445L56.3505 65.9629L53.6777 61.3367L51.0048 56.7106L48.332 52.0845L45.6591 47.4584L42.9863 42.8322L37.8187 33.8914H32.5176L40.3134 47.4584L45.6591 56.7106L48.332 61.3367L51.0048 65.9629L53.6777 70.5445L56.3505 75.1706V75.2151H61.6962V75.1706L59.0234 70.5445Z" fill="white"/>
<path d="M70.5611 4.3999H65.2154L45.7036 38.1617L48.3765 42.7879L70.5611 4.3999Z" fill="white"/>
<path d="M34.9677 75.2151H40.3134V75.1706L37.6406 70.5445L34.9677 65.9629L32.2949 61.3367L16.4805 33.8914H11.1348L29.622 65.9184L32.2949 70.5445L34.9677 75.1706V75.2151Z" fill="white"/>
<path d="M53.7222 52.0401L81.2526 4.3999H75.9069L51.0493 47.414L51.0939 47.4585L53.7222 52.0401Z" fill="white"/>
<path d="M59.0679 61.2924L91.944 4.3999H86.5983L56.395 56.6662L56.4396 56.7107L59.0679 61.2924Z" fill="white"/>
<path d="M102.635 4.3999H97.2897L61.7407 65.874L61.7853 65.963L64.4136 70.5001L102.635 4.3999Z" fill="white"/>
</g>
<defs>
<clipPath id="clip0_813_916">
<rect width="103" height="85" fill="white"/>
</clipPath>
</defs>
</svg>
