<svg width="392" height="392" viewBox="0 0 392 392" fill="none" xmlns="http://www.w3.org/2000/svg">
<g clip-path="url(#clip0_1016_45)">
<path d="M41.7551 272.924L65.2751 296.444V359.334C65.2855 367.994 68.7305 376.297 74.8544 382.421C80.9784 388.545 89.2812 391.99 97.9418 392H359.334C367.995 391.99 376.297 388.545 382.421 382.421C388.545 376.297 391.99 367.994 392.001 359.334V196C391.975 187.754 388.828 179.824 383.191 173.806C377.554 167.787 369.847 164.127 361.621 163.562C364.915 157.401 366.151 150.347 365.148 143.432C364.145 136.518 360.956 130.105 356.048 125.133L272.852 41.8855L272.813 41.8136H272.754L240.538 9.55857C234.414 3.4465 226.115 0.0137939 217.463 0.0137939C208.81 0.0137939 200.511 3.4465 194.387 9.55857L9.54578 194.471C3.45224 200.628 0.0341797 208.94 0.0341797 217.603C0.0341797 226.265 3.45224 234.577 9.54578 240.734L41.7551 272.924ZM240.493 27.9891L258.949 46.4588L142.14 163.334H105.187L240.493 27.9891ZM65.3339 240.139L46.3872 259.086L27.9241 240.623L65.3339 203.187V240.139ZM55.6254 268.324L65.3339 258.616V278.033L55.6254 268.324ZM378.934 196V359.334C378.934 364.532 376.869 369.517 373.193 373.193C369.518 376.869 364.532 378.934 359.334 378.934H98.0006C92.8023 378.934 87.817 376.869 84.1413 373.193C80.4656 369.517 78.4006 364.532 78.4006 359.334V196C78.4006 190.802 80.4656 185.817 84.1413 182.141C87.817 178.465 92.8023 176.4 98.0006 176.4H359.334C364.532 176.4 369.518 178.465 373.193 182.141C376.869 185.817 378.934 190.802 378.934 196ZM346.81 162.112L345.614 163.334H160.61L268.187 55.7035L346.79 134.352C350.455 138.04 352.514 143.028 352.518 148.228C352.522 153.428 350.47 158.418 346.81 162.112ZM18.797 203.69L203.625 18.7967C207.347 15.2394 212.296 13.251 217.445 13.2437C222.594 13.2364 227.548 15.2108 231.281 18.7575L82.8171 167.254C77.0416 170.314 72.3169 175.036 69.2539 180.81L18.699 231.372C15.0885 227.663 13.0763 222.687 13.0947 217.511C13.113 212.335 15.1603 207.373 18.797 203.69Z" fill="#017EF6"/>
<path d="M104.533 248.267H143.733C147.199 248.267 150.523 246.89 152.973 244.44C155.423 241.989 156.8 238.665 156.8 235.2V209.067C156.8 205.601 155.423 202.278 152.973 199.827C150.523 197.377 147.199 196 143.733 196H104.533C101.068 196 97.7444 197.377 95.2939 199.827C92.8435 202.278 91.4668 205.601 91.4668 209.067V235.2C91.4668 238.665 92.8435 241.989 95.2939 244.44C97.7444 246.89 101.068 248.267 104.533 248.267ZM104.533 209.067H143.733V235.2H104.533V209.067Z" fill="#017EF6"/>
<path d="M98.0001 287.467C99.7329 287.467 101.395 286.778 102.62 285.553C103.845 284.328 104.533 282.666 104.533 280.933V267.867C104.533 266.134 103.845 264.472 102.62 263.247C101.395 262.022 99.7329 261.333 98.0001 261.333C96.2674 261.333 94.6056 262.022 93.3804 263.247C92.1551 264.472 91.4668 266.134 91.4668 267.867V280.933C91.4668 282.666 92.1551 284.328 93.3804 285.553C94.6056 286.778 96.2674 287.467 98.0001 287.467Z" fill="#017EF6"/>
<path d="M124.133 261.333C122.4 261.333 120.738 262.022 119.513 263.247C118.288 264.472 117.6 266.134 117.6 267.867V280.933C117.6 282.666 118.288 284.328 119.513 285.553C120.738 286.778 122.4 287.467 124.133 287.467C125.866 287.467 127.527 286.778 128.753 285.553C129.978 284.328 130.666 282.666 130.666 280.933V267.867C130.666 266.134 129.978 264.472 128.753 263.247C127.527 262.022 125.866 261.333 124.133 261.333Z" fill="#017EF6"/>
<path d="M143.733 267.867V280.933C143.733 282.666 144.422 284.328 145.647 285.553C146.872 286.778 148.534 287.467 150.267 287.467C151.999 287.467 153.661 286.778 154.887 285.553C156.112 284.328 156.8 282.666 156.8 280.933V267.867C156.8 266.134 156.112 264.472 154.887 263.247C153.661 262.022 151.999 261.333 150.267 261.333C148.534 261.333 146.872 262.022 145.647 263.247C144.422 264.472 143.733 266.134 143.733 267.867Z" fill="#017EF6"/>
<path d="M176.4 261.333C174.667 261.333 173.005 262.022 171.78 263.247C170.555 264.472 169.866 266.134 169.866 267.867V280.933C169.866 282.666 170.555 284.328 171.78 285.553C173.005 286.778 174.667 287.467 176.4 287.467C178.132 287.467 179.794 286.778 181.019 285.553C182.245 284.328 182.933 282.666 182.933 280.933V267.867C182.933 266.134 182.245 264.472 181.019 263.247C179.794 262.022 178.132 261.333 176.4 261.333Z" fill="#017EF6"/>
<path d="M202.533 287.467C204.266 287.467 205.928 286.778 207.153 285.553C208.378 284.328 209.067 282.666 209.067 280.933V267.867C209.067 266.134 208.378 264.472 207.153 263.247C205.928 262.022 204.266 261.333 202.533 261.333C200.801 261.333 199.139 262.022 197.914 263.247C196.688 264.472 196 266.134 196 267.867V280.933C196 282.666 196.688 284.328 197.914 285.553C199.139 286.778 200.801 287.467 202.533 287.467Z" fill="#017EF6"/>
<path d="M254.8 261.333C253.067 261.333 251.405 262.022 250.18 263.247C248.955 264.472 248.267 266.134 248.267 267.867V280.933C248.267 282.666 248.955 284.328 250.18 285.553C251.405 286.778 253.067 287.467 254.8 287.467C256.533 287.467 258.194 286.778 259.42 285.553C260.645 284.328 261.333 282.666 261.333 280.933V267.867C261.333 266.134 260.645 264.472 259.42 263.247C258.194 262.022 256.533 261.333 254.8 261.333Z" fill="#017EF6"/>
<path d="M280.934 261.333C279.201 261.333 277.539 262.022 276.314 263.247C275.089 264.472 274.4 266.134 274.4 267.867V280.933C274.4 282.666 275.089 284.328 276.314 285.553C277.539 286.778 279.201 287.467 280.934 287.467C282.666 287.467 284.328 286.778 285.553 285.553C286.779 284.328 287.467 282.666 287.467 280.933V267.867C287.467 266.134 286.779 264.472 285.553 263.247C284.328 262.022 282.666 261.333 280.934 261.333Z" fill="#017EF6"/>
<path d="M307.067 261.333C305.334 261.333 303.672 262.022 302.447 263.247C301.222 264.472 300.533 266.134 300.533 267.867V280.933C300.533 282.666 301.222 284.328 302.447 285.553C303.672 286.778 305.334 287.467 307.067 287.467C308.799 287.467 310.461 286.778 311.686 285.553C312.912 284.328 313.6 282.666 313.6 280.933V267.867C313.6 266.134 312.912 264.472 311.686 263.247C310.461 262.022 308.799 261.333 307.067 261.333Z" fill="#017EF6"/>
<path d="M333.2 261.333C331.468 261.333 329.806 262.022 328.581 263.247C327.355 264.472 326.667 266.134 326.667 267.867V280.933C326.667 282.666 327.355 284.328 328.581 285.553C329.806 286.778 331.468 287.467 333.2 287.467C334.933 287.467 336.595 286.778 337.82 285.553C339.045 284.328 339.734 282.666 339.734 280.933V267.867C339.734 266.134 339.045 264.472 337.82 263.247C336.595 262.022 334.933 261.333 333.2 261.333Z" fill="#017EF6"/>
<path d="M124.133 300.533H98.0001C96.2674 300.533 94.6056 301.222 93.3804 302.447C92.1551 303.672 91.4668 305.334 91.4668 307.067C91.4668 308.799 92.1551 310.461 93.3804 311.686C94.6056 312.912 96.2674 313.6 98.0001 313.6H124.133C125.866 313.6 127.528 312.912 128.753 311.686C129.978 310.461 130.667 308.799 130.667 307.067C130.667 305.334 129.978 303.672 128.753 302.447C127.528 301.222 125.866 300.533 124.133 300.533Z" fill="#017EF6"/>
<path d="M176.4 300.533H150.267C148.534 300.533 146.872 301.222 145.647 302.447C144.422 303.672 143.733 305.334 143.733 307.067C143.733 308.799 144.422 310.461 145.647 311.686C146.872 312.912 148.534 313.6 150.267 313.6H176.4C178.133 313.6 179.795 312.912 181.02 311.686C182.245 310.461 182.933 308.799 182.933 307.067C182.933 305.334 182.245 303.672 181.02 302.447C179.795 301.222 178.133 300.533 176.4 300.533Z" fill="#017EF6"/>
<path d="M124.133 326.667H98.0001C96.2674 326.667 94.6056 327.355 93.3804 328.58C92.1551 329.805 91.4668 331.467 91.4668 333.2C91.4668 334.933 92.1551 336.594 93.3804 337.82C94.6056 339.045 96.2674 339.733 98.0001 339.733H124.133C125.866 339.733 127.528 339.045 128.753 337.82C129.978 336.594 130.667 334.933 130.667 333.2C130.667 331.467 129.978 329.805 128.753 328.58C127.528 327.355 125.866 326.667 124.133 326.667Z" fill="#017EF6"/>
<path d="M176.4 326.667H150.267C148.534 326.667 146.872 327.355 145.647 328.58C144.422 329.805 143.733 331.467 143.733 333.2C143.733 334.933 144.422 336.594 145.647 337.82C146.872 339.045 148.534 339.733 150.267 339.733H176.4C178.133 339.733 179.795 339.045 181.02 337.82C182.245 336.594 182.933 334.933 182.933 333.2C182.933 331.467 182.245 329.805 181.02 328.58C179.795 327.355 178.133 326.667 176.4 326.667Z" fill="#017EF6"/>
<path d="M228.667 300.533H202.533C200.801 300.533 199.139 301.222 197.914 302.447C196.688 303.672 196 305.334 196 307.067C196 308.799 196.688 310.461 197.914 311.686C199.139 312.912 200.801 313.6 202.533 313.6H228.667C230.399 313.6 232.061 312.912 233.286 311.686C234.512 310.461 235.2 308.799 235.2 307.067C235.2 305.334 234.512 303.672 233.286 302.447C232.061 301.222 230.399 300.533 228.667 300.533Z" fill="#017EF6"/>
</g>
<defs>
<clipPath id="clip0_1016_45">
<rect width="392" height="392" fill="white"/>
</clipPath>
</defs>
</svg>
