<svg width="24" height="24" viewBox="0 0 24 24" fill="none" xmlns="http://www.w3.org/2000/svg">
<path d="M22.278 3.38222L20.3019 1.40606C20.0947 1.19117 19.8464 1.02024 19.5717 0.903487C19.2971 0.786736 19.0017 0.726563 18.7032 0.726562C18.4047 0.726562 18.1093 0.786736 17.8346 0.903487C17.5599 1.02024 17.3116 1.19117 17.1045 1.40606L0.954751 17.5484C0.818016 17.6863 0.74093 17.8723 0.740112 18.0665V22.2039C0.740112 22.4001 0.818091 22.5884 0.956893 22.7272C1.09569 22.866 1.28395 22.944 1.48025 22.944H5.6176C5.81177 22.9432 5.99784 22.8661 6.1357 22.7293L22.278 6.57961C22.4929 6.37248 22.6639 6.12415 22.7806 5.84947C22.8974 5.57478 22.9575 5.27938 22.9575 4.98092C22.9575 4.68245 22.8974 4.38705 22.7806 4.11236C22.6639 3.83768 22.4929 3.58935 22.278 3.38222ZM5.30674 21.4637H2.22038V18.3774L14.5732 6.02451L17.6596 9.11087L5.30674 21.4637ZM21.2344 5.53602L18.7032 8.06728L15.6168 4.98092L18.1481 2.44965C18.2209 2.3767 18.3075 2.31882 18.4027 2.27933C18.498 2.23985 18.6001 2.21952 18.7032 2.21952C18.8063 2.21952 18.9084 2.23985 19.0036 2.27933C19.0989 2.31882 19.1854 2.3767 19.2583 2.44965L21.2344 4.44062C21.3756 4.58803 21.4544 4.78423 21.4544 4.98832C21.4544 5.1924 21.3756 5.38861 21.2344 5.53602Z" fill="#4BAE4F"/>
<path d="M22.204 21.4639H14.0625C13.8662 21.4639 13.678 21.5418 13.5392 21.6806C13.4004 21.8194 13.3224 22.0077 13.3224 22.204C13.3224 22.4003 13.4004 22.5886 13.5392 22.7274C13.678 22.8662 13.8662 22.9441 14.0625 22.9441H22.204C22.4003 22.9441 22.5886 22.8662 22.7274 22.7274C22.8662 22.5886 22.9441 22.4003 22.9441 22.204C22.9441 22.0077 22.8662 21.8194 22.7274 21.6806C22.5886 21.5418 22.4003 21.4639 22.204 21.4639Z" fill="#4BAE4F"/>
<path d="M11.102 21.4639H9.62173C9.42543 21.4639 9.23717 21.5418 9.09837 21.6806C8.95957 21.8194 8.88159 22.0077 8.88159 22.204C8.88159 22.4003 8.95957 22.5886 9.09837 22.7274C9.23717 22.8662 9.42543 22.9441 9.62173 22.9441H11.102C11.2983 22.9441 11.4865 22.8662 11.6254 22.7274C11.7642 22.5886 11.8421 22.4003 11.8421 22.204C11.8421 22.0077 11.7642 21.8194 11.6254 21.6806C11.4865 21.5418 11.2983 21.4639 11.102 21.4639Z" fill="#4BAE4F"/>
</svg>
