<svg width="67" height="67" viewBox="0 0 67 67" fill="none" xmlns="http://www.w3.org/2000/svg">
<g clip-path="url(#clip0_813_576)">
<path d="M58.9025 50.6531C58.765 50.6566 58.6282 50.6329 58.4999 50.5835C58.3715 50.534 58.2542 50.4598 58.1546 50.365C57.9533 50.1736 57.8364 49.9101 57.8294 49.6324C57.8225 49.3548 57.9261 49.0858 58.1176 48.8845C58.309 48.6833 58.5725 48.5663 58.8501 48.5594C60.0652 48.5268 61.2753 48.3902 62.4671 48.1511C62.9 48.0655 63.3049 47.8739 63.6456 47.5935C63.9864 47.313 64.2523 46.9525 64.4195 46.5442C64.6408 45.4017 64.8032 44.2486 64.9063 43.0895C64.9534 42.6602 64.3829 41.4092 62.3886 40.4723C59.3265 39.0433 55.6781 38.0906 51.2237 37.5567C49.02 37.295 46.9367 37.2217 45.4187 37.1642C44.4608 37.1327 43.7019 37.1066 43.1941 37.0438C42.3566 36.9391 40.8753 36.0702 37.9283 34.2486C36.7656 33.4908 35.5654 32.792 34.3323 32.1549C33.9816 32.0031 32.9557 31.7466 32.0501 31.5163C31.6157 31.4116 31.176 31.2964 30.752 31.1865C30.4926 31.1088 30.2734 30.9337 30.1404 30.6979C30.0074 30.462 29.9709 30.1838 30.0387 29.9217C30.1064 29.6595 30.2731 29.4338 30.5037 29.292C30.7343 29.1501 31.0109 29.1031 31.2755 29.1608L32.5474 29.4906C33.4342 29.6822 34.3083 29.9286 35.1646 30.2286C36.4916 30.8996 37.7812 31.6422 39.0276 32.4532C40.5665 33.4163 42.9219 34.8558 43.4454 34.9657C43.8484 35.0181 44.5655 35.0442 45.4711 35.0756C47.0414 35.128 49.1351 35.2065 51.4487 35.4787C56.1283 36.0388 59.9912 37.049 63.2522 38.5774C66.0369 39.8808 67.1205 41.896 66.9634 43.3198C66.8565 44.5932 66.6818 45.8599 66.44 47.1147C66.1664 47.8926 65.6955 48.5862 65.0734 49.1275C64.4513 49.6689 63.6993 50.0395 62.8911 50.203C61.5958 50.4635 60.2807 50.6141 58.9601 50.6531H58.9025Z" fill="white"/>
<path d="M47.7584 50.852H47.727C45.9682 50.7944 44.0054 50.7211 42.1262 50.6478C39.1845 50.5379 36.3998 50.428 34.9499 50.428C33.3796 50.428 29.3439 50.4594 25.1982 50.5013C24.9206 50.5013 24.6543 50.391 24.458 50.1946C24.2617 49.9983 24.1514 49.732 24.1514 49.4544C24.1514 49.1767 24.2617 48.9105 24.458 48.7141C24.6543 48.5178 24.9206 48.4075 25.1982 48.4075C29.3491 48.3656 33.3691 48.3342 34.9708 48.3342C36.4626 48.3342 39.263 48.4442 42.2309 48.5593C44.1048 48.6274 46.0572 48.7059 47.8107 48.7582C47.9482 48.7603 48.0839 48.7894 48.2102 48.8439C48.3364 48.8984 48.4506 48.9773 48.5464 49.0759C48.6422 49.1746 48.7175 49.2912 48.7682 49.419C48.8189 49.5468 48.844 49.6833 48.8419 49.8208C48.8399 49.9583 48.8107 50.094 48.7562 50.2202C48.7017 50.3464 48.6229 50.4607 48.5242 50.5564C48.4255 50.6522 48.309 50.7276 48.1812 50.7783C48.0534 50.829 47.9168 50.854 47.7793 50.852H47.7584Z" fill="white"/>
<path d="M53.3067 53.7048C51.9837 53.7048 50.6903 53.3124 49.5902 52.5774C48.4901 51.8423 47.6327 50.7975 47.1264 49.5752C46.6201 48.3528 46.4876 47.0078 46.7457 45.7102C47.0038 44.4125 47.641 43.2206 48.5765 42.285C49.5121 41.3495 50.704 40.7123 52.0017 40.4542C53.2993 40.1961 54.6443 40.3286 55.8667 40.8349C57.089 41.3412 58.1338 42.1986 58.8689 43.2987C59.6039 44.3988 59.9963 45.6922 59.9963 47.0152C59.9935 48.7885 59.2878 50.4884 58.0339 51.7424C56.7799 52.9963 55.08 53.702 53.3067 53.7048ZM53.3067 42.4194C52.3978 42.4194 51.5092 42.689 50.7534 43.194C49.9977 43.699 49.4086 44.4167 49.0608 45.2565C48.7129 46.0963 48.6219 47.0203 48.7992 47.9118C48.9766 48.8033 49.4143 49.6222 50.057 50.2649C50.6997 50.9077 51.5186 51.3454 52.4101 51.5227C53.3016 51.7 54.2257 51.609 55.0654 51.2612C55.9052 50.9133 56.623 50.3243 57.128 49.5685C57.633 48.8127 57.9025 47.9242 57.9025 47.0152C57.9046 46.4101 57.7873 45.8106 57.5573 45.2509C57.3273 44.6912 56.9892 44.1823 56.5623 43.7535C56.1354 43.3247 55.6281 42.9842 55.0695 42.7517C54.5108 42.5192 53.9118 42.3992 53.3067 42.3985V42.4194Z" fill="white"/>
<path d="M21.5288 67H6.87256C6.59491 67 6.32863 66.8897 6.13231 66.6934C5.93598 66.4971 5.82568 66.2308 5.82568 65.9531V27.2188C5.82568 26.9411 5.93598 26.6748 6.13231 26.4785C6.32863 26.2822 6.59491 26.1719 6.87256 26.1719C7.15021 26.1719 7.41648 26.2822 7.61281 26.4785C7.80914 26.6748 7.91943 26.9411 7.91943 27.2188V64.9062H20.4819V27.2188C20.4819 26.9411 20.5922 26.6748 20.7886 26.4785C20.9849 26.2822 21.2512 26.1719 21.5288 26.1719C21.8065 26.1719 22.0727 26.2822 22.2691 26.4785C22.4654 26.6748 22.5757 26.9411 22.5757 27.2188V65.9531C22.5757 66.2308 22.4654 66.4971 22.2691 66.6934C22.0727 66.8897 21.8065 67 21.5288 67Z" fill="white"/>
<path d="M14.2007 66.9999C13.923 66.9999 13.6568 66.8896 13.4604 66.6933C13.2641 66.497 13.1538 66.2307 13.1538 65.953V40.9275C13.1538 40.6498 13.2641 40.3836 13.4604 40.1872C13.6568 39.9909 13.923 39.8806 14.2007 39.8806C14.4783 39.8806 14.7446 39.9909 14.9409 40.1872C15.1373 40.3836 15.2476 40.6498 15.2476 40.9275V65.953C15.2476 66.2307 15.1373 66.497 14.9409 66.6933C14.7446 66.8896 14.4783 66.9999 14.2007 66.9999Z" fill="white"/>
<path d="M27.3496 44.555C27.072 44.555 26.8057 44.4447 26.6094 44.2484C26.413 44.052 26.3027 43.7858 26.3027 43.5081V24.6958C26.2931 23.1404 25.6684 21.652 24.5651 20.5555C23.4618 19.4591 21.9695 18.8437 20.4141 18.8438H7.97719C6.42265 18.8451 4.93171 19.4611 3.82955 20.5574C2.72738 21.6537 2.10342 23.1413 2.09375 24.6958V43.5081C2.09375 43.7858 1.98345 44.052 1.78713 44.2484C1.5908 44.4447 1.32452 44.555 1.04688 44.555C0.769226 44.555 0.50295 44.4447 0.306623 44.2484C0.110295 44.052 0 43.7858 0 43.5081V24.6958C0.00968403 22.586 0.854242 20.5658 2.34906 19.0769C3.84387 17.5879 5.86736 16.7514 7.97719 16.75H20.4141C22.5252 16.7486 24.5508 17.5841 26.0471 19.0735C27.5433 20.5629 28.3882 22.5846 28.3965 24.6958V43.5081C28.3965 43.7858 28.2862 44.052 28.0899 44.2484C27.8935 44.4447 27.6273 44.555 27.3496 44.555Z" fill="white"/>
<path d="M14.2007 18.8438C12.3372 18.8438 10.5156 18.2912 8.96617 17.2559C7.41675 16.2206 6.20913 14.7491 5.49601 13.0275C4.78289 11.3059 4.59631 9.41143 4.95985 7.58376C5.3234 5.7561 6.22074 4.07728 7.53842 2.75961C8.85609 1.44193 10.5349 0.544588 12.3626 0.181043C14.1902 -0.182502 16.0847 0.00408237 17.8063 0.717202C19.5279 1.43032 20.9994 2.63795 22.0347 4.18737C23.07 5.73679 23.6226 7.55841 23.6226 9.42188C23.6226 10.6592 23.3789 11.8844 22.9054 13.0275C22.4319 14.1706 21.7379 15.2092 20.863 16.0842C19.9881 16.9591 18.9494 17.6531 17.8063 18.1266C16.6632 18.6 15.438 18.8438 14.2007 18.8438ZM14.2007 2.09375C12.7513 2.09375 11.3345 2.52354 10.1294 3.32877C8.9243 4.13399 7.98503 5.27849 7.43038 6.61753C6.87573 7.95657 6.73061 9.43001 7.01337 10.8515C7.29613 12.273 7.99406 13.5788 9.01892 14.6036C10.0438 15.6285 11.3495 16.3264 12.771 16.6092C14.1926 16.892 15.666 16.7468 17.005 16.1922C18.3441 15.6375 19.4886 14.6983 20.2938 13.4932C21.099 12.2881 21.5288 10.8712 21.5288 9.42188C21.5288 7.47834 20.7567 5.6144 19.3825 4.24011C18.0082 2.86582 16.1442 2.09375 14.2007 2.09375Z" fill="white"/>
<path d="M14.2006 25.1251C14.0305 25.1251 13.863 25.0836 13.7125 25.0042C13.562 24.9249 13.4331 24.8101 13.337 24.6697L8.84588 18.1267C8.69305 17.8976 8.63667 17.6175 8.68897 17.347C8.74127 17.0766 8.89803 16.8377 9.12527 16.6821C9.35252 16.5265 9.63194 16.4666 9.90298 16.5156C10.174 16.5646 10.4148 16.7184 10.5732 16.9438L14.2006 22.2357L17.8281 16.9438C17.905 16.8285 18.004 16.7296 18.1193 16.6529C18.2347 16.5762 18.3642 16.5231 18.5002 16.4968C18.6362 16.4705 18.7762 16.4715 18.9118 16.4996C19.0475 16.5278 19.1762 16.5826 19.2905 16.6609C19.4048 16.7392 19.5025 16.8394 19.5778 16.9557C19.6531 17.072 19.7045 17.2021 19.7292 17.3385C19.7538 17.4748 19.7511 17.6147 19.7213 17.75C19.6915 17.8853 19.6351 18.0134 19.5554 18.1267L15.0643 24.6802C14.967 24.8186 14.8376 24.9314 14.6872 25.0089C14.5368 25.0864 14.3698 25.1262 14.2006 25.1251Z" fill="white"/>
<path d="M14.2007 6.68947C11.5312 6.68947 9.00298 6.01947 7.25994 4.84174C7.14001 4.76748 7.03633 4.66976 6.95511 4.55444C6.8739 4.43912 6.81682 4.30857 6.78732 4.17064C6.75781 4.03271 6.75649 3.89024 6.78342 3.75179C6.81035 3.61333 6.86498 3.48174 6.94403 3.36493C7.02309 3.24811 7.12493 3.14848 7.24345 3.072C7.36197 2.99553 7.49472 2.9438 7.63374 2.91991C7.77275 2.89602 7.91516 2.90047 8.05241 2.93299C8.18966 2.96551 8.31892 3.02543 8.43244 3.10916C9.83525 4.05658 11.9395 4.59572 14.1902 4.59572C16.441 4.59572 18.5505 4.07228 19.9481 3.10916C20.1777 2.97577 20.4495 2.93465 20.7083 2.99413C20.9671 3.0536 21.1937 3.20923 21.3421 3.42948C21.4905 3.64973 21.5496 3.91815 21.5075 4.18037C21.4654 4.44259 21.3252 4.67901 21.1153 4.84174C19.3985 6.01947 16.865 6.68947 14.2007 6.68947Z" fill="white"/>
<path d="M46.1724 37.1956H30.9927C30.715 37.1956 30.4488 37.0853 30.2524 36.8889C30.0561 36.6926 29.9458 36.4263 29.9458 36.1487C29.9458 35.871 30.0561 35.6048 30.2524 35.4084C30.4488 35.2121 30.715 35.1018 30.9927 35.1018H46.1724C46.45 35.1018 46.7163 35.2121 46.9126 35.4084C47.1089 35.6048 47.2192 35.871 47.2192 36.1487C47.2192 36.4263 47.1089 36.6926 46.9126 36.8889C46.7163 37.0853 46.45 37.1956 46.1724 37.1956Z" fill="white"/>
</g>
<defs>
<clipPath id="clip0_813_576">
<rect width="67" height="67" fill="white"/>
</clipPath>
</defs>
</svg>
