<svg width="24" height="25" viewBox="0 0 24 25" fill="none" xmlns="http://www.w3.org/2000/svg">
<g clip-path="url(#clip0_813_134)">
<path d="M9.20456 15.0671C11.3572 17.2039 13.8488 19.2452 14.827 18.2596C16.2276 16.8487 17.0897 15.6212 20.1977 18.0999C23.3057 20.5797 20.932 22.2486 19.5755 23.6157C18.0101 25.1929 12.147 23.7262 6.33541 17.9587C0.524153 12.19 -0.987325 6.3383 0.579216 4.7603C1.93615 3.39314 3.58725 1.0077 6.08872 4.09757C8.5914 7.18589 7.37051 8.05742 5.96991 9.46866C4.99218 10.4539 7.05158 12.9298 9.20456 15.0671ZM12.326 4.8728C12.326 4.8728 11.6766 4.77135 11.2219 5.22638C10.7539 5.69442 10.7335 6.50071 11.2267 6.99351C11.5181 7.28497 11.9291 7.34709 11.9291 7.34709C12.7303 7.49736 13.9378 7.75179 15.2228 9.03637C16.5073 10.3209 16.7618 11.5283 16.912 12.33C16.912 12.33 16.9742 12.741 17.2656 13.0324C17.7585 13.5253 18.5647 13.5052 19.0328 13.0372C19.4874 12.5825 19.3863 11.9332 19.3863 11.9332C19.1319 10.3104 18.3453 8.61517 16.9946 7.26455C15.6436 5.91393 13.9483 5.12765 12.326 4.8728ZM18.4172 5.84191C20.7724 8.19711 21.7765 10.8701 21.4496 13.036C21.4496 13.036 21.3355 13.7219 21.7835 14.1699C22.2878 14.6742 23.0869 14.6451 23.5589 14.1735C23.8622 13.8702 23.9282 13.3766 23.9282 13.3766C24.1985 11.5049 23.8586 7.7393 20.189 4.0701C16.5194 0.400838 12.7543 0.0610272 10.8824 0.330851C10.8824 0.330851 10.3892 0.396558 10.0856 0.70016C9.61361 1.17214 9.58492 1.97137 10.0891 2.47556C10.5371 2.92359 11.223 2.80947 11.223 2.80947C13.3891 2.48262 16.062 3.48678 18.4172 5.84191Z" fill="#0C2453"/>
</g>
<defs>
<clipPath id="clip0_813_134">
<rect width="24" height="24" fill="white" transform="translate(0 0.233887)"/>
</clipPath>
</defs>
</svg>
