<svg width="25" height="25" viewBox="0 0 25 25" fill="none" xmlns="http://www.w3.org/2000/svg">
<path d="M22.8378 21.0208C23.7479 19.7563 23.9032 18.098 23.245 16.6861C22.7872 15.7051 22.237 14.5239 21.7038 13.382C21.1503 12.1951 20.149 11.2771 18.9194 10.8294C17.6887 10.3816 16.3308 10.4413 15.145 10.9948C14.4892 11.2996 14.0302 11.5145 14.0302 11.5145C13.4643 11.6416 12.9749 11.5494 12.7297 11.024C12.2943 10.088 11.6013 8.60413 11.0647 7.45213C10.8565 7.00663 10.4808 6.66238 10.0195 6.49475C9.55829 6.32713 9.04979 6.3485 8.60429 6.55663C8.15991 6.76363 7.81566 7.13938 7.64804 7.60063C7.47929 8.06188 7.50179 8.5715 7.70991 9.01588C9.04416 11.879 11.6204 17.4028 11.6204 17.4028C11.6204 17.4028 10.1917 16.8121 8.91816 16.2868C8.41079 16.0775 7.84041 16.0843 7.33754 16.3048C6.83579 16.5264 6.44541 16.9438 6.25754 17.459C6.25754 17.4601 6.25641 17.4613 6.25641 17.4624C5.88404 18.485 6.40379 19.6168 7.42191 20.0004C9.16116 20.6563 11.5068 21.5394 11.5068 21.5394C13.3855 22.2234 13.8749 22.454 14.5825 23.7984C14.8818 24.2596 15.4758 24.4306 15.9753 24.1978C18.0824 23.2393 22.8378 21.0208 22.8378 21.0208Z" fill="#0C2453"/>
<path fill-rule="evenodd" clip-rule="evenodd" d="M8.23078 4.22207C8.42765 4.64507 8.2454 5.14682 7.82353 5.3437C7.40165 5.54057 6.89878 5.35832 6.7019 4.93532L5.72653 2.84282C5.52965 2.42095 5.7119 1.91807 6.13378 1.7212C6.55565 1.52432 7.05853 1.7077 7.2554 2.12957L8.23078 4.22207Z" fill="#0C2453"/>
<path fill-rule="evenodd" clip-rule="evenodd" d="M12.05 4.00056C11.8913 4.43818 11.4065 4.6643 10.9688 4.50568C10.5312 4.34593 10.3051 3.86105 10.4648 3.42343L11.2546 1.25331C11.4132 0.81568 11.8981 0.59068 12.3357 0.749305C12.7733 0.909055 12.9995 1.39281 12.8397 1.83043L12.05 4.00056Z" fill="#0C2453"/>
<path fill-rule="evenodd" clip-rule="evenodd" d="M4.65433 6.1335C5.09195 6.29212 5.31807 6.777 5.15832 7.21462C4.9997 7.65225 4.51483 7.87837 4.0772 7.71862L1.90707 6.92887C1.46945 6.77025 1.24332 6.28537 1.40307 5.84775C1.5617 5.41012 2.04657 5.184 2.4842 5.34375L4.65433 6.1335Z" fill="#0C2453"/>
<path fill-rule="evenodd" clip-rule="evenodd" d="M4.63174 9.42872C5.05361 9.23184 5.55649 9.41522 5.75336 9.83709C5.95024 10.259 5.76686 10.7618 5.34499 10.9587L3.25249 11.9341C2.83061 12.131 2.32774 11.9487 2.13086 11.5268C1.93399 11.1038 2.11736 10.6021 2.53924 10.4052L4.63174 9.42872Z" fill="#0C2453"/>
<path fill-rule="evenodd" clip-rule="evenodd" d="M15.0966 4.5495C15.5185 4.35263 16.0213 4.53488 16.2182 4.95788C16.4151 5.37975 16.2317 5.8815 15.8098 6.07838L13.7173 7.05488C13.2955 7.25175 12.7926 7.06838 12.5957 6.6465C12.3988 6.22463 12.5822 5.72175 13.0041 5.52488L15.0966 4.5495Z" fill="#0C2453"/>
</svg>
