<svg width="512" height="512" viewBox="0 0 512 512" fill="none" xmlns="http://www.w3.org/2000/svg">
<g clip-path="url(#clip0_1016_134)">
<path d="M368 139.544V48C368 45.8782 367.157 43.8434 365.657 42.3431C364.157 40.8428 362.122 40 360 40C325.046 40.0005 290.876 29.6477 261.8 10.248L260.44 9.34398C259.125 8.46686 257.58 7.99878 256 7.99878C254.42 7.99878 252.875 8.46686 251.56 9.34398L250.2 10.248C221.124 29.6477 186.954 40.0005 152 40C149.878 40 147.843 40.8428 146.343 42.3431C144.843 43.8434 144 45.8782 144 48V139.568C144.003 164.122 150.653 188.218 163.245 209.297C175.837 230.377 193.901 247.654 215.52 259.296L252.208 279.048C253.373 279.675 254.676 280.004 256 280.004C257.324 280.004 258.627 279.675 259.792 279.048L296.488 259.296C318.119 247.663 336.192 230.384 348.784 209.297C361.376 188.21 368.017 164.104 368 139.544ZM256 262.912L223.112 245.2C204.021 234.943 188.069 219.699 176.955 201.094C165.841 182.488 159.981 161.216 160 139.544V55.832C194.118 54.4628 227.254 44.0275 256 25.6C284.746 44.0275 317.882 54.4628 352 55.832V139.544C352.018 161.215 346.16 182.486 335.047 201.092C323.935 219.697 307.985 234.941 288.896 245.2L256 262.912Z" fill="#017EF6"/>
<path d="M336 77.6799C336 75.7622 335.311 73.9083 334.058 72.4561C332.806 71.0038 331.073 70.0499 329.176 69.7679C304.862 66.1464 281.386 58.2341 259.84 46.3999C258.663 45.7557 257.342 45.4181 256 45.4181C254.658 45.4181 253.337 45.7557 252.16 46.3999C230.613 58.2257 207.136 66.1299 182.824 69.7439C180.923 70.0265 179.187 70.9839 177.934 72.4412C176.681 73.8984 175.995 75.758 176 77.6799V139.52C175.993 158.303 181.073 176.737 190.701 192.865C200.328 208.993 214.144 222.212 230.68 231.12L252.2 242.72C253.367 243.35 254.673 243.68 256 243.68C257.327 243.68 258.633 243.35 259.8 242.72L281.32 231.12C297.857 222.212 311.672 208.993 321.299 192.865C330.927 176.737 336.007 158.303 336 139.52V77.6799ZM320 139.52C320.008 155.416 315.71 171.017 307.562 184.666C299.415 198.315 287.723 209.502 273.728 217.04L256 226.592L238.272 217.04C224.277 209.502 212.585 198.315 204.438 184.666C196.29 171.017 191.992 155.416 192 139.52V84.4719C214.325 80.4439 235.905 73.039 256 62.5119C276.095 73.039 297.675 80.4439 320 84.4719V139.52Z" fill="#017EF6"/>
<path d="M227.72 139.2C226.211 137.743 224.19 136.936 222.093 136.955C219.995 136.973 217.989 137.814 216.505 139.297C215.022 140.781 214.181 142.787 214.162 144.885C214.144 146.982 214.951 149.003 216.408 150.512L239.032 173.136C240.532 174.636 242.566 175.478 244.688 175.478C246.809 175.478 248.844 174.636 250.344 173.136L295.592 127.888C297.049 126.379 297.855 124.358 297.837 122.261C297.819 120.163 296.978 118.157 295.494 116.673C294.011 115.19 292.005 114.349 289.907 114.331C287.809 114.312 285.789 115.119 284.28 116.576L244.688 156.168L227.72 139.2Z" fill="#017EF6"/>
<path d="M490.88 90.0239C483.826 87.2903 476.02 87.2092 468.911 89.7957C461.802 92.3822 455.872 97.4606 452.224 104.088C450.363 107.307 449.08 110.827 448.432 114.488L434.744 192.088C428.856 189.486 422.318 188.724 415.99 189.903C409.661 191.083 403.836 194.148 399.28 198.696L310.544 287.488C303.857 294.173 298.552 302.11 294.932 310.846C291.313 319.581 289.449 328.944 289.448 338.4V392H281.448C279.327 392 277.292 392.843 275.791 394.343C274.291 395.843 273.448 397.878 273.448 400V448C273.448 450.122 274.291 452.156 275.791 453.657C277.292 455.157 279.327 456 281.448 456V496C281.448 498.122 282.291 500.156 283.791 501.657C285.292 503.157 287.327 504 289.448 504H433.448C435.57 504 437.605 503.157 439.105 501.657C440.605 500.156 441.448 498.122 441.448 496V456C443.57 456 445.605 455.157 447.105 453.657C448.605 452.156 449.448 450.122 449.448 448V400C449.448 397.878 448.605 395.843 447.105 394.343C445.605 392.843 443.57 392 441.448 392H433.448V364.568L473.976 303.552C479.475 295.299 483.196 285.993 484.904 276.224L511.44 125.64C512.914 118.22 511.641 110.517 507.859 103.965C504.076 97.4134 498.043 92.459 490.88 90.0239ZM425.448 488H297.448V456H425.448V488ZM433.448 440H289.448V408H433.448V440ZM495.696 122.856L469.152 273.448C467.818 281.045 464.923 288.283 460.648 294.704L418.784 357.728C417.912 359.041 417.447 360.583 417.448 362.16V392H305.448V338.4C305.448 331.046 306.896 323.763 309.71 316.969C312.524 310.174 316.648 304 321.848 298.8L410.592 210.064C412.068 208.536 413.834 207.317 415.786 206.478C417.738 205.64 419.837 205.198 421.962 205.18C424.086 205.161 426.193 205.566 428.16 206.371C430.126 207.175 431.912 208.363 433.415 209.866C434.917 211.368 436.105 213.154 436.909 215.121C437.714 217.087 438.119 219.194 438.1 221.318C438.082 223.443 437.64 225.542 436.802 227.494C435.963 229.446 434.744 231.212 433.216 232.688L371 294.912C369.543 296.421 368.737 298.442 368.755 300.539C368.773 302.637 369.614 304.643 371.098 306.126C372.581 307.61 374.587 308.451 376.685 308.469C378.783 308.488 380.803 307.681 382.312 306.224L444.536 244C449.676 238.847 452.906 232.096 453.693 224.86C454.48 217.625 452.777 210.337 448.864 204.2L464.184 117.304C464.508 115.468 465.149 113.703 466.08 112.088C467.966 108.842 470.933 106.363 474.462 105.083C477.991 103.804 481.857 103.806 485.385 105.089C488.912 106.373 491.876 108.855 493.759 112.103C495.641 115.351 496.321 119.157 495.68 122.856H495.696Z" fill="#017EF6"/>
<path d="M230.552 392H222.552V338.4C222.552 328.943 220.689 319.578 217.07 310.841C213.45 302.104 208.145 294.166 201.456 287.48L112.72 198.752C108.164 194.204 102.34 191.139 96.0111 189.959C89.6822 188.78 83.1447 189.542 77.2564 192.144L63.5684 114.544C62.9207 110.883 61.6373 107.363 59.7764 104.144C56.1373 97.5067 50.212 92.4164 43.102 89.8193C35.992 87.2222 28.1808 87.2949 21.1204 90.024C13.9579 92.459 7.92415 97.4135 4.14201 103.965C0.359879 110.517 -0.912958 118.22 0.560392 125.64L27.0964 276.224C28.8044 285.993 32.5259 295.299 38.0244 303.552L78.5524 364.568V392H70.5524C68.4307 392 66.3958 392.843 64.8955 394.343C63.3952 395.843 62.5524 397.878 62.5524 400V448C62.5524 450.122 63.3952 452.157 64.8955 453.657C66.3958 455.157 68.4307 456 70.5524 456V496C70.5524 498.122 71.3952 500.157 72.8955 501.657C74.3958 503.157 76.4307 504 78.5524 504H222.552C224.674 504 226.709 503.157 228.209 501.657C229.71 500.157 230.552 498.122 230.552 496V456C232.674 456 234.709 455.157 236.209 453.657C237.71 452.157 238.552 450.122 238.552 448V400C238.552 397.878 237.71 395.843 236.209 394.343C234.709 392.843 232.674 392 230.552 392ZM51.3524 294.704C47.078 288.283 44.1823 281.045 42.8484 273.448L16.3044 122.856C15.5404 119.143 16.167 115.278 18.0651 111.997C19.9633 108.715 23.0007 106.245 26.6004 105.056C30.1227 103.655 34.0371 103.597 37.5992 104.894C41.1613 106.19 44.1227 108.751 45.9204 112.088C46.8514 113.703 47.4931 115.468 47.8164 117.304L63.1364 204.2C59.2241 210.337 57.5209 217.625 58.3077 224.86C59.0946 232.096 62.3244 238.847 67.4644 244L129.688 306.224C131.197 307.681 133.218 308.488 135.316 308.469C137.413 308.451 139.42 307.61 140.903 306.127C142.386 304.643 143.228 302.637 143.246 300.539C143.264 298.442 142.458 296.421 141 294.912L78.7844 232.688C77.2562 231.212 76.0373 229.447 75.1988 227.494C74.3602 225.542 73.9188 223.443 73.9004 221.318C73.8819 219.194 74.2867 217.087 75.0912 215.121C75.8957 213.154 77.0838 211.368 78.5861 209.866C80.0883 208.363 81.8748 207.175 83.8411 206.371C85.8075 205.566 87.9143 205.162 90.0388 205.18C92.1633 205.198 94.2628 205.64 96.2149 206.478C98.1669 207.317 99.9324 208.536 101.408 210.064L190.152 298.8C195.352 304 199.477 310.174 202.291 316.969C205.105 323.763 206.553 331.046 206.552 338.4V392H94.5524V362.16C94.5535 360.583 94.0887 359.041 93.2164 357.728L51.3524 294.704ZM214.544 488H86.5444V456H214.544V488ZM222.544 440H78.5444V408H222.544V440Z" fill="#017EF6"/>
</g>
<defs>
<clipPath id="clip0_1016_134">
<rect width="512" height="512" fill="white"/>
</clipPath>
</defs>
</svg>
