<svg width="53" height="34" viewBox="0 0 53 34" fill="none" xmlns="http://www.w3.org/2000/svg">
<g clip-path="url(#clip0_813_2577)">
<path d="M2.88037 30.5999H45.9861L50.8396 30.242V21.3394H2.88037V30.5999Z" fill="#13171A"/>
<path d="M8.67007 24.1132L9.80784 24.4562C9.90866 24.486 9.99507 24.4413 10.0239 24.3369C10.0527 24.2474 10.0095 24.143 9.90866 24.1132L8.77089 23.7553C8.68448 23.7255 8.58366 23.7851 8.55486 23.8746C8.52605 23.979 8.58366 24.0834 8.67007 24.1132Z" fill="#0C2453"/>
<path d="M9.90866 24.4711L8.77089 24.8141C8.68448 24.8439 8.58366 24.7992 8.55486 24.6948C8.52605 24.6053 8.58366 24.5009 8.67007 24.4711L9.80784 24.1132C9.90866 24.0834 9.99507 24.1431 10.0239 24.2325C10.0527 24.3369 10.0095 24.4413 9.90866 24.4711Z" fill="#0C2453"/>
<path d="M8.67007 23.3825L9.80784 23.7404C9.90866 23.7702 9.99507 23.7105 10.0239 23.6211C10.0527 23.5167 10.0095 23.4272 9.90866 23.3974L8.77089 23.0395C8.68448 23.0097 8.58366 23.0693 8.55486 23.1588C8.52605 23.2632 8.58366 23.3527 8.67007 23.3825Z" fill="#0C2453"/>
<path d="M9.90866 23.7404L8.77089 24.0983C8.68448 24.1281 8.58366 24.0685 8.55486 23.979C8.52605 23.8746 8.58366 23.7851 8.67007 23.7553L9.80784 23.3974C9.90866 23.3676 9.99507 23.4272 10.0239 23.5167C10.0527 23.6211 10.0095 23.7106 9.90866 23.7404Z" fill="#0C2453"/>
<path d="M8.67007 22.6668L9.80784 23.0246C9.90866 23.0545 9.99507 22.9948 10.0239 22.9053C10.0527 22.801 10.0095 22.6966 9.90866 22.6668L8.77089 22.3238C8.68448 22.2939 8.58366 22.3387 8.55486 22.4431C8.52605 22.5325 8.58366 22.6369 8.67007 22.6668Z" fill="#0C2453"/>
<path d="M9.90866 23.0247L8.77089 23.3826C8.68448 23.4124 8.58366 23.3527 8.55486 23.2633C8.52605 23.1589 8.58366 23.0545 8.67007 23.0247L9.80784 22.6817C9.90866 22.6519 9.99507 22.6966 10.0239 22.801C10.0527 22.8904 10.0095 22.9948 9.90866 23.0247Z" fill="#0C2453"/>
<path d="M8.67007 21.9508L9.80784 22.3087C9.90866 22.3385 9.99507 22.2788 10.0239 22.1745C10.0527 22.085 10.0095 21.9806 9.90866 21.9508L8.77089 21.5929C8.68448 21.5631 8.58366 21.6227 8.55486 21.7271C8.52605 21.8166 8.58366 21.921 8.67007 21.9508Z" fill="#0C2453"/>
<path d="M9.90866 22.3088L8.77089 22.6667C8.68448 22.6966 8.58366 22.6369 8.55486 22.5474C8.52605 22.443 8.58366 22.3387 8.67007 22.3088L9.80784 21.9659C9.90866 21.936 9.99507 21.9808 10.0239 22.0852C10.0527 22.1746 10.0095 22.279 9.90866 22.3088Z" fill="#0C2453"/>
<path fill-rule="evenodd" clip-rule="evenodd" d="M12.4721 28.1245C12.4721 30.0781 10.9455 31.6588 9.05882 31.6588C7.17214 31.6588 5.64551 30.0781 5.64551 28.1245C5.64551 26.171 7.17214 24.5903 9.05882 24.5903C10.9455 24.5903 12.4721 26.171 12.4721 28.1245ZM11.0463 28.1245C11.0463 26.9912 10.1534 26.0666 9.05882 26.0666C7.96426 26.0666 7.07132 26.9912 7.07132 28.1245C7.07132 29.2579 7.96426 30.1824 9.05882 30.1824C10.1534 30.1824 11.0463 29.2579 11.0463 28.1245Z" fill="#0C2453"/>
<path d="M11.5072 28.1245C11.5072 28.4674 11.4496 28.7955 11.32 29.0938C11.2479 29.2876 11.32 29.5113 11.5072 29.6008L12.0977 29.899C12.2993 30.0034 12.5441 29.9139 12.6305 29.7052C12.8178 29.213 12.933 28.6911 12.933 28.1245C12.933 27.5578 12.8178 27.0359 12.6305 26.5437C12.5441 26.335 12.2993 26.2455 12.0977 26.3499L11.5072 26.6481C11.32 26.7376 11.2479 26.9613 11.32 27.1552C11.4496 27.4534 11.5072 27.7815 11.5072 28.1245Z" fill="#8C2418"/>
<path d="M10.5567 28.1246C10.5567 28.9746 9.89419 29.6755 9.05886 29.6755C8.23794 29.6755 7.56104 28.9746 7.56104 28.1246C7.56104 27.2746 8.23794 26.5737 9.05886 26.5737C9.89419 26.5737 10.5567 27.2746 10.5567 28.1246Z" fill="#C4DEFF"/>
<path fill-rule="evenodd" clip-rule="evenodd" d="M14.6326 28.1246C14.6326 31.3158 12.1411 33.8956 9.05899 33.8956C5.97693 33.8956 3.48535 31.3158 3.48535 28.1246C3.48535 24.9333 5.97693 22.3535 9.05899 22.3535C12.1411 22.3535 14.6326 24.9333 14.6326 28.1246ZM13.2068 28.1246C13.2068 25.7535 11.3489 23.8298 9.05899 23.8298C6.76905 23.8298 4.91117 25.7535 4.91117 28.1246C4.91117 30.4956 6.76905 32.4193 9.05899 32.4193C11.3489 32.4193 13.2068 30.4956 13.2068 28.1246Z" fill="#333333"/>
<path fill-rule="evenodd" clip-rule="evenodd" d="M9.0588 33.5228C6.19277 33.5228 3.84521 31.0921 3.84521 28.1246C3.84521 25.157 6.19277 22.7263 9.0588 22.7263C11.9248 22.7263 14.2724 25.157 14.2724 28.1246C14.2724 31.0921 11.9248 33.5228 9.0588 33.5228ZM9.0588 23.5614C6.63924 23.5614 4.65174 25.6193 4.65174 28.1246C4.65174 30.6447 6.63924 32.6877 9.0588 32.6877C11.4928 32.6877 13.4659 30.6447 13.4659 28.1246C13.4659 25.6193 11.4928 23.5614 9.0588 23.5614Z" fill="#0C2453"/>
<path d="M8.92911 28.0649L7.60411 28.035C6.8984 28.0201 5.97666 27.8561 5.04052 27.5728C5.02132 27.7318 5.01172 27.8909 5.01172 28.0499C5.97666 28.3333 6.884 28.4973 7.58971 28.4973C7.01362 28.9596 6.35112 29.6456 5.71743 30.4956C5.80384 30.6347 5.89985 30.764 6.00547 30.8833C6.62476 30.0631 7.28726 29.3324 7.87775 28.885L8.92911 28.0649Z" fill="#C4DEFF"/>
<path d="M9.49114 29.4517L9.05907 28.1543L8.62701 29.4517C8.38217 30.1675 7.9213 31.0622 7.34521 31.9271C7.48924 31.9967 7.63326 32.0563 7.77728 32.1061C8.38217 31.1964 8.81424 30.3166 9.05907 29.6008C9.30391 30.3166 9.73598 31.1964 10.3409 32.1061C10.4849 32.0563 10.6289 31.9967 10.7729 31.9271C10.1968 31.0622 9.73598 30.1675 9.49114 29.4517Z" fill="#C4DEFF"/>
<path d="M13.0773 27.5728C12.1412 27.8561 11.2194 28.0201 10.5137 28.035L9.20312 28.0649L10.2545 28.885C10.8306 29.3324 11.4931 30.0631 12.1124 30.8833C12.218 30.764 12.314 30.6347 12.4004 30.4956C11.7667 29.6456 11.1042 28.9596 10.5281 28.4973C11.2338 28.4973 12.1412 28.3333 13.1061 28.0499C13.1061 27.8909 13.0965 27.7318 13.0773 27.5728Z" fill="#C4DEFF"/>
<path d="M8.18053 26.7377C7.60444 26.3202 6.81232 25.9026 5.87618 25.5448C5.77056 25.674 5.67935 25.8082 5.60254 25.9474C6.50988 26.2904 7.3452 26.7079 7.92129 27.1255L9.00145 27.9307L8.61259 26.6035C8.41096 25.9176 8.28134 24.993 8.25254 24.0088C8.09892 24.0486 7.94529 24.0933 7.79167 24.143C7.83488 25.157 7.9789 26.0667 8.18053 26.7377Z" fill="#C4DEFF"/>
<path d="M9.99524 26.7079C10.1825 26.0368 10.3121 25.1421 10.3553 24.1579C10.2113 24.0982 10.0625 24.0535 9.90883 24.0237C9.88002 24.993 9.7504 25.8728 9.54877 26.5737L9.17432 27.8561L10.2545 27.0956C10.8306 26.6781 11.6227 26.2754 12.5156 25.9474C12.4388 25.8082 12.3524 25.674 12.2564 25.5447C11.3346 25.8877 10.5569 26.3053 9.99524 26.7079Z" fill="#C4DEFF"/>
<path d="M10.0095 28.1246C10.0095 28.6614 9.57742 29.1088 9.05894 29.1088C8.54046 29.1088 8.1084 28.6614 8.1084 28.1246C8.1084 27.5878 8.54046 27.1404 9.05894 27.1404C9.57742 27.1404 10.0095 27.5878 10.0095 28.1246Z" fill="#A6CDFF"/>
<path fill-rule="evenodd" clip-rule="evenodd" d="M13.2502 28.1246C13.2502 30.5255 11.3779 32.4641 9.0592 32.4641C6.74045 32.4641 4.86816 30.5255 4.86816 28.1246C4.86816 25.7238 6.74045 23.7852 9.0592 23.7852C11.3779 23.7852 13.2502 25.7238 13.2502 28.1246ZM13.0054 28.1246C13.0054 25.8729 11.2339 24.0387 9.0592 24.0387C6.88447 24.0387 5.113 25.8729 5.113 28.1246C5.113 30.3764 6.88447 32.2106 9.0592 32.2106C11.2339 32.2106 13.0054 30.3764 13.0054 28.1246Z" fill="#D9EAFF"/>
<path d="M44.1571 24.2027L45.2804 24.5606C45.3812 24.5904 45.4821 24.5308 45.5109 24.4264C45.5397 24.3369 45.4821 24.2326 45.3812 24.2027L44.2579 23.8448C44.1571 23.815 44.0562 23.8747 44.0274 23.979C43.9986 24.0685 44.0562 24.1729 44.1571 24.2027Z" fill="#0C2453"/>
<path d="M45.3812 24.5605L44.2579 24.9184C44.1571 24.9483 44.0562 24.8886 44.0274 24.7991C43.9986 24.6948 44.0562 24.5904 44.1571 24.5605L45.2804 24.2176C45.3812 24.1877 45.4821 24.2325 45.5109 24.3369C45.5397 24.4263 45.4821 24.5307 45.3812 24.5605Z" fill="#0C2453"/>
<path d="M44.1571 23.4867L45.2804 23.8297C45.3812 23.8596 45.4821 23.8148 45.5109 23.7104C45.5397 23.621 45.4821 23.5166 45.3812 23.4867L44.2579 23.1289C44.1571 23.099 44.0562 23.1587 44.0274 23.2481C43.9986 23.3525 44.0562 23.4569 44.1571 23.4867Z" fill="#0C2453"/>
<path d="M45.3812 23.8448L44.2579 24.2027C44.1571 24.2176 44.0562 24.1729 44.0274 24.0685C43.9986 23.979 44.0562 23.8746 44.1571 23.8448L45.2804 23.4869C45.3812 23.4571 45.4821 23.5167 45.5109 23.6211C45.5397 23.7106 45.4821 23.815 45.3812 23.8448Z" fill="#0C2453"/>
<path d="M44.1571 22.7563L45.2804 23.1142C45.3812 23.144 45.4821 23.0843 45.5109 22.9949C45.5397 22.9054 45.4821 22.801 45.3812 22.7712L44.2579 22.4133C44.1571 22.3835 44.0562 22.4431 44.0274 22.5326C43.9986 22.637 44.0562 22.7264 44.1571 22.7563Z" fill="#0C2453"/>
<path d="M45.3812 23.1288L44.2579 23.4718C44.1571 23.5016 44.0562 23.4569 44.0274 23.3525C43.9986 23.263 44.0562 23.1587 44.1571 23.1288L45.2804 22.7709C45.3812 22.7411 45.4821 22.8008 45.5109 22.8902C45.5397 22.9946 45.4821 23.099 45.3812 23.1288Z" fill="#0C2453"/>
<path d="M44.1571 22.0403L45.2804 22.3982C45.3812 22.428 45.4821 22.3684 45.5109 22.2789C45.5397 22.1745 45.4821 22.0701 45.3812 22.0552L44.2579 21.6973C44.1571 21.6675 44.0562 21.7122 44.0274 21.8166C43.9986 21.9061 44.0562 22.0105 44.1571 22.0403Z" fill="#0C2453"/>
<path d="M45.3812 22.3983L44.2579 22.7562C44.1571 22.7861 44.0562 22.7264 44.0274 22.6369C43.9986 22.5326 44.0562 22.4431 44.1571 22.4133L45.2804 22.0554C45.3812 22.0255 45.4821 22.0852 45.5109 22.1747C45.5397 22.2791 45.4821 22.3685 45.3812 22.3983Z" fill="#0C2453"/>
<path fill-rule="evenodd" clip-rule="evenodd" d="M48.1755 28.1245C48.1755 30.0781 46.6489 31.6588 44.7766 31.6588C42.8899 31.6588 41.3633 30.0781 41.3633 28.1245C41.3633 26.171 42.8899 24.5903 44.7766 24.5903C46.6489 24.5903 48.1755 26.171 48.1755 28.1245ZM46.7497 28.1245C46.7497 26.9912 45.8568 26.0666 44.7766 26.0666C43.682 26.0666 42.7891 26.9912 42.7891 28.1245C42.7891 29.2579 43.682 30.1824 44.7766 30.1824C45.8568 30.1824 46.7497 29.2579 46.7497 28.1245Z" fill="#0C2453"/>
<path d="M47.2245 28.1245C47.2245 28.4674 47.1525 28.7955 47.0373 29.0938C46.9509 29.2876 47.0373 29.5113 47.2101 29.6008L47.815 29.899C48.0167 30.0034 48.2471 29.9139 48.3335 29.7052C48.5351 29.213 48.6504 28.6911 48.6504 28.1245C48.6504 27.5578 48.5351 27.0359 48.3335 26.5437C48.2471 26.335 48.0167 26.2455 47.815 26.3499L47.2101 26.6481C47.0373 26.7376 46.9509 26.9613 47.0373 27.1552C47.1525 27.4534 47.2245 27.7815 47.2245 28.1245Z" fill="#8C2418"/>
<path d="M46.2742 28.1246C46.2742 28.9746 45.5973 29.6755 44.7764 29.6755C43.9411 29.6755 43.2642 28.9746 43.2642 28.1246C43.2642 27.2746 43.9411 26.5737 44.7764 26.5737C45.5973 26.5737 46.2742 27.2746 46.2742 28.1246Z" fill="#C4DEFF"/>
<path fill-rule="evenodd" clip-rule="evenodd" d="M50.3355 28.1246C50.3355 31.3158 47.8439 33.8956 44.7763 33.8956C41.6942 33.8956 39.2026 31.3158 39.2026 28.1246C39.2026 24.9333 41.6942 22.3535 44.7763 22.3535C47.8439 22.3535 50.3355 24.9333 50.3355 28.1246ZM48.9097 28.1246C48.9097 25.7535 47.0662 23.8298 44.7763 23.8298C42.4719 23.8298 40.6285 25.7535 40.6285 28.1246C40.6285 30.4956 42.4719 32.4193 44.7763 32.4193C47.0662 32.4193 48.9097 30.4956 48.9097 28.1246Z" fill="#333333"/>
<path fill-rule="evenodd" clip-rule="evenodd" d="M44.7766 33.5228C41.8961 33.5228 39.563 31.0921 39.563 28.1246C39.563 25.157 41.8961 22.7263 44.7766 22.7263C47.6426 22.7263 49.9758 25.157 49.9758 28.1246C49.9758 31.0921 47.6426 33.5228 44.7766 33.5228ZM44.7766 23.5614C42.3426 23.5614 40.3695 25.6193 40.3695 28.1246C40.3695 30.6447 42.3426 32.6877 44.7766 32.6877C47.1961 32.6877 49.1692 30.6447 49.1692 28.1246C49.1692 25.6193 47.1961 23.5614 44.7766 23.5614Z" fill="#0C2453"/>
<path d="M44.6322 28.0649L43.3072 28.035C42.6015 28.0201 41.6942 27.8561 40.758 27.5728C40.7388 27.7318 40.7244 27.8909 40.7148 28.0499C41.6942 28.3333 42.6015 28.4973 43.3072 28.4973C42.7311 28.9596 42.0686 29.6456 41.435 30.4956C41.5214 30.6347 41.6174 30.764 41.723 30.8833C42.3279 30.0631 42.9904 29.3324 43.5809 28.885L44.6322 28.0649Z" fill="#C4DEFF"/>
<path d="M45.2082 29.4517L44.7761 28.1543L44.344 29.4517C44.0992 30.1675 43.6383 31.0622 43.0479 31.9271C43.1919 31.9967 43.3407 32.0563 43.4943 32.1061C44.0848 31.1964 44.5313 30.3166 44.7761 29.6008C45.0065 30.3166 45.453 31.1964 46.0435 32.1061C46.1971 32.0563 46.3459 31.9967 46.49 31.9271C45.8995 31.0622 45.4386 30.1675 45.2082 29.4517Z" fill="#C4DEFF"/>
<path d="M48.7799 27.5728C47.8438 27.8561 46.9365 28.0201 46.2308 28.035L44.9058 28.0649L45.9571 28.885C46.5476 29.3324 47.2101 30.0631 47.815 30.8833C47.9206 30.764 48.0166 30.6347 48.103 30.4956C47.4694 29.6456 46.8069 28.9596 46.2308 28.4973C46.9365 28.4973 47.8438 28.3333 48.8232 28.0499C48.8232 27.8909 48.8088 27.7318 48.7799 27.5728Z" fill="#C4DEFF"/>
<path d="M43.8837 26.7377C43.322 26.3202 42.5155 25.9026 41.5793 25.5448C41.4833 25.674 41.3921 25.8082 41.3057 25.9474C42.2274 26.2904 43.0483 26.7079 43.6244 27.1255L44.719 27.9307L44.3301 26.6035C44.1285 25.9176 43.9989 24.993 43.9557 24.0088C43.802 24.0486 43.6532 24.0933 43.5092 24.143C43.5524 25.157 43.682 26.0667 43.8837 26.7377Z" fill="#C4DEFF"/>
<path d="M45.6981 26.7079C45.8997 26.0368 46.0294 25.1421 46.0726 24.1579C45.9286 24.0982 45.7749 24.0535 45.6117 24.0237C45.5829 24.993 45.4533 25.8728 45.2661 26.5737L44.8916 27.8561L45.9574 27.0956C46.5334 26.6781 47.34 26.2754 48.2329 25.9474C48.1465 25.8082 48.0553 25.674 47.9593 25.5447C47.0519 25.8877 46.2598 26.3053 45.6981 26.7079Z" fill="#C4DEFF"/>
<path d="M45.7124 28.1246C45.7124 28.6614 45.2947 29.1088 44.7762 29.1088C44.2433 29.1088 43.8257 28.6614 43.8257 28.1246C43.8257 27.5878 44.2433 27.1404 44.7762 27.1404C45.2947 27.1404 45.7124 27.5878 45.7124 28.1246Z" fill="#A6CDFF"/>
<path fill-rule="evenodd" clip-rule="evenodd" d="M48.9531 28.1246C48.9531 30.5255 47.0808 32.4641 44.7765 32.4641C42.4577 32.4641 40.5854 30.5255 40.5854 28.1246C40.5854 25.7238 42.4577 23.7852 44.7765 23.7852C47.0808 23.7852 48.9531 25.7238 48.9531 28.1246ZM48.7083 28.1246C48.7083 25.8729 46.9512 24.0387 44.7765 24.0387C42.5874 24.0387 40.8303 25.8729 40.8303 28.1246C40.8303 30.3764 42.5874 32.2106 44.7765 32.2106C46.9512 32.2106 48.7083 30.3764 48.7083 28.1246Z" fill="#D9EAFF"/>
<path d="M51.8333 15.9114C51.718 15.3894 50.4651 13.7789 50.3354 13.2719C49.1689 8.321 44.6466 1.41662 43.264 0.671002C41.1612 -0.477244 27.3064 0.417493 22.8705 0.909598C16.2023 1.6403 8.10825 12.6307 8.10825 12.6307C8.10825 12.6307 3.42755 15.5833 2.33298 18.6254C1.62728 20.6236 0.489504 21.578 0.115047 23.0842C-0.273811 24.5903 0.907167 30.8535 1.90092 30.8535C1.97293 30.8535 2.40499 30.8535 3.1251 30.8535C3.0963 30.0482 3.0819 29.1535 3.0819 28.1245C3.0819 24.7096 5.7607 21.9359 9.0588 21.9359C12.3569 21.9359 15.0357 24.7096 15.0357 28.1245C15.0357 29.1535 15.0213 30.0631 14.9925 30.8535C22.4528 30.8535 31.699 30.8535 38.8425 30.8535C38.8137 30.0482 38.7993 29.1535 38.7993 28.1245C38.7993 24.7096 41.4637 21.9359 44.7762 21.9359C48.0743 21.9359 50.7387 24.7096 50.7387 28.1245C50.7387 29.0342 50.7387 29.8394 50.7099 30.5552C51.8765 29.4517 52.8414 25.5149 52.8558 24.5903C52.8702 24.0385 53.1583 21.757 51.8333 15.9114Z" fill="#C4DCFF"/>
<g style="mix-blend-mode:overlay" opacity="0.4">
<path d="M52.6401 25.9473C52.6401 25.9473 51.6895 26.2604 50.5518 26.5438C50.6814 27.0508 50.739 27.5727 50.739 28.1245C50.739 29.0341 50.739 29.8394 50.7102 30.5552C51.5455 29.7648 52.28 27.4832 52.6401 25.9473Z" fill="#0C2453"/>
<path d="M14.9209 26.9463C14.9977 27.3241 15.0361 27.7168 15.0361 28.1244C15.0361 29.1533 15.0217 30.063 14.9929 30.8533C22.4532 30.8533 31.6994 30.8533 38.8429 30.8533C38.8141 30.048 38.7997 29.1533 38.7997 28.1244C38.7997 27.7168 38.8333 27.3241 38.9005 26.9463C32.1171 26.9463 22.7413 26.9463 14.9209 26.9463Z" fill="#0C2453"/>
<path d="M0.374512 26.9463C0.734566 28.9147 1.35386 30.8533 1.90114 30.8533C1.97315 30.8533 2.40522 30.8533 3.12533 30.8533C3.09652 30.048 3.08212 29.1533 3.08212 28.1244C3.08212 27.7168 3.12053 27.3241 3.19734 26.9463C1.45468 26.9463 0.417718 26.9463 0.374512 26.9463Z" fill="#0C2453"/>
</g>
<path d="M9.05886 21.2053C5.47272 21.2053 2.56348 24.3071 2.56348 28.1246C2.56348 29.1387 2.57788 30.0334 2.60668 30.8536C2.76031 30.8536 2.93313 30.8536 3.12516 30.8536C3.09636 30.0483 3.08195 29.1536 3.08195 28.1246C3.08195 24.7097 5.76076 21.936 9.05886 21.936C12.357 21.936 15.0358 24.7097 15.0358 28.1246C15.0358 29.1536 15.0214 30.0632 14.9925 30.8536C15.1654 30.8536 15.3382 30.8536 15.511 30.8536C15.5398 30.0483 15.5542 29.1387 15.5542 28.1246C15.5542 24.3071 12.645 21.2053 9.05886 21.2053Z" fill="#D4E5FF"/>
<path d="M44.7764 21.2053C41.1758 21.2053 38.2666 24.3071 38.2666 28.1246C38.2666 29.1387 38.281 30.0334 38.3098 30.8536C38.4826 30.8536 38.6603 30.8536 38.8427 30.8536C38.8139 30.0483 38.7995 29.1536 38.7995 28.1246C38.7995 24.7097 41.4639 21.936 44.7764 21.936C48.0745 21.936 50.7389 24.7097 50.7389 28.1246C50.7389 29.0343 50.7389 29.8395 50.7101 30.5553C50.8973 30.3764 51.0701 30.1378 51.2574 29.8395C51.2574 29.3027 51.2718 28.736 51.2718 28.1246C51.2718 24.3071 48.3625 21.2053 44.7764 21.2053Z" fill="#D4E5FF"/>
<path d="M37.5753 1.08862C33.053 1.14827 27.9115 1.44652 25.7655 1.71494C20.7968 2.35617 14.6471 11.3035 13.5957 12.8842L40.1533 11.0948C40.1533 11.0948 39.3468 2.89301 37.5753 1.08862Z" fill="#333333"/>
<path d="M15.9434 12.7203L39.7934 11.1097C39.7357 10.6325 38.9436 3.11675 37.273 1.41675C32.8803 1.46148 27.8828 1.75973 25.7944 2.02815C22.3667 2.46061 18.3485 6.99394 15.9434 10.1255V12.7203Z" fill="#0C2453"/>
<path d="M21.2144 2.22192L19.0108 2.26666C13.4372 5.38333 8.1084 12.6307 8.1084 12.6307L11.0608 12.8842C11.0608 12.8842 15.5399 6.6807 21.2144 2.22192Z" fill="#0C2453"/>
<g style="mix-blend-mode:overlay" opacity="0.6">
<path d="M39.9806 11.0948C39.5773 13.6746 36.5097 19.5947 33.9173 24.143C32.3186 26.9316 29.395 28.6614 26.2553 28.6614H19.3855C18.4637 28.6614 17.6716 28.0649 17.398 27.1553C16.7355 24.9632 15.6121 21.0711 15.5113 19.6097C15.3817 17.8351 15.6985 14.2562 15.8137 13.093C15.8281 12.8395 15.8425 12.7649 15.8425 12.7351V9.78247C15.7849 9.85206 15.7321 9.92165 15.6841 9.99124V12.7351C15.6841 12.75 15.6697 12.8991 15.6553 13.0781C15.5401 14.2562 15.2233 17.8351 15.3529 19.6246C15.4537 21.1009 16.5915 25.0079 17.254 27.2149C17.542 28.1842 18.4061 28.8254 19.3855 28.8254H26.2553C29.4382 28.8254 32.4338 27.0658 34.0469 24.2176C36.6537 19.6693 39.7502 13.6895 40.1534 11.0948H39.9806Z" fill="#0C2453"/>
</g>
<path d="M1.61328 20.1912C1.61328 20.1912 2.72225 20.0421 3.12551 19.9526C3.52877 19.8631 5.09861 17.9842 5.34344 17.7307C5.57388 17.4921 6.17877 16.8359 6.25078 16.5973C6.32279 16.3438 3.39915 16.8508 3.0823 17.2237C2.01654 18.4614 1.61328 20.1912 1.61328 20.1912Z" fill="#0C2453"/>
<path d="M3.0823 17.2088C2.96709 17.348 2.86147 17.4822 2.76546 17.6115C3.62959 17.2983 5.54507 16.8957 5.50187 17.0597C5.44426 17.2536 4.63774 17.6264 4.42171 17.8352C4.20567 18.0588 3.01029 19.8036 2.60703 19.908C2.391 19.9676 1.97334 20.0571 1.62768 20.1316C1.61808 20.1714 1.61328 20.1913 1.61328 20.1913C1.61328 20.1913 2.72225 20.0422 3.12551 19.9527C3.52877 19.8632 5.09861 17.9843 5.34344 17.7308C5.57388 17.4922 6.17877 16.836 6.25078 16.5974C6.32279 16.3439 3.39915 16.8509 3.0823 17.2088Z" fill="#0C2453"/>
<g style="mix-blend-mode:overlay" opacity="0.2">
<path d="M4.60889 16.2841C4.60889 16.2841 8.94394 14.7482 11.0467 14.5394C13.135 14.3157 47.1385 12.392 47.5418 12.4368C47.945 12.4815 46.8217 10.9903 46.2744 10.9306C45.7127 10.871 12.2996 13.0631 11.2915 13.2719C10.2833 13.4956 6.89883 14.778 4.60889 16.2841Z" fill="white"/>
</g>
<g style="mix-blend-mode:overlay" opacity="0.6">
<path fill-rule="evenodd" clip-rule="evenodd" d="M4.10474 18.715C3.70147 19.2965 3.25501 19.6097 3.09658 19.4158C2.93816 19.2369 3.13979 18.6255 3.54305 18.0439C3.94631 17.4623 4.40718 17.1492 4.5656 17.343C4.70963 17.522 4.508 18.1483 4.10474 18.715ZM4.17675 17.6711C4.09033 17.5518 3.81669 17.7457 3.57185 18.0886C3.34142 18.4316 3.2118 18.7895 3.31262 18.9088C3.39903 19.0132 3.67267 18.8343 3.9031 18.4913C4.14794 18.1483 4.26316 17.7755 4.17675 17.6711Z" fill="#D6E7FF"/>
</g>
<g style="mix-blend-mode:overlay" opacity="0.6">
<path fill-rule="evenodd" clip-rule="evenodd" d="M2.83729 19.1025C2.59245 19.535 2.2756 19.7736 2.16038 19.6543C2.04517 19.5201 2.16038 19.0727 2.41962 18.6551C2.67886 18.2227 2.98131 17.9692 3.09653 18.1034C3.21174 18.2227 3.09653 18.6701 2.83729 19.1025ZM2.83729 18.3569C2.76528 18.2823 2.59245 18.4166 2.43403 18.685C2.2756 18.9385 2.21799 19.192 2.29 19.2665C2.36201 19.3411 2.53484 19.2069 2.69326 18.9534C2.85169 18.685 2.9093 18.4315 2.83729 18.3569Z" fill="#D6E7FF"/>
</g>
<path d="M36.2792 12.7202C36.9561 13.1377 39.03 13.0631 39.4332 13.0333C39.7069 12.2877 39.8941 11.6167 39.9805 11.0947L35.4438 11.4079C35.5447 11.8105 35.7895 12.4368 36.2792 12.7202Z" fill="#333333"/>
<path d="M37.3446 12.9291C37.3638 12.9489 37.383 12.9738 37.4022 13.0036C38.2231 13.0931 39.1737 13.0484 39.4329 13.0334C39.5769 12.6358 39.6969 12.2679 39.793 11.9299L37.7479 12.0791C37.3446 12.094 37.1286 12.5712 37.3446 12.9291Z" fill="#262626"/>
<path d="M43.7828 1.08862C43.7684 1.08862 41.997 1.08862 41.3201 1.08862C40.6288 1.08862 46.044 9.82722 46.8793 10.4386C47.7002 11.05 49.803 11.5272 49.8318 11.5421C48.3771 7.39652 45.3239 2.59476 43.7828 1.08862Z" fill="#0C2453"/>
<path d="M50.9548 15.5832C51.3005 15.6131 52.2222 15.8069 52.2942 15.8815C52.3807 15.956 52.5103 18.8341 52.4239 18.8639C52.3375 18.8788 51.9054 18.849 51.7758 18.7148C51.6173 18.5359 50.0331 15.4938 50.9548 15.5832Z" fill="#D12E34"/>
<g style="mix-blend-mode:overlay" opacity="0.3">
<path d="M52.3661 17.4325C52.2797 17.4176 51.3724 17.1044 51.3435 17.0895C51.0843 16.7316 50.8827 16.314 50.9547 15.8816C51.2427 15.9114 52.006 16.0456 52.2509 16.1053C52.3085 16.5526 52.3373 16.8807 52.3661 17.4325Z" fill="white"/>
</g>
<g style="mix-blend-mode:overlay" opacity="0.3">
<path d="M15.2807 7.81396C13.5668 8.41046 12.0258 8.99203 10.6288 9.5587C9.07334 11.3184 8.1084 12.6306 8.1084 12.6306L11.0608 12.8841C11.0608 12.8841 12.7027 10.6026 15.2807 7.81396Z" fill="white"/>
</g>
<g style="mix-blend-mode:overlay" opacity="0.3">
<path d="M39.5629 9.27552C39.2605 7.09833 38.6412 3.59394 37.6762 1.96851C30.3599 3.2957 24.095 4.93605 18.939 6.5764C17.8156 7.76938 16.7787 9.03693 15.9434 10.1255V12.422C23.5765 11.229 32.2898 10.1255 39.5629 9.27552Z" fill="white"/>
</g>
<g style="mix-blend-mode:overlay" opacity="0.3">
<path d="M45.482 8.60441C46.5334 8.48511 47.5272 8.36581 48.4345 8.27634C46.9079 5.14476 44.9204 2.20704 43.7826 1.08862C43.7826 1.08862 43.4369 1.08862 42.9905 1.08862C42.4144 1.1781 41.8479 1.26757 41.291 1.35704C41.5791 2.38599 43.8834 6.24827 45.482 8.60441Z" fill="white"/>
</g>
<path d="M18.1757 12.8096C18.1757 12.9289 17.4556 13.0333 16.9083 13.0333C16.3755 13.0333 16.2314 12.9289 16.2314 12.8096C16.2314 12.6754 16.6635 12.571 17.1964 12.571C17.7437 12.571 18.1757 12.6754 18.1757 12.8096Z" fill="#333333"/>
<path d="M18.593 12.7351C18.3481 12.7351 16.4326 12.7798 16.231 12.7798C16.015 12.7798 16.4182 11.6912 16.9223 11.0798C17.484 10.379 17.8729 10.1255 18.0025 10.2298C18.3913 10.5281 18.9818 12.7351 18.593 12.7351Z" fill="#D4E5FF"/>
</g>
<defs>
<clipPath id="clip0_813_2577">
<rect width="53" height="34" fill="white"/>
</clipPath>
</defs>
</svg>
