<svg width="15" height="14" viewBox="0 0 15 14" fill="none" xmlns="http://www.w3.org/2000/svg">
<path d="M6.82465 0.463524C6.97433 0.00286841 7.62603 0.0028702 7.7757 0.463526L9.14121 4.66612C9.20815 4.87213 9.40012 5.01161 9.61674 5.01161H14.0356C14.52 5.01161 14.7214 5.63141 14.3295 5.91612L10.7546 8.51346C10.5793 8.64078 10.506 8.86646 10.5729 9.07248L11.9384 13.2751C12.0881 13.7357 11.5609 14.1188 11.169 13.8341L7.59407 11.2367C7.41883 11.1094 7.18153 11.1094 7.00628 11.2367L3.43135 13.8341C3.03949 14.1188 2.51225 13.7357 2.66193 13.2751L4.02743 9.07248C4.09437 8.86646 4.02104 8.64078 3.8458 8.51346L0.270857 5.91611C-0.121 5.63141 0.0803896 5.01161 0.564751 5.01161H4.98362C5.20023 5.01161 5.39221 4.87213 5.45914 4.66612L6.82465 0.463524Z" fill="#FDA90F"/>
</svg>
