<svg width="123" height="60" viewBox="0 0 123 60" fill="none" xmlns="http://www.w3.org/2000/svg">
<g clip-path="url(#clip0_813_352)">
<path d="M116.561 42.0386C116.715 42.5418 116.792 43.1224 116.792 43.7418C116.792 45.5999 116.06 47.1095 115.096 47.1095C114.595 47.1095 114.132 46.6063 113.823 45.8708C113.939 45.3676 113.978 44.8257 113.978 44.245C113.978 43.4708 113.862 42.6966 113.669 42.0773C113.669 42.0515 113.669 42.0386 113.669 42.0386H113.014C113.284 42.6192 113.476 43.3934 113.476 44.245C113.476 46.1031 112.705 47.6128 111.78 47.6128C110.816 47.6128 110.083 46.1031 110.083 44.245C110.083 43.3934 110.238 42.6192 110.507 42.0386H106.497C106.266 42.6579 106.15 43.4321 106.15 44.245C106.15 46.5676 107.114 48.4257 108.348 48.4257H111.78C112.165 48.4257 112.512 48.2321 112.821 47.8837H115.096C116.33 47.8837 117.332 46.0257 117.332 43.7418C117.332 43.1224 117.255 42.5418 117.139 42.0386H116.561Z" fill="white"/>
<path d="M83.7095 44.3611H82.8226C82.8998 44.8256 82.9383 45.303 82.9383 45.7933C82.9383 48.8901 81.6659 51.4062 80.1236 51.4062C79.2367 51.4062 78.4656 50.5933 77.9258 49.3933C78.1186 48.5417 78.2342 47.6127 78.2342 46.6837C78.2342 45.8321 78.1571 45.0579 78.0029 44.3611H77.1161C77.2703 45.0579 77.3474 45.8321 77.3474 46.6837C77.3474 49.7417 76.1136 52.2579 74.5327 52.2579C72.9904 52.2579 71.7179 49.7417 71.7179 46.6837C71.7179 45.8321 71.8336 45.0579 71.9879 44.3611H71.0625H70.8311H66.127C65.9728 45.0579 65.1631 45.8321 65.1631 46.6837C65.1631 50.4772 66.8211 53.6127 68.8647 53.6127H74.5327C75.1882 53.6127 75.8051 53.2643 76.3449 52.7224H80.1236C82.1672 52.7224 83.8252 49.6256 83.8252 45.7933C83.7994 45.303 83.7609 44.8256 83.7095 44.3611Z" fill="white"/>
<path d="M67.2837 37.897V42.3873L71.5251 39.6776L72.142 38.9808L109.775 39.8325L108.926 40.8002L67.2837 42.3873V45.7937L118.142 42.9679L119.221 38.9421L67.2837 37.897Z" fill="white"/>
<path d="M6.90186 49.3549C7.21032 53.5355 9.13822 56.7484 11.4517 56.7484C13.7652 56.7484 15.6545 53.6129 16.0015 49.471C13.0326 50.1678 9.90938 49.9742 6.90186 49.3549Z" fill="white"/>
<path d="M3.89453 48.6193C4.04876 53.1483 6.05378 56.7483 8.48293 56.7483H11.4519V54.7741C12.2231 53.5354 12.8014 51.8322 12.9942 49.8967C9.98669 50.0515 6.90205 49.4709 3.89453 48.6193Z" fill="white"/>
<path fill-rule="evenodd" clip-rule="evenodd" d="M43.0305 50.6323C43.0305 55.4323 40.987 59.3032 38.4421 59.3032H35.4732C32.9283 59.3032 30.8848 55.4323 30.8848 50.6323C30.8848 45.871 32.9283 42 35.4732 42H38.4421C40.987 42 43.0305 45.871 43.0305 50.6323ZM41.9895 50.6323C41.9895 46.9935 40.5628 44.0129 38.7506 44.0129C36.9384 44.0129 35.5117 46.9935 35.5117 50.6323C35.5117 54.3097 36.9384 57.2903 38.7506 57.2903C40.5628 57.2903 41.9895 54.3097 41.9895 50.6323Z" fill="white"/>
<path d="M101.099 45.9872L88.9919 46.8775C87.6809 46.9936 86.6013 45.9872 86.5242 44.671C86.4471 43.3936 87.4496 42.271 88.7606 42.1549L100.829 41.2646C102.14 41.1872 103.22 42.1549 103.297 43.471C103.374 44.7872 102.372 45.9098 101.099 45.9872Z" fill="white"/>
<path d="M19.78 33.3289H8.44396L7.55713 34.1418H19.78V33.3289Z" fill="white"/>
<path d="M5.24408 33.3289V34.1418H19.7804V33.3289H5.24408ZM4.81994 37.1224H19.3177V36.2708H4.81994V37.1224ZM4.3958 40.1031H18.8936V39.2514H4.3958V40.1031ZM3.93311 43.0837H18.4695V42.2321H3.93311V43.0837Z" fill="white"/>
<path d="M18.9319 39.2517H4.39551V40.0646H18.9319V39.2517Z" fill="white"/>
<path fill-rule="evenodd" clip-rule="evenodd" d="M69.2887 39.6773H71.5251V50.6321L43.9947 52.9934H41.7969C41.9126 52.2967 41.9897 51.4838 41.9897 50.6321C41.9897 46.9934 40.563 44.0128 38.7508 44.0128C36.9386 44.0128 35.5119 46.9934 35.5119 50.6321C35.5119 51.4838 35.5891 52.2967 35.7047 52.9934H32.1574V52.3741C21.9781 54.0386 0.0771484 51.8321 0.0771484 51.8321V44.6321L1.15677 43.8192L0.385614 42.9676C0.46273 42.6579 0.539845 42.3612 0.616961 42.0773C0.642666 41.9999 0.668373 41.9225 0.694079 41.845C0.745489 41.6644 0.809753 41.4838 0.886869 41.3031C0.912574 41.2257 0.938278 41.1354 0.963983 41.0321C1.0411 40.8773 1.10536 40.7354 1.15677 40.6063C1.20818 40.5289 1.24674 40.4515 1.27245 40.3741C1.34956 40.245 1.41383 40.116 1.46524 39.987C1.51665 39.9354 1.55521 39.8838 1.58091 39.8321C1.65803 39.6773 1.73514 39.5354 1.81226 39.4063C1.83796 39.3805 1.86367 39.3547 1.88938 39.3289C1.96649 39.1741 2.05646 39.045 2.15928 38.9418C2.18499 38.916 2.19784 38.8902 2.19784 38.8644C2.30066 38.7354 2.40348 38.6192 2.5063 38.516C2.5063 38.516 2.5063 38.5031 2.5063 38.4773C2.68624 38.2967 2.86618 38.1289 3.04612 37.9741C2.81477 39.987 2.66054 42.387 2.85333 45.0192C2.85333 45.0192 6.8248 46.1805 20.3201 45.1741C20.4743 43.3934 22.7492 30.9289 22.7492 30.9289C22.7492 30.9289 13.5339 29.3418 4.39565 31.3934C6.86336 30.0386 10.295 28.6063 13.3411 27.716V22.4902L14.1123 21.716H15.3076V24.8902L16.8113 19.7031L15.3847 19.7805L17.4668 14.245C17.4668 14.245 18.4308 14.0128 20.1273 13.6644C21.284 11.4579 24.7543 5.99988 31.8104 3.59988C31.8361 3.59988 31.8746 3.58698 31.9261 3.56117C29.8439 4.99343 28.1088 6.69666 26.7207 8.16763C30.8464 7.04505 37.7097 6.34827 44.0333 6.38698C45.6913 3.32892 49.1229 1.31601 52.9402 0.270853C53.5571 0.193433 54.1355 0.193433 54.6367 0.154724C54.6367 0.154724 55.5621 -0.0388247 57.7213 0.61924H61.2687L67.3223 2.24505L65.163 2.51601V38.9805H69.2887V39.6773ZM50.0869 8.55472C50.0869 8.55472 57.49 -0.116244 61.7314 8.55472C61.7314 8.55472 61.4229 4.21924 58.1455 3.52247C54.8681 2.8644 51.5521 5.88376 50.0869 8.55472ZM44.5345 30.6579C44.5345 30.7354 44.5731 30.8128 44.6502 30.8128C44.7659 30.7741 44.8815 30.7741 45.0743 30.7354C45.6141 30.6192 45.9997 30.3096 46.1539 29.8838L49.1229 26.3225L52.6703 26.1289V18.7741L46.1539 18.1547L44.5345 26.5547L48.1204 26.3612L46.1925 28.7225C45.9997 28.1418 45.4985 27.6773 44.7273 27.6773C44.7016 27.6773 44.6759 27.6773 44.6502 27.6773C44.5731 27.716 44.5345 27.7547 44.5345 27.8321V30.6579ZM28.3016 17.4192L25.6411 26.6321C31.5019 26.4773 36.7844 26.5547 36.7844 26.5547C40.4088 26.7483 41.0257 25.1999 41.0257 25.1999L43.0308 16.2192L28.3016 17.4192ZM24.0988 26.6709L26.7593 17.5354L18.0452 18.2321L15.4232 27.1741C17.9295 26.9031 21.0527 26.7483 24.0988 26.6709ZM29.574 39.0967C28.6872 38.3999 25.1784 39.8321 23.1734 41.0709C21.9781 42.3096 21.9781 44.3999 21.9781 44.3999C25.2555 43.8967 28.4173 43.3934 29.0728 43.2386C29.6897 43.1225 30.4608 39.7934 29.574 39.0967ZM51.3978 33.1354C46.9251 32.1676 41.527 32.516 41.527 32.516C25.4483 34.4902 22.4793 40.8386 22.4793 40.8386C28.4173 35.6128 51.3978 33.1354 51.3978 33.1354ZM65.78 44.9031L63.3123 43.6644L43.3392 45.2128L43.9947 46.1418L65.78 44.9031Z" fill="white"/>
<path fill-rule="evenodd" clip-rule="evenodd" d="M72.1421 38.9805H65.1631V2.51595L72.1421 1.58691V38.9805ZM66.7054 3.90949V37.4321H70.5998V3.40627L66.7054 3.90949Z" fill="white"/>
<path d="M19.3562 37.1226V36.271H5.24396L4.81982 36.6581V37.1226H19.3562Z" fill="white"/>
<path d="M18.4695 42.1936H3.97168V43.0065H18.4695V42.1936Z" fill="white"/>
<path d="M50.6267 26.1676H47.812V18.8127H50.6267V26.1676Z" fill="white"/>
<path d="M46.8867 25.7031L47.8121 26.1676V18.8127L46.8867 19.2773V25.7031Z" fill="white"/>
<path d="M120.262 33.2127L120.956 29.2643L107.885 25.3934L121.342 27.2127L121.612 25.703L75.3808 8.55466L122.846 18.7353L123.154 16.9159L122.46 16.7224L72.1419 1.58691L71.7178 36.6966L118.18 37.2772L117.023 43.0063L118.527 42.9288L120.262 33.2127Z" fill="white"/>
<path d="M117.101 52.103L54.5596 59.303H78.2342L117.062 52.103H117.101Z" fill="white"/>
</g>
<defs>
<clipPath id="clip0_813_352">
<rect width="123" height="60" fill="white"/>
</clipPath>
</defs>
</svg>
