<svg width="23" height="23" viewBox="0 0 23 23" fill="none" xmlns="http://www.w3.org/2000/svg">
<g clip-path="url(#clip0_814_2936)">
<path d="M23.1106 4.00287V6.49916H-0.110596V4.00287C-0.110596 2.63451 1.00898 1.51489 2.37739 1.51489H5.28003V3.96972C5.28003 4.42584 5.65324 4.79905 6.10936 4.79905C6.56548 4.79905 6.93868 4.42584 6.93868 3.96972V1.51489H16.0613V3.96972C16.0613 4.42584 16.4345 4.79905 16.8906 4.79905C17.3467 4.79905 17.7199 4.42584 17.7199 3.96972V1.51489H20.6226C21.991 1.51489 23.1106 2.63451 23.1106 4.00287Z" fill="#0C2453"/>
<path d="M16.4761 16.4592H22.6048L15.6467 22.6626V17.2886C15.6467 16.8324 16.0199 16.4592 16.4761 16.4592Z" fill="#0C2453"/>
<path d="M23.1106 8.15796V14.8009H16.4759C15.1075 14.8009 13.988 15.9204 13.988 17.2889V23.1107H2.37739C1.00898 23.1107 -0.110596 21.9911 -0.110596 20.6228V8.15796H23.1106Z" fill="#0C2453"/>
<path d="M6.93868 0.718731V1.51485H5.28003V0.718731C5.28003 0.262612 5.65324 -0.110596 6.10936 -0.110596C6.56548 -0.110596 6.93868 0.262612 6.93868 0.718731Z" fill="#0C2453"/>
<path d="M17.7199 0.718731V1.51485H16.0613V0.718731C16.0613 0.262612 16.4345 -0.110596 16.8906 -0.110596C17.3467 -0.110596 17.7199 0.262612 17.7199 0.718731Z" fill="#0C2453"/>
</g>
<defs>
<clipPath id="clip0_814_2936">
<rect width="23" height="23" fill="white"/>
</clipPath>
</defs>
</svg>
