<svg width="79" height="32" viewBox="0 0 79 32" fill="none" xmlns="http://www.w3.org/2000/svg">
<g clip-path="url(#clip0_813_2645)">
<path d="M70.1239 28.1356H3.7334V21.0713H70.1239V28.1356Z" fill="#13171A"/>
<path d="M61.5366 27.35C61.5366 28.9054 62.8519 30.1692 64.4811 30.1692C66.1103 30.1692 67.434 28.9054 67.434 27.35C67.434 25.7945 66.1103 24.5388 64.4811 24.5388C62.8519 24.5388 61.5366 25.7945 61.5366 27.35Z" fill="#A6CDFF"/>
<path d="M61.8594 27.35C61.8594 28.7353 63.0304 29.8614 64.4814 29.8614C65.9324 29.8614 67.1119 28.7353 67.1119 27.35C67.1119 25.9647 65.9324 24.8467 64.4814 24.8467C63.0304 24.8467 61.8594 25.9647 61.8594 27.35Z" fill="#84B4F0"/>
<path fill-rule="evenodd" clip-rule="evenodd" d="M64.4813 22.7402C67.1542 22.7402 69.318 24.8061 69.318 27.3499C69.318 29.9018 67.1542 31.9676 64.4813 31.9676C61.8168 31.9676 59.6445 29.9018 59.6445 27.3499C59.6445 24.8061 61.8168 22.7402 64.4813 22.7402ZM64.4813 30.1691C66.1105 30.1691 67.4342 28.9053 67.4342 27.3499C67.4342 25.7944 66.1105 24.5387 64.4813 24.5387C62.852 24.5387 61.5368 25.7944 61.5368 27.3499C61.5368 28.9053 62.852 30.1691 64.4813 30.1691Z" fill="#333333"/>
<path fill-rule="evenodd" clip-rule="evenodd" d="M60.1963 27.3499C60.1963 25.0978 62.1225 23.2588 64.4815 23.2588C66.8489 23.2588 68.7666 25.0978 68.7666 27.3499C68.7666 29.6102 66.8489 31.4411 64.4815 31.4411C62.1225 31.4411 60.1963 29.6102 60.1963 27.3499ZM61.0024 27.3499C61.0024 29.1808 62.5637 30.6714 64.4815 30.6714C66.3992 30.6714 67.9605 29.1808 67.9605 27.3499C67.9605 25.519 66.3992 24.0284 64.4815 24.0284C62.5637 24.0284 61.0024 25.519 61.0024 27.3499Z" fill="#0C2453"/>
<path d="M64.2607 25.1787C64.2607 25.3003 64.3626 25.3246 64.4814 25.3246C64.6087 25.3246 64.702 25.3003 64.702 25.1787C64.702 25.0572 64.6087 24.9519 64.4814 24.9519C64.3626 24.9519 64.2607 25.0572 64.2607 25.1787Z" fill="#0C2453"/>
<path d="M64.702 29.5292C64.702 29.3995 64.6087 29.3752 64.4814 29.3752C64.3626 29.3752 64.2607 29.3995 64.2607 29.5292C64.2607 29.6507 64.3626 29.7479 64.4814 29.7479C64.6087 29.7479 64.702 29.6507 64.702 29.5292Z" fill="#0C2453"/>
<path d="M62.2073 27.5604C62.3346 27.5604 62.3601 27.4713 62.3601 27.3498C62.3601 27.2364 62.3346 27.1392 62.2073 27.1392C62.08 27.1392 61.9697 27.2364 61.9697 27.3498C61.9697 27.4713 62.08 27.5604 62.2073 27.5604Z" fill="#0C2453"/>
<path d="M66.7553 27.1392C66.628 27.1392 66.6025 27.2364 66.6025 27.3498C66.6025 27.4713 66.628 27.5604 66.7553 27.5604C66.891 27.5604 66.9929 27.4713 66.9929 27.3498C66.9929 27.2364 66.891 27.1392 66.7553 27.1392Z" fill="#0C2453"/>
<path d="M65.4315 25.365C65.3637 25.4704 65.44 25.5352 65.5419 25.6C65.6522 25.6567 65.7455 25.681 65.8134 25.5757C65.8813 25.4704 65.8473 25.3326 65.737 25.2759C65.6352 25.2192 65.4909 25.2597 65.4315 25.365Z" fill="#0C2453"/>
<path d="M63.5392 29.3427C63.5986 29.2293 63.5307 29.1644 63.4204 29.1077C63.3101 29.051 63.2167 29.0186 63.1489 29.1239C63.0895 29.2374 63.1234 29.367 63.2252 29.4318C63.3355 29.4885 63.4713 29.448 63.5392 29.3427Z" fill="#0C2453"/>
<path d="M62.4022 26.4506C62.5126 26.5073 62.5804 26.4425 62.6398 26.3372C62.7077 26.24 62.7332 26.1428 62.6229 26.078C62.5126 26.0212 62.3683 26.0536 62.3089 26.1509C62.2495 26.2562 62.2834 26.3858 62.4022 26.4506Z" fill="#0C2453"/>
<path d="M66.569 28.2573C66.4502 28.1925 66.3823 28.2654 66.3229 28.3626C66.2635 28.4679 66.2296 28.557 66.3399 28.6218C66.4587 28.6867 66.5944 28.6542 66.6538 28.5489C66.7217 28.4517 66.6793 28.314 66.569 28.2573Z" fill="#0C2453"/>
<path d="M66.3399 26.078C66.2296 26.1428 66.2635 26.24 66.3229 26.3372C66.3823 26.4425 66.4502 26.5073 66.569 26.4506C66.6793 26.3858 66.7217 26.2562 66.6538 26.1509C66.5944 26.0536 66.4587 26.0212 66.3399 26.078Z" fill="#0C2453"/>
<path d="M62.6229 28.6218C62.7332 28.557 62.7077 28.4679 62.6398 28.3626C62.5804 28.2654 62.5126 28.1925 62.4022 28.2573C62.2834 28.314 62.2495 28.4517 62.3089 28.5489C62.3683 28.6542 62.5126 28.6867 62.6229 28.6218Z" fill="#0C2453"/>
<path d="M63.1489 25.5757C63.2167 25.681 63.3101 25.6567 63.4204 25.6C63.5307 25.5352 63.5986 25.4704 63.5392 25.365C63.4713 25.2597 63.3355 25.2192 63.2252 25.2759C63.1234 25.3326 63.0895 25.4704 63.1489 25.5757Z" fill="#0C2453"/>
<path d="M65.8134 29.1239C65.7455 29.0186 65.6522 29.051 65.5419 29.1077C65.44 29.1644 65.3637 29.2293 65.4315 29.3427C65.4909 29.448 65.6352 29.4885 65.737 29.4318C65.8473 29.367 65.8813 29.2374 65.8134 29.1239Z" fill="#0C2453"/>
<path fill-rule="evenodd" clip-rule="evenodd" d="M64.4811 24.4739C66.1443 24.4739 67.4935 25.762 67.4935 27.3498C67.4935 28.9377 66.1443 30.2258 64.4811 30.2258C62.8179 30.2258 61.4688 28.9377 61.4688 27.3498C61.4688 25.762 62.8179 24.4739 64.4811 24.4739ZM64.4811 30.0556C66.0509 30.0556 67.3153 28.8486 67.3153 27.3498C67.3153 25.8592 66.0509 24.644 64.4811 24.644C62.9198 24.644 61.6469 25.8592 61.6469 27.3498C61.6469 28.8486 62.9198 30.0556 64.4811 30.0556Z" fill="#9DC2F0"/>
<g style="mix-blend-mode:overlay" opacity="0.3">
<path d="M64.4814 26.2563C63.2171 26.2563 62.1818 27.1879 62.08 28.3707C61.9357 28.0629 61.8594 27.7145 61.8594 27.35C61.8594 25.9647 63.0304 24.8467 64.4814 24.8467C65.9324 24.8467 67.1119 25.9647 67.1119 27.35C67.1119 27.7145 67.027 28.0629 66.8828 28.3707C66.781 27.1879 65.7457 26.2563 64.4814 26.2563Z" fill="#0C2453"/>
</g>
<path d="M62.6992 27.3499C62.6992 28.2897 63.4969 29.0512 64.4812 29.0512C65.4655 29.0512 66.2631 28.2897 66.2631 27.3499C66.2631 26.4102 65.4655 25.6487 64.4812 25.6487C63.4969 25.6487 62.6992 26.4102 62.6992 27.3499Z" fill="#A6CDFF"/>
<path d="M62.8521 27.3499C62.8521 28.2086 63.5818 28.9053 64.4813 28.9053C65.3807 28.9053 66.1105 28.2086 66.1105 27.3499C66.1105 26.4911 65.3807 25.7944 64.4813 25.7944C63.5818 25.7944 62.8521 26.4911 62.8521 27.3499Z" fill="#C4DEFF"/>
<path d="M63.6582 27.3498C63.6582 27.7873 64.0231 28.1356 64.4813 28.1356C64.9395 28.1356 65.3044 27.7873 65.3044 27.3498C65.3044 26.9204 64.9395 26.564 64.4813 26.564C64.0231 26.564 63.6582 26.9204 63.6582 27.3498Z" fill="#84B4F0"/>
<path d="M6.12646 27.3499C6.12646 29.0673 7.57749 30.4607 9.37641 30.4607C11.1753 30.4607 12.6348 29.0673 12.6348 27.3499C12.6348 25.6324 11.1753 24.2471 9.37641 24.2471C7.57749 24.2471 6.12646 25.6324 6.12646 27.3499Z" fill="#9DC2F0"/>
<g style="mix-blend-mode:overlay" opacity="0.3">
<path d="M6.99199 25.2437C6.8647 25.5839 6.78833 25.9647 6.78833 26.3616C6.78833 28.0791 8.12056 29.4644 9.75826 29.4644C11.1329 29.4644 12.2785 28.5004 12.6264 27.1799C12.632 27.2393 12.6348 27.296 12.6348 27.35C12.6348 29.0674 11.1753 30.4609 9.37641 30.4609C7.57749 30.4609 6.12646 29.0674 6.12646 27.35C6.12646 26.5399 6.44891 25.7945 6.99199 25.2437Z" fill="#0C2453"/>
</g>
<path fill-rule="evenodd" clip-rule="evenodd" d="M9.37629 22.7402C12.0492 22.7402 14.213 24.8061 14.213 27.3499C14.213 29.9018 12.0492 31.9676 9.37629 31.9676C6.71184 31.9676 4.53955 29.9018 4.53955 27.3499C4.53955 24.8061 6.71184 22.7402 9.37629 22.7402ZM9.37629 30.4121C11.1498 30.4121 12.5838 29.043 12.5838 27.3499C12.5838 25.6567 11.1498 24.2876 9.37629 24.2876C7.60282 24.2876 6.16877 25.6567 6.16877 27.3499C6.16877 29.043 7.60282 30.4121 9.37629 30.4121Z" fill="#333333"/>
<path fill-rule="evenodd" clip-rule="evenodd" d="M4.97266 27.3498C4.97266 25.0329 6.94978 23.1453 9.37663 23.1453C11.8035 23.1453 13.7806 25.0329 13.7806 27.3498C13.7806 29.6668 11.8035 31.5544 9.37663 31.5544C6.94978 31.5544 4.97266 29.6668 4.97266 27.3498ZM5.80424 27.3498C5.80424 29.2293 7.40799 30.7605 9.37663 30.7605C11.3453 30.7605 12.949 29.2293 12.949 27.3498C12.949 25.4703 11.3453 23.9392 9.37663 23.9392C7.40799 23.9392 5.80424 25.4703 5.80424 27.3498Z" fill="#0C2453"/>
<path d="M7.14502 27.3499C7.14502 28.5327 8.14631 29.4886 9.37671 29.4886C10.6156 29.4886 11.6169 28.5327 11.6169 27.3499C11.6169 26.1752 10.6156 25.2192 9.37671 25.2192C8.14631 25.2192 7.14502 26.1752 7.14502 27.3499Z" fill="#D9EAFF"/>
<path d="M7.62842 27.3498C7.62842 28.2733 8.40908 29.0186 9.37643 29.0186C10.3438 29.0186 11.1244 28.2733 11.1244 27.3498C11.1244 26.4262 10.3438 25.6809 9.37643 25.6809C8.40908 25.6809 7.62842 26.4262 7.62842 27.3498Z" fill="#C4DEFF"/>
<path d="M8.52783 27.3499C8.52783 27.7955 8.90968 28.16 9.37638 28.16C9.84308 28.16 10.2249 27.7955 10.2249 27.3499C10.2249 26.9044 9.84308 26.5398 9.37638 26.5398C8.90968 26.5398 8.52783 26.9044 8.52783 27.3499Z" fill="#84B4F0"/>
<path d="M9.11328 24.7817C9.11328 24.9276 9.23208 24.9519 9.37633 24.9519C9.52059 24.9519 9.63938 24.9276 9.63938 24.7817C9.63938 24.6359 9.52059 24.5144 9.37633 24.5144C9.23208 24.5144 9.11328 24.6359 9.11328 24.7817Z" fill="#0C2453"/>
<path d="M9.63938 29.926C9.63938 29.7721 9.52059 29.7478 9.37633 29.7478C9.23208 29.7478 9.11328 29.7721 9.11328 29.926C9.11328 30.0719 9.23208 30.1853 9.37633 30.1853C9.52059 30.1853 9.63938 30.0719 9.63938 29.926Z" fill="#0C2453"/>
<path d="M6.68676 27.6009C6.8395 27.6009 6.86496 27.4875 6.86496 27.3498C6.86496 27.2121 6.8395 27.0986 6.68676 27.0986C6.53402 27.0986 6.40674 27.2121 6.40674 27.3498C6.40674 27.4875 6.53402 27.6009 6.68676 27.6009Z" fill="#0C2453"/>
<path d="M12.0664 27.0986C11.9136 27.0986 11.8882 27.2121 11.8882 27.3498C11.8882 27.4875 11.9136 27.6009 12.0664 27.6009C12.2276 27.6009 12.3464 27.4875 12.3464 27.3498C12.3464 27.2121 12.2276 27.0986 12.0664 27.0986Z" fill="#0C2453"/>
<path d="M10.4967 25.0004C10.4204 25.13 10.5052 25.2029 10.6325 25.2758C10.7598 25.3406 10.8786 25.3812 10.955 25.2515C11.0313 25.1219 10.9889 24.968 10.8616 24.8951C10.7343 24.8222 10.5731 24.8708 10.4967 25.0004Z" fill="#0C2453"/>
<path d="M8.25657 29.7074C8.33294 29.5778 8.24809 29.4968 8.12081 29.432C7.99352 29.3591 7.88321 29.3267 7.80684 29.4563C7.72199 29.5778 7.76441 29.7398 7.8917 29.8128C8.01898 29.8776 8.1802 29.829 8.25657 29.7074Z" fill="#0C2453"/>
<path d="M6.91545 26.2804C7.04273 26.3533 7.12759 26.2723 7.20396 26.1508C7.27184 26.0293 7.30578 25.924 7.1785 25.8511C7.04273 25.7781 6.87302 25.8106 6.80514 25.9321C6.72877 26.0536 6.77968 26.2075 6.91545 26.2804Z" fill="#0C2453"/>
<path d="M11.8373 28.4193C11.71 28.3463 11.6251 28.4274 11.5488 28.5489C11.4809 28.6704 11.4469 28.7838 11.5742 28.8567C11.71 28.9296 11.8797 28.8891 11.9476 28.7676C12.024 28.6461 11.973 28.4922 11.8373 28.4193Z" fill="#0C2453"/>
<path d="M11.5742 25.8511C11.4469 25.924 11.4809 26.0293 11.5488 26.1508C11.6251 26.2723 11.71 26.3533 11.8373 26.2804C11.973 26.2075 12.024 26.0536 11.9476 25.9321C11.8797 25.8106 11.71 25.7781 11.5742 25.8511Z" fill="#0C2453"/>
<path d="M7.1785 28.8567C7.30578 28.7838 7.27184 28.6704 7.20396 28.5489C7.12759 28.4274 7.04273 28.3463 6.91545 28.4193C6.77968 28.4922 6.72877 28.6461 6.80514 28.7676C6.87302 28.8891 7.04273 28.9296 7.1785 28.8567Z" fill="#0C2453"/>
<path d="M7.80684 25.2515C7.88321 25.3812 7.99352 25.3406 8.12081 25.2758C8.24809 25.2029 8.33294 25.13 8.25657 25.0004C8.1802 24.8708 8.01898 24.8222 7.8917 24.8951C7.76441 24.968 7.72199 25.1219 7.80684 25.2515Z" fill="#0C2453"/>
<path d="M10.955 29.4563C10.8786 29.3267 10.7598 29.3591 10.6325 29.432C10.5052 29.4968 10.4204 29.5778 10.4967 29.7074C10.5731 29.829 10.7343 29.8776 10.8616 29.8128C10.9889 29.7398 11.0313 29.5778 10.955 29.4563Z" fill="#0C2453"/>
<path fill-rule="evenodd" clip-rule="evenodd" d="M9.37666 24.2146C11.1926 24.2146 12.669 25.6161 12.669 27.3498C12.669 29.0835 11.1926 30.4931 9.37666 30.4931C7.56076 30.4931 6.09277 29.0835 6.09277 27.3498C6.09277 25.6161 7.56076 24.2146 9.37666 24.2146ZM9.37666 30.3068C11.0907 30.3068 12.4739 28.9862 12.4739 27.3498C12.4739 25.7214 11.0907 24.3928 9.37666 24.3928C7.67108 24.3928 6.27945 25.7214 6.27945 27.3498C6.27945 28.9862 7.67108 30.3068 9.37666 30.3068Z" fill="#D9EAFF"/>
<path d="M78.1856 4.36665C78.1856 4.36665 77.6935 0.0324707 77.1589 0.0324707C76.6328 0.0324707 33.8234 0.0324707 30.0983 0.0324707C24.2009 0.0324707 18.6514 5.9707 18.6514 5.9707L78.1856 4.36665Z" fill="#E8F2FF"/>
<path d="M4.12379 16.3728C5.65118 15.1414 11.4892 13.7156 11.4892 13.7156C11.4892 13.7156 17.1236 5.70341 20.1529 4.3667C22.7749 3.20822 30.3864 2.85986 30.3864 2.85986H77.71C77.9731 2.85986 78.1852 3.0624 78.1852 3.31353V28.3707H69.6488C69.6545 28.1061 69.6573 27.8307 69.6573 27.5444C69.6573 24.6037 67.3408 22.2219 64.4811 22.2219C61.63 22.2219 59.3135 24.6037 59.3135 27.5444C59.3135 27.8307 59.3135 28.1061 59.3135 28.3707H14.544C14.5496 28.1061 14.5525 27.8307 14.5525 27.5444C14.5525 24.6037 12.2359 22.2219 9.37631 22.2219C6.52518 22.2219 4.20864 24.6037 4.20864 27.5444C4.20864 27.8307 4.20864 28.1061 4.20864 28.3707H1.72239L1.19629 20.869C1.19629 20.869 3.01219 17.2558 4.12379 16.3728Z" fill="#D9EAFF"/>
<path d="M59.6703 25.6001C59.4412 26.1996 59.3139 26.8558 59.3139 27.5444C59.3139 27.8306 59.3139 28.1061 59.3139 28.3707H14.5444C14.55 28.1061 14.5529 27.8306 14.5529 27.5444C14.5529 26.8558 14.4171 26.1996 14.188 25.6001H59.6703Z" fill="#474963"/>
<g style="mix-blend-mode:overlay" opacity="0.2">
<path d="M59.3645 26.7505C59.3305 27.0097 59.3136 27.2744 59.3136 27.5444C59.3136 27.8307 59.3136 28.1061 59.3136 28.3707H14.5441C14.5497 28.1061 14.5526 27.8307 14.5526 27.5444C14.5469 27.2744 14.5271 27.0097 14.4932 26.7505H59.3645Z" fill="#0C2453"/>
</g>
<path d="M1.1966 20.8689C1.00144 20.8689 0.16137 21.5818 0.110457 21.7276C-0.144108 22.4405 0.814754 28.3707 1.0778 28.3707C1.33237 28.3707 3.68285 28.3707 3.68285 28.3707L4.66717 23.9393L7.84075 21.4603C7.84075 21.4603 3.85256 21.5008 3.75922 21.4684C3.39435 21.355 1.50208 20.8689 1.1966 20.8689Z" fill="#474963"/>
<path d="M78.1852 20.8689C78.3125 20.8689 78.8895 21.5818 78.915 21.7276C79.0762 22.4405 78.3464 28.3707 78.1852 28.3707C78.024 28.3707 70.0222 28.3707 70.0222 28.3707L69.2839 24.0284L66.1104 21.4603C66.1104 21.4603 76.5984 21.5008 76.6578 21.4684C76.8785 21.355 77.9985 20.8689 78.1852 20.8689Z" fill="#474963"/>
<g style="mix-blend-mode:overlay" opacity="0.2">
<path d="M78.4907 26.7505C78.3635 27.6821 78.2362 28.3707 78.1853 28.3707C78.024 28.3707 70.0222 28.3707 70.0222 28.3707L69.7422 26.7505H78.4907Z" fill="#0C2453"/>
</g>
<g style="mix-blend-mode:overlay" opacity="0.2">
<path d="M0.135742 23.3074C0.356365 23.8097 0.6873 24.4659 0.958836 24.4659C1.17946 24.4659 2.86807 24.4659 4.5482 24.4659L3.68268 28.3707C3.68268 28.3707 1.3322 28.3707 1.07763 28.3707C0.882466 28.3707 0.339394 25.2922 0.135742 23.3074Z" fill="#0C2453"/>
</g>
<path d="M9.37656 21.0713C12.6604 21.0713 15.3249 23.8743 15.3249 27.3417C15.3249 27.7035 15.3221 28.0465 15.3164 28.3705H14.5442C14.5499 28.1059 14.5527 27.8304 14.5527 27.5442C14.5527 24.6034 12.2362 22.2217 9.37656 22.2217C6.52543 22.2217 4.20889 24.6034 4.20889 27.5442C4.20889 27.8304 4.20889 28.1059 4.20889 28.3705H3.43671C3.43105 28.0465 3.42822 27.7035 3.42822 27.3417C3.42822 23.8743 6.09267 21.0713 9.37656 21.0713Z" fill="#555775"/>
<path d="M58.5417 28.3705C58.536 28.0465 58.5332 27.7035 58.5332 27.3417C58.5332 23.8743 61.1977 21.0713 64.4815 21.0713C67.7654 21.0713 70.4299 23.8743 70.4299 27.3417C70.4299 27.7035 70.427 28.0465 70.4214 28.3705H69.6492C69.6549 28.1059 69.6577 27.8304 69.6577 27.5442C69.6577 24.6034 67.3412 22.2217 64.4815 22.2217C61.6304 22.2217 59.3139 24.6034 59.3139 27.5442C59.3139 27.8304 59.3139 28.1059 59.3139 28.3705H58.5417Z" fill="#555775"/>
<path d="M1.23877 20.7879C1.23877 20.7879 4.62448 20.156 4.79419 20.0507C4.95542 19.9373 6.3131 17.4502 6.35553 17.3448C6.39795 17.2395 3.30075 17.4502 3.16498 17.4907C3.0377 17.5231 2.35886 18.5357 2.22309 18.7464C2.09581 18.9489 1.23877 20.7879 1.23877 20.7879Z" fill="#0C2453"/>
<path d="M3.88625 19.6941C4.02201 19.605 4.87905 18.0577 5.26938 17.3367C5.87185 17.3124 6.3725 17.3043 6.35553 17.3448C6.3131 17.4501 4.95542 19.9372 4.79419 20.0506C4.62448 20.1559 1.23877 20.7878 1.23877 20.7878C1.23877 20.7878 1.35757 20.5367 1.51031 20.2045C2.50311 20.0182 3.78442 19.7589 3.88625 19.6941Z" fill="#0C2453"/>
<path fill-rule="evenodd" clip-rule="evenodd" d="M4.41266 17.7417C4.78603 17.8552 4.93876 18.398 4.75208 18.9407C4.57389 19.4916 4.12416 19.8481 3.75079 19.7347C3.37743 19.6212 3.22469 19.0785 3.40289 18.5357C3.58957 17.9848 4.0393 17.6283 4.41266 17.7417ZM3.70837 19.3296C3.94596 19.4106 4.24295 19.1757 4.36175 18.8192C4.48055 18.4628 4.37872 18.1144 4.13264 18.0415C3.89505 17.9686 3.59806 18.1954 3.47926 18.5519C3.36046 18.9083 3.46229 19.2567 3.70837 19.3296Z" fill="#D9E8FF"/>
<path fill-rule="evenodd" clip-rule="evenodd" d="M2.89347 18.8031C3.15652 18.8841 3.26683 19.2567 3.13955 19.6456C3.00378 20.0344 2.68982 20.2856 2.42676 20.2046C2.16371 20.1236 2.0534 19.7428 2.18917 19.3539C2.31645 18.9732 2.63042 18.722 2.89347 18.8031ZM2.39282 19.921C2.57102 19.9696 2.77467 19.8157 2.85953 19.5646C2.94438 19.3134 2.86801 19.0623 2.6983 19.0137C2.52859 18.957 2.32494 19.119 2.24008 19.3701C2.15523 19.6213 2.22311 19.8724 2.39282 19.921Z" fill="#D9E8FF"/>
<g style="mix-blend-mode:overlay" opacity="0.2">
<path d="M6.35579 17.3449C6.33034 17.4097 5.85515 18.2927 5.43087 19.0299C4.80294 19.1109 3.21616 19.4026 1.45117 20.3423C1.71422 19.7833 2.1385 18.8841 2.22335 18.7464C2.30821 18.6087 2.62217 18.1469 2.86825 17.8228C3.24161 17.677 3.64043 17.5393 4.05622 17.4097C5.0066 17.3449 6.38125 17.2719 6.35579 17.3449Z" fill="white"/>
</g>
<path d="M14.8325 13.7804V10.1753C16.3005 8.41732 17.9043 6.71605 18.8971 6.30289C20.8997 5.47656 26.8734 5.04719 29.3342 4.90137C29.3342 5.68719 28.91 8.68466 28.6384 10.556C28.5027 11.4796 27.739 12.2006 26.7716 12.314L14.8325 13.7804Z" fill="#333333"/>
<path d="M26.721 11.9413C27.5101 11.8441 28.1296 11.2527 28.2399 10.5074C28.6133 7.97171 28.8509 6.16513 28.9103 5.3064C26.2628 5.46842 20.8915 5.88969 19.0501 6.65121C18.2949 6.96716 16.9372 8.26336 15.2231 10.313V13.351L26.721 11.9413Z" fill="#0C2453"/>
<path d="M14.8327 13.7804L11.7949 14.1287L11.8967 13.9829C12.4992 13.1323 13.6193 11.6335 14.8327 10.1753V13.7804Z" fill="#333333"/>
<path d="M13.9329 13.5859H14.6882V11.4634C14.0263 11.4634 13.4917 11.9738 13.4917 12.6057V13.1727C13.4917 13.3996 13.6869 13.5859 13.9329 13.5859Z" fill="#424242"/>
<g style="mix-blend-mode:overlay" opacity="0.6">
<path fill-rule="evenodd" clip-rule="evenodd" d="M27.5524 26.7989H18.159C17.3528 26.7989 16.6485 26.2885 16.4279 25.5594C16.2667 25.0004 16.0376 24.4576 15.7491 23.9553C15.1127 22.8454 14.7817 21.5735 14.7817 20.2611V10.8556C14.7817 10.4019 14.9514 9.95634 15.2484 9.60798C16.8777 7.71229 18.0911 6.58621 18.8717 6.26216C20.8828 5.42773 26.8566 4.99836 29.3259 4.85254C29.3429 4.85254 29.357 4.85524 29.3683 4.86064C29.374 4.87144 29.3768 4.88494 29.3768 4.90115V21.3548C29.3768 21.6627 29.0713 23.2586 28.4604 26.0941C28.367 26.5072 27.9937 26.7989 27.5524 26.7989ZM16.5298 25.5351C16.7249 26.2237 17.3953 26.7017 18.159 26.7017H27.5524C27.9427 26.7017 28.2822 26.4424 28.3585 26.0779C28.961 23.2829 29.2835 21.6546 29.2835 21.3548V4.94975C26.7802 5.09558 20.8998 5.52494 18.9142 6.35127C18.159 6.65912 16.9201 7.8095 15.3248 9.66469C15.0363 10.0049 14.8836 10.4262 14.8836 10.8556V20.2611C14.8836 21.5573 15.206 22.813 15.8339 23.9067C16.1224 24.4171 16.36 24.968 16.5298 25.5351Z" fill="#0C2453"/>
</g>
<g style="mix-blend-mode:overlay" opacity="0.5">
<path d="M70.9813 13.351H34.6804C33.8318 13.351 33.2039 12.5976 33.3991 11.8118L34.901 5.60618C35.0452 5.0391 35.5714 4.63403 36.1823 4.63403H72.4918C73.3403 4.63403 73.9682 5.38745 73.7731 6.17327L72.2626 12.3788C72.1269 12.9459 71.5923 13.351 70.9813 13.351Z" fill="#0C2453"/>
</g>
<g style="mix-blend-mode:overlay" opacity="0.3">
<path d="M76.3268 14.1287C76.3268 14.1287 16.2749 14.1287 14.8324 14.1287C13.3899 14.1287 8.34101 15.3114 5.43896 16.4051C5.43896 16.4051 11.837 15.0765 14.8324 15.0765C17.8193 15.0765 74.4261 15.0765 75.7074 15.0765C76.9887 15.0765 77.1075 14.1287 76.3268 14.1287Z" fill="white"/>
</g>
<path d="M78.1852 20.5205C78.304 20.4476 78.6604 20.0749 78.6604 19.8643C78.6604 19.6537 78.6604 16.0081 78.6604 15.7975C78.6604 15.5868 77.9476 15.6192 77.8797 15.6192C77.8118 15.6192 77.7949 20.5205 77.8797 20.5205C77.9646 20.5205 78.1852 20.5205 78.1852 20.5205Z" fill="#D12E34"/>
<g style="mix-blend-mode:overlay" opacity="0.3">
<path d="M77.999 17.4582C77.9565 16.7858 77.982 16.4618 78.0329 15.7812C78.3299 15.7812 78.576 15.8137 78.6184 15.8299V17.0207C78.6184 17.1342 77.999 17.4582 77.999 17.4582Z" fill="white"/>
</g>
<g style="mix-blend-mode:overlay" opacity="0.5">
<path d="M52.1182 15.684H71.0917C71.1766 15.684 71.236 15.6192 71.236 15.5463V15.2141C71.236 15.1331 71.1766 15.0764 71.0917 15.0764H52.1182V15.684Z" fill="#0C2453"/>
</g>
<g style="mix-blend-mode:overlay" opacity="0.5">
<path d="M52.1182 15.4897H70.9305V15.271H52.1182V15.4897Z" fill="#0C2453"/>
</g>
<g style="mix-blend-mode:overlay" opacity="0.6">
<path fill-rule="evenodd" clip-rule="evenodd" d="M51.8889 26.7991H32.1177C31.965 26.7991 31.8462 26.6776 31.8462 26.5317V3.74288C31.8462 3.59706 31.965 3.48364 32.1177 3.48364H51.8889C52.0417 3.48364 52.169 3.59706 52.169 3.74288V26.5317C52.169 26.6776 52.0417 26.7991 51.8889 26.7991ZM32.1177 3.57276C32.0244 3.57276 31.9395 3.64567 31.9395 3.74288V26.5317C31.9395 26.629 32.0244 26.71 32.1177 26.71H51.8889C51.9908 26.71 52.0671 26.629 52.0671 26.5317V3.74288C52.0671 3.64567 51.9908 3.57276 51.8889 3.57276H32.1177Z" fill="#0C2453"/>
</g>
<g style="mix-blend-mode:overlay" opacity="0.2">
<path d="M26.2539 15.36C26.2539 15.5626 26.7461 15.8218 27.3485 15.8218C27.9595 15.8299 28.4517 15.5788 28.4517 15.3681C28.4517 15.1656 27.9595 15.1575 27.357 15.1494C26.7461 15.1494 26.2539 15.1575 26.2539 15.36Z" fill="#0C2453"/>
</g>
<path d="M26.0503 15.36C26.0503 15.4491 26.237 15.5302 26.6612 15.5788C26.7885 15.595 26.8225 15.4977 27.1025 15.5058C27.3655 15.5221 27.3995 15.6193 27.5692 15.6193C28.6129 15.6274 28.6638 15.5139 28.6638 15.3681C28.6638 15.2304 28.6214 15.117 27.5692 15.1089C26.517 15.1089 26.0503 15.2142 26.0503 15.36Z" fill="#0C2453"/>
<g style="mix-blend-mode:overlay" opacity="0.2">
<path d="M32.5332 15.36C32.5332 15.5626 33.0169 15.8218 33.6278 15.8218C34.2303 15.8299 34.7225 15.5788 34.7225 15.3681C34.7225 15.1656 34.2388 15.1575 33.6278 15.1494C33.0254 15.1494 32.5332 15.1575 32.5332 15.36Z" fill="#0C2453"/>
</g>
<path d="M32.3213 15.36C32.3213 15.4491 32.5165 15.5302 32.9322 15.5788C33.0595 15.595 33.0935 15.4977 33.382 15.5058C33.645 15.5221 33.6705 15.6193 33.8402 15.6193C34.8924 15.6274 34.9348 15.5139 34.9348 15.3681C34.9433 15.2304 34.8924 15.117 33.8402 15.1089C32.7965 15.1089 32.3213 15.2142 32.3213 15.36Z" fill="#0C2453"/>
<g style="mix-blend-mode:overlay" opacity="0.3">
<path d="M28.3248 9.94014C28.6133 7.95532 28.8084 6.47279 28.8848 5.60596C24.0905 6.86165 19.8138 8.11735 16.0802 9.32444C15.8086 9.62689 15.523 9.95634 15.2231 10.3128V12.9133C19.5847 11.8925 24.1075 10.8718 28.3248 9.94014Z" fill="white"/>
</g>
</g>
<defs>
<clipPath id="clip0_813_2645">
<rect width="79" height="32" fill="white"/>
</clipPath>
</defs>
</svg>
