<svg width="70" height="25" viewBox="0 0 70 25" fill="none" xmlns="http://www.w3.org/2000/svg">
<g clip-path="url(#clip0_813_2292)">
<path d="M4.45264 21.4639L4.58108 21.6189H16.5688H53.0459L65.3441 20.9886V12.6799H4.45264V21.4639Z" fill="#13171A"/>
<path d="M9.87898 14.9846L11.1206 15.3463C11.2276 15.3773 11.3346 15.3256 11.3667 15.2222C11.3989 15.1292 11.3346 15.0259 11.2383 14.9949L9.99672 14.6332C9.88968 14.6022 9.78265 14.6539 9.75054 14.7572C9.71843 14.8502 9.78265 14.9536 9.87898 14.9846Z" fill="#0C2453"/>
<path d="M11.2383 15.3566L9.99672 15.7183C9.88968 15.7493 9.78265 15.6873 9.75054 15.5943C9.71843 15.4909 9.78265 15.3876 9.87898 15.3566L11.1206 14.9949C11.2276 14.9639 11.3346 15.0259 11.3667 15.1189C11.3989 15.2222 11.3346 15.3256 11.2383 15.3566Z" fill="#0C2453"/>
<path d="M9.87898 14.2507L11.1206 14.6124C11.2276 14.6434 11.3346 14.5917 11.3667 14.4884C11.3989 14.3954 11.3346 14.292 11.2383 14.261L9.99672 13.8993C9.88968 13.8683 9.78265 13.92 9.75054 14.0233C9.71843 14.1163 9.78265 14.2197 9.87898 14.2507Z" fill="#0C2453"/>
<path d="M11.2383 14.6227L9.99672 14.9844C9.88968 15.0154 9.78265 14.9534 9.75054 14.8604C9.71843 14.757 9.78265 14.6537 9.87898 14.6227L11.1206 14.261C11.2276 14.23 11.3346 14.292 11.3667 14.385C11.3989 14.4883 11.3346 14.5917 11.2383 14.6227Z" fill="#0C2453"/>
<path d="M9.87898 13.517L11.1206 13.8787C11.2276 13.9097 11.3346 13.8581 11.3667 13.7547C11.3989 13.6617 11.3346 13.5584 11.2383 13.5274L9.99672 13.1657C9.88968 13.1347 9.78265 13.1863 9.75054 13.2897C9.71843 13.3827 9.78265 13.486 9.87898 13.517Z" fill="#0C2453"/>
<path d="M11.2383 13.889L9.99672 14.2507C9.88968 14.2817 9.78265 14.2197 9.75054 14.1267C9.71843 14.0234 9.78265 13.92 9.87898 13.889L11.1206 13.5274C11.2276 13.4963 11.3346 13.5584 11.3667 13.6514C11.3989 13.7547 11.3346 13.858 11.2383 13.889Z" fill="#0C2453"/>
<path d="M9.87898 12.7834L11.1206 13.1451C11.2276 13.1761 11.3346 13.1244 11.3667 13.0211C11.3989 12.9281 11.3346 12.8247 11.2383 12.7937L9.99672 12.432C9.88968 12.401 9.78265 12.4527 9.75054 12.556C9.71843 12.649 9.78265 12.7524 9.87898 12.7834Z" fill="#0C2453"/>
<path d="M11.2383 13.1554L9.99672 13.5171C9.88968 13.5481 9.78265 13.4861 9.75054 13.3931C9.71843 13.2897 9.78265 13.1864 9.87898 13.1554L11.1206 12.7937C11.2276 12.7627 11.3346 12.8247 11.3667 12.9177C11.3989 13.0211 11.3346 13.1244 11.2383 13.1554Z" fill="#0C2453"/>
<path fill-rule="evenodd" clip-rule="evenodd" d="M13.936 18.7875C13.936 20.5959 12.4268 22.0531 10.5537 22.0531C8.6913 22.0531 7.18213 20.5959 7.18213 18.7875C7.18213 16.9893 8.6913 15.5322 10.5537 15.5322C12.4268 15.5322 13.936 16.9893 13.936 18.7875ZM12.5231 18.7875C12.5231 17.7437 11.6454 16.8963 10.5537 16.8963C9.47265 16.8963 8.59497 17.7437 8.59497 18.7875C8.59497 19.8416 9.47265 20.6889 10.5537 20.6889C11.6454 20.6889 12.5231 19.8416 12.5231 18.7875Z" fill="#0C2453"/>
<path d="M12.9832 18.7874C12.9832 19.1078 12.919 19.4074 12.8013 19.6761C12.7263 19.8621 12.8013 20.0688 12.9832 20.1515L13.5719 20.4305C13.7646 20.5235 14 20.4409 14.0857 20.2548C14.289 19.8001 14.3961 19.3144 14.3961 18.7874C14.3961 18.2707 14.289 17.785 14.0857 17.3303C14 17.1443 13.7646 17.0616 13.5719 17.1546L12.9832 17.4336C12.8013 17.5163 12.7263 17.723 12.8013 17.8987C12.919 18.1777 12.9832 18.4774 12.9832 18.7874Z" fill="#8C2418"/>
<path fill-rule="evenodd" clip-rule="evenodd" d="M16.0767 18.7874C16.0767 21.7326 13.6042 24.1198 10.5537 24.1198C7.51398 24.1198 5.0415 21.7326 5.0415 18.7874C5.0415 15.8525 7.51398 13.4653 10.5537 13.4653C13.6042 13.4653 16.0767 15.8525 16.0767 18.7874ZM14.8886 18.7874C14.8886 16.4829 12.9513 14.6124 10.5537 14.6124C8.16689 14.6124 6.22958 16.4829 6.22958 18.7874C6.22958 21.1022 8.16689 22.9727 10.5537 22.9727C12.9513 22.9727 14.8886 21.1022 14.8886 18.7874Z" fill="#333333"/>
<path fill-rule="evenodd" clip-rule="evenodd" d="M10.5537 23.8822C7.65304 23.8822 5.2876 21.5984 5.2876 18.7875C5.2876 15.987 7.65304 13.7031 10.5537 13.7031C13.465 13.7031 15.8304 15.987 15.8304 18.7875C15.8304 21.5984 13.465 23.8822 10.5537 23.8822ZM10.5537 14.4885C8.10258 14.4885 6.10105 16.421 6.10105 18.7875C6.10105 21.1644 8.10258 23.0968 10.5537 23.0968C13.0154 23.0968 15.017 21.1644 15.017 18.7875C15.017 16.421 13.0154 14.4885 10.5537 14.4885Z" fill="#0C2453"/>
<path d="M12.0415 18.7874C12.0415 19.5832 11.3779 20.2239 10.5537 20.2239C9.74027 20.2239 9.07666 19.5832 9.07666 18.7874C9.07666 18.002 9.74027 17.3613 10.5537 17.3613C11.3779 17.3613 12.0415 18.002 12.0415 18.7874Z" fill="white"/>
<path d="M14.4067 16.9376C12.7263 17.4749 11.3455 18.0743 10.7997 18.467C11.0244 17.847 11.185 16.4002 11.1957 14.6847C10.9887 14.6503 10.7747 14.6331 10.5535 14.6331C10.3394 14.6331 10.1289 14.6503 9.92197 14.6847C9.93268 16.4002 10.0932 17.847 10.318 18.467C9.77213 18.0743 8.39139 17.4749 6.71097 16.9376C6.51831 17.2993 6.38986 17.692 6.31494 18.1053C8.00607 18.622 9.48314 18.932 10.1682 18.9114C9.61158 19.2834 8.59476 20.3788 7.54583 21.7533C7.84552 22.0426 8.18803 22.2803 8.57335 22.4766C9.60087 21.0815 10.3608 19.8208 10.5535 19.1904C10.7568 19.8208 11.5061 21.0815 12.5443 22.4766C12.9296 22.2803 13.2721 22.0426 13.5718 21.7533C12.5229 20.3788 11.5061 19.2834 10.9495 18.9114C11.6238 18.932 13.1116 18.622 14.8027 18.1053C14.7278 17.692 14.5993 17.2993 14.4067 16.9376Z" fill="white"/>
<path d="M11.4956 18.7875C11.4956 19.2939 11.0782 19.6969 10.5538 19.6969C10.04 19.6969 9.62256 19.2939 9.62256 18.7875C9.62256 18.2915 10.04 17.8884 10.5538 17.8884C11.0782 17.8884 11.4956 18.2915 11.4956 18.7875Z" fill="#A6CDFF"/>
<path fill-rule="evenodd" clip-rule="evenodd" d="M14.9205 18.7875C14.9205 21.123 12.9725 23.0038 10.5535 23.0038C8.14528 23.0038 6.19727 21.123 6.19727 18.7875C6.19727 16.4624 8.14528 14.5815 10.5535 14.5815C12.9725 14.5815 14.9205 16.4624 14.9205 18.7875ZM14.7814 18.7875C14.7814 16.5347 12.8869 14.7159 10.5535 14.7159C8.2202 14.7159 6.33641 16.5347 6.33641 18.7875C6.33641 21.0404 8.2202 22.8695 10.5535 22.8695C12.8869 22.8695 14.7814 21.0404 14.7814 18.7875Z" fill="#D9EAFF"/>
<path d="M58.5367 15.0568L59.7783 15.4185C59.8853 15.4495 59.9924 15.3979 60.0245 15.2945C60.0566 15.1912 59.9923 15.0878 59.896 15.0672L58.6544 14.7055C58.5474 14.6745 58.4404 14.7261 58.4083 14.8295C58.3761 14.9225 58.4404 15.0258 58.5367 15.0568Z" fill="#0C2453"/>
<path d="M59.896 15.4288L58.6544 15.7905C58.5474 15.8112 58.4404 15.7595 58.4083 15.6562C58.3761 15.5632 58.4404 15.4598 58.5367 15.4288L59.7783 15.0671C59.8853 15.0361 59.9924 15.0981 60.0245 15.1912C60.0566 15.2945 59.9923 15.3978 59.896 15.4288Z" fill="#0C2453"/>
<path d="M58.5367 14.3232L59.7783 14.6849C59.8853 14.7159 59.9924 14.6642 60.0245 14.5609C60.0566 14.4575 59.9923 14.3542 59.896 14.3335L58.6544 13.9718C58.5474 13.9408 58.4404 13.9925 58.4083 14.0958C58.3761 14.1888 58.4404 14.2922 58.5367 14.3232Z" fill="#0C2453"/>
<path d="M59.896 14.6952L58.6544 15.0569C58.5474 15.0776 58.4404 15.0259 58.4083 14.9329C58.3761 14.8295 58.4404 14.7262 58.5367 14.6952L59.7783 14.3335C59.8853 14.3025 59.9924 14.3645 60.0245 14.4575C60.0566 14.5609 59.9923 14.6642 59.896 14.6952Z" fill="#0C2453"/>
<path d="M58.5367 13.5893L59.7783 13.951C59.8853 13.982 59.9924 13.9303 60.0245 13.827C60.0566 13.7236 59.9923 13.6203 59.896 13.5996L58.6544 13.2379C58.5474 13.2069 58.4404 13.2586 58.4083 13.3619C58.3761 13.455 58.4404 13.5583 58.5367 13.5893Z" fill="#0C2453"/>
<path d="M59.896 13.9613L58.6544 14.323C58.5474 14.3437 58.4404 14.292 58.4083 14.199C58.3761 14.0957 58.4404 13.9923 58.5367 13.9613L59.7783 13.5996C59.8853 13.5686 59.9924 13.6306 60.0245 13.7236C60.0566 13.827 59.9923 13.9303 59.896 13.9613Z" fill="#0C2453"/>
<path d="M58.5367 12.8557L59.7783 13.2174C59.8853 13.2484 59.9924 13.1967 60.0245 13.0933C60.0566 12.99 59.9923 12.8867 59.896 12.866L58.6544 12.5043C58.5474 12.4733 58.4404 12.525 58.4083 12.6283C58.3761 12.7213 58.4404 12.8247 58.5367 12.8557Z" fill="#0C2453"/>
<path d="M59.896 13.2277L58.6544 13.5894C58.5474 13.61 58.4404 13.5584 58.4083 13.4654C58.3761 13.362 58.4404 13.2587 58.5367 13.2277L59.7783 12.866C59.8853 12.835 59.9924 12.897 60.0245 12.99C60.0566 13.0933 59.9923 13.1967 59.896 13.2277Z" fill="#0C2453"/>
<path fill-rule="evenodd" clip-rule="evenodd" d="M62.5932 18.7875C62.5932 20.5959 61.084 22.0531 59.2109 22.0531C57.3485 22.0531 55.8394 20.5959 55.8394 18.7875C55.8394 16.9893 57.3485 15.5322 59.2109 15.5322C61.084 15.5322 62.5932 16.9893 62.5932 18.7875ZM61.1803 18.7875C61.1803 17.7437 60.3027 16.8963 59.2109 16.8963C58.1299 16.8963 57.2522 17.7437 57.2522 18.7875C57.2522 19.8416 58.1299 20.6889 59.2109 20.6889C60.3027 20.6889 61.1803 19.8416 61.1803 18.7875Z" fill="#0C2453"/>
<path d="M61.6404 18.7874C61.6404 19.1078 61.5762 19.4074 61.4585 19.6761C61.3836 19.8621 61.4585 20.0688 61.6404 20.1515L62.2291 20.4305C62.4218 20.5235 62.6573 20.4409 62.7429 20.2548C62.9463 19.8001 63.0533 19.3144 63.0533 18.7874C63.0533 18.2707 62.9463 17.785 62.7429 17.3303C62.6573 17.1443 62.4218 17.0616 62.2291 17.1546L61.6404 17.4336C61.4585 17.5163 61.3836 17.723 61.4585 17.8987C61.5762 18.1777 61.6404 18.4774 61.6404 18.7874Z" fill="#8C2418"/>
<path fill-rule="evenodd" clip-rule="evenodd" d="M64.7339 18.7874C64.7339 21.7326 62.2614 24.1198 59.211 24.1198C56.1712 24.1198 53.6987 21.7326 53.6987 18.7874C53.6987 15.8525 56.1712 13.4653 59.211 13.4653C62.2614 13.4653 64.7339 15.8525 64.7339 18.7874ZM63.5458 18.7874C63.5458 16.4829 61.6085 14.6124 59.211 14.6124C56.8241 14.6124 54.8868 16.4829 54.8868 18.7874C54.8868 21.1022 56.8241 22.9727 59.211 22.9727C61.6085 22.9727 63.5458 21.1022 63.5458 18.7874Z" fill="#333333"/>
<path fill-rule="evenodd" clip-rule="evenodd" d="M59.2109 23.8822C56.3103 23.8822 53.9448 21.5984 53.9448 18.7875C53.9448 15.987 56.3103 13.7031 59.2109 13.7031C62.1222 13.7031 64.4876 15.987 64.4876 18.7875C64.4876 21.5984 62.1222 23.8822 59.2109 23.8822ZM59.2109 14.4885C56.7598 14.4885 54.7583 16.421 54.7583 18.7875C54.7583 21.1644 56.7598 23.0968 59.2109 23.0968C61.6727 23.0968 63.6742 21.1644 63.6742 18.7875C63.6742 16.421 61.6727 14.4885 59.2109 14.4885Z" fill="#0C2453"/>
<path d="M60.6987 18.7874C60.6987 19.5832 60.0351 20.2239 59.2109 20.2239C58.3975 20.2239 57.7339 19.5832 57.7339 18.7874C57.7339 18.002 58.3975 17.3613 59.2109 17.3613C60.0351 17.3613 60.6987 18.002 60.6987 18.7874Z" fill="white"/>
<path d="M63.0644 16.9376C61.384 17.4749 60.0032 18.0743 59.4574 18.467C59.6821 17.847 59.8427 16.4002 59.8534 14.6847C59.6465 14.6503 59.4324 14.6331 59.2112 14.6331C58.9971 14.6331 58.7866 14.6503 58.5797 14.6847C58.5904 16.4002 58.7509 17.847 58.9757 18.467C58.4298 18.0743 57.0491 17.4749 55.3687 16.9376C55.176 17.2993 55.0476 17.692 54.9727 18.1053C56.6638 18.622 58.1409 18.932 58.8259 18.9114C58.2693 19.2834 57.2525 20.3788 56.2035 21.7533C56.5032 22.0426 56.8457 22.2803 57.2311 22.4766C58.2586 21.0815 59.0185 19.8208 59.2112 19.1904C59.4146 19.8208 60.1638 21.0815 61.202 22.4766C61.5873 22.2803 61.9298 22.0426 62.2295 21.7533C61.1806 20.3788 60.1638 19.2834 59.6072 18.9114C60.2815 18.932 61.7693 18.622 63.4604 18.1053C63.3855 17.692 63.2571 17.2993 63.0644 16.9376Z" fill="white"/>
<path d="M60.1529 18.7875C60.1529 19.2939 59.7354 19.6969 59.211 19.6969C58.6972 19.6969 58.2798 19.2939 58.2798 18.7875C58.2798 18.2915 58.6972 17.8884 59.211 17.8884C59.7354 17.8884 60.1529 18.2915 60.1529 18.7875Z" fill="#A6CDFF"/>
<path fill-rule="evenodd" clip-rule="evenodd" d="M63.5782 18.7875C63.5782 21.123 61.6302 23.0038 59.2113 23.0038C56.803 23.0038 54.855 21.123 54.855 18.7875C54.855 16.4624 56.803 14.5815 59.2113 14.5815C61.6302 14.5815 63.5782 16.4624 63.5782 18.7875ZM63.4391 18.7875C63.4391 16.5347 61.5446 14.7159 59.2113 14.7159C56.8779 14.7159 54.9941 16.5347 54.9941 18.7875C54.9941 21.0404 56.8779 22.8695 59.2113 22.8695C61.5446 22.8695 63.4391 21.0404 63.4391 18.7875Z" fill="#D9EAFF"/>
<path d="M69.9037 13.2896C69.8715 12.9382 69.4006 12.2458 69.3578 12.0702C69.315 11.8945 69.24 7.03745 68.7263 6.73776C68.2232 6.42774 63.8991 5.37366 63.3853 5.33232C62.8823 5.29099 56.3532 1.49837 50.9587 0.661306C45.9281 -0.124086 36.7553 -0.25843 31.5749 1.04367C26.3838 2.34577 18.1208 7.6885 18.1208 7.6885C18.1208 7.6885 14.5459 7.91585 9.99694 8.84592C6.01529 9.66231 2.46177 11.8118 2.04434 12.3078C1.62691 12.7935 0.577982 14.85 0.524465 14.9224C0.470948 14.9947 0 15.3667 0 15.6044C0 15.8318 0.513761 21.1435 1.09174 21.3399C1.39144 21.4535 3.14679 21.6499 4.72018 21.8049C4.68807 20.9265 4.67737 19.9241 4.67737 18.7873C4.67737 15.6561 7.3104 13.1139 10.5535 13.1139C13.8073 13.1139 16.4404 15.6561 16.4404 18.7873C16.4404 20.0481 16.419 21.1228 16.3761 22.0529C26.9297 22.0529 44.1193 22.0529 53.3884 22.0529C53.3563 21.1125 53.3349 20.0274 53.3349 18.7873C53.3349 15.6561 55.9679 13.1139 59.211 13.1139C62.4648 13.1139 65.0978 15.6561 65.0978 18.7873C65.0978 19.7587 65.0871 20.6268 65.055 21.3915C66.4144 21.1745 67.5275 20.9472 67.6667 20.7921C68.0199 20.3995 69.9465 13.6306 69.9037 13.2896Z" fill="#C4DCFF"/>
<g style="mix-blend-mode:overlay" opacity="0.2">
<path d="M2.54736 12.122C5.62993 10.8716 12.0412 9.87953 18.1315 9.57984C22.3593 9.36282 68.951 7.22366 68.951 7.22366C68.951 7.20988 68.9474 7.19955 68.9403 7.19266C68.9189 7.12032 68.8547 6.92397 68.6406 6.68629C67.8486 6.33493 63.8776 5.37386 63.3853 5.33252C58.1727 5.36352 31.5107 7.12032 18.3348 8.27774C6.22932 9.34215 2.54736 12.122 2.54736 12.122Z" fill="white"/>
</g>
<g style="mix-blend-mode:overlay" opacity="0.3">
<path d="M0.374512 18.7874C0.567172 20.0584 0.824053 21.2469 1.09164 21.3399C1.39133 21.4536 3.14668 21.6499 4.72008 21.8049C4.68797 20.9265 4.67726 19.9241 4.67726 18.7874C2.01213 18.7874 0.374512 18.7874 0.374512 18.7874Z" fill="#0C2453"/>
<path d="M69.1011 16.4622C69.1011 16.4622 67.3243 16.6792 64.7876 16.9892C64.991 17.5576 65.098 18.157 65.098 18.7873C65.098 19.7587 65.0873 20.6268 65.0552 21.3915C66.4145 21.1745 67.5277 20.9472 67.6668 20.7922C67.8595 20.5751 68.5338 18.4153 69.1011 16.4622Z" fill="#0C2453"/>
<path d="M53.3882 22.0529C53.3561 21.1125 53.3347 20.0274 53.3347 18.7873C53.3347 18.622 53.3418 18.4566 53.3561 18.2913C50.6053 18.5806 48.3255 18.7873 47.4478 18.7873C45.6925 18.7873 29.3699 18.7873 16.4402 18.7873C16.4402 20.0481 16.4188 21.1228 16.376 22.0529C26.9295 22.0529 44.1191 22.0529 53.3882 22.0529Z" fill="#0C2453"/>
</g>
<path d="M10.5533 12.4526C7.01051 12.4526 4.12061 15.2635 4.12061 18.7254C4.12061 19.8519 4.14201 20.8543 4.16342 21.743C4.34894 21.7637 4.53447 21.7843 4.71999 21.805C4.68788 20.9266 4.67718 19.9242 4.67718 18.7874C4.67718 15.6562 7.31021 13.114 10.5533 13.114C13.8071 13.114 16.4402 15.6562 16.4402 18.7874C16.4402 20.0482 16.4188 21.123 16.376 22.053C16.5615 22.053 16.747 22.053 16.9325 22.053C16.9753 21.092 16.986 19.9965 16.986 18.7254C16.986 15.2635 14.1068 12.4526 10.5533 12.4526Z" fill="#D4E5FF"/>
<path d="M59.211 12.4526C55.6682 12.4526 52.7783 15.2635 52.7783 18.7254C52.7783 19.9759 52.7997 21.0816 52.8211 22.053C53.0138 22.053 53.2029 22.053 53.3884 22.053C53.3563 21.1126 53.3349 20.0275 53.3349 18.7874C53.3349 15.6562 55.9679 13.114 59.211 13.114C62.4649 13.114 65.0979 15.6562 65.0979 18.7874C65.0979 19.7589 65.0872 20.6269 65.0551 21.3916C65.2477 21.3641 65.4368 21.3331 65.6224 21.2986C65.6331 20.5339 65.6438 19.6762 65.6438 18.7254C65.6438 15.2635 62.7646 12.4526 59.211 12.4526Z" fill="#D4E5FF"/>
<path d="M40.5873 0.671631C38.0506 0.671631 34.39 0.836977 31.3288 1.6327C26.4588 2.89346 18.549 8.13286 18.4634 8.18453L18.335 8.27754C18.335 8.27754 50.8197 6.14871 53.8915 5.95236C54.4053 5.92136 57.0918 4.63993 56.4925 4.2989C54.1698 2.94514 51.0766 1.65337 48.6041 1.25034C46.26 0.878313 43.4129 0.671631 40.5873 0.671631Z" fill="#333333"/>
<path d="M48.6252 1.65349C46.2812 1.25046 43.4341 1.03345 40.6084 1.03345C38.0824 1.03345 34.4219 1.20913 31.3714 2.04619C28.3531 2.87292 24.1573 5.33244 21.3959 7.08924L21.2246 8.09165C25.4524 7.81262 33.5977 7.27525 40.7261 6.81022C47.1696 6.36585 52.7888 5.97315 53.9876 5.89048C54.3194 5.86981 55.7965 5.13609 56.246 4.72273C54.2124 3.5033 51.2154 2.08753 48.6252 1.65349Z" fill="#0C2453"/>
<path d="M52.1359 6.02478C53.0243 5.96277 53.6665 5.92143 53.9876 5.89043C54.3194 5.86976 55.7965 5.13604 56.246 4.72268C54.6405 3.76161 52.4249 2.67652 50.2949 2.04614L52.1359 6.02478Z" fill="#333333"/>
<path d="M52.5323 5.32205C52.5644 5.38406 52.6287 5.42539 52.7036 5.42539C53.1852 5.39439 53.5278 5.36339 53.7097 5.35306C53.8703 5.34272 54.4911 5.04303 54.855 4.80535C54.962 4.73301 54.962 4.578 54.8443 4.51599C53.9987 4.01996 52.9284 3.50325 51.858 3.14156C51.7082 3.08989 51.569 3.23456 51.6333 3.37924L52.5323 5.32205Z" fill="#0C2453"/>
<g style="mix-blend-mode:overlay" opacity="0.3">
<path d="M48.6252 1.65349C46.3454 1.2608 43.5946 1.04378 40.8439 1.03345C33.4157 2.46989 27.7644 4.17502 23.9433 5.52879C23.0228 6.06616 22.1558 6.60353 21.3959 7.08924L21.2246 8.09165C21.246 8.08476 21.271 8.08131 21.2995 8.08131C30.3118 6.48986 46.5916 4.90874 55.1971 4.12335C53.2598 3.0796 50.798 2.01519 48.6252 1.65349Z" fill="#BFDAFF"/>
</g>
<path d="M68.9512 7.22347C68.8549 7.14079 66.4252 7.28547 66.2968 7.33714C66.1684 7.37848 66.3717 8.19487 66.4574 8.28788C66.5323 8.38089 68.2341 9.03194 68.2983 9.06294C68.3518 9.10428 69.1225 9.34196 69.2081 9.35229C69.3044 9.35229 69.069 7.32681 68.9512 7.22347Z" fill="#D12E34"/>
<g style="mix-blend-mode:overlay" opacity="0.3">
<path d="M69.09 8.26723C68.0839 7.75052 66.4998 7.97787 66.4891 7.82286C66.4677 7.77119 66.457 7.58518 66.4463 7.4095C66.8316 7.36816 68.9081 7.33716 68.9509 7.33716C69.0258 7.63685 69.0686 7.8332 69.09 8.26723Z" fill="white"/>
</g>
<g style="mix-blend-mode:overlay" opacity="0.4">
<path d="M13.7111 12.2046C13.7111 12.2046 59.2646 10.2722 59.757 10.2515C60.2493 10.2308 56.1606 11.3676 55.2937 11.4916C54.416 11.6156 19.0199 12.556 16.9328 12.6593C14.8349 12.7627 11.8273 12.2873 13.7111 12.2046Z" fill="#0C2453"/>
</g>
<path d="M38.3823 6.96511C38.9318 6.93066 39.4776 6.89621 40.0199 6.86176L40.2447 0.671631C39.8879 0.671631 39.5169 0.67852 39.1316 0.692299L38.3823 6.96511Z" fill="#333333"/>
<path d="M0.717284 14.1372C0.631658 14.3232 0.481811 14.9226 0.524624 14.9226C0.663768 14.9226 2.6867 14.6332 3.22187 14.5092C3.75704 14.3852 5.5338 12.9281 6.04756 12.7317C6.56132 12.5457 7.25704 12.3804 7.36407 12.308C7.47111 12.2357 7.7708 11.657 7.63166 11.657C7.49251 11.657 2.38701 12.3184 1.99098 12.37C1.77692 12.401 1.00628 13.5068 0.717284 14.1372Z" fill="#0C2453"/>
<g style="mix-blend-mode:overlay" opacity="0.6">
<path fill-rule="evenodd" clip-rule="evenodd" d="M3.16818 13.7134C2.88989 14.1784 2.51528 14.4678 2.33332 14.3541C2.14066 14.2508 2.21558 13.7961 2.49387 13.3414C2.76145 12.8763 3.13607 12.5973 3.32873 12.7007C3.51069 12.804 3.44647 13.2587 3.16818 13.7134ZM3.01834 12.9797C2.9113 12.9177 2.68653 13.0934 2.52598 13.362C2.36543 13.6411 2.32262 13.9097 2.42965 13.9718C2.54739 14.0338 2.76145 13.8581 2.93271 13.5894C3.09326 13.3207 3.13607 13.0417 3.01834 12.9797Z" fill="#D6E7FF"/>
</g>
<g style="mix-blend-mode:overlay" opacity="0.6">
<path fill-rule="evenodd" clip-rule="evenodd" d="M2.02286 13.92C1.78739 14.3127 1.46629 14.5607 1.30574 14.4677C1.13449 14.385 1.19871 13.982 1.43418 13.5893C1.68036 13.1863 2.00146 12.9382 2.16201 13.0312C2.32256 13.1243 2.26904 13.5169 2.02286 13.92ZM1.89442 13.2793C1.79809 13.2276 1.60543 13.3723 1.46629 13.61C1.32715 13.8476 1.29504 14.0853 1.39137 14.137C1.4877 14.1887 1.68036 14.044 1.8195 13.8063C1.95864 13.5686 1.99075 13.3309 1.89442 13.2793Z" fill="#D6E7FF"/>
</g>
<path d="M7.54569 12.0288C6.58239 12.1838 3.87444 12.6179 3.77811 12.6799C3.66037 12.7419 2.72918 14.013 2.61144 14.0336C2.53652 14.0543 1.34844 14.354 0.588504 14.5503C0.534987 14.7467 0.502877 14.9224 0.524283 14.9224C0.663427 14.9224 2.68636 14.633 3.22153 14.509C3.7567 14.385 5.53346 12.9279 6.04722 12.7315C6.56098 12.5455 7.2567 12.3802 7.36373 12.3078C7.40655 12.2768 7.48147 12.1632 7.54569 12.0288Z" fill="#0C2453"/>
<g style="mix-blend-mode:overlay" opacity="0.2">
<path d="M1.60531 12.7317C1.29492 13.114 0.909596 13.7237 0.716936 14.1371C0.695529 14.1991 0.652716 14.3025 0.620605 14.4058C2.2047 13.7858 3.92794 13.4447 5.3729 13.1347C5.66189 12.9384 5.90807 12.7937 6.04721 12.7317C6.56097 12.5457 7.25669 12.3803 7.36372 12.308C7.41724 12.2666 7.54568 12.0496 7.6206 11.8843C6.51816 12.0083 3.75669 12.3286 1.60531 12.7317Z" fill="white"/>
</g>
<g style="mix-blend-mode:overlay" opacity="0.6">
<path d="M52.2002 6.0662L52.0503 6.07653C52.821 6.96527 54.4479 8.95975 54.3301 9.46612C54.1803 10.1792 48.6574 20.7303 47.4051 20.7303H38.7888C38.7674 19.9656 38.6069 11.8016 38.7888 10.4582C38.9708 9.05276 39.1956 6.9446 39.2063 6.92393L39.6344 0.682129C39.5916 0.682129 39.5488 0.682129 39.506 0.682129L39.0778 6.9136C39.0778 6.93427 38.8424 9.04242 38.6604 10.4479C38.4892 11.7913 38.639 19.9449 38.6604 20.7303H21.5564C21.4066 20.2549 20.0901 15.8629 20.3041 13.2691C20.5396 10.5409 21.1818 8.13302 21.1818 8.10202L21.4922 6.29355C21.4494 6.32111 21.403 6.34867 21.3531 6.37622L21.0641 8.08135C21.0534 8.10202 20.4112 10.5202 20.1864 13.2691C19.9509 16.0179 21.4387 20.7613 21.4494 20.813L21.4708 20.8543H47.4051C48.1436 20.8543 49.9846 17.8988 51.3974 15.4186C52.9494 12.7007 54.3837 9.83815 54.4586 9.48679C54.587 8.88741 52.7889 6.74825 52.2002 6.0662Z" fill="#0C2453"/>
</g>
<path d="M23.1298 8.0812C23.1298 8.16388 22.5946 8.25688 22.1986 8.27755C21.8026 8.28789 21.6848 8.22588 21.6848 8.13287C21.6741 8.0502 21.9952 7.96753 22.402 7.94686C22.798 7.93653 23.1191 7.9882 23.1298 8.0812Z" fill="#333333"/>
<path d="M23.9112 7.94683C23.3974 7.98817 22.0274 8.18452 21.6849 8.16385C20.9678 8.10184 21.3745 7.46113 22.0595 6.94442C22.6803 6.50006 23.162 6.27271 23.3011 6.27271C23.4616 6.28304 24.1467 7.92616 23.9112 7.94683Z" fill="#C4DCFF"/>
<path d="M0.427948 16.6069C0.427948 16.6069 2.8255 16.8136 3.1359 16.9376C3.62825 17.1546 2.8255 19.9552 2.64354 20.0895C2.4937 20.1929 1.19859 20.2445 1.12367 20.2445C1.03804 20.2445 0.877489 17.785 0.813269 17.661C0.759752 17.537 0.213881 16.6173 0.427948 16.6069Z" fill="#ADD0FF"/>
<g style="mix-blend-mode:overlay" opacity="0.2">
<path d="M3.13613 16.9376C2.82573 16.8136 0.428176 16.6069 0.428176 16.6069C0.278329 16.6173 0.481693 17.041 0.652947 17.351C1.28445 17.413 1.94805 17.475 2.0979 17.5267C2.59026 17.7024 1.7875 20.0275 1.60555 20.1309C1.55203 20.1619 1.34867 20.1929 1.10249 20.2135C1.10962 20.2342 1.11676 20.2445 1.12389 20.2445C1.19882 20.2445 2.49393 20.1929 2.64377 20.0895C2.82573 19.9552 3.62848 17.1546 3.13613 16.9376Z" fill="#0C2453"/>
</g>
<g style="mix-blend-mode:overlay" opacity="0.2">
<path d="M37.9862 8.84588C37.9969 9.10423 37.3975 9.46593 36.6376 9.49693C35.8777 9.53827 35.2355 9.24891 35.2247 8.99056C35.214 8.72187 35.8241 8.68053 36.5948 8.6392C37.3547 8.6082 37.9755 8.58753 37.9862 8.84588Z" fill="#0C2453"/>
</g>
<path d="M38.2537 8.83577C38.2537 8.94945 38.0182 9.06312 37.4937 9.14579C37.3332 9.1768 37.2904 9.05279 36.9265 9.08379C36.5947 9.11479 36.5625 9.24913 36.3485 9.25947C35.032 9.32147 34.9677 9.1768 34.957 9.00112C34.9463 8.8151 34.9998 8.67042 36.3164 8.59809C37.6436 8.53608 38.243 8.64976 38.2537 8.83577Z" fill="#0C2453"/>
<g style="mix-blend-mode:overlay" opacity="0.2">
<path d="M52.8959 8.13299C52.9173 8.39134 52.3179 8.75304 51.5473 8.78404C50.7873 8.82538 50.1558 8.53602 50.1344 8.27767C50.1237 8.00898 50.7445 7.96764 51.5044 7.92631C52.2644 7.89531 52.8852 7.87464 52.8959 8.13299Z" fill="#0C2453"/>
</g>
<path d="M53.1638 8.12266C53.1745 8.23634 52.9284 8.35001 52.4039 8.43268C52.2433 8.46369 52.2005 8.33968 51.8366 8.37068C51.5155 8.40168 51.4834 8.53602 51.2693 8.54636C49.9421 8.60836 49.8779 8.46369 49.8672 8.28801C49.8565 8.10199 49.91 7.95732 51.2372 7.89531C52.5537 7.82297 53.1531 7.93665 53.1638 8.12266Z" fill="#0C2453"/>
</g>
<defs>
<clipPath id="clip0_813_2292">
<rect width="70" height="24.1818" fill="white"/>
</clipPath>
</defs>
</svg>
