<svg width="71" height="28" viewBox="0 0 71 28" fill="none" xmlns="http://www.w3.org/2000/svg">
<g clip-path="url(#clip0_813_2136)">
<path d="M21.5923 25.2572H67.5691V15.6594H21.5923V25.2572Z" fill="#13171A"/>
<path d="M9.44857 17.8339C10.7798 18.2951 11.7755 20.0522 11.7755 22.1606C11.7755 24.28 10.7582 26.059 9.40527 26.4983C9.5568 26.5861 10.2711 27.0144 11.4076 26.2567C12.2626 25.6856 13.3774 24.5765 13.3124 22.1606C13.1717 16.9883 9.66503 17.7131 9.44857 17.8339Z" fill="#ABCDF7"/>
<path d="M12.2303 24.7412C12.2844 25.0048 12.3493 25.1915 12.4143 25.3342C12.9338 24.6644 13.3559 23.6651 13.3126 22.1606C13.1719 16.9883 9.66519 17.7131 9.44873 17.8339C10.78 18.2951 11.7757 20.0522 11.7757 22.1606C11.7757 22.5669 11.7324 22.9622 11.6675 23.3356C11.9381 23.7858 12.1329 24.258 12.2303 24.7412Z" fill="#0C2453"/>
<path fill-rule="evenodd" clip-rule="evenodd" d="M12.0029 22.1606C12.0029 24.0713 10.9531 25.6197 9.65429 25.6197C8.35551 25.6197 7.30566 24.0713 7.30566 22.1606C7.30566 20.2498 8.35551 18.6904 9.65429 18.6904C10.9531 18.6904 12.0029 20.2498 12.0029 22.1606ZM11.018 22.1606C11.018 21.0514 10.4119 20.14 9.65429 20.14C8.89667 20.14 8.29057 21.0514 8.29057 22.1606C8.29057 23.2697 8.89667 24.1702 9.65429 24.1702C10.4119 24.1702 11.018 23.2697 11.018 22.1606Z" fill="#0C2453"/>
<path d="M11.3426 22.1606C11.3426 22.4901 11.2993 22.8085 11.2127 23.105C11.1586 23.2917 11.2127 23.5113 11.3426 23.6102L11.7539 23.9067C11.8946 24.0055 12.0569 23.9067 12.111 23.709C12.2518 23.2368 12.3275 22.7097 12.3275 22.1606C12.3275 21.6116 12.2518 21.0845 12.111 20.6122C12.0569 20.4036 11.8946 20.3157 11.7539 20.4146L11.3426 20.7111C11.2127 20.7989 11.1586 21.0186 11.2127 21.2162C11.2993 21.5017 11.3426 21.8202 11.3426 22.1606Z" fill="#8C2418"/>
<path d="M7.59778 25.6856C7.05662 25.0377 6.26653 23.665 6.62369 20.6012C6.99168 17.5484 9.83818 17.2189 9.83818 17.2189L9.97888 16.4941H8.16058C6.03924 16.4941 4.31836 19.0309 4.31836 22.1606C4.31836 25.2793 6.03924 27.816 8.16058 27.816H9.97888C9.97888 27.816 7.89 26.026 7.59778 25.6856Z" fill="#333333"/>
<path d="M12.5222 21.0076L10.4441 21.4249L11.6022 18.8443C11.4579 18.6612 11.2991 18.4965 11.126 18.3501L9.85967 20.8099L9.43756 17.79C9.24274 17.812 9.05514 17.8596 8.87476 17.9328L9.15616 20.9966L7.40281 19.2945C7.28014 19.5068 7.1683 19.7374 7.06729 19.9863L8.74488 21.8532L6.68848 22.4791C6.70291 22.7646 6.73538 23.0428 6.78589 23.3137L8.86393 22.8964L7.70585 25.4661C7.85016 25.6564 8.0089 25.8211 8.18207 25.9602L9.44839 23.5004L9.87049 26.5313C10.0653 26.5093 10.2529 26.4617 10.4333 26.3885L10.1519 23.3247L11.9052 25.0268C12.0279 24.8072 12.1397 24.5766 12.2408 24.335L10.5632 22.4572L12.6196 21.8422C12.6051 21.5567 12.5727 21.2785 12.5222 21.0076Z" fill="#C4DEFF"/>
<path d="M10.8123 22.1606C10.8123 23.094 10.2927 23.8627 9.65417 23.8627C9.01561 23.8627 8.49609 23.094 8.49609 22.1606C8.49609 21.2162 9.01561 20.4585 9.65417 20.4585C10.2927 20.4585 10.8123 21.2162 10.8123 22.1606Z" fill="#C4DEFF"/>
<path d="M10.3037 22.1605C10.3037 22.6876 10.0114 23.1158 9.65427 23.1158C9.29711 23.1158 9.00488 22.6876 9.00488 22.1605C9.00488 21.6333 9.29711 21.1941 9.65427 21.1941C10.0114 21.1941 10.3037 21.6333 10.3037 22.1605Z" fill="#A6CDFF"/>
<path fill-rule="evenodd" clip-rule="evenodd" d="M13.8213 22.1606C13.8213 25.2793 12.1004 27.816 9.97903 27.816C7.85768 27.816 6.12598 25.2793 6.12598 22.1606C6.12598 19.0309 7.85768 16.4941 9.97903 16.4941C12.1004 16.4941 13.8213 19.0309 13.8213 22.1606ZM12.9987 22.1606C12.9987 19.7007 11.6458 17.7131 9.97903 17.7131C8.31226 17.7131 6.95936 19.7007 6.95936 22.1606C6.95936 24.6094 8.31226 26.5971 9.97903 26.5971C11.6458 26.5971 12.9987 24.6094 12.9987 22.1606Z" fill="#333333"/>
<path fill-rule="evenodd" clip-rule="evenodd" d="M9.97919 27.5633C7.95526 27.5633 6.29932 25.1364 6.29932 22.1604C6.29932 19.1735 7.95526 16.7466 9.97919 16.7466C12.0031 16.7466 13.6482 19.1735 13.6482 22.1604C13.6482 25.1364 12.0031 27.5633 9.97919 27.5633ZM9.97919 17.5922C8.26913 17.5922 6.87294 19.6347 6.87294 22.1604C6.87294 24.6752 8.26913 26.7287 9.97919 26.7287C11.6893 26.7287 13.0854 24.6752 13.0854 22.1604C13.0854 19.6347 11.6893 17.5922 9.97919 17.5922Z" fill="#0C2453"/>
<path fill-rule="evenodd" clip-rule="evenodd" d="M13.0201 22.1606C13.0201 24.6314 11.6564 26.641 9.97881 26.641C8.2904 26.641 6.9375 24.6314 6.9375 22.1606C6.9375 19.6898 8.2904 17.6802 9.97881 17.6802C11.6564 17.6802 13.0201 19.6898 13.0201 22.1606ZM12.9227 22.1606C12.9227 19.7666 11.6023 17.8229 9.97881 17.8229C8.35534 17.8229 7.03491 19.7666 7.03491 22.1606C7.03491 24.5546 8.35534 26.4873 9.97881 26.4873C11.6023 26.4873 12.9227 24.5546 12.9227 22.1606Z" fill="#D9EAFF"/>
<path d="M46.8318 17.8339C48.1739 18.2951 49.1588 20.0522 49.1588 22.1606C49.1588 24.28 48.1522 26.059 46.7993 26.4983C46.94 26.5861 47.6652 27.0144 48.8016 26.2567C49.6566 25.6856 50.7714 24.5765 50.7065 22.1606C50.555 16.9883 47.0591 17.7131 46.8318 17.8339Z" fill="#ABCDF7"/>
<path d="M49.6244 24.7412C49.6785 25.0048 49.7326 25.1915 49.7976 25.3342C50.3279 24.6644 50.7392 23.6651 50.7067 22.1606C50.5552 16.9883 47.0593 17.7131 46.832 17.8339C48.1741 18.2951 49.159 20.0522 49.159 22.1606C49.159 22.5669 49.1265 22.9622 49.0508 23.3356C49.3214 23.7858 49.527 24.258 49.6244 24.7412Z" fill="#0C2453"/>
<path fill-rule="evenodd" clip-rule="evenodd" d="M49.397 22.1606C49.397 24.0713 48.3472 25.6197 47.0484 25.6197C45.7496 25.6197 44.689 24.0713 44.689 22.1606C44.689 20.2498 45.7496 18.6904 47.0484 18.6904C48.3472 18.6904 49.397 20.2498 49.397 22.1606ZM48.4121 22.1606C48.4121 21.0514 47.806 20.14 47.0484 20.14C46.2908 20.14 45.6739 21.0514 45.6739 22.1606C45.6739 23.2697 46.2908 24.1702 47.0484 24.1702C47.806 24.1702 48.4121 23.2697 48.4121 22.1606Z" fill="#0C2453"/>
<path d="M48.7366 22.1606C48.7366 22.4901 48.6934 22.8085 48.6068 23.105C48.5527 23.2917 48.6068 23.5113 48.7366 23.6102L49.1479 23.9067C49.2778 24.0055 49.451 23.9067 49.5051 23.709C49.6458 23.2368 49.7216 22.7097 49.7216 22.1606C49.7216 21.6116 49.6458 21.0845 49.5051 20.6122C49.451 20.4036 49.2778 20.3157 49.1479 20.4146L48.7366 20.7111C48.6068 20.7989 48.5527 21.0186 48.6068 21.2162C48.6934 21.5017 48.7366 21.8202 48.7366 22.1606Z" fill="#8C2418"/>
<path d="M44.9918 25.6856C44.4507 25.0377 43.6606 23.665 44.0177 20.6012C44.3857 17.5484 47.2322 17.2189 47.2322 17.2189L47.3621 16.4941H45.5546C43.4333 16.4941 41.7124 19.0309 41.7124 22.1606C41.7124 25.2793 43.4333 27.816 45.5546 27.816H47.3621C47.3621 27.816 45.2732 26.026 44.9918 25.6856Z" fill="#333333"/>
<path d="M49.9167 21.0076L47.8386 21.4249L48.9967 18.8443C48.8452 18.6612 48.6865 18.4965 48.5205 18.3501L47.2542 20.8099L46.8321 17.79C46.6373 17.812 46.4461 17.8596 46.2585 17.9328L46.5507 20.9966L44.7973 19.2945C44.6675 19.5068 44.5556 19.7374 44.4618 19.9863L46.1286 21.8532L44.083 22.4791C44.0974 22.7646 44.1299 23.0428 44.1804 23.3137L46.2585 22.8964L45.1004 25.4661C45.2447 25.6564 45.3998 25.8211 45.5658 25.9602L46.8429 23.5004L47.265 26.5313C47.4598 26.5093 47.6474 26.4617 47.8278 26.3885L47.5464 23.3247L49.2998 25.0268C49.4224 24.8072 49.5343 24.5766 49.6353 24.335L47.9577 22.4572L50.0141 21.8422C49.9997 21.5567 49.9672 21.2785 49.9167 21.0076Z" fill="#C4DEFF"/>
<path d="M48.2063 22.1606C48.2063 23.094 47.6868 23.8627 47.0482 23.8627C46.4097 23.8627 45.8901 23.094 45.8901 22.1606C45.8901 21.2162 46.4097 20.4585 47.0482 20.4585C47.6868 20.4585 48.2063 21.2162 48.2063 22.1606Z" fill="#C4DEFF"/>
<path d="M47.6977 22.1605C47.6977 22.6876 47.4055 23.1158 47.0483 23.1158C46.6912 23.1158 46.3989 22.6876 46.3989 22.1605C46.3989 21.6333 46.6912 21.1941 47.0483 21.1941C47.4055 21.1941 47.6977 21.6333 47.6977 22.1605Z" fill="#A6CDFF"/>
<path fill-rule="evenodd" clip-rule="evenodd" d="M51.2153 22.1606C51.2153 25.2793 49.4944 27.816 47.3622 27.816C45.2409 27.816 43.52 25.2793 43.52 22.1606C43.52 19.0309 45.2409 16.4941 47.3622 16.4941C49.4944 16.4941 51.2153 19.0309 51.2153 22.1606ZM50.3819 22.1606C50.3819 19.7007 49.029 17.7131 47.3622 17.7131C45.6955 17.7131 44.3534 19.7007 44.3534 22.1606C44.3534 24.6094 45.6955 26.5971 47.3622 26.5971C49.029 26.5971 50.3819 24.6094 50.3819 22.1606Z" fill="#333333"/>
<path fill-rule="evenodd" clip-rule="evenodd" d="M47.3624 27.5633C45.3385 27.5633 43.6934 25.1364 43.6934 22.1604C43.6934 19.1735 45.3385 16.7466 47.3624 16.7466C49.3972 16.7466 51.0423 19.1735 51.0423 22.1604C51.0423 25.1364 49.3972 27.5633 47.3624 27.5633ZM47.3624 17.5922C45.6524 17.5922 44.267 19.6347 44.267 22.1604C44.267 24.6752 45.6524 26.7287 47.3624 26.7287C49.0833 26.7287 50.4687 24.6752 50.4687 22.1604C50.4687 19.6347 49.0833 17.5922 47.3624 17.5922Z" fill="#0C2453"/>
<path fill-rule="evenodd" clip-rule="evenodd" d="M50.4142 22.1606C50.4142 24.6314 49.0505 26.641 47.3621 26.641C45.6845 26.641 44.3208 24.6314 44.3208 22.1606C44.3208 19.6898 45.6845 17.6802 47.3621 17.6802C49.0505 17.6802 50.4142 19.6898 50.4142 22.1606ZM50.306 22.1606C50.306 19.7666 48.9964 17.8229 47.3621 17.8229C45.7386 17.8229 44.4182 19.7666 44.4182 22.1606C44.4182 24.5546 45.7386 26.4873 47.3621 26.4873C48.9964 26.4873 50.306 24.5546 50.306 22.1606Z" fill="#D9EAFF"/>
<path d="M25.4236 17.8339C26.7548 18.2951 27.7506 20.0522 27.7506 22.1606C27.7506 24.28 26.744 26.059 25.3911 26.4983C25.5318 26.5861 26.257 27.0144 27.3934 26.2567C28.2484 25.6856 29.3632 24.5765 29.2983 22.1606C29.1468 16.9883 25.6509 17.7131 25.4236 17.8339Z" fill="#ABCDF7"/>
<path d="M28.2162 24.7412C28.2703 25.0048 28.3244 25.1915 28.3894 25.3342C28.9197 24.6644 29.331 23.6651 29.2985 22.1606C29.147 16.9883 25.6511 17.7131 25.4238 17.8339C26.7551 18.2951 27.7508 20.0522 27.7508 22.1606C27.7508 22.5669 27.7183 22.9622 27.6426 23.3356C27.9132 23.7858 28.1188 24.258 28.2162 24.7412Z" fill="#0C2453"/>
<path fill-rule="evenodd" clip-rule="evenodd" d="M27.9888 22.1606C27.9888 24.0713 26.939 25.6197 25.6402 25.6197C24.3414 25.6197 23.2808 24.0713 23.2808 22.1606C23.2808 20.2498 24.3414 18.6904 25.6402 18.6904C26.939 18.6904 27.9888 20.2498 27.9888 22.1606ZM27.0039 22.1606C27.0039 21.0514 26.3978 20.14 25.6402 20.14C24.8826 20.14 24.2657 21.0514 24.2657 22.1606C24.2657 23.2697 24.8826 24.1702 25.6402 24.1702C26.3978 24.1702 27.0039 23.2697 27.0039 22.1606Z" fill="#0C2453"/>
<path d="M27.3284 22.1606C27.3284 22.4901 27.2852 22.8085 27.1986 23.105C27.1445 23.2917 27.1986 23.5113 27.3284 23.6102L27.7397 23.9067C27.8696 24.0055 28.032 23.9067 28.0969 23.709C28.2376 23.2368 28.3134 22.7097 28.3134 22.1606C28.3134 21.6116 28.2376 21.0845 28.0969 20.6122C28.032 20.4036 27.8696 20.3157 27.7397 20.4146L27.3284 20.7111C27.1986 20.7989 27.1445 21.0186 27.1986 21.2162C27.2852 21.5017 27.3284 21.8202 27.3284 22.1606Z" fill="#8C2418"/>
<path d="M23.5836 25.6856C23.0425 25.0377 22.2524 23.665 22.6095 20.6012C22.9667 17.5484 25.824 17.2189 25.824 17.2189L25.9539 16.4941H24.1464C22.0251 16.4941 20.3042 19.0309 20.3042 22.1606C20.3042 25.2793 22.0251 27.816 24.1464 27.816H25.9539C25.9539 27.816 23.865 26.026 23.5836 25.6856Z" fill="#333333"/>
<path d="M28.508 21.0076L26.43 21.4249L27.588 18.8443C27.4365 18.6612 27.2778 18.4965 27.1118 18.3501L25.8455 20.8099L25.4234 17.79C25.2286 17.812 25.0374 17.8596 24.8498 17.9328L25.142 20.9966L23.3886 19.2945C23.2588 19.5068 23.1469 19.7374 23.0531 19.9863L24.7199 21.8532L22.6743 22.4791C22.6887 22.7646 22.7176 23.0428 22.7609 23.3137L24.8498 22.8964L23.6917 25.4661C23.836 25.6564 23.9911 25.8211 24.1571 25.9602L25.4342 23.5004L25.8563 26.5313C26.0511 26.5093 26.2387 26.4617 26.4191 26.3885L26.1377 23.3247L27.8911 25.0268C28.0137 24.8072 28.122 24.5766 28.2158 24.335L26.549 22.4572L28.6054 21.8422C28.591 21.5567 28.5585 21.2785 28.508 21.0076Z" fill="#C4DEFF"/>
<path d="M26.7981 22.1606C26.7981 23.094 26.2786 23.8627 25.64 23.8627C25.0014 23.8627 24.4819 23.094 24.4819 22.1606C24.4819 21.2162 25.0014 20.4585 25.64 20.4585C26.2786 20.4585 26.7981 21.2162 26.7981 22.1606Z" fill="#C4DEFF"/>
<path d="M26.2895 22.1605C26.2895 22.6876 25.9973 23.1158 25.6401 23.1158C25.2721 23.1158 24.9907 22.6876 24.9907 22.1605C24.9907 21.6333 25.2721 21.1941 25.6401 21.1941C25.9973 21.1941 26.2895 21.6333 26.2895 22.1605Z" fill="#A6CDFF"/>
<path fill-rule="evenodd" clip-rule="evenodd" d="M29.8071 22.1606C29.8071 25.2793 28.0862 27.816 25.954 27.816C23.8327 27.816 22.1118 25.2793 22.1118 22.1606C22.1118 19.0309 23.8327 16.4941 25.954 16.4941C28.0862 16.4941 29.8071 19.0309 29.8071 22.1606ZM28.9737 22.1606C28.9737 19.7007 27.6208 17.7131 25.954 17.7131C24.2873 17.7131 22.9452 19.7007 22.9452 22.1606C22.9452 24.6094 24.2873 26.5971 25.954 26.5971C27.6208 26.5971 28.9737 24.6094 28.9737 22.1606Z" fill="#333333"/>
<path fill-rule="evenodd" clip-rule="evenodd" d="M25.9537 27.5633C23.9298 27.5633 22.2847 25.1364 22.2847 22.1604C22.2847 19.1735 23.9298 16.7466 25.9537 16.7466C27.9885 16.7466 29.6336 19.1735 29.6336 22.1604C29.6336 25.1364 27.9885 27.5633 25.9537 27.5633ZM25.9537 17.5922C24.2437 17.5922 22.8583 19.6347 22.8583 22.1604C22.8583 24.6752 24.2437 26.7287 25.9537 26.7287C27.6746 26.7287 29.06 24.6752 29.06 22.1604C29.06 19.6347 27.6746 17.5922 25.9537 17.5922Z" fill="#0C2453"/>
<path fill-rule="evenodd" clip-rule="evenodd" d="M29.006 22.1606C29.006 24.6314 27.6423 26.641 25.9539 26.641C24.2763 26.641 22.9126 24.6314 22.9126 22.1606C22.9126 19.6898 24.2763 17.6802 25.9539 17.6802C27.6423 17.6802 29.006 19.6898 29.006 22.1606ZM28.8978 22.1606C28.8978 19.7666 27.5882 17.8229 25.9539 17.8229C24.3304 17.8229 23.01 19.7666 23.01 22.1606C23.01 24.5546 24.3304 26.4873 25.9539 26.4873C27.5882 26.4873 28.8978 24.5546 28.8978 22.1606Z" fill="#D9EAFF"/>
<path d="M62.8177 17.8339C64.149 18.2951 65.1447 20.0522 65.1447 22.1606C65.1447 24.28 64.1273 26.059 62.7744 26.4983C62.9259 26.5861 63.6511 27.0144 64.7767 26.2567C65.6317 25.6856 66.7573 24.5765 66.6816 22.1606C66.5409 16.9883 63.045 17.7131 62.8177 17.8339Z" fill="#ABCDF7"/>
<path d="M65.6102 24.7412C65.6644 25.0048 65.7185 25.1915 65.7834 25.3342C66.3138 24.6644 66.725 23.6651 66.6817 22.1606C66.541 16.9883 63.0452 17.7131 62.8179 17.8339C64.1491 18.2951 65.1449 20.0522 65.1449 22.1606C65.1449 22.5669 65.1124 22.9622 65.0366 23.3356C65.3072 23.7858 65.5128 24.258 65.6102 24.7412Z" fill="#0C2453"/>
<path fill-rule="evenodd" clip-rule="evenodd" d="M65.3829 22.1606C65.3829 24.0713 64.333 25.6197 63.0234 25.6197C61.7247 25.6197 60.6748 24.0713 60.6748 22.1606C60.6748 20.2498 61.7247 18.6904 63.0234 18.6904C64.333 18.6904 65.3829 20.2498 65.3829 22.1606ZM64.398 22.1606C64.398 21.0514 63.7811 20.14 63.0234 20.14C62.2766 20.14 61.6597 21.0514 61.6597 22.1606C61.6597 23.2697 62.2766 24.1702 63.0234 24.1702C63.7811 24.1702 64.398 23.2697 64.398 22.1606Z" fill="#0C2453"/>
<path d="M64.7227 22.1606C64.7227 22.4901 64.6686 22.8085 64.5928 23.105C64.5387 23.2917 64.5928 23.5113 64.7119 23.6102L65.134 23.9067C65.2638 24.0055 65.4262 23.9067 65.4911 23.709C65.621 23.2368 65.7076 22.7097 65.7076 22.1606C65.7076 21.6116 65.621 21.0845 65.4911 20.6122C65.4262 20.4036 65.2638 20.3157 65.134 20.4146L64.7119 20.7111C64.5928 20.7989 64.5387 21.0186 64.5928 21.2162C64.6686 21.5017 64.7227 21.8202 64.7227 22.1606Z" fill="#8C2418"/>
<path d="M60.9777 25.6856C60.4366 25.0377 59.6465 23.665 60.0037 20.6012C60.3608 17.5484 63.2073 17.2189 63.2073 17.2189L63.348 16.4941H61.5405C59.4084 16.4941 57.6875 19.0309 57.6875 22.1606C57.6875 25.2793 59.4084 27.816 61.5405 27.816H63.348C63.348 27.816 61.2591 26.026 60.9777 25.6856Z" fill="#333333"/>
<path d="M65.9021 21.0076L63.8241 21.4249L64.9713 18.8443C64.827 18.6612 64.6719 18.4965 64.5059 18.3501L63.2288 20.8099L62.8175 17.79C62.6155 17.812 62.4243 17.8596 62.2439 17.9328L62.5253 20.9966L60.7828 19.2945C60.6529 19.5068 60.541 19.7374 60.4472 19.9863L62.114 21.8532L60.0576 22.4791C60.072 22.7646 60.1045 23.0428 60.155 23.3137L62.2331 22.8964L61.0858 25.4661C61.2301 25.6564 61.3853 25.8211 61.5512 25.9602L62.8175 23.5004L63.2396 26.5313C63.4344 26.5093 63.6257 26.4617 63.8133 26.3885L63.5319 23.3247L65.2744 25.0268C65.4043 24.8072 65.5161 24.5766 65.6099 24.335L63.9431 22.4572L65.9995 21.8422C65.9851 21.5567 65.9526 21.2785 65.9021 21.0076Z" fill="#C4DEFF"/>
<path d="M64.1814 22.1606C64.1814 23.094 63.6727 23.8627 63.0233 23.8627C62.3847 23.8627 61.8652 23.094 61.8652 22.1606C61.8652 21.2162 62.3847 20.4585 63.0233 20.4585C63.6727 20.4585 64.1814 21.2162 64.1814 22.1606Z" fill="#C4DEFF"/>
<path d="M63.6836 22.1605C63.6836 22.6876 63.3914 23.1158 63.0234 23.1158C62.6662 23.1158 62.374 22.6876 62.374 22.1605C62.374 21.6333 62.6662 21.1941 63.0234 21.1941C63.3914 21.1941 63.6836 21.6333 63.6836 22.1605Z" fill="#A6CDFF"/>
<path fill-rule="evenodd" clip-rule="evenodd" d="M67.1903 22.1606C67.1903 25.2793 65.4694 27.816 63.3481 27.816C61.2267 27.816 59.5059 25.2793 59.5059 22.1606C59.5059 19.0309 61.2267 16.4941 63.3481 16.4941C65.4694 16.4941 67.1903 19.0309 67.1903 22.1606ZM66.3678 22.1606C66.3678 19.7007 65.0149 17.7131 63.3481 17.7131C61.6813 17.7131 60.3284 19.7007 60.3284 22.1606C60.3284 24.6094 61.6813 26.5971 63.3481 26.5971C65.0149 26.5971 66.3678 24.6094 66.3678 22.1606Z" fill="#333333"/>
<path fill-rule="evenodd" clip-rule="evenodd" d="M63.3483 27.5633C61.3243 27.5633 59.6792 25.1364 59.6792 22.1604C59.6792 19.1735 61.3243 16.7466 63.3483 16.7466C65.3722 16.7466 67.0281 19.1735 67.0281 22.1604C67.0281 25.1364 65.3722 27.5633 63.3483 27.5633ZM63.3483 17.5922C61.6382 17.5922 60.242 19.6347 60.242 22.1604C60.242 24.6752 61.6382 26.7287 63.3483 26.7287C65.0583 26.7287 66.4545 24.6752 66.4545 22.1604C66.4545 19.6347 65.0583 17.5922 63.3483 17.5922Z" fill="#0C2453"/>
<path fill-rule="evenodd" clip-rule="evenodd" d="M66.3893 22.1606C66.3893 24.6314 65.0255 26.641 63.3479 26.641C61.6704 26.641 60.3066 24.6314 60.3066 22.1606C60.3066 19.6898 61.6704 17.6802 63.3479 17.6802C65.0255 17.6802 66.3893 19.6898 66.3893 22.1606ZM66.2919 22.1606C66.2919 19.7666 64.9714 17.8229 63.3479 17.8229C61.7245 17.8229 60.404 19.7666 60.404 22.1606C60.404 24.5546 61.7245 26.4873 63.3479 26.4873C64.9714 26.4873 66.2919 24.5546 66.2919 22.1606Z" fill="#D9EAFF"/>
<path d="M48.715 0.0878906H30.7268C30.6619 0.0878906 30.5934 0.0878906 30.5212 0.0878906H30.4238C27.7288 0.0988721 25.3477 0.274575 23.9948 0.724814C19.7413 2.16338 12.1976 8.6644 12.1976 8.6644C12.1976 8.6644 7.99819 9.82843 5.06511 11.6513C2.13203 13.4743 0.941481 15.7914 0.725018 16.6699C0.497731 17.5484 0.11892 17.5813 0.0106883 18.5587C-0.0867202 19.536 0.541024 24.4557 0.725018 24.7742C0.854896 25.0158 2.64072 25.488 4.10185 25.7076C4.10185 25.7076 13.6479 25.7076 21.841 25.7076C21.8086 24.6973 19.698 18.9979 24.5576 14.3308C26.9496 12.0357 48.715 0.0878906 48.715 0.0878906Z" fill="#E3EEFF"/>
<g style="mix-blend-mode:overlay" opacity="0.6">
<path d="M0.227051 21.6226C0.400221 23.116 0.627508 24.5985 0.724917 24.7742C0.854795 25.0158 2.64062 25.488 4.10175 25.7077C4.10175 25.7077 13.6478 25.7077 21.8409 25.7077C21.8301 25.2245 21.3322 23.6431 21.3539 21.6226H0.227051Z" fill="#0C2453"/>
</g>
<path d="M41.1497 0.944336H23.4106C19.0921 2.72333 12.1978 8.66429 12.1978 8.66429H29.9369L41.1497 0.944336Z" fill="#3C5DA8"/>
<path fill-rule="evenodd" clip-rule="evenodd" d="M30.6729 8.10429C30.6946 8.11161 30.7126 8.11893 30.727 8.12625L29.9369 8.66434H12.1978C12.1978 8.66434 12.2952 8.57649 12.49 8.42275C17.1764 8.22508 24.0167 8.22508 24.3197 8.22508C24.4604 8.22508 24.8717 8.07134 25.4994 7.9176C25.9757 7.09399 26.8523 6.54492 27.8589 6.54492C28.8871 6.54492 29.7854 7.12694 30.2508 7.97251C30.3879 8.01643 30.5286 8.06036 30.6729 8.10429ZM29.6988 7.84073C29.2659 7.28068 28.6057 6.92927 27.8589 6.92927C27.1229 6.92927 26.4735 7.2697 26.0406 7.79681C26.9822 7.61012 28.2377 7.51129 29.6988 7.84073Z" fill="#355191"/>
<path d="M26.5057 2.38306H29.8825C29.9799 2.38306 30.0124 2.49287 29.9258 2.58072L29.4821 3.08587C29.4388 3.12979 29.3847 3.16274 29.3414 3.16274H26.4732C26.4299 3.16274 26.3866 3.12979 26.3866 3.08587L26.3109 2.58072C26.3001 2.49287 26.3975 2.38306 26.5057 2.38306Z" fill="#355191"/>
<g style="mix-blend-mode:overlay" opacity="0.3">
<path d="M41.1497 0.944336H32.1773C26.6034 2.21818 21.3 3.67872 16.6353 5.13925C14.1567 6.98413 12.1978 8.66429 12.1978 8.66429H22.1118C25.4345 8.18111 28.768 7.69792 32.0366 7.22572L41.1497 0.944336Z" fill="#BFDAFF"/>
</g>
<path d="M62.3955 1.4386C62.3955 1.4386 63.3696 1.16406 63.3912 1.16406C63.4021 1.17504 63.467 1.37271 63.467 1.40565C63.467 1.42762 63.2505 1.82295 63.2505 1.82295L62.3955 1.4386Z" fill="#C4DCFF"/>
<path d="M70.7835 14.6932C70.4588 14.2649 69.896 9.97119 69.4739 8.76323C69.041 7.56626 64.4736 2.16339 62.4496 1.3837C60.4257 0.604021 45.9768 -0.702771 41.7341 0.724817C37.4806 2.16339 29.9368 8.6644 29.9368 8.6644C29.9368 8.6644 25.7374 9.82843 22.8044 11.6514C19.8713 13.4743 18.6807 15.7914 18.4643 16.6699C18.237 17.5484 17.8582 17.5813 17.7499 18.5587C17.6525 19.536 18.2803 24.4557 18.4643 24.7742C18.5942 25.0158 20.3908 25.488 21.8411 25.7076C21.8086 24.7193 21.787 23.5443 21.787 22.1606C21.787 18.8113 23.6486 16.1098 25.9323 16.1098C28.216 16.1098 30.0667 18.8113 30.0667 22.1606C30.0667 23.5772 30.0559 24.7852 30.0234 25.8174C38.0217 25.8174 51.0528 25.8174 59.2352 25.8174C59.2027 24.8071 59.181 23.5992 59.181 22.1606C59.181 18.8113 61.0318 16.1098 63.3263 16.1098C65.61 16.1098 67.4608 18.8113 67.4608 22.1606C67.4608 23.4235 67.45 24.5326 67.4283 25.488C68.7596 24.5106 70.751 21.6994 70.7835 21.4248C70.8268 21.0954 71.1082 15.1105 70.7835 14.6932Z" fill="#C4DCFF"/>
<g style="mix-blend-mode:overlay" opacity="0.3">
<path d="M21.7869 22.1607C21.7869 22.124 21.7905 22.0874 21.7977 22.0508C21.2782 22.0508 20.9752 22.0508 20.921 22.0508C20.2825 22.0508 18.0312 22.1167 17.9663 21.6226C18.1395 23.116 18.3668 24.5985 18.4642 24.7742C18.5941 25.0158 20.3907 25.488 21.841 25.7077C21.8085 24.7193 21.7869 23.5443 21.7869 22.1607Z" fill="#0C2453"/>
<path d="M30.0667 22.0508C30.0667 22.0874 30.0667 22.124 30.0667 22.1606C30.0667 23.5772 30.0559 24.7852 30.0234 25.8174C38.0218 25.8174 51.0529 25.8174 59.2352 25.8174C59.2027 24.8071 59.1811 23.5992 59.1811 22.1606C59.1811 22.124 59.1811 22.0874 59.1811 22.0508C50.8797 22.0508 38.4872 22.0508 30.0667 22.0508Z" fill="#0C2453"/>
<path d="M70.7834 21.4249C70.7942 21.359 70.8159 21.0296 70.8375 20.5464C70.8375 20.5464 69.3223 22.0508 67.9477 22.0508C67.8828 22.0508 67.7204 22.0508 67.4607 22.0508C67.4607 22.0874 67.4607 22.1241 67.4607 22.1607C67.4607 23.4235 67.4499 24.5326 67.4282 25.488C68.7595 24.5107 70.7509 21.6994 70.7834 21.4249Z" fill="#0C2453"/>
</g>
<path d="M25.9321 15.2751C23.3779 15.2751 21.2998 18.35 21.2998 22.1605C21.2998 23.4783 21.3106 24.6204 21.3431 25.6306C21.5091 25.6599 21.675 25.6856 21.841 25.7075C21.8085 24.7192 21.7868 23.5442 21.7868 22.1605C21.7868 18.8112 23.6484 16.1097 25.9321 16.1097C28.2158 16.1097 30.0666 18.8112 30.0666 22.1605C30.0666 23.5771 30.0558 24.7851 30.0233 25.8173C30.1892 25.8173 30.3552 25.8173 30.5211 25.8173C30.5536 24.7521 30.5644 23.5442 30.5644 22.1605C30.5644 18.35 28.4864 15.2751 25.9321 15.2751Z" fill="#D4E5FF"/>
<path d="M63.3262 15.2751C60.7611 15.2751 58.6938 18.35 58.6938 22.1605C58.6938 23.5661 58.7047 24.7741 58.7371 25.8173C58.9031 25.8173 59.0691 25.8173 59.235 25.8173C59.2025 24.807 59.1809 23.5991 59.1809 22.1605C59.1809 18.8112 61.0317 16.1097 63.3262 16.1097C65.6099 16.1097 67.4606 18.8112 67.4606 22.1605C67.4606 23.4234 67.4498 24.5325 67.4281 25.4879C67.5905 25.3671 67.7528 25.2243 67.926 25.0596C67.9477 24.1921 67.9477 23.2257 67.9477 22.1605C67.9477 18.35 65.8804 15.2751 63.3262 15.2751Z" fill="#D4E5FF"/>
<path d="M30.0669 9.00475L57.6876 8.18114C58.8565 8.14819 59.9064 7.08299 60.3285 5.49069L60.9346 3.25047C61.0861 2.67944 60.8372 2.06448 60.4367 1.96564C58.7808 1.59227 54.5922 0.779648 48.3148 0.472168C45.2734 0.472168 43.0114 0.691797 41.7884 1.10909C37.6323 2.50373 30.1427 8.93886 30.0669 9.00475Z" fill="#333333"/>
<path d="M30.4238 9.00487L57.406 8.2142C58.5532 8.18126 59.5706 7.149 59.9927 5.60062L60.5772 3.42629C60.7287 2.87722 60.4906 2.27324 60.0901 2.18539C58.4775 1.823 54.3863 1.03234 48.2496 0.73584C45.284 0.73584 43.0761 0.955469 41.8747 1.3508C37.8052 2.7125 30.4996 8.93898 30.4238 9.00487Z" fill="#333333"/>
<path d="M60.0904 2.18539C58.4777 1.823 54.3866 1.03234 48.2498 0.73584C45.2843 0.73584 43.0763 0.955469 41.875 1.3508C39.0068 2.30619 34.5044 5.69945 32.0908 7.63219V8.82916V8.93898L57.6552 8.18126C58.6942 8.01654 59.6033 7.03919 59.993 5.60062L60.5774 3.42629C60.7289 2.87722 60.4908 2.27324 60.0904 2.18539Z" fill="#0C2453"/>
<g style="mix-blend-mode:overlay" opacity="0.3">
<path d="M59.993 5.60058L60.5774 3.42625C60.7289 2.87718 60.4908 2.2732 60.0904 2.18535C59.0405 1.95474 56.9625 1.53745 53.9536 1.19702C45.4141 2.53676 38.7362 4.45851 33.9849 6.16063C33.2705 6.69872 32.632 7.20387 32.0908 7.63214V8.82912V8.93894L35.8898 8.82912C44.1045 7.5992 54.0943 6.49008 59.9064 5.8861C59.9352 5.79824 59.9641 5.70307 59.993 5.60058Z" fill="#BFDAFF"/>
</g>
<path d="M45.8687 8.53255L47.6004 8.47764L48.2173 0.472168C47.8132 0.472168 47.4236 0.475828 47.0484 0.483149L45.8687 8.53255Z" fill="#333333"/>
<g style="mix-blend-mode:overlay" opacity="0.6">
<path d="M58.6938 1.61424C58.8345 3.63482 59.2675 10.4104 58.9103 11.7391C58.4341 13.4852 55.2629 23.5332 54.0399 23.5332H46.2797C46.2688 22.8414 46.1173 16.4282 46.2797 13.9244C46.4312 11.6403 46.6368 9.78443 46.7342 8.89493C46.7559 8.74119 46.7703 8.61674 46.7775 8.52157C46.8316 8.01642 47.4486 2.55864 47.6867 0.472168C47.6578 0.472168 47.6289 0.472168 47.6001 0.472168C47.362 2.58061 46.745 8.00544 46.6909 8.4996C46.6837 8.59478 46.6693 8.71923 46.6476 8.87297C46.5502 9.76247 46.3446 11.6293 46.1931 13.9025C46.0307 16.4172 46.1822 22.8194 46.1931 23.5332H32.4152C32.3502 22.7974 31.6034 14.9567 31.6359 13.7378C31.6684 12.4529 32.0364 9.04867 32.0472 9.00475V7.3795C32.0183 7.40146 31.9895 7.42342 31.9606 7.44538V8.99377C31.9498 9.02671 31.5818 12.4419 31.5493 13.7268C31.5168 15.0226 32.3069 23.2587 32.3394 23.6101V23.665H54.0399C55.4036 23.665 58.6614 12.991 58.9861 11.7831C59.354 10.4214 58.9211 3.71169 58.7804 1.62522C58.7516 1.62522 58.7227 1.62156 58.6938 1.61424Z" fill="#0C2453"/>
</g>
<g style="mix-blend-mode:overlay" opacity="0.4">
<path d="M30.9977 17.219C30.9977 17.219 57.9149 16.3734 58.6942 16.4942C59.4734 16.626 57.0166 20.1181 56.4105 20.5464C55.8044 20.9747 32.4371 21.0186 31.6471 20.7331C30.857 20.4476 30.2292 17.219 30.9977 17.219Z" fill="#0C2453"/>
</g>
<g style="mix-blend-mode:overlay" opacity="0.2">
<path d="M64.9715 8.53247C63.7918 8.53247 31.463 9.29019 29.8071 9.4C28.1403 9.50982 24.6228 10.6848 21.1377 13.2874C21.1377 13.2874 25.6618 11.8598 29.6339 11.5304C33.5952 11.2119 67.3743 10.8496 68.1644 10.8496C68.9545 10.8496 66.1621 8.53247 64.9715 8.53247Z" fill="white"/>
</g>
<path d="M68.2399 6.90724C68.1208 6.9292 66.3783 7.37944 66.3242 7.42337C66.2593 7.45631 65.9346 8.13716 65.9346 8.26894C65.9346 8.40072 68.2291 9.50984 68.3698 9.60867C68.5105 9.70751 69.03 10.9374 69.0733 11.0143C69.1166 11.0912 69.9608 11.19 70.0149 11.19C70.069 11.179 69.6577 9.03764 69.5603 8.65329C69.4521 8.26894 68.359 6.88528 68.2399 6.90724Z" fill="#D12E34"/>
<g style="mix-blend-mode:overlay" opacity="0.3">
<path d="M67.8613 9.0926C67.3959 8.86199 66.4651 8.38979 66.1729 8.2031C66.2378 8.0274 66.3785 7.71992 66.4543 7.59913C66.714 7.52225 68.0236 7.13791 68.3483 7.06104C68.5972 7.29165 69.409 8.3239 69.4847 8.60942C69.5713 8.93886 68.2942 9.31223 67.8613 9.0926Z" fill="white"/>
</g>
<g style="mix-blend-mode:overlay" opacity="0.2">
<path d="M45.8902 10.3665C45.901 10.6411 45.4789 11.0145 44.9486 11.0584C44.4074 11.1023 43.9637 10.7838 43.9528 10.5093C43.942 10.2348 44.3749 10.1908 44.9161 10.1469C45.4464 10.103 45.8794 10.081 45.8902 10.3665Z" fill="#0C2453"/>
</g>
<path d="M46.0743 10.3445C46.0851 10.4653 45.9119 10.5971 45.5439 10.6849C45.4357 10.7069 45.4032 10.5751 45.1543 10.619C44.9162 10.652 44.8945 10.7837 44.743 10.7947C43.823 10.8716 43.7689 10.7178 43.7689 10.5202C43.7581 10.3335 43.7906 10.1798 44.7214 10.1029C45.6522 10.037 46.0743 10.1578 46.0743 10.3445Z" fill="#0C2453"/>
<g style="mix-blend-mode:overlay" opacity="0.2">
<path d="M58.1421 10.0919C58.153 10.3664 57.7309 10.7508 57.1897 10.7837C56.6594 10.8276 56.2156 10.5202 56.2048 10.2456C56.194 9.9601 56.6269 9.91618 57.1572 9.87225C57.6984 9.83931 58.1313 9.81734 58.1421 10.0919Z" fill="#0C2453"/>
</g>
<path d="M58.3259 10.0809C58.3259 10.2017 58.1636 10.3225 57.7956 10.4104C57.6874 10.4433 57.6441 10.3115 57.3951 10.3445C57.1678 10.3774 57.1462 10.5202 56.9947 10.5311C56.0639 10.597 56.0206 10.4433 56.0098 10.2566C56.0098 10.0699 56.0422 9.90521 56.973 9.83932C57.893 9.76245 58.3151 9.88324 58.3259 10.0809Z" fill="#0C2453"/>
<path d="M67.8179 6.36931C66.4759 4.73308 64.6035 2.75642 63.2506 1.823C63.0882 1.95478 62.98 2.20735 62.98 2.32814C62.98 2.44894 65.8481 6.17165 66.0213 6.36931C66.1945 6.56698 67.8179 6.36931 67.8179 6.36931Z" fill="#0C2453"/>
<path d="M33.4004 9.04875C33.4004 9.13661 32.9892 9.21348 32.6753 9.21348C32.3722 9.21348 32.2856 9.13661 32.2856 9.04875C32.2856 8.94992 32.5346 8.88403 32.8485 8.88403C33.1515 8.88403 33.4004 8.94992 33.4004 9.04875Z" fill="#333333"/>
<path d="M35.1534 8.99379C34.8504 8.99379 32.5667 9.03771 32.3286 9.03771C32.0797 9.03771 32.4693 8.13724 33.0862 7.71994C33.7248 7.30265 34.688 7.10498 34.8504 7.10498C35.2292 7.10498 35.608 8.99379 35.1534 8.99379Z" fill="#D4E5FF"/>
<path d="M18.3993 16.8785C19.0378 16.8785 20.434 16.7357 20.9102 16.582C21.5488 16.3733 23.7676 13.6389 23.4104 13.4962C23.2913 13.4413 18.8863 14.0452 17.436 14.4625C15.9641 14.9018 14.3514 16.8785 15.0116 16.8785C15.5095 16.8785 17.988 16.8785 18.3993 16.8785Z" fill="#0C2453"/>
<path d="M2.37022 14.4626C2.28363 14.4077 2.1754 14.3528 2.04552 14.2979C1.24461 15.3081 0.84415 16.1976 0.725095 16.6698C0.703449 16.7431 0.681803 16.8126 0.660156 16.8785C0.689018 16.8785 0.714272 16.8785 0.735918 16.8785C0.963205 16.8785 2.37022 16.8785 2.66244 16.8785C3.03043 16.8785 3.00879 14.9018 2.37022 14.4626Z" fill="#0C2453"/>
<path d="M23.4105 13.4962C23.378 13.4742 23.01 13.5182 22.4797 13.584C21.9061 14.4516 20.6831 15.8462 20.2285 15.989C19.7523 16.1537 18.3561 16.2855 17.7283 16.2855C17.4253 16.2855 15.9966 16.2855 15.0658 16.2855C14.8277 16.6259 14.7736 16.8785 15.0117 16.8785C15.5096 16.8785 17.9881 16.8785 18.3994 16.8785C19.0379 16.8785 20.4341 16.7357 20.9104 16.582C21.5489 16.3733 23.7677 13.639 23.4105 13.4962Z" fill="#0C2453"/>
<path d="M0.854973 16.2854C0.790034 16.4318 0.746742 16.5599 0.725095 16.6698C0.703449 16.743 0.681803 16.8125 0.660156 16.8784C0.689018 16.8784 0.714272 16.8784 0.735918 16.8784C0.963205 16.8784 2.37022 16.8784 2.66244 16.8784C2.79232 16.8784 2.87891 16.6258 2.90055 16.2854C2.47845 16.2854 1.53683 16.2854 0.854973 16.2854Z" fill="#0C2453"/>
<path d="M0.919841 20.1399C0.919841 20.1399 15.6718 20.1399 16.2996 20.1399C16.7433 20.1399 15.4121 23.6649 14.8384 23.6649C14.622 23.6649 1.64499 23.6649 1.47182 23.6649C1.12548 23.6649 0.627615 20.1399 0.919841 20.1399Z" fill="#0C2453"/>
<g style="mix-blend-mode:overlay" opacity="0.3">
<path d="M1.3203 20.9086C1.3203 20.9086 13.8102 20.9086 16.2887 20.9086C16.4078 20.4584 16.4294 20.1399 16.2996 20.1399C15.6718 20.1399 0.919841 20.1399 0.919841 20.1399C0.627615 20.1399 1.12548 23.6649 1.47182 23.6649C1.47904 23.6649 1.50068 23.6649 1.53676 23.6649C1.28783 22.6327 1.10383 20.9086 1.3203 20.9086Z" fill="#0C2453"/>
</g>
<path d="M4.19942 16.0989C4.19942 16.0989 12.6631 16.0989 13.0311 16.0989C13.2909 16.0989 12.7389 16.8786 12.4142 16.8786C12.2952 16.8786 4.48083 16.8786 4.38342 16.8786C4.1886 16.8786 4.02625 16.0989 4.19942 16.0989Z" fill="#2B364D"/>
<path d="M19.7957 21.2381C20.0121 21.8751 19.5359 22.6218 18.735 22.8963C17.9341 23.1819 17.1007 22.8854 16.8842 22.2375C16.6786 21.6005 17.1548 20.8538 17.9557 20.5793C18.7567 20.3047 19.59 20.6012 19.7957 21.2381Z" fill="#C2DDFF"/>
<path d="M19.7198 21.2492C19.8713 21.6994 19.6441 22.1936 19.2111 22.3473C18.7782 22.5011 18.3128 22.2485 18.1505 21.7873C17.9989 21.326 18.2262 20.8319 18.6592 20.6891C19.0921 20.5354 19.5683 20.7879 19.7198 21.2492Z" fill="#0C2453"/>
<path d="M19.4602 21.3369C19.5901 21.6993 19.4061 22.0946 19.0597 22.2045C18.7242 22.3253 18.3454 22.1276 18.2263 21.7652C18.0965 21.4028 18.2804 21.0075 18.6268 20.8867C18.9623 20.7659 19.3411 20.9745 19.4602 21.3369Z" fill="#7696C4"/>
<g style="mix-blend-mode:overlay" opacity="0.3">
<path d="M17.6849 21.4688C18.5941 21.315 19.4167 21.5127 19.7846 21.93C19.8604 21.7103 19.8712 21.4688 19.7955 21.2381C19.5898 20.6012 18.7564 20.3047 17.9555 20.5793C17.3603 20.7879 16.949 21.2491 16.8516 21.7323C17.1005 21.6225 17.3819 21.5237 17.6849 21.4688Z" fill="#0C2453"/>
</g>
<path fill-rule="evenodd" clip-rule="evenodd" d="M19.7632 14.2101C20.3585 14.3199 20.7156 14.9459 20.5641 15.6267C20.4126 16.2966 19.8065 16.7688 19.2112 16.659C18.6159 16.5601 18.2588 15.9342 18.4103 15.2533C18.5618 14.5725 19.1679 14.1113 19.7632 14.2101ZM19.3411 16.1209C19.6658 16.1758 20.0013 15.9122 20.0879 15.5389C20.1745 15.1655 19.9688 14.8141 19.6441 14.7592C19.3194 14.7043 18.9839 14.9568 18.8973 15.3412C18.8107 15.7146 19.0056 16.055 19.3411 16.1209Z" fill="#C4DCFF"/>
<path fill-rule="evenodd" clip-rule="evenodd" d="M17.3061 14.9239C17.7499 15.0008 18.0097 15.473 17.9014 15.9671C17.7824 16.4723 17.3386 16.8237 16.8949 16.7468C16.4511 16.6699 16.1805 16.1977 16.2996 15.6926C16.4078 15.1984 16.8624 14.847 17.3061 14.9239ZM16.9815 16.3405C17.2304 16.3844 17.4793 16.1868 17.5443 15.9122C17.5984 15.6377 17.4577 15.3741 17.2087 15.3302C16.9598 15.2863 16.7109 15.4839 16.6568 15.7585C16.5918 16.033 16.7325 16.2966 16.9815 16.3405Z" fill="#C4DCFF"/>
<path fill-rule="evenodd" clip-rule="evenodd" d="M2.46747 15.9671C2.34842 16.4722 1.89384 16.8236 1.46092 16.7467C1.17951 16.7028 0.96305 16.4942 0.876465 16.2196C1.01717 15.8682 1.25528 15.418 1.57997 14.9348C1.67377 14.9128 1.77118 14.9092 1.8722 14.9238C2.30512 15.0007 2.5757 15.4729 2.46747 15.9671ZM1.77479 15.3301C1.52585 15.2862 1.27692 15.4839 1.22281 15.7584C1.15787 16.033 1.29857 16.2965 1.5475 16.3404C1.79643 16.3844 2.04537 16.1867 2.09948 15.9122C2.16442 15.6376 2.02372 15.3741 1.77479 15.3301Z" fill="#C4DCFF"/>
<g style="mix-blend-mode:overlay" opacity="0.6">
<path d="M1.23391 17.5593C1.65601 17.5593 15.6937 17.5593 16.0616 17.5593C16.4296 17.5593 15.7153 18.0535 14.9469 18.0535C14.1784 18.0535 1.24473 18.0535 0.822625 18.0535C0.400522 18.0535 0.920034 17.5593 1.23391 17.5593Z" fill="white"/>
</g>
</g>
<defs>
<clipPath id="clip0_813_2136">
<rect width="71" height="27.8929" fill="white"/>
</clipPath>
</defs>
</svg>
