<svg width="81" height="25" viewBox="0 0 81 25" fill="none" xmlns="http://www.w3.org/2000/svg">
<g clip-path="url(#clip0_813_2801)">
<path d="M11.2181 16.053H4.43623C3.64253 17.1943 3.16064 18.7296 3.16064 20.4212C3.16064 20.8877 3.16301 21.327 3.16773 21.7391H12.4795C12.4866 21.3247 12.4937 20.8899 12.4937 20.4212C12.4937 18.7296 12.0047 17.1943 11.2181 16.053Z" fill="#13171A"/>
<path d="M25.3701 20.1903H70.5118V16.8071H25.3701V20.1903Z" fill="#13171A"/>
<path d="M44.6597 21.8411H45.914V17.6699H44.6597V21.8411Z" fill="#C4DCFF"/>
<path d="M25.9087 21.8613H46.1268V21.0393H25.9087V21.8613Z" fill="#C4DCFF"/>
<path d="M25.9087 20.4211H46.1268V19.5991H25.9087V20.4211Z" fill="#C4DCFF"/>
<path d="M26.1211 21.8411H27.3754V17.6699H26.1211V21.8411Z" fill="#C4DCFF"/>
<path d="M46.3677 21.1889H52.448V17.6699H46.3677V21.1889Z" fill="#C4DCFF"/>
<path d="M46.3677 21.1889H52.448V20.7065H46.3677V21.1889Z" fill="#C9E0FF"/>
<path d="M50.2794 18.4035V18.6481C50.2794 18.6956 50.244 18.7296 50.1944 18.7296H49.8826C49.8472 18.7296 49.8117 18.716 49.7975 18.6888C49.7692 18.6413 49.7196 18.6073 49.6558 18.6073H49.1598C49.1031 18.6073 49.0464 18.6413 49.018 18.6888C49.0038 18.716 48.9684 18.7296 48.933 18.7296H48.6283C48.5787 18.7296 48.5361 18.6956 48.5361 18.6481V18.4035C48.5361 18.3559 48.5787 18.3152 48.6283 18.3152H50.1944C50.244 18.3152 50.2794 18.3559 50.2794 18.4035Z" fill="#404040"/>
<path d="M64.1621 21.1889H70.2424V17.6699H64.1621V21.1889Z" fill="#C4DCFF"/>
<path d="M64.1621 21.1889H70.2424V20.7065H64.1621V21.1889Z" fill="#C9E0FF"/>
<path d="M68.0739 18.4035V18.6481C68.0739 18.6956 68.0314 18.7296 67.9817 18.7296H67.677C67.6416 18.7296 67.6062 18.716 67.592 18.6888C67.5636 18.6413 67.514 18.6073 67.4503 18.6073H66.9542C66.8904 18.6073 66.8408 18.6413 66.8125 18.6888C66.7983 18.716 66.7628 18.7296 66.7274 18.7296H66.4227C66.366 18.7296 66.3306 18.6956 66.3306 18.6481V18.4035C66.3306 18.3559 66.366 18.3152 66.4227 18.3152H67.9817C68.0314 18.3152 68.0739 18.3559 68.0739 18.4035Z" fill="#404040"/>
<path d="M53.837 21.182C53.8795 21.182 53.9149 21.1481 53.9149 21.1005C53.9149 18.75 55.722 17.106 58.3086 17.106C60.8882 17.106 62.6953 18.75 62.6953 21.1005C62.6953 21.1481 62.7307 21.182 62.7803 21.182C62.8228 21.182 62.8583 21.1481 62.8583 21.1005C62.8583 18.6549 60.9874 16.9497 58.3086 16.9497C55.6228 16.9497 53.752 18.6549 53.752 21.1005C53.752 21.1481 53.7874 21.182 53.837 21.182Z" fill="#1E2429"/>
<path d="M72.8645 19.5042H70.5117V20.1903H72.8645V19.5042Z" fill="#404040"/>
<path d="M72.8645 17.8464H70.5117V18.5258H72.8645V17.8464Z" fill="#404040"/>
<path d="M72.8647 17.8464H73.7364V20.2445H72.8647V17.8464Z" fill="#404040"/>
<path d="M73.2612 18.4512H73.9982C74.0762 18.4512 74.14 18.5123 74.14 18.587V19.5042C74.14 19.5789 74.0762 19.64 73.9982 19.64H73.2612V18.4512Z" fill="#D12E34"/>
<path d="M66.8691 20.2106H67.5353V20.0068H66.8691V20.2106Z" fill="#F15A24"/>
<path d="M49.082 20.2106H49.7411V20.0068H49.082V20.2106Z" fill="#F15A24"/>
<path d="M26.4189 20.2106H27.078V20.0068H26.4189V20.2106Z" fill="#F15A24"/>
<path d="M44.9575 20.2106H45.6166V20.0068H44.9575V20.2106Z" fill="#F15A24"/>
<path d="M55.8423 21.1005C55.8423 22.4048 56.9478 23.4646 58.3084 23.4646C59.662 23.4646 60.7675 22.4048 60.7675 21.1005C60.7675 19.7962 59.662 18.7432 58.3084 18.7432C56.9478 18.7432 55.8423 19.7962 55.8423 21.1005Z" fill="#A6CDFF"/>
<path d="M56.1118 21.1006C56.1118 22.2623 57.0969 23.2066 58.3087 23.2066C59.5205 23.2066 60.4984 22.2623 60.4984 21.1006C60.4984 19.939 59.5205 19.0015 58.3087 19.0015C57.0969 19.0015 56.1118 19.939 56.1118 21.1006Z" fill="#84B4F0"/>
<path fill-rule="evenodd" clip-rule="evenodd" d="M58.3089 17.2351C60.5341 17.2351 62.3412 18.9674 62.3412 21.1006C62.3412 23.2405 60.5341 24.9729 58.3089 24.9729C56.0766 24.9729 54.2695 23.2405 54.2695 21.1006C54.2695 18.9674 56.0766 17.2351 58.3089 17.2351ZM58.3089 23.4647C59.6624 23.4647 60.768 22.4049 60.768 21.1006C60.768 19.7962 59.6624 18.7433 58.3089 18.7433C56.9483 18.7433 55.8428 19.7962 55.8428 21.1006C55.8428 22.4049 56.9483 23.4647 58.3089 23.4647Z" fill="#333333"/>
<path fill-rule="evenodd" clip-rule="evenodd" d="M54.7227 21.1006C54.7227 19.212 56.3313 17.6699 58.3085 17.6699C60.2786 17.6699 61.8872 19.212 61.8872 21.1006C61.8872 22.996 60.2786 24.5313 58.3085 24.5313C56.3313 24.5313 54.7227 22.996 54.7227 21.1006ZM55.403 21.1006C55.403 22.636 56.7069 23.886 58.3085 23.886C59.9101 23.886 61.2069 22.636 61.2069 21.1006C61.2069 19.5653 59.9101 18.3153 58.3085 18.3153C56.7069 18.3153 55.403 19.5653 55.403 21.1006Z" fill="#404040"/>
<path d="M58.1172 19.2798C58.1172 19.3817 58.2022 19.4021 58.3085 19.4021C58.4077 19.4021 58.4928 19.3817 58.4928 19.2798C58.4928 19.1779 58.4077 19.0896 58.3085 19.0896C58.2022 19.0896 58.1172 19.1779 58.1172 19.2798Z" fill="#3B4D8A"/>
<path d="M58.4928 22.9279C58.4928 22.8192 58.4077 22.7988 58.3085 22.7988C58.2022 22.7988 58.1172 22.8192 58.1172 22.9279C58.1172 23.0298 58.2022 23.1113 58.3085 23.1113C58.4077 23.1113 58.4928 23.0298 58.4928 22.9279Z" fill="#3B4D8A"/>
<path d="M56.4023 21.2771C56.5157 21.2771 56.5298 21.2024 56.5298 21.1005C56.5298 21.0054 56.5157 20.9238 56.4023 20.9238C56.296 20.9238 56.2109 21.0054 56.2109 21.1005C56.2109 21.2024 56.296 21.2771 56.4023 21.2771Z" fill="#3B4D8A"/>
<path d="M60.2076 20.9238C60.1013 20.9238 60.0801 21.0054 60.0801 21.1005C60.0801 21.2024 60.1013 21.2771 60.2076 21.2771C60.3139 21.2771 60.4061 21.2024 60.4061 21.1005C60.4061 21.0054 60.3139 20.9238 60.2076 20.9238Z" fill="#3B4D8A"/>
<path d="M59.0951 19.4361C59.0384 19.5244 59.1022 19.5788 59.1943 19.6331C59.2794 19.6807 59.3644 19.7011 59.414 19.6127C59.4707 19.5244 59.4424 19.4089 59.3573 19.3614C59.2652 19.3138 59.1518 19.3478 59.0951 19.4361Z" fill="#3B4D8A"/>
<path d="M57.5151 22.7718C57.5718 22.6767 57.508 22.6224 57.4159 22.5748C57.3308 22.5272 57.2458 22.5001 57.1962 22.5884C57.1395 22.6835 57.1678 22.7922 57.26 22.8465C57.345 22.8941 57.4584 22.8601 57.5151 22.7718Z" fill="#3B4D8A"/>
<path d="M56.5653 20.3464C56.6574 20.394 56.7212 20.3396 56.7708 20.2513C56.8204 20.1698 56.8487 20.0882 56.7495 20.0339C56.6574 19.9863 56.5369 20.0135 56.4873 20.095C56.4377 20.1834 56.4731 20.2921 56.5653 20.3464Z" fill="#3B4D8A"/>
<path d="M60.0449 21.8615C59.9528 21.8071 59.8961 21.8683 59.8394 21.9498C59.7898 22.0381 59.7685 22.1128 59.8607 22.1672C59.9528 22.2215 60.0733 22.1943 60.1229 22.106C60.1725 22.0245 60.137 21.909 60.0449 21.8615Z" fill="#3B4D8A"/>
<path d="M59.8607 20.0339C59.7685 20.0882 59.7898 20.1698 59.8394 20.2513C59.8961 20.3396 59.9528 20.394 60.0449 20.3464C60.137 20.2921 60.1725 20.1834 60.1229 20.095C60.0733 20.0135 59.9528 19.9863 59.8607 20.0339Z" fill="#3B4D8A"/>
<path d="M56.7495 22.1672C56.8487 22.1128 56.8204 22.0381 56.7708 21.9498C56.7212 21.8683 56.6574 21.8071 56.5653 21.8615C56.4731 21.909 56.4377 22.0245 56.4873 22.106C56.5369 22.1943 56.6574 22.2215 56.7495 22.1672Z" fill="#3B4D8A"/>
<path d="M57.1962 19.6127C57.2458 19.7011 57.3308 19.6807 57.4159 19.6331C57.508 19.5788 57.5718 19.5244 57.5151 19.4361C57.4584 19.3478 57.345 19.3138 57.26 19.3614C57.1678 19.4089 57.1395 19.5244 57.1962 19.6127Z" fill="#3B4D8A"/>
<path d="M59.414 22.5884C59.3644 22.5001 59.2794 22.5272 59.1943 22.5748C59.1022 22.6224 59.0384 22.6767 59.0951 22.7718C59.1518 22.8601 59.2652 22.8941 59.3573 22.8465C59.4424 22.7922 59.4707 22.6835 59.414 22.5884Z" fill="#3B4D8A"/>
<path fill-rule="evenodd" clip-rule="evenodd" d="M58.3087 18.689C59.6977 18.689 60.8174 19.7691 60.8174 21.1006C60.8174 22.4322 59.6977 23.5123 58.3087 23.5123C56.9197 23.5123 55.793 22.4322 55.793 21.1006C55.793 19.7691 56.9197 18.689 58.3087 18.689ZM58.3087 23.3697C59.6127 23.3697 60.6686 22.3574 60.6686 21.1006C60.6686 19.8506 59.6127 18.8316 58.3087 18.8316C56.9977 18.8316 55.9418 19.8506 55.9418 21.1006C55.9418 22.3574 56.9977 23.3697 58.3087 23.3697Z" fill="#9DC2F0"/>
<g style="mix-blend-mode:overlay" opacity="0.3">
<path d="M58.3087 20.1835C57.2528 20.1835 56.3811 20.9648 56.3032 21.9566C56.1827 21.6985 56.1118 21.4064 56.1118 21.1006C56.1118 19.939 57.0969 19.0015 58.3087 19.0015C59.5205 19.0015 60.4984 19.939 60.4984 21.1006C60.4984 21.4064 60.4347 21.6985 60.3071 21.9566C60.2291 20.9648 59.3646 20.1835 58.3087 20.1835Z" fill="black"/>
</g>
<path d="M56.8135 21.1005C56.8135 21.8885 57.4796 22.5271 58.3087 22.5271C59.1308 22.5271 59.7969 21.8885 59.7969 21.1005C59.7969 20.3124 59.1308 19.6738 58.3087 19.6738C57.4796 19.6738 56.8135 20.3124 56.8135 21.1005Z" fill="#A6CDFF"/>
<path d="M56.9482 21.1005C56.9482 21.8206 57.5577 22.4048 58.3089 22.4048C59.0601 22.4048 59.6695 21.8206 59.6695 21.1005C59.6695 20.3804 59.0601 19.7961 58.3089 19.7961C57.5577 19.7961 56.9482 20.3804 56.9482 21.1005Z" fill="#C4DEFF"/>
<path d="M57.6143 21.1006C57.6143 21.4675 57.9261 21.7596 58.3087 21.7596C58.6843 21.7596 58.9961 21.4675 58.9961 21.1006C58.9961 20.7406 58.6843 20.4417 58.3087 20.4417C57.9261 20.4417 57.6143 20.7406 57.6143 21.1006Z" fill="#84B4F0"/>
<path d="M5.10938 21.1004C5.10938 22.5407 6.32827 23.7091 7.82355 23.7091C9.32591 23.7091 10.5448 22.5407 10.5448 21.1004C10.5448 19.6602 9.32591 18.4985 7.82355 18.4985C6.32827 18.4985 5.10938 19.6602 5.10938 21.1004Z" fill="#9DC2F0"/>
<g style="mix-blend-mode:overlay" opacity="0.3">
<path d="M5.83221 19.3342C5.72591 19.6196 5.66213 19.9388 5.66213 20.2717C5.66213 21.7119 6.77473 22.8736 8.14953 22.8736C9.29048 22.8736 10.2543 22.0652 10.5377 20.9579C10.5424 21.0077 10.5448 21.0552 10.5448 21.1005C10.5448 22.5408 9.32591 23.7092 7.82355 23.7092C6.32827 23.7092 5.10938 22.5408 5.10938 21.1005C5.10938 20.4212 5.38575 19.7962 5.83221 19.3342Z" fill="black"/>
</g>
<path fill-rule="evenodd" clip-rule="evenodd" d="M7.82379 17.2351C10.0561 17.2351 11.8632 18.9674 11.8632 21.1006C11.8632 23.2405 10.0561 24.9729 7.82379 24.9729C5.59859 24.9729 3.7915 23.2405 3.7915 21.1006C3.7915 18.9674 5.59859 17.2351 7.82379 17.2351ZM7.82379 23.6685C9.30489 23.6685 10.5096 22.5204 10.5096 21.1006C10.5096 19.6808 9.30489 18.5327 7.82379 18.5327C6.34268 18.5327 5.14505 19.6808 5.14505 21.1006C5.14505 22.5204 6.34268 23.6685 7.82379 23.6685Z" fill="#333333"/>
<path fill-rule="evenodd" clip-rule="evenodd" d="M4.14551 21.1005C4.14551 19.1576 5.79669 17.5747 7.82346 17.5747C9.85732 17.5747 11.5014 19.1576 11.5014 21.1005C11.5014 23.0435 9.85732 24.6263 7.82346 24.6263C5.79669 24.6263 4.14551 23.0435 4.14551 21.1005ZM4.84 21.1005C4.84 22.6766 6.17937 23.9606 7.82346 23.9606C9.47464 23.9606 10.8069 22.6766 10.8069 21.1005C10.8069 19.5244 9.47464 18.2405 7.82346 18.2405C6.17937 18.2405 4.84 19.5244 4.84 21.1005Z" fill="#404040"/>
<path d="M5.95996 21.1007C5.95996 22.0925 6.79618 22.8941 7.82374 22.8941C8.85839 22.8941 9.69461 22.0925 9.69461 21.1007C9.69461 20.1156 8.85839 19.314 7.82374 19.314C6.79618 19.314 5.95996 20.1156 5.95996 21.1007Z" fill="#D9EAFF"/>
<path d="M6.36377 21.1006C6.36377 21.8751 7.02282 22.5001 7.82361 22.5001C8.63149 22.5001 9.28345 21.8751 9.28345 21.1006C9.28345 20.3262 8.63149 19.7012 7.82361 19.7012C7.02282 19.7012 6.36377 20.3262 6.36377 21.1006Z" fill="#C4DEFF"/>
<path d="M7.11475 21.1005C7.11475 21.4741 7.43364 21.7798 7.82341 21.7798C8.22026 21.7798 8.53207 21.4741 8.53207 21.1005C8.53207 20.7268 8.22026 20.4211 7.82341 20.4211C7.43364 20.4211 7.11475 20.7268 7.11475 21.1005Z" fill="#84B4F0"/>
<path d="M7.604 18.9471C7.604 19.0694 7.70322 19.0897 7.82369 19.0897C7.94416 19.0897 8.04337 19.0694 8.04337 18.9471C8.04337 18.8248 7.94416 18.7229 7.82369 18.7229C7.70322 18.7229 7.604 18.8248 7.604 18.9471Z" fill="#3B4D8A"/>
<path d="M8.04337 23.2608C8.04337 23.1317 7.94416 23.1113 7.82369 23.1113C7.70322 23.1113 7.604 23.1317 7.604 23.2608C7.604 23.3831 7.70322 23.4782 7.82369 23.4782C7.94416 23.4782 8.04337 23.3831 8.04337 23.2608Z" fill="#3B4D8A"/>
<path d="M5.57712 21.3111C5.70468 21.3111 5.72594 21.216 5.72594 21.1005C5.72594 20.985 5.70468 20.8899 5.57712 20.8899C5.44956 20.8899 5.34326 20.985 5.34326 21.1005C5.34326 21.216 5.44956 21.3111 5.57712 21.3111Z" fill="#3B4D8A"/>
<path d="M10.0773 20.8899C9.94973 20.8899 9.92139 20.985 9.92139 21.1005C9.92139 21.216 9.94973 21.3111 10.0773 21.3111C10.2049 21.3111 10.3112 21.216 10.3112 21.1005C10.3112 20.985 10.2049 20.8899 10.0773 20.8899Z" fill="#3B4D8A"/>
<path d="M8.75898 19.1305C8.6952 19.2392 8.77316 19.3003 8.87237 19.3615C8.97867 19.4158 9.07788 19.4498 9.14166 19.3411C9.20544 19.2324 9.17001 19.1033 9.06371 19.0422C8.9645 18.981 8.82276 19.0218 8.75898 19.1305Z" fill="#3B4D8A"/>
<path d="M6.89541 23.0775C6.95919 22.9688 6.88124 22.9008 6.77494 22.8465C6.67572 22.7854 6.57651 22.7582 6.51273 22.8669C6.44895 22.9688 6.4773 23.1046 6.5836 23.1658C6.6899 23.2201 6.82454 23.1794 6.89541 23.0775Z" fill="#3B4D8A"/>
<path d="M5.76862 20.2039C5.88201 20.2651 5.94579 20.1971 6.00957 20.0952C6.07335 19.9933 6.10169 19.905 5.98831 19.8439C5.87492 19.7827 5.74028 19.8099 5.6765 19.9118C5.6198 20.0137 5.65524 20.1428 5.76862 20.2039Z" fill="#3B4D8A"/>
<path d="M9.88565 21.9973C9.77226 21.9362 9.70139 22.0041 9.6447 22.106C9.58092 22.2079 9.55257 22.303 9.66596 22.3642C9.77226 22.4253 9.91399 22.3913 9.97777 22.2894C10.0345 22.1875 9.99194 22.0584 9.88565 21.9973Z" fill="#3B4D8A"/>
<path d="M9.66596 19.8439C9.55257 19.905 9.58092 19.9933 9.6447 20.0952C9.70139 20.1971 9.77226 20.2651 9.88565 20.2039C9.99194 20.1428 10.0345 20.0137 9.97777 19.9118C9.91399 19.8099 9.77226 19.7827 9.66596 19.8439Z" fill="#3B4D8A"/>
<path d="M5.98831 22.3642C6.10169 22.303 6.07335 22.2079 6.00957 22.106C5.94579 22.0041 5.88201 21.9362 5.76862 21.9973C5.65524 22.0584 5.6198 22.1875 5.6765 22.2894C5.74028 22.3913 5.87492 22.4253 5.98831 22.3642Z" fill="#3B4D8A"/>
<path d="M6.51273 19.3411C6.57651 19.4498 6.67572 19.4158 6.77494 19.3615C6.88124 19.3003 6.95919 19.2392 6.89541 19.1305C6.82454 19.0218 6.6899 18.981 6.5836 19.0422C6.4773 19.1033 6.44895 19.2324 6.51273 19.3411Z" fill="#3B4D8A"/>
<path d="M9.14166 22.8669C9.07788 22.7582 8.97867 22.7854 8.87237 22.8465C8.77316 22.9008 8.6952 22.9688 8.75898 23.0775C8.82276 23.1794 8.9645 23.2201 9.06371 23.1658C9.17001 23.1046 9.20544 22.9688 9.14166 22.8669Z" fill="#3B4D8A"/>
<path fill-rule="evenodd" clip-rule="evenodd" d="M7.82357 18.4714C9.34011 18.4714 10.5732 19.6467 10.5732 21.1005C10.5732 22.5543 9.34011 23.7364 7.82357 23.7364C6.30704 23.7364 5.08105 22.5543 5.08105 21.1005C5.08105 19.6467 6.30704 18.4714 7.82357 18.4714ZM7.82357 23.5801C9.25507 23.5801 10.4102 22.4728 10.4102 21.1005C10.4102 19.735 9.25507 18.6209 7.82357 18.6209C6.39917 18.6209 5.24405 19.735 5.24405 21.1005C5.24405 22.4728 6.39917 23.5801 7.82357 23.5801Z" fill="#D9EAFF"/>
<path d="M71.3482 16.807H27.0781V15.2649H80.9435V15.4687L71.3482 16.807Z" fill="#C9E0FF"/>
<path d="M27.0781 15.2649H30.1608L27.7514 8.85181H27.0781V15.2649Z" fill="#B8D6FF"/>
<path d="M45.0566 15.5027H71.185V16.5693H45.0566V15.5027Z" fill="#FBB03B"/>
<path d="M61.2002 16.5693H62.2135L61.4482 15.5027H60.4419L61.2002 16.5693Z" fill="#1E2429"/>
<path d="M59.0671 16.5693H60.0734L59.3151 15.5027H58.3018L59.0671 16.5693Z" fill="#1E2429"/>
<path d="M56.9267 16.5693H57.9401L57.1748 15.5027H56.1685L56.9267 16.5693Z" fill="#1E2429"/>
<path d="M54.7937 16.5693H55.8L55.0417 15.5027H54.0283L54.7937 16.5693Z" fill="#1E2429"/>
<path d="M69.7465 16.5693H70.7599L69.9946 15.5027H68.9883L69.7465 16.5693Z" fill="#1E2429"/>
<path d="M67.6135 16.5693H68.6198L67.8544 15.5027H66.8481L67.6135 16.5693Z" fill="#1E2429"/>
<path d="M65.4731 16.5693H66.4865L65.7211 15.5027H64.7148L65.4731 16.5693Z" fill="#1E2429"/>
<path d="M63.3401 16.5693H64.3464L63.581 15.5027H62.5747L63.3401 16.5693Z" fill="#1E2429"/>
<path d="M52.6538 16.5693H53.6672L52.9018 15.5027H51.8955L52.6538 16.5693Z" fill="#1E2429"/>
<path d="M50.5202 16.5693H51.5265L50.7683 15.5027H49.7549L50.5202 16.5693Z" fill="#1E2429"/>
<path d="M48.3803 16.5693H49.3937L48.6284 15.5027H47.6221L48.3803 16.5693Z" fill="#1E2429"/>
<path d="M46.2473 16.5693H47.2536L46.4953 15.5027H45.4819L46.2473 16.5693Z" fill="#1E2429"/>
<path d="M23.1378 0.713379H24.052C24.1228 0.713379 24.1866 0.75414 24.222 0.815281L24.4063 1.12099H22.7764L22.9606 0.815281C22.9961 0.75414 23.0598 0.713379 23.1378 0.713379Z" fill="#333333"/>
<path d="M23.4143 0.0407715H23.7686C23.8324 0.0407715 23.8891 0.0815323 23.8962 0.142674L23.9954 0.713326H23.1875L23.2867 0.142674C23.3009 0.0815323 23.3505 0.0407715 23.4143 0.0407715Z" fill="#F15A24"/>
<g style="mix-blend-mode:overlay" opacity="0.2">
<path d="M23.6411 0.0407715H23.7474C23.8041 0.0407715 23.8537 0.0815323 23.8679 0.142674L23.96 0.713326H23.7262L23.6907 0.142674C23.6907 0.0815323 23.6695 0.0407715 23.6411 0.0407715Z" fill="black"/>
</g>
<g style="mix-blend-mode:overlay" opacity="0.2">
<path d="M23.3929 0.142674C23.4 0.0815323 23.4212 0.0407715 23.4496 0.0407715H23.4992C23.4921 0.0407715 23.4779 0.0815323 23.4779 0.142674L23.4566 0.713326H23.3433L23.3929 0.142674Z" fill="white"/>
</g>
<path d="M24.9163 0.889976C23.3289 1.01226 18.0069 1.4946 16.1289 2.27585C14.173 3.08427 9.588 9.66715 9.588 9.66715C9.588 9.66715 4.7195 10.8628 3.43682 11.8954C2.51556 12.6359 0.999023 15.6658 0.999023 15.6658L1.43131 21.9566H3.51477C3.51005 21.6758 3.50769 21.3791 3.50769 21.0666C3.50769 18.6889 5.44233 16.7595 7.82343 16.7595C10.2116 16.7595 12.1463 18.6889 12.1463 21.0666C12.1463 21.3859 12.1392 21.678 12.1321 21.9566H25.3699V1.284C25.3699 1.05302 25.1644 0.869596 24.9163 0.889976Z" fill="#C4DCFF"/>
<path d="M4.70557 13.8112L5.76147 13.7636L6.76777 13.7229L7.89454 13.6753L8.90084 13.6346L10.0276 13.587L11.0339 13.5462L12.1607 13.4987L13.167 13.4579L14.2938 13.4104L15.3071 13.3696L16.4339 13.3221L17.4402 13.2813L18.567 13.2337L19.5733 13.193L20.7001 13.1454L21.7064 13.1047L22.8331 13.0571L24.9662 12.9688L25.3701 12.9552V11.8818L25.1646 11.8954L24.1583 11.9362L23.0315 11.9769L22.0252 12.0245L20.8985 12.0721L18.7654 12.1604L17.752 12.2011L16.6323 12.2487L15.619 12.2894L13.4859 12.3778L12.3591 12.4253L11.3528 12.4661L10.226 12.5136L9.21974 12.5544L7.07958 12.6427L5.9599 12.6903L5.30084 12.7174L5.15202 12.9892L4.70557 13.8112Z" fill="#FBB03B"/>
<path d="M16.4341 13.3219L17.4404 13.2811L16.6325 12.2485L15.6191 12.2893L16.4341 13.3219Z" fill="#1E2429"/>
<path d="M14.2937 13.4103L15.3071 13.3695L14.4921 12.3369L13.4858 12.3777L14.2937 13.4103Z" fill="#1E2429"/>
<path d="M12.1604 13.4987L13.1667 13.4579L12.3588 12.4253L11.3525 12.4661L12.1604 13.4987Z" fill="#1E2429"/>
<path d="M10.0276 13.587L11.0339 13.5463L10.226 12.5137L9.21973 12.5544L10.0276 13.587Z" fill="#1E2429"/>
<path d="M24.1582 11.936L24.9661 12.9686L25.37 12.955V12.1534L25.1645 11.8953L24.1582 11.936Z" fill="#1E2429"/>
<path d="M22.8333 13.057L23.8467 13.0163L23.0317 11.9836L22.0254 12.0244L22.8333 13.057Z" fill="#1E2429"/>
<path d="M20.7 13.1454L21.7063 13.1046L20.8984 12.072L19.8921 12.1128L20.7 13.1454Z" fill="#1E2429"/>
<path d="M18.5672 13.2338L19.5735 13.193L18.7656 12.1604L17.7593 12.2012L18.5672 13.2338Z" fill="#1E2429"/>
<path d="M7.89455 13.6752L8.90085 13.6344L8.09298 12.6018L7.07959 12.6426L7.89455 13.6752Z" fill="#1E2429"/>
<path d="M5.15186 12.9891L5.7613 13.7636L6.7676 13.7228L5.95973 12.6902L5.30067 12.7174L5.15186 12.9891Z" fill="#1E2429"/>
<g style="mix-blend-mode:overlay" opacity="0.4">
<path d="M4.40059 11.9157C5.35019 11.2364 8.87933 10.1291 9.84311 10.0136C10.8069 9.90488 24.4911 8.32879 24.4911 8.32879L25.3699 8.24048V10.2038C21.5502 10.5095 7.23523 11.7187 5.30059 12.7106C3.06122 13.8587 2.86279 13.6481 2.86279 13.6481C2.86279 13.6481 3.45807 12.5951 4.40059 11.9157Z" fill="white"/>
</g>
<path d="M5.51323 17.4321L5.53449 17.3438L6.54079 16.1617C6.54079 16.1617 3.21008 16.1957 3.13213 16.1685C2.8274 16.0734 1.24709 15.6658 0.999055 15.6658C0.828977 15.6658 0.127402 16.2636 0.0848821 16.3859C-0.127716 16.9837 0.673071 21.9565 0.892756 21.9565C1.04158 21.9565 2.5652 21.9565 3.5148 21.9565C3.51008 21.6757 3.50772 21.3791 3.50772 21.0666C3.50772 19.5381 4.3085 18.1997 5.51323 17.4321Z" fill="#474963"/>
<g style="mix-blend-mode:overlay" opacity="0.2">
<path d="M4.23064 18.6821C2.72828 18.6821 1.11253 18.6821 0.921195 18.6821C0.602297 18.6821 0.1771 17.5883 0.0708008 17.303C0.19836 18.913 0.722769 21.9565 0.892848 21.9565C1.04167 21.9565 2.56529 21.9565 3.5149 21.9565C3.51017 21.6757 3.50781 21.3791 3.50781 21.0666C3.50781 20.1834 3.7771 19.3682 4.23064 18.6821Z" fill="black"/>
</g>
<path d="M7.82342 15.8357C5.0809 15.8357 2.86279 18.1047 2.86279 20.9104C2.86279 21.2773 2.86516 21.626 2.86988 21.9566H3.51476C3.51004 21.6758 3.50767 21.3792 3.50767 21.0667C3.50767 18.689 5.44232 16.7596 7.82342 16.7596C10.2116 16.7596 12.1463 18.689 12.1463 21.0667C12.1463 21.386 12.1392 21.6781 12.1321 21.9566H12.7841C12.7911 21.6305 12.7911 21.2773 12.7911 20.9104C12.7911 18.1047 10.5659 15.8357 7.82342 15.8357Z" fill="#EBF3FF"/>
<path d="M1.02734 15.5977C1.02734 15.5977 3.8549 15.0678 3.99664 14.9795C4.13837 14.8844 5.26514 12.7988 5.30057 12.7105C5.33601 12.6222 2.75648 12.7988 2.64309 12.8328C2.52971 12.86 1.96278 13.7091 1.85648 13.8858C1.74309 14.0556 1.02734 15.5977 1.02734 15.5977Z" fill="#99C3FF"/>
<path d="M3.23837 14.6807C3.35175 14.6059 4.07459 13.3084 4.39349 12.7038C4.89664 12.6834 5.31475 12.6766 5.30057 12.7105C5.26514 12.7989 4.13837 14.8845 3.99664 14.9796C3.8549 15.0679 1.02734 15.5978 1.02734 15.5978C1.02734 15.5978 1.12656 15.3872 1.25412 15.1086C2.09034 14.9524 3.16041 14.735 3.23837 14.6807Z" fill="#80B4FF"/>
<path fill-rule="evenodd" clip-rule="evenodd" d="M3.67815 13.0435C3.98996 13.1386 4.11752 13.5938 3.9687 14.049C3.8128 14.5109 3.43721 14.8098 3.12539 14.7147C2.81358 14.6196 2.68602 14.1645 2.84193 13.7093C2.99075 13.2473 3.36634 12.9484 3.67815 13.0435ZM3.08996 14.375C3.28839 14.443 3.53642 14.246 3.63563 13.9471C3.73484 13.6481 3.6498 13.356 3.45138 13.2949C3.24587 13.2337 3.00492 13.424 2.90571 13.7229C2.8065 14.0218 2.88445 14.3139 3.08996 14.375Z" fill="#D9E8FF"/>
<path fill-rule="evenodd" clip-rule="evenodd" d="M2.41674 13.9334C2.62934 14.0013 2.72147 14.3138 2.61517 14.6399C2.50887 14.966 2.23958 15.1766 2.01989 15.1087C1.80021 15.0407 1.71517 14.7215 1.82147 14.3954C1.92777 14.0761 2.19706 13.8655 2.41674 13.9334ZM1.99863 14.8709C2.14036 14.9117 2.31044 14.7826 2.38131 14.572C2.45218 14.3614 2.39548 14.1508 2.25375 14.11C2.10493 14.0625 1.93485 14.1984 1.86399 14.409C1.79312 14.6195 1.8569 14.8301 1.99863 14.8709Z" fill="#D9E8FF"/>
<g style="mix-blend-mode:overlay" opacity="0.2">
<path d="M5.30065 12.7106C5.27939 12.7649 4.88254 13.5054 4.52821 14.1236C4.0038 14.1915 2.67861 14.4361 1.20459 15.2241C1.42427 14.7554 1.77861 14.0013 1.85656 13.8858C1.92034 13.7703 2.18254 13.3831 2.38805 13.1114C2.69987 12.9891 3.04002 12.8736 3.38018 12.7649C4.17388 12.7106 5.32191 12.6494 5.30065 12.7106Z" fill="white"/>
</g>
<path d="M12.3804 9.72153V6.69843C13.6064 5.22425 14.9457 3.79762 15.7749 3.45115C17.4473 2.75822 22.4363 2.39816 24.4914 2.27588C24.4914 2.93485 24.1371 5.44843 23.9103 7.01773C23.7969 7.79218 23.1591 8.3968 22.3512 8.49191L12.3804 9.72153Z" fill="#333333"/>
<path d="M22.3087 8.17934C22.9677 8.09782 23.4921 7.60189 23.5842 6.97689C23.889 4.85053 24.0874 3.33559 24.1441 2.61548C21.926 2.75135 17.4402 3.10461 15.9094 3.7432C15.2787 4.00814 14.1449 5.0951 12.7134 6.81385V9.3614L22.3087 8.17934Z" fill="#2E4780"/>
<path d="M12.3803 9.72158L9.84326 10.0137L9.93539 9.89142C10.4315 9.17811 11.3669 7.92131 12.3803 6.69849V9.72158Z" fill="#333333"/>
<path d="M21.8125 11.3586C21.8125 11.5285 22.2235 11.6643 22.7267 11.6643C23.2369 11.6643 23.6408 11.5285 23.6408 11.3586C23.6408 11.182 23.2369 11.0461 22.7267 11.0461C22.2235 11.0461 21.8125 11.182 21.8125 11.3586Z" fill="#BFDAFF"/>
<path d="M21.6353 11.3587C21.6353 11.4335 22.0321 11.4946 22.9038 11.4946C23.7825 11.4946 23.825 11.4335 23.825 11.3587C23.825 11.2772 23.7825 11.2161 22.9038 11.2161C22.0321 11.2161 21.6353 11.2772 21.6353 11.3587Z" fill="#404040"/>
<path d="M11.629 9.55846H12.2668V7.77856C11.714 7.77856 11.2676 8.20655 11.2676 8.73645V9.21199C11.2676 9.40221 11.4306 9.55846 11.629 9.55846Z" fill="#424242"/>
<path fill-rule="evenodd" clip-rule="evenodd" d="M22.5497 21.6033H14.1804C14.067 21.6033 13.9749 21.515 13.9749 21.4063C13.9749 20.299 13.6914 19.2052 13.1458 18.2541C12.6214 17.3234 12.3379 16.2501 12.3379 15.1563V7.26908C12.3379 6.88864 12.4796 6.515 12.7277 6.22288C14.0883 4.63321 15.1017 3.68891 15.7607 3.41717C17.4403 2.71744 22.4221 2.35739 24.4914 2.23511C24.5009 2.23511 24.5103 2.23737 24.5198 2.2419C24.5292 2.25096 24.534 2.26228 24.534 2.27587V16.0734C24.534 16.4335 24.0308 18.8316 23.6056 20.7813C23.4993 21.2569 23.0599 21.6033 22.5497 21.6033ZM24.4489 2.31663C22.3654 2.43891 17.4473 2.79897 15.7891 3.4919C15.1584 3.75005 14.1237 4.71473 12.7914 6.27043C12.5576 6.55576 12.4229 6.90902 12.4229 7.26908V15.1563C12.4229 16.2365 12.6993 17.2963 13.2237 18.2134C13.7694 19.178 14.0599 20.2854 14.0599 21.4063C14.0599 21.4674 14.1095 21.5218 14.1804 21.5218H22.5497C23.0174 21.5218 23.4284 21.2025 23.5206 20.7609C24.1229 18.0164 24.4489 16.3452 24.4489 16.0734V2.31663Z" fill="#465373"/>
<g style="mix-blend-mode:overlay" opacity="0.3">
<path d="M23.6976 6.18885C23.9386 4.47689 24.0945 3.24727 24.1441 2.61548C24.0732 2.61548 24 2.62001 23.9244 2.62907C20.1402 3.62771 16.7527 4.63314 13.7693 5.59782C13.4386 5.95561 13.0866 6.36095 12.7134 6.81385V8.69564C16.3559 7.83287 20.1472 6.97689 23.6976 6.18885Z" fill="white"/>
</g>
</g>
<defs>
<clipPath id="clip0_813_2801">
<rect width="81" height="25" fill="white"/>
</clipPath>
</defs>
</svg>
