<svg width="75" height="24" viewBox="0 0 75 24" fill="none" xmlns="http://www.w3.org/2000/svg">
<g clip-path="url(#clip0_813_2530)">
<path d="M4.96696 21.9883H66.7291L67.2026 10.8604H4.90088L4.96696 21.9883Z" fill="#13171A"/>
<path fill-rule="evenodd" clip-rule="evenodd" d="M15.3196 17.7066C15.3196 19.7582 13.6897 21.4085 11.6632 21.4085C9.64781 21.4085 8.00684 19.7582 8.00684 17.7066C8.00684 15.6661 9.64781 14.0159 11.6632 14.0159C13.6897 14.0159 15.3196 15.6661 15.3196 17.7066ZM13.7888 17.7066C13.7888 16.5247 12.8416 15.5658 11.6632 15.5658C10.4958 15.5658 9.53767 16.5247 9.53767 17.7066C9.53767 18.8997 10.4958 19.8586 11.6632 19.8586C12.8416 19.8586 13.7888 18.8997 13.7888 17.7066Z" fill="#0C2453"/>
<path d="M14.0968 17.7065C14.0968 18.0633 14.0307 18.409 13.8986 18.7212C13.8215 18.9219 13.8986 19.156 14.0968 19.2564L14.7356 19.5797C14.9448 19.6801 15.1981 19.5797 15.2973 19.3679C15.5065 18.855 15.6277 18.2975 15.6277 17.7065C15.6277 17.1267 15.5065 16.5692 15.2973 16.0563C15.1981 15.8333 14.9448 15.7441 14.7356 15.8444L14.0968 16.1678C13.8986 16.2681 13.8215 16.5023 13.8986 16.703C14.0307 17.0152 14.0968 17.3497 14.0968 17.7065Z" fill="#8C2418"/>
<path fill-rule="evenodd" clip-rule="evenodd" d="M17.6322 17.7065C17.6322 21.0516 14.967 23.7611 11.663 23.7611C8.37006 23.7611 5.69385 21.0516 5.69385 17.7065C5.69385 14.3726 8.37006 11.6631 11.663 11.6631C14.967 11.6631 17.6322 14.3726 17.6322 17.7065ZM16.1124 17.7065C16.1124 15.2312 14.119 13.213 11.663 13.213C9.20706 13.213 7.22468 15.2312 7.22468 17.7065C7.22468 20.193 9.20706 22.2112 11.663 22.2112C14.119 22.2112 16.1124 20.193 16.1124 17.7065Z" fill="#333333"/>
<path fill-rule="evenodd" clip-rule="evenodd" d="M11.6628 23.3596C8.59012 23.3596 6.0791 20.8285 6.0791 17.7065C6.0791 14.5956 8.59012 12.0645 11.6628 12.0645C14.7465 12.0645 17.2465 14.5956 17.2465 17.7065C17.2465 20.8285 14.7465 23.3596 11.6628 23.3596ZM11.6628 12.9342C9.06368 12.9342 6.94915 15.075 6.94915 17.7065C6.94915 20.3491 9.06368 22.4899 11.6628 22.4899C14.2619 22.4899 16.3765 20.3491 16.3765 17.7065C16.3765 15.075 14.2619 12.9342 11.6628 12.9342Z" fill="#0C2453"/>
<path d="M15.7049 15.9448L12.3128 16.8145L12.0816 13.2799C11.9421 13.265 11.8026 13.2576 11.663 13.2576C11.5235 13.2576 11.3877 13.265 11.2556 13.2799L11.0243 16.8145L7.63221 15.9448C7.52208 16.1975 7.43764 16.4614 7.37891 16.7364L10.6278 18.0522L8.75556 21.0516C8.96848 21.2374 9.19242 21.401 9.42737 21.5422L11.663 18.8215L13.9097 21.5422C14.1447 21.401 14.365 21.2374 14.5705 21.0516L12.7093 18.0522L15.9582 16.7364C15.8921 16.4614 15.8077 16.1975 15.7049 15.9448Z" fill="#C4DEFF"/>
<path d="M13.1278 17.7066C13.1278 18.5317 12.478 19.1896 11.663 19.1896C10.859 19.1896 10.1982 18.5317 10.1982 17.7066C10.1982 16.8926 10.859 16.2236 11.663 16.2236C12.478 16.2236 13.1278 16.8926 13.1278 17.7066Z" fill="#D9EAFF"/>
<path d="M12.588 17.7066C12.588 18.2307 12.1805 18.6544 11.6629 18.6544C11.1563 18.6544 10.7378 18.2307 10.7378 17.7066C10.7378 17.1937 11.1563 16.77 11.6629 16.77C12.1805 16.77 12.588 17.1937 12.588 17.7066Z" fill="#A6CDFF"/>
<path fill-rule="evenodd" clip-rule="evenodd" d="M16.1564 17.7066C16.1564 20.2266 14.141 22.2559 11.663 22.2559C9.18507 22.2559 7.18066 20.2266 7.18066 17.7066C7.18066 15.1978 9.18507 13.1685 11.663 13.1685C14.141 13.1685 16.1564 15.1978 16.1564 17.7066ZM15.8921 17.7066C15.8921 15.3428 13.9978 13.4361 11.663 13.4361C9.32824 13.4361 7.44498 15.3428 7.44498 17.7066C7.44498 20.0705 9.32824 21.9883 11.663 21.9883C13.9978 21.9883 15.8921 20.0705 15.8921 17.7066Z" fill="#D9EAFF"/>
<path fill-rule="evenodd" clip-rule="evenodd" d="M63.6233 17.7066C63.6233 19.7582 61.9824 21.4085 59.9669 21.4085C57.9515 21.4085 56.3105 19.7582 56.3105 17.7066C56.3105 15.6661 57.9515 14.0159 59.9669 14.0159C61.9824 14.0159 63.6233 15.6661 63.6233 17.7066ZM62.0925 17.7066C62.0925 16.5247 61.1343 15.5658 59.9669 15.5658C58.7885 15.5658 57.8414 16.5247 57.8414 17.7066C57.8414 18.8997 58.7885 19.8586 59.9669 19.8586C61.1343 19.8586 62.0925 18.8997 62.0925 17.7066Z" fill="#0C2453"/>
<path d="M62.4008 17.7065C62.4008 18.0633 62.3348 18.409 62.2026 18.7212C62.1145 18.9219 62.2026 19.156 62.4008 19.2564L63.0396 19.5797C63.2489 19.6801 63.5022 19.5797 63.5903 19.3679C63.8105 18.855 63.9317 18.2975 63.9317 17.7065C63.9317 17.1267 63.8105 16.5692 63.5903 16.0563C63.5022 15.8333 63.2489 15.7441 63.0396 15.8444L62.4008 16.1678C62.2026 16.2681 62.1145 16.5023 62.2026 16.703C62.3348 17.0152 62.4008 17.3497 62.4008 17.7065Z" fill="#8C2418"/>
<path fill-rule="evenodd" clip-rule="evenodd" d="M65.9359 17.7065C65.9359 21.0516 63.2597 23.7611 59.9667 23.7611C56.6738 23.7611 53.9976 21.0516 53.9976 17.7065C53.9976 14.3726 56.6738 11.6631 59.9667 11.6631C63.2597 11.6631 65.9359 14.3726 65.9359 17.7065ZM64.4161 17.7065C64.4161 15.2312 62.4227 13.213 59.9667 13.213C57.5108 13.213 55.5174 15.2312 55.5174 17.7065C55.5174 20.193 57.5108 22.2112 59.9667 22.2112C62.4227 22.2112 64.4161 20.193 64.4161 17.7065Z" fill="#333333"/>
<path fill-rule="evenodd" clip-rule="evenodd" d="M59.967 23.3596C56.8943 23.3596 54.3833 20.8285 54.3833 17.7065C54.3833 14.5956 56.8943 12.0645 59.967 12.0645C63.0397 12.0645 65.5507 14.5956 65.5507 17.7065C65.5507 20.8285 63.0397 23.3596 59.967 23.3596ZM59.967 12.9342C57.3679 12.9342 55.2533 15.075 55.2533 17.7065C55.2533 20.3491 57.3679 22.4899 59.967 22.4899C62.5661 22.4899 64.6807 20.3491 64.6807 17.7065C64.6807 15.075 62.5661 12.9342 59.967 12.9342Z" fill="#0C2453"/>
<path d="M63.9976 15.9448L60.6055 16.8145L60.3742 13.2799C60.2421 13.265 60.1063 13.2576 59.9668 13.2576C59.8273 13.2576 59.6914 13.265 59.5593 13.2799L59.328 16.8145L55.9359 15.9448C55.8258 16.1975 55.7414 16.4614 55.6826 16.7364L58.9315 18.0522L57.0593 21.0516C57.2648 21.2374 57.4888 21.401 57.7311 21.5422L59.9668 18.8215L62.2024 21.5422C62.4447 21.401 62.6687 21.2374 62.8742 21.0516L61.002 18.0522L64.2509 16.7364C64.1922 16.4614 64.1077 16.1975 63.9976 15.9448Z" fill="#C4DEFF"/>
<path d="M61.432 17.7066C61.432 18.5317 60.7712 19.1896 59.9672 19.1896C59.1632 19.1896 58.5024 18.5317 58.5024 17.7066C58.5024 16.8926 59.1632 16.2236 59.9672 16.2236C60.7712 16.2236 61.432 16.8926 61.432 17.7066Z" fill="#D9EAFF"/>
<path d="M60.8922 17.7066C60.8922 18.2307 60.4737 18.6544 59.9671 18.6544C59.4495 18.6544 59.042 18.2307 59.042 17.7066C59.042 17.1937 59.4495 16.77 59.9671 16.77C60.4737 16.77 60.8922 17.1937 60.8922 17.7066Z" fill="#A6CDFF"/>
<path fill-rule="evenodd" clip-rule="evenodd" d="M64.4604 17.7066C64.4604 20.2266 62.445 22.2559 59.967 22.2559C57.489 22.2559 55.4736 20.2266 55.4736 17.7066C55.4736 15.1978 57.489 13.1685 59.967 13.1685C62.445 13.1685 64.4604 15.1978 64.4604 17.7066ZM64.1961 17.7066C64.1961 15.3428 62.3018 13.4361 59.967 13.4361C57.6322 13.4361 55.7379 15.3428 55.7379 17.7066C55.7379 20.0705 57.6322 21.9883 59.967 21.9883C62.3018 21.9883 64.1961 20.0705 64.1961 17.7066Z" fill="#D9EAFF"/>
<path d="M74.2179 11.9419C74.0858 11.8192 73.1607 8.59678 73.1607 8.29572C73.1607 7.98352 73.1717 7.3145 73.0726 7.203C72.9624 7.10265 68.0505 6.61204 67.5659 6.41133C67.0924 6.19948 60.7928 3.25582 55.2422 1.71709C50.1981 0.323306 42.0593 -0.501811 37.3237 0.356757C31.8941 1.34913 22.6761 7.14725 22.6761 7.14725C22.6761 7.14725 18.5131 7.23645 11.4536 8.08387C4.39415 8.92014 0.330273 12.0757 0.330273 12.2206C0.330273 12.3767 0.726749 14.8855 0.726749 15.1754C0.726749 15.4765 0.176088 16.0005 0.0989956 16.2347C0.0219031 16.48 0.825868 20.7282 0.924987 21.085C1.01309 21.4419 -1.13448 22.3227 1.13424 22.3227C1.13424 22.3227 2.86331 22.3227 5.75979 22.3227C5.45142 21.308 5.27521 19.8362 5.27521 17.7065C5.27521 14.1384 8.13864 11.2394 11.6629 11.2394C15.1981 11.2394 18.0505 14.1384 18.0505 17.7065C18.0505 19.8585 17.8633 21.3192 17.5109 22.3227C28.8435 22.3227 43.7003 22.3227 54.0637 22.3227C53.7554 21.308 53.5792 19.8362 53.5792 17.7065C53.5792 14.1384 56.4426 11.2394 59.9668 11.2394C63.4911 11.2394 66.3545 14.1384 66.3545 17.7065C66.3545 19.8585 66.1562 21.3192 65.8148 22.3227C66.1673 22.3227 66.3875 22.3227 66.4316 22.3227C67.4228 22.3227 72.2245 21.7206 72.632 21.5422C72.8963 21.4195 74.7466 16.8368 74.9558 14.0158C74.9889 13.6367 74.251 11.9865 74.2179 11.9419Z" fill="#C4DCFF"/>
<g style="mix-blend-mode:overlay" opacity="0.5">
<path d="M52.9293 9.73413C52.9293 9.73413 21.817 10.7265 20.0989 10.8603C18.3698 11.0053 21.7068 17.3051 22.1914 17.4055C22.665 17.4947 43.7443 16.5023 44.2178 16.4243C44.6914 16.3462 25.8148 16.4689 24.6584 16.4243C23.513 16.3908 20.4073 11.7412 21.0901 11.6631C21.7729 11.5851 52.9293 9.73413 52.9293 9.73413Z" fill="#0C2453"/>
</g>
<g style="mix-blend-mode:overlay" opacity="0.4">
<path d="M17.5107 22.3228C28.8433 22.3228 43.7002 22.3228 54.0636 22.3228C53.7662 21.3639 53.601 20.0147 53.579 18.0857C49.4601 18.9331 30.7376 19.9366 17.8962 20.5387C17.8081 21.2524 17.6759 21.8433 17.5107 22.3228Z" fill="#0C2453"/>
<path d="M0.143066 22.1665C0.253199 22.2557 0.539542 22.3226 1.13426 22.3226C1.13426 22.3226 2.86333 22.3226 5.75981 22.3226C5.64967 21.9657 5.5579 21.5495 5.48448 21.0737C5.23117 21.0737 0.627648 22.2891 0.143066 22.1665Z" fill="#0C2453"/>
<path d="M74.8017 15.1865C74.1409 16.5469 73.8216 17.0152 72.4119 17.0152C71.7951 17.0152 69.3832 16.9706 66.3216 17.0263C66.3436 17.2493 66.3546 17.476 66.3546 17.7065C66.3546 19.8585 66.1564 21.3192 65.8149 22.3227C66.1674 22.3227 66.3876 22.3227 66.4317 22.3227C67.4229 22.3227 72.2246 21.7206 72.6321 21.5422C72.8634 21.4418 74.2951 17.9518 74.8017 15.1865Z" fill="#0C2453"/>
</g>
<g style="mix-blend-mode:overlay" opacity="0.2">
<path d="M19.7686 22.3227C19.9779 21.1742 20.099 19.7135 20.099 17.8626C20.099 13.2352 16.3215 9.48877 11.6629 9.48877C7.01533 9.48877 3.23779 13.2352 3.23779 17.8626C3.23779 19.7024 3.33691 21.1631 3.52414 22.3227C4.1629 22.3227 4.9118 22.3227 5.75982 22.3227C5.45145 21.308 5.27524 19.8362 5.27524 17.7065C5.27524 14.1384 8.13867 11.2394 11.6629 11.2394C15.1981 11.2394 18.0506 14.1384 18.0506 17.7065C18.0506 19.8585 17.8633 21.3192 17.5109 22.3227C18.2525 22.3227 19.005 22.3227 19.7686 22.3227Z" fill="white"/>
</g>
<g style="mix-blend-mode:overlay" opacity="0.2">
<path d="M68.3922 17.8626C68.3922 13.2352 64.6257 9.48877 59.9671 9.48877C55.3085 9.48877 51.542 13.2352 51.542 17.8626C51.542 19.7024 51.6411 21.1631 51.8283 22.3227C52.5919 22.3227 53.3371 22.3227 54.064 22.3227C53.7556 21.308 53.5794 19.8362 53.5794 17.7065C53.5794 14.1384 56.4429 11.2394 59.9671 11.2394C63.4913 11.2394 66.3548 14.1384 66.3548 17.7065C66.3548 19.8585 66.1565 21.3192 65.8151 22.3227C66.1675 22.3227 66.3878 22.3227 66.4319 22.3227C66.7072 22.3227 67.3349 22.2558 68.1059 22.1554C68.2931 21.0293 68.3922 19.6243 68.3922 17.8626Z" fill="white"/>
</g>
<path d="M54.3063 2.52002C50.7931 1.54995 45.9252 0.925537 41.9054 0.925537C40.2314 0.925537 38.7776 1.02589 37.6102 1.24889C33.4803 1.99596 26.8283 5.85394 24.6587 7.15852C24.6587 7.15852 49.7248 6.60101 52.4891 6.36685C55.2644 6.12155 56.4649 3.62389 56.4318 3.16673C55.6058 2.88798 54.901 2.68727 54.3063 2.52002Z" fill="#333333"/>
<path d="M53.2491 2.73192C49.9672 1.82876 45.4297 1.23779 41.6853 1.23779C40.1214 1.23779 38.7778 1.33815 37.6764 1.53885C33.8328 2.24131 27.6324 5.84284 25.606 7.05822C25.606 7.05822 48.976 6.5453 51.5531 6.3223C54.1412 6.0993 55.2646 3.75775 55.2425 3.33404C54.4606 3.07758 53.7998 2.88803 53.2491 2.73192Z" fill="#0C2453"/>
<g style="mix-blend-mode:overlay" opacity="0.3">
<path d="M25.7598 6.95766C35.1981 6.26635 45.8919 5.64193 54.0858 5.18477C54.8897 4.44886 55.2532 3.57914 55.2421 3.33383C54.4602 3.07738 53.7994 2.88783 53.2488 2.73172C51.5417 2.26341 49.4822 1.87315 47.3787 1.6167C41.9602 2.09616 37.0924 2.65367 32.7752 3.24463C29.9338 4.52691 27.1144 6.15484 25.7598 6.95766Z" fill="#BFDAFF"/>
</g>
<path d="M11.663 10.8604C7.92951 10.8604 4.90088 13.9267 4.90088 17.7066C4.90088 19.7805 5.05506 21.2635 5.33039 22.3228C5.4699 22.3228 5.61307 22.3228 5.75991 22.3228C5.45154 21.3081 5.27533 19.8363 5.27533 17.7066C5.27533 14.1385 8.13876 11.2395 11.663 11.2395C15.1982 11.2395 18.0507 14.1385 18.0507 17.7066C18.0507 19.8586 17.8634 21.3193 17.511 22.3228C17.6505 22.3228 17.7937 22.3228 17.9405 22.3228C18.2599 21.2747 18.4251 19.7917 18.4251 17.7066C18.4251 13.9267 15.3965 10.8604 11.663 10.8604Z" fill="#D4E5FF"/>
<path d="M59.9672 10.8604C56.2337 10.8604 53.2051 13.9267 53.2051 17.7066C53.2051 19.7805 53.3593 21.2635 53.6346 22.3228C53.7814 22.3228 53.9246 22.3228 54.0641 22.3228C53.7557 21.3081 53.5795 19.8363 53.5795 17.7066C53.5795 14.1385 56.443 11.2395 59.9672 11.2395C63.4914 11.2395 66.3549 14.1385 66.3549 17.7066C66.3549 19.8586 66.1566 21.3193 65.8152 22.3228C65.9914 22.3228 66.1346 22.3228 66.2447 22.3228C66.5531 21.2747 66.7293 19.7917 66.7293 17.7066C66.7293 13.9267 63.7007 10.8604 59.9672 10.8604Z" fill="#D4E5FF"/>
<g style="mix-blend-mode:overlay" opacity="0.5">
<path d="M42.0703 20.5165H24.4602L24.4381 20.483C24.295 20.1039 21.0351 11.351 22.1584 9.45546C22.9073 8.18433 24.6474 7.16966 24.6584 7.15851L24.8236 7.14736C24.8126 7.15851 22.9954 8.28468 22.2685 9.52236C21.2223 11.3064 24.295 19.7137 24.5483 20.3938H42.0703C44.6694 20.3938 47.0813 18.9666 48.3589 16.6697C49.8567 14.0048 51.6298 10.4924 51.6298 8.976C51.6298 7.63797 50.1981 6.47835 50.1981 6.47835L51.002 1.77295L51.1232 1.79525L50.3522 6.47835C50.5615 6.6456 51.7619 7.67142 51.7619 8.976C51.7619 10.5259 49.9778 14.0494 48.48 16.7366C47.1694 19.067 44.7135 20.5165 42.0703 20.5165Z" fill="#0C2453"/>
</g>
<path d="M73.1608 8.29565C73.0616 8.29565 72.1586 8.29565 72.0704 8.29565C71.9713 8.29565 72.8304 10.2692 72.9295 10.4142C73.0286 10.5592 73.7995 10.9717 73.8766 11.0052C73.9647 11.0275 73.2709 8.29565 73.1608 8.29565Z" fill="#D12E34"/>
<g style="mix-blend-mode:overlay" opacity="0.3">
<path d="M73.469 9.41083C73.2818 9.31048 72.632 9.12093 72.4558 9.03172C72.4227 9.02057 72.4007 8.99827 72.3897 8.96482C72.3677 8.88677 72.2686 8.54111 72.2686 8.42961L73.1606 8.38501C73.2928 8.73067 73.3258 8.80872 73.469 9.41083Z" fill="white"/>
</g>
<g style="mix-blend-mode:overlay" opacity="0.5">
<path d="M1.99316 11.3287C1.99316 11.3287 6.69581 8.95373 11.6628 8.34046C16.6407 7.7272 24.2398 7.43729 26.5526 7.38154C28.8764 7.33694 50.3412 6.86863 53.4359 6.65678C56.5196 6.43377 68.4249 7.15854 70.9579 7.41499C71.7949 7.55995 69.372 8.10631 68.7883 8.10631C68.2156 8.10631 56.0901 8.10631 51.9931 8.10631C47.9072 8.10631 27.0592 8.38506 21.1451 8.60807C15.2421 8.83107 12.9733 8.83107 9.6914 9.19903C6.40946 9.55584 1.99316 11.3287 1.99316 11.3287Z" fill="white"/>
</g>
<g style="mix-blend-mode:overlay" opacity="0.2">
<path d="M50.5619 8.05041C50.5619 8.36261 49.9231 8.75287 49.1412 8.75287C48.3593 8.75287 47.7095 8.37376 47.7095 8.06156C47.7095 7.74935 48.3482 7.72705 49.1302 7.72705C49.9231 7.72705 50.5619 7.7382 50.5619 8.05041Z" fill="#0C2453"/>
</g>
<path d="M50.8811 8.02806C50.8811 8.11726 50.6278 8.19531 50.0882 8.25106C49.9119 8.26221 49.8789 8.16186 49.5045 8.17301C49.163 8.19531 49.119 8.29566 48.9097 8.29566C47.5441 8.29566 47.478 8.18416 47.478 8.03921C47.478 7.9054 47.5441 7.7939 48.8987 7.78275C50.2644 7.7716 50.8701 7.8831 50.8811 8.02806Z" fill="white"/>
<path d="M0.583472 12.6332C1.36541 12.3545 2.85219 11.9865 4.47114 11.7078C4.53722 11.7078 4.47114 12.3322 4.40506 12.4771C4.33898 12.6332 3.01739 13.8932 2.7751 14.0047C2.53281 14.1162 0.979948 14.4061 0.836776 14.4284C0.704617 14.4507 0.484353 12.6667 0.583472 12.6332Z" fill="#0C2453"/>
<path d="M4.47153 11.7078C2.85258 11.9865 1.3658 12.3545 0.583862 12.6332C0.550822 12.6444 0.550822 12.8785 0.583862 13.1684C1.18959 13.0235 1.87241 12.8897 2.58827 12.7559C2.65435 12.7559 2.58827 13.3803 2.52219 13.5364C2.48915 13.6033 2.19179 13.9155 1.86139 14.2277C2.26888 14.1497 2.66536 14.0605 2.77549 14.0047C3.01778 13.8932 4.33937 12.6332 4.40545 12.4771C4.47153 12.3322 4.53761 11.7078 4.47153 11.7078Z" fill="#0C2453"/>
<g style="mix-blend-mode:overlay" opacity="0.6">
<path fill-rule="evenodd" clip-rule="evenodd" d="M1.74017 13.4917C1.74017 13.8931 1.60801 14.2165 1.44281 14.2165C1.28863 14.2165 1.16748 13.882 1.16748 13.4805C1.17849 13.068 1.31065 12.7446 1.46484 12.7446C1.63004 12.7558 1.75118 13.0791 1.74017 13.4917ZM1.37673 13.0457C1.28863 13.0457 1.20052 13.2464 1.20052 13.4805C1.20052 13.7258 1.2666 13.9154 1.36572 13.9266C1.45382 13.9266 1.54193 13.7258 1.54193 13.4917C1.54193 13.2464 1.47585 13.0457 1.37673 13.0457Z" fill="#D6E7FF"/>
</g>
<g style="mix-blend-mode:overlay" opacity="0.6">
<path fill-rule="evenodd" clip-rule="evenodd" d="M2.56596 13.1349C2.55494 13.6032 2.40076 13.9934 2.21353 13.9934C2.02631 13.9823 1.88314 13.592 1.89415 13.1237C1.89415 12.6442 2.04833 12.2651 2.23556 12.2651C2.42278 12.2651 2.56596 12.6554 2.56596 13.1349ZM2.13644 12.6219C2.02631 12.6219 1.92719 12.8449 1.92719 13.1237C1.92719 13.4136 2.00428 13.6366 2.11441 13.6366C2.22455 13.6478 2.32367 13.4136 2.32367 13.1349C2.33468 12.8561 2.24657 12.6219 2.13644 12.6219Z" fill="#D6E7FF"/>
</g>
<g style="mix-blend-mode:overlay" opacity="0.3">
<path d="M4.47116 11.7078C4.41242 11.7152 4.35369 11.7263 4.29495 11.7412C2.99539 12.2653 1.70684 12.7782 0.583496 13.2353C0.616536 13.5253 0.660589 13.8486 0.715655 14.0828C1.79495 13.6925 2.89627 13.3245 3.93151 12.99C4.18482 12.7447 4.38306 12.5329 4.40508 12.4771C4.47116 12.3322 4.53724 11.7078 4.47116 11.7078Z" fill="white"/>
</g>
<g style="mix-blend-mode:overlay" opacity="0.5">
<path d="M0.37428 16.5917C0.517451 16.5025 2.24653 16.3018 2.40071 16.3018C2.56591 16.3018 2.65401 20.327 2.53287 20.628C2.40071 20.9291 1.28838 21.1633 1.16723 21.1633C1.04609 21.1633 0.165029 16.7032 0.37428 16.5917Z" fill="#0C2453"/>
</g>
<g style="mix-blend-mode:overlay" opacity="0.5">
<path d="M2.40101 16.3018C2.24683 16.3018 0.517754 16.5025 0.374582 16.5917C0.319516 16.614 0.330529 16.8816 0.385595 17.2718C0.947269 17.1938 1.75123 17.1157 1.86137 17.1157C2.02656 17.1157 2.11467 20.4942 1.98251 20.7507C1.91643 20.9068 1.49793 21.0295 1.13449 21.1187C1.14918 21.1484 1.16019 21.1633 1.16753 21.1633C1.28868 21.1633 2.40101 20.9291 2.53317 20.628C2.65432 20.327 2.56621 16.3018 2.40101 16.3018Z" fill="#0C2453"/>
</g>
<path d="M25.5838 6.84616C25.2314 7.06917 24.857 7.58208 24.8129 7.69358C24.7579 7.80508 25.9253 7.83853 26.1455 7.79393C26.3658 7.76048 25.8702 7.40368 26.2557 7.24757C26.6301 7.10262 25.7711 6.73466 25.5838 6.84616Z" fill="#D9EAFF"/>
<path d="M28.4253 7.50423C27.5553 7.50423 26.0134 7.50423 25.5068 7.42617C24.4275 7.23662 27.4452 5.54179 27.8086 5.75364C28.2381 6.01009 28.7007 7.50423 28.4253 7.50423Z" fill="#C4DCFF"/>
</g>
<defs>
<clipPath id="clip0_813_2530">
<rect width="75" height="23.75" fill="white"/>
</clipPath>
</defs>
</svg>
