<svg width="65" height="25" viewBox="0 0 65 25" fill="none" xmlns="http://www.w3.org/2000/svg">
<g clip-path="url(#clip0_813_2228)">
<path d="M4.69222 22.7638H62.0322V13.0408H4.28467L4.69222 22.7638Z" fill="#13171A"/>
<path d="M10.0216 15.6363L11.2339 16.0026C11.3279 16.034 11.4324 15.9712 11.4638 15.877C11.4951 15.7723 11.4429 15.6677 11.3384 15.6363L10.1261 15.27C10.0321 15.249 9.92759 15.3014 9.89624 15.3956C9.86489 15.5002 9.91714 15.6049 10.0216 15.6363Z" fill="#0C2453"/>
<path d="M11.3384 16.0026L10.1261 16.3689C10.0321 16.4003 9.92759 16.348 9.89624 16.2433C9.86489 16.1491 9.91714 16.0445 10.0216 16.0131L11.2339 15.6467C11.3279 15.6153 11.4324 15.6677 11.4638 15.7723C11.4951 15.877 11.4429 15.9817 11.3384 16.0026Z" fill="#0C2453"/>
<path d="M10.0216 14.8933L11.2339 15.2596C11.3279 15.291 11.4324 15.2282 11.4638 15.134C11.4951 15.0294 11.4429 14.9247 11.3384 14.8933L10.1261 14.527C10.0321 14.5061 9.92759 14.5584 9.89624 14.6631C9.86489 14.7573 9.91714 14.8619 10.0216 14.8933Z" fill="#0C2453"/>
<path d="M11.3384 15.2597L10.1261 15.626C10.0321 15.6574 9.92759 15.6051 9.89624 15.5004C9.86489 15.4062 9.91714 15.3015 10.0216 15.2701L11.2339 14.9038C11.3279 14.8724 11.4324 14.9248 11.4638 15.0294C11.4951 15.1341 11.4429 15.2387 11.3384 15.2597Z" fill="#0C2453"/>
<path d="M10.0216 14.1502L11.2339 14.5165C11.3279 14.5479 11.4324 14.4851 11.4638 14.3909C11.4951 14.2862 11.4429 14.1816 11.3384 14.1502L10.1261 13.7838C10.0321 13.7629 9.92759 13.8152 9.89624 13.9199C9.86489 14.0141 9.91714 14.1188 10.0216 14.1502Z" fill="#0C2453"/>
<path d="M11.3384 14.5165L10.1261 14.8828C10.0321 14.9142 9.92759 14.8619 9.89624 14.7572C9.86489 14.663 9.91714 14.5584 10.0216 14.527L11.2339 14.1607C11.3279 14.1293 11.4324 14.1816 11.4638 14.2863C11.4951 14.3909 11.4429 14.4956 11.3384 14.5165Z" fill="#0C2453"/>
<path d="M10.0216 13.407L11.2339 13.7733C11.3279 13.8047 11.4324 13.7419 11.4638 13.6477C11.4951 13.5431 11.4429 13.4384 11.3384 13.407L10.1261 13.0407C10.0321 13.0197 9.92759 13.0721 9.89624 13.1767C9.86489 13.2709 9.91714 13.3756 10.0216 13.407Z" fill="#0C2453"/>
<path d="M11.3384 13.7733L10.1261 14.1397C10.0321 14.1711 9.92759 14.1187 9.89624 14.0141C9.86489 13.9199 9.91714 13.8152 10.0216 13.7838L11.2339 13.4175C11.3279 13.3861 11.4324 13.4384 11.4638 13.5431C11.4951 13.6478 11.4429 13.7524 11.3384 13.7733Z" fill="#0C2453"/>
<path fill-rule="evenodd" clip-rule="evenodd" d="M13.9822 19.2263C13.9822 21.0578 12.4983 22.5336 10.68 22.5336C8.86166 22.5336 7.38818 21.0578 7.38818 19.2263C7.38818 17.4052 8.86166 15.9294 10.68 15.9294C12.4983 15.9294 13.9822 17.4052 13.9822 19.2263ZM12.5924 19.2263C12.5924 18.1692 11.7355 17.311 10.68 17.311C9.62452 17.311 8.76761 18.1692 8.76761 19.2263C8.76761 20.2938 9.62452 21.152 10.68 21.152C11.7355 21.152 12.5924 20.2938 12.5924 19.2263Z" fill="#0C2453"/>
<path d="M13.0525 19.2262C13.0525 19.5507 12.9898 19.8542 12.8748 20.1263C12.7912 20.3147 12.8644 20.524 13.042 20.6077L13.6272 20.8903C13.8153 20.9845 14.0453 20.9008 14.1289 20.7124C14.317 20.2519 14.4319 19.76 14.4319 19.2262C14.4319 18.7029 14.317 18.211 14.1289 17.7505C14.0453 17.5621 13.8153 17.4784 13.6272 17.5726L13.042 17.8552C12.8644 17.9389 12.7912 18.1482 12.8748 18.3261C12.9898 18.6087 13.0525 18.9122 13.0525 19.2262Z" fill="#8C2418"/>
<path d="M14.7035 18.1274L11.7879 18.5251L13.4077 16.076C13.2056 15.8946 12.9862 15.7376 12.7493 15.6051L10.9728 17.9495L10.3771 15.0713C10.1054 15.0922 9.84066 15.1376 9.58289 15.2073L9.98 18.1169L7.52421 16.5051C7.35004 16.7075 7.19677 16.9273 7.0644 17.1645L9.40524 18.9437L6.521 19.5299C6.5419 19.8089 6.58718 20.0776 6.65685 20.3357L9.57244 19.938L7.95267 22.3871C8.1547 22.5615 8.37416 22.7185 8.61103 22.8581L10.398 20.5137L10.9832 23.3918C11.2549 23.3709 11.5197 23.3256 11.7774 23.2558L11.3803 20.3357L13.8361 21.958C14.0103 21.7556 14.1635 21.5359 14.2959 21.2986L11.9551 19.5194L14.8393 18.9333C14.8184 18.6542 14.7731 18.3856 14.7035 18.1274Z" fill="#C4DEFF"/>
<path d="M12.2996 19.2262C12.2996 20.1263 11.5785 20.859 10.6798 20.859C9.78112 20.859 9.06006 20.1263 9.06006 19.2262C9.06006 18.3366 9.78112 17.604 10.6798 17.604C11.5785 17.604 12.2996 18.3366 12.2996 19.2262Z" fill="#C4DEFF"/>
<path d="M11.5893 19.2262C11.5893 19.7391 11.1818 20.1472 10.6802 20.1472C10.1786 20.1472 9.771 19.7391 9.771 19.2262C9.771 18.7239 10.1786 18.3157 10.6802 18.3157C11.1818 18.3157 11.5893 18.7239 11.5893 19.2262Z" fill="#A6CDFF"/>
<path fill-rule="evenodd" clip-rule="evenodd" d="M16.0725 19.2262C16.0725 22.2091 13.6585 24.6267 10.6802 24.6267C7.70188 24.6267 5.29834 22.2091 5.29834 19.2262C5.29834 16.2539 7.70188 13.8362 10.6802 13.8362C13.6585 13.8362 16.0725 16.2539 16.0725 19.2262ZM14.9125 19.2262C14.9125 16.8923 13.0106 14.9979 10.6802 14.9979C8.34979 14.9979 6.45831 16.8923 6.45831 19.2262C6.45831 21.5706 8.34979 23.465 10.6802 23.465C13.0106 23.465 14.9125 21.5706 14.9125 19.2262Z" fill="#333333"/>
<path fill-rule="evenodd" clip-rule="evenodd" d="M10.6801 24.386C7.84806 24.386 5.53857 22.073 5.53857 19.2262C5.53857 16.3899 7.84806 14.0769 10.6801 14.0769C13.5225 14.0769 15.832 16.3899 15.832 19.2262C15.832 22.073 13.5225 24.386 10.6801 24.386ZM10.6801 14.8723C8.28697 14.8723 6.33279 16.8295 6.33279 19.2262C6.33279 21.6334 8.28697 23.5906 10.6801 23.5906C13.0836 23.5906 15.0273 21.6334 15.0273 19.2262C15.0273 16.8295 13.0836 14.8723 10.6801 14.8723Z" fill="#0C2453"/>
<path fill-rule="evenodd" clip-rule="evenodd" d="M14.9438 19.2263C14.9438 21.5916 13.0315 23.4964 10.6802 23.4964C8.32888 23.4964 6.4165 21.5916 6.4165 19.2263C6.4165 16.8714 8.32888 14.9666 10.6802 14.9666C13.0315 14.9666 14.9438 16.8714 14.9438 19.2263ZM14.808 19.2263C14.808 16.9551 12.9583 15.1026 10.6802 15.1026C8.40204 15.1026 6.55236 16.9551 6.55236 19.2263C6.55236 21.5079 8.40204 23.3604 10.6802 23.3604C12.9583 23.3604 14.808 21.5079 14.808 19.2263Z" fill="#D9EAFF"/>
<path d="M55.3547 15.5735L56.5669 15.9398C56.6609 15.9607 56.7654 15.9084 56.7968 15.8142C56.8281 15.7095 56.7759 15.6049 56.6714 15.5735L55.4592 15.2071C55.3651 15.1757 55.2606 15.2385 55.2293 15.3327C55.1979 15.4374 55.2502 15.5421 55.3547 15.5735Z" fill="#0C2453"/>
<path d="M56.6714 15.9398L55.4592 16.3062C55.3651 16.3376 55.2606 16.2852 55.2293 16.1806C55.1979 16.0759 55.2502 15.9712 55.3547 15.9503L56.5669 15.584C56.6609 15.5526 56.7654 15.6049 56.7968 15.7096C56.8281 15.8038 56.7759 15.9085 56.6714 15.9398Z" fill="#0C2453"/>
<path d="M55.3547 14.8305L56.5669 15.1968C56.6609 15.2178 56.7654 15.1655 56.7968 15.0713C56.8281 14.9666 56.7759 14.8619 56.6714 14.8305L55.4592 14.4642C55.3651 14.4328 55.2606 14.4956 55.2293 14.5898C55.1979 14.6945 55.2502 14.7991 55.3547 14.8305Z" fill="#0C2453"/>
<path d="M56.6714 15.1967L55.4592 15.563C55.3651 15.5944 55.2606 15.5421 55.2293 15.4374C55.1979 15.3432 55.2502 15.2281 55.3547 15.2072L56.5669 14.8408C56.6609 14.8094 56.7654 14.8618 56.7968 14.9664C56.8281 15.0606 56.7759 15.1653 56.6714 15.1967Z" fill="#0C2453"/>
<path d="M55.3547 14.0874L56.5669 14.4537C56.6609 14.4746 56.7654 14.4223 56.7968 14.3281C56.8281 14.2234 56.7759 14.1188 56.6714 14.0874L55.4592 13.7211C55.3651 13.6897 55.2606 13.7525 55.2293 13.8467C55.1979 13.9513 55.2502 14.056 55.3547 14.0874Z" fill="#0C2453"/>
<path d="M56.6714 14.4538L55.4592 14.8201C55.3651 14.8515 55.2606 14.7991 55.2293 14.6945C55.1979 14.6003 55.2502 14.4852 55.3547 14.4642L56.5669 14.0979C56.6609 14.0665 56.7654 14.1188 56.7968 14.2235C56.8281 14.3177 56.7759 14.4224 56.6714 14.4538Z" fill="#0C2453"/>
<path d="M55.3547 13.3442L56.5669 13.7105C56.6609 13.7315 56.7654 13.6791 56.7968 13.5849C56.8281 13.4803 56.7759 13.3756 56.6714 13.3442L55.4592 12.9779C55.3651 12.9465 55.2606 13.0093 55.2293 13.1035C55.1979 13.2081 55.2502 13.3128 55.3547 13.3442Z" fill="#0C2453"/>
<path d="M56.6714 13.7106L55.4592 14.0769C55.3651 14.1083 55.2606 14.056 55.2293 13.9513C55.1979 13.8571 55.2502 13.742 55.3547 13.7211L56.5669 13.3548C56.6609 13.3234 56.7654 13.3757 56.7968 13.4803C56.8281 13.5745 56.7759 13.6792 56.6714 13.7106Z" fill="#0C2453"/>
<path fill-rule="evenodd" clip-rule="evenodd" d="M59.3045 19.2263C59.3045 21.0578 57.831 22.5336 56.0127 22.5336C54.1944 22.5336 52.7104 21.0578 52.7104 19.2263C52.7104 17.4052 54.1944 15.9294 56.0127 15.9294C57.831 15.9294 59.3045 17.4052 59.3045 19.2263ZM57.9251 19.2263C57.9251 18.1692 57.0682 17.311 56.0127 17.311C54.9572 17.311 54.1003 18.1692 54.1003 19.2263C54.1003 20.2938 54.9572 21.152 56.0127 21.152C57.0682 21.152 57.9251 20.2938 57.9251 19.2263Z" fill="#0C2453"/>
<path d="M58.3852 19.2262C58.3852 19.5507 58.312 19.8542 58.1971 20.1263C58.1239 20.3147 58.1971 20.524 58.3747 20.6077L58.9599 20.8903C59.148 20.9845 59.3779 20.9008 59.4615 20.7124C59.6496 20.2519 59.7646 19.76 59.7646 19.2262C59.7646 18.7029 59.6496 18.211 59.4615 17.7505C59.3779 17.5621 59.148 17.4784 58.9599 17.5726L58.3747 17.8552C58.1971 17.9389 58.1239 18.1482 58.1971 18.3261C58.312 18.6087 58.3852 18.9122 58.3852 19.2262Z" fill="#8C2418"/>
<path d="M60.036 18.1274L57.1204 18.5251L58.7402 16.076C58.5381 15.8946 58.3187 15.7376 58.0818 15.6051L56.3053 17.9495L55.7096 15.0713C55.4379 15.0922 55.1732 15.1376 54.9154 15.2073L55.3125 18.1169L52.8567 16.5051C52.6826 16.7075 52.5293 16.9273 52.3969 17.1645L54.7378 18.9437L51.8535 19.5299C51.8744 19.8089 51.9197 20.0776 51.9894 20.3357L54.905 19.938L53.2852 22.3871C53.4872 22.5615 53.7067 22.7185 53.9435 22.8581L55.7201 20.5137L56.3157 23.3918C56.5874 23.3709 56.8522 23.3256 57.1099 23.2558L56.7128 20.3357L59.1686 21.958C59.3428 21.7556 59.4961 21.5359 59.6284 21.2986L57.2876 19.5194L60.1718 18.9333C60.1509 18.6542 60.1057 18.3856 60.036 18.1274Z" fill="#C4DEFF"/>
<path d="M57.6326 19.2262C57.6326 20.1263 56.9116 20.859 56.0128 20.859C55.1141 20.859 54.3931 20.1263 54.3931 19.2262C54.3931 18.3366 55.1141 17.604 56.0128 17.604C56.9116 17.604 57.6326 18.3366 57.6326 19.2262Z" fill="#C4DEFF"/>
<path d="M56.9218 19.2262C56.9218 19.7391 56.5143 20.1472 56.0127 20.1472C55.5111 20.1472 55.1035 19.7391 55.1035 19.2262C55.1035 18.7239 55.5111 18.3157 56.0127 18.3157C56.5143 18.3157 56.9218 18.7239 56.9218 19.2262Z" fill="#A6CDFF"/>
<path fill-rule="evenodd" clip-rule="evenodd" d="M61.3947 19.2262C61.3947 22.2091 58.9912 24.6267 56.0129 24.6267C53.0346 24.6267 50.6206 22.2091 50.6206 19.2262C50.6206 16.2539 53.0346 13.8362 56.0129 13.8362C58.9912 13.8362 61.3947 16.2539 61.3947 19.2262ZM60.2348 19.2262C60.2348 16.8923 58.3433 14.9979 56.0129 14.9979C53.6825 14.9979 51.7806 16.8923 51.7806 19.2262C51.7806 21.5706 53.6825 23.465 56.0129 23.465C58.3433 23.465 60.2348 21.5706 60.2348 19.2262Z" fill="#333333"/>
<path fill-rule="evenodd" clip-rule="evenodd" d="M56.0128 24.386C53.1703 24.386 50.8608 22.073 50.8608 19.2262C50.8608 16.3899 53.1703 14.0769 56.0128 14.0769C58.8552 14.0769 61.1542 16.3899 61.1542 19.2262C61.1542 22.073 58.8552 24.386 56.0128 24.386ZM56.0128 14.8723C53.6092 14.8723 51.6655 16.8295 51.6655 19.2262C51.6655 21.6334 53.6092 23.5906 56.0128 23.5906C58.4059 23.5906 60.36 21.6334 60.36 19.2262C60.36 16.8295 58.4059 14.8723 56.0128 14.8723Z" fill="#0C2453"/>
<path fill-rule="evenodd" clip-rule="evenodd" d="M60.2764 19.2263C60.2764 21.5916 58.364 23.4964 56.0127 23.4964C53.6614 23.4964 51.749 21.5916 51.749 19.2263C51.749 16.8714 53.6614 14.9666 56.0127 14.9666C58.364 14.9666 60.2764 16.8714 60.2764 19.2263ZM60.1405 19.2263C60.1405 16.9551 58.2908 15.1026 56.0127 15.1026C53.7346 15.1026 51.8849 16.9551 51.8849 19.2263C51.8849 21.5079 53.7346 23.3604 56.0127 23.3604C58.2908 23.3604 60.1405 21.5079 60.1405 19.2263Z" fill="#D9EAFF"/>
<path d="M57.2148 1.26646C57.382 1.23506 59.0541 1.1304 59.0854 1.14087C59.1272 1.14087 59.169 1.256 59.169 1.30833C59.169 1.35019 58.8764 2.02002 58.8346 2.12468C58.7928 2.22934 57.2148 1.26646 57.2148 1.26646Z" fill="#D4E5FF"/>
<path d="M64.1429 13.2395C64.1429 13.0406 63.7771 9.62869 63.3277 8.69721C62.8784 7.7762 59.1163 1.98844 58.1654 1.49653C57.2144 1.00463 45.04 -0.251305 36.3872 0.0626781C28.257 0.366195 17.1067 7.23196 17.1067 7.23196C17.1067 7.23196 8.79879 9.10539 6.10265 10.4137C3.40651 11.7219 1.99574 14.0349 1.60908 14.3175C1.43143 14.4745 0.21921 15.1862 0.114708 15.5839C-0.104745 16.5049 0.323711 20.8484 0.804419 21.6961C1.09702 22.2194 3.82452 23.109 4.55603 23.109C4.55603 23.109 4.73368 23.109 5.04718 23.109C4.99493 22.052 4.96358 20.7751 4.96358 19.2261C4.96358 16.0758 7.52387 13.5116 10.6798 13.5116C13.8358 13.5116 16.3961 16.0758 16.3961 19.2261C16.3961 20.7751 16.3647 22.052 16.3125 23.109C26.2715 23.109 40.4732 23.109 50.38 23.109C50.3277 22.052 50.2964 20.7751 50.2964 19.2261C50.2964 16.0758 52.8567 13.5116 56.0126 13.5116C59.1686 13.5116 61.7289 16.0758 61.7289 19.2261C61.7289 20.7751 61.6975 22.052 61.6453 23.109C61.8125 23.109 61.917 23.109 61.9379 23.109C62.4395 23.109 64.9266 19.0482 64.9266 18.6295C64.9266 18.2004 64.9266 15.0501 64.9266 14.7885C64.9266 14.5268 64.1429 13.4279 64.1429 13.2395Z" fill="#C4DCFF"/>
<g style="mix-blend-mode:overlay" opacity="0.4">
<path d="M0.208984 18.7239C0.344836 20.0112 0.56429 21.2776 0.804644 21.6963C1.09725 22.2196 3.82474 23.1092 4.55625 23.1092C4.55625 23.1092 4.7339 23.1092 5.04741 23.1092C4.99516 22.0521 4.96381 20.7752 4.96381 19.2263C4.96381 19.0588 4.97426 18.8913 4.99516 18.7239C2.00641 18.7239 0.208984 18.7239 0.208984 18.7239Z" fill="#0C2453"/>
<path d="M16.3752 18.7239C16.3891 18.8913 16.3961 19.0588 16.3961 19.2263C16.3961 20.7752 16.3648 22.0521 16.3125 23.1092C26.2715 23.1092 40.4733 23.1092 50.38 23.1092C50.3278 22.0521 50.2964 20.7752 50.2964 19.2263C50.2964 19.0588 50.3069 18.8913 50.3278 18.7239C40.5151 18.7239 26.9194 18.7239 16.3752 18.7239Z" fill="#0C2453"/>
<path d="M64.9269 18.3157C64.9269 18.3157 63.9968 18.7239 63.1399 18.7239C63.0772 18.7239 62.5651 18.7239 61.6978 18.7239C61.7187 18.8913 61.7291 19.0588 61.7291 19.2262C61.7291 20.7752 61.6978 22.0521 61.6455 23.1091C61.8127 23.1091 61.9172 23.1091 61.9381 23.1091C62.4397 23.1091 64.9269 19.0483 64.9269 18.6297C64.9269 18.5669 64.9269 18.4622 64.9269 18.3157Z" fill="#0C2453"/>
</g>
<path d="M2.27836 13.271C1.5782 14.0769 1.6618 14.2652 1.6618 14.2652C1.6618 14.2652 4.46244 13.9931 4.90135 13.9199C5.34026 13.8466 7.53479 11.2719 7.53479 11.1673C7.53479 11.1149 5.93591 11.3661 5.60151 11.4289C5.35071 11.4813 4.06534 11.8266 3.81453 11.9522C3.55328 12.0778 2.74861 12.7267 2.27836 13.271Z" fill="#0C2453"/>
<path d="M5.95665 11.3661C5.37144 12.0778 3.89797 13.7419 3.55311 13.8047C3.33366 13.8361 2.49765 13.9303 1.73479 14.0036C1.63028 14.2024 1.66164 14.2652 1.66164 14.2652C1.66164 14.2652 4.46228 13.9931 4.90119 13.9198C5.34009 13.8466 7.53463 11.2719 7.53463 11.1673C7.53463 11.1254 6.53141 11.2719 5.95665 11.3661Z" fill="#0C2453"/>
<path d="M36.4084 0.68026C28.5394 0.962845 17.5354 7.68208 17.4204 7.75534L55.4799 7.07505C55.4799 7.07505 54.3408 4.1864 53.6825 2.51183C53.4003 1.8106 52.742 1.32916 51.9895 1.2559C48.5514 0.962845 43.9116 0.62793 39.3553 0.62793C38.3103 0.62793 37.3175 0.648862 36.4084 0.68026Z" fill="#333333"/>
<path d="M19.73 7.67177L55.1978 7.0438C55.1978 7.0438 54.0588 4.18656 53.4109 2.58524C53.1496 1.94681 52.5644 1.5177 51.8851 1.4549C48.5202 1.17232 43.9326 0.837402 39.4285 0.837402C38.4044 0.837402 37.443 0.858335 36.5443 0.889733C31.1625 1.08859 24.2758 4.31215 20.5869 6.24838C20.0644 6.53096 19.73 7.0752 19.73 7.67177Z" fill="#0C2453"/>
<g style="mix-blend-mode:overlay" opacity="0.3">
<path d="M54.4141 5.08656C54.0797 4.2388 53.693 3.28639 53.4109 2.58516C53.1496 1.94673 52.5644 1.51761 51.8851 1.45482C49.3457 1.23503 46.1062 0.994309 42.7308 0.889648C33.8899 2.03045 27.2332 3.72596 22.8964 5.08656C22.0395 5.49473 21.2557 5.89245 20.5869 6.24829C20.0644 6.52041 19.7404 7.05418 19.73 7.64029C28.9261 6.36342 46.2629 5.45287 54.4141 5.08656Z" fill="white"/>
</g>
<g style="mix-blend-mode:overlay" opacity="0.2">
<path d="M63.3281 8.69722C63.1922 8.41463 62.7429 7.67154 62.1576 6.76099L54.3932 7.1273C54.3932 7.1273 18.894 7.75527 17.4205 7.75527C16.5532 7.75527 9.562 9.63916 7.53467 11.1672C7.53467 11.1672 15.017 9.90082 16.5009 9.90082C17.7967 9.90082 54.738 9.09493 63.4117 8.90654C63.3838 8.82979 63.3559 8.76001 63.3281 8.69722Z" fill="white"/>
</g>
<path d="M62.1578 6.76099C61.792 6.76099 62.7534 8.52976 62.8579 9.0426C63.4118 11.6277 63.4118 13.2395 64.1433 13.2395C64.2478 13.2395 63.8194 9.55544 63.6104 9.05306C63.4118 8.54022 62.2309 6.76099 62.1578 6.76099Z" fill="#D12E34"/>
<g style="mix-blend-mode:overlay" opacity="0.3">
<path d="M63.0666 8.99049C62.9412 8.8335 62.7844 8.46719 62.6172 8.07994C62.5545 7.94388 62.2306 7.23219 62.3246 7.0752C62.6799 7.60897 63.401 8.68697 63.5159 8.96956C63.6727 9.34634 63.1502 9.11609 63.0666 8.99049Z" fill="white"/>
</g>
<path d="M38.2163 7.34723L40.4317 7.30537L40.7348 0.669858C40.2541 0.662881 39.7699 0.655903 39.2822 0.648926L38.2163 7.34723Z" fill="#333333"/>
<g style="mix-blend-mode:overlay" opacity="0.3">
<path d="M55.4799 7.07505H55.344C55.4067 7.61928 54.6857 10.2253 53.8183 11.3034L53.7451 11.3871C48.3947 17.9807 44.7476 21.916 43.9847 21.916H38.8432C38.8746 21.1624 39.3553 7.67161 39.3971 7.38903C39.4284 7.12738 39.8987 2.23971 40.0554 0.62793C40.0136 0.62793 39.9718 0.62793 39.93 0.62793C39.7837 2.23971 39.3135 7.11691 39.2717 7.3681C39.2299 7.66115 38.7596 21.0159 38.7283 21.916H20.5868C20.4614 21.5601 19.6045 18.9227 19.4791 18.1168C19.3328 17.2272 18.9775 10.1835 18.9775 9.85903C18.9775 9.55551 19.4373 8.33098 19.6776 7.72395V6.46801C19.6428 6.48895 19.6045 6.50988 19.5627 6.53081V7.69255C19.5 7.86 18.8521 9.47178 18.8521 9.85903C18.8521 10.1835 19.2178 17.2376 19.3537 18.1377C19.4895 19.0064 20.4405 21.8741 20.4823 21.9997L20.4927 22.0416H43.9847C45.1029 22.0416 50.6414 15.4165 53.8392 11.4603L53.9123 11.3766C54.8111 10.2672 55.5321 7.67161 55.4799 7.07505Z" fill="#0C2453"/>
</g>
<path fill-rule="evenodd" clip-rule="evenodd" d="M5.31925 12.0464C5.4969 11.6801 5.83131 11.4812 6.07166 11.5963C6.30156 11.7115 6.35381 12.0987 6.17616 12.465C5.99851 12.8313 5.6641 13.0302 5.42375 12.9151C5.1834 12.7999 5.1416 12.4127 5.31925 12.0464ZM5.36105 12.0673C5.2461 12.308 5.27745 12.5592 5.4342 12.6325C5.59095 12.7058 5.81041 12.5802 5.92536 12.3394C6.04031 12.0987 6.00896 11.8475 5.85221 11.7743C5.69545 11.701 5.476 11.8266 5.36105 12.0673Z" fill="#D9E8FF"/>
<path fill-rule="evenodd" clip-rule="evenodd" d="M2.59142 13.2396C2.74817 12.9256 3.04078 12.7477 3.24978 12.8419C3.45878 12.9465 3.50058 13.2919 3.34383 13.6059C3.18708 13.9303 2.89448 14.1083 2.68547 14.0036C2.47647 13.9094 2.43467 13.564 2.59142 13.2396ZM2.63322 13.2605C2.52872 13.4698 2.56007 13.6896 2.69592 13.7629C2.82132 13.8257 3.01988 13.7105 3.11393 13.5012C3.21843 13.2919 3.19753 13.0721 3.06168 12.9989C2.92583 12.9361 2.72727 13.0512 2.63322 13.2605Z" fill="#D9E8FF"/>
<path fill-rule="evenodd" clip-rule="evenodd" d="M3.74139 12.5907C3.98175 12.0988 4.4311 11.8267 4.75506 11.9837C5.07901 12.1407 5.14171 12.664 4.90136 13.1663C4.66101 13.6582 4.2012 13.9408 3.88769 13.7838C3.56374 13.6268 3.50104 13.0931 3.74139 12.5907ZM3.80409 12.6326C3.64734 12.9465 3.68914 13.2919 3.89814 13.3966C4.10715 13.5012 4.39975 13.3233 4.5565 12.9989C4.71326 12.6744 4.67146 12.329 4.46245 12.2244C4.25345 12.1302 3.96085 12.3081 3.80409 12.6326Z" fill="#D9E8FF"/>
<g style="mix-blend-mode:overlay" opacity="0.2">
<path d="M6.04024 12.9151C6.7613 12.1615 7.53461 11.23 7.53461 11.1672C7.53461 11.1463 7.04345 11.1986 6.5523 11.2719C5.47593 11.6487 4.04426 12.1929 2.71709 12.8209C2.56034 12.9674 2.40358 13.1244 2.27818 13.2709C1.77657 13.8466 1.67207 14.1082 1.66162 14.2129C2.87384 13.8466 4.88027 13.25 6.04024 12.9151Z" fill="white"/>
</g>
<path d="M21.1408 7.73435C21.1408 7.81808 20.6182 7.89134 20.2316 7.89134C19.8345 7.89134 19.73 7.81808 19.73 7.73435C19.73 7.64016 20.0435 7.56689 20.4406 7.56689C20.8272 7.56689 21.1408 7.64016 21.1408 7.73435Z" fill="#333333"/>
<path d="M22.1649 7.68214C21.9141 7.68214 19.9599 7.724 19.7509 7.724C19.5314 7.724 19.8658 6.86578 20.3988 6.46807C20.9422 6.05989 21.8096 5.78777 21.9141 5.88197C22.0186 5.97616 22.562 7.68214 22.1649 7.68214Z" fill="#D4E5FF"/>
<path d="M0.512252 16.8923C0.512252 16.8923 3.03074 17.3005 3.26064 17.468C3.49055 17.625 2.58138 21.1625 2.37238 21.2986C2.16338 21.4242 0.919808 21.3823 0.846657 21.2986C0.783956 21.2044 0.136046 16.9551 0.512252 16.8923Z" fill="#ADD0FF"/>
<g style="mix-blend-mode:overlay" opacity="0.1">
<path d="M3.26057 17.468C3.03067 17.3005 0.512177 16.8923 0.512177 16.8923C0.397225 16.9133 0.376325 17.3424 0.407675 17.918C1.17054 18.0227 2.2469 18.1797 2.39321 18.2634C2.62311 18.3785 1.7035 21.0892 1.49449 21.1834C1.41089 21.2253 1.12874 21.2462 0.836132 21.2462C0.843099 21.2741 0.846582 21.2916 0.846582 21.2986C0.919733 21.3823 2.1633 21.4242 2.37231 21.2986C2.58131 21.1625 3.49047 17.625 3.26057 17.468Z" fill="#0C2453"/>
</g>
<g style="mix-blend-mode:overlay" opacity="0.2">
<path d="M37.9863 9.4614C37.9968 9.72306 37.4011 10.0684 36.6591 10.0894C35.9067 10.1103 35.2902 9.80678 35.2902 9.53467C35.2797 9.27301 35.8858 9.24162 36.6278 9.22068C37.3698 9.19975 37.9759 9.18929 37.9863 9.4614Z" fill="#0C2453"/>
</g>
<path d="M38.2474 9.45089C38.2474 9.56601 38.0071 9.68114 37.495 9.7544C37.3383 9.77534 37.2965 9.64974 36.9516 9.68114C36.6277 9.70207 36.5963 9.82767 36.3873 9.83813C35.0915 9.88 35.0288 9.73347 35.0288 9.54508C35.0183 9.36716 35.0706 9.21017 36.3664 9.17877C37.6518 9.1369 38.237 9.27296 38.2474 9.45089Z" fill="#0C2453"/>
<g style="mix-blend-mode:overlay" opacity="0.2">
<path d="M54.2048 9.07409C54.2152 9.33574 53.6196 9.68113 52.8672 9.71252C52.1252 9.73346 51.5086 9.42994 51.4982 9.16829C51.4877 8.89617 52.0938 8.86477 52.8463 8.84384C53.5882 8.81244 54.1943 8.80197 54.2048 9.07409Z" fill="#0C2453"/>
</g>
<path d="M54.4559 9.06363C54.4663 9.17876 54.226 9.29389 53.7139 9.36715C53.5571 9.38808 53.5153 9.26249 53.16 9.29389C52.8361 9.32529 52.8047 9.45088 52.5957 9.46134C51.3104 9.50321 51.2477 9.35668 51.2372 9.17876C51.2268 8.99037 51.2895 8.84384 52.5748 8.79151C53.8706 8.74965 54.4559 8.87524 54.4559 9.06363Z" fill="#0C2453"/>
<path d="M10.6802 12.7373C7.14801 12.7373 4.28467 15.5841 4.28467 19.1007C4.28467 20.6601 4.30557 21.9789 4.35782 23.0883C4.43445 23.1022 4.50064 23.1092 4.55637 23.1092C4.55637 23.1092 4.73402 23.1092 5.04753 23.1092C4.99528 22.0521 4.96393 20.7753 4.96393 19.2263C4.96393 16.076 7.52422 13.5118 10.6802 13.5118C13.8361 13.5118 16.3964 16.076 16.3964 19.2263C16.3964 20.7753 16.3651 22.0521 16.3128 23.1092C16.5427 23.1092 16.7726 23.1092 17.0025 23.1092C17.0548 21.9893 17.0757 20.6706 17.0757 19.1007C17.0757 15.5841 14.2123 12.7373 10.6802 12.7373Z" fill="#D4E5FF"/>
<path d="M56.0127 12.7373C52.4805 12.7373 49.6172 15.5841 49.6172 19.1007C49.6172 20.6706 49.6381 21.9893 49.6903 23.1092C49.9272 23.1092 50.1571 23.1092 50.3801 23.1092C50.3278 22.0521 50.2964 20.7753 50.2964 19.2263C50.2964 16.076 52.8567 13.5118 56.0127 13.5118C59.1686 13.5118 61.7289 16.076 61.7289 19.2263C61.7289 20.7753 61.6976 22.0521 61.6453 23.1092C61.8125 23.1092 61.917 23.1092 61.9379 23.1092C62.0215 23.1092 62.1678 22.9836 62.3455 22.7848C62.3873 21.7382 62.4082 20.5241 62.4082 19.1007C62.4082 15.5841 59.5448 12.7373 56.0127 12.7373Z" fill="#D4E5FF"/>
</g>
<defs>
<clipPath id="clip0_813_2228">
<rect width="65" height="24.7" fill="white"/>
</clipPath>
</defs>
</svg>
