<svg width="77" height="24" viewBox="0 0 77 24" fill="none" xmlns="http://www.w3.org/2000/svg">
<g clip-path="url(#clip0_813_2422)">
<path d="M3.64014 21.9756H66.2632L72.014 20.6713V11.5513H4.65244L3.64014 21.9756Z" fill="#13171A"/>
<path d="M10.0048 13.8992L11.3725 14.3061C11.4801 14.3374 11.5986 14.2748 11.6309 14.1601C11.674 14.0557 11.6094 13.9409 11.4909 13.9096L10.1232 13.5027C10.0048 13.4714 9.8863 13.534 9.85399 13.6487C9.82168 13.7531 9.8863 13.8679 10.0048 13.8992Z" fill="#0C2453"/>
<path d="M11.4909 14.3062L10.1232 14.7131C10.0048 14.7444 9.8863 14.6818 9.85399 14.567C9.82168 14.4627 9.8863 14.3479 10.0048 14.3166L11.3725 13.9096C11.4801 13.8783 11.5986 13.9409 11.6309 14.0557C11.674 14.1601 11.6094 14.2749 11.4909 14.3062Z" fill="#0C2453"/>
<path d="M10.0048 13.0852L11.3725 13.4922C11.4801 13.5235 11.5986 13.4609 11.6309 13.3461C11.674 13.2417 11.6094 13.127 11.4909 13.0957L10.1232 12.6887C10.0048 12.6574 9.8863 12.72 9.85399 12.8348C9.82168 12.9391 9.8863 13.0539 10.0048 13.0852Z" fill="#0C2453"/>
<path d="M11.4909 13.4922L10.1232 13.8992C10.0048 13.9305 9.8863 13.8679 9.85399 13.7531C9.82168 13.6487 9.8863 13.5339 10.0048 13.5026L11.3725 13.0957C11.4801 13.0644 11.5986 13.127 11.6309 13.2418C11.674 13.3461 11.6094 13.4609 11.4909 13.4922Z" fill="#0C2453"/>
<path d="M10.0048 12.2714L11.3725 12.6783C11.4801 12.7096 11.5986 12.647 11.6309 12.5427C11.674 12.4279 11.6094 12.3131 11.4909 12.2818L10.1232 11.8853C10.0048 11.8435 9.8863 11.9062 9.85399 12.0209C9.82168 12.1253 9.8863 12.2401 10.0048 12.2714Z" fill="#0C2453"/>
<path d="M11.4909 12.6784L10.1232 13.0853C10.0048 13.1166 9.8863 13.054 9.85399 12.9497C9.82168 12.8349 9.8863 12.7201 10.0048 12.6888L11.3725 12.2923C11.4801 12.2505 11.5986 12.3131 11.6309 12.4279C11.674 12.5323 11.6094 12.6471 11.4909 12.6784Z" fill="#0C2453"/>
<path d="M10.0048 11.4677L11.3725 11.8642C11.4801 11.8956 11.5986 11.8329 11.6309 11.7286C11.674 11.6138 11.6094 11.499 11.4909 11.4677L10.1232 11.0712C10.0048 11.0399 9.8863 11.0921 9.85399 11.2069C9.82168 11.3112 9.8863 11.426 10.0048 11.4677Z" fill="#0C2453"/>
<path d="M11.4909 11.8748L10.1232 12.2713C10.0048 12.3027 9.8863 12.24 9.85399 12.1357C9.82168 12.0209 9.8863 11.9061 10.0048 11.8748L11.3725 11.4783C11.4801 11.4366 11.5986 11.4992 11.6309 11.614C11.674 11.7183 11.6094 11.8331 11.4909 11.8748Z" fill="#0C2453"/>
<path fill-rule="evenodd" clip-rule="evenodd" d="M14.4738 18.1043C14.4738 20.0974 12.8046 21.7148 10.7476 21.7148C8.69072 21.7148 7.02148 20.0974 7.02148 18.1043C7.02148 16.1113 8.69072 14.4939 10.7476 14.4939C12.8046 14.4939 14.4738 16.1113 14.4738 18.1043ZM12.9123 18.1043C12.9123 16.9461 11.943 16.0069 10.7476 16.0069C9.55225 16.0069 8.58302 16.9461 8.58302 18.1043C8.58302 19.2626 9.55225 20.2017 10.7476 20.2017C11.943 20.2017 12.9123 19.2626 12.9123 18.1043Z" fill="#0C2453"/>
<path d="M13.4294 18.1042C13.4294 18.4486 13.354 18.7825 13.2248 19.0851C13.1386 19.2834 13.2248 19.5129 13.4186 19.6068L14.0756 19.9199C14.291 20.0242 14.5494 19.9303 14.6463 19.7216C14.8617 19.2208 14.9802 18.6781 14.9802 18.1042C14.9802 17.5303 14.8617 16.9773 14.6463 16.4868C14.5494 16.2782 14.291 16.1842 14.0756 16.2782L13.4186 16.5912C13.2248 16.6851 13.1386 16.9147 13.2248 17.1129C13.354 17.426 13.4294 17.7495 13.4294 18.1042Z" fill="#8C2418"/>
<path fill-rule="evenodd" clip-rule="evenodd" d="M16.8431 18.1043C16.8431 21.36 14.1077 24.0104 10.7477 24.0104C7.37696 24.0104 4.65234 21.36 4.65234 18.1043C4.65234 14.8382 7.37696 12.1982 10.7477 12.1982C14.1077 12.1982 16.8431 14.8382 16.8431 18.1043ZM15.82 18.1043C15.82 15.3913 13.5477 13.1895 10.7477 13.1895C7.94773 13.1895 5.67542 15.3913 5.67542 18.1043C5.67542 20.8174 7.94773 23.0191 10.7477 23.0191C13.5477 23.0191 15.82 20.8174 15.82 18.1043Z" fill="#333333"/>
<path fill-rule="evenodd" clip-rule="evenodd" d="M10.7477 23.8017C7.49539 23.8017 4.85693 21.2452 4.85693 18.1043C4.85693 14.953 7.49539 12.3965 10.7477 12.3965C13.9892 12.3965 16.6277 14.953 16.6277 18.1043C16.6277 21.2452 13.9892 23.8017 10.7477 23.8017ZM10.7477 12.8869C7.77539 12.8869 5.36309 15.2243 5.36309 18.1043C5.36309 20.9739 7.77539 23.3217 10.7477 23.3217C13.7092 23.3217 16.1323 20.9739 16.1323 18.1043C16.1323 15.2243 13.7092 12.8869 10.7477 12.8869Z" fill="#0C2453"/>
<path d="M14.0322 21.84C12.6968 20.5357 11.6199 19.3774 11.1029 18.7096C11.0599 18.5426 11.0132 18.4104 10.9629 18.3131C11.0634 18.3618 11.1999 18.407 11.3722 18.4487C12.0614 18.9496 13.2568 19.9931 14.6029 21.287C14.6891 21.1896 14.7681 21.0922 14.8399 20.9948C13.6983 19.9304 12.6429 19.0644 11.8891 18.5635C12.7937 18.72 14.1722 18.8348 15.7552 18.8661C15.7768 18.7409 15.7911 18.6191 15.7983 18.5009C13.9029 18.48 12.2875 18.3965 11.4475 18.2922C11.2896 18.2018 11.1568 18.1391 11.0491 18.1044C11.1568 18.0696 11.2896 18.007 11.4475 17.9165C12.2875 17.8018 13.9029 17.7183 15.7983 17.7078C15.7911 17.5826 15.7768 17.4609 15.7552 17.3426C14.1722 17.3739 12.7937 17.4783 11.8891 17.6452C12.6429 17.1339 13.6983 16.2678 14.8399 15.2035C14.7681 15.1061 14.6891 15.0122 14.6029 14.9218C13.2568 16.2157 12.0614 17.2591 11.3722 17.76C11.1999 17.8018 11.0634 17.847 10.9629 17.8957C11.0132 17.7983 11.0599 17.6661 11.1029 17.4991C11.6199 16.8313 12.6968 15.6731 14.0322 14.3583C13.9317 14.2818 13.8311 14.2087 13.7306 14.1391C12.6322 15.2348 11.7383 16.2574 11.2214 16.9983C11.3829 16.1218 11.5014 14.7861 11.5337 13.2522C11.4045 13.2313 11.2788 13.2174 11.1568 13.2104C11.1352 15.047 11.0491 16.6018 10.9414 17.4261C10.8481 17.5791 10.7834 17.7078 10.7475 17.8122C10.7116 17.7078 10.647 17.5791 10.5537 17.4261C10.4352 16.6018 10.3491 15.047 10.3383 13.2104C10.2091 13.2174 10.0834 13.2313 9.96139 13.2522C9.9937 14.7861 10.1014 16.1218 10.2737 16.9983C9.74601 16.2574 8.85216 15.2348 7.76447 14.1391C7.65678 14.2087 7.55626 14.2818 7.46293 14.3583C8.79832 15.6731 9.87524 16.8313 10.3922 17.4991C10.4352 17.6661 10.4819 17.7983 10.5322 17.8957C10.4317 17.847 10.2952 17.8018 10.1229 17.76C9.4337 17.2591 8.23832 16.2157 6.88139 14.9218C6.80242 15.0122 6.72703 15.1061 6.65524 15.2035C7.78601 16.2678 8.84139 17.1339 9.60601 17.6452C8.70139 17.4783 7.32293 17.3739 5.73985 17.3426C5.71832 17.4609 5.70396 17.5826 5.69678 17.7078C7.59216 17.7183 9.19678 17.8018 10.0475 17.9165C10.2055 18.007 10.3383 18.0696 10.446 18.1044C10.3383 18.1391 10.2055 18.2018 10.0475 18.2922C9.19678 18.3965 7.59216 18.48 5.69678 18.5009C5.70396 18.6191 5.71832 18.7409 5.73985 18.8661C7.32293 18.8348 8.70139 18.72 9.60601 18.5635C8.84139 19.0644 7.78601 19.9304 6.65524 20.9948C6.72703 21.0922 6.80242 21.1896 6.88139 21.287C8.23832 19.9931 9.4337 18.9496 10.1229 18.4487C10.2952 18.407 10.4317 18.3618 10.5322 18.3131C10.4819 18.4104 10.4352 18.5426 10.3922 18.7096C9.87524 19.3774 8.79832 20.5357 7.46293 21.84C7.55626 21.9235 7.65678 22 7.76447 22.0696C8.85216 20.9635 9.74601 19.9409 10.2737 19.2105C10.1014 20.087 9.9937 21.4226 9.96139 22.9565C10.0834 22.9774 10.2091 22.9913 10.3383 22.9983C10.3491 21.1618 10.4352 19.5965 10.5537 18.7826C10.647 18.6296 10.7116 18.5009 10.7475 18.3965C10.7834 18.5009 10.8481 18.6296 10.9414 18.7826C11.0491 19.5965 11.1352 21.1618 11.1568 22.9983C11.2788 22.9913 11.4045 22.9774 11.5337 22.9565C11.5014 21.4226 11.3829 20.087 11.2214 19.2105C11.7383 19.9409 12.6322 20.9635 13.7306 22.0696C13.8311 22 13.9317 21.9235 14.0322 21.84Z" fill="#A6CDFF"/>
<path fill-rule="evenodd" clip-rule="evenodd" d="M15.9171 18.1044C15.9171 20.8696 13.6017 23.1131 10.7478 23.1131C7.894 23.1131 5.57861 20.8696 5.57861 18.1044C5.57861 15.3392 7.894 13.0957 10.7478 13.0957C13.6017 13.0957 15.9171 15.3392 15.9171 18.1044ZM15.7448 18.1044C15.7448 15.4227 13.5048 13.2522 10.7478 13.2522C7.98015 13.2522 5.74015 15.4227 5.74015 18.1044C5.74015 20.7757 7.98015 22.9461 10.7478 22.9461C13.5048 22.9461 15.7448 20.7757 15.7448 18.1044Z" fill="#D9EAFF"/>
<path d="M12.2875 18.1042C12.2875 18.9286 11.5983 19.5964 10.7475 19.5964C9.89675 19.5964 9.20752 18.9286 9.20752 18.1042C9.20752 17.2799 9.89675 16.6121 10.7475 16.6121C11.5983 16.6121 12.2875 17.2799 12.2875 18.1042Z" fill="#C4DEFF"/>
<path d="M11.6741 18.1044C11.6741 18.5949 11.2649 19.0018 10.7479 19.0018C10.231 19.0018 9.82178 18.5949 9.82178 18.1044C9.82178 17.6036 10.231 17.207 10.7479 17.207C11.2649 17.207 11.6741 17.6036 11.6741 18.1044Z" fill="#A6CDFF"/>
<path d="M63.9799 14.1077L65.3475 14.5043C65.4552 14.546 65.5737 14.4834 65.6168 14.3686C65.6491 14.2643 65.5845 14.1495 65.466 14.1077L64.0983 13.7112C63.9906 13.6799 63.8722 13.7425 63.8291 13.8469C63.7968 13.9616 63.8614 14.0764 63.9799 14.1077Z" fill="#0C2453"/>
<path d="M65.466 14.5147L64.0983 14.9112C63.9906 14.9425 63.8722 14.8904 63.8291 14.7756C63.7968 14.6712 63.8614 14.5565 63.9799 14.5147L65.3475 14.1182C65.4552 14.0869 65.5737 14.1495 65.6168 14.2538C65.6491 14.3686 65.5845 14.4834 65.466 14.5147Z" fill="#0C2453"/>
<path d="M63.9799 13.294L65.3475 13.6905C65.4552 13.7323 65.5737 13.6697 65.6168 13.5549C65.6491 13.4505 65.5845 13.3358 65.466 13.3044L64.0983 12.8975C63.9906 12.8662 63.8722 12.9288 63.8291 13.0331C63.7968 13.1479 63.8614 13.2627 63.9799 13.294Z" fill="#0C2453"/>
<path d="M65.466 13.7008L64.0983 14.0973C63.9906 14.139 63.8722 14.0764 63.8291 13.9616C63.7968 13.8573 63.8614 13.7425 63.9799 13.7112L65.3475 13.3042C65.4552 13.2729 65.5737 13.3355 65.6168 13.4399C65.6491 13.5547 65.5845 13.6694 65.466 13.7008Z" fill="#0C2453"/>
<path d="M63.9799 12.48L65.3475 12.8869C65.4552 12.9183 65.5737 12.8556 65.6168 12.7409C65.6491 12.6365 65.5845 12.5217 65.466 12.4904L64.0983 12.0835C63.9906 12.0522 63.8722 12.1148 63.8291 12.2296C63.7968 12.3339 63.8614 12.4487 63.9799 12.48Z" fill="#0C2453"/>
<path d="M65.466 12.887L64.0983 13.2836C63.9906 13.3253 63.8722 13.2627 63.8291 13.1479C63.7968 13.0436 63.8614 12.9288 63.9799 12.8975L65.3475 12.4905C65.4552 12.4592 65.5737 12.5218 65.6168 12.6262C65.6491 12.7409 65.5845 12.8557 65.466 12.887Z" fill="#0C2453"/>
<path d="M63.9799 11.666L65.3475 12.073C65.4552 12.1043 65.5737 12.0417 65.6168 11.9269C65.6491 11.8225 65.5845 11.7078 65.466 11.6765L64.0983 11.2695C63.9906 11.2382 63.8722 11.3008 63.8291 11.4156C63.7968 11.5199 63.8614 11.6347 63.9799 11.666Z" fill="#0C2453"/>
<path d="M65.466 12.073L64.0983 12.48C63.9906 12.5113 63.8722 12.4487 63.8291 12.3339C63.7968 12.2295 63.8614 12.1147 63.9799 12.0834L65.3475 11.6765C65.4552 11.6452 65.5737 11.7078 65.6168 11.8226C65.6491 11.9269 65.5845 12.0417 65.466 12.073Z" fill="#0C2453"/>
<path fill-rule="evenodd" clip-rule="evenodd" d="M68.4494 18.1043C68.4494 20.0974 66.7801 21.7148 64.7232 21.7148C62.6663 21.7148 60.9971 20.0974 60.9971 18.1043C60.9971 16.1113 62.6663 14.4939 64.7232 14.4939C66.7801 14.4939 68.4494 16.1113 68.4494 18.1043ZM66.8878 18.1043C66.8878 16.9461 65.9186 16.0069 64.7232 16.0069C63.5278 16.0069 62.5586 16.9461 62.5586 18.1043C62.5586 19.2626 63.5278 20.2017 64.7232 20.2017C65.9186 20.2017 66.8878 19.2626 66.8878 18.1043Z" fill="#0C2453"/>
<path d="M67.4045 18.1042C67.4045 18.4486 67.3291 18.7825 67.1999 19.0851C67.1137 19.2834 67.1999 19.5129 67.3937 19.6068L68.0507 19.9199C68.2661 20.0242 68.5245 19.9303 68.6214 19.7216C68.8368 19.2208 68.9661 18.6781 68.9661 18.1042C68.9661 17.5303 68.8368 16.9773 68.6214 16.4868C68.5245 16.2782 68.2661 16.1842 68.0507 16.2782L67.3937 16.5912C67.1999 16.6851 67.1137 16.9147 67.1999 17.1129C67.3291 17.426 67.4045 17.7495 67.4045 18.1042Z" fill="#8C2418"/>
<path fill-rule="evenodd" clip-rule="evenodd" d="M70.8187 18.1043C70.8187 21.36 68.0833 24.0104 64.7233 24.0104C61.3633 24.0104 58.6279 21.36 58.6279 18.1043C58.6279 14.8382 61.3633 12.1982 64.7233 12.1982C68.0833 12.1982 70.8187 14.8382 70.8187 18.1043ZM69.7956 18.1043C69.7956 15.3913 67.5233 13.1895 64.7233 13.1895C61.9233 13.1895 59.651 15.3913 59.651 18.1043C59.651 20.8174 61.9233 23.0191 64.7233 23.0191C67.5233 23.0191 69.7956 20.8174 69.7956 18.1043Z" fill="#333333"/>
<path fill-rule="evenodd" clip-rule="evenodd" d="M64.7233 23.8017C61.4818 23.8017 58.8325 21.2452 58.8325 18.1043C58.8325 14.953 61.4818 12.3965 64.7233 12.3965C67.9648 12.3965 70.6141 14.953 70.6141 18.1043C70.6141 21.2452 67.9648 23.8017 64.7233 23.8017ZM64.7233 12.8869C61.751 12.8869 59.3387 15.2243 59.3387 18.1043C59.3387 20.9739 61.751 23.3217 64.7233 23.3217C67.6956 23.3217 70.1079 20.9739 70.1079 18.1043C70.1079 15.2243 67.6956 12.8869 64.7233 12.8869Z" fill="#0C2453"/>
<path d="M68.0077 21.84C66.6724 20.5357 65.5954 19.3774 65.0785 18.7096C65.0354 18.5426 64.9888 18.4104 64.9385 18.3131C65.039 18.3618 65.1754 18.407 65.3477 18.4487C66.037 18.9496 67.2324 19.9931 68.5893 21.287C68.6683 21.1896 68.7436 21.0922 68.8154 20.9948C67.6847 19.9304 66.6185 19.0644 65.8647 18.5635C66.7693 18.72 68.1477 18.8348 69.7308 18.8661C69.7524 18.7409 69.7667 18.6191 69.7739 18.5009C67.8785 18.48 66.2631 18.3965 65.4231 18.2922C65.2652 18.2018 65.1324 18.1391 65.0247 18.1044C65.1324 18.0696 65.2652 18.007 65.4231 17.9165C66.2631 17.8018 67.8785 17.7183 69.7739 17.7078C69.7667 17.5826 69.7524 17.4609 69.7308 17.3426C68.1477 17.3739 66.7693 17.4783 65.8647 17.6452C66.6185 17.1339 67.6847 16.2678 68.8154 15.2035C68.7436 15.1061 68.6683 15.0122 68.5893 14.9218C67.2324 16.2157 66.037 17.2591 65.3477 17.76C65.1754 17.8018 65.039 17.847 64.9385 17.8957C64.9888 17.7983 65.0354 17.6661 65.0785 17.4991C65.5954 16.8313 66.6724 15.6731 68.0077 14.3583C67.9072 14.2818 67.8067 14.2087 67.7062 14.1391C66.6078 15.2348 65.7139 16.2574 65.197 16.9983C65.3585 16.1218 65.477 14.7861 65.5093 13.2522C65.3872 13.2313 65.2616 13.2174 65.1324 13.2104C65.1108 15.047 65.0354 16.6018 64.917 17.4261C64.8236 17.5791 64.759 17.7078 64.7231 17.8122C64.6872 17.7078 64.6226 17.5791 64.5293 17.4261C64.4108 16.6018 64.3354 15.047 64.3139 13.2104C64.1847 13.2174 64.059 13.2313 63.937 13.2522C63.9693 14.7861 64.0877 16.1218 64.2493 16.9983C63.7324 16.2574 62.8385 15.2348 61.7401 14.1391C61.6395 14.2087 61.539 14.2818 61.4385 14.3583C62.7739 15.6731 63.8508 16.8313 64.3678 17.4991C64.4108 17.6661 64.4575 17.7983 64.5078 17.8957C64.4072 17.847 64.2708 17.8018 64.0985 17.76C63.4093 17.2591 62.2139 16.2157 60.857 14.9218C60.778 15.0122 60.7026 15.1061 60.6308 15.2035C61.7616 16.2678 62.8278 17.1339 63.5816 17.6452C62.677 17.4783 61.2985 17.3739 59.7154 17.3426C59.6939 17.4609 59.6795 17.5826 59.6724 17.7078C61.5677 17.7183 63.1831 17.8018 64.0231 17.9165C64.1811 18.007 64.3139 18.0696 64.4216 18.1044C64.3139 18.1391 64.1811 18.2018 64.0231 18.2922C63.1831 18.3965 61.5677 18.48 59.6724 18.5009C59.6795 18.6191 59.6939 18.7409 59.7154 18.8661C61.2985 18.8348 62.677 18.72 63.5816 18.5635C62.8278 19.0644 61.7616 19.9304 60.6308 20.9948C60.7026 21.0922 60.778 21.1896 60.857 21.287C62.2139 19.9931 63.4093 18.9496 64.0985 18.4487C64.2708 18.407 64.4072 18.3618 64.5078 18.3131C64.4575 18.4104 64.4108 18.5426 64.3678 18.7096C63.8508 19.3774 62.7739 20.5357 61.4385 21.84C61.539 21.9235 61.6395 22 61.7401 22.0696C62.8385 20.9635 63.7324 19.9409 64.2493 19.2105C64.0877 20.087 63.9693 21.4226 63.937 22.9565C64.059 22.9774 64.1847 22.9913 64.3139 22.9983C64.3354 21.1618 64.4108 19.5965 64.5293 18.7826C64.6226 18.6296 64.6872 18.5009 64.7231 18.3965C64.759 18.5009 64.8236 18.6296 64.917 18.7826C65.0354 19.5965 65.1108 21.1618 65.1324 22.9983C65.2616 22.9913 65.3872 22.9774 65.5093 22.9565C65.477 21.4226 65.3585 20.087 65.197 19.2105C65.7139 19.9409 66.6078 20.9635 67.7062 22.0696C67.8067 22 67.9072 21.9235 68.0077 21.84Z" fill="#A6CDFF"/>
<path fill-rule="evenodd" clip-rule="evenodd" d="M69.8922 18.1044C69.8922 20.8696 67.5768 23.1131 64.7229 23.1131C61.8691 23.1131 59.5537 20.8696 59.5537 18.1044C59.5537 15.3392 61.8691 13.0957 64.7229 13.0957C67.5768 13.0957 69.8922 15.3392 69.8922 18.1044ZM69.7199 18.1044C69.7199 15.4227 67.4799 13.2522 64.7229 13.2522C61.9553 13.2522 59.726 15.4227 59.726 18.1044C59.726 20.7757 61.9553 22.9461 64.7229 22.9461C67.4799 22.9461 69.7199 20.7757 69.7199 18.1044Z" fill="#D9EAFF"/>
<path d="M66.2631 18.1042C66.2631 18.9286 65.5739 19.5964 64.7231 19.5964C63.8723 19.5964 63.1831 18.9286 63.1831 18.1042C63.1831 17.2799 63.8723 16.6121 64.7231 16.6121C65.5739 16.6121 66.2631 17.2799 66.2631 18.1042Z" fill="#C4DEFF"/>
<path d="M65.6492 18.1044C65.6492 18.5949 65.2399 19.0018 64.723 19.0018C64.2061 19.0018 63.7969 18.5949 63.7969 18.1044C63.7969 17.6036 64.2061 17.207 64.723 17.207C65.2399 17.207 65.6492 17.6036 65.6492 18.1044Z" fill="#A6CDFF"/>
<path d="M76.9355 14.0449C76.817 13.711 76.2355 13.0118 76.1278 12.7614C76.0093 12.511 74.4047 7.34576 73.9201 7.09532C73.4355 6.84489 67.0816 5.84315 66.6293 5.74924C66.177 5.65532 59.2093 1.03271 51.3155 0.354453C43.4216 -0.323808 36.1955 -0.135982 31.9632 1.60663C27.7201 3.34924 21.8293 7.4188 21.8293 7.4188C21.8293 7.4188 15.0985 7.66924 9.14316 9.05706C3.18778 10.4449 1.90624 12.5318 1.55085 12.8866C1.19547 13.2414 0.35547 16.7997 0.247778 17.0188C0.140086 17.2275 0.409316 19.7527 0.420086 20.3788C0.430855 21.2136 -0.226068 21.7666 0.0862394 21.9232C0.0862394 21.9232 1.71239 22.2884 2.48778 22.2884C2.57393 22.2884 3.31701 22.2884 4.57701 22.2884C4.49086 21.2032 4.43701 19.8258 4.43701 18.104C4.43701 14.7232 7.25855 11.9892 10.7478 11.9892C14.2262 11.9892 17.0478 14.7232 17.0478 18.104C17.0478 19.8258 17.0047 21.1927 16.9078 22.2884C29.7447 22.2884 48.0632 22.2884 58.5524 22.2884C58.4662 21.2032 58.4124 19.8258 58.4124 18.104C58.4124 14.7232 61.2447 11.9892 64.7232 11.9892C68.2016 11.9892 71.0339 14.7232 71.0339 18.104C71.0339 19.3979 71.0016 20.504 70.9478 21.4327C73.2847 20.7858 75.6862 19.9823 76.0093 19.7423C76.5693 19.3458 77.0432 14.3788 76.9355 14.0449Z" fill="#C4DCFF"/>
<g style="mix-blend-mode:overlay" opacity="0.3">
<path d="M71.034 18.1043C71.034 19.3982 71.0017 20.5043 70.9479 21.433C73.2848 20.786 75.6863 19.9826 76.0094 19.7426C76.5694 19.346 77.0432 14.3791 76.9356 14.0452C76.2463 14.2747 73.5755 14.7443 70.3232 15.2973C70.7755 16.1426 71.034 17.0921 71.034 18.1043Z" fill="#0C2453"/>
<path d="M58.4662 17.3738C52.5108 18.5425 18.4477 19.9929 17.7046 19.9616C17.6185 19.9616 17.3816 19.9616 17.0262 19.972C17.0046 20.859 16.9723 21.6312 16.9077 22.2886C29.7446 22.2886 48.0631 22.2886 58.5523 22.2886C58.4662 21.2033 58.4123 19.826 58.4123 18.1042C58.4195 17.8538 58.4375 17.6103 58.4662 17.3738Z" fill="#0C2453"/>
<path d="M0.0861268 21.9235C0.0861268 21.9235 1.71228 22.2887 2.48766 22.2887C2.57382 22.2887 3.3169 22.2887 4.57689 22.2887C4.541 21.8296 4.51228 21.3148 4.49074 20.7444C4.14613 20.7966 3.91997 20.8592 3.83382 20.9113C3.0692 21.4435 0.0538191 21.8087 0.0107422 21.8192C0.0107422 21.8609 0.0430499 21.8922 0.0861268 21.9235Z" fill="#0C2453"/>
</g>
<g style="mix-blend-mode:overlay" opacity="0.4">
<path d="M2.89697 12.0522C2.89697 12.0522 5.9662 10.4348 12.6108 10.0696C19.2662 9.70441 73.7693 9.23484 73.7693 9.23484L73.3924 8.02441C73.3924 8.02441 61.5785 7.95136 55.1708 8.02441C48.7631 8.08702 22.2708 8.43136 14.3124 8.84875C6.36466 9.26615 2.89697 12.0522 2.89697 12.0522Z" fill="white"/>
</g>
<path d="M64.723 11.3635C60.8784 11.3635 57.7661 14.3792 57.7661 18.1044C57.7661 19.7844 57.8092 21.1618 57.8846 22.2887C58.1143 22.2887 58.3369 22.2887 58.5523 22.2887C58.4661 21.2035 58.4123 19.8261 58.4123 18.1044C58.4123 14.7235 61.2446 11.9896 64.723 11.9896C68.2015 11.9896 71.0338 14.7235 71.0338 18.1044C71.0338 19.3983 71.0015 20.5044 70.9476 21.4331C71.1702 21.3705 71.3928 21.3079 71.6153 21.2453C71.6584 20.3374 71.68 19.294 71.68 18.1044C71.68 14.3792 68.5676 11.3635 64.723 11.3635Z" fill="#D4E5FF"/>
<path d="M10.7475 11.3635C6.90284 11.3635 3.79053 14.3792 3.79053 18.1044C3.79053 19.7844 3.8336 21.1618 3.90899 22.2887C4.11001 22.2887 4.33258 22.2887 4.57668 22.2887C4.49053 21.2035 4.43668 19.8261 4.43668 18.1044C4.43668 14.7235 7.25822 11.9896 10.7475 11.9896C14.2259 11.9896 17.0475 14.7235 17.0475 18.1044C17.0475 19.8261 17.0044 21.1931 16.9075 22.2887C17.13 22.2887 17.3562 22.2887 17.5859 22.2887C17.6613 21.1618 17.7044 19.7844 17.7044 18.1044C17.7044 14.3792 14.5921 11.3635 10.7475 11.3635Z" fill="#D4E5FF"/>
<path d="M43.4539 0.605225C38.5109 0.605225 34.7309 1.12696 32.2001 2.17044C28.4309 3.72522 23.2401 7.20001 22.3247 7.81566L61.9232 7.25218C61.9232 7.25218 60.8247 5.42609 57.2601 3.06783C55.4832 1.8887 53.437 1.15827 51.2939 0.970442C51.2796 0.970442 51.2688 0.970442 51.2616 0.970442C48.4401 0.720007 45.8232 0.605225 43.4539 0.605225Z" fill="#333333"/>
<path d="M61.5355 7.26267C61.4386 7.09571 60.297 5.39484 56.9693 3.22441C55.2355 2.09745 53.2216 1.38789 51.1216 1.2105C51.1073 1.2105 51.0965 1.2105 51.0893 1.2105C48.3216 0.970496 45.7478 0.855713 43.4324 0.855713C38.5755 0.855713 34.8709 1.36702 32.3939 2.36876C28.7001 3.86093 23.6278 7.20006 22.7124 7.81571L61.5355 7.26267Z" fill="#0C2453"/>
<g style="mix-blend-mode:overlay" opacity="0.3">
<path d="M22.7661 7.78433C33.7723 6.64693 48.8707 5.57215 59.2415 4.88346C58.6277 4.38259 57.8846 3.82954 56.9692 3.22433C55.2354 2.09737 53.2215 1.3878 51.1215 1.21041C51.1072 1.21041 51.0964 1.21041 51.0892 1.21041C50.3354 1.14085 49.5959 1.0852 48.8707 1.04346C40.7615 1.99302 33.9877 3.13041 28.5923 4.22607C25.9323 5.68694 23.4553 7.3252 22.7661 7.78433Z" fill="#BFDAFF"/>
</g>
<path d="M40.1587 7.56529L41.871 7.54442L42.2372 0.615723C41.871 0.622679 41.512 0.633114 41.1602 0.647027L40.1587 7.56529Z" fill="#333333"/>
<path d="M55.8708 7.34607L56.4632 7.33564L56.2047 2.43129C56.0611 2.35477 55.9175 2.28172 55.7739 2.21216L55.8708 7.34607Z" fill="#333333"/>
<g style="mix-blend-mode:overlay" opacity="0.6">
<path d="M61.923 7.25206L61.7615 7.2625C62.4507 8.12858 62.2138 10.1842 59.1015 13.2103C57.7338 14.5564 56.9261 16.1842 56.2153 17.6242C55.4077 19.2416 54.7723 20.5251 53.6738 20.5251H40.363C40.363 19.7634 40.2984 12.0416 40.363 10.9251C40.4169 10.1529 40.6538 9.15119 40.8369 8.42076C40.9338 8.02424 41.0092 7.71119 41.02 7.56511C41.0523 7.16858 41.7523 0.688585 41.763 0.625977H41.6338C41.6338 0.688585 40.9338 7.15815 40.8907 7.55467C40.88 7.70076 40.8046 8.00337 40.7184 8.38945C40.5353 9.13032 40.2877 10.1425 40.2446 10.9147C40.1692 12.0312 40.2338 19.7529 40.2446 20.5251H22.583C22.4538 19.8468 21.0754 12.5112 21.4092 10.8103C21.7538 9.03641 22.4969 7.82597 22.5077 7.81554H22.3246C22.3246 7.82597 21.6354 8.99467 21.28 10.7895C20.9354 12.5842 22.4 20.2642 22.4646 20.5981L22.4754 20.6399H53.6738C54.8584 20.6399 55.5046 19.3355 56.323 17.6764C57.0338 16.2468 57.8307 14.6295 59.1984 13.3042C62.3538 10.2051 62.6553 8.17032 61.923 7.25206Z" fill="#0C2453"/>
</g>
<path d="M74.4475 8.02441C74.2213 8.02441 72.229 8.02441 72.0136 8.02441C71.7982 8.02441 71.1952 8.55659 71.0767 8.70267C70.9475 8.8592 75.0936 10.3305 75.3413 10.4348C75.589 10.5392 74.4475 8.02441 74.4475 8.02441Z" fill="#D12E34"/>
<g style="mix-blend-mode:overlay" opacity="0.3">
<path d="M71.3999 8.68163C71.6045 8.49381 71.9922 8.09729 72.0999 8.07642H74.4368C74.7599 8.78598 74.7599 8.76511 74.8999 9.17207C74.803 9.14076 71.9922 8.97381 71.3999 8.68163Z" fill="white"/>
</g>
<path d="M0.689048 15.7147C0.689048 15.7147 1.23828 13.6278 1.44289 13.2417C1.64751 12.8452 4.71674 11.7182 4.96443 11.6765C5.21212 11.6452 5.92289 12.0626 5.98751 12.146C6.05212 12.2295 3.39212 14.9008 3.0152 15.1513C2.64905 15.3913 0.635202 15.913 0.689048 15.7147Z" fill="#0C2453"/>
<path d="M1.70144 14.3999C1.47529 14.4729 1.27067 15.3912 1.20605 15.7043C1.8199 15.5895 2.77836 15.3077 3.01529 15.1512C3.15529 15.0573 3.61836 14.619 4.13529 14.1182C3.30605 14.1912 1.88452 14.3477 1.70144 14.3999Z" fill="#0C2453"/>
<path d="M3.25217 12.8661C2.91832 13.0122 2.63832 14.9218 2.58447 15.3392C2.77832 15.2661 2.93986 15.2035 3.01524 15.1513C3.31678 14.9531 5.11524 13.1687 5.7614 12.4487C4.69524 12.5948 3.45678 12.7826 3.25217 12.8661Z" fill="#0C2453"/>
<g style="mix-blend-mode:overlay" opacity="0.6">
<path fill-rule="evenodd" clip-rule="evenodd" d="M3.48902 13.993C3.21979 14.5878 2.81055 14.9947 2.56286 14.8904C2.31517 14.786 2.33671 14.2226 2.59517 13.6173C2.8644 13.0226 3.2844 12.6156 3.52132 12.7199C3.76902 12.8243 3.75825 13.3878 3.48902 13.993ZM3.19825 13.106C3.04748 13.0539 2.79979 13.2939 2.64902 13.6486C2.48748 14.0034 2.47671 14.3373 2.62748 14.3999C2.76748 14.4626 3.01517 14.2226 3.17671 13.8678C3.32748 13.513 3.33825 13.1686 3.19825 13.106Z" fill="#D6E7FF"/>
</g>
<g style="mix-blend-mode:overlay" opacity="0.6">
<path fill-rule="evenodd" clip-rule="evenodd" d="M2.11093 14.7236C1.88477 15.2453 1.51862 15.5897 1.314 15.5062C1.09862 15.4123 1.10939 14.9219 1.34631 14.4105C1.57246 13.8888 1.92785 13.5445 2.14323 13.6279C2.34785 13.7219 2.33708 14.2123 2.11093 14.7236ZM1.86323 13.9723C1.734 13.9201 1.51862 14.1288 1.38939 14.4314C1.24939 14.734 1.23862 15.0262 1.36785 15.0784C1.48631 15.1305 1.70169 14.9323 1.84169 14.6192C1.97093 14.3166 1.98169 14.0245 1.86323 13.9723Z" fill="#D6E7FF"/>
</g>
<g style="mix-blend-mode:overlay" opacity="0.3">
<path d="M0.894043 14.9844C1.9925 14.5983 3.13404 14.2957 4.21097 14.0349C5.06174 13.2001 6.03097 12.1983 5.98789 12.1462C5.95558 12.1044 5.68635 11.927 5.41712 11.8123C3.99558 12.3549 2.5525 12.9183 1.38943 13.367C1.2602 13.7114 1.04481 14.4314 0.894043 14.9844Z" fill="white"/>
</g>
<path d="M36.5725 9.69382C36.4109 9.70426 37.014 9.08861 37.2832 9.0573C37.5525 9.026 39.2217 9.00513 39.4263 9.00513C39.5017 9.00513 39.6309 9.63121 39.5555 9.62078C39.5232 9.62078 37.574 9.64165 36.5725 9.69382Z" fill="#C1CDEB"/>
<path d="M57.7556 9.41227C57.594 9.42271 58.1971 8.81749 58.4664 8.78619C58.7356 8.75488 60.4156 8.75488 60.6094 8.75488C60.6956 8.75488 60.814 9.38097 60.7387 9.37054C60.7064 9.37054 58.7571 9.37053 57.7556 9.41227Z" fill="#C1CDEB"/>
<path d="M25.0172 7.87832C25.0172 7.98267 24.5325 8.05572 24.1879 8.03485C23.8325 8.02441 23.7356 7.9305 23.7464 7.82615C23.7464 7.7218 24.0372 7.64876 24.3925 7.65919C24.7372 7.66963 25.0172 7.77398 25.0172 7.87832Z" fill="#333333"/>
<path d="M26.3306 7.84706C25.6414 7.89923 24.4244 7.96184 24.026 7.8888C23.1644 7.75315 23.6921 7.10619 24.586 6.55315C25.5014 5.98967 25.8567 5.93749 25.9644 6.01054C26.3091 6.22967 26.6214 7.82619 26.3306 7.84706Z" fill="#C4DCFF"/>
<path d="M0.667788 20.5044C0.678557 20.3583 0.49548 18.7305 0.63548 18.574C0.700095 18.5114 1.58317 18.3966 2.19702 18.3027C2.73548 18.2192 1.83086 20.1496 1.44317 20.4209C1.1524 20.6192 0.667788 20.7235 0.667788 20.5044Z" fill="#ADD0FF"/>
</g>
<defs>
<clipPath id="clip0_813_2422">
<rect width="77" height="24" fill="white"/>
</clipPath>
</defs>
</svg>
