<svg width="67" height="29" viewBox="0 0 67 29" fill="none" xmlns="http://www.w3.org/2000/svg">
<g clip-path="url(#clip0_813_2722)">
<path d="M3.06885 25.8887H62.4557V17.0178H3.06885V25.8887Z" fill="#13171A"/>
<path d="M8.53707 19.4242L9.76877 19.781C9.87495 19.8116 9.98113 19.7504 10.013 19.6587C10.0448 19.5567 9.98113 19.4547 9.88556 19.4242L8.65387 19.0673C8.54769 19.0367 8.44151 19.0979 8.40965 19.1896C8.3778 19.2916 8.44151 19.3936 8.53707 19.4242Z" fill="#0C2453"/>
<path d="M9.88556 19.781L8.65387 20.1379C8.54769 20.1685 8.44151 20.1175 8.40965 20.0156C8.3778 19.9238 8.44151 19.8218 8.53707 19.7912L9.76877 19.4344C9.87495 19.4038 9.98113 19.4547 10.013 19.5567C10.0448 19.6485 9.98113 19.7504 9.88556 19.781Z" fill="#0C2453"/>
<path d="M8.53707 18.7003L9.76877 19.0572C9.87495 19.0877 9.98113 19.0266 10.013 18.9348C10.0448 18.8328 9.98113 18.7309 9.88556 18.7003L8.65387 18.3434C8.54769 18.3128 8.44151 18.374 8.40965 18.4658C8.3778 18.5677 8.44151 18.6697 8.53707 18.7003Z" fill="#0C2453"/>
<path d="M9.88556 19.0572L8.65387 19.414C8.54769 19.4446 8.44151 19.3936 8.40965 19.2917C8.3778 19.1999 8.44151 19.0979 8.53707 19.0674L9.76877 18.7105C9.87495 18.6799 9.98113 18.7309 10.013 18.8328C10.0448 18.9246 9.98113 19.0266 9.88556 19.0572Z" fill="#0C2453"/>
<path d="M8.53707 17.9764L9.76877 18.3333C9.87495 18.3639 9.98113 18.3027 10.013 18.2109C10.0448 18.109 9.98113 18.007 9.88556 17.9764L8.65387 17.6195C8.54769 17.5889 8.44151 17.6501 8.40965 17.7419C8.3778 17.8439 8.44151 17.9458 8.53707 17.9764Z" fill="#0C2453"/>
<path d="M9.88556 18.3333L8.65387 18.6902C8.54769 18.7207 8.44151 18.6698 8.40965 18.5678C8.3778 18.476 8.44151 18.3741 8.53707 18.3435L9.76877 17.9866C9.87495 17.956 9.98113 18.007 10.013 18.109C10.0448 18.2007 9.98113 18.3027 9.88556 18.3333Z" fill="#0C2453"/>
<path d="M8.53707 17.2525L9.76877 17.6094C9.87495 17.64 9.98113 17.5788 10.013 17.487C10.0448 17.3851 9.98113 17.2831 9.88556 17.2525L8.65387 16.8957C8.54769 16.8651 8.44151 16.9262 8.40965 17.018C8.3778 17.12 8.44151 17.2219 8.53707 17.2525Z" fill="#0C2453"/>
<path d="M9.88556 17.6094L8.65387 17.9663C8.54769 17.9969 8.44151 17.9459 8.40965 17.8439C8.3778 17.7522 8.44151 17.6502 8.53707 17.6196L9.76877 17.2627C9.87495 17.2321 9.98113 17.2831 10.013 17.3851C10.0448 17.4768 9.98113 17.5788 9.88556 17.6094Z" fill="#0C2453"/>
<path fill-rule="evenodd" clip-rule="evenodd" d="M12.5613 23.0439C12.5613 24.8283 11.0642 26.266 9.21664 26.266C7.35848 26.266 5.86133 24.8283 5.86133 23.0439C5.86133 21.2697 7.35848 19.832 9.21664 19.832C11.0642 19.832 12.5613 21.2697 12.5613 23.0439ZM11.1597 23.0439C11.1597 22.0141 10.2891 21.178 9.21664 21.178C8.13359 21.178 7.26291 22.0141 7.26291 23.0439C7.26291 24.084 8.13359 24.9201 9.21664 24.9201C10.2891 24.9201 11.1597 24.084 11.1597 23.0439Z" fill="#0C2453"/>
<path d="M11.6163 23.0439C11.6163 23.36 11.5526 23.6557 11.4358 23.9208C11.3615 24.1044 11.4358 24.3083 11.6163 24.3899L12.2003 24.6652C12.3914 24.7569 12.625 24.6754 12.71 24.4816C12.9117 24.0432 13.0179 23.5538 13.0179 23.0439C13.0179 22.5341 12.9117 22.0549 12.71 21.6062C12.625 21.4227 12.3914 21.3411 12.2003 21.4329L11.6163 21.7082C11.4358 21.7898 11.3615 21.9937 11.4358 22.167C11.5526 22.4424 11.6163 22.738 11.6163 23.0439Z" fill="#8C2418"/>
<path d="M13.294 21.9735L10.3422 22.3609L11.9774 19.975C11.7721 19.7982 11.5491 19.6453 11.3085 19.5161L9.5034 21.8001L8.90879 18.9961C8.62564 19.0097 8.35311 19.0539 8.0912 19.1286L8.5053 21.9633L6.01006 20.3828C5.83309 20.5867 5.67382 20.8043 5.53224 21.0354L7.91069 22.7688L4.99072 23.3398C5.01196 23.6117 5.05797 23.87 5.12876 24.1147L8.0912 23.7272L6.4454 26.1234C6.65068 26.2934 6.87366 26.4463 7.11434 26.5823L8.91941 24.2983L9.51402 27.1023C9.79717 27.0819 10.0697 27.0377 10.3316 26.9697L9.92812 24.1249L12.4127 25.7054C12.5968 25.5082 12.7561 25.2941 12.8906 25.063L10.5121 23.3296L13.4321 22.7586C13.4108 22.4867 13.3648 22.225 13.294 21.9735Z" fill="#C4DEFF"/>
<path d="M10.8623 23.0441C10.8623 23.921 10.119 24.6347 9.21648 24.6347C8.30332 24.6347 7.56006 23.921 7.56006 23.0441C7.56006 22.1774 8.30332 21.4636 9.21648 21.4636C10.119 21.4636 10.8623 22.1774 10.8623 23.0441Z" fill="#C4DEFF"/>
<path d="M10.1404 23.0441C10.1404 23.5437 9.72628 23.9414 9.21662 23.9414C8.69633 23.9414 8.28223 23.5437 8.28223 23.0441C8.28223 22.5546 8.69633 22.157 9.21662 22.157C9.72628 22.157 10.1404 22.5546 10.1404 23.0441Z" fill="#A6CDFF"/>
<path fill-rule="evenodd" clip-rule="evenodd" d="M14.685 23.0439C14.685 25.9499 12.2322 28.3053 9.21672 28.3053C6.19057 28.3053 3.73779 25.9499 3.73779 23.0439C3.73779 20.1481 6.19057 17.7927 9.21672 17.7927C12.2322 17.7927 14.685 20.1481 14.685 23.0439ZM13.5064 23.0439C13.5064 20.7701 11.5845 18.9245 9.21672 18.9245C6.83827 18.9245 4.9164 20.7701 4.9164 23.0439C4.9164 25.3279 6.83827 27.1735 9.21672 27.1735C11.5845 27.1735 13.5064 25.3279 13.5064 23.0439Z" fill="#333333"/>
<path fill-rule="evenodd" clip-rule="evenodd" d="M9.21664 28.0709C6.32853 28.0709 3.98193 25.8174 3.98193 23.044C3.98193 20.2808 6.32853 18.0273 9.21664 18.0273C12.0941 18.0273 14.4407 20.2808 14.4407 23.044C14.4407 25.8174 12.0941 28.0709 9.21664 28.0709ZM9.21664 18.8023C6.77449 18.8023 4.78891 20.709 4.78891 23.044C4.78891 25.3892 6.77449 27.2959 9.21664 27.2959C11.6482 27.2959 13.6338 25.3892 13.6338 23.044C13.6338 20.709 11.6482 18.8023 9.21664 18.8023Z" fill="#0C2453"/>
<path fill-rule="evenodd" clip-rule="evenodd" d="M13.538 23.044C13.538 25.3484 11.6055 27.2042 9.21645 27.2042C6.81677 27.2042 4.88428 25.3484 4.88428 23.044C4.88428 20.7498 6.81677 18.894 9.21645 18.894C11.6055 18.894 13.538 20.7498 13.538 23.044ZM13.4 23.044C13.4 20.8212 11.5312 19.0266 9.21645 19.0266C6.90171 19.0266 5.02231 20.8212 5.02231 23.044C5.02231 25.2668 6.90171 27.0716 9.21645 27.0716C11.5312 27.0716 13.4 25.2668 13.4 23.044Z" fill="#D9EAFF"/>
<path d="M55.6176 19.3631L56.8493 19.7199C56.9449 19.7505 57.0617 19.6995 57.0829 19.5976C57.1148 19.4956 57.0617 19.3937 56.9555 19.3733L55.7238 19.0164C55.6283 18.9858 55.5221 19.0368 55.4902 19.1387C55.4584 19.2305 55.5221 19.3325 55.6176 19.3631Z" fill="#0C2453"/>
<path d="M56.9555 19.7301L55.7238 20.0869C55.6283 20.1073 55.5221 20.0564 55.4902 19.9544C55.4584 19.8626 55.5221 19.7607 55.6176 19.7301L56.8493 19.3732C56.9449 19.3426 57.0617 19.4038 57.0829 19.4955C57.1148 19.5975 57.0617 19.6995 56.9555 19.7301Z" fill="#0C2453"/>
<path d="M55.6176 18.6392L56.8493 18.9961C56.9449 19.0267 57.0617 18.9757 57.0829 18.8737C57.1148 18.7717 57.0617 18.6698 56.9555 18.6494L55.7238 18.2925C55.6283 18.2619 55.5221 18.3129 55.4902 18.4149C55.4584 18.5066 55.5221 18.6086 55.6176 18.6392Z" fill="#0C2453"/>
<path d="M56.9555 19.0062L55.7238 19.3631C55.6283 19.3835 55.5221 19.3325 55.4902 19.2305C55.4584 19.1387 55.5221 19.0368 55.6176 19.0062L56.8493 18.6493C56.9449 18.6187 57.0617 18.6799 57.0829 18.7717C57.1148 18.8736 57.0617 18.9756 56.9555 19.0062Z" fill="#0C2453"/>
<path d="M55.6176 17.9151L56.8493 18.2719C56.9449 18.3025 57.0617 18.2515 57.0829 18.1496C57.1148 18.0476 57.0617 17.9457 56.9555 17.9253L55.7238 17.5684C55.6283 17.5378 55.5221 17.5888 55.4902 17.6907C55.4584 17.7825 55.5221 17.8845 55.6176 17.9151Z" fill="#0C2453"/>
<path d="M56.9555 18.2823L55.7238 18.6392C55.6283 18.6596 55.5221 18.6086 55.4902 18.5066C55.4584 18.4149 55.5221 18.3129 55.6176 18.2823L56.8493 17.9254C56.9449 17.8948 57.0617 17.956 57.0829 18.0478C57.1148 18.1498 57.0617 18.2517 56.9555 18.2823Z" fill="#0C2453"/>
<path d="M55.6176 17.1912L56.8493 17.5481C56.9449 17.5787 57.0617 17.5277 57.0829 17.4257C57.1148 17.3237 57.0617 17.2218 56.9555 17.2014L55.7238 16.8445C55.6283 16.8139 55.5221 16.8649 55.4902 16.9669C55.4584 17.0586 55.5221 17.1606 55.6176 17.1912Z" fill="#0C2453"/>
<path d="M56.9555 17.5582L55.7238 17.9151C55.6283 17.9355 55.5221 17.8845 55.4902 17.7927C55.4584 17.6907 55.5221 17.5888 55.6176 17.5582L56.8493 17.2013C56.9449 17.1707 57.0617 17.2319 57.0829 17.3237C57.1148 17.4256 57.0617 17.5276 56.9555 17.5582Z" fill="#0C2453"/>
<path fill-rule="evenodd" clip-rule="evenodd" d="M59.6419 23.0439C59.6419 24.8283 58.1341 26.266 56.2866 26.266C54.439 26.266 52.9419 24.8283 52.9419 23.0439C52.9419 21.2697 54.439 19.832 56.2866 19.832C58.1341 19.832 59.6419 21.2697 59.6419 23.0439ZM58.2403 23.0439C58.2403 22.0141 57.359 21.178 56.2866 21.178C55.2142 21.178 54.3435 22.0141 54.3435 23.0439C54.3435 24.084 55.2142 24.9201 56.2866 24.9201C57.359 24.9201 58.2403 24.084 58.2403 23.0439Z" fill="#0C2453"/>
<path d="M58.6967 23.0439C58.6967 23.36 58.633 23.6557 58.5162 23.9208C58.4313 24.1044 58.5162 24.3083 58.6861 24.3899L59.2807 24.6652C59.4719 24.7569 59.7055 24.6754 59.7904 24.4816C59.9815 24.0432 60.0983 23.5538 60.0983 23.0439C60.0983 22.5341 59.9815 22.0549 59.7904 21.6062C59.7055 21.4227 59.4719 21.3411 59.2807 21.4329L58.6861 21.7082C58.5162 21.7898 58.4313 21.9937 58.5162 22.167C58.633 22.4424 58.6967 22.738 58.6967 23.0439Z" fill="#8C2418"/>
<path d="M60.3745 21.9735L57.4121 22.3609L59.0579 19.975C58.8526 19.7982 58.6296 19.6453 58.3889 19.5161L56.5838 21.8001L55.9786 18.9961C55.7025 19.0097 55.4336 19.0539 55.1716 19.1286L55.5751 21.9633L53.0905 20.3828C52.9065 20.5867 52.7472 20.8043 52.6127 21.0354L54.9911 22.7688L52.0605 23.3398C52.0818 23.6117 52.1278 23.87 52.1986 24.1147L55.161 23.7272L53.5152 26.1234C53.7276 26.2934 53.9506 26.4463 54.1842 26.5823L55.9999 24.2983L56.5945 27.1023C56.8705 27.0819 57.1395 27.0377 57.4014 26.9697L56.9979 24.1249L59.4932 25.7054C59.6702 25.5082 59.8294 25.2941 59.971 25.063L57.5926 23.3296L60.5125 22.7586C60.4913 22.4867 60.4453 22.225 60.3745 21.9735Z" fill="#C4DEFF"/>
<path d="M57.9322 23.0441C57.9322 23.921 57.1996 24.6347 56.2864 24.6347C55.3733 24.6347 54.6406 23.921 54.6406 23.0441C54.6406 22.1774 55.3733 21.4636 56.2864 21.4636C57.1996 21.4636 57.9322 22.1774 57.9322 23.0441Z" fill="#C4DEFF"/>
<path d="M57.221 23.0441C57.221 23.5437 56.7962 23.9414 56.2866 23.9414C55.7769 23.9414 55.3628 23.5437 55.3628 23.0441C55.3628 22.5546 55.7769 22.157 56.2866 22.157C56.7962 22.157 57.221 22.5546 57.221 23.0441Z" fill="#A6CDFF"/>
<path fill-rule="evenodd" clip-rule="evenodd" d="M61.7651 23.0439C61.7651 25.9499 59.3123 28.3053 56.2862 28.3053C53.2706 28.3053 50.8179 25.9499 50.8179 23.0439C50.8179 20.1481 53.2706 17.7927 56.2862 17.7927C59.3123 17.7927 61.7651 20.1481 61.7651 23.0439ZM60.5865 23.0439C60.5865 20.7701 58.6646 18.9245 56.2862 18.9245C53.9183 18.9245 51.9965 20.7701 51.9965 23.0439C51.9965 25.3279 53.9183 27.1735 56.2862 27.1735C58.6646 27.1735 60.5865 25.3279 60.5865 23.0439Z" fill="#333333"/>
<path fill-rule="evenodd" clip-rule="evenodd" d="M56.2866 28.0709C53.4091 28.0709 51.0625 25.8174 51.0625 23.044C51.0625 20.2808 53.4091 18.0273 56.2866 18.0273C59.1747 18.0273 61.5213 20.2808 61.5213 23.044C61.5213 25.8174 59.1747 28.0709 56.2866 28.0709ZM56.2866 18.8023C53.855 18.8023 51.8695 20.709 51.8695 23.044C51.8695 25.3892 53.855 27.2959 56.2866 27.2959C58.7287 27.2959 60.7037 25.3892 60.7037 23.044C60.7037 20.709 58.7287 18.8023 56.2866 18.8023Z" fill="#0C2453"/>
<path fill-rule="evenodd" clip-rule="evenodd" d="M60.6185 23.044C60.6185 25.3484 58.6753 27.2042 56.2863 27.2042C53.8972 27.2042 51.9541 25.3484 51.9541 23.044C51.9541 20.7498 53.8972 18.894 56.2863 18.894C58.6753 18.894 60.6185 20.7498 60.6185 23.044ZM60.4804 23.044C60.4804 20.8212 58.601 19.0266 56.2863 19.0266C53.9715 19.0266 52.1028 20.8212 52.1028 23.044C52.1028 25.2668 53.9715 27.0716 56.2863 27.0716C58.601 27.0716 60.4804 25.2668 60.4804 23.044Z" fill="#D9EAFF"/>
<path d="M66.2675 18.5881C66.225 18.4147 65.9596 1.60076 64.3032 0.754452C62.6574 -0.0918541 45.4349 -0.0102824 36.4732 0.163057C27.3523 0.336397 15.4813 10.645 15.4813 10.645C15.4813 10.645 9.20601 11.6851 5.90379 12.7659C2.59096 13.8365 1.12566 17.1198 1.12566 17.1198C1.12566 17.1198 0.424871 17.548 0.148801 18.0273C-0.116651 18.5065 -0.0423244 24.8895 0.467343 25.4401C0.626614 25.6134 1.99634 26.2252 2.39983 26.2252C2.43169 26.2252 2.76085 26.2252 3.34484 26.2252C3.31299 25.3075 3.29175 24.2573 3.29175 23.0439C3.29175 19.9136 5.93565 17.3747 9.20601 17.3747C12.4658 17.3747 15.1097 19.9136 15.1097 23.0439C15.1097 24.2573 15.0884 25.3075 15.0566 26.2252C25.4941 26.2252 40.1789 26.2252 50.4254 26.2252C50.3935 25.3075 50.3723 24.2573 50.3723 23.0439C50.3723 19.9136 53.0162 17.3747 56.2759 17.3747C59.5463 17.3747 62.1902 19.9136 62.1902 23.0439C62.1902 24.2573 62.1689 25.3075 62.1371 26.2252C62.2857 26.2252 62.3707 26.2252 62.3919 26.2252C62.9334 26.2252 66.4693 24.9099 66.5436 24.6651C66.6285 24.4204 66.9046 20.6885 66.9046 20.4642C66.9046 20.2399 66.2994 18.7716 66.2675 18.5881Z" fill="#C4DCFF"/>
<g style="mix-blend-mode:overlay" opacity="0.2">
<path d="M64.3879 9.54395C62.5722 9.54395 55.5537 9.54395 54.4919 9.54395C53.2708 9.54395 19.1868 10.4616 19.1868 10.4616C19.1868 10.4616 13.8353 10.8287 10.3419 11.8585C6.85921 12.8782 4.13037 14.3669 4.13037 14.3669C7.84669 13.2249 15.5023 12.2868 17.4773 12.1848C19.3673 12.0931 60.6185 11.7974 64.5153 11.777C64.4728 11.0428 64.4304 10.2883 64.3879 9.54395Z" fill="white"/>
</g>
<path d="M28.9449 2.63061C24.2624 4.6801 19.8559 7.92258 17.5518 9.73755C16.9784 10.1964 16.5324 10.5635 16.2563 10.798L33.7231 10.3595C34.838 10.3289 35.783 9.55401 35.9847 8.49358L37.2164 2.04942C37.2695 1.72313 37.0147 1.41724 36.6643 1.41724H34.7743C32.7674 1.41724 30.7712 1.83529 28.9449 2.63061Z" fill="#333333"/>
<path d="M36.2184 1.84546H34.4134C32.4915 1.84546 30.5909 2.23292 28.8389 3.00786C24.1245 5.06754 19.6861 8.40178 17.6156 10.0638L17.52 10.7674L33.6276 10.3595C34.5939 10.2473 35.3902 9.53359 35.5601 8.60571L36.7387 2.44705C36.8024 2.13096 36.5476 1.84546 36.2184 1.84546Z" fill="#0C2453"/>
<path d="M41.2513 1.41724H56.8068C58.442 1.41724 59.8967 2.3961 60.3851 3.8134L60.7249 4.84325C61.0859 5.89348 61.054 7.02529 60.6293 8.06533C60.5019 8.37122 60.1833 8.56495 59.833 8.56495H40.9328C40.4444 8.56495 40.0515 8.19788 40.0834 7.75943L40.4019 2.15138C40.4231 1.74352 40.7948 1.41724 41.2513 1.41724Z" fill="#333333"/>
<g style="mix-blend-mode:overlay" opacity="0.4">
<path d="M15.0669 26.2355C25.5045 26.2355 40.1892 26.2355 50.4357 26.2355C50.4144 25.6985 50.4003 25.1139 50.3932 24.4817C40.1361 24.4817 25.6213 24.4817 15.1094 24.4817C15.1023 25.1139 15.0881 25.6985 15.0669 26.2355Z" fill="#0C2453"/>
<path d="M0.148438 23.9414C0.233382 24.7163 0.339563 25.2975 0.466979 25.4403C0.636869 25.6238 2.0066 26.2356 2.41009 26.2356C2.44194 26.2356 2.7711 26.2356 3.35509 26.2356C3.33386 25.6986 3.3197 25.114 3.31262 24.4818C2.33576 24.4818 1.76238 24.4818 1.68806 24.4818C0.90232 24.4818 0.159056 23.9414 0.148438 23.9414Z" fill="#0C2453"/>
<path d="M66.554 24.6653C66.5752 24.5939 66.6177 24.2167 66.6708 23.717C66.6708 23.717 63.7614 24.4818 62.827 24.4818C62.7739 24.4818 62.5509 24.4818 62.1899 24.4818C62.1829 25.114 62.1687 25.6986 62.1475 26.2356C62.2961 26.2356 62.3811 26.2356 62.4023 26.2356C62.9438 26.2356 66.469 24.91 66.554 24.6653Z" fill="#0C2453"/>
</g>
<g style="mix-blend-mode:overlay" opacity="0.4">
<path d="M17.7004 23.4008H48.5034C48.5034 23.4008 46.4223 21.8713 45.2012 21.8713C43.9801 21.8713 25.9719 21.8713 23.6677 21.8713C21.3636 21.8713 16.8297 23.4008 17.7004 23.4008Z" fill="#0C2453"/>
</g>
<path d="M56.2865 16.7732C52.6763 16.7732 49.7563 19.5772 49.7563 23.044C49.7563 24.237 49.767 25.2974 49.7988 26.2355C50.0112 26.2355 50.2235 26.2355 50.4359 26.2355C50.3934 25.3178 50.3828 24.2574 50.3828 23.044C50.3828 19.9137 53.0267 17.3748 56.2865 17.3748C59.5462 17.3748 62.1901 19.9137 62.1901 23.044C62.1901 24.2574 62.1795 25.3178 62.1476 26.2355C62.2963 26.2355 62.3812 26.2355 62.4025 26.2355C62.4874 26.2355 62.6254 26.1947 62.7847 26.1335C62.8166 25.2159 62.8272 24.1962 62.8272 23.044C62.8272 19.5772 59.8966 16.7732 56.2865 16.7732Z" fill="#D4E5FF"/>
<path d="M9.21651 16.7732C5.60637 16.7732 2.67578 19.5772 2.67578 23.044C2.67578 24.237 2.6864 25.2974 2.71825 26.2355C2.87399 26.2355 3.08635 26.2355 3.35534 26.2355C3.32348 25.3178 3.30225 24.2574 3.30225 23.044C3.30225 19.9137 5.94615 17.3748 9.21651 17.3748C12.4763 17.3748 15.1202 19.9137 15.1202 23.044C15.1202 24.2574 15.0989 25.3178 15.0671 26.2355C15.2794 26.2355 15.4918 26.2355 15.7042 26.2355C15.736 25.2974 15.7466 24.237 15.7466 23.044C15.7466 19.5772 12.8267 16.7732 9.21651 16.7732Z" fill="#D4E5FF"/>
<path d="M1.13623 17.1301C1.13623 17.1301 3.64209 17.1301 4.26856 17.1301C4.89503 17.1301 6.39217 14.53 6.39217 14.3975C6.39217 14.2649 3.54653 14.5912 2.77141 14.7951C2.07062 14.9787 1.13623 17.1301 1.13623 17.1301Z" fill="#0C2453"/>
<path d="M2.77149 14.7951C2.59099 14.8359 2.38924 15.0195 2.1875 15.2642C3.31301 15.101 4.78893 14.9685 4.78893 15.0602C4.78893 15.152 4.11999 16.345 3.4829 17.1301C3.82268 17.1301 4.10937 17.1301 4.26864 17.1301C4.89511 17.1301 6.39225 14.53 6.39225 14.3975C6.39225 14.2649 3.54661 14.5912 2.77149 14.7951Z" fill="#0C2453"/>
<g style="mix-blend-mode:overlay" opacity="0.6">
<path fill-rule="evenodd" clip-rule="evenodd" d="M4.64027 16.0187C4.33234 16.7018 3.85453 17.1607 3.56784 17.0485C3.29177 16.9261 3.30239 16.2736 3.61032 15.5904C3.91824 14.9072 4.39605 14.4484 4.68274 14.5606C4.95881 14.6829 4.94819 15.3253 4.64027 16.0187ZM4.30049 15.0092C4.1306 14.9378 3.85453 15.2131 3.66341 15.621C3.4829 16.0289 3.47228 16.4163 3.64217 16.4877C3.81206 16.5591 4.08813 16.2838 4.27925 15.8759C4.45976 15.4681 4.47038 15.0806 4.30049 15.0092Z" fill="#D6E7FF"/>
</g>
<g style="mix-blend-mode:overlay" opacity="0.6">
<path fill-rule="evenodd" clip-rule="evenodd" d="M3.03678 16.345C2.82442 16.8242 2.48465 17.1607 2.2829 17.069C2.08116 16.9874 2.09178 16.5285 2.31476 16.0391C2.52712 15.5497 2.8669 15.2234 3.06864 15.305C3.27038 15.3865 3.25976 15.8556 3.03678 16.345ZM2.80319 15.6313C2.67577 15.5803 2.47403 15.774 2.34661 16.0595C2.21919 16.3552 2.20858 16.6305 2.32537 16.6713C2.45279 16.7223 2.65453 16.5285 2.78195 16.243C2.90937 15.9473 2.91999 15.672 2.80319 15.6313Z" fill="#D6E7FF"/>
</g>
<g style="mix-blend-mode:overlay" opacity="0.3">
<path d="M1.29541 16.7833C2.61205 16.5488 3.97116 16.406 5.21348 16.3041C5.74438 15.6209 6.27528 14.7032 6.38146 14.4585C4.89494 14.7746 3.37655 15.1009 2.113 15.3762C1.78384 15.8248 1.47592 16.406 1.29541 16.7833Z" fill="white"/>
</g>
<g style="mix-blend-mode:overlay" opacity="0.6">
<path fill-rule="evenodd" clip-rule="evenodd" d="M54.2267 0.70347V16.3958C54.2267 16.8954 53.94 17.3543 53.4728 17.5786C51.2749 18.6492 49.9158 20.7803 49.9158 23.1357C49.9158 23.6047 49.9193 24.0534 49.9264 24.4816C49.9264 24.655 49.8521 24.8283 49.7246 24.9506C49.5972 25.073 49.4273 25.1444 49.2468 25.1444H18.0191C17.9872 25.1444 17.9554 25.124 17.9554 25.0934C17.9023 24.7365 16.5963 16.4264 16.6812 14.9989C16.7555 13.7855 17.1803 11.6953 17.3183 11.0019C17.3395 10.8693 17.3608 10.7776 17.3608 10.7572L17.4988 9.74773C17.4988 9.73413 17.5059 9.72054 17.52 9.70694C20.9391 7.04567 29.6246 0.836024 36.4945 0.70347C38.6394 0.662684 42.9503 0.591309 47.7072 0.591309C50.3299 0.591309 54.1311 0.642291 54.163 0.642291C54.2055 0.642291 54.2267 0.67288 54.2267 0.70347ZM18.0722 25.022H37.3864C37.3864 24.1655 37.3971 14.2036 37.5563 11.7156C37.705 9.2481 38.65 1.58037 38.7456 0.785041C37.8536 0.795238 37.0891 0.805434 36.4945 0.815631C29.6777 0.958381 21.0346 7.11704 17.6156 9.78851L17.4882 10.7776C17.4776 10.798 17.467 10.8897 17.4351 11.0223C17.2971 11.7156 16.883 13.7957 16.8086 14.9989C16.7237 16.3652 17.9554 24.3083 18.0722 25.022ZM54.1099 0.764648C53.6002 0.754452 50.1494 0.70347 47.7072 0.70347C44.3307 0.70347 41.1771 0.744255 38.873 0.774845C38.7774 1.4784 37.8324 9.2481 37.6731 11.7258C37.5245 14.2036 37.5139 24.1655 37.5139 25.022H49.2468C49.3955 25.022 49.5335 24.971 49.6397 24.8691C49.7459 24.7671 49.799 24.6244 49.799 24.4816C49.799 24.0534 49.799 23.6047 49.799 23.1357C49.799 20.7293 51.1793 18.5677 53.4091 17.4766C53.8445 17.2727 54.1099 16.8547 54.1099 16.3958V0.764648Z" fill="#0C2453"/>
</g>
<path d="M52.5275 2.60013C52.5275 2.26364 52.2514 1.99854 51.9116 1.99854H42.2386C41.8563 1.99854 41.5484 2.27384 41.5272 2.61032L41.2617 7.31089C41.2405 7.67796 41.5696 7.98386 41.9731 7.98386H51.9116C52.2514 7.98386 52.5275 7.71875 52.5275 7.39246V2.60013Z" fill="#0C2453"/>
<path d="M59.4504 4.86378L59.0788 4.00728C58.6859 3.13038 57.7197 2.44722 56.5304 2.16172C55.9995 2.02916 55.458 2.31467 55.458 2.72252V7.3925C55.458 7.71879 55.819 7.98389 56.265 7.98389H58.4735C58.8664 7.98389 59.2062 7.82075 59.3442 7.56584C59.8008 6.69914 59.8327 5.75087 59.4504 4.86378Z" fill="#0C2453"/>
<g style="mix-blend-mode:overlay" opacity="0.2">
<path d="M36.1544 11.7361C36.1544 12.0012 35.5385 12.3173 34.7846 12.3274C34.0201 12.3274 33.4043 12.0114 33.4043 11.7564C33.4043 11.4913 34.0201 11.4811 34.774 11.4709C35.5385 11.4709 36.1438 11.4811 36.1544 11.7361Z" fill="#0C2453"/>
</g>
<path d="M36.4095 11.736C36.4095 11.8482 36.1653 11.9501 35.645 12.0113C35.4858 12.0317 35.4433 11.9094 35.0929 11.9297C34.7637 11.9399 34.7213 12.0725 34.5089 12.0725C33.2029 12.0725 33.1392 11.9297 33.1392 11.7564C33.1392 11.5729 33.1922 11.4301 34.5089 11.4199C35.8255 11.4199 36.4095 11.5627 36.4095 11.736Z" fill="#0C2453"/>
<g style="mix-blend-mode:overlay" opacity="0.2">
<path d="M41.6228 11.7361C41.6228 12.0012 41.0175 12.3173 40.253 12.3274C39.4991 12.3274 38.8833 12.0114 38.8833 11.7564C38.8833 11.4913 39.4885 11.4811 40.253 11.4709C41.0069 11.4709 41.6228 11.4811 41.6228 11.7361Z" fill="#0C2453"/>
</g>
<path d="M41.8884 11.736C41.8884 11.8482 41.6442 11.9501 41.1239 12.0113C40.9647 12.0317 40.9222 11.9094 40.5612 11.9297C40.232 11.9399 40.2002 12.0725 39.9878 12.0725C38.6712 12.0725 38.6181 11.9297 38.6181 11.7564C38.6075 11.5729 38.6712 11.4301 39.9878 11.4199C41.2938 11.4199 41.8884 11.5627 41.8884 11.736Z" fill="#0C2453"/>
<path d="M65.662 6.89282C65.4071 6.89282 64.9506 7.31088 64.8656 7.49441C64.7701 7.67795 65.1735 11.2467 65.2585 13.3778C65.354 15.5088 66.0548 15.8045 66.1716 15.8249C66.2884 15.8351 66.1185 11.6138 66.0655 10.5126C66.0124 9.40115 65.662 6.89282 65.662 6.89282Z" fill="#D12E34"/>
<g style="mix-blend-mode:overlay" opacity="0.3">
<path d="M65.2159 9.81913C65.131 8.80968 65.046 7.75945 65.0673 7.56572C65.1204 7.45356 65.4708 7.19864 65.63 7.09668C65.7256 7.75945 65.9592 9.51324 66.0017 10.4003C66.076 12.0624 65.3115 11.0019 65.2159 9.81913Z" fill="white"/>
</g>
<g style="mix-blend-mode:overlay" opacity="0.3">
<path d="M52.5275 2.60013C52.5275 2.26364 52.2515 1.99854 51.9117 1.99854H48.1954C45.8806 2.29083 43.6544 2.59333 41.5166 2.90602L41.2618 7.31089C41.2511 7.5658 41.3998 7.80032 41.6334 7.91248C45.4771 7.53521 49.1828 7.19873 52.5275 6.89283V2.60013Z" fill="white"/>
</g>
<g style="mix-blend-mode:overlay" opacity="0.3">
<path d="M59.7159 6.2505C59.7371 5.78146 59.6521 5.32262 59.4504 4.86378L59.0788 4.00728C58.6859 3.13038 57.7197 2.44722 56.5304 2.16172C55.9995 2.02916 55.458 2.31467 55.458 2.72252V6.62777C56.987 6.49521 58.4098 6.36266 59.7159 6.2505Z" fill="white"/>
</g>
<g style="mix-blend-mode:overlay" opacity="0.3">
<path d="M35.5814 8.50378L36.5051 3.67065C31.4297 4.49657 26.917 5.36327 22.9671 6.20957C20.6842 7.67786 18.7836 9.13595 17.6156 10.0638L17.5625 10.4615C23.1688 9.78853 29.4335 9.12576 35.5814 8.50378Z" fill="white"/>
</g>
<path d="M19.7919 10.8897C19.7919 11.0019 19.1441 11.0733 18.6663 11.0631C18.1885 11.0529 18.0505 10.9713 18.0611 10.8693C18.0611 10.7572 18.4434 10.6858 18.9212 10.6858C19.4096 10.696 19.7919 10.7878 19.7919 10.8897Z" fill="#242424"/>
<path d="M20.1954 10.8287C19.6964 10.8287 18.3373 10.9205 18.0081 10.8593C17.3179 10.7165 17.7745 9.9926 18.5071 9.46238C19.1548 8.98315 19.6539 8.76902 19.7919 8.78941C19.9406 8.80981 20.429 10.8287 20.1954 10.8287Z" fill="#333333"/>
</g>
<defs>
<clipPath id="clip0_813_2722">
<rect width="67" height="28.3462" fill="white"/>
</clipPath>
</defs>
</svg>
