<svg width="80" height="23" viewBox="0 0 80 23" fill="none" xmlns="http://www.w3.org/2000/svg">
<g clip-path="url(#clip0_813_2483)">
<path d="M5.92952 20.5986H66.931L71.8079 19.8489L72.4076 15.5188L70.8348 8.83911H11.4514L5.43164 12.7328L5.92952 20.5986Z" fill="#13171A"/>
<path fill-rule="evenodd" clip-rule="evenodd" d="M16.8148 16.0896C16.8148 18.3385 14.9704 20.1623 12.696 20.1623C10.4216 20.1623 8.57715 18.3385 8.57715 16.0896C8.57715 13.8406 10.4216 12.0168 12.696 12.0168C14.9704 12.0168 16.8148 13.8406 16.8148 16.0896ZM15.0835 16.0896C15.0835 14.7805 14.0199 13.7175 12.696 13.7175C11.3721 13.7175 10.2971 14.7805 10.2971 16.0896C10.2971 17.3987 11.3721 18.4504 12.696 18.4504C14.0199 18.4504 15.0835 17.3987 15.0835 16.0896Z" fill="#0C2453"/>
<path d="M15.6495 16.0895C15.6495 16.4476 15.5816 16.7944 15.4458 17.0965C15.3666 17.3091 15.4458 17.5441 15.6495 17.6448L16.3058 17.9581C16.5207 18.07 16.781 17.9693 16.8828 17.7455C17.0978 17.242 17.2223 16.6825 17.2223 16.0895C17.2223 15.4965 17.0978 14.9371 16.8828 14.4224C16.781 14.2098 16.5207 14.1091 16.3058 14.221L15.6495 14.5343C15.4458 14.635 15.3666 14.87 15.4458 15.0714C15.5816 15.3846 15.6495 15.7315 15.6495 16.0895Z" fill="#8C2418"/>
<path fill-rule="evenodd" clip-rule="evenodd" d="M18.829 16.0894C18.829 19.4461 16.0793 22.165 12.696 22.165C9.3014 22.165 6.55176 19.4461 6.55176 16.0894C6.55176 12.7328 9.3014 10.0139 12.696 10.0139C16.0793 10.0139 18.829 12.7328 18.829 16.0894ZM17.7993 16.0894C17.7993 13.3034 15.5136 11.0321 12.696 11.0321C9.86718 11.0321 7.58146 13.3034 7.58146 16.0894C7.58146 18.8755 9.86718 21.1356 12.696 21.1356C15.5136 21.1356 17.7993 18.8755 17.7993 16.0894Z" fill="#333333"/>
<path fill-rule="evenodd" clip-rule="evenodd" d="M12.6959 21.9524C9.42572 21.9524 6.7666 19.3231 6.7666 16.0895C6.7666 12.8559 9.42572 10.2266 12.6959 10.2266C15.966 10.2266 18.6252 12.8559 18.6252 16.0895C18.6252 19.3231 15.966 21.9524 12.6959 21.9524ZM12.6959 10.7301C9.69729 10.7301 7.26448 13.1357 7.26448 16.0895C7.26448 19.0433 9.69729 21.4489 12.6959 21.4489C15.6832 21.4489 18.116 19.0433 18.116 16.0895C18.116 13.1357 15.6832 10.7301 12.6959 10.7301Z" fill="#0C2453"/>
<path d="M15.7173 15.6419C15.5363 15.5971 14.6989 15.6195 13.8503 15.653C14.5744 15.1048 15.2421 14.6461 15.4684 14.5901C15.8191 14.4894 16.781 14.2992 17.4259 14.1761C17.3731 14.0568 17.3203 13.9412 17.2675 13.8293C16.6112 13.9523 15.706 14.1314 15.3552 14.2209C15.0384 14.3216 14.2463 14.8922 13.6013 15.3733C13.4542 15.1831 13.2392 15.0488 13.0016 14.9817C13.2053 14.2544 13.4429 13.4265 13.5221 13.3034C13.6126 13.1579 14.4952 12.2628 15.1063 11.6363C14.9931 11.5766 14.8724 11.5206 14.7442 11.4684C14.0879 12.1398 13.3071 12.9454 13.194 13.1132C13.1034 13.2698 12.8658 14.0642 12.6395 14.8586C12.334 14.0083 12.0964 13.2475 12.1077 13.0237C12.119 12.6544 12.2322 11.6922 12.3227 11.0544C12.1869 11.0619 12.0549 11.0731 11.9266 11.088C11.8474 11.737 11.7343 12.6433 11.723 13.0125C11.7116 13.337 12.0172 14.2656 12.2887 15.0153C12.0511 15.0936 11.8587 15.2502 11.723 15.4628C11.0893 15.0488 10.3651 14.5565 10.2746 14.4447C10.1614 14.3216 9.57303 13.2139 9.15436 12.4419C9.06384 12.5314 8.97332 12.6283 8.88279 12.7328C9.3241 13.5607 9.85592 14.5454 9.98039 14.6908C10.1049 14.8363 10.7951 15.3062 11.4967 15.7649C10.5801 15.7873 9.77671 15.7649 9.56172 15.6978C9.21094 15.5635 8.32834 15.1607 7.72862 14.881C7.69845 15.0078 7.67204 15.1346 7.64941 15.2614C8.24913 15.5412 9.08647 15.9216 9.42593 16.0447C9.74277 16.1565 10.7272 16.1565 11.5306 16.1342C11.5419 16.3915 11.6324 16.6265 11.7909 16.8055C11.1911 17.2754 10.5009 17.8013 10.3651 17.8572C10.2067 17.9244 8.962 18.137 8.09072 18.2824C8.15106 18.4018 8.21518 18.5211 8.28308 18.6405C9.22226 18.4726 10.3312 18.2824 10.5122 18.2041C10.6819 18.137 11.3496 17.6335 12.0058 17.1188C11.7456 17.9803 11.4853 18.7412 11.3496 18.909C11.1232 19.1999 10.4443 19.9048 10.003 20.3859C10.1086 20.453 10.2218 20.5164 10.3425 20.5761C10.7951 20.095 11.4174 19.4237 11.6438 19.144C11.8474 18.8866 12.1529 17.9579 12.3793 17.1971C12.4773 17.2269 12.5829 17.2419 12.6961 17.2419C12.8432 17.2419 12.979 17.2083 13.1034 17.1635C13.3637 17.8684 13.6579 18.674 13.6805 18.8195C13.6918 18.9873 13.5108 20.2293 13.3863 21.0908C13.5221 21.0759 13.6541 21.0535 13.7824 21.0237C13.9182 20.095 14.0653 18.9873 14.0539 18.7859C14.0426 18.6069 13.7597 17.8237 13.4655 17.0516C14.2237 17.5551 14.8686 18.0475 14.9931 18.2265C15.1968 18.5286 15.672 19.3789 15.9889 19.9495C16.0869 19.8675 16.185 19.778 16.2831 19.681C15.9662 19.1104 15.5136 18.316 15.3099 18.0139C15.1176 17.7454 14.3255 17.1747 13.6579 16.7272C13.7824 16.5482 13.8503 16.3244 13.8503 16.0894C13.8503 16.067 13.8503 16.0484 13.8503 16.0335C14.6084 15.9999 15.4797 15.9775 15.6268 16.0111C15.7965 16.0447 16.9281 16.6041 17.7201 16.9845C17.7428 16.8577 17.7616 16.7272 17.7767 16.5929C16.9281 16.1789 15.9097 15.6866 15.7173 15.6419Z" fill="#C4DEFF"/>
<path d="M13.6462 16.0895C13.6462 16.6154 13.2162 17.0294 12.6957 17.0294C12.1639 17.0294 11.7339 16.6154 11.7339 16.0895C11.7339 15.5636 12.1639 15.1497 12.6957 15.1497C13.2162 15.1497 13.6462 15.5636 13.6462 16.0895Z" fill="#C4DEFF"/>
<path d="M13.4881 16.0896C13.4881 16.5259 13.1373 16.884 12.696 16.884C12.2547 16.884 11.8926 16.5259 11.8926 16.0896C11.8926 15.6532 12.2547 15.2952 12.696 15.2952C13.1373 15.2952 13.4881 15.6532 13.4881 16.0896Z" fill="#A6CDFF"/>
<path fill-rule="evenodd" clip-rule="evenodd" d="M17.901 16.0895C17.901 18.9314 15.57 21.2363 12.6959 21.2363C9.81047 21.2363 7.47949 18.9314 7.47949 16.0895C7.47949 13.2475 9.81047 10.9426 12.6959 10.9426C15.57 10.9426 17.901 13.2475 17.901 16.0895ZM17.6634 16.0895C17.6634 13.3706 15.4342 11.1776 12.6959 11.1776C9.94625 11.1776 7.72843 13.3706 7.72843 16.0895C7.72843 18.7972 9.94625 21.0014 12.6959 21.0014C15.4342 21.0014 17.6634 18.7972 17.6634 16.0895Z" fill="#D9EAFF"/>
<path fill-rule="evenodd" clip-rule="evenodd" d="M69.533 16.0896C69.533 18.3385 67.6886 20.1623 65.4142 20.1623C63.1398 20.1623 61.2954 18.3385 61.2954 16.0896C61.2954 13.8406 63.1398 12.0168 65.4142 12.0168C67.6886 12.0168 69.533 13.8406 69.533 16.0896ZM67.8018 16.0896C67.8018 14.7805 66.7381 13.7175 65.4142 13.7175C64.0903 13.7175 63.0267 14.7805 63.0267 16.0896C63.0267 17.3987 64.0903 18.4504 65.4142 18.4504C66.7381 18.4504 67.8018 17.3987 67.8018 16.0896Z" fill="#0C2453"/>
<path d="M68.3677 16.0895C68.3677 16.4476 68.2998 16.7944 68.164 17.0965C68.0848 17.3091 68.164 17.5441 68.3677 17.6448L69.024 17.9581C69.239 18.07 69.5106 17.9693 69.6011 17.7455C69.8161 17.242 69.9406 16.6825 69.9406 16.0895C69.9406 15.4965 69.8161 14.9371 69.6011 14.4224C69.5106 14.2098 69.239 14.1091 69.024 14.221L68.3677 14.5343C68.164 14.635 68.0848 14.87 68.164 15.0714C68.2998 15.3846 68.3677 15.7315 68.3677 16.0895Z" fill="#8C2418"/>
<path fill-rule="evenodd" clip-rule="evenodd" d="M71.5586 16.0894C71.5586 19.4461 68.8089 22.165 65.4143 22.165C62.0197 22.165 59.27 19.4461 59.27 16.0894C59.27 12.7328 62.0197 10.0139 65.4143 10.0139C68.8089 10.0139 71.5586 12.7328 71.5586 16.0894ZM70.5175 16.0894C70.5175 13.3034 68.2318 11.0321 65.4143 11.0321C62.5968 11.0321 60.2997 13.3034 60.2997 16.0894C60.2997 18.8755 62.5968 21.1356 65.4143 21.1356C68.2318 21.1356 70.5175 18.8755 70.5175 16.0894Z" fill="#333333"/>
<path fill-rule="evenodd" clip-rule="evenodd" d="M65.4146 21.9524C62.1445 21.9524 59.4854 19.3231 59.4854 16.0895C59.4854 12.8559 62.1445 10.2266 65.4146 10.2266C68.6848 10.2266 71.3439 12.8559 71.3439 16.0895C71.3439 19.3231 68.6848 21.9524 65.4146 21.9524ZM65.4146 10.7301C62.4274 10.7301 59.9945 13.1357 59.9945 16.0895C59.9945 19.0433 62.4274 21.4489 65.4146 21.4489C68.4019 21.4489 70.8347 19.0433 70.8347 16.0895C70.8347 13.1357 68.4019 10.7301 65.4146 10.7301Z" fill="#0C2453"/>
<path d="M68.4355 15.6419C68.2544 15.5971 67.4171 15.6195 66.5798 15.653C67.3039 15.1048 67.9716 14.6461 68.1865 14.5901C68.5373 14.4894 69.4991 14.2992 70.1441 14.1761C70.0913 14.0568 70.0385 13.9412 69.9857 13.8293C69.3294 13.9523 68.4242 14.1314 68.0734 14.2209C67.7566 14.3216 66.9645 14.8922 66.3195 15.3733C66.1724 15.1831 65.9574 15.0488 65.7198 14.9817C65.9235 14.2544 66.1724 13.4265 66.2403 13.3034C66.3308 13.1579 67.2134 12.2628 67.8245 11.6363C67.7113 11.5766 67.5944 11.5206 67.4737 11.4684C66.8061 12.1398 66.0253 12.9454 65.9235 13.1132C65.8216 13.2698 65.584 14.0642 65.3577 14.8586C65.0522 14.0083 64.8146 13.2475 64.8259 13.0237C64.8372 12.6544 64.9617 11.6922 65.0409 11.0544C64.9126 11.0619 64.7844 11.0731 64.6561 11.088C64.5656 11.737 64.4638 12.6433 64.4411 13.0125C64.4298 13.337 64.7353 14.2656 65.0069 15.0153C64.7806 15.0936 64.5769 15.2502 64.4411 15.4628C63.8075 15.0488 63.0946 14.5565 62.9928 14.4447C62.8796 14.3216 62.2912 13.2139 61.8839 12.4419C61.7858 12.5314 61.6915 12.6283 61.601 12.7328C62.0423 13.5607 62.5741 14.5454 62.7099 14.6908C62.823 14.8363 63.5133 15.3062 64.2148 15.7649C63.3096 15.7873 62.4949 15.7649 62.2799 15.6978C61.9404 15.5635 61.0465 15.1607 60.4581 14.881C60.4204 15.0078 60.394 15.1346 60.3789 15.2614C60.9673 15.5412 61.8047 15.9216 62.1554 16.0447C62.4609 16.1565 63.4454 16.1565 64.2488 16.1342C64.2601 16.3915 64.3619 16.6265 64.509 16.8055C63.9093 17.2754 63.2191 17.8013 63.0946 17.8572C62.9249 17.9244 61.6802 18.137 60.8089 18.2824C60.8692 18.4018 60.9334 18.5211 61.0013 18.6405C61.9404 18.4726 63.0493 18.2824 63.2304 18.2041C63.4114 18.137 64.0677 17.6335 64.7353 17.1188C64.4751 17.9803 64.2035 18.7412 64.0677 18.909C63.8414 19.1999 63.1738 19.9048 62.7212 20.3859C62.8344 20.453 62.9475 20.5164 63.0607 20.5761C63.5133 20.095 64.1356 19.4237 64.3619 19.144C64.5656 18.8866 64.8711 17.9579 65.0974 17.1971C65.203 17.2269 65.3087 17.2419 65.4143 17.2419C65.5614 17.2419 65.6972 17.2083 65.8216 17.1635C66.0932 17.8684 66.3874 18.674 66.3987 18.8195C66.41 18.9873 66.229 20.2293 66.1045 21.0908C66.2403 21.0759 66.3723 21.0535 66.5006 21.0237C66.6363 20.095 66.7947 18.9873 66.7721 18.7859C66.7608 18.6069 66.4779 17.8237 66.1837 17.0516C66.9419 17.5551 67.5868 18.0475 67.7113 18.2265C67.915 18.5286 68.3902 19.3789 68.7071 19.9495C68.8051 19.8675 68.9032 19.778 69.0013 19.681C68.6844 19.1104 68.2318 18.316 68.0281 18.0139C67.8471 17.7454 67.0437 17.1747 66.3874 16.7272C66.5006 16.5482 66.5798 16.3244 66.5798 16.0894C66.5798 16.067 66.576 16.0484 66.5684 16.0335C67.3266 15.9999 68.1979 15.9775 68.345 16.0111C68.5147 16.0447 69.6576 16.6041 70.4383 16.9845C70.4609 16.8577 70.4798 16.7272 70.4949 16.5929C69.6462 16.1789 68.6278 15.6866 68.4355 15.6419Z" fill="#C4DEFF"/>
<path d="M66.3649 16.0895C66.3649 16.6154 65.9462 17.0294 65.4144 17.0294C64.8825 17.0294 64.4639 16.6154 64.4639 16.0895C64.4639 15.5636 64.8825 15.1497 65.4144 15.1497C65.9462 15.1497 66.3649 15.5636 66.3649 16.0895Z" fill="#C4DEFF"/>
<path d="M66.2176 16.0896C66.2176 16.5259 65.8555 16.884 65.4142 16.884C64.9729 16.884 64.6108 16.5259 64.6108 16.0896C64.6108 15.6532 64.9729 15.2952 65.4142 15.2952C65.8555 15.2952 66.2176 15.6532 66.2176 16.0896Z" fill="#A6CDFF"/>
<path fill-rule="evenodd" clip-rule="evenodd" d="M70.6197 16.0895C70.6197 18.9314 68.2887 21.2363 65.4146 21.2363C62.5404 21.2363 60.2095 18.9314 60.2095 16.0895C60.2095 13.2475 62.5404 10.9426 65.4146 10.9426C68.2887 10.9426 70.6197 13.2475 70.6197 16.0895ZM70.382 16.0895C70.382 13.3706 68.1529 11.1776 65.4146 11.1776C62.6762 11.1776 60.4471 13.3706 60.4471 16.0895C60.4471 18.7972 62.6762 21.0014 65.4146 21.0014C68.1529 21.0014 70.382 18.7972 70.382 16.0895Z" fill="#D9EAFF"/>
<path d="M74.3989 4.34123C74.3989 4.34123 79.5588 3.92724 79.8643 3.86011C80.0227 3.86011 79.853 4.33004 79.819 4.34123C79.7851 4.35242 78.5177 5.39298 78.5177 5.39298L74.3989 4.34123Z" fill="#D9EAFF"/>
<path d="M77.8388 11.256C77.7144 10.9427 78.0425 6.54554 78.1217 6.31058C78.1896 6.07561 78.6762 5.40429 78.597 5.27002C78.5291 5.14694 69.4654 2.52876 57.0637 1.00708C44.6733 -0.514597 38.7214 -0.0782328 33.4371 1.00708C28.1641 2.0924 18.6366 6.62387 18.6366 6.62387C18.6366 6.62387 14.5517 6.57911 9.12031 8.73855C3.68891 10.898 0.384804 14.926 0.0453414 15.5637C-0.282806 16.1903 1.25609 18.8868 1.3353 19.2001C1.40319 19.5246 0.588481 20.4085 0.554535 20.5763C0.509273 20.7441 1.81055 20.8225 2.43289 20.8225C2.43289 20.8225 4.03968 20.8225 6.7667 20.8225C6.39329 18.7861 6.1783 17.0518 6.1783 16.0896C6.1783 12.5316 9.09767 9.64485 12.696 9.64485C16.2943 9.64485 19.2137 12.5316 19.2137 16.0896C19.2137 17.0518 18.9987 18.7861 18.6139 20.8225C31.4117 20.8225 48.8374 20.8225 59.4852 20.8225C59.1118 18.7861 58.8968 17.0518 58.8968 16.0896C58.8968 12.5316 61.8162 9.64485 65.4145 9.64485C69.0128 9.64485 71.9322 12.5316 71.9322 16.0896C71.9322 16.9511 71.7625 18.4504 71.4456 20.2183C74.2745 19.2225 78.0991 17.3204 78.2914 17.0407C78.5517 16.6602 79.2306 13.2365 79.2306 12.8672C79.2306 12.498 77.9633 11.5693 77.8388 11.256Z" fill="#C4DCFF"/>
<g style="mix-blend-mode:overlay" opacity="0.5">
<path d="M6.55155 19.5918C6.23471 19.6254 0.984359 20.7331 0.554374 20.5764C0.509112 20.7442 1.81038 20.8226 2.43273 20.8226C2.43273 20.8226 4.03952 20.8226 6.76654 20.8226C6.6911 20.3974 6.61944 19.9871 6.55155 19.5918Z" fill="#0C2453"/>
<path d="M58.9645 17.231C56.6109 17.6673 54.8797 17.9806 54.5176 18.003C53.1711 18.0813 18.908 19.1331 18.908 19.1331C18.8288 19.6589 18.7269 20.2296 18.6138 20.8226C31.4115 20.8226 48.8372 20.8226 59.4851 20.8226C59.2248 19.4352 59.0438 18.1932 58.9645 17.231Z" fill="#0C2453"/>
<path d="M77.0125 13.7176C76.7296 13.7735 74.6136 14.1987 71.7848 14.747C71.8866 15.1833 71.9319 15.6309 71.9319 16.0896C71.9319 16.9512 71.7621 18.4505 71.4453 20.2183C74.2742 19.2225 78.0988 17.3204 78.2911 17.0407C78.5514 16.6602 79.2303 13.2365 79.2303 12.8672C79.2303 12.7665 79.1398 12.6435 79.0153 12.4868C79.0606 12.5428 77.9404 13.5386 77.0125 13.7176Z" fill="#0C2453"/>
</g>
<path d="M12.6958 9.15234C8.81463 9.15234 5.66895 12.2852 5.66895 16.1565C5.66895 17.1188 5.87262 18.8195 6.2234 20.8223C6.3969 20.8223 6.57795 20.8223 6.76654 20.8223C6.39313 18.7859 6.17814 17.0516 6.17814 16.0894C6.17814 12.5314 9.09752 9.64465 12.6958 9.64465C16.2941 9.64465 19.2135 12.5314 19.2135 16.0894C19.2135 17.0516 18.9985 18.7859 18.6138 20.8223C18.7948 20.8223 18.9759 20.8223 19.1569 20.8223C19.519 18.8195 19.7114 17.1188 19.7114 16.1565C19.7114 12.2852 16.5657 9.15234 12.6958 9.15234Z" fill="#D4E5FF"/>
<path d="M65.4146 9.15234C61.5334 9.15234 58.3877 12.2852 58.3877 16.1565C58.3877 17.1188 58.5914 18.8195 58.9422 20.8223C59.1307 20.8223 59.3118 20.8223 59.4853 20.8223C59.1119 18.7859 58.8969 17.0516 58.8969 16.0894C58.8969 12.5314 61.8163 9.64465 65.4146 9.64465C69.0129 9.64465 71.9323 12.5314 71.9323 16.0894C71.9323 16.9509 71.7625 18.4502 71.4457 20.2181C71.6343 20.1509 71.8266 20.0801 72.0228 20.0055C72.2943 18.3607 72.4301 16.9845 72.4301 16.1565C72.4301 12.2852 69.2958 9.15234 65.4146 9.15234Z" fill="#D4E5FF"/>
<path d="M2.43299 13.1021C2.43299 13.1021 5.10343 10.9203 5.92946 10.4951C6.74417 10.0587 7.57019 9.79021 7.58151 9.87972C7.60414 9.96923 7.21941 10.607 7.17415 10.7301C7.12889 10.842 5.26185 11.6587 4.37924 12.0951C3.33823 12.6098 2.15011 13.3371 2.43299 13.1021Z" fill="#0C2453"/>
<path d="M6.37081 10.2713C6.28029 10.4839 6.17845 10.7301 6.15582 10.7972C6.12187 10.9203 4.33404 11.9049 3.4967 12.4196C3.12329 12.6545 2.71593 12.9231 2.38778 13.1469C2.37647 13.1916 3.44012 12.565 4.3793 12.0951C5.2619 11.6587 7.12895 10.842 7.17421 10.7301C7.21947 10.607 7.60419 9.96923 7.58156 9.87972C7.57025 9.81259 7.01579 9.98042 6.37081 10.2713Z" fill="#ADCFFF"/>
<path d="M78.4836 5.62798C78.3252 5.66154 74.2742 5.99721 74.2063 6.0084C74.1385 6.01959 74.3195 6.44476 74.3987 6.56784C74.4779 6.69092 77.9178 7.49651 77.997 7.5077C78.0762 7.53008 78.4496 6.05315 78.4836 5.99721C78.5175 5.93008 78.5288 5.61679 78.4836 5.62798Z" fill="#D12E34"/>
<g style="mix-blend-mode:overlay" opacity="0.3">
<path d="M78.2349 6.59017C76.1076 6.08668 74.7271 6.37759 74.5008 6.28808C74.4781 6.23213 74.4216 6.12024 74.3989 6.05311C74.6931 6.03073 78.0878 5.73982 78.4612 5.69507C78.4838 6.09787 78.3254 6.35521 78.2349 6.59017Z" fill="white"/>
</g>
<g style="mix-blend-mode:overlay" opacity="0.5">
<path d="M20.8545 11.7148C20.8545 11.7148 54.1105 6.78052 54.3708 6.78052C54.631 6.78052 49.607 17.2085 49.0073 17.3539C48.4188 17.4994 22.235 18.4504 22.235 18.4504C22.235 18.4504 44.2321 16.526 45.3184 16.4253C46.4047 16.3246 50.9422 9.14136 50.9422 8.97352C50.9422 8.80569 20.8545 11.7148 20.8545 11.7148Z" fill="#0C2453"/>
</g>
<g style="mix-blend-mode:overlay" opacity="0.5">
<path d="M7.9209 9.42099C7.9209 9.42099 11.9379 7.65316 15.4117 7.35106C18.8969 7.06015 37.7823 7.65316 37.7823 7.65316C37.7823 7.65316 31.0383 7.94407 28.1416 8.04477C25.2335 8.13428 16.9506 8.07833 15.0836 7.98882C11.7342 7.83218 7.9209 9.42099 7.9209 9.42099Z" fill="white"/>
</g>
<g style="mix-blend-mode:overlay" opacity="0.5">
<path d="M38.3252 7.32874C38.3252 7.32874 40.6109 7.16091 46.3591 5.90776C52.1074 4.65461 54.6873 4.08398 54.857 4.01685C55.0381 3.94972 52.1979 1.11895 50.7043 1.00706C49.1993 0.89517 38.3252 7.32874 38.3252 7.32874Z" fill="#0C2453"/>
</g>
<g style="mix-blend-mode:overlay" opacity="0.5">
<path d="M47.0044 6.05313C47.0044 6.05313 58.2859 3.64754 62.2802 3.23355C66.2632 2.81956 73.9011 4.16222 73.9011 4.16222C73.9011 4.16222 65.3241 3.96082 62.3028 4.16222C59.2703 4.36362 47.0044 6.05313 47.0044 6.05313Z" fill="white"/>
</g>
<path d="M33.5727 1.64486C28.8542 2.61828 20.5487 6.45604 19.1343 7.11618C19.1343 7.11618 35.6774 7.35115 37.9065 7.35115C40.1357 7.35115 52.8768 3.72597 52.8768 3.72597C52.8768 3.72597 51.8924 1.42108 50.7043 1.00709C48.0338 0.783317 45.6576 0.682617 43.519 0.682617C39.9094 0.682617 36.8429 0.973526 33.5727 1.64486Z" fill="#333333"/>
<path d="M37.9066 7.35114C39.8981 7.35114 50.297 4.45323 52.4808 3.83785C52.2545 3.36792 51.4172 1.66722 50.4214 1.32037C47.8302 1.10778 45.5219 1.00708 43.4398 1.00708C39.9434 1.00708 36.9674 1.29799 33.7991 1.94694C29.454 2.84205 21.9745 6.23226 20.0396 7.12736C23.536 7.1833 35.9943 7.35114 37.9066 7.35114Z" fill="#0C2453"/>
<g style="mix-blend-mode:overlay" opacity="0.3">
<path d="M52.4808 3.83777C52.2885 3.42379 51.6096 2.06994 50.7835 1.5105C41.256 2.26015 33.256 3.24476 26.8062 4.21819C23.8415 5.39302 21.1032 6.63497 20.0396 7.12728C21.0127 7.14966 22.6874 7.17204 24.6336 7.19442C31.1287 6.72449 38.2687 6.27693 44.8429 5.89651C48.0565 5.07973 51.3606 4.15106 52.4808 3.83777Z" fill="#BFDAFF"/>
</g>
<path d="M23.5137 7.18328C23.8833 7.18328 24.268 7.18701 24.6678 7.19447L26.3086 4.01685C26.0295 4.12873 25.7541 4.24062 25.4826 4.35251L23.5137 7.18328Z" fill="#333333"/>
<g style="mix-blend-mode:overlay" opacity="0.6">
<path d="M49.4258 16.8506C49.4485 16.8207 49.4711 16.7872 49.4937 16.7499C49.5314 16.6902 49.5729 16.6119 49.6182 16.5149C49.4485 16.7946 49.3693 16.9177 49.4258 16.8506Z" fill="#0C2453"/>
<path d="M54.3706 6.78052C54.2914 6.78052 51.4625 7.1945 47.4795 7.77632C48.2263 7.77632 52.7525 7.61968 52.8769 7.77632C53.0014 7.92178 50.4102 14.8365 49.6181 16.5148C49.7086 16.347 49.8444 16.1344 50.0028 15.8882C51.6322 12.9791 54.5629 6.78052 54.3706 6.78052Z" fill="#0C2453"/>
</g>
<g style="mix-blend-mode:overlay" opacity="0.5">
<path d="M40.3849 19.8937H26.3085C25.9464 19.8937 24.3509 18.2042 24.0341 17.8685C23.0949 16.8615 22.1105 15.6867 21.9973 15.3174C21.8729 14.8699 20.6395 9.67828 20.7866 9.39856C20.911 9.16359 23.3778 7.49646 23.9096 7.14961L25.754 4.24052L25.9804 4.151L24.0002 7.23912L23.9888 7.25031C22.846 8.02233 21.0016 9.29786 20.911 9.4545C20.8205 9.73422 21.8955 14.4895 22.1331 15.2839C22.3255 15.9552 25.8785 19.7706 26.3085 19.7706H40.3849C40.9054 19.737 46.9252 11.9944 48.8941 9.44331C49.5843 8.5594 49.8898 8.16779 49.9351 8.13422C50.0482 8.01114 50.7385 7.70905 51.6211 7.32863C51.9719 7.18317 52.2661 7.04891 52.3792 6.99296C52.6282 6.86989 52.945 4.151 52.7526 3.7594L52.8771 3.72583C53.0581 4.09506 52.7866 6.93702 52.4358 7.11604C52.3226 7.17198 52.0284 7.29506 51.6777 7.4517C51.0666 7.70905 50.1388 8.11184 50.0256 8.22373C49.9917 8.2573 49.573 8.79436 49.0072 9.52163C44.8205 14.9146 40.8828 19.8937 40.3849 19.8937Z" fill="#0C2453"/>
</g>
<path d="M24.8825 6.3999C24.4298 6.72438 23.8641 7.46284 23.7622 7.61948C23.6717 7.78732 24.8598 7.82088 25.1088 7.77613C25.3464 7.72018 24.9617 7.2055 25.4143 6.98172C25.8556 6.76913 25.1201 6.23207 24.8825 6.3999Z" fill="#D9EAFF"/>
<path d="M27.8697 7.02666C26.9758 7.02666 25.3917 7.02666 24.8711 6.93715C23.7622 6.74694 26.8627 5.05743 27.2247 5.25883C27.6774 5.51617 28.1526 7.02666 27.8697 7.02666Z" fill="#C4DCFF"/>
<g style="mix-blend-mode:overlay" opacity="0.5">
<path d="M0.452787 15.9106C0.611203 15.8658 4.25477 15.3176 4.54897 15.2952C4.84317 15.284 4.17556 18.9651 4.02846 19.1889C3.88136 19.4127 2.21799 19.8267 2.05958 19.8155C1.91248 19.8043 2.7385 19.0994 2.82903 18.9763C2.91955 18.842 2.78376 16.7274 2.7385 16.6043C2.70456 16.47 -0.0564073 16.0448 0.452787 15.9106Z" fill="#0C2453"/>
</g>
<g style="mix-blend-mode:overlay" opacity="0.5">
<path d="M4.54882 15.2952C4.29988 15.3064 1.58418 15.7204 0.712891 15.8658C1.02972 15.8099 3.75674 15.7987 3.89252 15.877C4.03962 15.9441 3.85858 18.8868 3.84726 19.0211C3.83595 19.1553 3.07781 19.5805 2.95334 19.6141C3.43991 19.4798 3.9491 19.312 4.02831 19.1889C4.17541 18.9651 4.84302 15.284 4.54882 15.2952Z" fill="#0C2453"/>
</g>
<g style="mix-blend-mode:overlay" opacity="0.2">
<path d="M2.91943 12.7104C3.74546 12.1733 4.99015 11.4684 6.64221 10.8866C6.84588 10.812 7.0307 10.7449 7.19666 10.6852C7.26455 10.5509 7.42297 10.2712 7.51349 10.0698C7.08351 10.1817 6.42721 10.3719 5.56724 10.7076C4.83174 11.1887 3.59836 12.1621 2.91943 12.7104Z" fill="white"/>
</g>
</g>
<defs>
<clipPath id="clip0_813_2483">
<rect width="80" height="22.1538" fill="white"/>
</clipPath>
</defs>
</svg>
