<svg width="80" height="30" viewBox="0 0 80 30" fill="none" xmlns="http://www.w3.org/2000/svg">
<g clip-path="url(#clip0_813_2357)">
<path d="M5.77734 26.7475H74.8324V16.5835H5.77734V26.7475Z" fill="#13171A"/>
<path d="M67.7462 19.2814L69.0551 19.6885C69.1567 19.7233 69.2695 19.6652 69.3034 19.5489C69.3372 19.4442 69.2695 19.3279 69.168 19.2931L67.8591 18.886C67.7575 18.8511 67.6334 18.9093 67.6108 19.0256C67.577 19.1302 67.6334 19.2465 67.7462 19.2814Z" fill="#0C2453"/>
<path d="M69.168 19.7L67.8591 20.1071C67.7575 20.142 67.6334 20.0722 67.6108 19.9675C67.577 19.8512 67.6334 19.7349 67.7462 19.7L69.0551 19.293C69.1567 19.2581 69.2695 19.3279 69.3034 19.4326C69.3372 19.5489 69.2695 19.6651 69.168 19.7Z" fill="#0C2453"/>
<path d="M67.7462 18.4557L69.0551 18.8628C69.1567 18.8977 69.2695 18.8395 69.3034 18.7232C69.3372 18.6186 69.2695 18.5023 69.168 18.4674L67.8591 18.0603C67.7575 18.0255 67.6334 18.0836 67.6108 18.1999C67.577 18.3046 67.6334 18.4209 67.7462 18.4557Z" fill="#0C2453"/>
<path d="M69.168 18.8744L67.8591 19.2814C67.7575 19.3163 67.6334 19.2465 67.6108 19.1418C67.577 19.0255 67.6334 18.9092 67.7462 18.8744L69.0551 18.4673C69.1567 18.4324 69.2695 18.5022 69.3034 18.6069C69.3372 18.7232 69.2695 18.8395 69.168 18.8744Z" fill="#0C2453"/>
<path d="M67.7462 17.6301L69.0551 18.0371C69.1567 18.072 69.2695 18.0138 69.3034 17.8975C69.3372 17.7929 69.2695 17.6766 69.168 17.6417L67.8591 17.2347C67.7575 17.1998 67.6334 17.2579 67.6108 17.3742C67.577 17.4789 67.6334 17.5952 67.7462 17.6301Z" fill="#0C2453"/>
<path d="M69.168 18.0487L67.8591 18.4557C67.7575 18.4906 67.6334 18.4208 67.6108 18.3161C67.577 18.1999 67.6334 18.0836 67.7462 18.0487L69.0551 17.6416C69.1567 17.6068 69.2695 17.6765 69.3034 17.7812C69.3372 17.8975 69.2695 18.0138 69.168 18.0487Z" fill="#0C2453"/>
<path d="M67.7462 16.8044L69.0551 17.2114C69.1567 17.2463 69.2695 17.1881 69.3034 17.0719C69.3372 16.9672 69.2695 16.8509 69.168 16.816L67.8591 16.409C67.7575 16.3741 67.6334 16.4322 67.6108 16.5485C67.577 16.6532 67.6334 16.7695 67.7462 16.8044Z" fill="#0C2453"/>
<path d="M69.168 17.223L67.8591 17.63C67.7575 17.6649 67.6334 17.5951 67.6108 17.4905C67.577 17.3742 67.6334 17.2579 67.7462 17.223L69.0551 16.816C69.1567 16.7811 69.2695 16.8508 69.3034 16.9555C69.3372 17.0718 69.2695 17.1881 69.168 17.223Z" fill="#0C2453"/>
<path fill-rule="evenodd" clip-rule="evenodd" d="M72.0115 23.4562C72.0115 25.4913 70.4205 27.1311 68.4572 27.1311C66.4939 27.1311 64.8916 25.4913 64.8916 23.4562C64.8916 21.4327 66.4939 19.793 68.4572 19.793C70.4205 19.793 72.0115 21.4327 72.0115 23.4562ZM70.5221 23.4562C70.5221 22.2816 69.5968 21.328 68.4572 21.328C67.3176 21.328 66.381 22.2816 66.381 23.4562C66.381 24.6424 67.3176 25.596 68.4572 25.596C69.5968 25.596 70.5221 24.6424 70.5221 23.4562Z" fill="#0C2453"/>
<path d="M71.0069 23.4563C71.0069 23.8168 70.9392 24.1541 70.815 24.4564C70.736 24.6658 70.815 24.8984 71.0069 24.9914L71.6274 25.3054C71.8418 25.41 72.0901 25.317 72.1691 25.1077C72.3834 24.596 72.4963 24.0494 72.4963 23.4563C72.4963 22.8749 72.3834 22.3283 72.1691 21.8166C72.0901 21.6073 71.8418 21.5142 71.6274 21.6189L71.0069 21.9329C70.815 22.0259 70.736 22.2585 70.815 22.4562C70.9392 22.7702 71.0069 23.1074 71.0069 23.4563Z" fill="#8C2418"/>
<path d="M72.8013 22.2354L69.6532 22.6773L71.4021 19.956C71.1765 19.7544 70.9395 19.58 70.6913 19.4327L68.7618 22.0377L68.1299 18.8396C67.8365 18.8629 67.5507 18.9133 67.2724 18.9908L67.7011 22.2237L65.0495 20.4328C64.8615 20.6576 64.6922 20.9019 64.5418 21.1655L67.0693 23.1424L63.9663 23.7937C63.9889 24.1038 64.0378 24.4023 64.113 24.6891L67.2611 24.2472L65.5121 26.9685C65.7303 27.1623 65.9672 27.3368 66.223 27.4918L68.1412 24.8868L68.7844 28.0849C69.0777 28.0616 69.3636 28.0113 69.6419 27.9337L69.2131 24.6891L71.8535 26.4917C72.0491 26.2669 72.2183 26.0226 72.3612 25.759L69.8337 23.7821L72.948 23.1308C72.9254 22.8207 72.8765 22.5222 72.8013 22.2354Z" fill="#C4DEFF"/>
<path d="M70.2059 23.4564C70.2059 24.4565 69.4273 25.2705 68.4569 25.2705C67.4866 25.2705 66.708 24.4565 66.708 23.4564C66.708 22.4679 67.4866 21.6538 68.4569 21.6538C69.4273 21.6538 70.2059 22.4679 70.2059 23.4564Z" fill="#C4DEFF"/>
<path d="M69.4385 23.4563C69.4385 24.0262 68.9984 24.4797 68.4568 24.4797C67.9152 24.4797 67.4639 24.0262 67.4639 23.4563C67.4639 22.8981 67.9152 22.4446 68.4568 22.4446C68.9984 22.4446 69.4385 22.8981 69.4385 23.4563Z" fill="#A6CDFF"/>
<path fill-rule="evenodd" clip-rule="evenodd" d="M74.2681 23.4564C74.2681 26.7707 71.6616 29.4571 68.4571 29.4571C65.2413 29.4571 62.6348 26.7707 62.6348 23.4564C62.6348 20.1537 65.2413 17.4673 68.4571 17.4673C71.6616 17.4673 74.2681 20.1537 74.2681 23.4564ZM73.0156 23.4564C73.0156 20.863 70.9733 18.7581 68.4571 18.7581C65.9296 18.7581 63.8872 20.863 63.8872 23.4564C63.8872 26.0613 65.9296 28.1663 68.4571 28.1663C70.9733 28.1663 73.0156 26.0613 73.0156 23.4564Z" fill="#333333"/>
<path fill-rule="evenodd" clip-rule="evenodd" d="M68.4568 29.1895C65.3877 29.1895 62.894 26.6194 62.894 23.4562C62.894 20.3047 65.3877 17.7346 68.4568 17.7346C71.5146 17.7346 74.0083 20.3047 74.0083 23.4562C74.0083 26.6194 71.5146 29.1895 68.4568 29.1895ZM68.4568 18.6184C65.8616 18.6184 63.7629 20.7931 63.7629 23.4562C63.7629 26.131 65.8616 28.3057 68.4568 28.3057C71.0407 28.3057 73.1507 26.131 73.1507 23.4562C73.1507 20.7931 71.0407 18.6184 68.4568 18.6184Z" fill="#0C2453"/>
<path fill-rule="evenodd" clip-rule="evenodd" d="M73.0608 23.4563C73.0608 26.0845 70.996 28.201 68.4572 28.201C65.9184 28.201 63.8535 26.0845 63.8535 23.4563C63.8535 20.8397 65.9184 18.7231 68.4572 18.7231C70.996 18.7231 73.0608 20.8397 73.0608 23.4563ZM72.9029 23.4563C72.9029 20.9327 70.917 18.8743 68.4572 18.8743C65.9974 18.8743 64.0002 20.9327 64.0002 23.4563C64.0002 25.9915 65.9974 28.0499 68.4572 28.0499C70.917 28.0499 72.9029 25.9915 72.9029 23.4563Z" fill="#D9EAFF"/>
<path d="M11.588 19.2582L12.8969 19.6653C12.9985 19.7002 13.1113 19.642 13.1452 19.5257C13.179 19.421 13.1226 19.2931 13.0098 19.2699L11.7009 18.8628C11.5993 18.828 11.4865 18.8861 11.4526 19.0024C11.4188 19.1071 11.4752 19.2233 11.588 19.2582Z" fill="#0C2453"/>
<path d="M13.0098 19.6768L11.7009 20.0839C11.5993 20.1188 11.4865 20.049 11.4526 19.9443C11.4188 19.828 11.4752 19.7117 11.588 19.6768L12.8969 19.2698C12.9985 19.2349 13.1113 19.3047 13.1452 19.4094C13.179 19.5257 13.1226 19.642 13.0098 19.6768Z" fill="#0C2453"/>
<path d="M11.588 18.4326L12.8969 18.8396C12.9985 18.8745 13.1113 18.8163 13.1452 18.7C13.179 18.5954 13.1226 18.4791 13.0098 18.4442L11.7009 18.0372C11.5993 18.0023 11.4865 18.0604 11.4526 18.1767C11.4188 18.2814 11.4752 18.3977 11.588 18.4326Z" fill="#0C2453"/>
<path d="M13.0098 18.8512L11.7009 19.2582C11.5993 19.2931 11.4865 19.2233 11.4526 19.1186C11.4188 19.0023 11.4752 18.886 11.588 18.8512L12.8969 18.4441C12.9985 18.4092 13.1113 18.479 13.1452 18.5837C13.179 18.7 13.1226 18.8163 13.0098 18.8512Z" fill="#0C2453"/>
<path d="M11.588 17.6069L12.8969 18.0139C12.9985 18.0488 13.1113 17.9906 13.1452 17.8743C13.179 17.7697 13.1226 17.6534 13.0098 17.6185L11.7009 17.2115C11.5993 17.1766 11.4865 17.2347 11.4526 17.351C11.4188 17.4557 11.4752 17.572 11.588 17.6069Z" fill="#0C2453"/>
<path d="M13.0098 18.0255L11.7009 18.4325C11.5993 18.4674 11.4865 18.3976 11.4526 18.293C11.4188 18.1767 11.4752 18.0604 11.588 18.0255L12.8969 17.6185C12.9985 17.5836 13.1113 17.6533 13.1452 17.758C13.179 17.8743 13.1226 17.9906 13.0098 18.0255Z" fill="#0C2453"/>
<path d="M11.588 16.7812L12.8969 17.1882C12.9985 17.2231 13.1113 17.165 13.1452 17.0487C13.179 16.944 13.1226 16.8277 13.0098 16.7928L11.7009 16.3858C11.5993 16.3509 11.4865 16.409 11.4526 16.5253C11.4188 16.63 11.4752 16.7463 11.588 16.7812Z" fill="#0C2453"/>
<path d="M13.0098 17.1998L11.7009 17.6068C11.5993 17.6417 11.4865 17.5719 11.4526 17.4673C11.4188 17.351 11.4752 17.2347 11.588 17.1998L12.8969 16.7928C12.9985 16.7579 13.1113 16.8277 13.1452 16.9323C13.179 17.0486 13.1226 17.1649 13.0098 17.1998Z" fill="#0C2453"/>
<path fill-rule="evenodd" clip-rule="evenodd" d="M15.8645 23.4562C15.8645 25.4913 14.2623 27.1311 12.2989 27.1311C10.3356 27.1311 8.74463 25.4913 8.74463 23.4562C8.74463 21.4327 10.3356 19.793 12.2989 19.793C14.2623 19.793 15.8645 21.4327 15.8645 23.4562ZM14.3638 23.4562C14.3638 22.2816 13.4386 21.328 12.2989 21.328C11.1593 21.328 10.2341 22.2816 10.2341 23.4562C10.2341 24.6424 11.1593 25.596 12.2989 25.596C13.4386 25.596 14.3638 24.6424 14.3638 23.4562Z" fill="#0C2453"/>
<path d="M14.8604 23.4563C14.8604 23.8168 14.7927 24.1541 14.6686 24.4564C14.5783 24.6658 14.6573 24.8984 14.8491 24.9914L15.481 25.3054C15.6841 25.41 15.9324 25.317 16.0226 25.1077C16.2257 24.596 16.3498 24.0494 16.3498 23.4563C16.3498 22.8749 16.2257 22.3283 16.0226 21.8166C15.9324 21.6073 15.6841 21.5142 15.481 21.6189L14.8491 21.9329C14.6573 22.0259 14.5783 22.2585 14.6686 22.4562C14.7927 22.7702 14.8604 23.1074 14.8604 23.4563Z" fill="#8C2418"/>
<path d="M16.6431 22.2354L13.495 22.6773L15.2439 19.956C15.0258 19.7544 14.7888 19.58 14.5331 19.4327L12.6149 22.0377L11.9717 18.8396C11.6783 18.8629 11.3925 18.9133 11.1142 18.9908L11.5429 22.2237L8.90261 20.4328C8.70702 20.6576 8.53777 20.9019 8.39485 21.1655L10.9224 23.1424L7.80811 23.7937C7.83067 24.1038 7.87957 24.4023 7.95479 24.6891L11.1029 24.2472L9.35395 26.9685C9.57209 27.1623 9.80905 27.3368 10.0648 27.4918L11.9943 24.8868L12.6262 28.0849C12.9195 28.0616 13.2054 28.0113 13.4837 27.9337L13.0549 24.6891L15.7066 26.4917C15.8946 26.2669 16.0601 26.0226 16.203 25.759L13.6755 23.7821L16.7898 23.1308C16.7672 22.8207 16.7183 22.5222 16.6431 22.2354Z" fill="#C4DEFF"/>
<path d="M14.0482 23.4564C14.0482 24.4565 13.2696 25.2705 12.2992 25.2705C11.3289 25.2705 10.5503 24.4565 10.5503 23.4564C10.5503 22.4679 11.3289 21.6538 12.2992 21.6538C13.2696 21.6538 14.0482 22.4679 14.0482 23.4564Z" fill="#C4DEFF"/>
<path d="M13.2807 23.4563C13.2807 24.0262 12.8407 24.4797 12.299 24.4797C11.7574 24.4797 11.3174 24.0262 11.3174 23.4563C11.3174 22.8981 11.7574 22.4446 12.299 22.4446C12.8407 22.4446 13.2807 22.8981 13.2807 23.4563Z" fill="#A6CDFF"/>
<path fill-rule="evenodd" clip-rule="evenodd" d="M18.1211 23.4564C18.1211 26.7707 15.5146 29.4571 12.2988 29.4571C9.083 29.4571 6.48779 26.7707 6.48779 23.4564C6.48779 20.1537 9.083 17.4673 12.2988 17.4673C15.5146 17.4673 18.1211 20.1537 18.1211 23.4564ZM16.8686 23.4564C16.8686 20.863 14.8263 18.7581 12.2988 18.7581C9.78257 18.7581 7.74026 20.863 7.74026 23.4564C7.74026 26.0613 9.78257 28.1663 12.2988 28.1663C14.8263 28.1663 16.8686 26.0613 16.8686 23.4564Z" fill="#333333"/>
<path fill-rule="evenodd" clip-rule="evenodd" d="M12.299 29.1895C9.24121 29.1895 6.74756 26.6194 6.74756 23.4562C6.74756 20.3047 9.24121 17.7346 12.299 17.7346C15.3682 17.7346 17.8618 20.3047 17.8618 23.4562C17.8618 26.6194 15.3682 29.1895 12.299 29.1895ZM12.299 18.6184C9.71512 18.6184 7.6051 20.7931 7.6051 23.4562C7.6051 26.131 9.71512 28.3057 12.299 28.3057C14.8942 28.3057 16.993 26.131 16.993 23.4562C16.993 20.7931 14.8942 18.6184 12.299 18.6184Z" fill="#0C2453"/>
<path fill-rule="evenodd" clip-rule="evenodd" d="M16.9027 23.4563C16.9027 26.0845 14.8378 28.201 12.299 28.201C9.76019 28.201 7.69531 26.0845 7.69531 23.4563C7.69531 20.8397 9.76019 18.7231 12.299 18.7231C14.8378 18.7231 16.9027 20.8397 16.9027 23.4563ZM16.756 23.4563C16.756 20.9327 14.7588 18.8743 12.299 18.8743C9.83918 18.8743 7.842 20.9327 7.842 23.4563C7.842 25.9915 9.83918 28.0499 12.299 28.0499C14.7588 28.0499 16.756 25.9915 16.756 23.4563Z" fill="#D9EAFF"/>
<path d="M67.0576 1.5234C67.0576 1.5234 68.5245 1.23267 68.5583 1.23267C68.5809 1.2443 68.6712 1.45362 68.6712 1.47688C68.6712 1.51177 68.3439 1.93042 68.3439 1.93042L67.0576 1.5234Z" fill="#C4DCFF"/>
<path d="M79.6619 15.5484C79.1767 15.1064 78.3305 10.5594 77.6873 9.28015C77.0554 8.00093 70.1838 2.2793 67.1485 1.45362C64.102 0.627942 42.4151 -0.744318 36.0286 0.767493C29.6422 2.2793 18.3136 9.17549 18.3136 9.17549C18.3136 9.17549 12.0061 10.4082 7.60552 12.3387C3.19367 14.2691 1.42216 16.7229 1.08366 17.6533C0.745153 18.5836 0.169695 18.6185 0.0230096 19.6535C-0.134959 20.6885 0.812854 25.8868 1.08366 26.2357C1.28676 26.4799 3.97223 26.9916 6.16123 27.2242C6.10481 26.1775 6.08225 24.9332 6.08225 23.4563C6.08225 19.921 8.86927 17.0602 12.2995 17.0602C15.7296 17.0602 18.5167 19.921 18.5167 23.4563C18.5167 24.9565 18.4941 26.2473 18.449 27.3405C30.4659 27.3405 50.0202 27.3405 62.3192 27.3405C62.2628 26.2706 62.2402 24.9797 62.2402 23.4563C62.2402 19.921 65.0272 17.0602 68.4574 17.0602C71.8876 17.0602 74.6746 19.921 74.6746 23.4563C74.6746 24.8053 74.6521 25.9682 74.6182 26.9916C76.6154 25.9566 79.6168 22.9679 79.6619 22.6888C79.7296 22.3399 80.1471 16.0019 79.6619 15.5484Z" fill="#C4DCFF"/>
<g style="mix-blend-mode:overlay" opacity="0.3">
<path d="M6.08168 23.4563C6.08168 23.4253 6.08168 23.3904 6.08168 23.3516C5.30312 23.3516 4.85178 23.3516 4.78408 23.3516C3.8137 23.3516 0.428647 23.4214 0.338379 22.8865C0.597899 24.4797 0.936404 26.0496 1.08309 26.2357C1.28619 26.4799 3.97167 26.9916 6.16066 27.2242C6.10425 26.1776 6.08168 24.9332 6.08168 23.4563Z" fill="#0C2453"/>
<path d="M18.5159 23.3516C18.5159 23.3903 18.5159 23.4252 18.5159 23.4562C18.5159 24.9564 18.4934 26.2473 18.4482 27.3404C30.4652 27.3404 50.0195 27.3404 62.3185 27.3404C62.2621 26.2705 62.2395 24.9797 62.2395 23.4562C62.2395 23.4252 62.2395 23.3903 62.2395 23.3516C49.7712 23.3516 31.1535 23.3516 18.5159 23.3516Z" fill="#0C2453"/>
<path d="M79.6614 22.6888C79.6727 22.6074 79.7065 22.2585 79.7404 21.7468C79.7404 21.7468 77.4611 23.3517 75.4075 23.3517C75.306 23.3517 75.0577 23.3517 74.6741 23.3517C74.6741 23.3904 74.6741 23.4253 74.6741 23.4563C74.6741 24.8053 74.6515 25.9683 74.6177 26.9916C76.6149 25.9566 79.6163 22.9679 79.6614 22.6888Z" fill="#0C2453"/>
</g>
<path d="M12.2988 16.1648C8.46239 16.1648 5.34814 19.4326 5.34814 23.4564C5.34814 24.8635 5.37071 26.073 5.40456 27.1312C5.66032 27.1622 5.91232 27.1933 6.16056 27.2243C6.10414 26.1776 6.08157 24.9333 6.08157 23.4564C6.08157 19.9211 8.8686 17.0603 12.2988 17.0603C15.729 17.0603 18.516 19.9211 18.516 23.4564C18.516 24.9566 18.4934 26.2474 18.4483 27.3406C18.6965 27.3406 18.9485 27.3406 19.2043 27.3406C19.2381 26.2125 19.2494 24.9333 19.2494 23.4564C19.2494 19.4326 16.1352 16.1648 12.2988 16.1648Z" fill="#D4E5FF"/>
<path d="M68.457 16.1648C64.6206 16.1648 61.5063 19.4326 61.5063 23.4564C61.5063 24.9449 61.5289 26.2358 61.5741 27.3406C61.8223 27.3406 62.0705 27.3406 62.3188 27.3406C62.2623 26.2707 62.2398 24.9798 62.2398 23.4564C62.2398 19.9211 65.0268 17.0603 68.457 17.0603C71.8872 17.0603 74.6742 19.9211 74.6742 23.4564C74.6742 24.8054 74.6516 25.9683 74.6178 26.9917C74.8547 26.8638 75.1142 26.7126 75.3738 26.5381C75.3963 25.6194 75.4076 24.596 75.4076 23.4564C75.4076 19.4326 72.2934 16.1648 68.457 16.1648Z" fill="#D4E5FF"/>
<path d="M18.5161 9.52435L59.9943 8.66378C61.7545 8.62889 63.3229 7.50085 63.966 5.8146L64.8687 3.44222C65.0944 2.83749 64.7333 2.17462 64.1127 2.08159C61.6304 1.68619 55.3454 0.825621 45.9237 0.5C41.3539 0.5 37.9576 0.732586 36.1184 1.16287C29.8673 2.65142 18.6289 9.45457 18.5161 9.52435Z" fill="#333333"/>
<path d="M19.0464 9.5243L59.5654 8.68699C61.2918 8.6521 62.8264 7.57057 63.4582 5.93084L64.3384 3.62824C64.564 3.04677 64.2029 2.40716 63.6049 2.31412C61.179 1.93035 55.0407 1.09304 45.8221 0.779053C41.3539 0.779053 38.0478 1.00001 36.2424 1.43029C30.1381 2.8607 19.1592 9.46615 19.0464 9.5243Z" fill="#333333"/>
<path d="M63.6049 2.31412C61.1789 1.93035 55.0407 1.09304 45.8221 0.779053C41.3538 0.779053 38.0477 1.00001 36.2424 1.43029C31.9321 2.44204 25.1733 6.0355 21.5513 8.08226V9.33823V9.46615L59.949 8.66373C61.5061 8.48929 62.8714 7.44265 63.4582 5.93084L64.3383 3.62823C64.564 3.04677 64.2029 2.40716 63.6049 2.31412Z" fill="#0C2453"/>
<g style="mix-blend-mode:overlay" opacity="0.3">
<path d="M63.4582 5.93093L64.3383 3.62833C64.564 3.04686 64.2029 2.40725 63.6049 2.31422C62.0252 2.05837 58.8997 1.62809 54.3863 1.26758C41.5569 2.68635 31.5372 4.72148 24.3834 6.52403C23.3341 7.09386 22.3637 7.62881 21.5513 8.08236V9.33832V9.46624L27.2607 9.34995C39.5936 8.03584 54.6006 6.87291 63.3228 6.23329C63.3679 6.13251 63.4131 6.03172 63.4582 5.93093Z" fill="#BFDAFF"/>
</g>
<path d="M42.2456 9.03592L44.8408 8.97777L45.7773 0.5C45.168 0.5 44.5775 0.503876 44.0058 0.511629L42.2456 9.03592Z" fill="#333333"/>
<g style="mix-blend-mode:overlay" opacity="0.6">
<path d="M61.4952 1.70945C61.7096 3.84924 62.3641 11.0245 61.8225 12.4317C61.1116 14.2807 56.35 24.9216 54.522 24.9216H42.8662C42.8436 24.1773 42.618 17.3858 42.8662 14.7343C43.0919 12.327 43.3965 10.3617 43.5432 9.40805C43.5733 9.24524 43.5959 9.11732 43.6109 9.02429C43.6899 8.48934 44.6151 2.70957 44.9762 0.5C44.9311 0.5 44.8859 0.5 44.8408 0.5C44.4797 2.73283 43.5545 8.46608 43.4755 9.00103C43.4605 9.10181 43.4417 9.22974 43.4191 9.38479C43.2724 10.3384 42.9565 12.3038 42.7308 14.7226C42.4938 17.3741 42.7082 24.154 42.7308 24.9216H22.0481C21.9353 24.1308 20.8182 15.8391 20.8634 14.5482C20.9198 13.1876 21.4727 9.57086 21.484 9.52435V7.80321C21.4388 7.82647 21.3937 7.8536 21.3486 7.88461V9.51272C21.3486 9.55923 20.7844 13.1759 20.7393 14.5366C20.6828 15.9088 21.8676 24.6308 21.924 24.9913V25.0495H54.522C56.5644 25.0495 61.4614 13.7574 61.9466 12.4782C62.4995 11.0362 61.8563 3.93065 61.6306 1.72108C61.5855 1.71332 61.5404 1.70945 61.4952 1.70945Z" fill="#0C2453"/>
</g>
<g style="mix-blend-mode:overlay" opacity="0.4">
<path d="M19.9038 18.2349C19.9038 18.2349 60.3326 17.3394 61.5061 17.4673C62.6796 17.5953 58.9899 21.305 58.0759 21.7469C57.1732 22.2005 22.0703 22.2586 20.8855 21.9563C19.7007 21.6539 18.7642 18.2349 19.9038 18.2349Z" fill="#0C2453"/>
</g>
<g style="mix-blend-mode:overlay" opacity="0.2">
<path d="M70.928 9.03589C69.1564 9.03589 20.6149 9.83831 18.1212 9.9546C15.6163 10.0709 10.3356 11.3152 5.11133 14.0598C5.11133 14.0598 11.904 12.5479 17.8617 12.2107C23.8194 11.8618 74.5387 11.478 75.7234 11.478C76.9195 11.478 72.7107 9.03589 70.928 9.03589Z" fill="white"/>
</g>
<path d="M0.993164 17.8742C0.993164 17.8742 4.05099 17.7463 4.75057 17.5602C5.46143 17.3625 7.1878 15.4437 7.7407 15.1297C8.29359 14.8041 8.71108 14.2808 8.50797 14.2808C8.31615 14.2808 4.34436 14.7692 2.95649 15.2344C1.57991 15.7112 0.993164 17.8742 0.993164 17.8742Z" fill="#0C2453"/>
<path d="M5.06634 17.4092C5.83362 16.9324 7.09737 15.5718 7.65026 15.188C6.51063 15.3159 4.88581 15.5252 4.1411 15.7346C2.96761 16.0602 2.48242 17.5487 2.48242 17.5487C2.48242 17.5487 4.09596 17.5022 5.06634 17.4092Z" fill="#0C2453"/>
<g style="mix-blend-mode:overlay" opacity="0.6">
<path fill-rule="evenodd" clip-rule="evenodd" d="M4.52462 16.595C4.1297 17.1881 3.61066 17.5486 3.38499 17.3858C3.15932 17.223 3.29472 16.6066 3.68964 16.0019C4.08456 15.3972 4.59232 15.0483 4.82927 15.2111C5.05494 15.3739 4.91954 15.9903 4.52462 16.595ZM4.41178 15.5716C4.2651 15.4786 3.97173 15.6879 3.73477 16.0368C3.49782 16.3973 3.41884 16.7578 3.55424 16.8625C3.68964 16.9555 3.99429 16.7462 4.23125 16.3857C4.4682 16.0368 4.54719 15.6646 4.41178 15.5716Z" fill="#D6E7FF"/>
</g>
<g style="mix-blend-mode:overlay" opacity="0.6">
<path fill-rule="evenodd" clip-rule="evenodd" d="M2.97909 16.8277C2.697 17.258 2.33593 17.5139 2.16667 17.3976C2.0087 17.2813 2.09897 16.8394 2.38106 16.4091C2.66315 15.9904 3.0355 15.7346 3.19347 15.8509C3.36272 15.9672 3.26117 16.4091 2.97909 16.8277ZM2.9001 16.1067C2.79855 16.0369 2.58416 16.1881 2.41491 16.444C2.24566 16.6882 2.18924 16.9557 2.29079 17.0254C2.38106 17.0952 2.59545 16.944 2.7647 16.6882C2.93395 16.4323 2.99037 16.1765 2.9001 16.1067Z" fill="#D6E7FF"/>
</g>
<g style="mix-blend-mode:overlay" opacity="0.3">
<path d="M1.53467 16.6066C1.2413 17.1183 1.07204 17.6067 1.01562 17.7928C2.5389 17.2113 4.38939 16.9787 5.74341 16.8857C6.4994 16.2461 7.36823 15.339 7.74059 15.1297C8.02268 14.9552 8.2822 14.7343 8.42888 14.5598C6.81534 14.9552 2.95639 16.153 1.53467 16.6066Z" fill="white"/>
</g>
<path d="M75.8478 7.31473C75.6673 7.33799 73.0495 7.81479 72.9592 7.84968C72.869 7.88456 72.3838 8.61721 72.3838 8.75676C72.3838 8.89631 75.8253 10.0709 76.0396 10.1755C76.2427 10.2686 77.0213 11.5827 77.089 11.6641C77.1454 11.7339 78.4205 11.8502 78.4994 11.8385C78.5784 11.8385 77.9691 9.57081 77.8224 9.16379C77.6645 8.75676 76.0171 7.29147 75.8478 7.31473Z" fill="#D12E34"/>
<g style="mix-blend-mode:overlay" opacity="0.3">
<path d="M75.2043 9.6175C74.4935 9.36166 73.1056 8.87323 72.6655 8.6639C72.7671 8.47783 72.9702 8.16384 73.0604 8.05918C73.3877 7.9894 75.5541 7.43119 75.9152 7.37305C76.2424 7.54749 77.6415 8.84997 77.7431 9.12907C77.8785 9.48958 75.7798 9.82683 75.2043 9.6175Z" fill="white"/>
</g>
<g style="mix-blend-mode:overlay" opacity="0.2">
<path d="M42.2795 10.9665C42.2907 11.2689 41.6589 11.6643 40.8577 11.7108C40.0566 11.7457 39.3796 11.42 39.3683 11.1293C39.357 10.8269 40.0002 10.7804 40.8126 10.7455C41.6137 10.699 42.2682 10.6758 42.2795 10.9665Z" fill="#0C2453"/>
</g>
<path d="M42.5613 10.9547C42.5613 11.0826 42.3131 11.2105 41.7602 11.3036C41.5909 11.3385 41.5458 11.1989 41.1622 11.2338C40.8124 11.2803 40.7785 11.4199 40.5641 11.4315C39.165 11.5013 39.0973 11.3501 39.086 11.1408C39.0747 10.9431 39.1311 10.7686 40.519 10.6989C41.9182 10.6174 42.55 10.7454 42.5613 10.9547Z" fill="#0C2453"/>
<g style="mix-blend-mode:overlay" opacity="0.2">
<path d="M60.6715 10.6873C60.6828 10.978 60.0509 11.3734 59.2498 11.4199C58.4487 11.4664 57.7717 11.1408 57.7604 10.8384C57.7491 10.5477 58.3923 10.5012 59.2047 10.4547C60.0058 10.4082 60.6603 10.3965 60.6715 10.6873Z" fill="#0C2453"/>
</g>
<path d="M60.9534 10.6758C60.9534 10.8037 60.7052 10.9316 60.1523 11.0247C59.983 11.0479 59.9379 10.92 59.5543 10.9549C59.2045 10.9898 59.1706 11.1293 58.9562 11.141C57.5571 11.2224 57.4894 11.0596 57.4781 10.8619C57.4668 10.6525 57.5232 10.4897 58.9111 10.4083C60.3102 10.3385 60.9421 10.4665 60.9534 10.6758Z" fill="#0C2453"/>
<path d="M23.9437 9.55925C23.9437 9.67555 23.2667 9.75695 22.7589 9.74532C22.2399 9.74532 22.1045 9.64066 22.1045 9.52437C22.1158 9.40807 22.522 9.31504 23.0297 9.32667C23.5375 9.32667 23.955 9.43133 23.9437 9.55925Z" fill="#333333"/>
<path d="M24.9593 9.44307C24.3049 9.4547 22.5334 9.61751 22.1159 9.55936C21.2019 9.41981 21.7661 8.57087 22.6913 7.94289C23.5038 7.37305 24.1356 7.10558 24.3162 7.12884C24.508 7.14047 25.2527 9.43144 24.9593 9.44307Z" fill="#C4DCFF"/>
<path d="M2.41452 22.9679C2.60634 23.6424 2.48222 24.2704 2.12115 24.3867C1.76008 24.4914 1.30874 24.0495 1.10564 23.375C0.913819 22.7005 1.04922 22.0725 1.41029 21.9562C1.77136 21.8399 2.2227 22.2934 2.41452 22.9679Z" fill="#ADD0FF"/>
<path d="M75.2046 6.74496C73.1848 5.00056 70.3865 2.91891 68.3442 1.93042C68.096 2.05834 67.938 2.33745 67.938 2.46537C67.938 2.59329 72.2483 6.53563 72.5078 6.74496C72.7673 6.95428 75.2046 6.74496 75.2046 6.74496Z" fill="#0C2453"/>
</g>
<defs>
<clipPath id="clip0_813_2357">
<rect width="80" height="29.5385" fill="white"/>
</clipPath>
</defs>
</svg>
