<svg width="73" height="32" viewBox="0 0 73 32" fill="none" xmlns="http://www.w3.org/2000/svg">
<g clip-path="url(#clip0_813_2032)">
<path d="M22.9912 27.2905C22.9912 27.2905 66.4839 27.2905 66.9925 27.2905C67.4905 27.2905 70.563 26.4506 70.563 26.4506V17.3184H22.9912V27.2905Z" fill="#13171A"/>
<path d="M28.9031 19.4233C28.2568 19.6785 27.6635 20.1144 27.1655 20.7097C28.829 20.8905 30.1427 22.8998 30.1427 25.3449C30.1427 27.8007 28.829 29.8101 27.1655 29.9908C27.6635 30.5755 28.2568 31.022 28.9031 31.2665C30.4182 30.2034 32.1134 27.9496 32.1134 25.3449C32.1134 22.7403 30.4182 20.4971 28.9031 19.4233Z" fill="#ABCDF7"/>
<path d="M30.1321 25.1748C30.7361 26.2061 31.0963 27.4287 31.0963 28.7363C31.0892 28.7788 31.0857 28.8213 31.0857 28.8639C31.7002 27.8539 32.1134 26.6419 32.1134 25.3449C32.1134 22.7403 30.4182 20.4971 28.9031 19.4233C28.2568 19.6785 27.6635 20.1144 27.1655 20.7097C28.7866 20.8798 30.0792 22.8041 30.1321 25.1748Z" fill="#0C2453"/>
<path d="M24.496 25.3449C24.496 22.6658 26.7951 19.7954 28.3844 18.7642C28.3844 18.7642 26.0111 18.7642 25.3542 18.7642C22.8432 18.7642 20.7983 21.709 20.7983 25.3449C20.7983 28.9808 22.8432 31.9256 25.3542 31.9256C26.0111 31.9256 28.3844 31.9256 28.3844 31.9256C26.7951 30.905 24.496 28.0346 24.496 25.3449Z" fill="#333333"/>
<path fill-rule="evenodd" clip-rule="evenodd" d="M30.1643 25.3449C30.1643 27.5668 28.9247 29.3741 27.3778 29.3741C25.8415 29.3741 24.5913 27.5668 24.5913 25.3449C24.5913 23.123 25.8415 21.3157 27.3778 21.3157C28.9247 21.3157 30.1643 23.123 30.1643 25.3449ZM28.9989 25.3449C28.9989 24.0585 28.2784 23.006 27.3778 23.006C26.4878 23.006 25.7674 24.0585 25.7674 25.3449C25.7674 26.6419 26.4878 27.6838 27.3778 27.6838C28.2784 27.6838 28.9989 26.6419 28.9989 25.3449Z" fill="#0C2453"/>
<path d="M29.3799 25.3448C29.3799 25.7382 29.3269 26.1103 29.2316 26.4505C29.168 26.6631 29.2316 26.9289 29.3799 27.0246L29.8673 27.3754C30.0262 27.4923 30.2169 27.386 30.2911 27.1521C30.4606 26.5993 30.5454 25.9827 30.5454 25.3448C30.5454 24.7069 30.4606 24.101 30.2911 23.5481C30.2169 23.3143 30.0262 23.2079 29.8673 23.3143L29.3799 23.6651C29.2316 23.7714 29.168 24.0265 29.2316 24.2498C29.3269 24.59 29.3799 24.9621 29.3799 25.3448Z" fill="#8C2418"/>
<path d="M27.897 25.2705L26.8269 25.2386C26.2441 25.228 25.4919 25.0366 24.729 24.707C24.7149 24.8913 24.7043 25.0756 24.6973 25.2599C25.5025 25.5894 26.2336 25.7595 26.8163 25.7808C26.3395 26.2911 25.7992 27.0884 25.28 28.0559C25.3506 28.2118 25.4283 28.3571 25.5131 28.4917C26.0216 27.5562 26.562 26.727 27.0388 26.206L27.897 25.2705Z" fill="#C4DEFF"/>
<path d="M28.3629 26.8546L28.0133 25.3875L27.6531 26.8546C27.4624 27.6838 27.0809 28.6938 26.6147 29.6825C26.7278 29.7604 26.8443 29.8313 26.9644 29.8951C27.4518 28.8532 27.812 27.8539 28.0133 27.0353C28.204 27.8539 28.5642 28.8532 29.0516 29.8951C29.1788 29.8313 29.2988 29.7604 29.4118 29.6825C28.9351 28.6938 28.5642 27.6838 28.3629 26.8546Z" fill="#C4DEFF"/>
<path d="M31.2871 24.707C30.5242 25.0366 29.7826 25.228 29.1998 25.2386L28.1191 25.2705L28.9773 26.206C29.4541 26.727 30.0051 27.5562 30.503 28.4917C30.5878 28.3571 30.6655 28.2118 30.7361 28.0559C30.217 27.0884 29.6766 26.2911 29.2104 25.7808C29.7826 25.7595 30.5242 25.5894 31.3189 25.2599C31.3189 25.0756 31.3083 24.8913 31.2871 24.707Z" fill="#C4DEFF"/>
<path d="M27.293 23.7714C26.8268 23.293 26.1699 22.8146 25.4071 22.4C25.3223 22.5418 25.2481 22.6941 25.1846 22.8572C25.9262 23.2505 26.6043 23.7289 27.0705 24.2073L27.9711 25.1216L27.6532 23.612C27.4837 22.8253 27.3777 21.7728 27.346 20.6565C27.2188 20.6919 27.0952 20.7415 26.9751 20.8053C27.0175 21.9535 27.1235 22.9954 27.293 23.7714Z" fill="#C4DEFF"/>
<path d="M28.7658 23.7288C28.9247 22.9633 29.0413 21.9427 29.073 20.8158C28.953 20.7591 28.8294 20.7095 28.7022 20.667C28.681 21.7726 28.5751 22.7826 28.4161 23.5693L28.1089 25.0471L28.9777 24.1753C29.4545 23.6969 30.1114 23.2398 30.8424 22.857C30.7718 22.694 30.6976 22.5416 30.6199 22.3999C29.8783 22.7932 29.232 23.261 28.7658 23.7288Z" fill="#C4DEFF"/>
<path d="M29.2316 25.3449C29.2316 26.3229 28.6913 27.1203 28.0132 27.1203C27.3351 27.1203 26.7842 26.3229 26.7842 25.3449C26.7842 24.3668 27.3351 23.5801 28.0132 23.5801C28.6913 23.5801 29.2316 24.3668 29.2316 25.3449Z" fill="#C4DEFF"/>
<path d="M28.7866 25.3448C28.7866 25.9614 28.437 26.4717 28.0132 26.4717C27.5788 26.4717 27.2397 25.9614 27.2397 25.3448C27.2397 24.7282 27.5788 24.2285 28.0132 24.2285C28.437 24.2285 28.7866 24.7282 28.7866 25.3448Z" fill="#A6CDFF"/>
<path fill-rule="evenodd" clip-rule="evenodd" d="M32.94 25.3449C32.94 28.9808 30.9058 31.9256 28.3841 31.9256C25.8731 31.9256 23.8389 28.9808 23.8389 25.3449C23.8389 21.709 25.8731 18.7642 28.3841 18.7642C30.9058 18.7642 32.94 21.709 32.94 25.3449ZM31.7746 25.3449C31.7746 22.6446 30.2595 20.4545 28.3841 20.4545C26.5194 20.4545 25.0043 22.6446 25.0043 25.3449C25.0043 28.0559 26.5194 30.2459 28.3841 30.2459C30.2595 30.2459 31.7746 28.0559 31.7746 25.3449Z" fill="#333333"/>
<path fill-rule="evenodd" clip-rule="evenodd" d="M28.3844 31.5003C26.0429 31.5003 24.1357 28.7362 24.1357 25.3448C24.1357 21.9534 26.0429 19.2 28.3844 19.2C30.7365 19.2 32.6436 21.9534 32.6436 25.3448C32.6436 28.7362 30.7365 31.5003 28.3844 31.5003ZM28.3844 20.1461C26.4031 20.1461 24.7926 22.485 24.7926 25.3448C24.7926 28.2152 26.4031 30.5435 28.3844 30.5435C30.3762 30.5435 31.9867 28.2152 31.9867 25.3448C31.9867 22.485 30.3762 20.1461 28.3844 20.1461Z" fill="#0C2453"/>
<path fill-rule="evenodd" clip-rule="evenodd" d="M31.8063 25.3449C31.8063 28.0771 30.2806 30.299 28.3841 30.299C26.4982 30.299 24.9619 28.0771 24.9619 25.3449C24.9619 22.6127 26.4982 20.4014 28.3841 20.4014C30.2806 20.4014 31.8063 22.6127 31.8063 25.3449ZM31.605 25.3449C31.605 22.7721 30.1641 20.6884 28.3841 20.6884C26.6041 20.6884 25.1632 22.7721 25.1632 25.3449C25.1632 27.9176 26.6041 30.0014 28.3841 30.0014C30.1641 30.0014 31.605 27.9176 31.605 25.3449Z" fill="#D9EAFF"/>
<path d="M65.6575 19.4233C65.0112 19.6785 64.4179 20.1144 63.9199 20.7097C65.5833 20.8905 66.8971 22.8998 66.8971 25.3449C66.8971 27.8007 65.5833 29.8101 63.9199 29.9908C64.4179 30.5755 65.0112 31.022 65.6575 31.2665C67.1726 30.2034 68.8678 27.9496 68.8678 25.3449C68.8678 22.7403 67.1726 20.4971 65.6575 19.4233Z" fill="#ABCDF7"/>
<path d="M66.8865 25.1748C67.4905 26.2061 67.8401 27.4287 67.8401 28.7363C67.8401 28.7788 67.8401 28.8213 67.8401 28.8639C68.4546 27.8539 68.8678 26.6419 68.8678 25.3449C68.8678 22.7403 67.1726 20.4971 65.6575 19.4233C65.0112 19.6785 64.4179 20.1144 63.9199 20.7097C65.541 20.8798 66.8336 22.8041 66.8865 25.1748Z" fill="#0C2453"/>
<path d="M61.2499 25.3449C61.2499 22.6658 63.549 19.7954 65.1383 18.7642C65.1383 18.7642 62.765 18.7642 62.1081 18.7642C59.5971 18.7642 57.5522 21.709 57.5522 25.3449C57.5522 28.9808 59.5971 31.9256 62.1081 31.9256C62.765 31.9256 65.1383 31.9256 65.1383 31.9256C63.549 30.905 61.2499 28.0346 61.2499 25.3449Z" fill="#333333"/>
<path fill-rule="evenodd" clip-rule="evenodd" d="M66.9182 25.3449C66.9182 27.5668 65.6786 29.3741 64.1317 29.3741C62.5954 29.3741 61.3452 27.5668 61.3452 25.3449C61.3452 23.123 62.5954 21.3157 64.1317 21.3157C65.6786 21.3157 66.9182 23.123 66.9182 25.3449ZM65.7528 25.3449C65.7528 24.0585 65.0323 23.006 64.1317 23.006C63.2417 23.006 62.5107 24.0585 62.5107 25.3449C62.5107 26.6419 63.2417 27.6838 64.1317 27.6838C65.0323 27.6838 65.7528 26.6419 65.7528 25.3449Z" fill="#0C2453"/>
<path d="M66.1343 25.3448C66.1343 25.7382 66.0813 26.1103 65.986 26.4505C65.9224 26.6631 65.986 26.9289 66.1343 27.0246L66.6217 27.3754C66.7806 27.4923 66.9713 27.386 67.0455 27.1521C67.215 26.5993 67.2998 25.9827 67.2998 25.3448C67.2998 24.7069 67.215 24.101 67.0455 23.5481C66.9713 23.3143 66.7806 23.2079 66.6217 23.3143L66.1343 23.6651C65.986 23.7714 65.9224 24.0265 65.986 24.2498C66.0813 24.59 66.1343 24.9621 66.1343 25.3448Z" fill="#8C2418"/>
<path d="M64.6509 25.2705L63.5702 25.2386C62.9981 25.228 62.2458 25.0366 61.483 24.707C61.4688 24.8913 61.4582 25.0756 61.4512 25.2599C62.2458 25.5894 62.9875 25.7595 63.5702 25.7808C63.0934 26.2911 62.5531 27.0884 62.0339 28.0559C62.1045 28.2118 62.1822 28.3571 62.267 28.4917C62.7756 27.5562 63.3159 26.727 63.7927 26.206L64.6509 25.2705Z" fill="#C4DEFF"/>
<path d="M65.1173 26.8546L64.7677 25.3875L64.4075 26.8546C64.2168 27.6838 63.8353 28.6938 63.3691 29.6825C63.4822 29.7604 63.5987 29.8313 63.7188 29.8951C64.2062 28.8532 64.5664 27.8539 64.7677 27.0353C64.9584 27.8539 65.3186 28.8532 65.806 29.8951C65.9331 29.8313 66.0532 29.7604 66.1662 29.6825C65.6895 28.6938 65.3186 27.6838 65.1173 26.8546Z" fill="#C4DEFF"/>
<path d="M68.0415 24.707C67.2786 25.0366 66.537 25.228 65.9542 25.2386L64.8735 25.2705L65.7317 26.206C66.2085 26.727 66.7595 27.5562 67.2574 28.4917C67.3422 28.3571 67.4199 28.2118 67.4905 28.0559C66.9714 27.0884 66.431 26.2911 65.9648 25.7808C66.537 25.7595 67.2786 25.5894 68.0732 25.2599C68.0732 25.0756 68.0627 24.8913 68.0415 24.707Z" fill="#C4DEFF"/>
<path d="M64.0474 23.7714C63.5812 23.293 62.9243 22.8146 62.1615 22.4C62.0767 22.5418 62.0025 22.6941 61.939 22.8572C62.6806 23.2505 63.3587 23.7289 63.8249 24.2073L64.7255 25.1216L64.397 23.612C64.2381 22.8253 64.1321 21.7728 64.1004 20.6565C63.9732 20.6919 63.8496 20.7415 63.7295 20.8053C63.7719 21.9535 63.8779 22.9954 64.0474 23.7714Z" fill="#C4DEFF"/>
<path d="M65.5197 23.7288C65.6786 22.9633 65.7952 21.9427 65.8269 20.8158C65.7069 20.7591 65.5833 20.7095 65.4561 20.667C65.4243 21.7726 65.329 22.7826 65.17 23.5693L64.8628 25.0471L65.7316 24.1753C66.2084 23.6969 66.8653 23.2398 67.5963 22.857C67.5257 22.694 67.4515 22.5416 67.3738 22.3999C66.6322 22.7932 65.9859 23.261 65.5197 23.7288Z" fill="#C4DEFF"/>
<path d="M65.986 25.3449C65.986 26.3229 65.4457 27.1203 64.7676 27.1203C64.0895 27.1203 63.5386 26.3229 63.5386 25.3449C63.5386 24.3668 64.0895 23.5801 64.7676 23.5801C65.4457 23.5801 65.986 24.3668 65.986 25.3449Z" fill="#C4DEFF"/>
<path d="M65.541 25.3448C65.541 25.9614 65.1914 26.4717 64.7676 26.4717C64.3332 26.4717 63.9941 25.9614 63.9941 25.3448C63.9941 24.7282 64.3332 24.2285 64.7676 24.2285C65.1914 24.2285 65.541 24.7282 65.541 25.3448Z" fill="#A6CDFF"/>
<path fill-rule="evenodd" clip-rule="evenodd" d="M69.6944 25.3449C69.6944 28.9808 67.6602 31.9256 65.1385 31.9256C62.6275 31.9256 60.5933 28.9808 60.5933 25.3449C60.5933 21.709 62.6275 18.7642 65.1385 18.7642C67.6602 18.7642 69.6944 21.709 69.6944 25.3449ZM68.529 25.3449C68.529 22.6446 67.0139 20.4545 65.1385 20.4545C63.2738 20.4545 61.7587 22.6446 61.7587 25.3449C61.7587 28.0559 63.2738 30.2459 65.1385 30.2459C67.0139 30.2459 68.529 28.0559 68.529 25.3449Z" fill="#333333"/>
<path fill-rule="evenodd" clip-rule="evenodd" d="M65.1383 31.5003C62.7968 31.5003 60.8896 28.7362 60.8896 25.3448C60.8896 21.9534 62.7968 19.2 65.1383 19.2C67.4904 19.2 69.3975 21.9534 69.3975 25.3448C69.3975 28.7362 67.4904 31.5003 65.1383 31.5003ZM65.1383 20.1461C63.157 20.1461 61.5465 22.485 61.5465 25.3448C61.5465 28.2152 63.157 30.5435 65.1383 30.5435C67.1195 30.5435 68.7406 28.2152 68.7406 25.3448C68.7406 22.485 67.1195 20.1461 65.1383 20.1461Z" fill="#0C2453"/>
<path fill-rule="evenodd" clip-rule="evenodd" d="M68.5607 25.3449C68.5607 28.0771 67.035 30.299 65.1385 30.299C63.2526 30.299 61.7163 28.0771 61.7163 25.3449C61.7163 22.6127 63.2526 20.4014 65.1385 20.4014C67.035 20.4014 68.5607 22.6127 68.5607 25.3449ZM68.3594 25.3449C68.3594 22.7721 66.9185 20.6884 65.1385 20.6884C63.3585 20.6884 61.9176 22.7721 61.9176 25.3449C61.9176 27.9176 63.3585 30.0014 65.1385 30.0014C66.9185 30.0014 68.3594 27.9176 68.3594 25.3449Z" fill="#D9EAFF"/>
<path d="M12.2799 19.4233C11.623 19.6785 11.0297 20.1144 10.5317 20.7097C12.1952 20.8905 13.509 22.8998 13.509 25.3449C13.509 27.8007 12.1952 29.8101 10.5317 29.9908C11.0297 30.5755 11.623 31.022 12.2799 31.2665C13.795 30.2034 15.4902 27.9496 15.4902 25.3449C15.4902 22.7403 13.795 20.4971 12.2799 19.4233Z" fill="#ABCDF7"/>
<path d="M13.509 25.1748C14.1129 26.2061 14.4625 27.4287 14.4625 28.7363C14.4625 28.7788 14.4625 28.8213 14.4625 28.8639C15.0664 27.8539 15.4902 26.6419 15.4902 25.3449C15.4902 22.7403 13.795 20.4971 12.2799 19.4233C11.623 19.6785 11.0297 20.1144 10.5317 20.7097C12.1634 20.8798 13.4454 22.8041 13.509 25.1748Z" fill="#0C2453"/>
<path d="M7.87199 25.3449C7.87199 22.6658 10.1711 19.7954 11.7604 18.7642C11.7604 18.7642 9.38709 18.7642 8.73019 18.7642C6.20857 18.7642 4.17432 21.709 4.17432 25.3449C4.17432 28.9808 6.20857 31.9256 8.73019 31.9256C9.38709 31.9256 11.7604 31.9256 11.7604 31.9256C10.1711 30.905 7.87199 28.0346 7.87199 25.3449Z" fill="#333333"/>
<path fill-rule="evenodd" clip-rule="evenodd" d="M13.5403 25.3449C13.5403 27.5668 12.2901 29.3741 10.7538 29.3741C9.2175 29.3741 7.96729 27.5668 7.96729 25.3449C7.96729 23.123 9.2175 21.3157 10.7538 21.3157C12.2901 21.3157 13.5403 23.123 13.5403 25.3449ZM12.3748 25.3449C12.3748 24.0585 11.6438 23.006 10.7538 23.006C9.8638 23.006 9.13274 24.0585 9.13274 25.3449C9.13274 26.6419 9.8638 27.6838 10.7538 27.6838C11.6438 27.6838 12.3748 26.6419 12.3748 25.3449Z" fill="#0C2453"/>
<path d="M12.7563 25.3448C12.7563 25.7382 12.7033 26.1103 12.608 26.4505C12.5338 26.6631 12.5974 26.9289 12.7563 27.0246L13.2437 27.3754C13.4026 27.4923 13.5933 27.386 13.6675 27.1521C13.8264 26.5993 13.9218 25.9827 13.9218 25.3448C13.9218 24.7069 13.8264 24.101 13.6675 23.5481C13.5933 23.3143 13.4026 23.2079 13.2437 23.3143L12.7563 23.6651C12.5974 23.7714 12.5338 24.0265 12.608 24.2498C12.7033 24.59 12.7563 24.9621 12.7563 25.3448Z" fill="#8C2418"/>
<path d="M11.273 25.2705L10.1923 25.2386C9.60953 25.228 8.86787 25.0366 8.10503 24.707C8.08384 24.8913 8.07324 25.0756 8.07324 25.2599C8.86787 25.5894 9.60953 25.7595 10.1817 25.7808C9.71548 26.2911 9.17513 27.0884 8.65597 28.0559C8.7266 28.2118 8.8043 28.3571 8.88906 28.4917C9.38703 27.5562 9.93797 26.727 10.4148 26.206L11.273 25.2705Z" fill="#C4DEFF"/>
<path d="M11.7393 26.8546L11.379 25.3875L11.0294 26.8546C10.8281 27.6838 10.4572 28.6938 9.98047 29.6825C10.1005 29.7604 10.2206 29.8313 10.3407 29.8951C10.8281 28.8532 11.1883 27.8539 11.379 27.0353C11.5803 27.8539 11.9406 28.8532 12.4279 29.8951C12.548 29.8313 12.6681 29.7604 12.7882 29.6825C12.3114 28.6938 11.93 27.6838 11.7393 26.8546Z" fill="#C4DEFF"/>
<path d="M14.6635 24.707C13.9007 25.0366 13.1484 25.228 12.5763 25.2386L11.4956 25.2705L12.3538 26.206C12.8306 26.727 13.3709 27.5562 13.8795 28.4917C13.9643 28.3571 14.042 28.2118 14.1126 28.0559C13.5934 27.0884 13.0531 26.2911 12.5763 25.7808C13.159 25.7595 13.9007 25.5894 14.6953 25.2599C14.6883 25.0756 14.6777 24.8913 14.6635 24.707Z" fill="#C4DEFF"/>
<path d="M10.6587 23.7714C10.2031 23.293 9.54623 22.8146 8.77279 22.4C8.69509 22.5418 8.62093 22.6941 8.55029 22.8572C9.30254 23.2505 9.98063 23.7289 10.4468 24.2073L11.3368 25.1216L11.0189 23.612C10.8494 22.8253 10.7541 21.7728 10.7223 20.6565C10.5951 20.6919 10.4715 20.7415 10.3515 20.8053C10.3832 21.9535 10.4998 22.9954 10.6587 23.7714Z" fill="#C4DEFF"/>
<path d="M12.1421 23.7288C12.301 22.9633 12.407 21.9427 12.4494 20.8158C12.3293 20.7591 12.2057 20.7095 12.0785 20.667C12.0467 21.7726 11.9514 22.7826 11.7819 23.5693L11.4746 25.0471L12.354 24.1753C12.8308 23.6969 13.4771 23.2398 14.2081 22.857C14.1446 22.694 14.0704 22.5416 13.9856 22.3999C13.244 22.7932 12.6083 23.261 12.1421 23.7288Z" fill="#C4DEFF"/>
<path d="M12.6081 25.3449C12.6081 26.3229 12.0572 27.1203 11.3791 27.1203C10.7116 27.1203 10.1606 26.3229 10.1606 25.3449C10.1606 24.3668 10.7116 23.5801 11.3791 23.5801C12.0572 23.5801 12.6081 24.3668 12.6081 25.3449Z" fill="#C4DEFF"/>
<path d="M12.1629 25.3448C12.1629 25.9614 11.8133 26.4717 11.3789 26.4717C10.9551 26.4717 10.6055 25.9614 10.6055 25.3448C10.6055 24.7282 10.9551 24.2285 11.3789 24.2285C11.8133 24.2285 12.1629 24.7282 12.1629 25.3448Z" fill="#A6CDFF"/>
<path fill-rule="evenodd" clip-rule="evenodd" d="M16.3163 25.3449C16.3163 28.9808 14.2715 31.9256 11.7605 31.9256C9.24944 31.9256 7.20459 28.9808 7.20459 25.3449C7.20459 21.709 9.24944 18.7642 11.7605 18.7642C14.2715 18.7642 16.3163 21.709 16.3163 25.3449ZM15.1509 25.3449C15.1509 22.6446 13.6358 20.4545 11.7605 20.4545C9.88514 20.4545 8.37005 22.6446 8.37005 25.3449C8.37005 28.0559 9.88514 30.2459 11.7605 30.2459C13.6358 30.2459 15.1509 28.0559 15.1509 25.3449Z" fill="#333333"/>
<path fill-rule="evenodd" clip-rule="evenodd" d="M11.7607 31.5003C9.41917 31.5003 7.50146 28.7362 7.50146 25.3448C7.50146 21.9534 9.41917 19.2 11.7607 19.2C14.1022 19.2 16.0199 21.9534 16.0199 25.3448C16.0199 28.7362 14.1022 31.5003 11.7607 31.5003ZM11.7607 20.1461C9.7794 20.1461 8.16895 22.485 8.16895 25.3448C8.16895 28.2152 9.7794 30.5435 11.7607 30.5435C13.742 30.5435 15.3524 28.2152 15.3524 25.3448C15.3524 22.485 13.742 20.1461 11.7607 20.1461Z" fill="#0C2453"/>
<path fill-rule="evenodd" clip-rule="evenodd" d="M15.1828 25.3449C15.1828 28.0771 13.6465 30.299 11.7606 30.299C9.87466 30.299 8.33838 28.0771 8.33838 25.3449C8.33838 22.6127 9.87466 20.4014 11.7606 20.4014C13.6465 20.4014 15.1828 22.6127 15.1828 25.3449ZM14.9815 25.3449C14.9815 22.7721 13.5406 20.6884 11.7606 20.6884C9.98061 20.6884 8.53969 22.7721 8.53969 25.3449C8.53969 27.9176 9.98061 30.0014 11.7606 30.0014C13.5406 30.0014 14.9815 27.9176 14.9815 25.3449Z" fill="#D9EAFF"/>
<path d="M49.0338 19.4233C48.3769 19.6785 47.7836 20.1144 47.2856 20.7097C48.9491 20.8905 50.2629 22.8998 50.2629 25.3449C50.2629 27.8007 48.9491 29.8101 47.2856 29.9908C47.7836 30.5755 48.3769 31.022 49.0338 31.2665C50.5489 30.2034 52.2441 27.9496 52.2441 25.3449C52.2441 22.7403 50.5489 20.4971 49.0338 19.4233Z" fill="#ABCDF7"/>
<path d="M50.2629 25.1748C50.8668 26.2061 51.2164 27.4287 51.2164 28.7363C51.2164 28.7788 51.2164 28.8213 51.2164 28.8639C51.8203 27.8539 52.2441 26.6419 52.2441 25.3449C52.2441 22.7403 50.5489 20.4971 49.0338 19.4233C48.3769 19.6785 47.7836 20.1144 47.2856 20.7097C48.9173 20.8798 50.1993 22.8041 50.2629 25.1748Z" fill="#0C2453"/>
<path d="M44.6264 25.3449C44.6264 22.6658 46.9255 19.7954 48.5148 18.7642C48.5148 18.7642 46.1415 18.7642 45.4846 18.7642C42.963 18.7642 40.9287 21.709 40.9287 25.3449C40.9287 28.9808 42.963 31.9256 45.4846 31.9256C46.1415 31.9256 48.5148 31.9256 48.5148 31.9256C46.9255 30.905 44.6264 28.0346 44.6264 25.3449Z" fill="#333333"/>
<path fill-rule="evenodd" clip-rule="evenodd" d="M50.2947 25.3449C50.2947 27.5668 49.0445 29.3741 47.5082 29.3741C45.9719 29.3741 44.7217 27.5668 44.7217 25.3449C44.7217 23.123 45.9719 21.3157 47.5082 21.3157C49.0445 21.3157 50.2947 23.123 50.2947 25.3449ZM49.1292 25.3449C49.1292 24.0585 48.3982 23.006 47.5082 23.006C46.6076 23.006 45.8871 24.0585 45.8871 25.3449C45.8871 26.6419 46.6076 27.6838 47.5082 27.6838C48.3982 27.6838 49.1292 26.6419 49.1292 25.3449Z" fill="#0C2453"/>
<path d="M49.5106 25.3448C49.5106 25.7382 49.4576 26.1103 49.3517 26.4505C49.2881 26.6631 49.3517 26.9289 49.5 27.0246L49.998 27.3754C50.1569 27.4923 50.3476 27.386 50.4218 27.1521C50.5807 26.5993 50.6761 25.9827 50.6761 25.3448C50.6761 24.7069 50.5807 24.101 50.4218 23.5481C50.3476 23.3143 50.1569 23.2079 49.998 23.3143L49.5 23.6651C49.3517 23.7714 49.2881 24.0265 49.3517 24.2498C49.4576 24.59 49.5106 24.9621 49.5106 25.3448Z" fill="#8C2418"/>
<path d="M48.0273 25.2705L46.9466 25.2386C46.3639 25.228 45.6223 25.0366 44.8594 24.707C44.8382 24.8913 44.8276 25.0756 44.8276 25.2599C45.6223 25.5894 46.3639 25.7595 46.9361 25.7808C46.4699 26.2911 45.9295 27.0884 45.4104 28.0559C45.481 28.2118 45.5587 28.3571 45.6435 28.4917C46.1414 27.5562 46.6924 26.727 47.1691 26.206L48.0273 25.2705Z" fill="#C4DEFF"/>
<path d="M48.4936 26.8546L48.1334 25.3875L47.7838 26.8546C47.5825 27.6838 47.2116 28.6938 46.7349 29.6825C46.8479 29.7604 46.968 29.8313 47.0951 29.8951C47.5825 28.8532 47.9427 27.8539 48.1334 27.0353C48.3347 27.8539 48.695 28.8532 49.1823 29.8951C49.3024 29.8313 49.4225 29.7604 49.5426 29.6825C49.0658 28.6938 48.6844 27.6838 48.4936 26.8546Z" fill="#C4DEFF"/>
<path d="M51.4179 24.707C50.6551 25.0366 49.9028 25.228 49.3307 25.2386L48.25 25.2705L49.1082 26.206C49.585 26.727 50.1253 27.5562 50.6339 28.4917C50.7187 28.3571 50.7963 28.2118 50.867 28.0559C50.3478 27.0884 49.8075 26.2911 49.3307 25.7808C49.9134 25.7595 50.6551 25.5894 51.4497 25.2599C51.4426 25.0756 51.4321 24.8913 51.4179 24.707Z" fill="#C4DEFF"/>
<path d="M47.4131 23.7714C46.9575 23.293 46.3006 22.8146 45.5272 22.4C45.4495 22.5418 45.3753 22.6941 45.3047 22.8572C46.0569 23.2505 46.735 23.7289 47.2012 24.2073L48.0912 25.1216L47.7733 23.612C47.6038 22.8253 47.4979 21.7728 47.4767 20.6565C47.3495 20.6919 47.2259 20.7415 47.1058 20.8053C47.1376 21.9535 47.2542 22.9954 47.4131 23.7714Z" fill="#C4DEFF"/>
<path d="M48.896 23.7288C49.0549 22.9633 49.1609 21.9427 49.2033 20.8158C49.0832 20.7591 48.9596 20.7095 48.8324 20.667C48.8006 21.7726 48.7053 22.7826 48.5358 23.5693L48.2285 25.0471L49.1079 24.1753C49.5847 23.6969 50.231 23.2398 50.962 22.857C50.8985 22.694 50.8243 22.5416 50.7395 22.3999C49.9979 22.7932 49.3622 23.261 48.896 23.7288Z" fill="#C4DEFF"/>
<path d="M49.3625 25.3449C49.3625 26.3229 48.8116 27.1203 48.1335 27.1203C47.466 27.1203 46.915 26.3229 46.915 25.3449C46.915 24.3668 47.466 23.5801 48.1335 23.5801C48.8116 23.5801 49.3625 24.3668 49.3625 25.3449Z" fill="#C4DEFF"/>
<path d="M48.9067 25.3448C48.9067 25.9614 48.5677 26.4717 48.1333 26.4717C47.7095 26.4717 47.3599 25.9614 47.3599 25.3448C47.3599 24.7282 47.7095 24.2285 48.1333 24.2285C48.5677 24.2285 48.9067 24.7282 48.9067 25.3448Z" fill="#A6CDFF"/>
<path fill-rule="evenodd" clip-rule="evenodd" d="M53.0707 25.3449C53.0707 28.9808 51.0259 31.9256 48.5149 31.9256C46.0038 31.9256 43.959 28.9808 43.959 25.3449C43.959 21.709 46.0038 18.7642 48.5149 18.7642C51.0259 18.7642 53.0707 21.709 53.0707 25.3449ZM51.9053 25.3449C51.9053 22.6446 50.3902 20.4545 48.5149 20.4545C46.6395 20.4545 45.1244 22.6446 45.1244 25.3449C45.1244 28.0559 46.6395 30.2459 48.5149 30.2459C50.3902 30.2459 51.9053 28.0559 51.9053 25.3449Z" fill="#333333"/>
<path fill-rule="evenodd" clip-rule="evenodd" d="M48.5146 31.5003C46.1625 31.5003 44.2554 28.7362 44.2554 25.3448C44.2554 21.9534 46.1625 19.2 48.5146 19.2C50.8561 19.2 52.7738 21.9534 52.7738 25.3448C52.7738 28.7362 50.8561 31.5003 48.5146 31.5003ZM48.5146 20.1461C46.5333 20.1461 44.9229 22.485 44.9229 25.3448C44.9229 28.2152 46.5333 30.5435 48.5146 30.5435C50.4959 30.5435 52.1063 28.2152 52.1063 25.3448C52.1063 22.485 50.4959 20.1461 48.5146 20.1461Z" fill="#0C2453"/>
<path fill-rule="evenodd" clip-rule="evenodd" d="M51.9372 25.3449C51.9372 28.0771 50.4009 30.299 48.515 30.299C46.6185 30.299 45.0928 28.0771 45.0928 25.3449C45.0928 22.6127 46.6185 20.4014 48.515 20.4014C50.4009 20.4014 51.9372 22.6127 51.9372 25.3449ZM51.7359 25.3449C51.7359 22.7721 50.2949 20.6884 48.515 20.6884C46.735 20.6884 45.2941 22.7721 45.2941 25.3449C45.2941 27.9176 46.735 30.0014 48.515 30.0014C50.2949 30.0014 51.7359 27.9176 51.7359 25.3449Z" fill="#D9EAFF"/>
<path d="M54.5538 0.0742976H34.9C31.2659 0.0636664 27.5788 0.201872 25.6293 0.542072C21.1794 1.30752 13.6675 10.3653 13.6675 10.3653C13.6675 10.3653 7.97792 11.2477 5.6576 12.2896C3.33728 13.3208 1.59969 15.2451 1.25005 16.0105C0.900417 16.776 0.815656 19.3487 0.730896 19.5613C0.65673 19.7633 0.190547 20.4225 0.0845964 20.8477C-0.0213543 21.273 0.434234 25.7275 0.646135 26.376C0.815656 26.8756 1.7904 27.7368 2.12944 27.7368C2.27778 27.7368 15.6911 27.7368 23.2666 27.7368C23.2454 26.9182 21.1476 22.3148 23.8387 18.7746C28.0768 13.1932 54.5538 0.0742976 54.5538 0.0742976Z" fill="#E3EEFF"/>
<path d="M0.646324 26.376C0.815846 26.8757 1.79059 27.7368 2.12963 27.7368C2.27796 27.7368 15.6913 27.7368 23.2668 27.7368C23.2562 27.3966 22.8854 26.3866 22.6523 25.0684H0.423828C0.508589 25.6956 0.593349 26.1953 0.646324 26.376Z" fill="#0C2453"/>
<path d="M43.9164 0.98877H24.252C19.7914 2.98744 13.6675 10.3655 13.6675 10.3655H33.3319L43.9164 0.98877Z" fill="#3C5DA8"/>
<path fill-rule="evenodd" clip-rule="evenodd" d="M34.402 9.11095C34.4868 9.13222 34.5751 9.15702 34.6669 9.18537L33.3319 10.3654H13.6675C13.6675 10.3654 13.8688 10.1209 14.229 9.7063C18.0856 9.35547 28.2357 9.35547 28.5959 9.35547C28.7443 9.35547 29.1469 9.196 29.7508 9.04717C30.217 8.24982 31.0752 7.71826 32.0605 7.71826C33.067 7.71826 33.9464 8.28172 34.402 9.11095ZM33.8617 8.97275C33.4379 8.44119 32.7916 8.09035 32.0605 8.09035C31.3401 8.09035 30.7043 8.41992 30.2805 8.93022C31.2023 8.76012 32.4313 8.65381 33.8617 8.97275Z" fill="#355191"/>
<path d="M28.5217 2.27515H32.7174C32.8445 2.27515 32.8763 2.40272 32.781 2.51966L32.23 3.13628C32.177 3.18943 32.1029 3.22133 32.0393 3.22133H28.49C28.4264 3.22133 28.384 3.18943 28.3734 3.13628L28.2781 2.51966C28.2569 2.40272 28.3946 2.27515 28.5217 2.27515Z" fill="#355191"/>
<g style="mix-blend-mode:overlay" opacity="0.3">
<path d="M43.9164 0.98877H33.3955C28.1509 2.22199 23.0971 3.67847 18.5836 5.16684C15.8607 7.71834 13.6675 10.3655 13.6675 10.3655H18.912C24.7605 9.47249 30.6408 8.5901 36.2774 7.75023L43.9164 0.98877Z" fill="#BFDAFF"/>
</g>
<path d="M33.5439 24.9833C33.5439 25.1251 33.5439 25.2633 33.5439 25.398C33.5439 25.4405 33.5439 25.483 33.5439 25.5255C33.5439 25.6177 33.5439 25.7027 33.5439 25.7807C33.5439 25.8374 33.5439 25.8905 33.5439 25.9402C33.5369 26.0181 33.5333 26.0925 33.5333 26.1634C33.5333 26.2201 33.5333 26.2768 33.5333 26.3335C33.5333 26.4044 33.5333 26.4717 33.5333 26.5355C33.5333 26.5922 33.5333 26.6489 33.5333 26.7056C33.5333 26.7694 33.5298 26.8332 33.5227 26.897C33.5227 26.9537 33.5227 27.0068 33.5227 27.0564C33.5227 27.1202 33.5227 27.184 33.5227 27.2478C33.5227 27.3045 33.5192 27.3576 33.5121 27.4073C33.5121 27.471 33.5121 27.5313 33.5121 27.588C33.5121 27.6376 33.5121 27.6872 33.5121 27.7368C33.7029 27.7368 33.8971 27.7368 34.0949 27.7368C34.1161 26.8757 34.1267 25.9083 34.1267 24.8451C34.1267 20.178 31.5626 16.3933 28.3841 16.3933C25.2162 16.3933 22.6416 20.178 22.6416 24.8451C22.6416 25.9083 22.6522 26.8651 22.6734 27.7368C22.8641 27.7368 23.0548 27.7368 23.2667 27.7368C23.2667 27.6872 23.2667 27.6341 23.2667 27.5774C23.2596 27.5207 23.2561 27.464 23.2561 27.4073C23.2561 27.3506 23.2561 27.2974 23.2561 27.2478C23.2561 27.184 23.2526 27.1202 23.2455 27.0564C23.2455 26.9997 23.2455 26.9466 23.2455 26.897C23.2455 26.8332 23.2455 26.7694 23.2455 26.7056C23.2455 26.6489 23.2455 26.5922 23.2455 26.5355C23.2455 26.4646 23.242 26.3973 23.2349 26.3335C23.2349 26.2768 23.2349 26.2201 23.2349 26.1634C23.2349 26.0925 23.2349 26.0181 23.2349 25.9402C23.2349 25.8905 23.2349 25.8374 23.2349 25.7807C23.2349 25.6956 23.2349 25.6106 23.2349 25.5255C23.2349 25.483 23.2349 25.4369 23.2349 25.3873C23.2349 25.2598 23.2349 25.1251 23.2349 24.9833C23.2349 23.4418 23.5528 22.0066 24.1143 20.8265C24.4851 20.0292 24.9619 19.3488 25.5023 18.8066C26.3287 18.0093 27.3246 17.5415 28.3841 17.5415C29.4542 17.5415 30.4502 18.0093 31.266 18.8066C31.8169 19.3488 32.2937 20.0292 32.6645 20.8265C33.2155 22.0066 33.5439 23.4418 33.5439 24.9833Z" fill="#D4E5FF"/>
<path d="M72.9256 16.7654C72.8196 16.3296 72.0356 10.1422 71.7707 9.54683C71.5059 8.96211 67.2149 2.08371 64.5979 0.73354C63.2417 0.0318793 49.733 -0.22327 45.2831 0.542178C40.8437 1.30763 33.3318 10.3654 33.3318 10.3654C33.3318 10.3654 27.6317 11.2478 25.322 12.2897C23.0016 13.3209 21.2641 15.2452 20.9144 16.0106C20.5648 16.7761 20.48 19.3488 20.3953 19.5614C20.3211 19.7634 19.8443 20.4226 19.749 20.8478C19.643 21.2731 20.088 25.7276 20.3105 26.3761C20.48 26.8757 21.4442 27.7369 21.7938 27.7369C21.9421 27.7369 22.5672 27.7369 23.2665 27.7369C23.2453 26.9183 23.2347 26.004 23.2347 24.9834C23.2347 20.8691 25.5445 17.5415 28.3839 17.5415C31.234 17.5415 33.5437 20.8691 33.5437 24.9834C33.5437 26.0146 33.5331 26.9289 33.5119 27.7369C41.1086 27.7369 52.4347 27.7369 60.0102 27.7369C59.989 26.9183 59.9784 26.004 59.9784 24.9834C59.9784 20.8691 62.2881 17.5415 65.1382 17.5415C67.9883 17.5415 70.2874 20.8691 70.2874 24.9834C70.2874 25.6142 70.2839 26.206 70.2768 26.7588C71.3893 26.1634 72.4806 25.483 72.5971 25.3448C72.809 25.0684 73.0209 17.2013 72.9256 16.7654Z" fill="#C4DCFF"/>
<path d="M70.8811 24.8451C70.8811 20.178 68.317 16.3933 65.1385 16.3933C61.9706 16.3933 59.396 20.178 59.396 24.8451C59.396 25.9083 59.4066 26.8651 59.4278 27.7368C59.6256 27.7368 59.8198 27.7368 60.0105 27.7368C59.9893 26.9182 59.9787 26.0039 59.9787 24.9833C59.9787 20.8691 62.2885 17.5415 65.1385 17.5415C67.9886 17.5415 70.2983 20.8691 70.2983 24.9833C70.2983 25.6141 70.2948 26.2059 70.2877 26.7588C70.4855 26.6454 70.6797 26.5355 70.8705 26.4292C70.8775 25.926 70.8811 25.398 70.8811 24.8451Z" fill="#D4E5FF"/>
<path d="M23.2351 25.0684H20.0884C20.1731 25.6956 20.2473 26.1953 20.3109 26.376C20.4804 26.8757 21.4445 27.7368 21.7942 27.7368C21.9425 27.7368 22.5676 27.7368 23.2669 27.7368C23.2457 26.9395 23.2351 26.0571 23.2351 25.0684Z" fill="#333333"/>
<path d="M70.2875 25.0684C70.2875 25.6708 70.2839 26.2343 70.2769 26.7587C71.3893 26.1634 72.4806 25.483 72.5972 25.3448C72.6184 25.3129 72.6396 25.2172 72.6502 25.0684H70.2875Z" fill="#333333"/>
<path d="M59.9787 25.0684H33.544C33.544 26.0677 33.5334 26.9501 33.5122 27.7368C41.1089 27.7368 52.435 27.7368 60.0105 27.7368C59.9893 26.9395 59.9787 26.0571 59.9787 25.0684Z" fill="#333333"/>
<g style="mix-blend-mode:overlay" opacity="0.4">
<path d="M31.7006 14.99C32.2833 14.99 59.7139 14.99 60.9536 14.99C62.1932 14.99 59.4914 20.4013 58.9405 20.4013C58.379 20.4013 39.5092 20.4013 37.9941 20.4013C36.479 20.4013 29.126 14.99 31.7006 14.99Z" fill="#0C2453"/>
</g>
<g style="mix-blend-mode:overlay" opacity="0.2">
<path d="M22.896 14.8412C22.896 14.8412 25.0574 13.2784 27.8333 12.2153C30.5986 11.1522 34.8366 10.7694 34.8366 10.7694C34.8366 10.7694 61.854 9.802 62.8288 9.802C63.7929 9.802 71.0082 9.802 71.0082 9.802V12.1302C71.0082 12.1302 35.0591 12.4598 33.4805 12.5661C31.9124 12.6724 25.852 13.6505 22.896 14.8412Z" fill="white"/>
</g>
<path d="M62.0869 2.24328C61.5996 1.38215 60.8685 0.871849 60.0951 0.850586C58.6329 0.79743 56.1961 0.733643 54.5221 0.733643C50.6655 0.733643 47.5929 0.88248 46.0672 1.15889C42.1576 1.86055 35.5569 9.88713 34.8364 10.7695C34.8364 10.7695 62.6379 9.8446 62.8286 9.80208C63.0087 9.77019 64.6615 7.8353 64.7993 7.28248C64.8522 7.09112 63.1359 4.05059 62.0869 2.24328Z" fill="#333333"/>
<path d="M62.691 9.81269C63.0301 9.5788 64.4604 7.9097 64.5875 7.41003C64.6405 7.2293 62.9453 4.30571 61.9176 2.56219C61.4302 1.73296 60.7203 1.24392 59.9575 1.22266C58.5166 1.1695 56.1115 1.10571 54.4481 1.10571C50.655 1.10571 47.6142 1.25455 46.1203 1.52033C42.2849 2.1901 35.7901 9.87648 35.0591 10.7589C37.5383 10.6738 60.7521 9.89774 62.691 9.81269Z" fill="#0C2453"/>
<g style="mix-blend-mode:overlay" opacity="0.3">
<path d="M61.9176 2.56217C61.4302 1.73293 60.7203 1.2439 59.9575 1.22263C59.0569 1.19074 57.7749 1.15885 56.5353 1.12695C49.8074 2.42396 44.2132 4.08244 39.7951 5.70901C37.4324 7.93094 35.4405 10.2911 35.0591 10.7589C35.0873 10.7589 35.1227 10.7589 35.165 10.7589C44.3404 9.01533 57.1498 7.39938 64.2061 6.55951C63.6446 5.51765 62.6274 3.7635 61.9176 2.56217Z" fill="#BFDAFF"/>
</g>
<path d="M50.0513 10.2592C50.4821 10.245 50.9095 10.2309 51.3333 10.2167L51.7571 0.754883C51.4534 0.76197 51.1567 0.772602 50.8671 0.786777L50.0513 10.2592Z" fill="#333333"/>
<path d="M60.6145 0.935636C60.445 0.886023 60.2755 0.857673 60.106 0.850586L62.0978 9.83397C62.4687 9.82334 62.7017 9.81271 62.7865 9.81271L60.6145 0.935636Z" fill="#333333"/>
<g style="mix-blend-mode:overlay" opacity="0.2">
<path d="M49.7225 12.1728C49.7225 12.4386 49.2987 12.7788 48.7796 12.7894C48.2498 12.8 47.826 12.4811 47.8154 12.2153C47.8154 11.9389 48.2392 11.9176 48.769 11.907C49.2881 11.8964 49.7225 11.8964 49.7225 12.1728Z" fill="#0C2453"/>
</g>
<path d="M49.9026 12.1621C49.9026 12.2897 49.7331 12.396 49.3728 12.4598C49.2669 12.4811 49.2351 12.3535 48.9914 12.3748C48.7583 12.396 48.7371 12.5236 48.5888 12.5342C47.6776 12.5449 47.6353 12.396 47.6353 12.2153C47.6353 12.0239 47.6776 11.8751 48.5782 11.8538C49.4894 11.8326 49.9026 11.9814 49.9026 12.1621Z" fill="#0C2453"/>
<g style="mix-blend-mode:overlay" opacity="0.2">
<path d="M61.6739 12.0664C61.6845 12.3429 61.2607 12.6724 60.7309 12.6831C60.2011 12.6831 59.7773 12.3535 59.7773 12.0877C59.7773 11.8113 60.2011 11.8007 60.7309 11.8007C61.2501 11.79 61.6739 11.8007 61.6739 12.0664Z" fill="#0C2453"/>
</g>
<path d="M61.8647 12.0665C61.8647 12.1941 61.6952 12.3004 61.335 12.3536C61.2184 12.3748 61.1866 12.2473 60.9429 12.2685C60.7204 12.2898 60.6887 12.4174 60.5403 12.4174C59.6397 12.428 59.5974 12.2685 59.5974 12.0878C59.5868 11.8964 59.6292 11.7476 60.5403 11.7476C61.4515 11.737 61.8647 11.8858 61.8647 12.0665Z" fill="#0C2453"/>
<g style="mix-blend-mode:overlay" opacity="0.6">
<path d="M62.4471 9.82319C62.4365 9.40857 61.1333 4.08232 60.3281 0.871693C60.2998 0.864606 60.268 0.861062 60.2327 0.861062C61.1757 4.64578 62.3517 9.46173 62.3623 9.82319C62.3623 10.2803 62.1716 15.5641 62.0869 17.9454V18.0624C62.0763 18.2431 62.0233 18.4026 61.9279 18.5089C60.4552 20.1355 59.6076 22.6126 59.6076 25.3129C59.6076 25.561 59.6111 25.8019 59.6182 26.0358C59.6182 26.2803 59.4805 26.4717 59.3109 26.4717H59.2792H50.4747C50.5382 20.9435 50.676 10.5355 50.6972 10.3016C50.7289 10.089 51.0998 3.92286 51.3011 0.765381C51.2658 0.772468 51.234 0.776012 51.2057 0.776012C51.015 3.92286 50.6336 10.0677 50.6124 10.2803C50.5806 10.5567 50.4005 25.2597 50.3899 26.4717H35.5356C35.4403 25.7062 34.2642 16.4996 34.3596 14.6179C34.4549 12.6724 34.9423 10.78 34.9529 10.7587L34.8363 10.7694C34.8363 10.7906 34.3702 12.6511 34.2748 14.6072C34.1794 16.574 35.4085 26.1421 35.4615 26.5461L35.472 26.5993H59.2686H59.3109C59.5334 26.5993 59.703 26.3441 59.703 26.0358C59.6959 25.8019 59.6924 25.561 59.6924 25.3129C59.6924 22.6551 60.5294 20.2099 61.9809 18.6046C62.0975 18.477 62.161 18.2856 62.1716 18.073V17.9454C62.2564 15.5534 62.4471 10.2803 62.4471 9.82319Z" fill="#0C2453"/>
</g>
<path d="M37.0192 10.7481C37.0192 10.8651 36.6166 10.9608 36.3199 10.9608C36.0126 10.9608 35.9385 10.8651 35.9385 10.7481C35.9385 10.6312 36.1822 10.5461 36.4788 10.5461C36.7755 10.5461 37.0192 10.6312 37.0192 10.7481Z" fill="#333333"/>
<path d="M38.7358 10.6844C38.4391 10.6844 36.2141 10.7375 35.9705 10.7375C35.7268 10.7375 36.1082 9.62123 36.7227 9.1003C37.3372 8.56874 38.2908 8.32422 38.4391 8.32422C38.8205 8.32422 39.1808 10.6844 38.7358 10.6844Z" fill="#D4E5FF"/>
<path d="M71.771 9.54688C71.6227 9.54688 70.9658 9.54688 70.8068 9.54688C70.6479 9.54688 70.8386 13.321 70.881 13.6186C70.9128 13.9163 72.5338 14.703 72.6186 14.7137C72.7034 14.7137 71.9405 9.54688 71.771 9.54688Z" fill="#D12E34"/>
<g style="mix-blend-mode:overlay" opacity="0.3">
<path d="M72.1627 12.2365C71.7601 12.2365 70.9231 11.7475 70.9549 11.4923C70.9125 11.0564 70.9125 10.4186 70.9655 9.75943L71.7601 9.72754C71.9508 10.3442 72.0568 11.2478 72.1627 12.2365Z" fill="white"/>
</g>
<path d="M20.491 19.5083C20.6499 19.5083 22.2498 19.3914 22.504 19.3276C22.7477 19.2744 24.3158 16.202 24.3794 15.9894C24.5913 15.3196 18.213 16.1063 17.7575 16.3083C17.4714 16.4465 15.9987 19.5083 16.6238 19.5083C17.037 19.5083 20.4486 19.5083 20.491 19.5083Z" fill="#0C2453"/>
<path d="M2.78669 16.3082C2.68074 16.2338 2.04504 16.0744 1.29279 15.9468C1.27866 15.968 1.26454 15.9893 1.25041 16.0106C0.921962 16.7441 0.826607 19.083 0.752441 19.5082C1.40934 19.5082 2.7761 19.5082 2.988 19.5082C3.4118 19.5082 2.95621 16.4464 2.78669 16.3082Z" fill="#0C2453"/>
<path d="M23.203 15.7236C22.7156 16.6804 21.8045 18.3814 21.6243 18.4346C21.3807 18.4878 19.7702 18.6047 19.6113 18.6047C19.5901 18.6047 17.7465 18.6047 16.6023 18.6047C16.4433 19.115 16.401 19.5084 16.6235 19.5084C17.0367 19.5084 20.4483 19.5084 20.4907 19.5084C20.6496 19.5084 22.2494 19.3914 22.5037 19.3276C22.7474 19.2745 24.3155 16.202 24.3791 15.9894C24.4426 15.7981 23.9447 15.7236 23.203 15.7236Z" fill="#0C2453"/>
<path d="M0.837202 18.6047C0.805417 19.03 0.773632 19.3702 0.752441 19.5084C1.40934 19.5084 2.7761 19.5084 2.988 19.5084C3.13633 19.5084 3.17871 19.115 3.15752 18.6047C2.71253 18.6047 1.63183 18.6047 0.837202 18.6047Z" fill="#0C2453"/>
<path d="M4.3651 15.7236H15.6912C15.9349 15.7236 16.1044 15.9469 16.0409 16.1808L15.0555 19.8804C15.0131 20.0399 14.8648 20.1462 14.7059 20.1462H4.62997C4.43926 20.1462 4.28034 19.9974 4.25915 19.806L4.00487 16.117C3.99427 15.9044 4.16379 15.7236 4.3651 15.7236Z" fill="#2B364D"/>
<g style="mix-blend-mode:overlay" opacity="0.2">
<path d="M15.6912 15.7236H4.36507C4.21674 15.7236 4.0896 15.8193 4.03662 15.9469H15.1191C15.3627 15.9469 15.5323 16.1701 15.4687 16.404L14.4834 20.1037C14.4763 20.1179 14.4692 20.132 14.4622 20.1462H14.7059C14.8648 20.1462 15.0131 20.0399 15.0555 19.8804L16.0408 16.1808C16.1044 15.9469 15.9349 15.7236 15.6912 15.7236Z" fill="white"/>
</g>
<path d="M15.2356 24.2285H3.41151C3.27377 24.2285 3.15723 24.1116 3.15723 23.9734V23.5269C3.15723 23.3887 3.27377 23.2717 3.41151 23.2717H15.2356C15.3733 23.2717 15.4899 23.3887 15.4899 23.5269V23.9734C15.4899 24.1116 15.3733 24.2285 15.2356 24.2285Z" fill="#0C2453"/>
<path d="M1.23978 23.2717H0.222656C0.254441 23.5907 0.286227 23.9096 0.318012 24.2285H1.23978C1.36692 24.2285 1.48347 24.1116 1.48347 23.9734V23.5269C1.48347 23.3887 1.36692 23.2717 1.23978 23.2717Z" fill="#0C2453"/>
<path d="M21.3066 24.2285H17.8526C17.7254 24.2285 17.6089 24.1116 17.6089 23.9734V23.5269C17.6089 23.3887 17.7254 23.2717 17.8526 23.2717H21.3066C21.4443 23.2717 21.5503 23.3887 21.5503 23.5269V23.9734C21.5503 24.1116 21.4443 24.2285 21.3066 24.2285Z" fill="#0C2453"/>
<path fill-rule="evenodd" clip-rule="evenodd" d="M18.6898 16.5528C19.2725 16.6273 19.6434 17.2758 19.5374 18.0093C19.4209 18.7323 18.8699 19.2638 18.2872 19.1894C17.7151 19.115 17.3336 18.4665 17.4502 17.7435C17.5561 17.01 18.1177 16.4784 18.6898 16.5528ZM18.3825 18.6047C18.7004 18.6366 19.0077 18.3495 19.0712 17.9455C19.1242 17.5416 18.9229 17.1801 18.605 17.1482C18.2872 17.1057 17.9799 17.3927 17.9164 17.7967C17.8528 18.2007 18.0647 18.5622 18.3825 18.6047Z" fill="#C4DCFF"/>
<path fill-rule="evenodd" clip-rule="evenodd" d="M1.03841 16.8291C1.26091 16.6271 1.53638 16.5208 1.82245 16.5527C2.39458 16.6271 2.77601 17.2756 2.67005 18.0092C2.55351 18.7321 2.00257 19.2637 1.41984 19.1893C1.17615 19.1574 0.964249 19.0192 0.815918 18.8278C0.868893 18.2537 0.932464 17.467 1.03841 16.8291ZM1.04901 17.7966C0.985439 18.2005 1.19734 18.562 1.51519 18.6045C1.83304 18.6364 2.1403 18.3494 2.20387 17.9454C2.25685 17.5414 2.05554 17.1799 1.73769 17.1481C1.40924 17.1055 1.10198 17.3926 1.04901 17.7966Z" fill="#C4DCFF"/>
<path fill-rule="evenodd" clip-rule="evenodd" d="M21.1585 16.1276C21.7307 16.202 22.1121 16.8505 21.9955 17.5734C21.8896 18.307 21.328 18.8279 20.7559 18.7641C20.1838 18.6897 19.8024 18.0412 19.9083 17.3076C20.0248 16.5847 20.5758 16.0531 21.1585 16.1276ZM20.8407 18.1688C21.1585 18.2113 21.4658 17.9136 21.5293 17.5203C21.5929 17.1163 21.381 16.7548 21.0632 16.7123C20.7453 16.6698 20.4381 16.9674 20.3745 17.3714C20.3215 17.7754 20.5228 18.1262 20.8407 18.1688Z" fill="#C4DCFF"/>
<g style="mix-blend-mode:overlay" opacity="0.6">
<path d="M1.3666 20.4014C1.85397 20.4014 18.1068 20.4014 18.5306 20.4014C18.9438 20.4014 18.128 20.9861 17.238 20.9861C16.3374 20.9861 1.38779 20.9861 0.88982 20.9861C0.391852 20.9861 0.99577 20.4014 1.3666 20.4014Z" fill="white"/>
</g>
<g style="mix-blend-mode:overlay" opacity="0.6">
<path d="M11.7606 15.2771C11.9831 15.2771 15.8397 15.2771 16.1575 15.2771C16.4754 15.2771 20.6286 11.9814 28.7868 10.7694C29.0941 10.7375 26.2864 10.8332 21.5398 12.4279C16.7932 14.0226 16.2635 14.7774 15.49 14.8412C14.706 14.8943 11.0189 15.2771 11.7606 15.2771Z" fill="white"/>
</g>
</g>
<defs>
<clipPath id="clip0_813_2032">
<rect width="73" height="32" fill="white"/>
</clipPath>
</defs>
</svg>
