<svg width="512" height="512" viewBox="0 0 512 512" fill="none" xmlns="http://www.w3.org/2000/svg">
<path d="M191.874 463.646H145.032C122.077 463.646 103.403 444.971 103.403 422.017V56.6279C103.403 33.6732 122.078 14.9979 145.032 14.9979H338.183C361.137 14.9979 379.812 33.6732 379.812 56.6279V118.559C379.812 122.702 383.169 126.058 387.311 126.058C391.452 126.058 394.81 122.702 394.81 118.559V56.6279C394.811 25.4024 369.407 0 338.183 0H145.032C113.808 0 88.4053 25.4024 88.4053 56.6279V422.017C88.4053 453.241 113.809 478.644 145.032 478.644H191.874C196.015 478.644 199.372 475.287 199.372 471.145C199.372 467.002 196.015 463.646 191.874 463.646Z" fill="#017EF6"/>
<path d="M387.311 143.019C383.17 143.019 379.812 146.375 379.812 150.517V308.61C379.812 312.752 383.17 316.109 387.311 316.109C391.453 316.109 394.81 312.752 394.81 308.61V150.517C394.81 146.375 391.453 143.019 387.311 143.019Z" fill="#017EF6"/>
<path d="M125.9 337.218C121.759 337.218 118.401 340.574 118.401 344.717V422.018C118.401 436.703 130.349 448.65 145.034 448.65H186.884C191.025 448.65 194.383 445.293 194.383 441.151C194.383 437.009 191.025 433.652 186.884 433.652H145.034C138.618 433.652 133.399 428.433 133.399 422.018V344.717C133.399 340.574 130.042 337.218 125.9 337.218Z" fill="#017EF6"/>
<path d="M357.316 304.895C361.458 304.895 364.815 301.539 364.815 297.396V56.6278C364.815 41.9429 352.868 29.9956 338.183 29.9956H299.071C293.772 29.9956 288.71 32.5252 285.53 36.7616L279.95 44.1916C278.884 45.6124 277.188 46.4603 275.411 46.4603H207.804C206.028 46.4603 204.331 45.6124 203.264 44.1906L197.686 36.7626C194.507 32.5252 189.444 29.9956 184.146 29.9956H145.033C130.348 29.9956 118.401 41.9429 118.401 56.6278V312.759C118.401 316.902 121.759 320.258 125.9 320.258C130.042 320.258 133.399 316.902 133.399 312.759V56.6278C133.399 50.2127 138.618 44.9935 145.033 44.9935H184.146C184.751 44.9935 185.33 45.2824 185.694 45.7674L191.272 53.1953C195.155 58.3686 201.336 61.4571 207.806 61.4571H275.413C281.882 61.4571 288.063 58.3686 291.946 53.1963L297.525 45.7664C297.888 45.2824 298.467 44.9935 299.072 44.9935H338.184C344.599 44.9935 349.818 50.2127 349.818 56.6278V297.397C349.817 301.539 353.175 304.895 357.316 304.895Z" fill="#017EF6"/>
<path d="M396.646 334.767C391.63 334.767 386.932 336.149 382.905 338.546C379.018 328.436 369.209 321.238 357.747 321.238C353.211 321.238 348.937 322.369 345.184 324.357C342.561 312.225 331.751 303.108 318.847 303.108C314.557 303.108 310.501 304.121 306.896 305.911V255.32C306.896 240.46 294.807 228.37 279.947 228.37C265.087 228.37 252.998 240.46 252.998 255.32V342.437H248.774C226.912 342.437 209.127 360.223 209.127 382.084V432.753C209.127 450.776 213.234 468.896 221.006 485.158L231.796 507.733C233.084 510.425 235.768 512 238.567 512C239.651 512 240.752 511.764 241.795 511.265C245.532 509.479 247.114 505.002 245.328 501.265L234.538 478.691C227.726 464.437 224.125 448.552 224.125 432.754V382.085C224.125 368.493 235.183 357.436 248.774 357.436H252.998V412.706C252.998 416.849 256.355 420.205 260.497 420.205C264.638 420.205 267.996 416.849 267.996 412.706V255.32C267.996 248.729 273.357 243.368 279.947 243.368C286.537 243.368 291.898 248.729 291.898 255.32V357.954C291.898 362.096 295.256 365.453 299.397 365.453C303.538 365.453 306.896 362.096 306.896 357.954V330.057C306.896 323.467 312.257 318.106 318.847 318.106C325.437 318.106 330.799 323.467 330.799 330.057V367.108C330.799 371.25 334.156 374.607 338.298 374.607C342.439 374.607 345.796 371.25 345.796 367.108V348.187C345.796 341.597 351.158 336.237 357.748 336.237C364.338 336.237 369.699 341.597 369.699 348.187V375.148C369.699 379.291 373.057 382.647 377.198 382.647C381.339 382.647 384.697 379.291 384.697 375.148V361.716C384.697 355.126 390.058 349.765 396.648 349.765C403.238 349.765 408.6 355.126 408.6 361.716V418.103C408.6 422.246 411.957 425.602 416.098 425.602C420.24 425.602 423.597 422.246 423.597 418.103V361.716C423.594 346.856 411.505 334.767 396.646 334.767Z" fill="#017EF6"/>
<path d="M416.096 442.562C411.954 442.562 408.597 445.919 408.597 450.061V504.499C408.597 508.642 411.954 511.998 416.096 511.998C420.237 511.998 423.595 508.642 423.595 504.499V450.061C423.595 445.919 420.237 442.562 416.096 442.562Z" fill="#017EF6"/>
<path d="M300.126 148.857C300.126 137.863 297.074 127.572 291.78 118.776L311.631 98.9259C314.559 95.9964 314.559 91.249 311.631 88.3204C308.702 85.3929 303.954 85.3929 301.026 88.3204L282.395 106.952C271.846 96.6823 257.457 90.3392 241.609 90.3392C209.341 90.3392 183.09 116.59 183.09 148.857C183.09 181.124 209.341 207.375 241.609 207.375C273.876 207.375 300.126 181.124 300.126 148.857ZM198.087 148.857C198.087 124.859 217.61 105.337 241.608 105.337C253.322 105.337 263.962 109.997 271.794 117.551L238.002 151.343L231.621 146.243C228.385 143.656 223.666 144.184 221.081 147.419C218.496 150.654 219.022 155.373 222.257 157.959L233.879 167.247C235.254 168.347 236.909 168.889 238.559 168.889C240.487 168.889 242.407 168.148 243.863 166.693L280.736 129.821C283.547 135.575 285.129 142.034 285.129 148.857C285.129 172.854 265.606 192.378 241.609 192.378C217.611 192.378 198.087 172.854 198.087 148.857Z" fill="#017EF6"/>
</svg>
