<svg width="564" height="564" viewBox="0 0 564 564" fill="none" xmlns="http://www.w3.org/2000/svg">
<path d="M224.719 462.656C222.287 462.656 220.312 460.682 220.312 458.25V348.094C220.312 345.662 222.287 343.688 224.719 343.688C227.151 343.688 229.125 345.662 229.125 348.094V458.25C229.125 460.682 227.151 462.656 224.719 462.656Z" fill="#017EF6"/>
<path d="M224.719 352.5H163.031C160.599 352.5 158.625 350.526 158.625 348.094C158.625 345.662 160.599 343.688 163.031 343.688H224.719C227.151 343.688 229.125 345.662 229.125 348.094C229.125 350.526 227.151 352.5 224.719 352.5Z" fill="#017EF6"/>
<path d="M163.031 462.656C160.599 462.656 158.625 460.682 158.625 458.25V348.094C158.625 345.662 160.599 343.688 163.031 343.688C165.463 343.688 167.438 345.662 167.438 348.094V458.25C167.438 460.682 165.463 462.656 163.031 462.656Z" fill="#017EF6"/>
<path d="M136.594 462.656C134.162 462.656 132.188 460.682 132.188 458.25V383.344C132.188 380.912 134.162 378.938 136.594 378.938C139.026 378.938 141 380.912 141 383.344V458.25C141 460.682 139.026 462.656 136.594 462.656Z" fill="#017EF6"/>
<path d="M136.594 387.75H74.9062C72.474 387.75 70.5 385.776 70.5 383.344C70.5 380.912 72.474 378.938 74.9062 378.938H136.594C139.026 378.938 141 380.912 141 383.344C141 385.776 139.026 387.75 136.594 387.75Z" fill="#017EF6"/>
<path d="M74.9062 462.656C72.474 462.656 70.5 460.682 70.5 458.25V383.344C70.5 380.912 72.474 378.938 74.9062 378.938C77.3385 378.938 79.3125 380.912 79.3125 383.344V458.25C79.3125 460.682 77.3385 462.656 74.9062 462.656Z" fill="#017EF6"/>
<path d="M178.7 300.982C177.977 300.982 177.237 300.797 176.558 300.427C174.434 299.246 173.668 296.567 174.849 294.435L188.147 270.526C189.328 268.402 192.007 267.636 194.139 268.825C196.263 270.006 197.03 272.685 195.849 274.818L182.551 298.726C181.758 300.171 180.251 300.982 178.7 300.982Z" fill="#017EF6"/>
<path d="M209.508 318.122C208.786 318.122 208.045 317.937 207.367 317.567C205.243 316.386 204.476 313.707 205.657 311.575L229.715 268.305C230.896 266.19 233.575 265.415 235.708 266.605C237.832 267.785 238.598 270.464 237.417 272.597L213.359 315.866C212.557 317.303 211.059 318.122 209.508 318.122Z" fill="#017EF6"/>
<path d="M195.144 326.953C191.267 326.953 187.31 325.913 183.688 323.895C174.118 318.572 168.011 306.745 174.858 294.434C176.039 292.311 178.718 291.544 180.851 292.734C182.974 293.914 183.741 296.593 182.56 298.726C178.321 306.358 182.217 313.002 187.971 316.192C191.047 317.893 194.536 318.493 197.603 317.893C201.005 317.188 203.719 315.064 205.667 311.566C206.847 309.451 209.526 308.675 211.659 309.865C213.783 311.046 214.55 313.725 213.369 315.858C210.17 321.612 205.323 325.305 199.383 326.53C197.982 326.812 196.572 326.953 195.144 326.953Z" fill="#017EF6"/>
<path d="M220.083 161.225C200.978 161.225 184.833 145.08 184.833 125.975C184.833 106.869 200.978 90.7246 220.083 90.7246C239.189 90.7246 255.333 106.869 255.333 125.975C255.333 145.08 239.189 161.225 220.083 161.225ZM220.083 99.5371C205.754 99.5371 193.646 111.645 193.646 125.975C193.646 140.304 205.754 152.412 220.083 152.412C234.412 152.412 246.521 140.304 246.521 125.975C246.521 111.645 234.412 99.5371 220.083 99.5371Z" fill="#017EF6"/>
<path d="M225.829 172.443C224.745 172.443 223.67 172.046 222.824 171.253C216.814 165.631 210.108 160.758 202.899 156.748C200.775 155.567 200.009 152.888 201.189 150.755C202.37 148.623 205.049 147.865 207.182 149.055C215.016 153.408 222.304 158.713 228.843 164.82C230.623 166.477 230.711 169.27 229.055 171.051C228.182 171.976 227.01 172.443 225.829 172.443Z" fill="#017EF6"/>
<path d="M205.032 157.312C204.309 157.312 203.569 157.127 202.899 156.757L196.872 153.408C194.739 152.218 193.972 149.539 195.162 147.407C196.343 145.292 199.022 144.525 201.155 145.697L207.182 149.046C209.315 150.236 210.082 152.915 208.892 155.047C208.081 156.492 206.583 157.312 205.032 157.312Z" fill="#017EF6"/>
<path d="M235.117 181.123C234.033 181.123 232.949 180.727 232.112 179.934L222.824 171.262C221.044 169.605 220.956 166.812 222.612 165.032C224.269 163.269 227.071 163.163 228.843 164.829L235.434 170.98L249.658 160.326C251.614 158.863 254.364 159.268 255.827 161.216C257.289 163.163 256.893 165.922 254.937 167.385L237.761 180.251C236.968 180.832 236.043 181.123 235.117 181.123Z" fill="#017EF6"/>
<path d="M199.012 153.963C198.29 153.963 197.55 153.778 196.871 153.408C190.077 149.627 182.172 148.561 174.593 150.394C172.231 150.923 169.852 149.504 169.27 147.151C168.697 144.781 170.152 142.401 172.513 141.828C182.242 139.484 192.412 140.859 201.154 145.715C203.278 146.896 204.044 149.575 202.864 151.707C202.062 153.144 200.555 153.963 199.012 153.963Z" fill="#017EF6"/>
<path d="M117.056 164.247C115.073 164.247 113.267 162.899 112.782 160.881C112.209 158.51 113.663 156.131 116.025 155.558L172.522 141.819C174.857 141.273 177.263 142.701 177.845 145.062C178.417 147.433 176.963 149.812 174.602 150.385L118.105 164.124C117.752 164.203 117.4 164.247 117.056 164.247Z" fill="#017EF6"/>
<path d="M234.183 215.968C228.755 215.968 223.353 213.968 219.14 210.028C217.36 208.372 217.272 205.578 218.929 203.807C220.585 202.027 223.37 201.938 225.159 203.595C229.839 207.966 236.968 208.354 242.106 204.512C244.053 203.049 246.82 203.463 248.274 205.402C249.737 207.358 249.332 210.116 247.384 211.57C243.445 214.514 238.81 215.968 234.183 215.968Z" fill="#017EF6"/>
<path d="M222.146 211.218C221.062 211.218 219.987 210.821 219.141 210.028L209.341 200.881C207.561 199.224 207.473 196.431 209.13 194.659C210.787 192.87 213.571 192.782 215.36 194.448L225.16 203.595C226.94 205.252 227.028 208.045 225.371 209.817C224.508 210.742 223.327 211.218 222.146 211.218Z" fill="#017EF6"/>
<path d="M244.749 212.443C243.41 212.443 242.088 211.835 241.215 210.68C239.752 208.733 240.149 205.975 242.105 204.512L268.138 185.01C270.085 183.547 272.843 183.952 274.306 185.9C275.769 187.847 275.373 190.606 273.416 192.068L247.384 211.57C246.591 212.161 245.666 212.443 244.749 212.443Z" fill="#017EF6"/>
<path d="M270.782 192.95C269.443 192.95 268.121 192.342 267.257 191.187C265.794 189.24 266.191 186.481 268.138 185.018C274.774 180.039 272.395 173.166 269.945 169.896C267.486 166.609 261.564 162.423 254.928 167.385C252.972 168.856 250.205 168.433 248.76 166.495C247.297 164.538 247.702 161.789 249.65 160.326C259.81 152.729 271.099 156.73 276.995 164.6C282.908 172.496 283.578 184.454 273.426 192.068C272.633 192.659 271.707 192.95 270.782 192.95Z" fill="#017EF6"/>
<path d="M100.198 177.087C99.4751 177.087 98.7349 176.902 98.0563 176.532C95.9325 175.351 95.1658 172.672 96.3467 170.539C100.515 163.04 107.688 157.576 116.016 155.558C118.369 155.012 120.757 156.439 121.339 158.801C121.912 161.172 120.458 163.551 118.096 164.124C112.148 165.56 107.027 169.456 104.049 174.822C103.247 176.268 101.74 177.087 100.198 177.087Z" fill="#017EF6"/>
<path d="M87.9839 199.048C87.2613 199.048 86.521 198.863 85.8425 198.493C83.7186 197.312 82.952 194.633 84.1328 192.5L96.347 170.539C97.5278 168.424 100.207 167.649 102.339 168.839C104.463 170.02 105.23 172.699 104.049 174.831L91.835 196.792C91.033 198.228 89.5349 199.048 87.9839 199.048Z" fill="#017EF6"/>
<path d="M128.918 225.168C128.196 225.168 127.456 224.983 126.777 224.613C124.653 223.432 123.887 220.753 125.067 218.62L145.68 181.546C146.861 179.422 149.54 178.656 151.672 179.845C153.796 181.026 154.563 183.705 153.382 185.838L132.77 222.912C131.968 224.349 130.469 225.168 128.918 225.168Z" fill="#017EF6"/>
<path d="M126.213 193.76C124.23 193.76 122.423 192.412 121.939 190.394C121.366 188.024 122.811 185.644 125.182 185.071L148.5 179.396C150.853 178.806 153.25 180.269 153.822 182.63C154.395 184.992 152.95 187.38 150.579 187.953L127.261 193.637C126.909 193.716 126.556 193.76 126.213 193.76Z" fill="#017EF6"/>
<path d="M114.933 214.038C114.21 214.038 113.47 213.853 112.792 213.483C110.668 212.302 109.901 209.623 111.082 207.49L122.362 187.213C123.543 185.098 126.222 184.314 128.355 185.512C130.478 186.693 131.245 189.372 130.064 191.505L118.784 211.782C117.991 213.219 116.484 214.038 114.933 214.038Z" fill="#017EF6"/>
<path d="M102.366 221.767C98.8763 221.767 95.3337 220.841 92.0818 219.026C87.6315 216.55 84.274 212.734 82.6348 208.283C80.7402 203.137 81.2601 197.682 84.1418 192.491C85.3227 190.376 88.0017 189.601 90.1343 190.791C92.2581 191.971 93.0248 194.65 91.8439 196.783C90.2224 199.691 89.9052 202.538 90.901 205.243C91.7998 207.675 93.7915 209.887 96.3647 211.324C99.9338 213.307 107.063 214.752 111.09 207.481C112.271 205.366 114.95 204.582 117.083 205.781C119.207 206.962 119.973 209.641 118.793 211.773C115.911 216.955 111.549 220.277 106.182 221.388C104.93 221.634 103.653 221.767 102.366 221.767Z" fill="#017EF6"/>
<path d="M77.77 335.28C77.0474 335.28 76.3072 335.095 75.6286 334.725C73.5048 333.544 72.7381 330.865 73.919 328.733L123.19 240.123C124.371 237.999 127.05 237.232 129.182 238.422C131.306 239.603 132.073 242.282 130.892 244.415L81.6211 333.015C80.8192 334.461 79.3122 335.28 77.77 335.28Z" fill="#017EF6"/>
<path d="M144.693 263.414C144.287 263.414 143.882 263.362 143.477 263.238C134.523 260.674 127.306 254.152 123.666 245.358C120.018 236.527 120.529 226.79 125.067 218.62C126.239 216.497 128.927 215.721 131.06 216.92C133.184 218.101 133.95 220.78 132.77 222.912C129.544 228.711 129.192 235.673 131.809 242C134.409 248.301 139.555 252.954 145.909 254.778C148.253 255.448 149.601 257.889 148.932 260.224C148.368 262.154 146.614 263.414 144.693 263.414Z" fill="#017EF6"/>
<path d="M192.007 277.074C191.602 277.074 191.196 277.021 190.782 276.898L143.468 263.229C141.133 262.551 139.784 260.11 140.454 257.774C141.133 255.439 143.582 254.073 145.909 254.761L193.223 268.429C195.559 269.107 196.907 271.548 196.237 273.884C195.682 275.822 193.919 277.074 192.007 277.074Z" fill="#017EF6"/>
<path d="M191.169 240.15C190.447 240.15 189.707 239.964 189.028 239.594C186.904 238.413 186.138 235.734 187.318 233.602L208.495 195.523C209.676 193.399 212.355 192.624 214.487 193.822C216.611 195.003 217.378 197.682 216.197 199.815L195.02 237.894C194.227 239.33 192.72 240.15 191.169 240.15Z" fill="#017EF6"/>
<path d="M223.062 249.35C222.656 249.35 222.251 249.297 221.837 249.173L189.953 239.973C187.618 239.304 186.27 236.854 186.939 234.518C187.618 232.183 190.068 230.808 192.394 231.504L224.278 240.705C226.613 241.374 227.962 243.824 227.292 246.16C226.737 248.09 224.974 249.35 223.062 249.35Z" fill="#017EF6"/>
<path d="M233.566 274.844C232.844 274.844 232.104 274.659 231.425 274.289C229.301 273.108 228.535 270.429 229.715 268.297C231.645 264.824 231.857 260.665 230.288 256.867C228.72 253.069 225.644 250.275 221.828 249.173C219.493 248.504 218.145 246.054 218.814 243.719C219.484 241.383 221.899 240.008 224.269 240.705C230.676 242.555 235.84 247.217 238.431 253.509C241.022 259.801 240.652 266.746 237.418 272.579C236.624 274.034 235.117 274.844 233.566 274.844Z" fill="#017EF6"/>
<path d="M108.579 352.403C107.856 352.403 107.116 352.218 106.437 351.848C104.313 350.667 103.547 347.988 104.728 345.855L152.368 260.189C153.549 258.065 156.228 257.299 158.36 258.488C160.484 259.669 161.251 262.348 160.07 264.481L112.43 350.147C111.628 351.583 110.13 352.403 108.579 352.403Z" fill="#017EF6"/>
<path d="M94.2324 361.233C86.1777 361.242 78.0526 356.651 73.9195 349.742C70.0685 343.317 70.0685 335.651 73.9195 328.724C75.1004 326.6 77.7706 325.833 79.912 327.023C82.0359 328.204 82.8026 330.883 81.6217 333.016C78.6519 338.347 79.9032 342.595 81.4719 345.221C84.0539 349.548 89.1916 352.482 94.4262 352.421C97.4842 352.377 101.758 351.196 104.728 345.855C105.909 343.74 108.588 342.965 110.721 344.155C112.844 345.336 113.611 348.015 112.43 350.147C108.57 357.074 102.067 361.119 94.5672 361.242C94.4615 361.233 94.3469 361.233 94.2324 361.233Z" fill="#017EF6"/>
<path d="M427.406 462.656C424.974 462.656 423 460.682 423 458.25V180.656C423 178.224 424.974 176.25 427.406 176.25C429.838 176.25 431.812 178.224 431.812 180.656V458.25C431.812 460.682 429.838 462.656 427.406 462.656Z" fill="#017EF6"/>
<path d="M489.094 462.656C486.662 462.656 484.688 460.682 484.688 458.25V180.656C484.688 178.224 486.662 176.25 489.094 176.25C491.526 176.25 493.5 178.224 493.5 180.656V458.25C493.5 460.682 491.526 462.656 489.094 462.656Z" fill="#017EF6"/>
<path d="M400.969 462.656C398.537 462.656 396.562 460.682 396.562 458.25V233.531C396.562 231.099 398.537 229.125 400.969 229.125C403.401 229.125 405.375 231.099 405.375 233.531V458.25C405.375 460.682 403.401 462.656 400.969 462.656Z" fill="#017EF6"/>
<path d="M339.281 462.656C336.849 462.656 334.875 460.682 334.875 458.25V233.531C334.875 231.099 336.849 229.125 339.281 229.125C341.713 229.125 343.688 231.099 343.688 233.531V458.25C343.688 460.682 341.713 462.656 339.281 462.656Z" fill="#017EF6"/>
<path d="M312.844 462.656C310.412 462.656 308.438 460.682 308.438 458.25V286.406C308.438 283.974 310.412 282 312.844 282C315.276 282 317.25 283.974 317.25 286.406V458.25C317.25 460.682 315.276 462.656 312.844 462.656Z" fill="#017EF6"/>
<path d="M251.156 462.656C248.724 462.656 246.75 460.682 246.75 458.25V286.406C246.75 283.974 248.724 282 251.156 282C253.588 282 255.562 283.974 255.562 286.406V458.25C255.562 460.682 253.588 462.656 251.156 462.656Z" fill="#017EF6"/>
<path d="M312.844 290.812H251.156C248.724 290.812 246.75 288.838 246.75 286.406C246.75 283.974 248.724 282 251.156 282H312.844C315.276 282 317.25 283.974 317.25 286.406C317.25 288.838 315.276 290.812 312.844 290.812Z" fill="#017EF6"/>
<path d="M400.969 237.938H339.281C336.849 237.938 334.875 235.963 334.875 233.531C334.875 231.099 336.849 229.125 339.281 229.125H400.969C403.401 229.125 405.375 231.099 405.375 233.531C405.375 235.963 403.401 237.938 400.969 237.938Z" fill="#017EF6"/>
<path d="M489.094 185.062H427.406C424.974 185.062 423 183.088 423 180.656C423 178.224 424.974 176.25 427.406 176.25H489.094C491.526 176.25 493.5 178.224 493.5 180.656C493.5 183.088 491.526 185.062 489.094 185.062Z" fill="#017EF6"/>
<path d="M488.812 158.801C487.137 158.801 485.366 158.29 483.41 157.259L458.25 144.014L441.524 152.818C436.166 155.717 431.284 158.052 427.124 158.052C423.873 158.052 421.987 156.625 420.982 155.426C419.334 153.47 418.797 150.747 419.378 147.31L424.207 119.277L410.663 106.094C404.397 100.11 399.374 94.3467 401.11 88.9094C401.788 86.7856 403.718 84.0889 409.068 83.3222L437.215 79.2509L445.569 62.2956C449.305 54.4789 453.245 47.896 458.982 47.896C461.202 47.896 464.348 48.9094 466.719 53.7387L479.286 79.2509L498.003 81.9563C506.587 83.1019 514.016 84.8116 515.813 90.2224C516.518 92.3374 516.545 95.6597 512.685 99.4315L492.302 119.277L495.509 137.907C496.902 145.512 497.616 152.368 494.417 156.193C493.024 157.876 491.033 158.801 488.812 158.801ZM458.25 134.62C458.955 134.62 459.66 134.796 460.303 135.131L487.516 149.46C487.631 149.522 487.737 149.575 487.842 149.628C488.01 148.332 487.966 145.671 486.979 140.286C486.979 140.269 486.82 139.423 486.82 139.405L483.216 118.484C482.969 117.056 483.445 115.594 484.485 114.58L506.525 93.1218C506.622 93.0248 506.71 92.9367 506.781 92.8662C505.6 92.311 503.07 91.5267 497.633 90.8041C497.624 90.8041 496.743 90.6807 496.725 90.6807L475.716 87.6404C474.28 87.4289 473.037 86.53 472.394 85.2257L458.814 57.6338C458.735 57.4664 458.655 57.3254 458.594 57.202C457.915 58.048 456.355 60.1806 453.861 65.3976C453.853 65.4152 453.483 66.1819 453.474 66.1907L444.097 85.2257C443.454 86.53 442.22 87.4377 440.784 87.6404L410.337 92.0466C410.204 92.0642 410.09 92.0819 409.975 92.0995C410.61 93.2539 412.205 95.3777 416.17 99.1583C416.179 99.1671 416.814 99.7664 416.823 99.7752L432.033 114.58C433.073 115.594 433.549 117.056 433.302 118.484L428.076 148.79C428.058 148.905 428.041 149.002 428.032 149.099C430.861 148.561 435.117 146.27 436.633 145.442C436.642 145.433 437.417 145.019 437.426 145.01L456.214 135.122C456.84 134.796 457.545 134.62 458.25 134.62Z" fill="#017EF6"/>
<path d="M489.094 462.656H427.406C424.974 462.656 423 460.682 423 458.25C423 455.818 424.974 453.844 427.406 453.844H489.094C491.526 453.844 493.5 455.818 493.5 458.25C493.5 460.682 491.526 462.656 489.094 462.656Z" fill="#017EF6"/>
<path d="M400.969 462.656H339.281C336.849 462.656 334.875 460.682 334.875 458.25C334.875 455.818 336.849 453.844 339.281 453.844H400.969C403.401 453.844 405.375 455.818 405.375 458.25C405.375 460.682 403.401 462.656 400.969 462.656Z" fill="#017EF6"/>
<path d="M312.844 462.656H251.156C248.724 462.656 246.75 460.682 246.75 458.25C246.75 455.818 248.724 453.844 251.156 453.844H312.844C315.276 453.844 317.25 455.818 317.25 458.25C317.25 460.682 315.276 462.656 312.844 462.656Z" fill="#017EF6"/>
<path d="M224.719 462.656H163.031C160.599 462.656 158.625 460.682 158.625 458.25C158.625 455.818 160.599 453.844 163.031 453.844H224.719C227.151 453.844 229.125 455.818 229.125 458.25C229.125 460.682 227.151 462.656 224.719 462.656Z" fill="#017EF6"/>
<path d="M136.594 462.656H74.9062C72.474 462.656 70.5 460.682 70.5 458.25C70.5 455.818 72.474 453.844 74.9062 453.844H136.594C139.026 453.844 141 455.818 141 458.25C141 460.682 139.026 462.656 136.594 462.656Z" fill="#017EF6"/>
<path d="M511.125 515.531H52.875C50.4428 515.531 48.4688 513.557 48.4688 511.125V484.688C48.4688 482.255 50.4428 480.281 52.875 480.281H511.125C513.557 480.281 515.531 482.255 515.531 484.688V511.125C515.531 513.557 513.557 515.531 511.125 515.531ZM57.2812 506.719H506.719V489.094H57.2812V506.719Z" fill="#017EF6"/>
</svg>
