<svg width="512" height="512" viewBox="0 0 512 512" fill="none" xmlns="http://www.w3.org/2000/svg">
<path d="M256 434.106C241.998 434.106 230.606 445.498 230.606 459.5C230.606 473.502 241.998 484.894 256 484.894C270.003 484.894 281.394 473.502 281.394 459.5C281.394 445.498 270.003 434.106 256 434.106ZM256 469.894C250.269 469.894 245.606 465.231 245.606 459.5C245.606 453.769 250.269 449.106 256 449.106C261.731 449.106 266.394 453.769 266.394 459.5C266.394 465.231 261.731 469.894 256 469.894Z" fill="#017EF6"/>
<path d="M372.326 383.233C376.469 383.233 379.826 379.875 379.826 375.733V369.63C393.099 366.431 401.613 355.169 403.48 344.063C405.894 329.706 398.393 317.227 384.372 312.271C376.153 309.366 367.051 305.847 361.858 301.773C359.829 300.182 358.952 296.853 359.623 293.293C360.28 289.804 362.648 285.574 367.318 284.167C377.819 281.007 384.667 286.649 385.145 287.06L386.905 288.675C389.957 291.476 394.701 291.272 397.503 288.22C400.303 285.168 400.1 280.424 397.048 277.623L395.259 275.981C394.907 275.656 389.196 270.515 379.826 268.771V263.951C379.826 259.809 376.469 256.451 372.326 256.451C368.183 256.451 364.826 259.809 364.826 263.951V269.3C364.221 269.451 363.61 269.618 362.992 269.804C353.702 272.602 346.763 280.538 344.883 290.514C343.16 299.653 346.118 308.49 352.601 313.575C358.163 317.937 365.919 321.656 379.373 326.412C389.764 330.085 389.13 338.947 388.689 341.575C387.566 348.251 381.952 355.465 372.277 355.529C363.407 355.597 360.395 355.11 353.453 350.567C349.988 348.299 345.34 349.271 343.071 352.738C340.803 356.204 341.775 360.853 345.242 363.12C352.897 368.128 358.255 369.814 364.827 370.327V375.731C364.826 379.875 368.184 383.233 372.326 383.233Z" fill="#017EF6"/>
<path d="M111.998 117.1H145.753C158.16 117.1 168.253 107.007 168.253 94.6V60.844C168.253 48.437 158.16 38.344 145.753 38.344H111.998C99.591 38.344 89.498 48.437 89.498 60.844V94.6C89.498 107.007 99.591 117.1 111.998 117.1ZM104.498 60.844C104.498 56.708 107.862 53.344 111.998 53.344H145.753C149.889 53.344 153.253 56.708 153.253 60.844V94.6C153.253 98.736 149.889 102.1 145.753 102.1H111.998C107.862 102.1 104.498 98.736 104.498 94.6V60.844Z" fill="#017EF6"/>
<path d="M89.498 203.654C89.498 216.061 99.591 226.154 111.998 226.154H145.753C158.16 226.154 168.253 216.061 168.253 203.654V169.899C168.253 157.492 158.16 147.399 145.753 147.399H111.998C99.591 147.399 89.498 157.492 89.498 169.899V203.654ZM104.498 169.898C104.498 165.762 107.862 162.398 111.998 162.398H145.753C149.889 162.398 153.253 165.762 153.253 169.898V203.653C153.253 207.789 149.889 211.153 145.753 211.153H111.998C107.862 211.153 104.498 207.789 104.498 203.653V169.898Z" fill="#017EF6"/>
<path d="M197.098 117.1H396.407C400.55 117.1 403.907 113.742 403.907 109.6C403.907 105.458 400.55 102.1 396.407 102.1H197.098C192.956 102.1 189.598 105.458 189.598 109.6C189.598 113.742 192.956 117.1 197.098 117.1Z" fill="#017EF6"/>
<path d="M197.098 194.276H396.407C400.55 194.276 403.907 190.918 403.907 186.776C403.907 182.634 400.55 179.276 396.407 179.276H197.098C192.956 179.276 189.598 182.634 189.598 186.776C189.598 190.918 192.956 194.276 197.098 194.276Z" fill="#017EF6"/>
<path d="M197.098 303.33H296.753C300.896 303.33 304.253 299.972 304.253 295.83C304.253 291.688 300.896 288.33 296.753 288.33H197.098C192.956 288.33 189.598 291.688 189.598 295.83C189.598 299.972 192.956 303.33 197.098 303.33Z" fill="#017EF6"/>
<path d="M197.098 335.207H296.753C300.896 335.207 304.253 331.849 304.253 327.707C304.253 323.565 300.896 320.207 296.753 320.207H197.098C192.956 320.207 189.598 323.565 189.598 327.707C189.598 331.85 192.956 335.207 197.098 335.207Z" fill="#017EF6"/>
<path d="M96.998 383.656H296.753C300.896 383.656 304.253 380.298 304.253 376.156C304.253 372.014 300.896 368.656 296.753 368.656H96.998C92.856 368.656 89.498 372.014 89.498 376.156C89.498 380.298 92.856 383.656 96.998 383.656Z" fill="#017EF6"/>
<path d="M420 0H92C68.565 0 49.5 19.065 49.5 42.5V204.657C49.5 208.799 52.858 212.157 57 212.157C61.142 212.157 64.5 208.799 64.5 204.657V42.5C64.5 27.336 76.836 15 92 15H420C435.164 15 447.5 27.336 447.5 42.5V407H64.5V237.343C64.5 233.201 61.142 229.843 57 229.843C52.858 229.843 49.5 233.201 49.5 237.343V469.5C49.5 492.935 68.565 512 92 512H420C443.435 512 462.5 492.935 462.5 469.5V42.5C462.5 19.065 443.435 0 420 0ZM420 497H92C76.836 497 64.5 484.664 64.5 469.5V422H447.5V469.5C447.5 484.664 435.164 497 420 497Z" fill="#017EF6"/>
<path d="M197.098 226.154H396.407C400.55 226.154 403.907 222.796 403.907 218.654C403.907 214.512 400.55 211.154 396.407 211.154H197.098C192.956 211.154 189.598 214.512 189.598 218.654C189.598 222.796 192.956 226.154 197.098 226.154Z" fill="#017EF6"/>
<path d="M396.407 85.2219C400.55 85.2219 403.907 81.8639 403.907 77.7219C403.907 73.5799 400.55 70.2219 396.407 70.2219H355.276C351.133 70.2219 347.776 73.5799 347.776 77.7219C347.776 81.8639 351.133 85.2219 355.276 85.2219H396.407Z" fill="#017EF6"/>
<path d="M197.098 85.2219H322.59C326.733 85.2219 330.09 81.8639 330.09 77.7219C330.09 73.5799 326.733 70.2219 322.59 70.2219H197.098C192.956 70.2219 189.598 73.5799 189.598 77.7219C189.598 81.8639 192.956 85.2219 197.098 85.2219Z" fill="#017EF6"/>
<path d="M89.498 312.707C89.498 325.114 99.591 335.207 111.998 335.207C116.14 335.207 119.498 331.849 119.498 327.707C119.498 323.565 116.14 320.207 111.998 320.207C107.862 320.207 104.498 316.843 104.498 312.707V278.952C104.498 274.816 107.862 271.452 111.998 271.452H145.753C149.889 271.452 153.253 274.816 153.253 278.952V312.707C153.253 316.843 149.889 320.207 145.753 320.207C141.611 320.207 138.253 323.565 138.253 327.707C138.253 331.849 141.611 335.207 145.753 335.207C158.16 335.207 168.253 325.114 168.253 312.707V278.952C168.253 266.545 158.16 256.452 145.753 256.452H111.998C99.591 256.452 89.498 266.545 89.498 278.952V312.707Z" fill="#017EF6"/>
</svg>
