<svg width="512" height="512" viewBox="0 0 512 512" fill="none" xmlns="http://www.w3.org/2000/svg">
<g clip-path="url(#clip0_25_79)">
<path d="M423.445 327.065C423.435 318.243 419.926 309.785 413.688 303.546C407.45 297.308 398.992 293.799 390.169 293.789H289.469C303.376 260.084 303.427 222.254 289.61 188.512C289.49 188.216 289.351 187.927 289.195 187.648C286.355 182.538 282.145 178.322 277.04 175.474C271.934 172.626 266.135 171.26 260.295 171.528C254.455 171.797 248.806 173.689 243.983 176.994C239.16 180.298 235.355 184.882 232.995 190.231C232.623 191.076 232.4 191.978 232.334 192.899L229.957 226.646C226.399 246.04 215.934 263.488 200.5 275.76C194.318 277.93 183 285.606 153.474 313.701V312.862C153.47 308.439 151.711 304.198 148.583 301.07C145.455 297.942 141.214 296.183 136.79 296.179H52.8053C48.382 296.184 44.1413 297.943 41.0136 301.07C37.8859 304.198 36.1268 308.439 36.1223 312.862V480.462C36.1254 484.886 37.884 489.128 41.0118 492.257C44.1396 495.386 48.3812 497.146 52.8053 497.15H136.785C141.209 497.146 145.45 495.387 148.578 492.259C151.706 489.131 153.465 484.89 153.469 480.467V479.732C176.563 484.826 188.616 490.88 202.675 503.94C208.203 509.198 215.565 512.09 223.193 512H353.368C359.685 512.002 365.872 510.206 371.205 506.82C376.538 503.435 380.797 498.601 383.483 492.884C386.17 487.167 387.172 480.803 386.374 474.537C385.576 468.27 383.009 462.361 378.975 457.5C389.364 451.251 396.755 440.063 396.755 428.176C396.763 420.781 394.295 413.596 389.744 407.766C400.326 401.499 407.918 389.93 407.918 377.623C407.926 370.685 405.754 363.92 401.707 358.284C408.082 355.919 413.582 351.66 417.467 346.08C421.353 340.5 423.439 333.865 423.445 327.065ZM137.469 480.465C137.463 480.644 137.388 480.814 137.261 480.941C137.135 481.068 136.964 481.142 136.785 481.148H52.8053C52.6262 481.142 52.4562 481.068 52.3295 480.941C52.2028 480.814 52.1287 480.644 52.1223 480.465V312.865C52.129 312.686 52.2031 312.516 52.3297 312.389C52.4564 312.263 52.6263 312.189 52.8053 312.182H136.785C136.964 312.189 137.134 312.263 137.261 312.389C137.388 312.516 137.462 312.686 137.469 312.865V480.465ZM390.169 344.34H362.364C360.243 344.34 358.208 345.183 356.707 346.683C355.207 348.183 354.364 350.218 354.364 352.34C354.364 354.462 355.207 356.497 356.707 357.997C358.208 359.497 360.243 360.34 362.364 360.34H374.642C379.222 360.346 383.613 362.169 386.851 365.407C390.09 368.646 391.912 373.036 391.918 377.616C391.918 386.616 383.024 395.772 373.896 396.562C370.535 395.453 367.018 394.89 363.479 394.893C361.358 394.893 359.323 395.736 357.822 397.236C356.322 398.736 355.479 400.771 355.479 402.893C355.479 405.015 356.322 407.05 357.822 408.55C359.323 410.05 361.358 410.893 363.479 410.893C365.502 410.891 367.51 411.246 369.409 411.941C369.62 412.034 369.834 412.118 370.054 412.192C373.218 413.499 375.923 415.714 377.827 418.558C379.732 421.402 380.75 424.746 380.754 428.169C380.754 436.989 371.506 445.969 362.09 446.605C359.247 445.833 356.314 445.443 353.367 445.445C351.246 445.445 349.211 446.288 347.71 447.788C346.21 449.288 345.367 451.323 345.367 453.445C345.367 455.567 346.21 457.602 347.71 459.102C349.211 460.602 351.246 461.445 353.367 461.445C355.043 461.444 356.709 461.687 358.314 462.167C358.503 462.235 358.696 462.297 358.892 462.351C362.776 463.66 366.067 466.307 368.179 469.818C370.291 473.33 371.087 477.478 370.423 481.522C369.759 485.566 367.679 489.242 364.555 491.894C361.431 494.546 357.466 496.001 353.368 496H223.193C221.418 496.04 219.652 495.726 217.999 495.077C216.346 494.427 214.838 493.456 213.564 492.218C196.574 476.433 181.723 469.247 153.469 463.368V335.915L154.888 334.534C194.154 296.401 203.773 291.45 205.815 290.849C207.001 290.605 208.116 290.096 209.077 289.359C228.413 274.548 241.507 253.038 245.783 229.059C245.833 228.778 245.868 228.495 245.889 228.211L248.189 195.566C249.489 193.172 251.399 191.165 253.727 189.75C256.054 188.334 258.715 187.561 261.438 187.508C264.161 187.455 266.85 188.125 269.23 189.449C271.611 190.773 273.598 192.704 274.989 195.046C281.67 211.562 284.668 229.336 283.776 247.13C282.883 264.924 278.12 282.309 269.82 298.073C269.18 299.292 268.865 300.656 268.906 302.033C268.948 303.41 269.344 304.752 270.056 305.931C270.768 307.11 271.773 308.084 272.973 308.761C274.172 309.438 275.526 309.793 276.903 309.793H390.169C394.729 309.828 399.089 311.663 402.301 314.899C405.513 318.136 407.315 322.51 407.315 327.07C407.315 331.629 405.513 336.003 402.301 339.24C399.089 342.476 394.729 344.311 390.169 344.346V344.34ZM110.35 338.46V339.425C110.35 341.547 109.507 343.582 108.007 345.082C106.507 346.582 104.472 347.425 102.35 347.425C100.229 347.425 98.1937 346.582 96.6934 345.082C95.1931 343.582 94.3503 341.547 94.3503 339.425V338.46C94.3503 336.338 95.1931 334.303 96.6934 332.803C98.1937 331.303 100.229 330.46 102.35 330.46C104.472 330.46 106.507 331.303 108.007 332.803C109.507 334.303 110.35 336.338 110.35 338.46ZM350.4 68.582C349.918 67.0971 349.012 65.7858 347.793 64.8097C346.574 63.8337 345.097 63.2355 343.542 63.089L286.203 57.689L263.343 4.82504C262.724 3.392 261.698 2.17157 260.393 1.31421C259.089 0.456839 257.562 0 256 0C254.439 0 252.912 0.456839 251.607 1.31421C250.302 2.17157 249.277 3.392 248.657 4.82504L225.8 57.688L168.462 63.088C166.908 63.2346 165.43 63.8327 164.212 64.8087C162.993 65.7847 162.087 67.0959 161.605 68.5807C161.122 70.0655 161.085 71.659 161.497 73.1648C161.909 74.6706 162.753 76.0229 163.924 77.055L207.137 115.127L194.555 171.327C194.214 172.851 194.327 174.441 194.878 175.901C195.43 177.362 196.397 178.629 197.66 179.546C198.923 180.464 200.427 180.992 201.986 181.065C203.546 181.139 205.093 180.754 206.436 179.959L256 150.628L305.562 179.961C306.906 180.756 308.453 181.141 310.012 181.067C311.572 180.994 313.076 180.466 314.339 179.548C315.602 178.631 316.569 177.364 317.12 175.903C317.672 174.443 317.784 172.853 317.443 171.329L304.862 115.129L348.075 77.057C349.248 76.0255 350.093 74.6734 350.506 73.1674C350.919 71.6614 350.882 70.0674 350.4 68.582ZM290.737 106.253C289.662 107.201 288.861 108.42 288.418 109.783C287.975 111.147 287.906 112.604 288.219 114.003L297.793 156.768L260.08 134.447C258.846 133.717 257.439 133.331 256.005 133.331C254.572 133.331 253.164 133.717 251.93 134.447L214.217 156.768L223.786 114C224.099 112.601 224.031 111.144 223.588 109.78C223.145 108.417 222.344 107.198 221.268 106.25L188.387 77.28L232.017 73.17C233.444 73.0355 234.809 72.5199 235.969 71.6772C237.128 70.8346 238.04 69.6958 238.609 68.38L256 28.159L273.391 68.383C273.96 69.6988 274.872 70.8376 276.032 71.6802C277.191 72.5229 278.556 73.0385 279.983 73.173L323.614 77.283L290.737 106.253ZM491.243 115.46C490.761 113.975 489.855 112.664 488.636 111.688C487.417 110.712 485.94 110.114 484.385 109.967L443.978 106.161L427.867 68.908C427.248 67.475 426.222 66.2546 424.917 65.3972C423.613 64.5398 422.086 64.083 420.524 64.083C418.963 64.083 417.436 64.5398 416.131 65.3972C414.826 66.2546 413.801 67.475 413.181 68.908L397.075 106.161L356.667 109.967C355.113 110.113 353.635 110.711 352.416 111.688C351.198 112.664 350.291 113.975 349.809 115.46C349.326 116.945 349.289 118.539 349.701 120.045C350.114 121.551 350.958 122.903 352.129 123.935L382.582 150.764L373.716 190.37C373.375 191.894 373.488 193.484 374.04 194.945C374.592 196.405 375.559 197.673 376.822 198.59C378.086 199.508 379.59 200.035 381.15 200.108C382.71 200.181 384.257 199.796 385.6 199L420.527 178.329L455.451 199C456.795 199.795 458.342 200.18 459.902 200.107C461.461 200.034 462.965 199.506 464.229 198.588C465.492 197.67 466.459 196.403 467.01 194.943C467.562 193.482 467.674 191.892 467.333 190.368L458.466 150.762L488.918 123.933C490.089 122.901 490.933 121.549 491.345 120.043C491.758 118.538 491.72 116.945 491.238 115.46H491.243ZM444.343 141.889C443.268 142.837 442.467 144.056 442.024 145.419C441.581 146.783 441.512 148.24 441.825 149.639L447.684 175.809L424.6 162.15C423.366 161.42 421.959 161.034 420.525 161.034C419.092 161.034 417.684 161.42 416.45 162.15L393.373 175.809L399.231 149.639C399.544 148.24 399.476 146.783 399.033 145.419C398.59 144.056 397.789 142.837 396.713 141.889L376.59 124.162L403.29 121.646C404.718 121.512 406.083 120.996 407.242 120.153C408.402 119.311 409.314 118.172 409.883 116.856L420.525 92.241L431.167 116.856C431.736 118.172 432.648 119.311 433.808 120.153C434.968 120.996 436.333 121.512 437.76 121.646L464.46 124.162L444.343 141.889ZM155.343 109.967L114.936 106.161L98.8193 68.908C98.1996 67.475 97.1742 66.2546 95.8695 65.3972C94.5647 64.5398 93.0375 64.083 91.4763 64.083C89.915 64.083 88.3879 64.5398 87.0831 65.3972C85.7783 66.2546 84.7529 67.475 84.1333 68.908L68.0273 106.161L27.6203 109.967C26.0657 110.113 24.588 110.711 23.3693 111.688C22.1505 112.664 21.244 113.975 20.7616 115.46C20.2791 116.945 20.2418 118.539 20.6542 120.045C21.0665 121.551 21.9106 122.903 23.0823 123.935L53.5343 150.764L44.6673 190.37C44.3267 191.894 44.4392 193.483 44.9911 194.944C45.543 196.404 46.5101 197.671 47.7732 198.588C49.0363 199.506 50.5403 200.034 52.0997 200.107C53.6591 200.18 55.2058 199.795 56.5493 199L91.4763 178.329L126.4 199C127.744 199.795 129.291 200.18 130.85 200.106C132.41 200.033 133.914 199.505 135.177 198.587C136.44 197.67 137.407 196.403 137.958 194.942C138.51 193.482 138.622 191.892 138.281 190.368L129.414 150.762L159.867 123.933C161.039 122.901 161.883 121.549 162.295 120.043C162.708 118.537 162.67 116.943 162.188 115.458C161.706 113.973 160.799 112.662 159.58 111.686C158.362 110.709 156.884 110.111 155.329 109.965L155.343 109.967ZM115.299 141.889C114.224 142.837 113.423 144.056 112.98 145.419C112.537 146.783 112.468 148.24 112.781 149.639L118.639 175.808L95.5513 162.15C94.3175 161.42 92.91 161.034 91.4763 161.034C90.0425 161.034 88.6351 161.42 87.4013 162.15L64.3233 175.809L70.1823 149.639C70.4954 148.24 70.4269 146.783 69.984 145.419C69.541 144.056 68.7398 142.837 67.6643 141.889L47.5423 124.162L74.2423 121.646C75.6696 121.512 77.0346 120.996 78.1944 120.153C79.3542 119.311 80.2663 118.172 80.8353 116.856L91.4763 92.242L102.118 116.856C102.687 118.172 103.599 119.311 104.759 120.153C105.918 120.996 107.283 121.511 108.71 121.646L135.41 124.162L115.299 141.889Z" fill="#017EF6"/>
</g>
<defs>
<clipPath id="clip0_25_79">
<rect width="512" height="512" fill="white"/>
</clipPath>
</defs>
</svg>
