<svg width="500" height="500" viewBox="0 0 500 500" fill="none" xmlns="http://www.w3.org/2000/svg">
<path fill-rule="evenodd" clip-rule="evenodd" d="M372.865 132.617C348.863 132.617 329.75 152.297 329.75 176.304C329.75 192.279 340.191 205.378 348.237 219L372.865 260.697L398.315 217.613C406.177 204.302 415.98 192.159 415.98 176.304C415.98 152.297 396.868 132.617 372.865 132.617ZM218.782 85.3881C200.62 85.3881 185.496 99.5531 185.496 117.643C185.496 135.733 200.62 149.898 218.782 149.898C236.943 149.898 252.067 135.733 252.067 117.643C252.067 99.5531 236.944 85.3881 218.782 85.3881ZM186.056 85.5181C204.17 67.8731 233.394 67.8731 251.508 85.5181C269.728 103.266 269.728 132.02 251.508 149.769C233.394 167.414 204.17 167.414 186.056 149.769C167.836 132.02 167.836 103.266 186.056 85.5181ZM218.782 48.3071C256.003 48.3071 286.98 77.4741 286.98 114.561C286.98 138.462 272.017 156.225 260.034 175.764L218.782 243.027L178.762 177.769C166.505 157.783 150.583 138.636 150.583 114.562C150.584 77.4741 181.561 48.3071 218.782 48.3071ZM160.756 57.7741C192.845 26.5151 244.718 26.5151 276.807 57.7741C294.775 75.2771 304.306 101.078 299.936 126.813C310.423 129.51 320.501 133.287 330.12 138.102C351.941 113.227 389.937 111.99 413.263 135.582C423.578 146.015 429.959 160.413 429.959 176.302C429.959 196.517 419.421 209.314 410.328 224.709L406.94 230.445C416.189 263.538 413.24 298.85 398.799 329.92H411.186C416.727 329.92 418.409 332.785 420.277 335.988L420.288 335.982L421.235 337.441L447.076 369.779C448.037 370.982 448.503 372.42 448.502 373.849H448.51L448.548 432.248C448.548 435.853 445.626 438.775 442.021 438.775V438.801H431.533C426.37 464.762 394.069 474.814 375.131 455.877C370.554 451.3 367.299 445.4 365.986 438.801H295.929C290.766 464.762 258.465 474.814 239.527 455.877C234.95 451.3 231.695 445.4 230.382 438.801H204.059C196.588 438.801 190.499 432.713 190.499 425.241V399.189C166.787 386.888 146.709 368.541 132.543 346.011L113.421 377.191C109.131 384.187 98.9722 384.187 94.6822 377.191L70.2122 337.288C61.6552 323.334 51.4512 311.231 51.4512 293.111C51.4512 261.079 81.0102 237.157 112.836 242.407C118.387 212.898 132.985 186.213 154.277 165.344C144.709 150.095 136.604 134.422 136.604 114.562C136.605 92.3881 145.835 72.3101 160.756 57.7741ZM296.614 139.459C305.565 141.766 314.296 144.964 322.591 148.977C318.242 157.112 315.772 166.418 315.772 176.302C315.772 196.652 326.948 210.389 336.225 226.096L363.106 271.607C367.513 279.069 378.221 279.069 382.627 271.607L397.248 246.854C402.132 275.368 397.54 304.468 384.21 329.92H360.152V294.425C360.152 286.954 354.064 280.864 346.592 280.864H204.062C196.59 280.864 190.502 286.954 190.502 294.425V384.269C169.586 372.07 152.123 354.53 140.266 333.468C148.241 320.903 156.655 309.932 156.655 293.108C156.655 272.289 143.924 254.193 125.435 246.125C130.128 219.719 142.875 195.576 161.504 176.569C163.276 179.307 165.058 182.09 166.861 185.029L207.199 250.807C212.495 259.442 225.074 259.442 230.37 250.807L271.941 183.025C280.778 168.614 291.013 155.185 296.614 139.459ZM104.053 282.783C92.6802 282.783 87.1972 295.954 94.9992 303.554C102.879 311.23 116.749 305.97 116.749 294.98C116.748 288.094 110.972 282.783 104.053 282.783ZM85.8862 277.037C75.7062 286.952 75.7082 303.007 85.8862 312.922C102.196 328.81 129.853 317.287 129.853 294.979C129.853 272.672 102.195 261.149 85.8862 277.037ZM104.053 255.668C82.9792 255.668 65.4312 272.118 65.4312 293.11C65.4312 306.84 74.9732 318.374 82.1172 330.025L104.053 365.795L126.736 328.809C133.715 317.429 142.674 306.737 142.674 293.11C142.674 272.118 125.127 255.668 104.053 255.668ZM398.76 398.832C414.835 398.832 428.46 410.244 431.533 425.696H435.49L435.458 376.127L410.702 345.178C410.054 344.367 409.619 343.677 409.234 343.027H360.151V425.696H365.987C369.06 410.244 382.685 398.832 398.76 398.832ZM413.123 417.886C400.363 405.126 378.45 414.206 378.45 432.248C378.45 450.292 400.365 459.37 413.123 446.611C421.053 438.68 421.054 425.817 413.123 417.886ZM263.157 398.832C279.232 398.832 292.857 410.244 295.93 425.695H347.045V294.427L346.59 293.972H204.06L203.605 294.427V425.241L204.06 425.696H230.383C233.457 410.244 247.082 398.832 263.157 398.832ZM277.52 417.886C264.76 405.126 242.847 414.206 242.847 432.248C242.847 450.292 264.762 459.37 277.52 446.611C285.45 438.68 285.451 425.817 277.52 417.886ZM372.865 163.603C381.032 163.603 387.456 170.286 387.456 178.436C387.456 191.733 371.648 198.155 362.572 188.976C353.432 179.731 359.761 163.603 372.865 163.603ZM353.256 158.733C364.111 147.754 381.62 147.754 392.475 158.733C403.257 169.638 403.257 187.234 392.475 198.14C381.62 209.119 364.11 209.119 353.256 198.14C342.474 187.234 342.474 169.638 353.256 158.733Z" fill="#017EF6"/>
</svg>
