<svg width="512" height="512" viewBox="0 0 512 512" fill="none" xmlns="http://www.w3.org/2000/svg">
<g clip-path="url(#clip0_15_49796)">
<path d="M76.7996 0C48.5716 0 25.5996 22.963 25.5996 51.2C25.5996 79.437 48.5716 102.4 76.7996 102.4C105.028 102.4 128 79.437 128 51.2C128 22.963 105.028 0 76.7996 0ZM76.7996 85.333C57.9746 85.333 42.6666 70.024 42.6666 51.2C42.6666 32.376 57.9746 17.067 76.7996 17.067C95.6246 17.067 110.933 32.376 110.933 51.2C110.933 70.024 95.6246 85.333 76.7996 85.333Z" fill="#017EF6"/>
<path d="M110.95 68.2671H110.737C108.066 68.2671 105.54 69.5211 103.927 71.6551C97.365 80.3501 87.475 85.3331 76.8 85.3331C66.125 85.3331 56.235 80.3501 49.673 71.6541C48.06 69.5211 45.321 68.2661 42.65 68.2661C19.132 68.2671 0 87.3981 0 110.916V145.066C0 149.776 3.823 153.599 8.533 153.599H145.066C149.776 153.599 153.599 149.776 153.599 145.066V110.916C153.6 87.3981 134.468 68.2671 110.95 68.2671ZM136.533 136.533H17.067V110.916C17.067 98.0731 26.573 87.4151 39.083 85.6061C48.794 96.3331 62.302 102.4 76.8 102.4C91.307 102.4 104.823 96.3241 114.534 85.5811C126.95 87.3301 136.533 98.0311 136.533 110.916V136.533Z" fill="#017EF6"/>
<path d="M435.2 0C406.972 0 384 22.963 384 51.2C384 79.437 406.972 102.4 435.2 102.4C463.428 102.4 486.4 79.437 486.4 51.2C486.4 22.963 463.428 0 435.2 0ZM435.2 85.333C416.375 85.333 401.067 70.024 401.067 51.2C401.067 32.376 416.376 17.067 435.2 17.067C454.025 17.067 469.333 32.376 469.333 51.2C469.333 70.024 454.025 85.333 435.2 85.333Z" fill="#017EF6"/>
<path d="M469.349 68.2671H469.136C466.465 68.2671 463.939 69.5211 462.326 71.6551C455.764 80.3501 445.874 85.3341 435.198 85.3341C424.523 85.3341 414.633 80.3511 408.071 71.6551C406.458 69.5221 403.719 68.2671 401.048 68.2671C377.53 68.2671 358.398 87.3991 358.398 110.917V145.067C358.398 149.777 362.221 153.6 366.931 153.6H503.464C508.174 153.6 511.997 149.777 511.997 145.067V110.917C511.999 87.3981 492.867 68.2671 469.349 68.2671ZM494.932 136.533H375.466V110.916C375.466 98.0731 384.972 87.4151 397.482 85.6061C407.193 96.3321 420.701 102.4 435.199 102.4C449.706 102.4 463.222 96.3241 472.933 85.5811C485.349 87.3301 494.932 98.0311 494.932 110.916V136.533Z" fill="#017EF6"/>
<path d="M76.7996 358.4C48.5716 358.4 25.5996 381.363 25.5996 409.6C25.5996 437.837 48.5716 460.8 76.7996 460.8C105.028 460.8 128 437.837 128 409.6C128 381.363 105.028 358.4 76.7996 358.4ZM76.7996 443.733C57.9746 443.733 42.6666 428.424 42.6666 409.6C42.6666 390.775 57.9756 375.467 76.7996 375.467C95.6236 375.467 110.933 390.776 110.933 409.6C110.933 428.425 95.6246 443.733 76.7996 443.733Z" fill="#017EF6"/>
<path d="M110.949 426.667H110.736C108.065 426.667 105.539 427.921 103.926 430.055C97.364 438.75 87.474 443.734 76.798 443.734C66.123 443.734 56.233 438.751 49.671 430.055C48.058 427.922 45.319 426.667 42.648 426.667C19.13 426.667 -0.00195312 445.799 -0.00195312 469.317V503.467C-0.000953125 508.177 3.82205 512 8.53205 512H145.065C149.775 512 153.598 508.177 153.598 503.467V469.317C153.599 445.798 134.467 426.667 110.949 426.667ZM136.532 494.933H17.066V469.316C17.066 456.473 26.572 445.815 39.082 444.006C48.793 454.733 62.301 460.8 76.799 460.8C91.306 460.8 104.822 454.724 114.533 443.981C126.949 445.73 136.532 456.431 136.532 469.316V494.933Z" fill="#017EF6"/>
<path d="M435.2 358.4C406.972 358.4 384 381.363 384 409.6C384 437.837 406.972 460.8 435.2 460.8C463.428 460.8 486.4 437.837 486.4 409.6C486.4 381.363 463.428 358.4 435.2 358.4ZM435.2 443.733C416.375 443.733 401.067 428.424 401.067 409.6C401.067 390.775 416.376 375.467 435.2 375.467C454.025 375.467 469.333 390.776 469.333 409.6C469.333 428.425 454.025 443.733 435.2 443.733Z" fill="#017EF6"/>
<path d="M469.349 426.667H469.136C466.465 426.667 463.939 427.921 462.326 430.055C455.764 438.75 445.874 443.734 435.198 443.734C424.523 443.734 414.633 438.751 408.071 430.055C406.458 427.922 403.719 426.667 401.048 426.667C377.53 426.667 358.398 445.799 358.398 469.317V503.467C358.398 508.177 362.221 512 366.931 512H503.464C508.174 512 511.997 508.177 511.997 503.467V469.317C511.999 445.798 492.867 426.667 469.349 426.667ZM494.932 494.933H375.466V469.316C375.466 456.473 384.972 445.815 397.482 444.006C407.193 454.732 420.701 460.8 435.199 460.8C449.706 460.8 463.222 454.724 472.933 443.981C485.349 445.73 494.932 456.431 494.932 469.316V494.933Z" fill="#017EF6"/>
<path d="M397.406 42.6151C390.059 37.7421 382.396 33.2031 374.631 29.1321C370.458 26.9471 365.304 28.5521 363.111 32.7251C360.926 36.8981 362.539 42.0601 366.712 44.2451C373.965 48.0511 381.116 52.2831 387.969 56.8321C389.42 57.7961 391.058 58.2571 392.679 58.2571C395.435 58.2571 398.149 56.9171 399.796 54.4431C402.398 50.5171 401.331 45.2181 397.406 42.6151Z" fill="#017EF6"/>
<path d="M329.011 10.5812C313.301 5.91321 297.037 2.74721 280.67 1.17721C275.994 0.759211 271.804 4.17221 271.36 8.85721C270.908 13.5422 274.347 17.7152 279.04 18.1672C294.315 19.6352 309.495 22.5872 324.147 26.9392C324.958 27.1782 325.777 27.2972 326.579 27.2972C330.248 27.2972 333.645 24.8912 334.762 21.1962C336.102 16.6742 333.525 11.9212 329.011 10.5812Z" fill="#017EF6"/>
<path d="M231.434 1.16901C215.067 2.73101 198.803 5.88801 183.084 10.556C178.57 11.896 175.993 16.649 177.333 21.163C178.434 24.875 181.83 27.273 185.508 27.273C186.31 27.273 187.129 27.154 187.949 26.915C202.609 22.563 217.782 19.61 233.056 18.16C237.741 17.716 241.18 13.552 240.736 8.85901C240.292 4.16601 236.127 0.734013 231.434 1.16901Z" fill="#017EF6"/>
<path d="M148.889 32.7251C146.704 28.5521 141.542 26.9481 137.369 29.1321C129.604 33.2021 121.941 37.7421 114.593 42.6151C110.668 45.2181 109.593 50.5171 112.204 54.4421C113.842 56.9171 116.556 58.2561 119.321 58.2561C120.942 58.2561 122.581 57.7951 124.031 56.8311C130.883 52.2741 138.043 48.0421 145.288 44.2441C149.469 42.0611 151.073 36.8981 148.889 32.7251Z" fill="#017EF6"/>
<path d="M483.969 352.734C479.702 350.729 474.625 352.589 472.628 356.856C469.163 364.28 465.264 371.619 461.04 378.667C458.625 382.712 459.931 387.951 463.975 390.375C465.349 391.203 466.859 391.595 468.353 391.595C471.254 391.595 474.087 390.11 475.666 387.448C480.197 379.896 484.379 372.037 488.091 364.075C490.087 359.808 488.236 354.731 483.969 352.734Z" fill="#017EF6"/>
<path d="M510.84 231.586C510.396 226.893 506.249 223.496 501.539 223.897C496.846 224.341 493.407 228.505 493.85 233.198C494.575 240.733 494.934 248.404 494.934 255.999C494.934 269.567 493.782 283.178 491.521 296.456C490.736 301.098 493.859 305.51 498.501 306.303C498.979 306.388 499.465 306.422 499.943 306.422C504.022 306.422 507.632 303.487 508.34 299.331C510.771 285.107 512 270.532 512 256C512 247.868 511.607 239.65 510.84 231.586Z" fill="#017EF6"/>
<path d="M495.48 165.47C492.374 157.269 488.79 149.112 484.83 141.235C482.705 137.028 477.577 135.321 473.37 137.446C469.155 139.562 467.456 144.691 469.573 148.906C473.268 156.253 476.613 163.865 479.514 171.519C480.803 174.924 484.045 177.032 487.493 177.032C488.5 177.032 489.515 176.853 490.522 176.477C494.934 174.805 497.153 169.882 495.48 165.47Z" fill="#017EF6"/>
<path d="M38.6382 137.446C34.4232 135.321 29.2942 137.028 27.1782 141.235C23.2192 149.111 19.6352 157.269 16.5282 165.47C14.8552 169.882 17.0742 174.806 21.4862 176.478C22.4842 176.853 23.5002 177.033 24.5072 177.033C27.9542 177.033 31.1972 174.925 32.4942 171.52C35.3952 163.866 38.7402 156.254 42.4352 148.907C44.5522 144.691 42.8452 139.563 38.6382 137.446Z" fill="#017EF6"/>
<path d="M20.471 296.397C18.21 283.145 17.066 269.551 17.066 256C17.066 248.371 17.433 240.683 18.141 233.156C18.593 228.463 15.154 224.298 10.461 223.846C5.81 223.445 1.603 226.833 1.16 231.526C0.393 239.599 0 247.825 0 256C0 270.515 1.229 285.065 3.644 299.264C4.361 303.428 7.962 306.364 12.049 306.364C12.527 306.364 13.013 306.33 13.491 306.244C18.142 305.451 21.265 301.039 20.471 296.397Z" fill="#017EF6"/>
<path d="M50.943 378.667C46.719 371.618 42.819 364.28 39.355 356.856C37.358 352.589 32.281 350.729 28.014 352.734C23.747 354.731 21.904 359.808 23.892 364.075C27.613 372.037 31.785 379.896 36.317 387.448C37.921 390.119 40.746 391.595 43.647 391.595C45.14 391.595 46.651 391.202 48.008 390.375C52.052 387.951 53.366 382.711 50.943 378.667Z" fill="#017EF6"/>
<path d="M375.442 221.867H221.885C212.464 221.867 204.801 229.53 204.801 238.951V341.317C204.801 350.738 212.464 358.401 221.893 358.401H303.668L352.368 407.101C353.998 408.731 356.182 409.601 358.401 409.601C359.502 409.601 360.611 409.388 361.669 408.952C364.852 407.629 366.934 404.515 366.934 401.067V358.4H375.45C384.871 358.4 392.534 350.737 392.534 341.308V238.95C392.534 229.53 384.871 221.867 375.442 221.867ZM375.451 341.333H358.401C353.691 341.333 349.868 345.156 349.868 349.866V380.467L313.234 343.833C311.638 342.229 309.462 341.333 307.201 341.333L221.868 341.307V238.95L221.885 238.933L375.468 238.95L375.451 341.333Z" fill="#017EF6"/>
<path d="M281.575 170.667H128.018C118.597 170.667 110.934 178.33 110.934 187.751V290.117C110.934 299.538 118.597 307.201 128.018 307.201H136.534V349.868C136.534 353.315 138.616 356.43 141.808 357.753C142.858 358.188 143.967 358.402 145.068 358.402C147.287 358.402 149.471 357.532 151.101 355.902L199.801 307.202H213.335C218.045 307.202 221.868 303.379 221.868 298.669V238.95L290.135 238.933C294.845 238.933 298.668 235.11 298.668 230.4V187.75C298.668 178.33 291.005 170.667 281.575 170.667ZM281.601 221.867H221.885C212.464 221.867 204.801 229.53 204.801 238.951V290.134H196.268C194.007 290.134 191.831 291.03 190.235 292.634L153.601 329.267V298.666C153.601 293.956 149.778 290.133 145.068 290.133L128.001 290.116L128.018 187.733L281.601 187.75V221.867Z" fill="#017EF6"/>
<path d="M298.667 264.533H247.467C242.757 264.533 238.934 268.356 238.934 273.066C238.934 277.776 242.757 281.599 247.467 281.599H298.667C303.377 281.599 307.2 277.776 307.2 273.066C307.2 268.356 303.377 264.533 298.667 264.533Z" fill="#017EF6"/>
<path d="M349.868 264.533H332.801C328.091 264.533 324.268 268.356 324.268 273.066C324.268 277.776 328.091 281.599 332.801 281.599H349.868C354.578 281.599 358.401 277.776 358.401 273.066C358.401 268.356 354.578 264.533 349.868 264.533Z" fill="#017EF6"/>
<path d="M349.868 298.667H298.668C293.958 298.667 290.135 302.49 290.135 307.2C290.135 311.91 293.958 315.733 298.668 315.733H349.868C354.578 315.733 358.401 311.91 358.401 307.2C358.401 302.49 354.578 298.667 349.868 298.667Z" fill="#017EF6"/>
<path d="M264.534 298.667H247.467C242.757 298.667 238.934 302.49 238.934 307.2C238.934 311.91 242.757 315.733 247.467 315.733H264.534C269.244 315.733 273.067 311.91 273.067 307.2C273.067 302.49 269.245 298.667 264.534 298.667Z" fill="#017EF6"/>
<path d="M171.511 479.514C163.865 476.613 156.262 473.276 148.898 469.573C144.691 467.465 139.554 469.155 137.438 473.362C135.322 477.577 137.02 482.706 141.235 484.822C149.12 488.79 157.278 492.374 165.47 495.472C166.468 495.847 167.484 496.027 168.491 496.027C171.939 496.027 175.181 493.919 176.47 490.514C178.142 486.101 175.923 481.178 171.511 479.514Z" fill="#017EF6"/>
<path d="M294.126 500.693C293.563 496.017 289.339 492.672 284.637 493.235C265.744 495.496 246.194 495.496 227.225 493.218C222.532 492.655 218.299 495.991 217.736 500.668C217.181 505.344 220.518 509.594 225.194 510.157C235.365 511.377 245.725 512 255.999 512C266.248 512 276.573 511.386 286.668 510.182C291.353 509.619 294.689 505.37 294.126 500.693Z" fill="#017EF6"/>
<path d="M374.554 473.361C372.429 469.154 367.301 467.447 363.094 469.572C355.738 473.275 348.127 476.621 340.481 479.513C336.078 481.177 333.851 486.101 335.523 490.512C336.82 493.917 340.063 496.025 343.51 496.025C344.517 496.025 345.532 495.846 346.522 495.47C354.714 492.364 362.872 488.78 370.757 484.82C374.972 482.705 376.67 477.577 374.554 473.361Z" fill="#017EF6"/>
</g>
<defs>
<clipPath id="clip0_15_49796">
<rect width="512" height="512" fill="white"/>
</clipPath>
</defs>
</svg>
