<svg width="683" height="683" viewBox="0 0 683 683" fill="none" xmlns="http://www.w3.org/2000/svg">
<g clip-path="url(#clip0_15_49892)">
<path d="M231.812 385.906C226.693 383.823 220.88 386.239 218.802 391.359C218.396 392.297 208.489 414.39 175.198 414.39C141.526 414.39 129.51 391.906 128.927 390.765C126.479 385.844 120.521 383.818 115.583 386.229C110.62 388.656 108.563 394.64 110.984 399.604C111.677 401.021 128.505 434.39 175.198 434.39C222.37 434.39 236.703 400.427 237.291 398.979C239.37 393.864 236.927 387.984 231.812 385.906Z" fill="#0C2453"/>
<path d="M138.427 340.812C139.927 341.62 141.546 342 143.14 342C146.677 342 150.109 340.12 151.921 336.797C154.572 331.953 152.796 325.88 147.947 323.229C147.119 322.771 127.349 312.229 101.395 320.969C96.1559 322.729 93.3434 328.401 95.1038 333.635C96.8694 338.87 102.541 341.677 107.776 339.922C125.031 334.109 137.734 340.458 138.427 340.812Z" fill="#0C2453"/>
<path d="M246.608 320.969C220.645 312.229 200.879 322.771 200.051 323.229C195.207 325.875 193.379 331.979 196.03 336.823C197.853 340.151 201.27 342.042 204.801 342.042C206.41 342.042 208.041 341.651 209.561 340.823C210.093 340.547 222.853 334.073 240.228 339.922C245.462 341.677 251.134 338.87 252.895 333.635C254.655 328.401 251.843 322.729 246.608 320.969Z" fill="#0C2453"/>
<path d="M381.764 125.917C365.405 125.917 351.994 138.459 351.233 154.469C350.848 162.589 353.77 170.209 358.869 175.917C353.77 181.625 350.848 189.245 351.233 197.365C351.764 208.568 358.494 218.078 368.098 222.776C365.905 226.969 364.764 231.766 364.78 237.005C364.822 249.417 372.848 260.026 384.046 264.115C382.29 267.771 381.327 271.818 381.233 276.162C381.061 283.906 384.004 291.276 389.52 296.911C395.118 302.635 402.894 305.917 410.853 305.917H552.519C576.457 305.917 595.925 286.443 595.925 262.505V194.287C595.925 171.62 573.009 150.792 548.248 131.657C535.868 122.094 526.269 109.401 520.493 94.9484L503.811 53.2349C498.28 38.8808 479.087 43.8495 472.764 45.4849C465.65 47.3287 459.743 51.9224 456.124 58.4276C450.561 68.4328 450.405 82.0994 455.65 99.0473L461.212 120.521C448.077 124.344 431.181 125.573 418.973 125.922H381.764V125.917ZM419.389 145.917C433.603 145.521 453.848 143.98 469.561 138.875C478.384 136.011 483.478 126.74 481.155 117.771L474.952 93.8025C474.91 93.6411 474.863 93.4848 474.816 93.3286C472.014 84.3494 468.832 67.162 477.78 64.8442C482.144 63.714 484.78 63.3599 486.285 63.2713L501.92 102.375C509.024 120.141 520.811 135.74 536.014 147.485C546.931 155.917 575.925 178.323 575.925 194.287V262.511C575.925 275.417 565.425 285.922 552.519 285.922H410.853C405.738 285.922 401.113 281.745 401.228 276.604C401.264 274.927 401.374 269.813 410.144 266.594C415.004 264.802 417.868 259.807 416.962 254.719C416.051 249.62 411.634 245.922 406.457 245.922H394.264C389.228 245.922 384.78 241.724 384.78 236.938C384.78 232.13 387.686 225.912 394.572 225.912C394.634 225.912 409.046 225.922 409.046 225.922C414.572 225.922 419.046 221.443 419.046 215.922C419.046 210.396 414.572 205.922 409.046 205.922C399.082 205.922 391.884 205.922 381.764 205.922C376.197 205.922 371.462 201.662 371.212 196.422C370.973 191.401 374.499 186.959 379.41 186.078C381.155 185.766 383.759 186.005 405.592 185.922C411.118 185.922 415.592 181.443 415.592 175.922C415.592 170.396 411.118 165.922 405.592 165.922H381.202C375.395 165.922 370.947 161.037 371.212 155.422C371.462 150.183 376.197 145.922 381.764 145.922H419.113C419.207 145.917 419.301 145.917 419.389 145.917Z" fill="#0C2453"/>
<path d="M580.317 0.000488281H426.666C421.145 0.000488281 416.666 4.47965 416.666 10.0005C416.666 15.5265 421.145 20.0004 426.666 20.0004H580.317C625.723 20.0004 662.665 56.8285 662.665 102.094V323.87C662.665 369.13 625.723 405.958 580.317 405.958H464.666C459.145 405.958 454.666 410.437 454.666 415.958C454.666 434.89 450.374 458.833 418.905 467.51C429.832 450.614 428.786 427.333 425.374 413.552C424.265 409.093 420.26 405.958 415.666 405.958H298.541C300.88 398.151 302.515 390.041 303.348 381.703C332.192 386.911 347.999 356.208 347.999 325.333C347.999 303.792 340.624 287.406 328.072 279.505C334.145 266.62 336.729 249.427 326.385 229.234C327.916 181.016 308.239 156.073 291.275 143.594C277.312 133.323 262.979 129.761 256.119 128.573C250.552 123.125 237.031 112.271 213.333 106.495V102.094C213.333 56.8285 250.27 20.0004 295.682 20.0004H383.999C389.52 20.0004 393.999 15.5265 393.999 10.0005C393.999 4.47965 389.52 0.000488281 383.999 0.000488281H295.682C239.244 0.000488281 193.333 45.8025 193.333 102.094V103.255C176.255 101.766 155.458 102.948 130.448 108.974C114.703 112.771 100.344 117.677 87.7759 123.568C82.7707 125.912 80.6196 131.865 82.9634 136.865C85.3019 141.87 91.255 144.021 96.2602 141.677C107.614 136.36 120.692 131.896 135.135 128.417C162.708 121.776 184.114 121.568 200.349 124.162C201.145 124.412 201.989 124.547 202.864 124.589C231.062 129.755 242.682 143.328 243.385 144.177C245.119 146.375 247.692 147.75 250.489 147.959C250.63 147.974 265.338 149.344 279.421 159.703C298.838 173.985 307.88 198 306.296 231.078C306.208 232.948 306.645 234.807 307.562 236.443C315.734 251.036 315.26 264.495 306.124 277.599C299.729 286.766 291.072 292.672 288.734 294.167C287.713 294.49 285.177 295.109 283.177 294.182C280.916 293.13 279.489 289.99 278.692 287.531C272.39 268.104 263.927 260.286 256.463 253.391C249.057 246.547 242.661 240.635 236.838 221.412C235.677 217.578 232.338 214.802 228.359 214.37C224.369 213.927 220.515 215.917 218.552 219.412C214.739 226.198 203.125 246.839 153.708 245.068C112.286 243.557 78.2603 258.219 64.8957 283.292C61.1665 290.281 57.9166 292.766 56.4374 293.38C23.5208 274.146 37.0208 244.76 38.677 241.469C39.7968 239.297 40.0833 236.797 39.4843 234.427C39.3853 234.042 30.1406 195.542 63.5572 163.459C67.5415 159.636 67.6717 153.302 63.8488 149.318C60.0207 145.334 53.6926 145.203 49.7082 149.031C14.0364 183.276 17.3437 223.5 19.3698 235.703C17.4375 240.5 14.4531 249.776 14.6771 261C14.7968 266.792 15.7916 273.484 18.5625 280.385C6.7552 288.588 0 304.516 0 325.333C0 356.719 16.2343 386.823 44.6405 381.703C47.5884 411.515 60.6197 439.151 82.0728 460.588C96.0206 474.546 112.588 484.932 130.666 491.302V509.661L93.8436 522.02C91.2602 522.89 89.2186 524.744 88.0623 527.088C40.6093 543.442 7.99998 593.005 7.99998 650.135V672.666C7.99998 678.192 12.4791 682.666 18 682.666H329.999C335.52 682.666 339.999 678.192 339.999 672.666V650.135C339.999 634.827 337.661 619.848 333.051 605.614C331.348 600.359 325.713 597.478 320.458 599.182C315.203 600.885 312.322 606.525 314.025 611.781C317.989 624.02 319.999 636.921 319.999 650.135V662.666H204.765L237.348 638.984C239.937 637.103 241.468 634.098 241.468 630.895V610.359L256.843 599.213C259.437 597.327 260.973 594.322 260.973 591.114V549.015C274.229 555.088 286.13 564.661 295.88 577.208C297.848 579.739 300.801 581.067 303.781 581.067C305.926 581.067 308.088 580.38 309.911 578.963C314.27 575.572 315.057 569.291 311.671 564.932C297.692 546.953 279.906 533.984 259.932 527.083C258.781 524.744 256.739 522.89 254.151 522.02L217.333 509.661V491.234C249.468 479.838 275.833 456.14 290.734 425.833C292.39 425.911 294.041 425.958 295.677 425.958H407.176C407.619 430.088 407.874 435.463 407.234 441.01C405.629 455.015 399.338 463.364 388.004 466.536C381.916 468.239 377.978 474.276 378.843 480.572C379.661 486.52 384.614 490.838 390.614 490.838C415.244 490.838 434.848 485.541 448.885 475.088C463.765 464 472.265 447.505 474.228 425.958H580.322C636.754 425.958 682.665 380.161 682.665 323.87V102.094C682.665 45.8025 636.754 0.000488281 580.317 0.000488281ZM303.999 361.208V307.891C307.551 305.239 312.26 301.292 316.864 296.151C324.973 300.833 327.999 313.641 327.999 325.333C327.999 343.114 320.317 367.578 303.999 361.208ZM20 325.333C20 314.651 22.5729 302.755 29.401 297.323C33.2551 301.479 38.0468 305.505 43.9999 309.229V361.208C27.6406 367.594 20 343.114 20 325.333ZM107.026 538.692L130.047 530.963L158.026 648.692L126.531 625.801V605.26C126.531 602.057 124.995 599.046 122.401 597.166L107.026 586.015V538.692ZM153.104 541.494H194.895L174 629.411L153.104 541.494ZM27.9999 650.135C27.9999 604.718 51.7082 565.078 87.0259 548.999V591.114C87.0259 594.317 88.5623 597.327 91.1561 599.208L106.531 610.359V630.895C106.531 634.093 108.062 637.103 110.651 638.984L143.234 662.666H27.9999V650.135ZM240.973 538.692V586.015L225.599 597.166C223.005 599.046 221.468 602.057 221.468 605.26V625.801L189.974 648.692L217.953 530.963L240.973 538.692ZM197.333 521.494H150.666V496.583C166.067 499.359 181.922 499.369 197.333 496.562V521.494ZM96.2134 446.448C75.4426 425.687 63.9999 398.062 63.9999 368.666V311.932C69.7238 309.599 76.4009 304.224 82.5415 292.698C92.1352 274.703 119.791 263.854 152.984 265.057C184.645 266.198 208.531 259.224 224.291 244.286C230.276 256.422 236.875 262.521 242.895 268.078C249.645 274.318 254.979 279.245 259.671 293.708C263.411 305.234 270.151 310.292 275.151 312.505C278.197 313.854 281.213 314.448 283.999 314.609V368.666C283.999 466.02 165.297 515.572 96.2134 446.448Z" fill="#0C2453"/>
</g>
<defs>
<clipPath id="clip0_15_49892">
<rect width="682.667" height="682.667" fill="white"/>
</clipPath>
</defs>
</svg>
