<svg width="512" height="512" viewBox="0 0 512 512" fill="none" xmlns="http://www.w3.org/2000/svg">
<path d="M314.912 15.9592V8.21619C314.912 4.90619 312.227 2.22119 308.917 2.22119C305.607 2.22119 302.922 4.90619 302.922 8.21619V15.9592C302.922 19.2692 305.607 21.9542 308.917 21.9542C312.227 21.9542 314.912 19.2692 314.912 15.9592Z" fill="#017EF6"/>
<path d="M93.3251 355.605C82.3811 347.291 65.8051 347.962 55.9261 357.848L15.7111 398.055C14.5871 399.179 13.9551 400.701 13.9551 402.293C13.9551 403.885 14.5871 405.407 15.7111 406.531L117.208 508.021C119.551 510.364 123.343 510.363 125.685 508.021L165.892 467.814C175.596 458.11 176.794 443.071 169.495 432.044L175.423 426.116C181.215 420.324 189.934 418.381 197.669 421.206L242.755 437.59C288.637 454.244 318.823 427.413 374.374 410.559C388.955 405.142 401.842 395.884 411.646 383.762L491.662 284.56C497.54 277.23 499.476 267.84 496.97 258.793C494.464 249.762 487.97 242.713 479.228 239.482C468.573 235.384 455.335 238.296 447.186 246.585L374.885 318.661C366.102 306.707 351.27 300.049 336.103 302.208L292.235 308.523C277.092 310.67 261.902 308.055 248.32 300.92L246.954 300.194C218.151 285.035 182.791 287.9 156.861 307.516L93.3251 355.605ZM157.416 459.338L121.447 495.307L28.4271 402.294L64.4031 366.325C70.6011 360.104 81.4271 360.112 87.6251 366.325L157.416 436.108C163.817 442.517 163.817 452.929 157.416 459.338ZM241.358 310.804L242.732 311.53C258.57 319.843 276.273 322.895 293.929 320.389L337.805 314.074C350.536 312.263 362.971 319.14 368.278 330.786C369.777 334.025 369.753 337.756 368.216 341.011C366.655 344.313 363.743 346.733 360.223 347.661L277.334 369.322C274.126 370.157 272.213 373.436 273.049 376.636C273.887 379.848 277.177 381.755 280.363 380.921L363.259 359.26C370.222 357.426 375.982 352.641 379.058 346.123C381.477 341.001 381.924 335.295 380.562 329.93L455.695 255.039C460.628 250.004 468.426 248.17 474.998 250.699C480.158 252.611 483.959 256.725 485.419 262.002C486.886 267.279 485.747 272.766 482.32 277.044L402.32 376.231C393.874 386.675 382.767 394.652 370.192 399.328C312.831 417.099 287.111 440.909 246.847 426.32L201.761 409.936C189.662 405.541 176.01 408.578 166.948 417.64L161.425 423.163L102.184 363.928L164.091 317.08C186.336 300.266 216.661 297.807 241.358 310.804Z" fill="#017EF6"/>
<path d="M207.966 135.191L304.14 260.488C306.722 263.86 311.467 263.321 313.647 260.488L409.868 135.191C411.709 132.796 411.161 130.722 410.04 128.158C398.457 111.536 379.249 83.7522 377.733 81.8052C376.531 80.2722 374.685 79.4742 373.056 79.4742C292.402 79.3952 321.756 79.4122 244.793 79.4122C244.785 79.4122 244.785 79.4122 244.785 79.4122C242.903 79.4122 241.194 80.3292 240.074 81.7882C240.008 81.8722 239.897 81.8992 239.836 81.9882L207.794 128.096C206.363 130.145 206.517 133.304 207.966 135.191ZM272.206 137.568L295.858 230.01L224.88 137.534C225.701 137.534 275.374 137.57 272.206 137.568ZM393.618 125.543C392.809 125.543 349.798 125.526 352.511 125.527L373.058 95.9602L393.618 125.543ZM288.379 125.528L308.926 95.9612L329.486 125.544C328.678 125.543 285.667 125.527 288.379 125.528ZM333.254 137.565L308.909 232.653L284.571 137.533C285.391 137.533 336.422 137.567 333.254 137.565ZM345.635 137.533C346.456 137.533 396.099 137.562 392.932 137.56L321.977 229.955L345.635 137.533ZM361.52 91.4562L340.973 121.023L320.391 91.4092L361.52 91.4562ZM297.388 91.4562L276.841 121.023L256.259 91.4092L297.388 91.4562ZM244.762 95.9132L265.355 125.543C264.546 125.543 221.466 125.526 224.178 125.527L244.762 95.9132Z" fill="#017EF6"/>
<path d="M443.003 148.305C446.313 148.305 448.998 145.62 448.998 142.31C448.998 139 446.313 136.315 443.003 136.315H435.268C431.958 136.315 429.273 139 429.273 142.31C429.273 145.62 431.958 148.305 435.268 148.305H443.003Z" fill="#017EF6"/>
<path d="M182.566 148.297C185.876 148.297 188.561 145.612 188.561 142.302C188.561 138.992 185.876 136.307 182.566 136.307H174.831C171.521 136.307 168.836 138.992 168.836 142.302C168.836 145.612 171.521 148.297 174.831 148.297H182.566Z" fill="#017EF6"/>
<path d="M402.499 57.205L407.971 51.733C410.313 49.391 410.313 45.598 407.971 43.256C405.629 40.914 401.836 40.914 399.494 43.256L394.022 48.728C391.68 51.07 391.68 54.863 394.022 57.205C396.364 59.547 400.157 59.546 402.499 57.205Z" fill="#017EF6"/>
<path d="M215.334 227.408L209.862 232.88C207.52 235.222 207.52 239.015 209.862 241.357C212.205 243.7 215.997 243.699 218.339 241.357L223.811 235.885C226.153 233.543 226.153 229.75 223.811 227.408C221.469 225.066 217.676 225.066 215.334 227.408Z" fill="#017EF6"/>
<path d="M394.022 227.408C391.68 229.75 391.68 233.543 394.022 235.885L399.494 241.357C401.837 243.7 405.629 243.699 407.971 241.357C410.313 239.015 410.313 235.222 407.971 232.88L402.499 227.408C400.157 225.066 396.364 225.066 394.022 227.408Z" fill="#017EF6"/>
<path d="M223.819 57.1972C226.161 54.8552 226.161 51.0622 223.819 48.7202L218.347 43.2482C216.005 40.9062 212.212 40.9062 209.87 43.2482C207.528 45.5902 207.528 49.3832 209.87 51.7252L215.342 57.1972C217.685 59.5392 221.477 59.5392 223.819 57.1972Z" fill="#017EF6"/>
</svg>
