<svg width="512" height="512" viewBox="0 0 512 512" fill="none" xmlns="http://www.w3.org/2000/svg">
<path fill-rule="evenodd" clip-rule="evenodd" d="M373 455H111C81 455 56 430 56 400V310C56 306 59 303 63 303C67 303 70 306 70 310V400C70 422 89 441 111 441H373C395 441 414 422 414 400V103C414 82 396 64 375 64H109C88 64 70 82 70 103V168C70 172 67 175 63 175C59 175 56 172 56 168V103C56 74 80 50 109 50H375C404 50 428 74 428 103V400C428 430 403 455 373 455Z" fill="#0C2453"/>
<path fill-rule="evenodd" clip-rule="evenodd" d="M334 296H94C90 296 87 293 87 289C87 285 90 282 94 282H334C361 282 383 260 383 233V110H101V186C101 190 98 193 94 193C90 193 87 190 87 186V103C87 99 90 96 94 96H390C394 96 397 99 397 103V233C397 250 390 266 378 278C366 289 351 296 334 296Z" fill="#0C2453"/>
<path fill-rule="evenodd" clip-rule="evenodd" d="M242 296C238 296 235 293 235 289V105C235 101 238 98 242 98C246 98 249 101 249 105V289C249 293 246 296 242 296Z" fill="#0C2453"/>
<path fill-rule="evenodd" clip-rule="evenodd" d="M308 296C305 296 303 295 302 292L242 184L182 292C180 296 176 297 173 295C169 293 168 289 170 286L236 166C237 163 239 162 242 162C244 162 247 163 248 166L314 286C316 289 315 293 311 295C310 296 309 296 308 296Z" fill="#0C2453"/>
<path fill-rule="evenodd" clip-rule="evenodd" d="M376 376H108C104 376 101 373 101 369V334C101 330 104 327 108 327H376C380 327 383 330 383 334V369C383 373 380 376 376 376ZM115 362H369V341H115V362Z" fill="#0C2453"/>
<path fill-rule="evenodd" clip-rule="evenodd" d="M374 409H110C106 409 103 406 103 402C103 398 106 395 110 395H374C378 395 381 398 381 402C381 406 378 409 374 409Z" fill="#0C2453"/>
<path fill-rule="evenodd" clip-rule="evenodd" d="M290 64C286 64 283 61 283 57V35C283 26 276 19 268 19H217C209 19 202 26 202 35V57C202 61 199 64 195 64C191 64 188 61 188 57V35C188 19 201 5 217 5H268C284 5 297 19 297 35V57C297 61 294 64 290 64Z" fill="#0C2453"/>
<path fill-rule="evenodd" clip-rule="evenodd" d="M131 507H121C100 507 82 489 82 468V443C82 441 83 438 85 437C87 436 90 436 92 437C99 440 105 441 111 441C115 441 118 444 118 448C118 452 115 455 111 455C106 455 101 454 96 453V468C96 481 108 493 121 493H131C144 493 155 481 155 468V448C155 444 158 441 162 441C166 441 169 444 169 448V468C169 489 152 507 131 507Z" fill="#0C2453"/>
<path fill-rule="evenodd" clip-rule="evenodd" d="M363 507H353C332 507 315 489 315 468V448C315 444 318 441 322 441C326 441 329 444 329 448V468C329 481 340 493 353 493H363C376 493 388 481 388 468V453C383 454 378 455 373 455C369 455 366 452 366 448C366 444 369 441 373 441C379 441 385 440 392 437C394 436 397 436 399 437C401 438 402 441 402 443V468C402 489 384 507 363 507Z" fill="#0C2453"/>
<path fill-rule="evenodd" clip-rule="evenodd" d="M63 317C62 317 62 317 61 317C29 306 9 279 3 239C0 225 0 210 0 196C0 193 0 189 1 185C3 181 6 179 9 180C22 182 34 180 46 172C51 169 55 166 58 163C59 162 61 161 63 161C65 161 67 162 68 163C70 165 73 167 76 170C78 170 79 171 80 172C92 180 105 183 117 180C120 179 124 181 125 185C126 189 126 192 126 196C127 209 126 223 124 238C116 280 97 306 65 317C65 317 64 317 63 317ZM14 195V196C14 210 14 223 17 236V237C20 260 31 290 63 302C88 293 104 271 110 236C112 222 113 209 112 197C112 196 112 196 112 196V195C99 196 85 192 72 184C71 183 70 182 68 181C67 180 65 179 63 177C60 180 57 182 54 184C40 192 27 196 14 195Z" fill="#0C2453"/>
<path fill-rule="evenodd" clip-rule="evenodd" d="M48 268C46 268 45 267 43 266L29 253C26 250 26 246 29 243C31 240 36 240 39 243L48 251L65 233L87 211C90 208 94 208 97 211C100 214 100 218 97 221L75 243L53 266C52 267 50 268 48 268Z" fill="#0C2453"/>
<path fill-rule="evenodd" clip-rule="evenodd" d="M475 272H421C417 272 414 269 414 265C414 261 417 258 421 258H468V225C468 221 471 218 475 218C479 218 482 221 482 225V265C482 269 479 272 475 272Z" fill="#0C2453"/>
<path fill-rule="evenodd" clip-rule="evenodd" d="M505 232H447C443 232 440 229 440 225V125C440 121 443 118 447 118H505C509 118 512 121 512 125V225C512 229 509 232 505 232ZM454 218H498V132H454V218Z" fill="#0C2453"/>
<path fill-rule="evenodd" clip-rule="evenodd" d="M429 507H58C54 507 51 504 51 500C51 496 54 493 58 493H429C433 493 436 496 436 500C436 504 433 507 429 507Z" fill="#0C2453"/>
</svg>
