<svg width="512" height="512" viewBox="0 0 512 512" fill="none" xmlns="http://www.w3.org/2000/svg">
<path fill-rule="evenodd" clip-rule="evenodd" d="M378.99 456H260.158C255.974 474.32 239.574 488 219.998 488C200.422 488 184.022 474.32 179.838 456H167.998C163.582 456 159.998 452.416 159.998 448V443.184C80.646 413.872 23.998 337.496 23.998 248C23.998 133.2 117.198 40 231.998 40C346.798 40 439.998 133.2 439.998 248C439.998 254.512 439.694 260.96 439.11 267.32H444.694C448.046 267.32 451.046 269.416 452.206 272.568L487.51 368.976C487.83 369.856 487.998 370.792 487.998 371.728V448C487.998 452.416 484.414 456 479.998 456H459.31C455.126 474.32 438.718 488 419.15 488C399.574 488 383.166 474.32 378.99 456ZM419.15 421.616C433.054 421.616 444.342 432.904 444.342 446.808C444.342 460.712 433.054 472 419.15 472C405.246 472 393.958 460.712 393.958 446.808C393.958 432.904 405.246 421.616 419.15 421.616ZM219.998 421.616C233.902 421.616 245.19 432.904 245.19 446.808C245.19 460.712 233.902 472 219.998 472C206.094 472 194.806 460.712 194.806 446.808C194.806 432.904 206.094 421.616 219.998 421.616ZM219.998 427.744C209.478 427.744 200.934 436.288 200.934 446.808C200.934 457.328 209.478 465.872 219.998 465.872C230.518 465.872 239.062 457.328 239.062 446.808C239.062 436.288 230.518 427.744 219.998 427.744ZM419.15 427.744C408.622 427.744 400.086 436.288 400.086 446.808C400.086 457.328 408.622 465.872 419.15 465.872C429.67 465.872 438.214 457.328 438.214 446.808C438.214 436.288 429.67 427.744 419.15 427.744ZM219.998 443.744C221.686 443.744 223.062 445.12 223.062 446.808C223.062 448.496 221.686 449.872 219.998 449.872C218.31 449.872 216.934 448.496 216.934 446.808C216.934 445.12 218.31 443.744 219.998 443.744ZM419.15 443.744C420.838 443.744 422.214 445.12 422.214 446.808C422.214 448.496 420.838 449.872 419.15 449.872C417.454 449.872 416.086 448.496 416.086 446.808C416.086 445.12 417.454 443.744 419.15 443.744ZM471.998 395.072V382.896H398.974C394.558 382.896 390.974 379.312 390.974 374.896V302.976C390.974 298.56 394.558 294.976 398.974 294.976H443.374L439.102 283.32H375.998V440H378.518C381.766 420.504 398.734 405.616 419.15 405.616C439.566 405.616 456.526 420.504 459.774 440H471.998V437.696C468.102 436.816 464.502 434.856 461.63 431.984C457.646 428 455.406 422.592 455.406 416.952C455.406 416.576 455.406 416.192 455.406 415.816C455.406 410.176 457.646 404.768 461.63 400.784C464.502 397.912 468.102 395.944 471.998 395.072ZM359.998 400H175.998V440H179.366C182.614 420.504 199.582 405.616 219.998 405.616C240.414 405.616 257.382 420.504 260.63 440H359.998V400ZM159.998 411.392V426.024C89.662 397.52 39.998 328.512 39.998 248C39.998 234.656 41.358 221.632 43.958 209.04C58.142 209.776 71.686 219.64 79.374 230.984C87.222 242.552 101.342 259.336 110.558 264.152C115.398 266.68 119.71 266.704 122.926 265.32C123.47 265.08 124.006 264.808 124.526 264.48C118.542 272.944 115.246 282.632 114.19 290.192C111.494 309.456 119.79 318.28 125.414 324.176C128.766 327.704 139.526 331.96 147.35 334.512C157.022 337.672 155.118 346.912 153.31 355.4C151.686 363.08 149.262 371.224 148.518 379.048C147.918 385.328 148.358 391.424 150.534 397.08C152.366 401.872 155.486 405.976 158.806 409.968C159.206 410.448 159.598 410.92 159.998 411.392ZM471.998 413.384C471.606 414.128 471.406 414.96 471.406 415.816V416.952C471.406 417.808 471.606 418.64 471.998 419.384V413.384ZM391.998 400H403.062C407.478 400 411.062 396.416 411.062 392C411.062 387.584 407.478 384 403.062 384H391.998C387.582 384 383.998 387.584 383.998 392C383.998 396.416 387.582 400 391.998 400ZM303.998 228V275.32C303.998 278.048 302.606 280.584 300.31 282.056C298.014 283.528 295.126 283.728 292.646 282.584L271.998 273.064L251.35 282.584C248.87 283.728 245.982 283.528 243.686 282.056C241.39 280.584 239.998 278.048 239.998 275.32V228H175.998V384H359.998V228H303.998ZM319.998 376H343.998C348.414 376 351.998 372.416 351.998 368C351.998 363.584 348.414 360 343.998 360H319.998C315.582 360 311.998 363.584 311.998 368C311.998 372.416 315.582 376 319.998 376ZM469.71 366.896L449.23 310.976H406.974V366.896H469.71ZM319.998 352H343.998C348.414 352 351.998 348.416 351.998 344C351.998 339.584 348.414 336 343.998 336H319.998C315.582 336 311.998 339.584 311.998 344C311.998 348.416 315.582 352 319.998 352ZM159.998 261.016V323.512C158.342 322.28 156.438 321.128 154.254 320.08C150.222 318.152 137.542 316.16 134.126 310.776C131.51 306.656 129.062 299.368 130.038 292.4C131.382 282.744 137.494 267.648 151.438 262.624C154.03 261.696 156.878 261.136 159.998 261.016ZM375.998 267.32H389.182C394.926 235.416 393.262 222.36 392.894 207.112C392.702 199.04 393.166 191.616 394.79 185.64C396.35 179.928 398.99 175.36 402.718 172.16C404.038 171.024 405.502 170.04 407.126 169.24C391.534 134.664 366.006 105.52 334.19 85.464C326.518 90.032 312.478 100.28 305.118 117.464C292.694 146.472 274.966 171.08 259.59 181.52C255.342 184.4 252.998 188.792 254.102 193.216C255.494 198.752 261.334 203.408 271.534 206.352C280.614 208.968 290.422 210.536 299.814 212H367.998C372.414 212 375.998 215.584 375.998 220V267.32ZM423.038 267.32H405.438C410.926 235.712 409.262 222.312 408.894 206.736C408.742 200.384 408.95 194.544 410.23 189.848C410.854 187.552 411.646 185.576 413.142 184.296L413.158 184.28C420.182 204.232 423.998 225.672 423.998 248C423.998 254.52 423.67 260.968 423.038 267.32ZM255.998 228H287.998V262.824L275.35 256.992C273.222 256.008 270.774 256.008 268.646 256.992L255.998 262.824V228ZM248.142 212C242.902 207.464 239.87 202.224 238.582 197.104C235.902 186.424 240.334 175.256 250.598 168.288C264.222 159.032 279.406 136.864 290.414 111.16C297.39 94.864 309.23 83.592 318.678 76.664C292.622 63.448 263.174 56 231.998 56C229.71 56 227.43 56.04 225.174 56.12C224.902 60.768 222.63 67.96 212.958 74.664C210.398 76.44 208.398 78.152 207.014 79.84C206.558 80.384 206.11 81.216 205.87 81.688C206.23 81.976 206.83 82.44 207.334 82.704C209.638 83.912 212.806 84.776 216.806 85.376C226.278 86.816 231.726 91.128 234.67 96.2C237.47 101.032 238.07 106.928 236.71 112.984C235.03 120.432 230.31 128.144 224.63 133.384C220.422 137.264 213.422 139.824 205.478 140.976C192.27 142.896 176.39 141.376 172.358 140.936C171.942 141.296 170.446 142.664 169.502 144.696C166.95 150.16 165.318 159.592 165.99 175.6C165.99 175.6 166.846 189.304 155.214 196.768C148.95 200.784 138.23 203.416 119.814 198.192C114.87 196.784 110.958 196.016 107.91 195.816C107.582 195.8 107.254 195.792 106.918 195.8C107.19 196.344 107.486 196.896 107.774 197.328C109.87 200.432 112.91 203.504 115.814 205.56C122.102 210 126.622 217.184 129.206 225.296C132.822 236.68 132.566 249.76 129.51 258.064C129.43 258.28 129.342 258.496 129.254 258.704C133.75 253.96 139.302 249.992 146.022 247.576C150.206 246.064 154.854 245.128 159.998 245V220C159.998 215.584 163.582 212 167.998 212H248.142ZM208.454 57.432C131.942 66.8 69.286 121.256 47.894 193.384C65.854 195.6 82.8701 207.616 92.6221 222.008C97.4621 229.144 104.934 238.712 111.718 245.104C112.838 246.16 114.286 247.272 115.574 248.192C116.398 242.84 115.862 236.144 113.958 230.144C112.478 225.488 110.19 221.176 106.582 218.624C100.134 214.072 93.3983 206.144 91.0303 199.616C89.3183 194.904 89.5822 190.592 91.3262 187.264C92.9902 184.08 96.0781 181.232 101.726 180.176C106.23 179.344 113.446 179.744 124.19 182.8C135.83 186.104 142.614 185.84 146.574 183.296C150.27 180.928 150.014 176.584 150.014 176.584C150.014 176.536 150.014 176.48 150.006 176.424C147.662 120.44 173.182 124.912 173.422 124.96C173.862 125.008 185.814 126.488 197.534 125.72C203.974 125.296 210.494 124.648 213.782 121.624C216.654 118.968 219.158 115.296 220.494 111.528C221.414 108.936 222.022 106.288 220.83 104.224C219.83 102.504 217.622 101.688 214.406 101.2C206.47 99.992 200.71 97.744 196.99 95.096C193.246 92.432 191.118 89.208 190.206 85.824C188.422 79.2 191.718 69.92 203.846 61.512C205.974 60.04 207.486 58.712 208.454 57.432ZM171.654 140.848H171.758L171.414 140.832L171.654 140.848Z" fill="#0C2453"/>
</svg>
