<svg width="512" height="512" viewBox="0 0 512 512" fill="none" xmlns="http://www.w3.org/2000/svg">
<g clip-path="url(#clip0_24_2)">
<path d="M503.469 268.8H460.802V251.734H477.869C482.581 251.734 486.402 247.913 486.402 243.2C486.402 238.488 482.581 234.667 477.869 234.667H407.731L400.814 206.998C399.864 203.199 396.451 200.534 392.535 200.534H269.809L255.101 171.117C253.655 168.226 250.701 166.4 247.469 166.4H187.735V89.6002C187.735 84.8877 183.914 81.0669 179.202 81.0669H93.8686C89.1561 81.0669 85.3353 84.8877 85.3353 89.6002V166.4H42.6686C37.9561 166.4 34.1353 170.221 34.1353 174.934V209.067C34.1353 211.33 35.0345 213.501 36.6345 215.101L41.618 220.083L27.698 268.8H8.53529C3.82275 268.8 0.00195312 272.621 0.00195312 277.334V311.467C0.00195312 312.917 0.372086 314.344 1.07609 315.611L42.6686 390.478V422.4C42.6686 427.113 46.4894 430.934 51.202 430.934H460.802C465.515 430.934 469.335 427.113 469.335 422.4V398.815L511.101 315.283C511.694 314.098 512.002 312.792 512.002 311.467V277.334C512.002 272.621 508.181 268.8 503.469 268.8ZM443.735 251.734V268.8H416.264L411.998 251.734H443.735ZM273.069 217.6H385.873L398.673 268.8H273.069V217.6ZM242.195 183.467L256.002 211.082V268.8H128.002V183.467H242.195ZM102.402 98.1336H170.669V115.2H102.402V98.1336ZM102.402 132.267H170.669V166.4H102.402V132.267ZM57.2361 211.566L51.202 205.533V183.467H110.935V268.8H45.4473L59.4068 219.947C60.259 216.967 59.4281 213.758 57.2361 211.566ZM157.884 413.867C148.749 413.867 141.343 406.461 141.343 397.326C141.343 388.191 148.749 380.785 157.884 380.785C167.019 380.785 174.424 388.191 174.424 397.326C174.415 406.457 167.014 413.857 157.884 413.867ZM157.884 363.72C142.821 363.741 129.605 373.767 125.527 388.267H103.368C104.91 381.601 108.231 375.48 112.98 370.555L117.652 365.712C124.81 358.35 134.629 354.177 144.898 354.134H264.535V368.724L252.151 388.267H190.24C186.162 373.767 172.946 363.741 157.884 363.72ZM210.211 337.067C227.038 328.015 245.511 322.437 264.535 320.662V337.067H210.211ZM187.121 413.867C188.642 411.193 189.785 408.321 190.519 405.334H325.836C326.57 408.321 327.714 411.193 329.234 413.867H187.121ZM358.471 413.867C349.336 413.868 341.931 406.462 341.929 397.327C341.928 388.192 349.334 380.786 358.469 380.785C367.604 380.784 375.01 388.19 375.011 397.325V397.326C375.001 406.457 367.602 413.856 358.471 413.867ZM358.471 363.72C343.409 363.741 330.193 373.767 326.115 388.267H272.355L280.275 375.768C281.141 374.401 281.602 372.817 281.602 371.2V354.134H325.799C327.601 354.133 329.356 353.563 330.813 352.504L349.445 338.967C353.072 341.048 356.633 343.276 360.086 345.687L377.324 357.719C378.529 358.56 379.932 359.076 381.395 359.217L401.862 361.179C406.249 361.579 409.606 365.259 409.602 369.664V382.982L398.978 388.267H390.829C386.751 373.767 373.535 363.74 358.471 363.72ZM281.602 337.067V320.066C295 320.383 308.287 322.589 321.069 326.619C324.783 327.763 328.438 329.072 332.035 330.518L323.026 337.067H281.602ZM494.935 302.934H452.269V320H489.662L453.17 392.984C452.577 394.169 452.269 395.475 452.269 396.8V413.867H387.709C389.229 411.193 390.372 408.321 391.106 405.334H400.983C402.302 405.334 403.603 405.027 404.784 404.44L421.936 395.906C424.835 394.464 426.669 391.505 426.669 388.267V369.664C426.702 356.457 416.654 345.407 403.503 344.188L385.256 342.44L369.856 331.69C356.485 322.345 341.743 315.137 326.156 310.327C278.726 295.404 227.058 303.324 186.276 331.767L178.659 337.067H144.898C130.009 337.122 115.769 343.168 105.389 353.841L100.684 358.717C90.819 368.939 85.315 382.595 85.3353 396.8C85.3353 401.513 89.1561 405.334 93.8686 405.334H125.249C125.983 408.321 127.126 411.193 128.646 413.867H59.7353V388.267C59.7353 386.817 59.3652 385.39 58.6612 384.123L23.042 320H59.7353V302.934H17.0686V285.867H494.935V302.934Z" fill="#017EF6"/>
<path d="M153.602 234.667H170.669V251.733H153.602V234.667Z" fill="#017EF6"/>
<path d="M187.735 234.667H204.802V251.733H187.735V234.667Z" fill="#017EF6"/>
<path d="M221.869 234.667H238.935V251.733H221.869V234.667Z" fill="#017EF6"/>
<path d="M153.602 200.533H170.669V217.6H153.602V200.533Z" fill="#017EF6"/>
<path d="M187.735 200.533H204.802V217.6H187.735V200.533Z" fill="#017EF6"/>
<path d="M221.869 200.533H238.935V217.6H221.869V200.533Z" fill="#017EF6"/>
<path d="M290.135 234.667H307.202V251.733H290.135V234.667Z" fill="#017EF6"/>
<path d="M324.269 234.667H341.335V251.733H324.269V234.667Z" fill="#017EF6"/>
<path d="M358.402 234.667H375.469V251.733H358.402V234.667Z" fill="#017EF6"/>
</g>
<defs>
<clipPath id="clip0_24_2">
<rect width="512" height="512" fill="white" transform="translate(0.00195312)"/>
</clipPath>
</defs>
</svg>
