<svg width="512" height="512" viewBox="0 0 512 512" fill="none" xmlns="http://www.w3.org/2000/svg">
<path d="M501.13 334.814C497.598 324.387 489.162 316.814 477.377 313.491C464.694 309.915 448.202 311.055 428.355 316.877L338.008 343.382C337.628 342.609 337.221 341.846 336.786 341.092C331.741 332.353 323.624 326.11 313.933 323.513L249.746 306.314C202.902 273.488 177.8 282.918 140.887 300.97C123.227 309.605 105.683 317.955 89.0951 325.794L85.6161 317.441C80.9991 306.358 68.2211 301.084 57.1331 305.69L22.4611 320.087C17.0561 322.332 12.8591 326.525 10.6441 331.895C8.42907 337.264 8.44807 343.197 10.6981 348.599L69.4101 489.581C72.8921 497.945 81.0211 502.999 89.5651 502.998C92.3451 502.998 95.1701 502.463 97.8931 501.332L132.565 486.935C137.97 484.69 142.167 480.497 144.382 475.127C146.597 469.758 146.578 463.825 144.328 458.423L140.395 448.979L162.993 437.992C171.247 433.979 179.544 433.272 188.359 435.83L260.478 456.77C265.788 458.312 271.275 458.972 276.843 458.972C296.011 458.971 316.112 451.15 333.008 444.575C334.496 443.995 335.957 443.427 337.385 442.877L472.735 390.719C494.647 382.278 508.181 355.63 501.13 334.814ZM131.44 469.791C130.652 471.701 129.145 473.199 127.195 474.008L92.5231 488.405C88.5551 490.05 83.9841 488.166 82.3331 484.2L23.6221 343.219C22.8111 341.271 22.7981 339.146 23.5861 337.237C24.3741 335.327 25.8811 333.829 27.8311 333.02L62.5021 318.622C63.4761 318.218 64.4861 318.026 65.4811 318.026C68.5381 318.026 71.4461 319.834 72.6921 322.825L131.404 463.808C132.215 465.756 132.228 467.881 131.44 469.791ZM467.7 377.658L332.35 429.816C330.908 430.372 329.433 430.946 327.93 431.531C308.097 439.249 283.413 448.854 264.381 443.329L192.262 422.389C180.135 418.868 168.227 419.883 156.871 425.404L135.003 436.036L94.4821 338.734C111.291 330.792 129.092 322.322 147.036 313.549C181.537 296.677 201.461 289.235 242.681 318.465C243.359 318.945 244.116 319.301 244.918 319.516L310.309 337.038C316.388 338.666 321.485 342.593 324.661 348.093C327.836 353.593 328.688 359.971 327.059 366.05C325.431 372.13 321.504 377.226 316.003 380.402C310.503 383.577 304.127 384.429 298.046 382.8L211.145 359.514C207.41 358.516 203.572 360.729 202.572 364.464C201.571 368.198 203.787 372.036 207.522 373.037L294.423 396.322C304.114 398.92 314.264 397.57 323.003 392.525C331.742 387.479 337.985 379.363 340.583 369.672C341.716 365.442 342.098 361.124 341.749 356.874L432.296 330.31C462.214 321.534 482.989 324.896 487.87 339.305C492.494 352.957 482.503 371.954 467.7 377.658ZM233.237 263.608L263.496 257.501L273.336 286.76C274.213 289.368 276.537 291.22 279.275 291.494C279.508 291.517 279.741 291.529 279.973 291.529C282.455 291.529 284.775 290.209 286.033 288.029L326.067 218.688C331.518 219.56 337.105 220.019 342.797 220.019C348.49 220.019 354.076 219.56 359.527 218.688L399.561 288.029C400.819 290.209 403.139 291.529 405.621 291.529C405.852 291.529 406.085 291.517 406.319 291.494C409.057 291.22 411.381 289.368 412.258 286.76L422.098 257.501L452.357 263.608C455.054 264.151 457.82 263.067 459.426 260.832C461.032 258.598 461.18 255.629 459.804 253.247L420.726 185.563C437.849 166.799 448.306 141.853 448.306 114.509C448.307 56.331 400.975 9 342.797 9C284.619 9 237.287 56.332 237.287 114.51C237.287 141.854 247.744 166.8 264.867 185.564L225.79 253.248C224.414 255.631 224.562 258.599 226.168 260.833C227.774 263.067 230.543 264.152 233.237 263.608ZM418.816 242.557C415.359 241.857 411.921 243.844 410.796 247.187L403.931 267.6L373.779 215.375C387.312 211.21 399.692 204.389 410.311 195.524L439.925 246.818L418.816 242.557ZM342.797 23C393.255 23 434.307 64.051 434.307 114.51C434.307 164.969 393.256 206.02 342.797 206.02C292.338 206.02 251.287 164.969 251.287 114.51C251.287 64.051 292.338 23 342.797 23ZM275.282 195.524C285.901 204.388 298.281 211.209 311.814 215.375L281.662 267.6L274.797 247.187C273.672 243.843 270.23 241.857 266.777 242.557L245.667 246.818L275.282 195.524ZM319.246 100.001C319.246 90.287 326.159 82.038 335.674 79.239L335.603 76.277C335.511 72.412 338.569 69.204 342.434 69.112C346.266 69.016 349.507 72.078 349.599 75.943L349.681 79.37C354.836 80.896 360.506 83.909 363.33 88.206C365.454 91.436 364.556 95.777 361.325 97.9C358.095 100.023 353.754 99.126 351.631 95.895C350.626 94.545 345.431 92.221 342.797 92.221C337.531 92.221 333.246 95.711 333.246 100.001C333.246 104.291 337.531 107.781 342.797 107.781C355.783 107.781 366.348 117.552 366.348 129.561C366.348 139.271 359.441 147.518 349.932 150.319L349.991 152.74C350.084 156.605 347.027 159.814 343.162 159.907C343.105 159.908 343.047 159.909 342.99 159.909C339.202 159.909 336.087 156.886 335.995 153.078L335.932 150.449C330.835 149.021 327.321 146.076 324.146 143.081C321.334 140.428 321.205 135.998 323.858 133.185C326.51 130.373 330.941 130.244 333.754 132.897C337.346 136.286 339.062 137.341 342.798 137.341C348.065 137.341 352.349 133.851 352.349 129.561C352.349 125.271 348.064 121.781 342.798 121.781C329.811 121.781 319.246 112.011 319.246 100.001ZM342.797 175.624C376.496 175.624 403.912 148.208 403.912 114.509C403.912 80.81 376.496 53.394 342.797 53.394C309.098 53.394 281.682 80.81 281.682 114.509C281.682 148.208 309.098 175.624 342.797 175.624ZM342.797 67.395C368.776 67.395 389.912 88.531 389.912 114.51C389.912 140.489 368.776 161.625 342.797 161.625C316.818 161.625 295.682 140.489 295.682 114.51C295.682 88.531 316.818 67.395 342.797 67.395Z" fill="white"/>
</svg>
