<svg width="512" height="512" viewBox="0 0 512 512" fill="none" xmlns="http://www.w3.org/2000/svg">
<g clip-path="url(#clip0_9_139)">
<path d="M296.002 96H168.002C163.586 96 160.002 99.584 160.002 104V112.88C154.218 106.968 147.138 102.376 139.234 99.472C151.89 89.2 160.002 73.536 160.002 56H192.002V40H157.642C150.738 16.896 129.322 0 104.002 0C73.1221 0 48.0021 25.12 48.0021 56C48.0021 73.536 56.1141 89.2 68.7701 99.472C47.3541 107.344 32.0021 127.888 32.0021 152V240C32.0021 259.672 37.7621 278.768 48.0021 295.152V382.112L0.842125 476.424C-1.02187 480.16 0.298126 484.712 3.88213 486.864L43.8821 510.864C45.1701 511.632 46.5941 512 47.9941 512C50.6821 512 53.3061 510.648 54.8181 508.192L118.818 404.192C119.418 403.216 119.802 402.128 119.946 400.992L124.874 361.648L160.002 388V504C160.002 508.416 163.586 512 168.002 512H216.002C220.418 512 224.002 508.416 224.002 504V352C224.002 350.04 223.282 348.152 221.986 346.68L160.002 276.96V272H232.002C254.058 272 272.002 254.056 272.002 232V224H296.002C300.418 224 304.002 220.416 304.002 216V104C304.002 99.584 300.418 96 296.002 96ZM240.002 112V144H224.002V112H240.002ZM104.002 16C120.362 16 134.418 25.896 140.61 40H67.3941C73.5861 25.896 87.6421 16 104.002 16ZM64.0021 56H144.002C144.002 78.056 126.058 96 104.002 96C81.9461 96 64.0021 78.056 64.0021 56ZM104.282 397.288L45.3381 493.072L18.4741 476.952L63.1621 387.576C63.7141 386.472 64.0021 385.24 64.0021 384V314.992C67.0261 317.904 70.2101 320.656 73.6021 323.2L110.13 350.592L104.282 397.288ZM256.002 232C256.002 245.232 245.234 256 232.002 256H152.002C138.77 256 128.002 245.232 128.002 232V160H112.002V232C112.002 251.32 125.77 267.48 144.002 271.192V280C144.002 281.96 144.722 283.848 146.018 285.32L208.002 355.04V496H176.002V384C176.002 381.48 174.818 379.112 172.802 377.6L83.2021 310.4C61.1621 293.872 48.0021 267.552 48.0021 240V152C48.0021 129.944 65.9461 112 88.0021 112H120.002C142.058 112 160.002 129.944 160.002 152V216C160.002 220.416 163.586 224 168.002 224H256.002V232ZM288.002 208H176.002V152V112H208.002V152C208.002 156.416 211.586 160 216.002 160H248.002C252.418 160 256.002 156.416 256.002 152V112H288.002V208Z" fill="#0C2453"/>
<path d="M512.002 8C512.002 3.584 508.418 0 504.002 0H344.002C339.586 0 336.002 3.584 336.002 8V216H328.002C323.586 216 320.002 219.584 320.002 224V272C320.002 276.416 323.586 280 328.002 280H336.002V504C336.002 508.416 339.586 512 344.002 512H504.002C508.418 512 512.002 508.416 512.002 504V8ZM352.002 16H496.002V144H463.122C473.522 133.824 480.002 119.664 480.002 104C480.002 73.12 454.882 48 424.002 48C393.122 48 368.002 73.12 368.002 104C368.002 129.952 385.778 151.776 409.778 158.096C403.77 165.096 400.002 174.072 400.002 184V216H352.002V16ZM408.002 112C408.002 120.592 403.37 128.392 396.154 132.616C388.682 125.344 384.002 115.224 384.002 104C384.002 81.944 401.946 64 424.002 64C446.058 64 464.002 81.944 464.002 104C464.002 126.056 446.058 144 424.002 144C419.33 144 414.914 143.04 410.746 141.568C418.946 134.144 424.002 123.52 424.002 112H408.002ZM336.002 232H408.002C412.418 232 416.002 228.416 416.002 224V184C416.002 170.768 426.77 160 440.002 160H496.002V308.688L453.77 266.456C460.058 259.384 464.002 250.184 464.002 240V208H448.002V240C448.002 253.232 437.234 264 424.002 264H336.002V232ZM352.002 496V280H424.002C430.034 280 435.706 278.56 440.842 276.152L496.002 331.312V496H352.002Z" fill="#0C2453"/>
<path d="M192.002 176H208.002V192H192.002V176Z" fill="#0C2453"/>
</g>
<defs>
<clipPath id="clip0_9_139">
<rect width="512" height="512" fill="white" transform="translate(0.00195312)"/>
</clipPath>
</defs>
</svg>
