<svg width="512" height="512" viewBox="0 0 512 512" fill="none" xmlns="http://www.w3.org/2000/svg">
<g clip-path="url(#clip0_9_92)">
<path d="M476.16 231.363L462.901 178.328C466.526 177.558 469.246 174.342 469.246 170.489V161.938C469.246 143.372 454.141 128.268 435.576 128.268H375.184V110.63C375.184 101.494 367.752 94.062 358.616 94.062H50.774C41.638 94.062 34.206 101.494 34.206 110.63V256C34.206 260.427 37.795 264.017 42.223 264.017C46.65 264.017 50.24 260.428 50.24 256V110.63C50.24 110.335 50.479 110.096 50.774 110.096H358.615C358.91 110.096 359.149 110.335 359.149 110.63V256.002C359.149 260.429 362.738 264.019 367.166 264.019C371.593 264.019 375.183 260.43 375.183 256.002V246.914H469.752C469.76 246.914 469.766 246.916 469.773 246.916C469.781 246.916 469.788 246.915 469.795 246.915C481.432 246.923 491.313 254.561 494.707 265.086H469.779C465.352 265.086 461.762 268.675 461.762 273.103V290.205C461.762 304.056 473.03 315.324 486.881 315.324H495.967V350.597H475.005C468.119 330.714 449.218 316.392 427.023 316.392C404.828 316.392 385.926 330.714 379.041 350.597H375.181V290.204C375.181 285.777 371.592 282.187 367.164 282.187C362.737 282.187 359.147 285.776 359.147 290.204V350.595H192.819C185.933 330.712 167.032 316.39 144.837 316.39C122.642 316.39 103.74 330.712 96.8549 350.595H50.774C50.479 350.595 50.24 350.356 50.24 350.061V332.424H84.979C89.406 332.424 92.996 328.835 92.996 324.407C92.996 319.979 89.407 316.39 84.979 316.39H8.01895C3.59195 316.39 0.00195312 319.979 0.00195312 324.407C0.00195312 328.835 3.59095 332.424 8.01895 332.424H34.207V350.061C34.207 359.197 41.639 366.629 50.775 366.629H94.079C94.077 366.807 94.065 366.984 94.065 367.163C94.065 395.159 116.842 417.935 144.837 417.935C172.832 417.935 195.609 395.159 195.609 367.163C195.609 366.983 195.597 366.807 195.595 366.629H376.265C376.263 366.807 376.251 366.984 376.251 367.163C376.251 395.159 399.028 417.935 427.023 417.935C455.018 417.935 477.795 395.159 477.795 367.163C477.795 366.983 477.783 366.807 477.781 366.629H503.984C508.411 366.629 512.001 363.04 512.001 358.612V273.101C512.002 251.989 496.425 234.448 476.16 231.363ZM375.184 144.301H435.576C445.301 144.301 453.213 152.213 453.213 161.938V162.472H375.184V144.301ZM375.184 230.881V178.505H446.419L459.513 230.881H375.184ZM144.837 401.904C125.682 401.904 110.098 386.321 110.098 367.165C110.098 348.009 125.682 332.426 144.837 332.426C163.992 332.426 179.576 348.009 179.576 367.165C179.576 386.321 163.992 401.904 144.837 401.904ZM427.025 401.904C407.87 401.904 392.286 386.321 392.286 367.165C392.286 348.009 407.87 332.426 427.025 332.426C446.18 332.426 461.764 348.009 461.764 367.165C461.764 386.321 446.18 401.904 427.025 401.904ZM495.969 299.29H486.883C481.873 299.29 477.797 295.214 477.797 290.204V281.118H495.968V299.29H495.969Z" fill="#0C2453"/>
<path d="M144.837 350.597C135.701 350.597 128.269 358.029 128.269 367.165C128.269 376.301 135.701 383.733 144.837 383.733C153.973 383.733 161.405 376.301 161.405 367.165C161.405 358.029 153.973 350.597 144.837 350.597Z" fill="#0C2453"/>
<path d="M427.025 350.597C417.889 350.597 410.457 358.029 410.457 367.165C410.457 376.301 417.889 383.733 427.025 383.733C436.161 383.733 443.593 376.301 443.593 367.165C443.593 358.029 436.161 350.597 427.025 350.597Z" fill="#0C2453"/>
<path d="M332.962 316.393H213.246C208.819 316.393 205.229 319.982 205.229 324.41C205.229 328.838 208.818 332.427 213.246 332.427H332.962C337.389 332.427 340.979 328.838 340.979 324.41C340.979 319.982 337.39 316.393 332.962 316.393Z" fill="#0C2453"/>
<path d="M127.735 282.188H25.121C20.694 282.188 17.104 285.777 17.104 290.205C17.104 294.633 20.693 298.222 25.121 298.222H127.735C132.162 298.222 135.752 294.633 135.752 290.205C135.752 285.777 132.162 282.188 127.735 282.188Z" fill="#0C2453"/>
<path d="M278.773 173.37C275.643 170.24 270.566 170.24 267.436 173.371L196.144 244.662L159.057 207.575C155.926 204.444 150.85 204.444 147.72 207.575C144.589 210.706 144.589 215.781 147.72 218.912L190.476 261.668C192.041 263.234 194.093 264.016 196.144 264.016C198.195 264.016 200.248 263.234 201.812 261.668L278.772 184.708C281.903 181.576 281.903 176.501 278.773 173.37Z" fill="#0C2453"/>
</g>
<defs>
<clipPath id="clip0_9_92">
<rect width="512" height="512" fill="white" transform="translate(0.00195312)"/>
</clipPath>
</defs>
</svg>
