<svg width="512" height="512" viewBox="0 0 512 512" fill="none" xmlns="http://www.w3.org/2000/svg">
<path d="M256.002 73.7282C273.534 73.7282 287.746 59.516 287.746 41.9842C287.746 24.4525 273.534 10.2402 256.002 10.2402C238.47 10.2402 224.258 24.4525 224.258 41.9842C224.258 59.516 238.47 73.7282 256.002 73.7282Z" stroke="white" stroke-width="10.24" stroke-miterlimit="10" stroke-linecap="round" stroke-linejoin="round"/>
<path d="M256.002 501.76C273.534 501.76 287.746 487.548 287.746 470.016C287.746 452.485 273.534 438.272 256.002 438.272C238.47 438.272 224.258 452.485 224.258 470.016C224.258 487.548 238.47 501.76 256.002 501.76Z" stroke="white" stroke-width="10.24" stroke-miterlimit="10" stroke-linecap="round" stroke-linejoin="round"/>
<path d="M470.018 287.744C487.55 287.744 501.762 273.532 501.762 256C501.762 238.469 487.55 224.256 470.018 224.256C452.486 224.256 438.274 238.469 438.274 256C438.274 273.532 452.486 287.744 470.018 287.744Z" stroke="white" stroke-width="10.24" stroke-miterlimit="10" stroke-linecap="round" stroke-linejoin="round"/>
<path d="M41.9859 287.744C59.5177 287.744 73.7299 273.532 73.7299 256C73.7299 238.469 59.5177 224.256 41.9859 224.256C24.4542 224.256 10.2419 238.469 10.2419 256C10.2419 273.532 24.4542 287.744 41.9859 287.744Z" stroke="white" stroke-width="10.24" stroke-miterlimit="10" stroke-linecap="round" stroke-linejoin="round"/>
<path d="M407.554 136.192C425.086 136.192 439.298 121.98 439.298 104.448C439.298 86.9164 425.086 72.7041 407.554 72.7041C390.022 72.7041 375.81 86.9164 375.81 104.448C375.81 121.98 390.022 136.192 407.554 136.192Z" stroke="white" stroke-width="10.24" stroke-miterlimit="10" stroke-linecap="round" stroke-linejoin="round"/>
<path d="M104.45 439.296C121.982 439.296 136.194 425.084 136.194 407.552C136.194 390.02 121.982 375.808 104.45 375.808C86.9183 375.808 72.7061 390.02 72.7061 407.552C72.7061 425.084 86.9183 439.296 104.45 439.296Z" stroke="white" stroke-width="10.24" stroke-miterlimit="10" stroke-linecap="round" stroke-linejoin="round"/>
<path d="M407.554 439.296C425.086 439.296 439.298 425.084 439.298 407.552C439.298 390.02 425.086 375.808 407.554 375.808C390.022 375.808 375.81 390.02 375.81 407.552C375.81 425.084 390.022 439.296 407.554 439.296Z" stroke="white" stroke-width="10.24" stroke-miterlimit="10" stroke-linecap="round" stroke-linejoin="round"/>
<path d="M104.45 136.192C121.982 136.192 136.194 121.98 136.194 104.448C136.194 86.9164 121.982 72.7041 104.45 72.7041C86.9183 72.7041 72.7061 86.9164 72.7061 104.448C72.7061 121.98 86.9183 136.192 104.45 136.192Z" stroke="white" stroke-width="10.24" stroke-miterlimit="10" stroke-linecap="round" stroke-linejoin="round"/>
<path d="M256.002 73.728V112.64" stroke="white" stroke-width="10.24" stroke-miterlimit="10" stroke-linecap="round" stroke-linejoin="round"/>
<path d="M256.002 399.36V438.272" stroke="white" stroke-width="10.24" stroke-miterlimit="10" stroke-linecap="round" stroke-linejoin="round"/>
<path d="M438.274 256H399.362" stroke="white" stroke-width="10.24" stroke-miterlimit="10" stroke-linecap="round" stroke-linejoin="round"/>
<path d="M112.642 256H73.73" stroke="white" stroke-width="10.24" stroke-miterlimit="10" stroke-linecap="round" stroke-linejoin="round"/>
<path d="M385.026 126.976L357.378 154.624" stroke="white" stroke-width="10.24" stroke-miterlimit="10" stroke-linecap="round" stroke-linejoin="round"/>
<path d="M154.626 357.376L126.978 385.024" stroke="white" stroke-width="10.24" stroke-miterlimit="10" stroke-linecap="round" stroke-linejoin="round"/>
<path d="M385.026 385.024L357.378 357.376" stroke="white" stroke-width="10.24" stroke-miterlimit="10" stroke-linecap="round" stroke-linejoin="round"/>
<path d="M154.626 154.624L126.978 126.976" stroke="white" stroke-width="10.24" stroke-miterlimit="10" stroke-linecap="round" stroke-linejoin="round"/>
<path d="M366.594 284.672C363.522 296.96 358.402 308.224 352.258 319.488C339.97 315.392 327.682 316.416 320.514 323.584C313.346 331.776 311.298 344.064 316.418 356.352C306.178 362.496 294.914 367.616 282.626 370.688C276.482 358.4 266.242 350.208 256.002 350.208C245.762 350.208 235.522 358.4 230.402 369.664C218.114 366.592 206.85 361.472 196.61 355.328C200.706 343.04 199.682 330.752 192.514 322.56C185.346 315.392 173.058 313.344 159.746 318.464C153.602 308.224 148.482 295.936 145.41 283.648C157.698 277.504 164.866 268.288 164.866 257.024C164.866 246.784 156.674 236.544 145.41 230.4C148.482 218.112 152.578 206.848 159.746 195.584C172.034 199.68 184.322 198.656 192.514 191.488C199.682 183.296 201.73 171.008 196.61 158.72C206.85 152.576 218.114 147.456 230.402 144.384C236.546 156.672 245.762 164.864 256.002 164.864C267.266 164.864 276.482 156.672 281.602 144.384C293.89 147.456 305.154 152.576 315.394 158.72C311.298 171.008 312.322 183.296 319.49 191.488C326.658 198.656 338.946 200.704 352.258 195.584C358.402 205.824 363.522 218.112 366.594 230.4C354.306 236.544 347.138 245.76 347.138 257.024C347.138 269.312 354.306 278.528 366.594 284.672Z" stroke="white" stroke-width="10.24" stroke-miterlimit="10" stroke-linecap="round" stroke-linejoin="round"/>
<path d="M256.002 316.416C288.238 316.416 314.37 290.284 314.37 258.048C314.37 225.812 288.238 199.68 256.002 199.68C223.766 199.68 197.634 225.812 197.634 258.048C197.634 290.284 223.766 316.416 256.002 316.416Z" stroke="white" stroke-width="10.24" stroke-miterlimit="10" stroke-linecap="round" stroke-linejoin="round"/>
</svg>
