<svg width="512" height="512" viewBox="0 0 512 512" fill="none" xmlns="http://www.w3.org/2000/svg">
<g clip-path="url(#clip0_9_147)">
<path d="M305.551 429.419C291.892 429.419 280.776 440.535 280.776 454.194C280.776 467.852 291.892 478.968 305.551 478.968C319.209 478.968 330.325 467.852 330.325 454.194C330.325 440.535 319.209 429.419 305.551 429.419ZM305.551 462.452C301 462.452 297.292 458.752 297.292 454.194C297.292 449.635 301 445.936 305.551 445.936C310.101 445.936 313.809 449.635 313.809 454.194C313.809 458.752 310.101 462.452 305.551 462.452Z" fill="#0C2453"/>
<path d="M107.357 429.419C93.6979 429.419 82.5825 440.535 82.5825 454.194C82.5825 467.852 93.6979 478.968 107.357 478.968C121.016 478.968 132.131 467.852 132.131 454.194C132.131 440.535 121.016 429.419 107.357 429.419ZM107.357 462.452C102.807 462.452 99.0986 458.752 99.0986 454.194C99.0986 449.635 102.807 445.936 107.357 445.936C111.907 445.936 115.615 449.635 115.615 454.194C115.615 458.752 111.907 462.452 107.357 462.452Z" fill="#0C2453"/>
<path d="M123.873 132.129C137.532 132.129 148.647 121.014 148.647 107.355C148.647 93.6959 137.532 82.5806 123.873 82.5806C110.214 82.5806 99.0986 93.6959 99.0986 107.355C99.0986 121.014 110.214 132.129 123.873 132.129ZM123.873 99.0967C128.423 99.0967 132.131 102.796 132.131 107.355C132.131 111.913 128.423 115.613 123.873 115.613C119.323 115.613 115.615 111.913 115.615 107.355C115.615 102.796 119.323 99.0967 123.873 99.0967Z" fill="#0C2453"/>
<path d="M454.196 297.291C440.537 297.291 429.421 308.406 429.421 322.065C429.421 335.724 440.537 346.839 454.196 346.839C467.854 346.839 478.97 335.724 478.97 322.065C478.97 308.406 467.854 297.291 454.196 297.291ZM454.196 330.323C449.645 330.323 445.938 326.623 445.938 322.065C445.938 317.506 449.645 313.807 454.196 313.807C458.746 313.807 462.454 317.506 462.454 322.065C462.454 326.623 458.746 330.323 454.196 330.323Z" fill="#0C2453"/>
<path d="M462.09 264.861C462.214 261.905 462.454 258.948 462.454 256C462.454 218.36 452.181 181.768 432.89 149.719C441.338 134.854 445.937 117.9 445.937 100.715V99.0968C445.937 44.4532 401.484 0 346.841 0C310.191 0 278.191 20.0506 261.048 49.7135C229.031 48.9786 196.527 55.808 167.509 69.5577C156.897 57.3275 141.289 49.5484 123.873 49.5484C91.9968 49.5484 66.0665 75.487 66.0665 107.355C66.0665 119.791 70.179 132.104 77.6278 142.03L81.0466 146.589C61.9622 177.053 51.2763 211.729 49.8559 247.742H33.0342C23.9256 247.742 16.5181 255.149 16.5181 264.258V429.419C7.40944 429.419 0.00195312 436.827 0.00195312 445.935V462.452C0.00195312 471.56 7.40944 478.968 16.5181 478.968H55.2071C64.5057 498.465 84.3581 512 107.357 512C130.355 512 150.208 498.465 159.506 478.968H253.401C262.699 498.465 282.552 512 305.55 512C328.549 512 348.401 498.465 357.7 478.968H379.873C388.982 478.968 396.389 471.56 396.389 462.452V439.709C396.389 437.694 396.141 435.679 395.654 433.697L390.369 412.556C402.673 401.994 413.648 390.086 423.137 376.989L454.195 418.411L500.441 356.748C507.898 346.814 512.002 334.493 512.002 322.065C512.002 292.88 490.234 268.734 462.09 264.861ZM346.841 16.5161C392.376 16.5161 429.421 53.5618 429.421 99.0968V100.707C429.421 119.123 423.153 137.249 411.774 151.725L346.841 234.38L281.908 151.725C270.528 137.249 264.26 119.131 264.26 100.707V99.0968C264.26 53.5618 301.306 16.5161 346.841 16.5161ZM123.873 66.0645C146.64 66.0645 165.163 84.5873 165.163 107.355C165.163 116.232 162.232 125.035 156.905 132.121L123.873 176.169L90.8407 132.121C85.5142 125.035 82.5826 116.232 82.5826 107.355C82.5826 84.5873 101.105 66.0645 123.873 66.0645ZM33.0342 264.258H99.0987V327.168L140.389 306.523L181.679 327.168V264.258H247.744V429.419H159.506C150.208 409.922 130.355 396.387 107.357 396.387C84.3581 396.387 64.5057 409.922 55.2071 429.419H33.0342V264.258ZM115.615 264.258H165.163V300.445L140.389 288.058L115.615 300.445V264.258ZM264.26 313.806H342.2C345.99 313.806 349.293 316.383 350.21 320.058L352.778 330.323H313.808C304.7 330.323 297.292 337.73 297.292 346.839V363.355C297.292 372.463 304.7 379.871 313.808 379.871H365.165L377.552 429.419H357.7C348.401 409.922 328.549 396.387 305.55 396.387C289.381 396.387 274.764 403.076 264.26 413.82V313.806ZM361.036 363.355H313.808V346.839H356.907L361.036 363.355ZM16.5181 462.452V445.935H50.211C49.8229 448.644 49.5503 451.386 49.5503 454.194C49.5503 457.001 49.8229 459.743 50.211 462.452H16.5181ZM107.357 495.484C84.5893 495.484 66.0665 476.961 66.0665 454.194C66.0665 431.426 84.5893 412.903 107.357 412.903C130.124 412.903 148.647 431.426 148.647 454.194C148.647 476.961 130.124 495.484 107.357 495.484ZM164.503 462.452C164.891 459.743 165.163 457.001 165.163 454.194C165.163 451.386 164.891 448.644 164.503 445.935H248.405C248.016 448.644 247.744 451.386 247.744 454.194C247.744 457.001 248.016 459.743 248.405 462.452H164.503ZM305.55 495.484C282.783 495.484 264.26 476.961 264.26 454.194C264.26 431.426 282.783 412.903 305.55 412.903C328.318 412.903 346.841 431.426 346.841 454.194C346.841 476.961 328.318 495.484 305.55 495.484ZM362.696 462.452C363.084 459.743 363.357 457.001 363.357 454.194C363.357 451.386 363.084 448.644 362.696 445.935H379.873V462.452H362.696ZM385.86 394.529L366.239 316.053C363.472 305.012 353.587 297.29 342.2 297.29H264.26V264.258C264.26 255.149 256.853 247.742 247.744 247.742H66.3638C67.6851 216.972 76.3065 187.276 91.6912 160.793L123.873 203.702L170.118 142.039C177.575 132.104 181.679 119.783 181.679 107.355C181.679 98.8573 179.788 90.8057 176.477 83.5303C200.673 72.3241 226.521 66.4774 253.491 66.1388C249.841 76.4697 247.744 87.5272 247.744 99.0968V100.707C247.744 122.814 255.267 144.566 268.918 161.932L346.841 261.103L422.567 164.724C437.869 192.603 445.937 223.901 445.937 256C445.937 258.981 445.706 261.979 445.574 264.977C417.786 269.163 396.389 293.128 396.389 322.065C396.389 334.501 400.502 346.814 407.95 356.74L412.715 363.099C404.895 374.52 395.951 385.074 385.86 394.529ZM487.228 346.83L454.195 390.879L421.163 346.83C415.837 339.745 412.905 330.942 412.905 322.065C412.905 299.297 431.428 280.774 454.195 280.774C476.963 280.774 495.486 299.297 495.486 322.065C495.486 330.942 492.554 339.745 487.228 346.83Z" fill="#0C2453"/>
<path d="M346.841 165.161C383.267 165.161 412.905 135.523 412.905 99.0967C412.905 62.6704 383.267 33.0322 346.841 33.0322C310.415 33.0322 280.776 62.6704 280.776 99.0967C280.776 135.523 310.415 165.161 346.841 165.161ZM346.841 49.5484C374.167 49.5484 396.389 71.7708 396.389 99.0967C396.389 126.423 374.167 148.645 346.841 148.645C319.515 148.645 297.292 126.423 297.292 99.0967C297.292 71.7708 319.515 49.5484 346.841 49.5484Z" fill="#0C2453"/>
<path d="M198.195 214.709H214.711V231.226H198.195V214.709Z" fill="#0C2453"/>
<path d="M231.228 214.709H247.744V231.226H231.228V214.709Z" fill="#0C2453"/>
<path d="M264.26 214.709H280.776V231.226H264.26V214.709Z" fill="#0C2453"/>
</g>
<defs>
<clipPath id="clip0_9_147">
<rect width="512" height="512" fill="white" transform="translate(0.00195312)"/>
</clipPath>
</defs>
</svg>
