<svg width="512" height="512" viewBox="0 0 512 512" fill="none" xmlns="http://www.w3.org/2000/svg">
<g clip-path="url(#clip0_10_158)">
<path d="M273.713 229.843C277.618 225.938 277.618 219.606 273.713 215.7C269.807 211.796 263.477 211.796 259.57 215.7C257.684 217.587 254.614 217.587 252.729 215.7C248.824 211.796 242.492 211.795 238.587 215.701C234.682 219.606 234.682 225.937 238.587 229.843C243.429 234.685 249.789 237.106 256.149 237.106C262.509 237.106 268.872 234.685 273.713 229.843Z" fill="#0C2453"/>
<path d="M476.069 410.681C476.069 361.783 441.065 320.43 392.839 312.355L354.22 305.888L310.041 291.654V277.969C310.041 277.876 310.03 277.786 310.027 277.694C337.465 259.924 355.66 229.043 355.66 193.989V151.707C373.284 148.413 386.67 132.925 386.67 114.36C386.67 102.795 381.494 92.1066 372.777 84.9767C373.925 77.2487 373.107 69.2787 370.339 61.9128C363.966 44.9468 348.523 33.5139 330.835 32.1049C323.773 23.0109 312.785 17.5109 301.245 17.3439C288.999 6.12498 273.292 0 256.524 0C239.756 0 224.048 6.12498 211.802 17.3439C200.262 17.5119 189.273 23.0119 182.212 32.1049C164.526 33.5139 149.082 44.9478 142.709 61.9128C139.942 69.2787 139.124 77.2497 140.272 84.9767C131.555 92.1066 126.379 102.794 126.379 114.36C126.379 132.558 139.241 147.804 156.35 151.501V193.989C156.35 229.042 174.544 259.923 201.983 277.693C201.981 277.785 201.969 277.876 201.969 277.968V291.653L157.789 305.887L119.172 312.354C70.9438 320.429 35.9409 361.783 35.9409 410.68V501.998C35.9409 507.52 40.4179 511.998 45.9409 511.998H141.811C147.333 511.998 151.81 507.52 151.81 501.998C151.81 496.476 147.333 491.998 141.811 491.998H127.615V461.998C127.615 457.214 124.227 453.101 119.532 452.184L55.9418 439.763V416.75C59.8558 418.033 63.9408 418.697 68.0558 418.697C72.6638 418.697 77.3068 417.878 81.7807 416.206C94.0557 420.784 107.76 418.987 118.578 411.127C129.395 403.268 135.338 390.796 134.78 377.71C142.647 367.865 145.276 355.114 141.795 342.698C140.477 337.998 138.321 333.686 135.526 329.894L154.964 326.639L194.27 394.97C196.116 398.18 199.48 399.986 202.946 399.986C204.558 399.986 206.193 399.595 207.707 398.773L246.006 377.993V491.998H231.81C226.287 491.998 221.81 496.476 221.81 501.998C221.81 507.52 226.287 511.998 231.81 511.998H466.071C471.593 511.998 476.071 507.52 476.071 501.998V410.681H476.069ZM384.397 461.998V491.998H341.701C344.896 483.415 345.205 473.867 342.238 464.737C337.852 451.239 327.169 441.17 313.738 437.523C307.3 427.613 297.172 421.058 285.293 419.282C278.705 418.299 272.109 418.901 266.004 420.895V377.992L304.302 398.771C305.817 399.593 307.45 399.984 309.063 399.984C312.53 399.984 315.893 398.178 317.74 394.968L357.046 326.637L375.119 329.664C372.454 333.212 370.324 337.291 368.866 341.778C364.926 353.904 366.882 366.499 373.899 375.799C373.513 387.633 378.938 398.883 388.73 405.997C395.039 410.581 402.42 412.91 409.853 412.91C413.939 412.91 418.041 412.206 421.987 410.785C431.79 414.306 442.623 413.433 451.814 408.204C453.244 407.391 454.599 406.487 455.884 405.513C455.993 407.224 456.068 408.944 456.068 410.68V439.762L392.479 452.183C387.785 453.101 384.397 457.214 384.397 461.998ZM449.865 379.712C449.067 384.326 446.194 388.393 441.926 390.821C437.136 393.546 431.565 393.625 426.638 391.034C423.726 389.503 420.243 389.503 417.331 391.034C411.819 393.932 405.522 393.476 400.485 389.817C395.447 386.157 393.068 380.309 394.121 374.172C394.677 370.928 393.602 367.618 391.246 365.32C386.966 361.148 385.71 354.658 387.887 347.96C389.663 342.494 394.191 336.287 401.585 335.08C423.675 342.394 441.105 358.834 449.865 379.712ZM305.267 376.542L270.671 357.771L303.963 310.709L337.012 321.356L305.267 376.542ZM146.377 114.359C146.377 107.591 150.123 101.456 156.154 98.3456C160.523 96.0936 162.607 90.9986 161.069 86.3297C159.183 80.6027 159.308 74.5917 161.429 68.9447C165.442 58.2648 175.787 51.4418 187.184 51.9868C191.02 52.1648 194.625 50.1328 196.453 46.7528C199.94 40.3018 207.173 36.5719 214.453 37.4689C217.595 37.8619 220.741 36.7319 222.925 34.4349C231.775 25.1269 243.708 19.9999 256.524 19.9999C269.34 19.9999 281.273 25.1269 290.123 34.4359C292.307 36.7329 295.45 37.8549 298.595 37.4699C305.87 36.5759 313.108 40.3018 316.594 46.7538C318.421 50.1348 322.026 52.1508 325.864 51.9878C337.266 51.4158 347.605 58.2638 351.618 68.9457C353.74 74.5917 353.865 80.6037 351.979 86.3307C350.441 90.9996 352.525 96.0936 356.894 98.3466C362.924 101.456 366.67 107.592 366.67 114.36C366.67 124.288 358.594 132.363 348.666 132.363C340.568 132.363 333.427 126.912 331.3 119.108C330.336 115.572 327.514 112.846 323.946 112.004C323.184 111.824 322.415 111.737 321.651 111.737C318.839 111.737 316.115 112.925 314.194 115.074C310.777 118.898 305.883 121.092 300.766 121.092C294.758 121.092 289.166 118.109 285.808 113.111C283.175 109.193 278.162 107.646 273.782 109.409C268.275 111.62 262.469 112.741 256.524 112.741C250.579 112.741 244.772 111.62 239.266 109.409C234.884 107.646 229.872 109.193 227.239 113.111C223.881 118.109 218.289 121.092 212.281 121.092C207.164 121.092 202.27 118.899 198.853 115.074C196.411 112.342 192.669 111.163 189.101 112.004C185.533 112.846 182.712 115.571 181.748 119.108C179.621 126.912 172.479 132.363 164.381 132.363C154.454 132.362 146.377 124.287 146.377 114.359ZM176.349 193.988V150.405C183.793 147.922 190.312 143.196 194.962 136.907C200.27 139.626 206.199 141.091 212.28 141.091C222.294 141.091 231.758 137.168 238.782 130.328C244.542 131.931 250.483 132.739 256.523 132.739C262.563 132.739 268.505 131.93 274.264 130.328C281.288 137.168 290.752 141.091 300.766 141.091C306.846 141.091 312.776 139.626 318.083 136.907C322.518 142.902 328.646 147.485 335.659 150.052V193.989C335.659 237.911 299.926 273.644 256.004 273.644C212.082 273.644 176.349 237.91 176.349 193.988ZM256.005 293.644C267.953 293.644 279.416 291.528 290.041 287.656V295.758L256.005 343.874L221.968 295.758V287.655C232.593 291.528 244.056 293.644 256.005 293.644ZM107.613 470.233V491.998H55.9398V460.14L107.613 470.233ZM117.399 367.159C115.043 369.456 113.967 372.765 114.524 376.01C115.798 383.437 112.919 390.516 106.821 394.946C100.724 399.376 93.0997 399.927 86.4297 396.42C83.5167 394.889 80.0357 394.89 77.1228 396.42C69.5418 400.407 62.3808 398.712 57.4108 395.393C62.8508 367.222 83.0697 344.122 110.463 335.068C116.348 337.131 120.788 341.866 122.535 348.098C124.474 355.008 122.553 362.134 117.399 367.159ZM206.741 376.542L174.996 321.355L208.045 310.708L241.337 357.77L206.741 376.542ZM266.004 443.142C270.547 439.694 276.431 438.18 282.334 439.063C289.328 440.109 295.155 444.389 298.322 450.807C299.779 453.758 302.594 455.804 305.851 456.278C314.137 457.482 320.629 462.955 323.216 470.918C325.664 478.452 323.969 486.233 318.702 491.999H266.003V443.142H266.004ZM404.396 491.998V470.233L456.069 460.14V491.998H404.396Z" fill="#0C2453"/>
<path d="M186.804 512C192.327 512 196.804 507.523 196.804 502C196.804 496.477 192.327 492 186.804 492C181.281 492 176.804 496.477 176.804 502C176.804 507.523 181.281 512 186.804 512Z" fill="#0C2453"/>
</g>
<defs>
<clipPath id="clip0_10_158">
<rect width="512" height="512" fill="white" transform="translate(0.00390625)"/>
</clipPath>
</defs>
</svg>
