<svg width="512" height="512" viewBox="0 0 512 512" fill="none" xmlns="http://www.w3.org/2000/svg">
<path d="M96.002 400C91.2552 400 86.6151 401.408 82.6683 404.045C78.7215 406.682 75.6454 410.43 73.8289 414.816C72.0124 419.201 71.5371 424.027 72.4631 428.682C73.3892 433.338 75.6749 437.614 79.0314 440.971C82.3879 444.327 86.6643 446.613 91.3198 447.539C95.9753 448.465 100.801 447.99 105.186 446.173C109.572 444.357 113.32 441.28 115.957 437.334C118.594 433.387 120.002 428.747 120.002 424C119.995 417.637 117.464 411.537 112.964 407.038C108.465 402.538 102.365 400.007 96.002 400ZM96.002 432C94.4197 432 92.873 431.531 91.5574 430.652C90.2418 429.773 89.2164 428.523 88.6109 427.061C88.0054 425.6 87.847 423.991 88.1557 422.439C88.4644 420.887 89.2263 419.462 90.3451 418.343C91.4639 417.224 92.8894 416.462 94.4412 416.154C95.9931 415.845 97.6016 416.003 99.0634 416.609C100.525 417.214 101.775 418.24 102.654 419.555C103.533 420.871 104.002 422.418 104.002 424C104 426.121 103.156 428.154 101.656 429.654C100.156 431.154 98.123 431.998 96.002 432Z" fill="#017EF6"/>
<path d="M424.002 400C419.255 400 414.615 401.408 410.668 404.045C406.722 406.682 403.645 410.43 401.829 414.816C400.012 419.201 399.537 424.027 400.463 428.682C401.389 433.338 403.675 437.614 407.031 440.971C410.388 444.327 414.664 446.613 419.32 447.539C423.975 448.465 428.801 447.99 433.186 446.173C437.572 444.357 441.32 441.28 443.957 437.334C446.594 433.387 448.002 428.747 448.002 424C447.995 417.637 445.464 411.537 440.964 407.038C436.465 402.538 430.365 400.007 424.002 400ZM424.002 432C422.42 432 420.873 431.531 419.557 430.652C418.242 429.773 417.216 428.523 416.611 427.061C416.005 425.6 415.847 423.991 416.156 422.439C416.464 420.887 417.226 419.462 418.345 418.343C419.464 417.224 420.889 416.462 422.441 416.154C423.993 415.845 425.602 416.003 427.063 416.609C428.525 417.214 429.775 418.24 430.654 419.555C431.533 420.871 432.002 422.418 432.002 424C432 426.121 431.156 428.154 429.656 429.654C428.156 431.154 426.123 431.998 424.002 432Z" fill="#017EF6"/>
<path d="M120.002 344H144.002C146.124 344 148.159 343.157 149.659 341.657C151.159 340.157 152.002 338.122 152.002 336C152.002 333.878 151.159 331.843 149.659 330.343C148.159 328.843 146.124 328 144.002 328H120.002C117.88 328 115.845 328.843 114.345 330.343C112.845 331.843 112.002 333.878 112.002 336C112.002 338.122 112.845 340.157 114.345 341.657C115.845 343.157 117.88 344 120.002 344Z" fill="#017EF6"/>
<path d="M496.002 112H428.962C423.639 91.3927 411.62 73.1381 394.793 60.1054C377.966 47.0726 357.286 40.0005 336.002 40.0005C314.718 40.0005 294.038 47.0726 277.211 60.1054C260.384 73.1381 248.365 91.3927 243.042 112H176.002C173.88 112 171.845 112.843 170.345 114.343C168.845 115.843 168.002 117.878 168.002 120V208H80.002C78.6851 208.002 77.3889 208.328 76.2275 208.949C75.0662 209.569 74.0752 210.466 73.3419 211.56L57.372 235.52C57.3665 235.525 57.363 235.532 57.362 235.54L9.34195 307.56C8.47026 308.877 8.00433 310.421 8.00195 312V424C8.00195 426.122 8.84481 428.157 10.3451 429.657C11.8454 431.157 13.8802 432 16.002 432H48.682C50.5706 443.184 56.3595 453.337 65.0217 460.66C73.684 467.982 84.6597 471.999 96.002 471.999C107.344 471.999 118.32 467.982 126.982 460.66C135.644 453.337 141.433 443.184 143.322 432H376.682C378.571 443.184 384.359 453.337 393.022 460.66C401.684 467.982 412.66 471.999 424.002 471.999C435.344 471.999 446.32 467.982 454.982 460.66C463.644 453.337 469.433 443.184 471.322 432H496.002C498.124 432 500.159 431.157 501.659 429.657C503.159 428.157 504.002 426.122 504.002 424V120C504.002 117.878 503.159 115.843 501.659 114.343C500.159 112.843 498.124 112 496.002 112ZM68.282 248H136.002V304H30.952L68.282 248ZM24.002 352H40.002C42.1237 352 44.1585 352.843 45.6588 354.343C47.1591 355.843 48.002 357.878 48.002 360C48.002 362.122 47.1591 364.157 45.6588 365.657C44.1585 367.157 42.1237 368 40.002 368H24.002V352ZM96.002 456C89.673 456 83.4861 454.123 78.2237 450.607C72.9613 447.091 68.8598 442.093 66.4378 436.246C64.0158 430.399 63.3821 423.965 64.6168 417.757C65.8515 411.55 68.8993 405.848 73.3745 401.373C77.8498 396.897 83.5517 393.85 89.7591 392.615C95.9665 391.38 102.401 392.014 108.248 394.436C114.095 396.858 119.093 400.959 122.609 406.222C126.125 411.484 128.002 417.671 128.002 424C127.991 432.484 124.616 440.616 118.617 446.615C112.618 452.614 104.485 455.989 96.002 456ZM168.002 416H143.322C141.433 404.816 135.644 394.663 126.982 387.341C118.32 380.018 107.344 376.001 96.002 376.001C84.6597 376.001 73.684 380.018 65.0217 387.341C56.3595 394.663 50.5706 404.816 48.682 416H24.002V384H40.002C46.3671 384 52.4716 381.471 56.9725 376.971C61.4734 372.47 64.002 366.365 64.002 360C64.002 353.635 61.4734 347.53 56.9725 343.029C52.4716 338.529 46.3671 336 40.002 336H24.002V320H144.002C146.124 320 148.159 319.157 149.659 317.657C151.159 316.157 152.002 314.122 152.002 312V240C152.002 237.878 151.159 235.843 149.659 234.343C148.159 232.843 146.124 232 144.002 232H78.952L84.282 224H168.002V416ZM336.002 56C357.212 56.0246 377.546 64.4611 392.543 79.4587C407.541 94.4562 415.977 114.79 416.002 136C416.002 170.58 362.962 242.55 336.002 275.5C309.042 242.56 256.002 170.6 256.002 136C256.027 114.79 264.463 94.4562 279.461 79.4587C294.458 64.4611 314.792 56.0246 336.002 56ZM424.002 456C417.673 456 411.486 454.123 406.224 450.607C400.961 447.091 396.86 442.093 394.438 436.246C392.016 430.399 391.382 423.965 392.617 417.757C393.852 411.55 396.899 405.848 401.375 401.373C405.85 396.897 411.552 393.85 417.759 392.615C423.966 391.38 430.401 392.014 436.248 394.436C442.095 396.858 447.093 400.959 450.609 406.222C454.125 411.484 456.002 417.671 456.002 424C455.991 432.484 452.616 440.616 446.617 446.615C440.618 452.614 432.485 455.989 424.002 456ZM488.002 416H471.322C469.433 404.816 463.644 394.663 454.982 387.341C446.32 380.018 435.344 376.001 424.002 376.001C412.66 376.001 401.684 380.018 393.022 387.341C384.359 394.663 378.571 404.816 376.682 416H184.002V352H488.002V416ZM488.002 336H184.002V128H240.342C240.122 130.64 240.002 133.31 240.002 136C240.002 157.81 255.282 191.04 285.412 234.76C307.392 266.66 329.682 292.92 329.912 293.18C330.662 294.064 331.595 294.774 332.646 295.261C333.698 295.748 334.843 296 336.002 296C337.161 296 338.306 295.748 339.358 295.261C340.409 294.774 341.342 294.064 342.092 293.18C342.322 292.92 364.612 266.66 386.592 234.76C416.722 191.04 432.002 157.81 432.002 136C432.002 133.31 431.882 130.64 431.662 128H488.002V336Z" fill="#017EF6"/>
<path d="M336.002 152C342.331 152 348.518 150.123 353.78 146.607C359.043 143.091 363.144 138.093 365.566 132.246C367.988 126.399 368.622 119.965 367.387 113.757C366.152 107.55 363.105 101.848 358.629 97.3726C354.154 92.8973 348.452 89.8496 342.245 88.6149C336.037 87.3802 329.603 88.0139 323.756 90.4359C317.909 92.8579 312.911 96.9594 309.395 102.222C305.879 107.484 304.002 113.671 304.002 120C304.011 128.484 307.386 136.618 313.385 142.617C319.384 148.616 327.518 151.99 336.002 152ZM336.002 104C339.166 104 342.26 104.938 344.891 106.697C347.522 108.455 349.573 110.953 350.784 113.877C351.995 116.801 352.312 120.018 351.695 123.121C351.077 126.225 349.553 129.076 347.316 131.314C345.078 133.551 342.227 135.075 339.123 135.693C336.02 136.31 332.803 135.993 329.879 134.782C326.955 133.571 324.457 131.52 322.698 128.889C320.94 126.258 320.002 123.165 320.002 120C320.007 115.758 321.694 111.691 324.694 108.692C327.693 105.692 331.76 104.005 336.002 104Z" fill="#017EF6"/>
</svg>
