<svg width="512" height="512" viewBox="0 0 512 512" fill="none" xmlns="http://www.w3.org/2000/svg">
<path d="M432.006 328H429.366L400.486 260.64C405.383 262.786 410.66 263.929 416.006 264C418.128 264 420.162 263.157 421.663 261.657C423.163 260.157 424.006 258.122 424.006 256V192C424.006 189.878 423.163 187.844 421.663 186.343C420.162 184.843 418.128 184 416.006 184C407.675 184.045 399.566 186.691 392.811 191.567C386.056 196.443 380.992 203.307 378.326 211.2C375.972 207.914 372.968 205.145 369.5 203.067C366.032 200.989 362.174 199.646 358.166 199.12C353.084 198.464 347.924 198.79 342.966 200.08H336.006C322.486 200.08 316.486 192.08 307.046 179.04L302.326 172.4C307.167 172.153 311.858 170.636 315.926 168C319.013 165.76 321.627 162.931 323.617 159.677C325.608 156.424 326.936 152.809 327.526 149.04C330.126 147.542 332.4 145.539 334.214 143.148C336.027 140.757 337.344 138.028 338.086 135.12C338.424 132.827 338.2 130.486 337.434 128.298C336.667 126.11 335.381 124.141 333.686 122.56C330.419 116.968 328.63 110.635 328.486 104.16C330.551 104.037 332.488 103.117 333.891 101.596C335.293 100.074 336.051 98.0688 336.006 96.0002C336.007 87.521 334.323 79.1262 331.051 71.3035C327.78 63.4807 322.987 56.386 316.951 50.4314C310.914 44.4768 303.755 39.781 295.888 36.617C288.021 33.4529 279.604 31.8836 271.126 32.0002C254.488 32.3277 238.623 39.083 226.856 50.85C215.089 62.6171 208.333 78.4823 208.006 95.1202C207.856 103.603 209.407 112.029 212.568 119.902C215.728 127.775 220.433 134.935 226.406 140.96C228.176 142.719 230.046 144.376 232.006 145.92C201.126 153.44 184.886 182.4 176.566 207.52C174.198 205.135 171.382 203.242 168.278 201.951C165.175 200.66 161.847 199.997 158.486 200H73.5259C69.2594 199.993 65.0597 201.059 61.3131 203.1C57.5666 205.141 54.3935 208.092 52.0859 211.68C50.9295 213.462 50.5285 215.631 50.9711 217.709C51.4137 219.787 52.6636 221.604 54.4459 222.76C56.2281 223.917 58.3967 224.318 60.4746 223.875C62.5525 223.432 64.3695 222.182 65.5259 220.4C66.3878 219.065 67.573 217.969 68.9715 217.214C70.37 216.458 71.9365 216.069 73.5259 216.08H88.0059V240.08C88.0059 242.202 88.8487 244.237 90.349 245.737C91.8493 247.237 93.8841 248.08 96.0059 248.08H136.006C138.128 248.08 140.162 247.237 141.663 245.737C143.163 244.237 144.006 242.202 144.006 240.08V216H158.486C159.736 216 160.974 216.246 162.129 216.725C163.284 217.203 164.333 217.905 165.218 218.789C166.102 219.673 166.803 220.722 167.281 221.877C167.76 223.032 168.006 224.27 168.006 225.52V286.56C167.985 289.071 166.972 291.472 165.189 293.24C163.406 295.008 160.997 296 158.486 296H73.5259C71.2348 296.064 69 295.284 67.2454 293.81C65.4907 292.335 64.338 290.268 64.0059 288H80.0059C82.1276 288 84.1624 287.157 85.6627 285.657C87.163 284.157 88.0059 282.122 88.0059 280C88.0059 277.878 87.163 275.844 85.6627 274.343C84.1624 272.843 82.1276 272 80.0059 272H64.0059V256H72.0059C74.1276 256 76.1624 255.157 77.6627 253.657C79.163 252.157 80.0059 250.122 80.0059 248C80.0059 245.878 79.163 243.844 77.6627 242.343C76.1624 240.843 74.1276 240 72.0059 240H32.0059C29.8841 240 27.8493 240.843 26.349 242.343C24.8487 243.844 24.0059 245.878 24.0059 248C24.0059 250.122 24.8487 252.157 26.349 253.657C27.8493 255.157 29.8841 256 32.0059 256H48.0059V272H16.0059C13.8841 272 11.8493 272.843 10.349 274.343C8.84871 275.844 8.00586 277.878 8.00586 280C8.00586 282.122 8.84871 284.157 10.349 285.657C11.8493 287.157 13.8841 288 16.0059 288H48.0059C48.3733 294.481 51.204 300.576 55.9186 305.038C60.6331 309.499 66.8748 311.99 73.3659 312H113.366C109.664 315.63 106.511 319.781 104.006 324.32C93.3226 345.271 87.835 368.484 88.0059 392C88.0059 394.122 88.8487 396.157 90.349 397.657C91.8493 399.157 93.8841 400 96.0059 400H120.566C122.613 415.375 130.174 429.483 141.843 439.701C153.513 449.92 168.495 455.552 184.006 455.552C199.516 455.552 214.499 449.92 226.168 439.701C237.837 429.483 245.398 415.375 247.446 400H368.566C370.106 412.223 375.14 423.741 383.066 433.173C390.991 442.604 401.469 449.548 413.244 453.17C425.018 456.793 437.588 456.94 449.444 453.595C461.3 450.25 471.939 443.553 480.083 434.31C488.227 425.067 493.531 413.67 495.357 401.487C497.183 389.304 495.454 376.853 490.378 365.628C485.302 354.404 477.094 344.883 466.74 338.208C456.386 331.533 444.325 327.989 432.006 328ZM128.006 232H104.006V216H128.006V232ZM408.006 201.36V246.64C403.318 244.991 399.258 241.927 396.385 237.872C393.513 233.817 391.97 228.97 391.97 224C391.97 219.031 393.513 214.184 396.385 210.128C399.258 206.073 403.318 203.009 408.006 201.36ZM355.846 214.88C358.982 215.35 361.896 216.778 364.188 218.97C366.479 221.161 368.037 224.008 368.646 227.12L370.726 232C359.588 237.726 347.16 240.481 334.646 240C333.544 235.248 334.121 230.261 336.279 225.886C338.438 221.511 342.044 218.018 346.486 216C349.503 215.022 352.688 214.668 355.846 214.96V214.88ZM316.406 136.8C315.074 137.471 313.957 138.501 313.179 139.773C312.402 141.045 311.995 142.509 312.006 144C311.947 146.014 311.468 147.994 310.6 149.812C309.732 151.63 308.494 153.248 306.966 154.56C302.406 157.6 293.926 156.88 282.966 152.56C282.381 152.495 281.791 152.495 281.206 152.56L280.006 151.52V120.88C280.006 116.403 281.784 112.11 284.95 108.944C288.116 105.779 292.409 104 296.886 104H312.006C312.258 114.356 315.509 124.416 321.366 132.96C319.919 134.508 318.246 135.83 316.406 136.88V136.8ZM224.006 95.2802C224.406 82.8677 229.516 71.0729 238.297 62.2914C247.079 53.51 258.873 48.4003 271.286 48.0002H272.006C283.355 47.9928 294.339 52.0067 303.009 59.3295C311.679 66.6522 317.474 76.8102 319.366 88.0002H296.886C288.172 88.0213 279.821 91.4922 273.66 97.6539C267.498 103.815 264.027 112.166 264.006 120.88V143.36C252.706 141.451 242.463 135.563 235.127 126.76C227.79 117.956 223.846 106.819 224.006 95.3602V95.2802ZM248.006 160C274.166 160 283.766 173.68 293.926 188.08C301.286 198.64 309.926 210.16 324.326 214.24C319.796 221.559 317.748 230.144 318.486 238.72C308.556 236.551 299.191 232.327 290.993 226.319C282.795 220.312 275.946 212.655 270.886 203.84C270.45 202.783 269.793 201.831 268.958 201.049C268.123 200.268 267.13 199.674 266.047 199.309C264.963 198.943 263.813 198.814 262.676 198.93C261.538 199.047 260.438 199.406 259.451 199.983C258.464 200.56 257.612 201.343 256.953 202.277C256.293 203.212 255.842 204.277 255.629 205.401C255.416 206.524 255.447 207.681 255.719 208.791C255.991 209.902 256.498 210.942 257.206 211.84C260.106 216.707 263.425 221.311 267.126 225.6L266.406 226.08C258.948 234.658 253.703 244.93 251.126 256H184.006V248C184.566 243.12 193.686 160 248.006 160ZM184.006 286.48V272H256.006C257.606 272 296.006 272.48 296.006 312V352H264.006V336C264.208 330.693 263.312 325.401 261.373 320.457C259.434 315.512 256.495 311.022 252.74 307.266C248.984 303.511 244.494 300.572 239.549 298.633C234.605 296.694 229.313 295.798 224.006 296H182.166C183.388 292.975 184.013 289.743 184.006 286.48ZM184.006 440C172.671 439.989 161.706 435.966 153.052 428.645C144.398 421.324 138.615 411.177 136.726 400H153.126C154.968 406.779 158.99 412.764 164.571 417.03C170.151 421.297 176.981 423.608 184.006 423.608C191.031 423.608 197.86 421.297 203.441 417.03C209.022 412.764 213.044 406.779 214.886 400H231.286C229.397 411.177 223.613 421.324 214.96 428.645C206.306 435.966 195.341 439.989 184.006 440ZM170.246 400H197.766C196.349 402.388 194.336 404.366 191.923 405.739C189.511 407.113 186.782 407.835 184.006 407.835C181.23 407.835 178.501 407.113 176.089 405.739C173.676 404.366 171.663 402.388 170.246 400ZM104.006 384C105.027 365.587 109.992 347.608 118.566 331.28C121.75 325.359 126.502 320.429 132.301 317.028C138.101 313.628 144.724 311.888 151.446 312H224.006C227.203 311.827 230.401 312.329 233.391 313.474C236.382 314.619 239.097 316.381 241.361 318.645C243.625 320.909 245.387 323.625 246.532 326.615C247.677 329.605 248.179 332.803 248.006 336V360C248.006 368.655 250.813 377.076 256.006 384H104.006ZM288.006 384C283.054 383.986 278.228 382.441 274.189 379.577C270.15 376.712 267.096 372.669 265.446 368H304.006C306.094 367.866 308.188 368.169 310.153 368.889C312.117 369.61 313.91 370.733 315.416 372.187C316.922 373.64 318.108 375.391 318.898 377.329C319.689 379.267 320.066 381.348 320.006 383.44C317.354 383.794 314.682 383.981 312.006 384H288.006ZM339.286 374.64C338.13 375.948 336.813 377.104 335.366 378.08C334.487 372.032 331.778 366.398 327.602 361.935C323.425 357.473 317.983 354.397 312.006 353.12V312C312.728 298.947 308.551 286.094 300.295 275.958C292.038 265.823 280.295 259.133 267.366 257.2C269.417 250.025 272.93 243.352 277.686 237.6C277.893 237.32 278.08 237.026 278.246 236.72C290.663 246.793 305.605 253.267 321.446 255.44L344.006 353.52C345.273 360.907 343.577 368.495 339.286 374.64ZM360.006 350.24L338.006 256C351.543 256.125 364.918 253.055 377.046 247.04L414.806 335.04L379.926 384H352.006C355.517 379.188 358.033 373.723 359.407 367.926C360.78 362.129 360.984 356.117 360.006 350.24ZM432.006 384H418.246C420.007 380.95 422.725 378.566 425.979 377.218C429.233 375.87 432.841 375.634 436.243 376.545C439.646 377.457 442.652 379.466 444.796 382.26C446.94 385.054 448.102 388.478 448.102 392C448.102 395.522 446.94 398.946 444.796 401.74C442.652 404.535 439.646 406.543 436.243 407.455C432.841 408.367 429.233 408.13 425.979 406.782C422.725 405.434 420.007 403.05 418.246 400H432.006C434.128 400 436.162 399.157 437.663 397.657C439.163 396.157 440.006 394.122 440.006 392C440.006 389.878 439.163 387.844 437.663 386.343C436.162 384.843 434.128 384 432.006 384ZM399.526 384L402.326 380.08C401.842 381.36 401.442 382.669 401.126 384H399.526ZM432.006 440C420.671 439.989 409.706 435.966 401.052 428.645C392.398 421.324 386.615 411.177 384.726 400H401.126C402.878 406.748 406.786 412.74 412.255 417.063C417.725 421.386 424.457 423.805 431.427 423.952C438.397 424.098 445.224 421.964 450.871 417.874C456.517 413.784 460.673 407.963 462.707 401.294C464.741 394.625 464.541 387.475 462.139 380.93C459.736 374.386 455.262 368.805 449.396 365.036C443.53 361.268 436.595 359.518 429.643 360.053C422.692 360.588 416.106 363.379 410.886 368L427.926 344C429.286 344 430.646 344 432.006 344C444.736 344 456.945 349.057 465.947 358.059C474.949 367.061 480.006 379.27 480.006 392C480.006 404.731 474.949 416.94 465.947 425.941C456.945 434.943 444.736 440 432.006 440Z" fill="#017EF6"/>
</svg>
