<svg width="512" height="512" viewBox="0 0 512 512" fill="none" xmlns="http://www.w3.org/2000/svg">
<g clip-path="url(#clip0_9_128)">
<path d="M439.586 397.739C430.909 397.745 422.426 395.178 415.209 390.362C407.992 385.547 402.365 378.699 399.04 370.685C395.716 362.671 394.842 353.851 396.531 345.34C398.22 336.83 402.395 329.011 408.528 322.874C414.661 316.737 422.476 312.556 430.985 310.861C439.494 309.166 448.315 310.033 456.331 313.352C464.348 316.671 471.2 322.292 476.021 329.506C480.842 336.72 483.415 345.201 483.415 353.877C483.409 365.503 478.791 376.651 470.573 384.875C462.356 393.098 451.211 397.725 439.586 397.739ZM439.586 326.016C434.074 326.01 428.684 327.638 424.098 330.696C419.512 333.754 415.936 338.103 413.822 343.193C411.709 348.284 411.152 353.887 412.224 359.293C413.295 364.7 415.946 369.667 419.842 373.567C423.737 377.467 428.701 380.123 434.106 381.201C439.512 382.279 445.116 381.729 450.208 379.621C455.301 377.513 459.654 373.942 462.717 369.36C465.78 364.777 467.415 359.389 467.415 353.877C467.412 346.495 464.48 339.414 459.263 334.191C454.045 328.967 446.969 326.027 439.586 326.016Z" fill="#017EF6"/>
<path d="M208.45 397.739C199.773 397.747 191.289 395.182 184.07 390.368C176.852 385.553 171.223 378.706 167.897 370.692C164.571 362.678 163.696 353.858 165.384 345.347C167.071 336.836 171.245 329.016 177.378 322.878C183.51 316.74 191.325 312.558 199.835 310.862C208.344 309.166 217.165 310.032 225.182 313.351C233.199 316.669 240.052 322.291 244.874 329.505C249.695 336.719 252.269 345.201 252.269 353.877C252.26 365.5 247.642 376.645 239.428 384.868C231.213 393.09 220.073 397.719 208.45 397.739ZM208.45 326.016C202.938 326.008 197.547 327.635 192.959 330.691C188.372 333.747 184.794 338.096 182.679 343.186C180.564 348.276 180.006 353.879 181.076 359.287C182.146 364.694 184.796 369.663 188.691 373.563C192.586 377.464 197.55 380.122 202.956 381.2C208.362 382.279 213.966 381.73 219.059 379.622C224.153 377.515 228.507 373.943 231.57 369.361C234.633 364.778 236.269 359.39 236.269 353.877C236.263 346.497 233.332 339.42 228.117 334.198C222.902 328.975 215.83 326.033 208.45 326.016Z" fill="#017EF6"/>
<path d="M497.293 361.877H475.415C473.294 361.877 471.259 361.034 469.759 359.534C468.258 358.034 467.415 355.999 467.415 353.877C467.415 351.756 468.258 349.721 469.759 348.22C471.259 346.72 473.294 345.877 475.415 345.877H495.031V303.456C495.026 297.721 493.558 292.081 490.765 287.072L447.458 209.429C447.088 208.767 446.548 208.215 445.894 207.83C445.239 207.446 444.494 207.243 443.735 207.243H384.717V345.909H403.767C405.889 345.909 407.924 346.752 409.424 348.252C410.925 349.753 411.767 351.788 411.767 353.909C411.767 356.031 410.925 358.066 409.424 359.566C407.924 361.066 405.889 361.909 403.767 361.909H376.717C374.595 361.909 372.56 361.066 371.06 359.566C369.56 358.066 368.717 356.031 368.717 353.909V199.243C368.717 197.121 369.56 195.086 371.06 193.586C372.56 192.086 374.595 191.243 376.717 191.243H443.735C447.345 191.241 450.889 192.203 454.002 194.029C457.115 195.856 459.683 198.481 461.442 201.632L504.738 279.285C508.854 286.677 511.017 294.996 511.021 303.456V348.149C511.015 351.788 509.567 355.277 506.994 357.85C504.42 360.424 500.932 361.872 497.293 361.877Z" fill="#017EF6"/>
<path d="M172.621 361.877H95.9165C93.7948 361.877 91.7599 361.035 90.2597 359.534C88.7594 358.034 87.9165 355.999 87.9165 353.877V292.352C87.9165 290.23 88.7594 288.195 90.2597 286.695C91.7599 285.195 93.7948 284.352 95.9165 284.352C98.0382 284.352 100.073 285.195 101.573 286.695C103.074 288.195 103.917 290.23 103.917 292.352V345.877H172.621C174.742 345.877 176.777 346.72 178.277 348.221C179.778 349.721 180.621 351.756 180.621 353.877C180.621 355.999 179.778 358.034 178.277 359.534C176.777 361.035 174.742 361.877 172.621 361.877Z" fill="#017EF6"/>
<path d="M95.9165 263.968C93.7948 263.968 91.7599 263.125 90.2597 261.625C88.7594 260.124 87.9165 258.09 87.9165 255.968V202.25C87.9165 200.129 88.7594 198.094 90.2597 196.594C91.7599 195.093 93.7948 194.25 95.9165 194.25C98.0382 194.25 100.073 195.093 101.573 196.594C103.074 198.094 103.917 200.129 103.917 202.25V256C103.908 258.116 103.061 260.143 101.562 261.636C100.063 263.129 98.0327 263.968 95.9165 263.968Z" fill="#017EF6"/>
<path d="M376.717 361.877H244.269C242.147 361.877 240.112 361.034 238.612 359.534C237.111 358.034 236.269 355.999 236.269 353.877C236.269 351.755 237.111 349.721 238.612 348.22C240.112 346.72 242.147 345.877 244.269 345.877H368.717V136.586H103.917V169.536C103.917 171.657 103.074 173.692 101.573 175.193C100.073 176.693 98.0382 177.536 95.9165 177.536C93.7948 177.536 91.7599 176.693 90.2597 175.193C88.7594 173.692 87.9165 171.657 87.9165 169.536V135.114C87.9222 131.261 89.4561 127.568 92.1817 124.844C94.9073 122.12 98.602 120.589 102.455 120.586H370.189C374.04 120.592 377.732 122.125 380.455 124.848C383.178 127.571 384.711 131.263 384.717 135.114V353.877C384.717 355.999 383.874 358.034 382.373 359.534C380.873 361.034 378.838 361.877 376.717 361.877Z" fill="#017EF6"/>
<path d="M127.543 300.352H26.0073C23.8856 300.352 21.8508 299.509 20.3505 298.009C18.8502 296.509 18.0073 294.474 18.0073 292.352C18.0073 290.23 18.8502 288.195 20.3505 286.695C21.8508 285.195 23.8856 284.352 26.0073 284.352H127.543C129.665 284.352 131.7 285.195 133.2 286.695C134.7 288.195 135.543 290.23 135.543 292.352C135.543 294.474 134.7 296.509 133.2 298.009C131.7 299.509 129.665 300.352 127.543 300.352Z" fill="#017EF6"/>
<path d="M208.45 263.968H66.7646C64.6429 263.968 62.6081 263.125 61.1078 261.625C59.6075 260.124 58.7646 258.09 58.7646 255.968C58.7646 253.846 59.6075 251.811 61.1078 250.311C62.6081 248.811 64.6429 247.968 66.7646 247.968H208.45C210.572 247.968 212.607 248.811 214.107 250.311C215.607 251.811 216.45 253.846 216.45 255.968C216.45 258.09 215.607 260.124 214.107 261.625C212.607 263.125 210.572 263.968 208.45 263.968Z" fill="#017EF6"/>
<path d="M62.3593 221.728H7.03125C4.90952 221.728 2.87469 220.885 1.3744 219.385C-0.125895 217.885 -0.96875 215.85 -0.96875 213.728C-0.96875 211.606 -0.125895 209.571 1.3744 208.071C2.87469 206.571 4.90952 205.728 7.03125 205.728H62.3593C64.481 205.728 66.5158 206.571 68.0161 208.071C69.5164 209.571 70.3593 211.606 70.3593 213.728C70.3593 215.85 69.5164 217.885 68.0161 219.385C66.5158 220.885 64.481 221.728 62.3593 221.728Z" fill="#017EF6"/>
<path d="M151.074 177.536H53.4102C51.2884 177.536 49.2536 176.693 47.7533 175.193C46.253 173.693 45.4102 171.658 45.4102 169.536C45.4102 167.414 46.253 165.38 47.7533 163.879C49.2536 162.379 51.2884 161.536 53.4102 161.536H151.074C153.196 161.536 155.231 162.379 156.731 163.879C158.231 165.38 159.074 167.414 159.074 169.536C159.074 171.658 158.231 173.693 156.731 175.193C155.231 176.693 153.196 177.536 151.074 177.536Z" fill="#017EF6"/>
</g>
<defs>
<clipPath id="clip0_9_128">
<rect width="512" height="512" fill="white" transform="translate(0.00195312)"/>
</clipPath>
</defs>
</svg>
