<svg width="512" height="512" viewBox="0 0 512 512" fill="none" xmlns="http://www.w3.org/2000/svg">
<g clip-path="url(#clip0_10_199)">
<path d="M67.962 327.81H6.12195C2.74195 327.81 0.00195312 325.07 0.00195312 321.69V66.0497C0.00195312 62.6697 2.74195 59.9297 6.12195 59.9297H67.962C71.3419 59.9297 74.082 62.6697 74.082 66.0497V321.7C74.082 325.07 71.3419 327.81 67.962 327.81ZM12.242 315.58H61.842V72.1697H12.242V315.58Z" fill="white"/>
<path d="M422.562 415.88H253.492C250.112 415.88 247.372 413.14 247.372 409.76V392.54C247.372 392.38 247.382 392.23 247.392 392.07C247.562 389.89 247.642 387.68 247.642 385.49C247.642 383.24 247.562 381.07 247.392 378.86C247.382 378.7 247.372 378.55 247.372 378.39V358.27C247.372 354.89 250.112 352.15 253.492 352.15H422.562C425.942 352.15 428.682 354.89 428.682 358.27V409.76C428.682 413.14 425.942 415.88 422.562 415.88ZM259.612 403.64H416.442V364.39H259.612V378.15C259.792 380.59 259.882 382.99 259.882 385.48C259.882 387.9 259.792 390.35 259.612 392.76V403.64Z" fill="white"/>
<path d="M253.492 398.65C253.412 398.65 253.332 398.65 253.252 398.64C249.962 398.51 247.372 395.81 247.372 392.53V378.38C247.372 375.09 249.972 372.39 253.252 372.27C256.512 372.14 259.332 374.63 259.592 377.91C259.782 380.44 259.882 382.91 259.882 385.48C259.882 387.97 259.782 390.5 259.592 393.01C259.342 396.2 256.672 398.65 253.492 398.65Z" fill="white"/>
<path d="M422.562 364.39H250.192C247.422 364.39 245.002 362.53 244.282 359.86C237.422 334.36 221.042 313.06 198.162 299.88C175.282 286.7 148.632 283.22 123.132 290.08C103.252 295.43 85.802 306.63 72.672 322.49C71.022 324.48 68.312 325.22 65.882 324.34C63.452 323.47 61.832 321.16 61.832 318.58V200.86C61.832 199.16 62.542 197.53 63.792 196.37C65.042 195.21 66.722 194.62 68.422 194.76L288.302 211.61C288.372 211.61 288.432 211.62 288.492 211.62L342.652 215.78C346.532 216.08 350.422 216.63 354.232 217.43C377.852 222.25 398.422 235.84 412.132 255.7C413.422 257.57 413.572 260.01 412.512 262.02C411.452 264.03 409.372 265.3 407.092 265.3H332.972V288.18L423.762 306.66C426.622 307.23 428.682 309.74 428.682 312.66V358.27C428.682 361.65 425.942 364.39 422.562 364.39ZM254.782 352.15H416.442V317.67L325.632 299.17C322.782 298.59 320.732 296.08 320.732 293.17V259.17C320.732 255.79 323.472 253.05 326.852 253.05H394.302C382.962 241.02 368.222 232.77 351.762 229.41C348.442 228.72 345.062 228.24 341.712 227.98L287.702 223.83C287.642 223.83 287.572 223.82 287.522 223.82L74.082 207.47V303.31C87.092 291.45 102.712 282.89 119.962 278.25C148.622 270.54 178.562 274.45 204.272 289.27C228.622 303.29 246.422 325.5 254.782 352.15Z" fill="white"/>
<path d="M422.562 318.77C422.162 318.77 421.762 318.73 421.362 318.65L417.972 317.97L325.642 299.16C322.792 298.58 320.742 296.07 320.742 293.16V259.16C320.742 255.78 323.482 253.04 326.862 253.04H407.102C409.112 253.04 410.992 254.03 412.132 255.68C422.962 271.32 428.682 289.64 428.682 308.66V312.64C428.682 314.47 427.862 316.21 426.442 317.37C425.342 318.29 423.972 318.77 422.562 318.77ZM332.982 288.17L416.372 305.16C415.762 290.95 411.462 277.29 403.822 265.29H332.982V288.17Z" fill="white"/>
<path d="M253.492 221.22C253.332 221.22 253.182 221.21 253.022 221.2L67.4918 206.96C64.3018 206.71 61.8418 204.06 61.8418 200.86V66.0497C61.8418 64.1097 62.7618 62.2797 64.3218 61.1297C65.8818 59.9797 67.9018 59.6297 69.7518 60.1997C88.4718 65.9497 105.392 75.4597 120.032 88.4597L257.552 210.52C259.512 212.26 260.152 215.07 259.122 217.49C258.162 219.76 255.932 221.22 253.492 221.22ZM74.0818 195.19L235.842 207.61L111.912 97.6197C100.682 87.6497 87.9918 79.9297 74.0818 74.6297V195.19Z" fill="white"/>
<path d="M187.492 216.15C187.332 216.15 187.172 216.14 187.022 216.13L67.5021 206.95C64.3121 206.7 61.8521 204.05 61.8521 200.85V103.7C61.8521 101.73 62.7921 99.8899 64.3921 98.7399C65.9821 97.5899 68.0321 97.2699 69.9021 97.8899C84.1921 102.63 97.3521 110.77 107.982 121.44L191.832 205.7C193.642 207.51 194.132 210.26 193.062 212.59C192.042 214.77 189.862 216.15 187.492 216.15ZM74.0821 195.19L171.482 202.67L99.2921 130.09C92.0421 122.82 83.4421 116.88 74.0821 112.66V195.19Z" fill="white"/>
<path d="M187.492 216.15C187.332 216.15 187.172 216.14 187.022 216.13L130.972 211.84C128.332 211.64 126.112 209.76 125.492 207.18L122.142 193.39C122.032 192.92 121.972 192.43 121.972 191.94C121.982 180.66 130.062 171.13 141.192 169.27L142.472 169.05C149.422 167.91 156.482 170.19 161.412 175.15L191.822 205.7C193.632 207.51 194.122 210.26 193.052 212.58C192.042 214.77 189.862 216.15 187.492 216.15ZM136.332 199.98L171.492 202.67L152.732 183.79C150.582 181.63 147.512 180.64 144.502 181.13L143.242 181.35C138.222 182.19 134.542 186.32 134.232 191.31L136.332 199.98Z" fill="white"/>
<path d="M148.832 422.19C128.582 422.19 112.102 405.72 112.102 385.46C112.102 365.21 128.572 348.74 148.832 348.74C169.092 348.74 185.562 365.21 185.562 385.46C185.562 405.71 169.082 422.19 148.832 422.19ZM148.832 360.98C135.332 360.98 124.342 371.96 124.342 385.46C124.342 398.96 135.322 409.95 148.832 409.95C162.342 409.95 173.322 398.97 173.322 385.46C173.322 371.96 162.332 360.98 148.832 360.98Z" fill="white"/>
<path d="M148.872 473.12C148.862 473.12 148.852 473.12 148.832 473.12C125.412 473.11 103.392 463.98 86.8319 447.41C70.2719 430.84 61.1619 408.81 61.1719 385.39C61.1819 361.97 70.3119 339.95 86.8819 323.4C103.442 306.85 125.452 297.74 148.862 297.74H148.902C185.982 297.76 219.202 321.26 231.552 356.23C234.882 365.65 236.562 375.49 236.562 385.47C236.552 408.89 227.422 430.91 210.852 447.47C194.282 464 172.272 473.12 148.872 473.12ZM148.862 309.97C128.722 309.97 109.782 317.81 95.5319 332.05C81.2719 346.29 73.4219 365.24 73.4119 385.39C73.4019 405.54 81.2419 424.5 95.4919 438.75C109.742 453 128.682 460.86 148.832 460.87H148.862C169.002 460.87 187.942 453.03 202.192 438.79C216.452 424.55 224.302 405.6 224.312 385.45C224.312 376.86 222.862 368.39 220.002 360.29C209.372 330.2 180.802 309.98 148.892 309.97C148.892 309.97 148.882 309.97 148.862 309.97Z" fill="white"/>
<path d="M148.952 471.1C145.482 471.07 142.032 470.9 138.612 470.49C136.292 470.21 134.642 468.11 134.922 465.79L136.962 448.7C137.242 446.38 139.332 444.73 141.652 445C146.462 445.57 151.332 445.57 156.142 445C158.462 444.73 160.552 446.38 160.832 448.69L162.902 465.78C163.032 466.89 162.722 468.02 162.032 468.9C161.342 469.78 160.322 470.35 159.212 470.49C155.822 470.89 152.362 471.1 148.952 471.1ZM143.832 462.48C145.502 462.59 147.172 462.64 148.832 462.64C148.892 462.65 148.912 462.64 148.952 462.64C150.632 462.64 152.312 462.59 153.992 462.48L152.932 453.77C150.242 453.92 147.542 453.92 144.862 453.77L143.832 462.48ZM120.052 465.86C119.542 465.86 119.042 465.77 118.552 465.59C112.102 463.15 105.952 459.92 100.272 456.01C99.3519 455.37 98.7219 454.4 98.5119 453.3C98.3119 452.2 98.5519 451.06 99.1919 450.14L108.962 435.97C110.292 434.05 112.912 433.57 114.842 434.89C118.822 437.63 123.122 439.89 127.642 441.59C129.822 442.42 130.922 444.85 130.102 447.04L124.022 463.14C123.622 464.19 122.832 465.04 121.802 465.5C121.242 465.74 120.642 465.86 120.052 465.86ZM108.612 451.35C111.512 453.12 114.522 454.7 117.632 456.08L120.732 447.87C118.282 446.76 115.892 445.51 113.592 444.13L108.612 451.35ZM177.772 465.8C177.182 465.8 176.592 465.68 176.042 465.43C175.022 464.97 174.222 464.13 173.822 463.08L167.702 446.99C167.302 445.94 167.342 444.78 167.792 443.76C168.252 442.74 169.102 441.94 170.142 441.54C174.652 439.83 178.942 437.56 182.912 434.81C183.832 434.17 184.962 433.92 186.072 434.12C187.172 434.32 188.152 434.95 188.792 435.87L198.592 450.02C199.232 450.94 199.472 452.08 199.272 453.18C199.072 454.28 198.442 455.26 197.522 455.9C191.852 459.82 185.712 463.06 179.272 465.51C178.792 465.71 178.282 465.8 177.772 465.8ZM177.052 447.81L180.172 456.01C183.272 454.63 186.282 453.04 189.172 451.27L184.172 444.05C181.882 445.45 179.502 446.7 177.052 447.81ZM87.9919 443.77C86.8319 443.77 85.6719 443.29 84.8319 442.35C80.2519 437.2 76.2919 431.5 73.0719 425.41C72.5519 424.42 72.4419 423.26 72.7719 422.19C73.1019 421.12 73.8419 420.22 74.8319 419.7L90.0519 411.66C92.1219 410.57 94.6719 411.36 95.7619 413.42C98.0219 417.69 100.792 421.69 104.002 425.3C105.552 427.04 105.392 429.71 103.652 431.26L90.8019 442.71C89.9919 443.42 88.9919 443.77 87.9919 443.77ZM82.6219 425.15C84.3719 428.06 86.3119 430.85 88.4219 433.51L94.9819 427.68C93.3219 425.56 91.7919 423.35 90.3819 421.06L82.6219 425.15ZM209.802 443.66C209.022 443.66 208.222 443.44 207.522 442.99L207.512 442.98C207.282 442.83 207.072 442.67 206.882 442.49L194.122 431.18C193.282 430.44 192.772 429.39 192.702 428.27C192.632 427.15 193.012 426.05 193.762 425.21C196.962 421.6 199.732 417.6 201.982 413.32C203.072 411.26 205.622 410.46 207.692 411.55L222.922 419.56C223.912 420.08 224.662 420.98 224.992 422.05C225.322 423.12 225.222 424.28 224.692 425.27C221.542 431.25 217.682 436.86 213.202 441.94C213.192 441.96 213.182 441.97 213.172 441.99C212.342 443.07 211.082 443.66 209.802 443.66ZM202.782 427.57L209.342 433.38C211.452 430.72 213.392 427.92 215.132 425.01L207.362 420.93C205.972 423.23 204.442 425.45 202.782 427.57ZM69.8219 409.33C69.0619 409.33 68.3019 409.12 67.6419 408.72C66.6819 408.14 65.9919 407.2 65.7219 406.12C64.0719 399.43 63.2319 392.55 63.2119 385.65C63.2119 383.32 65.0919 381.42 67.4319 381.42L84.6419 381.38H84.6519C85.7719 381.38 86.8419 381.82 87.6319 382.61C88.4219 383.4 88.8719 384.48 88.8719 385.6C88.8819 390.44 89.4719 395.27 90.6319 399.96C90.9019 401.05 90.7319 402.2 90.1519 403.16C89.5719 404.12 88.6319 404.81 87.5519 405.08L70.8419 409.21C70.4919 409.29 70.1519 409.33 69.8219 409.33ZM71.7819 389.86C71.9719 393.25 72.3819 396.63 73.0219 399.96L81.5419 397.86C81.0619 395.21 80.7319 392.53 80.5619 389.84L71.7819 389.86ZM227.912 409.16C227.582 409.16 227.242 409.12 226.912 409.04L210.182 404.94C207.912 404.38 206.532 402.1 207.082 399.83C208.232 395.13 208.812 390.3 208.802 385.47V385.17C208.802 382.84 210.692 380.95 213.022 380.95H230.232C232.562 380.95 234.452 382.84 234.452 385.17C234.472 392.15 233.662 399.01 232.052 405.69C231.992 406.02 231.892 406.35 231.752 406.67C231.062 408.21 229.542 409.16 227.912 409.16ZM216.162 397.7L224.682 399.79C225.322 396.35 225.742 392.87 225.912 389.39H217.142C216.982 392.18 216.662 394.96 216.162 397.7ZM86.4619 374.46C86.1319 374.46 85.8019 374.42 85.4619 374.34L68.7319 370.27C67.6419 370.01 66.7019 369.32 66.1219 368.36C65.5419 367.4 65.3619 366.25 65.6219 365.16C67.2619 358.45 69.7119 351.94 72.9119 345.83C73.4319 344.84 74.3219 344.09 75.3919 343.76C76.4619 343.43 77.6219 343.53 78.6119 344.05L93.8619 352.03C94.8519 352.55 95.6019 353.44 95.9319 354.51C96.2619 355.58 96.1619 356.74 95.6419 357.73C93.4419 361.93 91.7419 366.39 90.6019 371C90.5419 371.33 90.4419 371.65 90.3019 371.96C89.6219 373.51 88.0919 374.46 86.4619 374.46ZM74.9519 363.09L83.4719 365.16C84.2719 362.59 85.2219 360.07 86.3219 357.61L78.5519 353.54C77.1419 356.65 75.9419 359.83 74.9519 363.09ZM211.132 374.07C209.242 374.07 207.522 372.79 207.032 370.87C205.862 366.19 204.112 361.65 201.852 357.4C201.322 356.41 201.212 355.25 201.542 354.18C201.872 353.11 202.612 352.21 203.602 351.69L218.812 343.62C219.802 343.1 220.962 342.98 222.032 343.31C223.102 343.64 224.002 344.38 224.522 345.37C227.752 351.46 230.242 357.95 231.922 364.65C232.192 365.74 232.022 366.89 231.442 367.85C230.862 368.81 229.932 369.5 228.842 369.77L212.152 373.94C211.812 374.03 211.472 374.07 211.132 374.07ZM211.192 357.24C212.302 359.69 213.272 362.2 214.082 364.76L222.592 362.63C221.592 359.38 220.372 356.2 218.942 353.12L211.192 357.24ZM100.682 347.24C99.9219 347.24 99.1619 347.04 98.4719 346.61L98.4619 346.6C98.2119 346.45 97.9819 346.27 97.7719 346.07L84.9819 334.8C83.2319 333.26 83.0619 330.59 84.6119 328.84C89.1719 323.67 94.3519 319.06 100.002 315.12C101.922 313.79 104.552 314.26 105.882 316.18L115.712 330.31C116.352 331.23 116.602 332.37 116.402 333.47C116.202 334.57 115.572 335.55 114.652 336.19C110.772 338.88 107.212 342.03 104.072 345.54C103.242 346.65 101.972 347.24 100.682 347.24ZM93.8319 331.34L100.402 337.14C102.302 335.24 104.322 333.45 106.432 331.78L101.422 324.58C98.7419 326.66 96.2119 328.92 93.8319 331.34ZM196.742 346.95C196.662 346.95 196.582 346.95 196.502 346.94C195.382 346.88 194.332 346.37 193.592 345.53C190.382 341.93 186.732 338.71 182.742 335.98C181.822 335.35 181.182 334.37 180.982 333.27C180.772 332.17 181.022 331.03 181.652 330.11L191.392 315.92C192.022 315 193.002 314.36 194.102 314.16C195.202 313.95 196.342 314.2 197.262 314.83C202.942 318.73 208.152 323.32 212.742 328.46C213.492 329.3 213.872 330.39 213.812 331.51C213.752 332.63 213.242 333.68 212.402 334.42L199.562 345.88C198.782 346.57 197.782 346.95 196.742 346.95ZM190.932 331.52C193.052 333.18 195.082 334.96 196.992 336.85L203.542 331.01C201.142 328.6 198.592 326.36 195.902 324.28L190.932 331.52ZM125.902 329.72C125.182 329.72 124.462 329.54 123.802 329.16L123.792 329.15C122.842 328.61 122.152 327.72 121.842 326.71L115.802 310.92C115.402 309.87 115.432 308.71 115.892 307.69C116.352 306.67 117.192 305.87 118.242 305.47C124.692 303 131.432 301.33 138.282 300.48C140.592 300.2 142.702 301.84 142.992 304.16L145.092 321.24C145.232 322.35 144.922 323.47 144.232 324.36C143.542 325.24 142.532 325.82 141.412 325.95C136.732 326.52 132.122 327.65 127.702 329.31C127.132 329.58 126.522 329.72 125.902 329.72ZM125.252 311.96L128.382 320.15C130.952 319.35 133.562 318.7 136.202 318.21L135.132 309.5C131.782 310.1 128.482 310.92 125.252 311.96ZM171.412 329.58C170.912 329.58 170.412 329.49 169.932 329.31C165.412 327.61 160.692 326.47 155.892 325.91C154.782 325.78 153.762 325.21 153.072 324.33C152.382 323.45 152.062 322.33 152.192 321.22L154.192 304.12C154.462 301.8 156.552 300.14 158.882 300.42C165.732 301.22 172.482 302.85 178.952 305.28C180.002 305.67 180.852 306.47 181.312 307.49C181.772 308.51 181.812 309.67 181.422 310.72L175.382 326.84C174.992 327.89 174.192 328.74 173.172 329.2C172.612 329.45 172.012 329.58 171.412 329.58ZM161.062 318.14C163.712 318.62 166.332 319.25 168.902 320.04L171.982 311.82C168.742 310.8 165.432 310 162.082 309.42L161.062 318.14Z" fill="white"/>
<path d="M148.762 473.26C135.852 473.26 123.012 470.38 111.022 464.65C89.8722 454.55 73.9222 436.82 66.1122 414.73C58.3022 392.64 59.5522 368.82 69.6522 347.67C79.7522 326.52 97.4822 310.57 119.572 302.76C129.102 299.39 139.082 297.74 149.182 297.74C186.242 297.74 219.312 321.21 231.552 356.24C239.362 378.33 238.102 402.14 228.002 423.29C217.902 444.44 200.172 460.39 178.082 468.2C168.522 471.58 158.622 473.26 148.762 473.26ZM149.162 309.97C140.462 309.97 131.862 311.39 123.652 314.29C104.642 321.01 89.3822 334.74 80.6922 352.94C72.0022 371.14 70.9222 391.63 77.6422 410.65C84.3622 429.66 98.0922 444.92 116.292 453.61C134.492 462.3 154.982 463.38 173.992 456.66C193.002 449.94 208.262 436.21 216.952 418.01C225.642 399.81 226.722 379.32 220.002 360.3C220.002 360.29 219.992 360.28 219.992 360.28C209.492 330.15 181.042 309.97 149.162 309.97Z" fill="white"/>
<path d="M253.492 398.65C253.412 398.65 253.332 398.65 253.252 398.64C249.962 398.51 247.372 395.81 247.372 392.53V378.38C247.372 375.09 249.972 372.39 253.252 372.27C256.512 372.14 259.332 374.63 259.592 377.91C259.782 380.44 259.882 382.91 259.882 385.48C259.882 387.97 259.782 390.5 259.592 393.01C259.342 396.2 256.672 398.65 253.492 398.65Z" fill="white"/>
<path d="M165.652 288.01C164.812 288.01 163.962 287.84 163.142 287.47C160.062 286.08 158.682 282.46 160.072 279.38C173.502 249.52 179.412 224.6 176.302 211.02C175.812 208.68 174.932 206.61 173.672 204.74C171.782 201.94 172.522 198.14 175.322 196.24C178.122 194.35 181.922 195.09 183.822 197.89C185.982 201.09 187.472 204.62 188.262 208.41C193.302 230.37 179.762 265.45 171.242 284.41C170.212 286.66 167.982 288.01 165.652 288.01Z" fill="white"/>
<path d="M226.402 197.16C225.272 197.16 224.122 196.85 223.102 196.19C220.262 194.37 219.432 190.58 221.252 187.74L282.172 92.7799C297.442 68.9799 320.572 50.7999 347.292 41.5799L362.742 36.2499C365.942 35.1499 369.422 36.8399 370.522 40.0399C371.622 43.2299 369.932 46.7199 366.732 47.8199L351.282 53.1499C327.142 61.4799 306.252 77.8999 292.462 99.3899L231.542 194.35C230.392 196.17 228.422 197.16 226.402 197.16Z" fill="white"/>
<path d="M288.032 223.86C284.652 223.86 281.912 221.14 281.912 217.76V217.71C281.912 214.33 284.652 211.59 288.032 211.59C291.412 211.59 294.152 214.33 294.152 217.71C294.152 221.09 291.412 223.86 288.032 223.86Z" fill="white"/>
<path d="M287.992 223.84C285.752 223.84 283.592 222.6 282.512 220.46L248.022 151.57C247.592 150.72 247.372 149.78 247.372 148.83C247.372 145.45 250.112 142.69 253.492 142.69C256.062 142.69 258.262 144.26 259.172 146.51L293.462 214.99C294.972 218.01 293.752 221.69 290.732 223.2C289.842 223.63 288.912 223.84 287.992 223.84Z" fill="white"/>
<path d="M433.252 151.62C408.982 151.62 389.242 131.88 389.242 107.61V82.8298C389.242 58.5598 408.982 38.8198 433.252 38.8198H433.262C457.532 38.8198 477.272 58.5598 477.272 82.8298V107.61C477.252 131.87 457.512 151.62 433.252 151.62ZM433.242 51.0598C415.722 51.0598 401.472 65.3098 401.472 82.8298V107.61C401.472 125.13 415.722 139.38 433.242 139.38C450.762 139.38 465.012 125.13 465.012 107.61V82.8298C465.012 65.3098 450.762 51.0598 433.242 51.0598Z" fill="white"/>
<path d="M471.132 94.78H368.152C364.772 94.78 362.032 92.04 362.032 88.66C362.032 85.28 364.772 82.54 368.152 82.54H471.132C474.512 82.54 477.252 85.28 477.252 88.66C477.252 92.04 474.512 94.78 471.132 94.78Z" fill="white"/>
<path d="M419.172 290.75C415.792 290.75 413.052 288.01 413.052 284.63V280.56C413.052 277.49 415.322 274.9 418.362 274.49C444.422 271.03 489.292 260.84 498.762 248.22C500.792 245.52 504.622 244.97 507.332 247C510.032 249.03 510.582 252.86 508.552 255.57C494.832 273.85 442.782 283.19 425.162 285.88C424.592 288.66 422.122 290.75 419.172 290.75Z" fill="white"/>
<path d="M505.882 476.09H386.352C385.612 476.09 384.872 475.95 384.172 475.69C382.912 475.21 371.862 470.74 371.102 461.43C370.582 455.09 374.912 449.19 383.992 443.89C394.252 438.2 403.982 431.68 413.052 424.42V409.75C413.052 406.37 415.792 403.63 419.172 403.63C422.552 403.63 425.292 406.37 425.292 409.75V427.34C425.292 429.17 424.472 430.9 423.062 432.07C412.792 440.52 401.682 448.08 390.042 454.53C383.772 458.19 383.302 460.43 383.302 460.45C383.462 461.17 385.412 462.79 387.622 463.85H499.762V259.39C498.212 237.84 491.862 179.68 480.912 165.81C474.562 158.21 462.472 154.71 453.462 153.13C447.642 152.12 441.682 151.59 435.752 151.55L357.242 227.8C354.822 230.16 350.942 230.1 348.592 227.67C346.232 225.25 346.292 221.37 348.722 219.02L428.962 141.08C430.002 140.07 431.392 139.46 432.842 139.36C432.842 139.36 433.702 139.3 435.212 139.3C442.012 139.31 448.862 139.9 455.562 141.06C471.592 143.87 483.312 149.6 490.402 158.08C505.792 177.58 511.382 250.47 511.972 258.72C511.982 258.86 511.992 259.01 511.992 259.15V469.95C512.002 473.35 509.262 476.09 505.882 476.09Z" fill="white"/>
<path d="M395.352 248.92C393.822 248.92 392.292 248.35 391.102 247.2C388.672 244.85 388.602 240.98 390.952 238.55L450.402 177C454.852 172.48 457.282 166.32 457.102 160.05C456.822 153.37 454.202 153.14 452.622 153C449.252 152.7 446.762 149.73 447.062 146.37C447.362 143 450.322 140.52 453.692 140.81C458.172 141.2 468.672 143.83 469.322 159.63C469.602 169.3 465.882 178.72 459.142 185.55L399.742 247.06C398.552 248.3 396.962 248.92 395.352 248.92Z" fill="white"/>
<path d="M505.862 433.47H419.152C415.772 433.47 413.032 430.73 413.032 427.35C413.032 423.97 415.772 421.23 419.152 421.23H505.862C509.242 421.23 511.982 423.97 511.982 427.35C511.982 430.73 509.242 433.47 505.862 433.47Z" fill="white"/>
<path d="M435.652 476.08C433.702 476.08 431.792 475.15 430.612 473.42C425.562 466.02 423.792 455.12 431.842 448.68C433.812 447.1 435.972 445.69 438.062 444.33C444.302 440.26 450.192 436.41 453.202 427.66C453.322 427.32 453.462 426.99 453.642 426.68C463.552 408.86 453.732 329.6 444.712 280.68C444.102 277.36 446.302 274.17 449.622 273.55C452.942 272.94 456.132 275.13 456.752 278.46C459.112 291.28 479.302 403.93 464.612 432.13C460.182 444.5 451.642 450.08 444.762 454.57C442.832 455.83 441.002 457.02 439.502 458.23C436.872 460.33 440.712 466.48 440.752 466.54C442.612 469.34 441.882 473.14 439.082 475.02C438.032 475.74 436.832 476.08 435.652 476.08Z" fill="white"/>
<path d="M152.462 396.3H145.192C141.222 396.3 137.992 393.07 137.992 389.1V381.83C137.992 377.86 141.222 374.63 145.192 374.63H152.462C156.432 374.63 159.662 377.86 159.662 381.83V389.1C159.662 393.07 156.432 396.3 152.462 396.3ZM146.442 387.85H151.212V383.08H146.442V387.85Z" fill="white"/>
</g>
<defs>
<clipPath id="clip0_10_199">
<rect width="512" height="512" fill="white" transform="translate(0.00195312)"/>
</clipPath>
</defs>
</svg>
