<svg width="496" height="496" viewBox="0 0 496 496" fill="none" xmlns="http://www.w3.org/2000/svg">
<g clip-path="url(#clip0_10_261)">
<path d="M402.526 432L384.006 376.432C377.534 357.032 361.022 342.712 340.894 339.048L287.43 329.32V325.176C296.734 319.776 304.83 312.552 311.278 304H327.43C340.662 304 351.43 293.232 351.43 280V184C351.43 126.656 304.774 80 247.43 80C190.086 80 143.43 126.656 143.43 184V240C143.43 255.424 154.398 268.328 168.942 271.336C173.43 294.328 187.798 313.784 207.43 325.176V329.32L153.958 339.048C133.838 342.712 117.318 357.032 110.854 376.432L107.654 386.04L80.406 358.792C77.286 355.672 77.286 350.592 80.406 347.472L112.006 315.88L52.694 256.568L16.982 292.28C6.40603 302.856 0.582031 316.92 0.582031 331.88C0.582031 346.84 6.40603 360.896 16.982 371.472L125.102 479.592C135.678 490.168 149.742 496 164.702 496C179.662 496 193.718 490.168 204.046 479.832L243.014 444.128L230.862 432H402.526ZM335.43 280C335.43 284.416 331.838 288 327.43 288H320.702C323.022 282.712 324.782 277.136 325.918 271.336C329.342 270.624 332.494 269.264 335.43 267.552V280ZM327.43 253.776V226.224C332.19 229 335.43 234.104 335.43 240C335.43 245.896 332.19 251 327.43 253.776ZM167.43 253.776C162.67 251 159.43 245.896 159.43 240C159.43 234.104 162.67 229 167.43 226.224V253.776ZM167.43 200V209.136C164.582 209.88 161.91 211 159.43 212.448V184C159.43 135.48 198.91 96 247.43 96C295.95 96 335.43 135.48 335.43 184V212.448C332.95 211 330.278 209.872 327.43 209.136V200H319.43C295.774 200 273.534 190.784 256.798 174.056L247.43 164.688L238.062 174.056C221.326 190.784 199.086 200 175.43 200H167.43ZM183.43 256V215.696C207.454 213.888 229.854 203.976 247.43 187.264C265.006 203.976 287.406 213.896 311.43 215.696V256C311.43 267.664 308.246 278.576 302.774 288H247.43V304H289.622C278.342 313.928 263.598 320 247.43 320C212.142 320 183.43 291.288 183.43 256ZM271.43 332.312V332.688L247.43 356.688L223.43 332.688V332.312C231.014 334.696 239.07 336 247.43 336C255.79 336 263.846 334.696 271.43 332.312ZM126.022 381.488C130.638 367.632 142.438 357.4 156.814 354.776L212.734 344.616L247.43 379.312L282.118 344.624L338.03 354.784C352.406 357.408 364.206 367.632 368.822 381.496L380.334 416H214.862L183.702 384.84L149.078 416.16C146.062 419.192 140.79 419.192 137.766 416.16L120.294 398.688L126.022 381.488ZM52.686 279.192L89.374 315.88L80.686 324.568L43.998 287.88L52.686 279.192ZM192.966 468.296C185.414 475.832 175.366 480 164.686 480C154.006 480 143.958 475.832 136.398 468.28L28.278 360.168C20.726 352.616 16.566 342.568 16.566 331.888C16.566 321.2 20.726 311.152 28.278 303.6L32.678 299.2L69.366 335.888L69.078 336.176C59.726 345.536 59.726 360.76 69.078 370.12L126.446 427.488C130.982 432.016 137.006 434.52 143.422 434.52C149.838 434.52 155.862 432.024 160.102 427.768L160.702 427.232L197.558 464.088L192.966 468.296ZM209.366 453.256L172.59 416.48L183.158 406.928L219.87 443.64L209.366 453.256Z" fill="white"/>
<path d="M471.43 0H359.43C346.198 0 335.43 10.768 335.43 24V88C335.43 101.232 346.198 112 359.43 112H380.798L372.526 160.248L449.726 112H471.43C484.662 112 495.43 101.232 495.43 88V24C495.43 10.768 484.662 0 471.43 0ZM479.43 88C479.43 92.408 475.838 96 471.43 96H445.134L394.326 127.752L399.774 96H359.43C355.022 96 351.43 92.408 351.43 88V24C351.43 19.592 355.022 16 359.43 16H471.43C475.838 16 479.43 19.592 479.43 24V88Z" fill="white"/>
<path d="M463.43 32H367.43V48H463.43V32Z" fill="white"/>
<path d="M431.43 64H367.43V80H431.43V64Z" fill="white"/>
<path d="M463.43 64H447.43V80H463.43V64Z" fill="white"/>
<path d="M247.43 24C142.902 24 52.8617 96.304 29.4537 197.16L14.2937 171.888L0.57373 180.12L28.6937 226.976L75.5497 198.856L67.3177 185.136L45.6377 198.144C68.3097 105.88 151.278 40 247.43 40C268.446 40 289.182 43.12 309.062 49.28L313.798 34C292.382 27.36 270.054 24 247.43 24Z" fill="white"/>
<path d="M491.542 177.136L444.686 149.016L416.574 195.88L430.294 204.112L444.294 180.776C451.662 202.336 455.43 224.888 455.43 248C455.43 295.576 438.95 342.088 409.038 378.96L421.462 389.04C453.686 349.328 471.43 299.232 471.43 248C471.43 223.528 467.486 199.632 459.798 176.752L483.31 190.856L491.542 177.136Z" fill="white"/>
</g>
<defs>
<clipPath id="clip0_10_261">
<rect width="496" height="496" fill="white" transform="translate(0.00195312)"/>
</clipPath>
</defs>
</svg>
