<svg width="512" height="512" viewBox="0 0 512 512" fill="none" xmlns="http://www.w3.org/2000/svg">
<g clip-path="url(#clip0_24_17)">
<path d="M431.458 0H80.5336C68.6686 0 59.0166 9.653 59.0166 21.518V140.482C59.0166 152.347 68.6696 162 80.5346 162H168.487V211.088L159.549 212.368C151.09 213.579 145.182 219.331 145.182 226.356V248.561C145.182 252.248 146.839 255.714 149.847 258.322C153.165 261.198 157.794 262.779 162.658 262.779C163.721 262.779 164.794 262.704 165.868 262.55L168.487 262.175V293.492L159.549 294.772C151.09 295.983 145.182 301.735 145.182 308.761V330.966C145.182 334.652 146.839 338.119 149.847 340.727C153.165 343.603 157.794 345.184 162.659 345.184C163.722 345.184 164.795 345.109 165.869 344.955L168.488 344.58V375.897L159.55 377.177C151.091 378.388 145.183 384.14 145.183 391.166V413.371C145.183 417.058 146.84 420.524 149.848 423.132C153.166 426.008 157.795 427.589 162.659 427.589C163.722 427.589 164.796 427.514 165.869 427.36L168.488 426.985V463.183C168.488 471.652 175.374 478.543 183.838 478.543H189.605V496.645C189.605 505.114 196.495 512.003 204.963 512.003H263.023C267.166 512.003 270.523 508.645 270.523 504.503C270.523 500.361 267.166 497.003 263.023 497.003H204.963C204.765 497.003 204.605 496.842 204.605 496.645V478.54H307.392V496.642C307.392 496.84 307.231 497 307.034 497H293.641C289.498 497 286.141 500.358 286.141 504.5C286.141 508.642 289.498 512 293.641 512H307.034C315.503 512 322.392 505.11 322.392 496.642V478.54H328.159C336.623 478.54 343.509 471.649 343.509 463.18V401.927L352.447 400.647C360.906 399.436 366.814 393.684 366.814 386.658V364.453C366.814 360.766 365.158 357.3 362.149 354.692C358.107 351.187 352.116 349.605 346.128 350.464L343.509 350.839V319.521L352.447 318.241C360.906 317.03 366.814 311.278 366.814 304.253V282.05C366.814 278.364 365.158 274.898 362.15 272.289C358.107 268.785 352.117 267.202 346.129 268.061L343.51 268.436V237.119L352.448 235.839C360.907 234.628 366.815 228.876 366.815 221.85V199.645C366.815 195.958 365.159 192.492 362.15 189.884C358.108 186.379 352.117 184.798 346.129 185.656L343.51 186.031V162H385.692C389.835 162 393.192 158.642 393.192 154.5C393.192 150.358 389.835 147 385.692 147H363.075V15H431.463C435.057 15 437.981 17.924 437.981 21.518V140.482C437.981 144.076 435.057 147 431.463 147H416.31C412.167 147 408.81 150.358 408.81 154.5C408.81 158.642 412.167 162 416.31 162H431.463C443.328 162 452.981 152.347 452.981 140.482V21.518C452.975 9.653 443.323 0 431.458 0ZM148.922 147H80.5336C76.9396 147 74.0166 144.076 74.0166 140.482V21.518C74.0166 17.924 76.9406 15 80.5346 15H148.922V147ZM328.506 463.18C328.506 463.382 328.353 463.54 328.156 463.54H183.836C183.64 463.54 183.486 463.382 183.486 463.18V424.835L328.506 404.075V463.18ZM348.251 365.314C349.855 365.083 351.121 365.412 351.811 365.723V385.386C351.475 385.538 350.979 385.704 350.319 385.799L163.742 412.508C162.133 412.737 160.871 412.41 160.182 412.099V392.436C160.518 392.284 161.014 392.118 161.675 392.023L348.251 365.314ZM183.486 373.748V342.431L328.506 321.67V352.988L183.486 373.748ZM348.25 282.91C349.859 282.682 351.122 283.008 351.811 283.32V302.983C351.475 303.135 350.979 303.301 350.319 303.396L163.742 330.106C162.135 330.338 160.871 330.008 160.182 329.697V310.034C160.518 309.882 161.014 309.716 161.675 309.621L348.25 282.91ZM183.486 291.344V260.027L328.506 239.266V270.583L183.486 291.344ZM348.251 200.505C349.859 200.275 351.122 200.603 351.811 200.914V220.577C351.475 220.729 350.979 220.895 350.319 220.99L163.742 247.7C162.135 247.931 160.871 247.602 160.182 247.291V227.628C160.518 227.476 161.014 227.31 161.675 227.215L203.49 221.229C207.59 220.642 210.438 216.842 209.851 212.742C209.264 208.642 205.467 205.792 201.364 206.381L183.487 208.94V162H328.507V188.179H328.506L231.371 202.085C227.271 202.672 224.423 206.472 225.01 210.572C225.597 214.672 229.395 217.523 233.497 216.933L348.251 200.505ZM348.07 147H163.921V15H348.07V147Z" fill="#017EF6"/>
</g>
<defs>
<clipPath id="clip0_24_17">
<rect width="512.003" height="512.003" fill="white" transform="translate(-0.00195312)"/>
</clipPath>
</defs>
</svg>
