<svg width="512" height="512" viewBox="0 0 512 512" fill="none" xmlns="http://www.w3.org/2000/svg">
<path d="M397.882 103.496V94.64C397.864 87.8454 395.157 81.3342 390.352 76.5296C385.548 71.7251 379.037 69.0179 372.242 69C365.444 69.0074 358.927 71.7111 354.12 76.518C349.313 81.3248 346.609 87.8421 346.602 94.64V103.08H320.362V94.64C320.362 87.8468 317.666 81.3312 312.866 76.5239C308.067 71.7166 301.555 69.0106 294.762 69C287.964 69.0085 281.448 71.7125 276.641 76.5191C271.834 81.3257 269.13 87.8424 269.122 94.64V103.08H242.882V94.64C242.882 91.2755 242.219 87.944 240.932 84.8356C239.644 81.7273 237.757 78.903 235.378 76.5239C232.999 74.1449 230.175 72.2577 227.066 70.9702C223.958 69.6827 220.626 69.02 217.262 69.02C213.897 69.02 210.566 69.6827 207.458 70.9702C204.349 72.2577 201.525 74.1449 199.146 76.5239C196.767 78.903 194.88 81.7273 193.592 84.8356C192.305 87.944 191.642 91.2755 191.642 94.64V103.08H165.402V94.64C165.384 87.8454 162.677 81.3342 157.872 76.5296C153.068 71.7251 146.557 69.0179 139.762 69C132.964 69.0085 126.448 71.7125 121.641 76.5191C116.834 81.3257 114.13 87.8424 114.122 94.64V103.496C101.685 105.03 90.2355 111.053 81.9268 120.434C73.6181 129.816 69.0218 141.908 69.002 154.44V391.64C69.0178 405.257 74.4341 418.311 84.0625 427.939C93.6909 437.568 106.745 442.984 120.362 443H391.642C405.259 442.984 418.313 437.568 427.941 427.939C437.57 418.311 442.986 405.257 443.002 391.64V154.44C442.982 141.908 438.386 129.816 430.077 120.434C421.768 111.053 410.319 105.03 397.882 103.496ZM360.602 94.64C360.606 91.5542 361.834 88.596 364.016 86.414C366.198 84.2319 369.156 83.0042 372.242 83C375.323 83.0189 378.273 84.2513 380.452 86.4301C382.631 88.609 383.863 91.5587 383.882 94.64V125.52C383.882 128.607 382.656 131.568 380.473 133.751C378.29 135.934 375.329 137.16 372.242 137.16C369.155 137.16 366.194 135.934 364.011 133.751C361.828 131.568 360.602 128.607 360.602 125.52V94.64ZM283.122 94.64C283.125 91.5539 284.352 88.595 286.535 86.4128C288.717 84.2306 291.676 83.0032 294.762 83C297.842 83.0095 300.793 84.2402 302.968 86.4222C305.143 88.6042 306.363 91.5595 306.362 94.64V125.52C306.362 128.602 305.138 131.557 302.959 133.737C300.779 135.916 297.824 137.14 294.742 137.14C291.66 137.14 288.705 135.916 286.525 133.737C284.346 131.557 283.122 128.602 283.122 125.52V94.64ZM205.642 94.64C205.642 91.5582 206.866 88.6026 209.045 86.4234C211.225 84.2442 214.18 83.02 217.262 83.02C220.344 83.02 223.299 84.2442 225.479 86.4234C227.658 88.6026 228.882 91.5582 228.882 94.64V125.52C228.882 128.602 227.658 131.557 225.479 133.737C223.299 135.916 220.344 137.14 217.262 137.14C214.18 137.14 211.225 135.916 209.045 133.737C206.866 131.557 205.642 128.602 205.642 125.52V94.64ZM128.122 94.64C128.125 91.5539 129.353 88.595 131.535 86.4128C133.717 84.2306 136.676 83.0032 139.762 83C142.843 83.0189 145.793 84.2513 147.972 86.4301C150.151 88.609 151.383 91.5587 151.402 94.64V125.52C151.402 128.607 150.176 131.568 147.993 133.751C145.81 135.934 142.849 137.16 139.762 137.16C136.675 137.16 133.714 135.934 131.531 133.751C129.348 131.568 128.122 128.607 128.122 125.52V94.64ZM114.122 117.644V125.52C114.122 132.32 116.823 138.842 121.632 143.65C126.44 148.459 132.962 151.16 139.762 151.16C146.562 151.16 153.084 148.459 157.892 143.65C162.701 138.842 165.402 132.32 165.402 125.52V117.08H191.642V125.52C191.642 132.315 194.341 138.831 199.146 143.636C203.951 148.441 210.467 151.14 217.262 151.14C224.057 151.14 230.573 148.441 235.378 143.636C240.183 138.831 242.882 132.315 242.882 125.52V117.08H269.122V125.52C269.122 132.315 271.821 138.831 276.626 143.636C281.431 148.441 287.947 151.14 294.742 151.14C301.537 151.14 308.053 148.441 312.858 143.636C317.663 138.831 320.362 132.315 320.362 125.52V117.08H346.602V125.52C346.602 132.32 349.303 138.842 354.112 143.65C358.92 148.459 365.442 151.16 372.242 151.16C379.042 151.16 385.564 148.459 390.372 143.65C395.181 138.842 397.882 132.32 397.882 125.52V117.644C406.576 119.123 414.467 123.628 420.162 130.362C425.856 137.095 428.987 145.625 429.002 154.444V175.512H83.002V154.44C83.0176 145.622 86.1492 137.093 91.8436 130.36C97.538 123.627 105.429 119.123 114.122 117.644ZM391.642 429H120.362C110.457 428.988 100.961 425.048 93.9573 418.045C86.9535 411.041 83.0136 401.545 83.002 391.64V189.52H429.002V391.64C428.99 401.545 425.05 411.041 418.047 418.045C411.043 425.048 401.547 428.988 391.642 429Z" fill="white"/>
<path d="M166.738 224.54H138.474C133.554 224.546 128.836 226.504 125.357 229.983C121.878 233.462 119.92 238.18 119.914 243.1V271.364C119.92 276.285 121.878 281.002 125.357 284.481C128.836 287.96 133.554 289.918 138.474 289.924H166.738C171.659 289.918 176.376 287.96 179.855 284.481C183.334 281.002 185.292 276.285 185.298 271.364V243.1C185.292 238.18 183.334 233.462 179.855 229.983C176.376 226.504 171.659 224.546 166.738 224.54ZM171.298 271.364C171.297 272.573 170.816 273.732 169.961 274.587C169.106 275.442 167.947 275.923 166.738 275.924H138.474C137.265 275.923 136.106 275.442 135.251 274.587C134.396 273.732 133.915 272.573 133.914 271.364V243.1C133.915 241.891 134.396 240.732 135.251 239.877C136.106 239.022 137.265 238.541 138.474 238.54H166.738C167.947 238.541 169.106 239.022 169.961 239.877C170.816 240.732 171.297 241.891 171.298 243.1V271.364Z" fill="white"/>
<path d="M270.134 224.54H241.87C236.95 224.546 232.232 226.504 228.753 229.983C225.274 233.462 223.316 238.18 223.31 243.1V271.364C223.316 276.285 225.274 281.002 228.753 284.481C232.232 287.96 236.95 289.918 241.87 289.924H270.134C275.055 289.918 279.772 287.96 283.251 284.481C286.73 281.002 288.688 276.285 288.694 271.364V243.1C288.688 238.18 286.73 233.462 283.251 229.983C279.772 226.504 275.055 224.546 270.134 224.54ZM274.694 271.364C274.693 272.573 274.212 273.732 273.357 274.587C272.502 275.442 271.343 275.923 270.134 275.924H241.87C240.661 275.923 239.502 275.442 238.647 274.587C237.792 273.732 237.311 272.573 237.31 271.364V243.1C237.311 241.891 237.792 240.732 238.647 239.877C239.502 239.022 240.661 238.541 241.87 238.54H270.134C271.343 238.541 272.502 239.022 273.357 239.877C274.212 240.732 274.693 241.891 274.694 243.1V271.364Z" fill="white"/>
<path d="M382.602 234.116L351.202 265.5L336.178 250.476C334.857 249.201 333.089 248.496 331.254 248.512C329.418 248.529 327.663 249.265 326.365 250.563C325.068 251.862 324.332 253.617 324.316 255.453C324.301 257.288 325.007 259.056 326.282 260.376L346.254 280.348C346.904 280.999 347.675 281.515 348.525 281.867C349.374 282.219 350.284 282.4 351.204 282.4C352.123 282.4 353.034 282.219 353.883 281.867C354.733 281.515 355.504 280.999 356.154 280.348L392.502 244C393.815 242.687 394.552 240.907 394.552 239.05C394.552 237.194 393.815 235.413 392.502 234.1C391.189 232.787 389.409 232.05 387.552 232.05C385.695 232.05 383.915 232.787 382.602 234.1V234.116Z" fill="white"/>
<path d="M166.738 320.964H138.474C133.554 320.97 128.836 322.928 125.357 326.407C121.878 329.886 119.92 334.603 119.914 339.524V367.788C119.92 372.708 121.878 377.425 125.357 380.905C128.836 384.384 133.554 386.342 138.474 386.348H166.738C171.659 386.342 176.376 384.384 179.855 380.905C183.334 377.425 185.292 372.708 185.298 367.788V339.524C185.292 334.603 183.334 329.886 179.855 326.407C176.376 322.928 171.659 320.97 166.738 320.964ZM171.298 367.788C171.297 368.997 170.816 370.156 169.961 371.011C169.106 371.866 167.947 372.347 166.738 372.348H138.474C137.265 372.347 136.106 371.866 135.251 371.011C134.396 370.156 133.915 368.997 133.914 367.788V339.524C133.915 338.315 134.396 337.156 135.251 336.301C136.106 335.446 137.265 334.965 138.474 334.964H166.738C167.947 334.965 169.106 335.446 169.961 336.301C170.816 337.156 171.297 338.315 171.298 339.524V367.788Z" fill="white"/>
<path d="M270.134 320.964H241.87C236.95 320.97 232.232 322.928 228.753 326.407C225.274 329.886 223.316 334.603 223.31 339.524V367.788C223.316 372.708 225.274 377.425 228.753 380.905C232.232 384.384 236.95 386.342 241.87 386.348H270.134C275.055 386.342 279.772 384.384 283.251 380.905C286.73 377.425 288.688 372.708 288.694 367.788V339.524C288.688 334.603 286.73 329.886 283.251 326.407C279.772 322.928 275.055 320.97 270.134 320.964ZM274.694 367.788C274.693 368.997 274.212 370.156 273.357 371.011C272.502 371.866 271.343 372.347 270.134 372.348H241.87C240.661 372.347 239.502 371.866 238.647 371.011C237.792 370.156 237.311 368.997 237.31 367.788V339.524C237.311 338.315 237.792 337.156 238.647 336.301C239.502 335.446 240.661 334.965 241.87 334.964H270.134C271.343 334.965 272.502 335.446 273.357 336.301C274.212 337.156 274.693 338.315 274.694 339.524V367.788Z" fill="white"/>
<path d="M373.53 320.964H345.266C340.346 320.97 335.628 322.928 332.149 326.407C328.67 329.886 326.712 334.603 326.706 339.524V367.788C326.712 372.708 328.67 377.425 332.149 380.905C335.628 384.384 340.346 386.342 345.266 386.348H373.53C378.451 386.342 383.168 384.384 386.647 380.905C390.126 377.425 392.084 372.708 392.09 367.788V339.524C392.084 334.603 390.126 329.886 386.647 326.407C383.168 322.928 378.451 320.97 373.53 320.964ZM378.09 367.788C378.089 368.997 377.608 370.156 376.753 371.011C375.898 371.866 374.739 372.347 373.53 372.348H345.266C344.057 372.347 342.898 371.866 342.043 371.011C341.188 370.156 340.707 368.997 340.706 367.788V339.524C340.707 338.315 341.188 337.156 342.043 336.301C342.898 335.446 344.057 334.965 345.266 334.964H373.53C374.739 334.965 375.898 335.446 376.753 336.301C377.608 337.156 378.089 338.315 378.09 339.524V367.788Z" fill="white"/>
</svg>
